<?xml version="1.0" ?>
<svg xmlns="http://www.w3.org/2000/svg" xmlns:ev="http://www.w3.org/2001/xml-events" xmlns:xlink="http://www.w3.org/1999/xlink" baseProfile="full" height="600px" version="1.1" viewBox="-0.3718287748575055 -1.2882528555002997 1.4375060504057189 1.854292713609185" width="466px">
	<defs/>
	<path d="M 1.0647510554115456,-0.9156859076539292 L -0.28820795536583094,0.5651136379722175 L 0.4800035041892,-0.787205746870288 L -0.37090255472083755,0.39457718587323143 L 0.008889699996299294,-0.45408587581096793 L 0.09367808023707924,-0.07213212178255102 L 0.4270511564285429,0.012811534692856287 L 0.11548828288171535,0.3499644935809556 L 0.17153344836619988,0.04116802760788797 L 0.36101777572482624,0.09747479944570307 L 0.1622456991245781,0.2897244627224609 L 0.19999860547883125,0.09199935852026238 L 0.3092895709587541,0.13299451551226427 L 0.19007818207332547,0.24368997701708395 L 0.21495647095308873,0.12682431786232234 L 0.2717309369924754,0.15216932471578623 L 0.20729561091155574,0.21152613358322014 L 0.21966117170702226,0.14936959676077513 L 0.24741818156417322,0.16329599983235432 L 0.2138248895468039,0.19244240059212353 L 0.21983466291158205,0.1604793039254549 L 0.23257665188949983,0.16745518936043988 L 0.21540746638761804,0.18309634642947534 L 0.2164426035634353,0.16666080474384518 L 0.2231389267697514,0.16958558434501106 L 0.21320623973007585,0.17696117897596295 L 0.21357206236361337,0.16872192926725454 L 0.2156434339618904,0.17251474716951232 L 0.20874433091746253,0.17534523797066853 L 0.2093794613510015,0.16959736369431122 L 0.20973584515792948,0.1719833930295022 L 0.20505218104762263,0.17429435389047926 L 0.20416972423201407,0.1694608711125717 L 0.2050601504085079,0.17019992483906154 L 0.2010187886003219,0.17287615819627686 L 0.19939070342141724,0.16948209790820465 L 0.19985529542866598,0.1698770011143661 L 0.19627589370172344,0.17076002752049937 L 0.1954407696244197,0.17003346957324514 L 0.19358285568818595,0.17035291300560362 L 0.19180823986897477,0.1687912510846978 L 0.19121729953124722,0.16827122358749755 L 0.1889467182133488,0.16816257920988043 L 0.18766859208949116,0.16702504695964715 L 0.18643109438135452,0.16778798494321906 L 0.18380250595024378,0.16726028041472185 L 0.1830654038868732,0.1665895175370546 L 0.18102360966063225,0.16654172088778166 L 0.17942572396099982,0.16507166604411985 L 0.17856219955039562,0.16427722358636399 L 0.1767060668376899,0.16433664215905164 L 0.17490037843583053,0.1626573519453224 L 0.17434281821761177,0.16213882094237894 L 0.17198205433782432,0.1633829516209331 L 0.16972652558080034,0.16124019930176034 L 0.1697205886351467,0.1595373533170379 L 0.16777608911213476,0.16106504554764936 L 0.16501880665425805,0.15841805438808773 L 0.16572709257235813,0.15744073794374022 L 0.16277881582221584,0.15789545134754937 L 0.16147886136705172,0.15663449552604017 L 0.16008055771017093,0.1552781409788658 L 0.15892004626662729,0.15415244487862845 L 0.15733035016363559,0.15418374316036287 L 0.1553408063670573,0.15223399023971615 L 0.15492110170424106,0.15182267967015625 L 0.1524039780575709,0.1508799382769952 L 0.15165546998375484,0.1501389152839173 L 0.14950576302404628,0.14950576302404628 L 0.1482736500442845,0.14679091354384166 L 0.14796027356936217,0.14648067083366853 L 0.14493692173998854,0.14640093105049345 L 0.14419284055809975,0.14419284055809975 L 0.14323199746081627,0.14323199746081627 L 0.14104569006037992,0.14247039400038375 L 0.14048331126628,0.14048331126628 L 0.13871909766745602,0.140120300674198 L 0.1370707295232728,0.1384552823467402 L 0.1355371972254807,0.13690625982371785 L 0.13547206653583999,0.13547206653583999 L 0.13279614340961418,0.13550626878532057 L 0.1315012341577153,0.1328295294522377 L 0.13153409804522198,0.13153409804522198 L 0.12893497408359053,0.13156630008529646 L 0.12757772053866576,0.12886638438249065 L 0.12740862689202004,0.12740862689202004 L 0.12459612963099517,0.12713890778672976 L 0.12418778095711212,0.12418778095711212 L 0.12351685994167383,0.12351685994167383 L 0.12141880353020723,0.12264525609111843 L 0.12034654391459298,0.12034654391459298 L 0.1192076717079586,0.1192076717079586 L 0.1176199428039931,0.1176199428039931 L 0.1167673462343693,0.11559967277202561 L 0.1155999198022267,0.11444392060420443 L 0.1140455594832871,0.11290510388845423 L 0.11303834040905542,0.11077757360087431 L 0.1121541393519844,0.10991105656494471 L 0.1101996376916696,0.10799564493783621 L 0.10974483794564557,0.10535504442781975 L 0.10881958575450063,0.1044668023243206 L 0.1070153512230223,0.10273473717410142 L 0.10633134098769395,0.10101477393830925 L 0.1049306010981495,0.09968407104324202 L 0.10378122218927016,0.09755434885791395 L 0.10290325431565256,0.09570002651355689 L 0.101737469623955,0.0935984720540386 L 0.10094950990840901,0.0918640540166522 L 0.09963808385060965,0.09067065630405478 L 0.09835134863278741,0.08851621376950868 L 0.09779489572282377,0.08605950823608492 L 0.09679180921338423,0.08517679210777813 L 0.09508622283592949,0.08272501386725867 L 0.09504762300871628,0.08079047955740883 L 0.09340699907234634,0.0793959492114944 L 0.09254255315573526,0.07681031911926026 L 0.09195660021433805,0.07540441217575719 L 0.09039965864727649,0.07322372350429396 L 0.09008819623736078,0.071169675027515 L 0.08873654427916787,0.06921450453775094 L 0.08823802808413266,0.06706090134394081 L 0.08708844829313558,0.06531633621985168 L 0.08620909385996195,0.06293263851777221 L 0.0856089713786504,0.06078236967884178 L 0.08464027380847255,0.059248191665930795 L 0.08361721760586864,0.05685970797199067 L 0.08314651549197136,0.05487670022470109 L 0.08198846200603122,0.05329250030392029 L 0.08118948162247548,0.0503374786059348 L 0.08092839526713057,0.048557037160278343 L 0.07949864946758109,0.04690420318587284 L 0.0790915347653039,0.044291259468570175 L 0.07830765682706657,0.04228613468661595 L 0.07756766029333446,0.04033518335253392 L 0.0767443307076707,0.037604722046758646 L 0.07646668102024363,0.035174673269312076 L 0.07544850603896139,0.03395182771753262 L 0.07472440767346002,0.0313842512228532 L 0.0742592248570211,0.028961097694238228 L 0.0735095271564832,0.027198525047898787 L 0.07278225422144009,0.024745966435289632 L 0.0723996929946843,0.02244390482835213 L 0.07149888011743122,0.02001968643288074 L 0.07124354663709431,0.017810886659273578 L 0.07029531878216475,0.015464970132076244 L 0.07004042960599541,0.012607277329079172 L 0.06931669935163709,0.011090671896261934 L 0.06871184059081809,0.008245420870898171 L 0.06827658301633026,0.006144892471469723 L 0.06755476512392253,0.0033777382561961263 L 0.06715049506900923,0.0013430099013801845 L 0.06641724999797831,-0.001328344999959566 L 0.06609040962139763,-0.003965424577283858 L 0.06523053061998875,-0.005870747755798988 L 0.06507020879197388,-0.009109829230876342 L 0.06407593575174796,-0.010892909077797152 L 0.06404677029487517,-0.014090289464872537 L 0.06287491037499271,-0.015718727593748177 L 0.06304779837500461,-0.018914339512501384 L 0.06165341889811243,-0.020962162425358227 L 0.06205815629420003,-0.02420268095473801 L 0.06033390041702291,-0.025943577179319853 L 0.061182466183024364,-0.02997940842968194 L 0.058711222332762894,-0.03111694783636433 L 0.06052984653532842,-0.035712609455843765 L 0.05690701323852204,-0.03642048847265411 L 0.05989357750734356,-0.041925504255140494 L 0.05476590142473323,-0.04107442606854992 L 0.059987163780370084,-0.048589602662099766 L 0.05186479012837472,-0.045641015312969754 L 0.060684858132580524,-0.05583006948197408 L 0.048062123204387616,-0.04950398690051925 L 0.06242339309426455,-0.06429609488709248 L 0.04290574092345527,-0.05234500392661543 L 0.06586182607630178,-0.07442386346622101 L 0.03529454739750151,-0.053647712044202295 L 0.07173698785184028,-0.08680175530072674 L 0.024721466360670158,-0.052409508684620736 L 0.08076970363254209,-0.10176982657700302 L 0.010270029727072638,-0.0482691397172414 L 0.09246668617489992,-0.1211313588891189 L -0.008964065627070195,-0.0414139831970643 L 0.1027994677144776,-0.14494724947741341 L -0.03074051745398534,-0.03596640542116285 L 0.10147382289120643,-0.17250549891505093 L -0.049651395212767964,-0.042437089925442706 L 0.0872683652516732,-0.19635382181626468 L -0.06022880512355838,-0.062035669277265136 L 0.07020259884823232,-0.2120118485216616 L -0.06452017846199398,-0.08387623200059219 L 0.055142171725195935,-0.2211201086180357 L -0.06470605844103708,-0.10417675409006971 L 0.042774731043073666,-0.22670607452829042 L -0.06302638312753983,-0.12164091943615186 L 0.03306837092984971,-0.230155861671754 L -0.06014145802778728,-0.13652110972307713 L 0.0256410979236657,-0.2325647581676479 L -0.056789294046014904,-0.1493558433410192 L 0.019874168285979904,-0.23451518577456287 L -0.053187174281085575,-0.16062526632887844 L 0.015486283114287264,-0.23632068032402365 L -0.04950739725425496,-0.17030544655463706 L 0.012509554990787097,-0.23818192702458632 L -0.046078479861564936,-0.17878450186287195 L 0.010480880373976514,-0.2403265869752815 L -0.04276146520643065,-0.18643998830003763 L 0.00911607891405486,-0.24248769911385928 L -0.03955128806152883,-0.19340579862087598 L 0.008417127435159377,-0.24485423708878626 L -0.03644180174110043,-0.19970107354123035 L 0.008295328335192642,-0.24736669095544456 L -0.033469086146638155,-0.2055001889403583 L 0.008676385201099895,-0.250053421495699 L -0.03056226342038834,-0.21087961760067955 L 0.009320224325807036,-0.2527644837158868 L -0.02766431162601901,-0.21578163068294828 L 0.010492612917610056,-0.25560005067298097 L -0.02489990822012858,-0.22036418774813793 L 0.012029521871415233,-0.2586347202354275 L -0.022338227726292598,-0.22449918864924062 L 0.013853088524312496,-0.26182337310950615 L -0.019840059848104552,-0.22855748945016446 L 0.015820713941859438,-0.26499695852614563 L -0.017339699114308466,-0.23235196813173342 L 0.0180236187782421,-0.2683716836080249 L -0.01505966721278168,-0.2358343885521611 L 0.020497437053122958,-0.27179601532441044 L -0.012859333924735816,-0.23918361100008617 L 0.023076460026461076,-0.27553293271594526 L -0.010993903836408803,-0.2424155795928141 L 0.02573750767754676,-0.2795093333781578 L -0.00929030802625963,-0.24572864729456723 L 0.028396688409414395,-0.2836829172100498 L -0.007900179418480369,-0.2488556516821316 L 0.031119140880288443,-0.288163244551471 L -0.0067386024797974065,-0.252023732744423 L 0.03388621256534641,-0.29277687656459295 L -0.005831360484327752,-0.2550637075844959 L 0.03666964176749288,-0.29775749115204214 L -0.005206976859730261,-0.2581619127054264 L 0.03948558177409622,-0.302854412207318 L -0.004817576444469895,-0.26116081905471306 L 0.04239481621196517,-0.30863426202310645 L -0.005032240159085377,-0.26414228595039146 L 0.04521018717856312,-0.31466290276279935 L -0.005593385624484637,-0.26714009742538625 L 0.04810263625974848,-0.32084458385252235 L -0.00622817759466332,-0.2701160622805482 L 0.05091564799124332,-0.32738761658369453 L -0.0073181877310808385,-0.27311476612393687 L 0.05369395012178024,-0.33451330925869094 L -0.008985734743587326,-0.27613162867043856 L 0.05643484418848438,-0.34199515578221534 L -0.010903004568927677,-0.2793349770559271 L 0.058974786874417096,-0.3497204861652934 L -0.013229854534896501,-0.2824573943200403 L 0.06156780884788338,-0.35770896940620245 L -0.015725173969891537,-0.28572641103292923 L 0.06399433051712194,-0.3660475705579375 L -0.018535800855304985,-0.2889731353342047 L 0.06630994266027257,-0.37465117603054005 L -0.021682618850099034,-0.29249852828783596 L 0.06830601087817473,-0.3831967210265602 L -0.024710562296455185,-0.29603253631153315 L 0.07028517546313079,-0.39219127908426976 L -0.02817003357314901,-0.30001085755403695 L 0.07176576898275944,-0.4011706486136253 L -0.031614372644588995,-0.30413026484094613 L 0.07298613669451659,-0.41018208822318325 L -0.0350377974165893,-0.3083326172659858 L 0.07410781458874688,-0.41945023057230735 L -0.03868197712254623,-0.312937194921399 L 0.07469212726625285,-0.42798588923562886 L -0.041599744323475185,-0.3178220466313504 L 0.07517276803867973,-0.4367537823047292 L -0.04471676762182403,-0.32285506222956944 L 0.07528312077996646,-0.4456760750174015 L -0.047905811124277,-0.32815480620129744 L 0.07521731785962932,-0.4543125998721611 L -0.05087112882165035,-0.3337146050700263 L 0.07482826485421773,-0.4624386767990656 L -0.0533671643887173,-0.33941516551224205 L 0.0742860102115877,-0.47023044463935015 L -0.05549571292697897,-0.3451833344058092 L 0.07374107997718948,-0.4778421982521879 L -0.05743183888498399,-0.35090853558725216 L 0.07319483035643282,-0.48454977695958523 L -0.05855761242085178,-0.3566158596429873 L 0.07281863469029043,-0.4907975978125575 L -0.05923537877846635,-0.3625205181242141 L 0.07224475214654774,-0.49704389476824845 L -0.05995211480122087,-0.36810598487949614 L 0.07200491690035549,-0.5025943199644812 L -0.060104250593879416,-0.3732473961879912 L 0.0722207343911569,-0.507711762769833 L -0.05987664702677792,-0.3778216427389687 L 0.07309446117125346,-0.5123921728104867 L -0.05936895905751499,-0.3823360963303965 L 0.07388806557180866,-0.5172164590026607 L -0.05896174008911442,-0.3861993975836995 L 0.07544922117608388,-0.5213541183267396 L -0.05815058613906254,-0.389608927131719 L 0.0773382147001847,-0.5251264778142541 L -0.05689473373370246,-0.39200471542521 L 0.08033758884145026,-0.5286213345767428 L -0.05569669890732393,-0.39377566127478014 L 0.08386387732965439,-0.5325356210433054 L -0.05496954003563492,-0.3946812974558588 L 0.08813030280679568,-0.5358322410653178 L -0.053828819815885054,-0.3951035374485963 L 0.09295313830898422,-0.5391282021921084 L -0.05286604851274729,-0.3949093823902223 L 0.09831708619362611,-0.5427103157888161 L -0.05227247755933506,-0.39361175602179305 L 0.10465073376826867,-0.5462768302703624 L -0.052038999568269295,-0.3918536667490678 L 0.11135522855095914,-0.5500948290417381 L -0.052483568953658466,-0.3889032459466092 L 0.1180146096276416,-0.5546686652499155 L -0.054954185893645646,-0.3868774686912654 L 0.12316735818494295,-0.5616431533233398 L -0.05934956093172117,-0.3857721460561876 L 0.1271679068500013,-0.5709839017565058 L -0.06564524501871027,-0.3859940407100164 L 0.12965316535662486,-0.5808461807976794 L -0.07197999170946445,-0.3879721553140134 L 0.1304645719466766,-0.5923091566379117 L -0.07945737999234326,-0.3917248833622523 L 0.12937703386773658,-0.6041907481623298 L -0.08678245052626699,-0.3974636234103028 L 0.1263130506686465,-0.616407687262995 L -0.09391996242140344,-0.4057342376604628 L 0.12089933335517855,-0.6274675401133767 L -0.09946216555954501,-0.41575185203889814 L 0.11424456763187518,-0.6386271330621822 L -0.10483667260897722,-0.4266852575185373 L 0.1068604039563858,-0.6486426520152618 L -0.10892493411346915,-0.43896748447728073 L 0.0985034306721761,-0.6570178825834145 L -0.1112392636054842,-0.45274380287432076 L 0.08925728228197849,-0.6649667530007397 L -0.11310428558575925,-0.46712069946918566 L 0.07957279292080738,-0.6715943722516142 L -0.1137294323830913,-0.4810754989804762 L 0.07070304304604497,-0.6773351523811107 L -0.11348742558380298,-0.49594004980121903 L 0.06115616582176464,-0.6825028105708933 L -0.11281671581231445,-0.5099315554716614 L 0.05276170664306046,-0.6869574204926472 L -0.11144276880559312,-0.5237810133862877 L 0.04455053016622024,-0.6905332175764136 L -0.10929086630930351,-0.5377110622417733 L 0.03650364113018212,-0.6939342178847621 L -0.10705007826740931,-0.5513079030771579 L 0.028876587762115546,-0.6970808285774693 L -0.10455578262509091,-0.56355566834924 L 0.022598919526787054,-0.699888537744595 L -0.10183015822936925,-0.5753403939959363 L 0.016795092575829673,-0.7027066733727135 L -0.09906938421491562,-0.5864907545523005 L 0.011701574180255747,-0.7053708915858165 L -0.09620199329830093,-0.5974143783824487 L 0.006925604877301317,-0.7081430987040597 L -0.09346869979445471,-0.6075465486639556 L 0.002787817356071476,-0.710921303971787 L -0.09066875115282014,-0.6174541953507051 L -0.0010379855856134101,-0.7137188886677809 L -0.08790071596998417,-0.6267321048659871 L -0.004162867554562633,-0.7166376495179572 L -0.08516244027934661,-0.6361634288867192 L -0.007564238113537347,-0.7195103293596724 L -0.0823865236882515,-0.6450864804790093 L -0.010373616701885857,-0.7224186671193311 L -0.07964939118381664,-0.6531250077072965 L -0.012227948610285755,-0.7254841910482538 L -0.0770575970825117,-0.6611541829679504 L -0.014205501065746473,-0.7286001496621366 L -0.07441951456744234,-0.6690314359613065 L -0.015942321678904747,-0.7317525650617278 L -0.07181468721291706,-0.6764943535456788 L -0.017286256137289402,-0.7350116109575453 L -0.06930809718190944,-0.6833778382136272 L -0.01807840216950829,-0.7383219446027185 L -0.06683964070229165,-0.6897850920476498 L -0.018413479193187365,-0.7416949419015871 L -0.06442181468917108,-0.6963998167899393 L -0.018972143340191927,-0.7450360689693369 L -0.06197685834593436,-0.7021978050594363 L -0.018627219719443477,-0.748441688327239 L -0.05947326823341903,-0.7083266246600206 L -0.018718902751732935,-0.7517511345095946 L -0.05698412368681682,-0.7140110697958149 L -0.01828136083623444,-0.7552030161448448 L -0.054524254143521134,-0.7191749121530437 L -0.017438829071373285,-0.758589064604738 L -0.051989484440363,-0.7242135182542566 L -0.01637721801099301,-0.7618681818713948 L -0.04944417793455269,-0.7293016245346522 L -0.015475748855825809,-0.765121023432028 L -0.04677745520231669,-0.734406046676372 L -0.014494155769258499,-0.768335197328393 L -0.04417164817605468,-0.7389916739853948 L -0.01311018984220913,-0.7715346722140073 L -0.04144522212481461,-0.7435272849191741 L -0.011580158790218453,-0.7747126230656145 L -0.03879720319109059,-0.7476221054923157 L -0.009725395607405152,-0.7779343946363381 L -0.03619130114479108,-0.7516933247773107 L -0.007858796412832825,-0.7810857754714544 L -0.03351802634631096,-0.755831494109312 L -0.00606520204272043,-0.7842306241237517 L -0.030842370926291163,-0.7596475959145513 L -0.003958220107291854,-0.7873691437424957 L -0.028160593444822024,-0.7634336882891252 L -0.0018300503639087085,-0.7904902546903666 L -0.025463902988087872,-0.7669727580012067 L 0.000438408915963695,-0.7934938333593301 L -0.02275346636858233,-0.7704323712401977 L 0.0027795158760622884,-0.7964980694444094 L -0.020046017654248516,-0.7737762814539928 L 0.005230856579683252,-0.7994841196387882 L -0.01732387964163573,-0.777149240723779 L 0.007646389172805135,-0.8024885436858988 L -0.01472259788779351,-0.780297688053056 L 0.010180412464957711,-0.8054742342274541 L -0.012104228115982552,-0.7833856436663907 L 0.012771727195603044,-0.8084503314816727 L -0.009480835339140792,-0.7863404830283374 L 0.01549553046712149,-0.8115009305631524 L -0.007033846363971308,-0.7891975620375807 L 0.018211450388940786,-0.8144160613934319 L -0.004452601666068867,-0.7919397323270088 L 0.021045468942889833,-0.8174060137418411 L -0.0019469142166579356,-0.7946135683867699 L 0.023847833125842932,-0.8203654595289969 L 0.000487111421506592,-0.7972162946661185 L 0.02672278971384401,-0.8233291510835339 L 0.0029184158800098503,-0.7997335035990993 L 0.029586011279919333,-0.8260414349353478 L 0.005502850472828724,-0.8022055419289714 L 0.0325007488252359,-0.8287690950435156 L 0.008072196330112469,-0.8045558082223099 L 0.03553724113896117,-0.8315714426516914 L 0.010464648754816674,-0.8067197725088174 L 0.03867126830157175,-0.8345259699479184 L 0.012603612524272223,-0.8086477795573058 L 0.0419522664890567,-0.8373672391215717 L 0.014956479459424687,-0.8106411867008181 L 0.0451731852579369,-0.8402212457976262 L 0.017098517600136587,-0.8123505711824893 L 0.04859163642574138,-0.8430648919866129 L 0.01924980416980704,-0.8140742183411397 L 0.052006624118086875,-0.8456277081600927 L 0.021586557702015563,-0.815540149982148 L 0.05558642829285698,-0.8482488957489975 L 0.02385357671787469,-0.8167464668200295 L 0.05934645718653242,-0.8510281960548749 L 0.025862171418630897,-0.817761860257109 L 0.0632126564188531,-0.8533708616545169 L 0.0282038931359464,-0.8187590177365239 L 0.0671011394540506,-0.8562105394336857 L 0.03005362306136017,-0.8195623008832917 L 0.07122404374402069,-0.8589619675528894 L 0.03177910358266478,-0.8199008724327513 L 0.07562747414854942,-0.861396930551978 L 0.033900669767253255,-0.8200572016698562 L 0.08022504437284961,-0.8640237278955902 L 0.0356180037943451,-0.8199264473458241 L 0.08503801803757283,-0.8665374038028671 L 0.037321613893101735,-0.8192094249535831 L 0.09035941715700935,-0.8692575930504298 L 0.03877883783176872,-0.81823347825032 L 0.09587436929193349,-0.8724567605565948 L 0.039637942431987594,-0.8169379935232642 L 0.1017728179928924,-0.8752462347388745 L 0.04075884214893588,-0.8151768429787176 L 0.10804150708385074,-0.8783774525917066 L 0.04147920742265887,-0.8129924654841139 L 0.11458258453686043,-0.8811400750884568 L 0.042322625364657585,-0.8104782757331928 L 0.12156434879137934,-0.8849884592012416 L 0.04203122493559874,-0.8074198310128519 L 0.12899297441010005,-0.8887615936855894 L 0.04152670089638211,-0.8035416623449938 L 0.13718535348317862,-0.8930766511754927 L 0.04035272110799015,-0.7989838779382049 L 0.14601266768204613,-0.8979779062445836 L 0.03835926094875408,-0.7940367016392096 L 0.1553026227552856,-0.9038612644357622 L 0.03520031592773232,-0.7881350736219267 L 0.16543302185509412,-0.9098816202030175 L 0.031607870245521696,-0.7813465524692964 L 0.1764794400254972,-0.9176930881325855 L 0.025936893969139896,-0.773697547099443 L 0.1882991520781513,-0.9264318282245043 L 0.019034055091304514,-0.7649786741195284 L 0.20120664851090375,-0.9356109155757024 L 0.01132630601446738,-0.7552380850446849 L 0.21491663507576952,-0.945633194333386 L 0.0024258038846199925,-0.7445277282675681 L 0.22958291787362428,-0.9573607675330132 L -0.008557521374188859,-0.732780555271792 L 0.24498789203451934,-0.9726019313770418 L -0.0233022695596945,-0.720273152090157 L 0.2608981994574938,-0.9888041759439017 L -0.03930219608173713,-0.707046507510451 L 0.2769870686570173,-1.008232929911543 L -0.058655825764433955,-0.6933118605356093 L 0.2929587015184548,-1.0312146293449609 L -0.0815500941553482,-0.6801277852556039 L 0.307201394231983,-1.0567727961580216 L -0.10656135048103099,-0.6681396675160644 L 0.31901952514689214,-1.0814761902479644 L -0.130271257114275,-0.6591725609982316 L 0.32701496061214275,-1.108580716475164 L -0.15518258773463134,-0.6533186943627979 L 0.33082338006618117,-1.1347241936270014 L -0.17804185330725053,-0.6516331831045369 L 0.3300176999109784,-1.161662303686644 L -0.20055139073559425,-0.6537975337980373 L 0.32474266038192745,-1.1853107103940352 L -0.21884629589630555,-0.6609158136068428 L 0.3155048034435918,-1.2052283491545206 L -0.23255504856235465,-0.6720840903452049 L 0.30356599957990726,-1.220335318311227 L -0.24128589216107965,-0.6852519337374662 L 0.29115179103615163,-1.2315720760829214 L -0.24636841152073052,-0.6996862887188747 L 0.27877583458298016,-1.237764705548432 L -0.24677342766509522,-0.7131752059521252 L 0.2686960482648989,-1.2386887825011839 L -0.24279165065935904,-0.72351911896489 L 0.2628893235014781,-1.235579820456947 L -0.2357911836129425,-0.7309526692001217 L 0.26067689964389495,-1.2303949663191842 L -0.22767928494572853,-0.7354040903747031 L 0.26147403334633224,-1.223698476060835 L -0.21868173990732487,-0.7347706460886115 L 0.2672540590153122,-1.2160059685196705 L -0.20993431241986005,-0.730571407221113 L 0.27611440321747127,-1.2066199420603496 L -0.20029684190902675,-0.7210686308724963 L 0.29031518809641454,-1.199001726838192 L -0.19387578337656164,-0.7076466093244499 L 0.30723922185432717,-1.1920881807947894 L -0.1889767763077579,-0.6916550012863939 L 0.3261732840298862,-1.1872707538687859 L -0.18705408987324423,-0.6733947235436792 L 0.346443989372458,-1.1848384436538064 L -0.1880706566419157,-0.6526051785474474 L 0.3681710500624086,-1.1855107812009555 L -0.1929684995191061,-0.631006993427477 L 0.38951658652567145,-1.1919207547685546 L -0.20359995907029504,-0.6107998772108851 L 0.4074102682131916,-1.2018602912289151 L -0.2168799479200738,-0.5920822578218016 L 0.42251636259888636,-1.2168471242847927 L -0.23411976211052332,-0.5759346147918873 L 0.43313037268918364,-1.2344215621641734 L -0.25252548427537813,-0.565657084776847 L 0.43706969769111936,-1.2500193353966014 L -0.2668275428016007,-0.5603378398833615 L 0.43752127002619035,-1.26443647037569 L -0.2790577149356739,-0.5609060070207045 L 0.4331495042739131,-1.2777910376080435 L -0.2887644863166863,-0.5630907483175381 L 0.42835210659770384,-1.2850563197931115 L -0.2927970508301436,-0.5680262786104786 L 0.42346270900119465,-1.2873266353636317 L -0.2920181288215937,-0.5723555324903237 L 0.4212526632200375,-1.2848206228211145 L -0.2877356531515112,-0.5725939497715072 L 0.4242046821167542,-1.2810981399925978 L -0.2839113376721014,-0.5678226753442028 L 0.43126481707885533,-1.2765438585534117 L -0.2807322853101686,-0.5614645706203372 L 0.4394548683615608,-1.2700245695649106 L -0.27620646518474423,-0.549650865717641 L 0.45297687342838,-1.26380547686518 L -0.2738813917616272,-0.5368075278527893 L 0.4664554182055517,-1.2594296291549896 L -0.27361920481887614,-0.5198764891558646 L 0.4823927112312021,-1.2590449763134375 L -0.27803667307253077,-0.5032463782612807 L 0.49566239637903053,-1.2639391107665279 L -0.28668795702749694,-0.4873695269467448 L 0.5058445013349928,-1.269669698350832 L -0.29515889859761546,-0.47520582674216083 L 0.5124519796675578,-1.276005429372219 L -0.30298801868224134,-0.46660154877065163 L 0.5159115526860846,-1.2794606506614898 L -0.3070724516264556,-0.4606086774396833 L 0.5191450964679347,-1.2822883882757987 L -0.3104563034548131,-0.4563707660785753 L 0.5211052223077027,-1.2819188468769487 L -0.3105458547293267,-0.4502914893575237 L 0.526303166210908,-1.2789166938925065 L -0.3095255658190901,-0.44262155912129886 L 0.533369877335242,-1.2800877056045807 L -0.31319815244372373,-0.43534543189677594 L 0.5372209605237003,-1.2785858860464068 L -0.31332934781629285,-0.4292612065083212 L 0.5420590174742852,-1.27383869106457 L -0.3108782404344339,-0.4196856245864858 L 0.5512068221877776,-1.2732877592537664 L -0.3141148377426928,-0.4083492890655006 L 0.5580990124710073,-1.2724657484338968 L -0.3163023403921754,-0.398540948894141 L 0.5642228655401477,-1.2695014474653323 L -0.3163041207716091,-0.38905406854907915 L 0.5713043249273925,-1.2682956013388114 L -0.31848024508630646,-0.3789914916527047 L 0.5772654660536518,-1.2642113706574976 L -0.3177483054757526,-0.36858803435187304 L 0.5851082431123131,-1.2638338051225964 L -0.32121782830361467,-0.35655178941701227 L 0.5913262548493511,-1.2595249228291179 L -0.3205761930037341,-0.34942805037407015 L 0.5963229628401836,-1.2582414515927873 L -0.3222353932833921,-0.33834716294756173 L 0.6025663867593664,-1.253338084459482 L -0.3212883790806278,-0.33092703045304667 L 0.6077512656952038,-1.2519676073321198 L -0.32406337170076766,-0.3208548234661066 L 0.6119969831576351,-1.2484738456415754 L -0.32208477371516436,-0.31270366380113046 L 0.6181431095491835,-1.2424676501938585 L -0.32070265256577385,-0.30254967223186213 L 0.6250364268905165,-1.2375721252432228 L -0.3208145868949714,-0.291649624449974 L 0.6311827186912519,-1.2371181286348538" fill="none" stroke="#000000" stroke-width="0.001852440273335849"/>
</svg>
