<?xml version="1.0" ?>
<svg xmlns="http://www.w3.org/2000/svg" xmlns:ev="http://www.w3.org/2001/xml-events" xmlns:xlink="http://www.w3.org/1999/xlink" baseProfile="full" height="600px" version="1.1" viewBox="64.80784197952357 9.713 500.3843160409528 574.574" width="523px">
	<defs/>
	<path d="M 328.2509606053071,584.0 L 395.5989624316212,584.0" fill="none" stroke="#000000" stroke-width="0.5740000000000001"/>
	<path d="M 404.3292589646619,552.8203695248546 L 500.3625208281096,552.8203695248546" fill="none" stroke="#000000" stroke-width="0.5740000000000001"/>
	<path d="M 480.4075573240166,562.7978512769012 L 546.5083739313247,562.7978512769012" fill="none" stroke="#000000" stroke-width="0.5740000000000001"/>
	<path d="M 531.542151303255,500.4385903266104 L 557.7330409023772,500.4385903266104" fill="none" stroke="#000000" stroke-width="0.5740000000000001"/>
	<path d="M 542.7668182743073,479.23644160351154 L 557.7330409023772,479.23644160351154" fill="none" stroke="#000000" stroke-width="0.5740000000000001"/>
	<path d="M 531.542151303255,489.21392335555805 L 546.5083739313247,489.21392335555805" fill="none" stroke="#000000" stroke-width="0.5740000000000001"/>
	<path d="M 506.5984469231387,510.4160720786569 L 557.7330409023772,510.4160720786569" fill="none" stroke="#000000" stroke-width="0.5740000000000001"/>
	<path d="M 505.35126170413287,468.0117746324592 L 526.5534104272317,468.0117746324592" fill="none" stroke="#000000" stroke-width="0.5740000000000001"/>
	<path d="M 519.0702991131968,448.0568111283662 L 540.2724478362957,448.0568111283662" fill="none" stroke="#000000" stroke-width="0.5740000000000001"/>
	<path d="M 510.3400025801561,448.0568111283662 L 511.58718779916194,448.0568111283662" fill="none" stroke="#000000" stroke-width="0.5740000000000001"/>
	<path d="M 500.3625208281096,436.8321441573138 L 560.2274113403887,436.8321441573138" fill="none" stroke="#000000" stroke-width="0.5740000000000001"/>
	<path d="M 510.3400025801561,426.8546624052673 L 560.2274113403884,426.8546624052673" fill="none" stroke="#000000" stroke-width="0.5740000000000001"/>
	<path d="M 509.0928298330025,379.46162408304633 L 510.5349773227774,397.20002312214933 L 509.83649922896063,418.9473597484979 L 496.92710165478366,427.6289249027074 L 476.66601413885155,426.8546624052673" fill="none" stroke="#000000" stroke-width="0.5740000000000001"/>
	<path d="M 459.2054086009176,436.8321441573138 L 482.9019277620282,436.8321441573138" fill="none" stroke="#000000" stroke-width="0.5740000000000001"/>
	<path d="M 495.37377995208635,458.0342928804127 L 557.7330409023771,458.0342928804127" fill="none" stroke="#000000" stroke-width="0.5740000000000001"/>
	<path d="M 485.39629820003984,479.23644160351154 L 522.8118547702143,479.23644160351154" fill="none" stroke="#000000" stroke-width="0.5740000000000001"/>
	<path d="M 454.2166677248945,489.21392335555805 L 465.4413346959468,489.21392335555805" fill="none" stroke="#000000" stroke-width="0.5740000000000001"/>
	<path d="M 439.2504450968247,500.4385903266104 L 514.0815582371736,500.4385903266104" fill="none" stroke="#000000" stroke-width="0.5740000000000001"/>
	<path d="M 441.74481553483633,468.0117746324592 L 492.8794095140747,468.0117746324592" fill="none" stroke="#000000" stroke-width="0.5740000000000001"/>
	<path d="M 435.50888943980715,458.0342928804127 L 451.72229728688274,458.0342928804127" fill="none" stroke="#000000" stroke-width="0.5740000000000001"/>
	<path d="M 434.26170422080133,448.0568111283662 L 461.69977903892925,448.0568111283662" fill="none" stroke="#000000" stroke-width="0.5740000000000001"/>
	<path d="M 481.6547550148746,398.16940236813355 L 486.64349589089784,403.1581432441568" fill="none" stroke="#000000" stroke-width="0.5740000000000001"/>
	<path d="M 490.3850515479153,398.16940236813355 L 489.13786632890947,400.6637728061452" fill="none" stroke="#000000" stroke-width="0.5740000000000001"/>
	<path d="M 486.64349589089784,395.6750319301219 L 486.7683936956737,408.79941766268996 L 486.64349589089795,425.6074771862613" fill="none" stroke="#000000" stroke-width="0.5740000000000001"/>
	<path d="M 481.6547550148746,383.2031797400638 L 477.91319935785714,386.9447353970812" fill="none" stroke="#000000" stroke-width="0.5740000000000001"/>
	<path d="M 475.41877903243676,378.2144388640406 L 475.61655784825746,401.321815292798 L 472.41039584179634,425.6576089712505 L 447.48336512758965,427.872077315197 L 423.95034532413194,432.65475794194316 L 408.1834766102728,446.91720758948014 L 423.6453819385862,467.73262972226144 L 431.4517086681052,487.4138022473316 L 409.4518729776157,497.4629681689771 L 384.8966366832217,499.4362288277174 L 360.5024313401159,500.3856938361992 L 336.0636130334709,500.5029958134295 L 311.8774317325932,500.3913705668024 L 286.92744464887494,501.4104098699789 L 277.01148458506685,517.0521129445209 L 295.7950569228518,534.1130437838698 L 299.88090066353874,553.9094755161335 L 276.07547452240306,561.9171702955556 L 252.61907694055185,563.3172134354777 L 228.13816823812635,564.3115483527191 L 203.1618756019587,564.4703458659998 L 178.4824725559726,562.9873477101208 L 154.89223262409192,559.0562956198836" fill="none" stroke="#000000" stroke-width="0.5740000000000001"/>
	<path d="M 154.89222015223976,572.7753330289477 L 243.44236571291174,572.7753330289477" fill="none" stroke="#000000" stroke-width="0.5740000000000001"/>
	<path d="M 265.8916996550164,572.7753330289477 L 302.060071006185,572.7753330289477" fill="none" stroke="#000000" stroke-width="0.5740000000000001"/>
	<path d="M 309.54318232021996,572.7753330289477 L 310.79036753922577,572.7753330289477" fill="none" stroke="#000000" stroke-width="0.5740000000000001"/>
	<path d="M 305.80162666320246,562.7978512769012 L 403.0820737456561,562.7978512769012" fill="none" stroke="#000000" stroke-width="0.5740000000000001"/>
	<path d="M 423.0370372497491,541.5957025538023 L 449.2279268488712,541.5957025538023" fill="none" stroke="#000000" stroke-width="0.5740000000000001"/>
	<path d="M 423.0370372497491,510.4160720786569 L 447.9807416298654,510.4160720786569" fill="none" stroke="#000000" stroke-width="0.5740000000000001"/>
	<path d="M 406.82362940267353,520.3935538307035 L 481.6547425430224,520.3935538307035" fill="none" stroke="#000000" stroke-width="0.5740000000000001"/>
	<path d="M 373.14962848951654,486.7195529175464 L 409.31799984068516,486.7195529175464" fill="none" stroke="#000000" stroke-width="0.5740000000000001"/>
	<path d="M 369.408072832499,475.4948859464941 L 358.18340586144666,479.23644160351165" fill="none" stroke="#000000" stroke-width="0.5740000000000001"/>
	<path d="M 360.6777762994583,466.7645894134534 L 369.408072832499,473.0005155084821" fill="none" stroke="#000000" stroke-width="0.5740000000000001"/>
	<path d="M 370.6552580515048,463.02303375643595 L 370.6552580515048,468.0117746324592" fill="none" stroke="#000000" stroke-width="0.5740000000000001"/>
	<path d="M 365.66651717548154,463.02303375643595 L 379.3855545845455,479.2364416035116" fill="none" stroke="#000000" stroke-width="0.5740000000000001"/>
	<path d="M 374.39681370852225,461.77584853743014 L 378.1383693655397,466.7645894134534" fill="none" stroke="#000000" stroke-width="0.5740000000000001"/>
	<path d="M 379.3855545845455,448.0568111283662 L 384.37429546056876,448.0568111283662" fill="none" stroke="#000000" stroke-width="0.5740000000000001"/>
	<path d="M 359.4305910804525,426.8546624052673 L 439.2504450968246,426.8546624052673" fill="none" stroke="#000000" stroke-width="0.5740000000000001"/>
	<path d="M 466.6885323868048,381.95599452105796 L 472.9244584818339,385.6975501780754" fill="none" stroke="#000000" stroke-width="0.5740000000000001"/>
	<path d="M 471.67727326282807,379.46162408304633 L 479.16038457686295,381.95599452105796" fill="none" stroke="#000000" stroke-width="0.5740000000000001"/>
	<path d="M 479.1603346894543,376.96725364503493 L 482.9018903464714,381.95599452105847" fill="none" stroke="#000000" stroke-width="0.5740000000000001"/>
	<path d="M 450.4750746523205,345.7876231698894 L 461.6058691099013,350.4767231201019 L 479.16033468945454,357.01229014094173" fill="none" stroke="#000000" stroke-width="0.5740000000000001"/>
	<path d="M 446.73351899530303,337.0573266368487 L 440.49759290027396,352.0235492649185" fill="none" stroke="#000000" stroke-width="0.5740000000000001"/>
	<path d="M 438.00322246226233,347.0348083888952 L 442.9919633382856,345.7876231698894" fill="none" stroke="#000000" stroke-width="0.5740000000000001"/>
	<path d="M 441.7447781192798,343.29325273187777 L 446.73351899530303,343.29325273187777" fill="none" stroke="#000000" stroke-width="0.5740000000000001"/>
	<path d="M 439.25040768126814,343.29325273187777 L 447.98070421430884,344.5404379508836" fill="none" stroke="#000000" stroke-width="0.5740000000000001"/>
	<path d="M 457.95818596635536,318.3495483517615 L 454.2166303093379,323.33828922778474" fill="none" stroke="#000000" stroke-width="0.5740000000000001"/>
	<path d="M 457.95818596635536,314.60799269474404 L 462.9469268423786,319.5967335707673" fill="none" stroke="#000000" stroke-width="0.5740000000000001"/>
	<path d="M 462.9469268423786,313.3608074757382 L 462.9469268423786,319.5967335707673" fill="none" stroke="#000000" stroke-width="0.5740000000000001"/>
	<path d="M 467.9356677184019,313.3608074757382 L 472.06168692041626,331.8389582607797 L 478.60750291313457,351.36914516659976 L 490.7758867702255,366.8808383387342 L 507.63216258381533,378.081187321361 L 509.09277994559386,358.2594753599473" fill="none" stroke="#000000" stroke-width="0.5740000000000001"/>
	<path d="M 539.0252252017333,302.13614050468584 L 545.2611512967624,305.8776961617033" fill="none" stroke="#000000" stroke-width="0.5740000000000001"/>
	<path d="M 549.0027069537798,300.88895528568 L 542.315412522147,317.6955288545143 L 527.8005582306811,329.57421532281387" fill="none" stroke="#000000" stroke-width="0.5740000000000001"/>
	<path d="M 542.7667808587507,298.3945848476684 L 552.7442626107976,303.3833257236918" fill="none" stroke="#000000" stroke-width="0.5740000000000001"/>
	<path d="M 537.7780399827274,273.4508804675521 L 534.6563618862715,288.34697900949516 L 527.8005582306808,302.13614050468584" fill="none" stroke="#000000" stroke-width="0.5740000000000001"/>
	<path d="M 512.8343356026112,283.4283622195986 L 517.8230764786344,284.67554743860444" fill="none" stroke="#000000" stroke-width="0.5740000000000001"/>
	<path d="M 522.8118173546576,278.43962134357537 L 521.5646321356518,280.933991781587" fill="none" stroke="#000000" stroke-width="0.5740000000000001"/>
	<path d="M 531.5421138876984,270.9565100295405 L 535.2836695447158,273.4508804675521" fill="none" stroke="#000000" stroke-width="0.5740000000000001"/>
	<path d="M 535.2836695447158,268.46213959152885 L 544.0139660777567,272.20369524854624" fill="none" stroke="#000000" stroke-width="0.5740000000000001"/>
	<path d="M 539.0252252017333,268.46213959152885 L 539.0252252017333,272.2036952485463" fill="none" stroke="#000000" stroke-width="0.5740000000000001"/>
	<path d="M 512.8343356026112,257.2374726204765 L 509.09277994559375,263.4733987155056" fill="none" stroke="#000000" stroke-width="0.5740000000000001"/>
	<path d="M 507.84559472658793,265.9677691535172 L 506.4798458934273,289.0960045472124 L 506.3770314306007,312.29683625638876 L 506.6461013478313,337.10056373459867 L 511.40865042504765,355.7561322144968 L 524.1966232546114,336.21273808472876 L 528.8010711749332,313.5043866403198 L 522.6682500974524,290.3623714408945 L 526.5533730116758,279.6868065625812" fill="none" stroke="#000000" stroke-width="0.5740000000000001"/>
	<path d="M 507.84559472658793,254.7431021824648 L 516.5758912596286,259.73184305848815" fill="none" stroke="#000000" stroke-width="0.5740000000000001"/>
	<path d="M 504.1040390695705,255.9902874014707 L 506.5984095075821,263.4733987155056" fill="none" stroke="#000000" stroke-width="0.5740000000000001"/>
	<path d="M 499.11529819354723,259.73184305848815 L 506.5984095075821,264.7205839345114" fill="none" stroke="#000000" stroke-width="0.5740000000000001"/>
	<path d="M 490.3850016605064,274.6980656865579 L 486.643446003489,280.933991781587" fill="none" stroke="#000000" stroke-width="0.5740000000000001"/>
	<path d="M 477.9131494704484,282.1811770005928 L 480.40751990846,280.933991781587" fill="none" stroke="#000000" stroke-width="0.5740000000000001"/>
	<path d="M 477.9131494704483,278.43962134357537 L 472.924408594425,279.6868065625812" fill="none" stroke="#000000" stroke-width="0.5740000000000001"/>
	<path d="M 476.66596425144246,274.6980656865579 L 484.14907556547735,283.4283622195986" fill="none" stroke="#000000" stroke-width="0.5740000000000001"/>
	<path d="M 481.6547051274657,273.4508804675521 L 484.14907556547735,278.43962134357537" fill="none" stroke="#000000" stroke-width="0.5740000000000001"/>
	<path d="M 485.3962607844833,272.2036952485463 L 488.30920714461945,292.71903743152745 L 505.3512242885761,307.1248813807091" fill="none" stroke="#000000" stroke-width="0.5740000000000001"/>
	<path d="M 522.8118173546577,233.5409409875138 L 524.0590025736635,233.5409409875138" fill="none" stroke="#000000" stroke-width="0.5740000000000001"/>
	<path d="M 479.1603346894542,201.1141252933626 L 496.2080974381129,186.6315185965418 L 518.1860360164329,176.39958796379554 L 540.2724104207387,172.42886525622893" fill="none" stroke="#000000" stroke-width="0.5740000000000001"/>
	<path d="M 544.0139660777565,146.23797565710677 L 551.8708042780592,168.74974911648192 L 559.4826441255746,193.22912099196975 L 563.9696971170159,217.4282485411761 L 564.9051580204764,241.9088333894531 L 563.569298796899,266.2659670898472 L 561.4745591438381,290.9114735336337" fill="none" stroke="#000000" stroke-width="0.5740000000000001"/>
	<path d="M 451.7222598713263,223.5634592354673 L 436.0344524401535,239.21973884974224 L 419.22614712050347,254.21158400849617 L 400.9223446291504,265.67900681417757 L 379.18555629587286,271.70267897670965 L 356.95841027908705,276.2409542522096 L 337.3155568605571,284.2795899041306 L 319.39388330054214,298.0831123814112 L 303.3072188096341,313.3608074757384" fill="none" stroke="#000000" stroke-width="0.5740000000000001"/>
	<path d="M 289.5881814005703,305.8776961617033 L 300.81284837162264,305.8776961617033" fill="none" stroke="#000000" stroke-width="0.5740000000000001"/>
	<path d="M 290.8353666195761,290.9114735336335 L 312.03751534267496,290.9114735336335" fill="none" stroke="#000000" stroke-width="0.5740000000000001"/>
	<path d="M 305.8015892476459,282.1811770005928 L 324.5093675327331,282.1811770005928" fill="none" stroke="#000000" stroke-width="0.5740000000000001"/>
	<path d="M 314.5318857806865,274.6980656865579 L 335.7340345037853,274.6980656865579" fill="none" stroke="#000000" stroke-width="0.5740000000000001"/>
	<path d="M 318.27344143770404,258.48465783948234 L 327.00373797074474,258.48465783948234" fill="none" stroke="#000000" stroke-width="0.5740000000000001"/>
	<path d="M 310.79033012366915,251.00154652544737 L 320.76781187571567,251.00154652544737" fill="none" stroke="#000000" stroke-width="0.5740000000000001"/>
	<path d="M 299.5656631526168,267.21495437252304 L 331.992478846768,267.21495437252304" fill="none" stroke="#000000" stroke-width="0.5740000000000001"/>
	<path d="M 350.7002571318552,248.50717608743574 L 350.7002571318552,249.75436130644155" fill="none" stroke="#000000" stroke-width="0.5740000000000001"/>
	<path d="M 358.1833684458901,251.00154652544737 L 381.87988760700057,251.00154652544737" fill="none" stroke="#000000" stroke-width="0.5740000000000001"/>
	<path d="M 391.8573693590471,251.00154652544737 L 396.84611023507034,251.00154652544737" fill="none" stroke="#000000" stroke-width="0.5740000000000001"/>
	<path d="M 380.63270238799475,234.78812620651962 L 391.8573693590471,234.78812620651962" fill="none" stroke="#000000" stroke-width="0.5740000000000001"/>
	<path d="M 411.8123328631401,228.55220011149055 L 413.0595180821459,228.55220011149055" fill="none" stroke="#000000" stroke-width="0.5740000000000001"/>
	<path d="M 371.90240585495405,242.27124999240667 L 388.11581370202964,242.27124999240667" fill="none" stroke="#000000" stroke-width="0.5740000000000001"/>
	<path d="M 374.3967762929657,258.48465783948234 L 403.0820363300994,258.48465783948234" fill="none" stroke="#000000" stroke-width="0.5740000000000001"/>
	<path d="M 425.5313702722041,284.67554743860444 L 430.52011114822733,289.6642883146277" fill="none" stroke="#000000" stroke-width="0.5740000000000001"/>
	<path d="M 431.76729636723314,282.1811770005928 L 436.7560372432564,284.67554743860444" fill="none" stroke="#000000" stroke-width="0.5740000000000001"/>
	<path d="M 373.14959107395987,322.0911040087789 L 389.36299892103546,322.0911040087789" fill="none" stroke="#000000" stroke-width="0.5740000000000001"/>
	<path d="M 388.11581370202964,358.2594753599476 L 390.7689897798191,374.19273507421264 L 389.3629989210357,363.24821623597074" fill="none" stroke="#000000" stroke-width="0.5740000000000001"/>
	<path d="M 356.9361832268844,378.21443886404074 L 362.06078786466855,400.8199354443769 L 369.9545727426066,407.02801207700634 L 389.36299892103546,394.42784671111616" fill="none" stroke="#000000" stroke-width="0.5740000000000001"/>
	<path d="M 363.1721467374699,413.1356249962033 L 359.4305910804525,414.38281021520913" fill="none" stroke="#000000" stroke-width="0.5740000000000001"/>
	<path d="M 360.6777762994583,411.8884397771975 L 352.847617765633,426.40898666968764 L 356.60541146197033,442.93129619213306 L 371.9024432705105,448.0568111283662" fill="none" stroke="#000000" stroke-width="0.5740000000000001"/>
	<path d="M 341.9699980143711,455.53992244240106 L 363.1721467374699,455.53992244240106" fill="none" stroke="#000000" stroke-width="0.5740000000000001"/>
	<path d="M 331.99251626232456,479.23644160351154 L 338.22844235735363,479.23644160351154" fill="none" stroke="#000000" stroke-width="0.5740000000000001"/>
	<path d="M 319.52066407226647,471.75333028947665 L 354.44185020442933,470.50614507047084" fill="none" stroke="#000000" stroke-width="0.5740000000000001"/>
	<path d="M 314.5319231962432,520.3935538307035 L 370.6552580515049,520.3935538307035" fill="none" stroke="#000000" stroke-width="0.5740000000000001"/>
	<path d="M 333.23970148133037,531.6182208017558 L 389.36303633659213,531.6182208017558" fill="none" stroke="#000000" stroke-width="0.5740000000000001"/>
	<path d="M 324.50940494828967,552.8203695248546 L 361.9249615184642,552.8203695248546" fill="none" stroke="#000000" stroke-width="0.5740000000000001"/>
	<path d="M 288.34103359712105,482.977997260529 L 282.10510750209187,485.47236769854067" fill="none" stroke="#000000" stroke-width="0.5740000000000001"/>
	<path d="M 279.61073706408035,490.46110857456387 L 262.15014399799884,494.2026642315813" fill="none" stroke="#000000" stroke-width="0.5740000000000001"/>
	<path d="M 257.1614031219757,501.6857755456162 L 269.63325531203384,501.6857755456162" fill="none" stroke="#000000" stroke-width="0.5740000000000001"/>
	<path d="M 260.90295877899314,517.8991833926918 L 264.6445144360106,521.6407390497093" fill="none" stroke="#000000" stroke-width="0.5740000000000001"/>
	<path d="M 262.15014399799895,524.1351094877209 L 258.4085883409815,527.8766651447384" fill="none" stroke="#000000" stroke-width="0.5740000000000001"/>
	<path d="M 255.9142179029699,529.1238503637442 L 260.90295877899314,532.8654060207616" fill="none" stroke="#000000" stroke-width="0.5740000000000001"/>
	<path d="M 259.6557735599873,522.8879242687151 L 255.9142179029699,526.6294799257325" fill="none" stroke="#000000" stroke-width="0.5740000000000001"/>
	<path d="M 252.17266224595244,519.1463686116977 L 254.6670326839641,524.1351094877209" fill="none" stroke="#000000" stroke-width="0.5740000000000001"/>
	<path d="M 255.9142179029699,516.651998173686 L 249.6782918079408,532.8654060207616" fill="none" stroke="#000000" stroke-width="0.5740000000000001"/>
	<path d="M 247.18392136992918,521.6407390497093 L 253.41984746495825,526.6294799257325" fill="none" stroke="#000000" stroke-width="0.5740000000000001"/>
	<path d="M 228.47614308484196,547.8316286488314 L 228.47614308484196,549.0788138678372" fill="none" stroke="#000000" stroke-width="0.5740000000000001"/>
	<path d="M 213.5099204567722,549.0788138678372 L 222.2402169898129,549.0788138678372" fill="none" stroke="#000000" stroke-width="0.5740000000000001"/>
	<path d="M 198.5436978287024,536.606961677779 L 191.06058651466748,540.3485173347965" fill="none" stroke="#000000" stroke-width="0.5740000000000001"/>
	<path d="M 189.81340129566172,545.3372582108198 L 173.59999843732695,549.0788138678372" fill="none" stroke="#000000" stroke-width="0.5740000000000001"/>
	<path d="M 181.08310975136186,536.606961677779 L 189.81340129566166,542.8428877728081" fill="none" stroke="#000000" stroke-width="0.5740000000000001"/>
	<path d="M 191.06058651466748,532.8654060207616 L 194.80214217168495,534.1125912397674" fill="none" stroke="#000000" stroke-width="0.5740000000000001"/>
	<path d="M 184.8246654083793,532.8654060207616 L 192.42788534193144,545.5538452239132 L 206.02680914273728,549.0788138678372" fill="none" stroke="#000000" stroke-width="0.5740000000000001"/>
	<path d="M 202.28525348571986,525.3822947067267 L 242.19518049390592,525.3822947067267" fill="none" stroke="#000000" stroke-width="0.5740000000000001"/>
	<path d="M 223.48740220881868,501.6857755456162 L 234.71206917987104,501.6857755456162" fill="none" stroke="#000000" stroke-width="0.5740000000000001"/>
	<path d="M 219.74584655180126,486.7195529175464 L 242.19518049390592,486.7195529175464" fill="none" stroke="#000000" stroke-width="0.5740000000000001"/>
	<path d="M 234.71206917987104,475.4948859464941 L 216.12524794446898,479.20230193420474 L 177.34155409434436,479.23644160351154" fill="none" stroke="#000000" stroke-width="0.5740000000000001"/>
	<path d="M 172.35281321832116,485.4723676985406 L 176.0943688753386,486.7195529175464" fill="none" stroke="#000000" stroke-width="0.5740000000000001"/>
	<path d="M 179.83592453235605,490.46110857456387 L 159.88096102826302,501.6857755456162" fill="none" stroke="#000000" stroke-width="0.5740000000000001"/>
	<path d="M 172.35281321832116,497.94421988859875 L 182.33029497036762,501.6857755456162" fill="none" stroke="#000000" stroke-width="0.5740000000000001"/>
	<path d="M 188.56622106539675,494.2026642315813 L 232.2176987418594,494.2026642315813" fill="none" stroke="#000000" stroke-width="0.5740000000000001"/>
	<path d="M 240.9479952749001,469.258959851465 L 237.20643961788267,473.00051550848247" fill="none" stroke="#000000" stroke-width="0.5740000000000001"/>
	<path d="M 238.45362483688845,468.0117746324592 L 234.712069179871,471.75333028947665" fill="none" stroke="#000000" stroke-width="0.5740000000000001"/>
	<path d="M 234.712069179871,463.02303375643595 L 233.4648839608652,471.75333028947665" fill="none" stroke="#000000" stroke-width="0.5740000000000001"/>
	<path d="M 229.72332830384772,463.02303375643595 L 237.2253164892991,475.7574452063776 L 250.9254770269466,479.23644160351154" fill="none" stroke="#000000" stroke-width="0.5740000000000001"/>
	<path d="M 238.45362483688845,463.02303375643595 L 243.4423657129117,466.7645894134534" fill="none" stroke="#000000" stroke-width="0.5740000000000001"/>
	<path d="M 249.67829180794075,455.53992244240106 L 314.53192319624316,455.53992244240106" fill="none" stroke="#000000" stroke-width="0.5740000000000001"/>
	<path d="M 287.09384837811524,426.8546624052673 L 329.4981458243129,426.8546624052673" fill="none" stroke="#000000" stroke-width="0.5740000000000001"/>
	<path d="M 287.0938608499674,401.910958025151 L 279.8173481913997,423.98376319353287 L 293.2322641729487,443.8161069613258 L 314.547149006618,448.05490725019274 L 339.62126658762134,448.3029559109823 L 339.46349085431586,429.5448288442667 L 338.2284548292058,406.899698901174" fill="none" stroke="#000000" stroke-width="0.5740000000000001"/>
	<path d="M 348.2058866938436,353.2707344839243 L 350.7002571318552,353.2707344839243" fill="none" stroke="#000000" stroke-width="0.5740000000000001"/>
	<path d="M 329.49810840875637,350.77636404591266 L 351.0064687768902,357.9008300376178 L 369.4080354169424,371.9785127690115" fill="none" stroke="#000000" stroke-width="0.5740000000000001"/>
	<path d="M 336.98121972279125,329.5742153228138 L 376.8911467309773,329.5742153228138" fill="none" stroke="#000000" stroke-width="0.5740000000000001"/>
	<path d="M 333.2396640657738,322.0911040087789 L 349.4530719128494,322.0911040087789" fill="none" stroke="#000000" stroke-width="0.5740000000000001"/>
	<path d="M 313.2847005616808,329.5742153228138 L 324.5093675327331,329.5742153228138" fill="none" stroke="#000000" stroke-width="0.5740000000000001"/>
	<path d="M 289.5881814005703,322.0911040087789 L 320.76781187571567,322.0911040087789" fill="none" stroke="#000000" stroke-width="0.5740000000000001"/>
	<path d="M 287.0938109625587,329.5742153228138 L 305.8015892476459,329.5742153228138" fill="none" stroke="#000000" stroke-width="0.5740000000000001"/>
	<path d="M 282.1050700865354,338.3045118558545 L 322.0149970947215,338.3045118558545" fill="none" stroke="#000000" stroke-width="0.5740000000000001"/>
	<path d="M 290.8353666195761,357.01229014094173 L 289.436153497456,378.9744456148999 L 288.163779216962,400.53483186516473 L 308.7341640918484,411.904394930681 L 331.45417155670566,406.70020979078447 L 337.8595132718408,387.56502421697843 L 316.6067449477257,393.36576769766964 L 297.07129271460485,393.1806614921103" fill="none" stroke="#000000" stroke-width="0.5740000000000001"/>
	<path d="M 283.35230519295,395.6750319301219 L 270.312386771029,416.66842091862225 L 275.7200502906063,439.82056795365645 L 264.9682988676174,442.39864073989344 L 267.13889734587417,419.37155109123233" fill="none" stroke="#000000" stroke-width="0.5740000000000001"/>
	<path d="M 273.37482344090347,398.16940236813355 L 263.39734168885707,405.65251368216843" fill="none" stroke="#000000" stroke-width="0.5740000000000001"/>
	<path d="M 252.1726747178046,390.68629105409866 L 250.92548949879878,395.6750319301219" fill="none" stroke="#000000" stroke-width="0.5740000000000001"/>
	<path d="M 254.66699526840756,366.9897718929883 L 257.1613657064192,385.6975501780755" fill="none" stroke="#000000" stroke-width="0.5740000000000001"/>
	<path d="M 250.9254396113901,365.7425866739825 L 251.37745315566352,388.4920222125635 L 258.7141336287857,395.9181260476377 L 252.72215197059393,416.2120245447738 L 255.31561468844336,439.72847369257534 L 239.7007726403378,448.05681112836635" fill="none" stroke="#000000" stroke-width="0.5740000000000001"/>
	<path d="M 216.00429089478374,448.0568111283662 L 224.73458742782444,448.0568111283662" fill="none" stroke="#000000" stroke-width="0.5740000000000001"/>
	<path d="M 224.7345874278245,466.7645894134534 L 232.21769874185938,473.00051550848247" fill="none" stroke="#000000" stroke-width="0.5740000000000001"/>
	<path d="M 197.29651260969658,471.75333028947665 L 216.0042908947838,471.75333028947665" fill="none" stroke="#000000" stroke-width="0.5740000000000001"/>
	<path d="M 194.80214217168486,454.29273722339525 L 194.80214217168486,455.53992244240106" fill="none" stroke="#000000" stroke-width="0.5740000000000001"/>
	<path d="M 184.82466540837925,436.8321441573138 L 170.78370766854852,440.6376663852324 L 148.6562940572105,440.57369981433084" fill="none" stroke="#000000" stroke-width="0.5740000000000001"/>
	<path d="M 138.67881230516406,439.3265145953254 L 139.92599752416987,439.3265145953254" fill="none" stroke="#000000" stroke-width="0.5740000000000001"/>
	<path d="M 144.91473840019313,454.29273722339525 L 146.5930752428629,468.2073167694191 L 126.206960115106,471.75333028947614" fill="none" stroke="#000000" stroke-width="0.5740000000000001"/>
	<path d="M 136.1844418671525,479.23644160351154 L 151.15066449522226,479.23644160351154" fill="none" stroke="#000000" stroke-width="0.5740000000000001"/>
	<path d="M 149.90347927621644,466.7645894134534 L 159.88096102826293,471.75333028947705" fill="none" stroke="#000000" stroke-width="0.5740000000000001"/>
	<path d="M 167.3640723422979,470.50614507047084 L 178.58873931335023,470.50614507047084" fill="none" stroke="#000000" stroke-width="0.5740000000000001"/>
	<path d="M 167.3640723422979,485.4723676985406 L 163.62251668528046,490.46110857456387" fill="none" stroke="#000000" stroke-width="0.5740000000000001"/>
	<path d="M 173.59999843732697,492.9554790125755 L 171.10562799931535,495.4498494505871" fill="none" stroke="#000000" stroke-width="0.5740000000000001"/>
	<path d="M 142.4203679621816,514.1576277356744 L 173.59999843732697,514.1576277356744" fill="none" stroke="#000000" stroke-width="0.5740000000000001"/>
	<path d="M 134.9372566481467,501.6857755456162 L 141.17318274317577,501.6857755456162" fill="none" stroke="#000000" stroke-width="0.5740000000000001"/>
	<path d="M 121.21821923908276,494.2026642315813 L 154.89222015223976,494.2026642315813" fill="none" stroke="#000000" stroke-width="0.5740000000000001"/>
	<path d="M 156.1394053712455,461.77584853743014 L 152.39784971422804,465.5174041944476" fill="none" stroke="#000000" stroke-width="0.5740000000000001"/>
	<path d="M 153.64503493323386,455.53992244240106 L 153.64503493323386,460.5286633184243" fill="none" stroke="#000000" stroke-width="0.5740000000000001"/>
	<path d="M 149.90347927621642,454.29273722339525 L 158.63377580925712,459.2814780994185" fill="none" stroke="#000000" stroke-width="0.5740000000000001"/>
	<path d="M 164.8697019042862,455.53992244240106 L 187.31903584639088,455.53992244240106" fill="none" stroke="#000000" stroke-width="0.5740000000000001"/>
	<path d="M 193.55495695267905,428.1018476242731 L 187.31903584639088,433.09058850029646" fill="none" stroke="#000000" stroke-width="0.5740000000000001"/>
	<path d="M 189.81340129566163,424.36029196725565 L 181.0831097513618,425.60747718626146" fill="none" stroke="#000000" stroke-width="0.5740000000000001"/>
	<path d="M 184.82466540837925,423.11310674824983 L 193.55495695267908,440.57369981433123" fill="none" stroke="#000000" stroke-width="0.5740000000000001"/>
	<path d="M 176.09436887533855,428.1018476242731 L 182.33029497036762,433.09058850029635" fill="none" stroke="#000000" stroke-width="0.5740000000000001"/>
	<path d="M 178.58875178520236,404.4053284631626 L 174.84719612818492,410.6412545581917" fill="none" stroke="#000000" stroke-width="0.5740000000000001"/>
	<path d="M 171.10564047116753,400.6637728061452 L 182.33030744221986,405.65251368216843" fill="none" stroke="#000000" stroke-width="0.5740000000000001"/>
	<path d="M 194.80215464353708,403.1581432441568 L 197.2965250815487,405.65251368216843" fill="none" stroke="#000000" stroke-width="0.5740000000000001"/>
	<path d="M 199.79089551956034,403.1581432441568 L 209.76837727160677,403.1581432441566" fill="none" stroke="#000000" stroke-width="0.5740000000000001"/>
	<path d="M 203.53245117657784,399.41658758713936 L 203.53245117657784,403.1581432441568" fill="none" stroke="#000000" stroke-width="0.5740000000000001"/>
	<path d="M 203.53245117657778,409.3940693391859 L 204.04939636579576,427.42755161364784 L 201.57610984378925,446.0131214073424 L 183.57748018937335,448.05681112836635" fill="none" stroke="#000000" stroke-width="0.5740000000000001"/>
	<path d="M 209.76836479975466,419.3715510912324 L 215.02650703697233,435.37101678583974 L 204.77962392373144,448.0568111283663" fill="none" stroke="#000000" stroke-width="0.5740000000000001"/>
	<path d="M 219.74584655180118,426.8546624052673 L 245.9367361509233,426.8546624052673" fill="none" stroke="#000000" stroke-width="0.5740000000000001"/>
	<path d="M 214.75710567577792,416.87718065322076 L 218.49866133279536,419.3715510912324" fill="none" stroke="#000000" stroke-width="0.5740000000000001"/>
	<path d="M 219.7458590236534,398.16940236813355 L 216.00430336663595,401.910958025151" fill="none" stroke="#000000" stroke-width="0.5740000000000001"/>
	<path d="M 198.54371030055455,399.41658758713936 L 207.27400683359528,399.416587587139" fill="none" stroke="#000000" stroke-width="0.5740000000000001"/>
	<path d="M 202.28526595757202,385.6975501780754 L 202.28526595757202,390.68629105409866" fill="none" stroke="#000000" stroke-width="0.5740000000000001"/>
	<path d="M 199.79084563215167,364.4954014549767 L 201.0380308511575,364.4954014549767" fill="none" stroke="#000000" stroke-width="0.5740000000000001"/>
	<path d="M 171.10559058375884,374.4728832070232 L 193.79088354255032,378.74754410472156 L 214.83224821737048,388.78034890781436 L 230.8356109106933,398.190294937655 L 242.19514307834942,416.877180653221" fill="none" stroke="#000000" stroke-width="0.5740000000000001"/>
	<path d="M 265.8916996550164,463.02303375643595 L 279.61073706408035,463.02303375643595" fill="none" stroke="#000000" stroke-width="0.5740000000000001"/>
	<path d="M 280.85792228308617,477.9892563845057 L 284.5994779401036,479.23644160351154" fill="none" stroke="#000000" stroke-width="0.5740000000000001"/>
	<path d="M 275.8691814070629,479.23644160351154 L 287.09384837811524,494.2026642315813" fill="none" stroke="#000000" stroke-width="0.5740000000000001"/>
	<path d="M 272.12762575004547,482.977997260529 L 278.36355184507454,487.96673813655224" fill="none" stroke="#000000" stroke-width="0.5740000000000001"/>
	<path d="M 206.0268091427373,584.0 L 280.85792228308617,584.0" fill="none" stroke="#000000" stroke-width="0.5740000000000001"/>
	<path d="M 196.04932739069076,584.0 L 197.29651260969658,584.0" fill="none" stroke="#000000" stroke-width="0.5740000000000001"/>
	<path d="M 141.1731827431757,459.2814780994185 L 147.4091088382048,464.27021897544176" fill="none" stroke="#000000" stroke-width="0.5740000000000001"/>
	<path d="M 108.74636704902451,455.53992244240106 L 132.442886210135,455.53992244240106" fill="none" stroke="#000000" stroke-width="0.5740000000000001"/>
	<path d="M 127.45414533411174,418.1243658722266 L 136.18444186715243,416.87718065322076" fill="none" stroke="#000000" stroke-width="0.5740000000000001"/>
	<path d="M 142.42038043403375,401.910958025151 L 133.5651954501064,390.1396326238116 L 143.6675656530395,380.70880930205215" fill="none" stroke="#000000" stroke-width="0.5740000000000001"/>
	<path d="M 157.38660306210352,389.43910583509285 L 155.56409175103343,413.8250726201777 L 169.85845525216172,426.8546624052673" fill="none" stroke="#000000" stroke-width="0.5740000000000001"/>
	<path d="M 114.98230561590583,418.1243658722266 L 119.2271394833302,403.5242887627895 L 131.19571346298142,396.92221714912773" fill="none" stroke="#000000" stroke-width="0.5740000000000001"/>
	<path d="M 100.01607051598383,426.8546624052673 L 156.1394053712455,426.8546624052673" fill="none" stroke="#000000" stroke-width="0.5740000000000001"/>
	<path d="M 85.04984788791403,426.8546624052673 L 100.80639945977282,421.90917826055914 L 113.73510792504777,410.6412545581917" fill="none" stroke="#000000" stroke-width="0.5740000000000001"/>
	<path d="M 122.46536704253194,343.29325273187777 L 143.6675157656308,360.7538457979592" fill="none" stroke="#000000" stroke-width="0.5740000000000001"/>
	<path d="M 151.1506270796657,325.83265966579637 L 147.62076645486687,344.765067429692 L 147.23562186447413,366.23502943341487 L 155.1231626372777,385.2855429691041 L 164.51464004926873,376.2545734823427 L 173.59996102177024,358.2594753599475" fill="none" stroke="#000000" stroke-width="0.5740000000000001"/>
	<path d="M 191.06054909911091,309.6192518187207 L 176.44876019270419,324.1727474122987 L 168.69520715567387,343.6336141014543 L 175.59080592568029,355.79197702956856 L 192.01790429342077,340.8016966197395 L 206.97075709360197,326.17219860646054 L 214.75706826022136,309.6192518187207" fill="none" stroke="#000000" stroke-width="0.5740000000000001"/>
	<path d="M 219.74580913624462,309.6192518187207 L 225.98173523127372,322.0911040087789" fill="none" stroke="#000000" stroke-width="0.5740000000000001"/>
	<path d="M 217.25143869823302,318.3495483517615 L 225.98173523127372,317.10236313275567" fill="none" stroke="#000000" stroke-width="0.5740000000000001"/>
	<path d="M 223.4873647932621,312.1136222567324 L 217.25143869823302,318.3495483517615" fill="none" stroke="#000000" stroke-width="0.5740000000000001"/>
	<path d="M 234.71203176431442,314.60799269474404 L 270.8804031154831,314.60799269474404" fill="none" stroke="#000000" stroke-width="0.5740000000000001"/>
	<path d="M 278.363514429518,314.60799269474404 L 294.57692227659356,314.60799269474404" fill="none" stroke="#000000" stroke-width="0.5740000000000001"/>
	<path d="M 279.6106996485238,298.3945848476684 L 303.30721880963426,298.3945848476684" fill="none" stroke="#000000" stroke-width="0.5740000000000001"/>
	<path d="M 277.11632921051216,282.1811770005928 L 300.81284837162264,282.1811770005928" fill="none" stroke="#000000" stroke-width="0.5740000000000001"/>
	<path d="M 274.6219587725004,274.6980656865579 L 305.8015892476458,274.6980656865579" fill="none" stroke="#000000" stroke-width="0.5740000000000001"/>
	<path d="M 274.62195877250053,267.21495437252304 L 288.3409961815645,267.21495437252304" fill="none" stroke="#000000" stroke-width="0.5740000000000001"/>
	<path d="M 273.3747735534947,258.48465783948234 L 285.84662574355286,258.48465783948234" fill="none" stroke="#000000" stroke-width="0.5740000000000001"/>
	<path d="M 274.62195877250053,251.00154652544737 L 300.81284837162264,251.00154652544737" fill="none" stroke="#000000" stroke-width="0.5740000000000001"/>
	<path d="M 293.32973705758775,243.51843521141248 L 315.7790709996924,243.51843521141248" fill="none" stroke="#000000" stroke-width="0.5740000000000001"/>
	<path d="M 293.32973705758775,228.55220011149055 L 289.5881814005703,233.5409409875138" fill="none" stroke="#000000" stroke-width="0.5740000000000001"/>
	<path d="M 290.8353666195761,232.293755768508 L 312.84175437791555,234.01493370491173 L 329.58270818248513,248.7407775017939 L 341.96996059881474,268.4621395915289" fill="none" stroke="#000000" stroke-width="0.5740000000000001"/>
	<path d="M 358.1833684458901,258.48465783948234 L 368.1608501979366,258.48465783948234" fill="none" stroke="#000000" stroke-width="0.5740000000000001"/>
	<path d="M 361.92492410290754,265.9677691535172 L 378.1383319499831,265.9677691535172" fill="none" stroke="#000000" stroke-width="0.5740000000000001"/>
	<path d="M 356.9361832268843,242.27124999240667 L 364.41929454091917,242.27124999240667" fill="none" stroke="#000000" stroke-width="0.5740000000000001"/>
	<path d="M 354.44181278887265,234.78812620651962 L 364.41929454091917,234.78812620651962" fill="none" stroke="#000000" stroke-width="0.5740000000000001"/>
	<path d="M 353.19462756986684,227.3050148924848 L 385.621443264018,227.3050148924848" fill="none" stroke="#000000" stroke-width="0.5740000000000001"/>
	<path d="M 368.1608501979366,218.57471835944403 L 381.87988760700057,218.57471835944403" fill="none" stroke="#000000" stroke-width="0.5740000000000001"/>
	<path d="M 363.17210932191335,211.09160704540915 L 379.38551716898894,211.09160704540915" fill="none" stroke="#000000" stroke-width="0.5740000000000001"/>
	<path d="M 366.9136649789308,203.60849573137426 L 375.6439615119715,203.60849573137426" fill="none" stroke="#000000" stroke-width="0.5740000000000001"/>
	<path d="M 364.41929454091917,194.87819919833353 L 369.4080354169424,194.87819919833353" fill="none" stroke="#000000" stroke-width="0.5740000000000001"/>
	<path d="M 344.46433103682614,203.60849573137426 L 350.7002571318552,203.60849573137426" fill="none" stroke="#000000" stroke-width="0.5740000000000001"/>
	<path d="M 346.95870147483777,211.09160704540915 L 358.1833684458901,211.09160704540915" fill="none" stroke="#000000" stroke-width="0.5740000000000001"/>
	<path d="M 349.4530719128494,218.57471835944403 L 356.9361832268843,218.57471835944403" fill="none" stroke="#000000" stroke-width="0.5740000000000001"/>
	<path d="M 341.9699605988145,194.87819919833353 L 358.1833684458901,194.87819919833353" fill="none" stroke="#000000" stroke-width="0.5740000000000001"/>
	<path d="M 339.4755901608029,187.39508788429865 L 344.46433103682614,187.39508788429865" fill="none" stroke="#000000" stroke-width="0.5740000000000001"/>
	<path d="M 335.73403450378544,179.91197657026376 L 345.71151625583195,179.91197657026376" fill="none" stroke="#000000" stroke-width="0.5740000000000001"/>
	<path d="M 333.2396640657738,171.18168003722306 L 345.71151625583195,171.18168003722306" fill="none" stroke="#000000" stroke-width="0.5740000000000001"/>
	<path d="M 339.4755901608029,163.69856872318817 L 345.71151625583195,163.69856872318817" fill="none" stroke="#000000" stroke-width="0.5740000000000001"/>
	<path d="M 344.46433103682614,156.2154574091533 L 345.71151625583195,156.2154574091533" fill="none" stroke="#000000" stroke-width="0.5740000000000001"/>
	<path d="M 339.4755901608029,147.4851608761126 L 344.46433103682614,147.4851608761126" fill="none" stroke="#000000" stroke-width="0.5740000000000001"/>
	<path d="M 328.25092318975055,156.2154574091533 L 339.4755901608029,156.2154574091533" fill="none" stroke="#000000" stroke-width="0.5740000000000001"/>
	<path d="M 330.7452936277622,163.69856872318817 L 334.4868492847796,163.69856872318817" fill="none" stroke="#000000" stroke-width="0.5740000000000001"/>
	<path d="M 325.7565527517389,147.4851608761126 L 329.49810840875637,147.4851608761126" fill="none" stroke="#000000" stroke-width="0.5740000000000001"/>
	<path d="M 323.2621823137273,140.0020495620777 L 343.2171458178203,140.0020495620777" fill="none" stroke="#000000" stroke-width="0.5740000000000001"/>
	<path d="M 350.7002571318552,123.78864545655777 L 350.7002571318552,167.32372861214037 L 354.1271248041377,187.08615021503002 L 375.9622390481919,189.27990494134264 L 386.36574735214435,208.19423792080366 L 396.2971020508327,227.47320430043536 L 405.5764067681108,247.25999086843" fill="none" stroke="#000000" stroke-width="0.5740000000000001"/>
	<path d="M 289.5881814005703,226.05782967347898 L 288.3409961815645,231.04657054950226" fill="none" stroke="#000000" stroke-width="0.5740000000000001"/>
	<path d="M 274.62195877250053,243.51843521141248 L 283.35225530554123,243.51843521141248" fill="none" stroke="#000000" stroke-width="0.5740000000000001"/>
	<path d="M 269.6332178964773,234.78812620651962 L 271.0479849635898,258.890010080592 L 260.705278733764,275.06629762527893 L 239.9804415390461,281.0457300232695 L 230.970476107297,303.38332572369166" fill="none" stroke="#000000" stroke-width="0.5740000000000001"/>
	<path d="M 238.45358742133186,305.8776961617033 L 259.65573614443076,305.8776961617033" fill="none" stroke="#000000" stroke-width="0.5740000000000001"/>
	<path d="M 267.13884745846565,305.8776961617033 L 279.6106996485238,305.8776961617033" fill="none" stroke="#000000" stroke-width="0.5740000000000001"/>
	<path d="M 268.38603267747146,322.0911040087789 L 280.8578848675296,322.0911040087789" fill="none" stroke="#000000" stroke-width="0.5740000000000001"/>
	<path d="M 238.45358742133186,322.0911040087789 L 260.9029213634366,322.0911040087789" fill="none" stroke="#000000" stroke-width="0.5740000000000001"/>
	<path d="M 242.1951430783493,298.3945848476684 L 265.89166223945983,298.3945848476684" fill="none" stroke="#000000" stroke-width="0.5740000000000001"/>
	<path d="M 244.68951351636093,290.9114735336335 L 257.16136570641913,290.9114735336335" fill="none" stroke="#000000" stroke-width="0.5740000000000001"/>
	<path d="M 247.18388395437256,282.1811770005928 L 270.8804031154831,282.1811770005928" fill="none" stroke="#000000" stroke-width="0.5740000000000001"/>
	<path d="M 199.7908456321516,305.8776961617033 L 199.7908456321516,312.1136222567324" fill="none" stroke="#000000" stroke-width="0.5740000000000001"/>
	<path d="M 192.3077343181167,299.6417700666742 L 191.06054909911086,305.8776961617033" fill="none" stroke="#000000" stroke-width="0.5740000000000001"/>
	<path d="M 187.3189984308343,299.6417700666742 L 196.04928997513414,302.13614050468584" fill="none" stroke="#000000" stroke-width="0.5740000000000001"/>
	<path d="M 182.33025755481106,287.16991787661607 L 183.57744277381687,287.16991787661607" fill="none" stroke="#000000" stroke-width="0.5740000000000001"/>
	<path d="M 182.33025755481106,284.67554743860444 L 179.83588711679943,287.16991787661607" fill="none" stroke="#000000" stroke-width="0.5740000000000001"/>
	<path d="M 181.08307233580518,278.43962134357537 L 184.82462799282263,278.43962134357537" fill="none" stroke="#000000" stroke-width="0.5740000000000001"/>
	<path d="M 189.81336388010502,280.933991781587 L 191.06054909911091,287.16991787661607" fill="none" stroke="#000000" stroke-width="0.5740000000000001"/>
	<path d="M 156.13936795568887,273.4508804675521 L 153.85024980524327,293.8975391437938 L 151.86904134281713,318.35569579203064 L 159.82839097709984,315.69871946381994 L 174.02739986573448,297.8396897248771 L 176.09433145978193,278.4396213435754" fill="none" stroke="#000000" stroke-width="0.5740000000000001"/>
	<path d="M 156.13936795568895,262.2262134964998 L 161.1281088317122,262.2262134964998" fill="none" stroke="#000000" stroke-width="0.5740000000000001"/>
	<path d="M 152.3978122986715,263.4733987155056 L 163.62247926972387,267.21495437252304" fill="none" stroke="#000000" stroke-width="0.5740000000000001"/>
	<path d="M 147.40907142264825,265.9677691535172 L 157.3865531746947,268.46213959152874" fill="none" stroke="#000000" stroke-width="0.5740000000000001"/>
	<path d="M 151.1506270796657,244.7656204304183 L 156.13936795568895,244.7656204304183" fill="none" stroke="#000000" stroke-width="0.5740000000000001"/>
	<path d="M 153.64499751767733,228.5522001114906 L 168.61122014574715,244.7656204304183" fill="none" stroke="#000000" stroke-width="0.5740000000000001"/>
	<path d="M 182.33025755481106,222.31627401646148 L 182.33025755481106,223.5634592354673" fill="none" stroke="#000000" stroke-width="0.5740000000000001"/>
	<path d="M 197.29647519413996,229.79938533049636 L 217.25143869823302,229.79938533049636" fill="none" stroke="#000000" stroke-width="0.5740000000000001"/>
	<path d="M 206.0267717271807,234.78812620651962 L 209.76832738419813,234.78812620651962" fill="none" stroke="#000000" stroke-width="0.5740000000000001"/>
	<path d="M 206.0267717271807,221.06908879745566 L 224.147302245723,227.0781056320104 L 232.2176613263028,244.76562043041838" fill="none" stroke="#000000" stroke-width="0.5740000000000001"/>
	<path d="M 207.2739569461865,213.58597748342078 L 212.26269782220976,216.0803479214324" fill="none" stroke="#000000" stroke-width="0.5740000000000001"/>
	<path d="M 201.03803085115743,216.0803479214324 L 189.81336388010504,223.5634592354675" fill="none" stroke="#000000" stroke-width="0.5740000000000001"/>
	<path d="M 163.62247926972384,206.1028661693859 L 168.6112201457471,206.1028661693859" fill="none" stroke="#000000" stroke-width="0.5740000000000001"/>
	<path d="M 136.18440445159592,214.8331627024266 L 147.82599452849124,220.40628000772264 L 152.39781229867157,233.54094098751375" fill="none" stroke="#000000" stroke-width="0.5740000000000001"/>
	<path d="M 131.19566357557267,232.293755768508 L 137.43158967060174,232.293755768508" fill="none" stroke="#000000" stroke-width="0.5740000000000001"/>
	<path d="M 119.97099660452031,244.7656204304183 L 127.4541079185552,244.7656204304183" fill="none" stroke="#000000" stroke-width="0.5740000000000001"/>
	<path d="M 109.9935148524738,214.8331627024266 L 113.73507050949124,214.8331627024266" fill="none" stroke="#000000" stroke-width="0.5740000000000001"/>
	<path d="M 116.22944094750287,199.8669400743568 L 113.73507050949124,203.60849573137426" fill="none" stroke="#000000" stroke-width="0.5740000000000001"/>
	<path d="M 103.75758875744472,182.4063470082754 L 110.7028826899174,159.81942000485418 L 120.45885935833672,138.17843962897155 L 132.347997083368,117.75126376085746 L 145.99357117933903,98.7480660431899 L 161.62875245144878,81.18656894877645 L 179.04851208189,65.20463525441276 L 198.02683180814432,50.95037359586955 L 218.33769336769345,38.57189260891751 L 239.7550784980189,28.21730092932737 L 262.0529689366025,20.034707192869824 L 285.0053464209258,14.172220035315602 L 308.3861926884705,10.777948092435441 L 331.9694894767182,10.0 L 355.6431730201148,11.830570310261672 L 378.95732044866975,15.764589235122607 L 401.70876367644246,21.82621103084805 L 423.82024328882824,30.103526717801216 L 445.0329591484508,40.70113427608766 L 465.4412972803905,52.69908797322634" fill="none" stroke="#000000" stroke-width="0.5740000000000001"/>
	<path d="M 475.41877903243676,77.64279235334261 L 486.6434460034891,85.1259036673775" fill="none" stroke="#000000" stroke-width="0.5740000000000001"/>
	<path d="M 497.8681129745414,77.64279235334261 L 502.8568538505647,77.64279235334261" fill="none" stroke="#000000" stroke-width="0.5740000000000001"/>
	<path d="M 500.36248341255305,66.41812538229027 L 508.7230897747156,53.070162435360665 L 527.4629301684886,58.42332499455779 L 536.530854763722,75.148421915331" fill="none" stroke="#000000" stroke-width="0.5740000000000001"/>
	<path d="M 526.5533730116751,113.81116370451124 L 535.2836695447158,113.81116370451124" fill="none" stroke="#000000" stroke-width="0.5740000000000001"/>
	<path d="M 522.8118173546577,130.02457155158686 L 534.7135515401674,132.06718031138615 L 546.5083365157686,128.77738633258105" fill="none" stroke="#000000" stroke-width="0.5740000000000001"/>
	<path d="M 486.6434460034891,113.81116370451124 L 515.3287060406228,113.81116370451124" fill="none" stroke="#000000" stroke-width="0.5740000000000001"/>
	<path d="M 486.6434460034891,98.84494107644147 L 547.755521734774,98.84494107644147" fill="none" stroke="#000000" stroke-width="0.5740000000000001"/>
	<path d="M 479.1603346894542,113.81116370451124 L 480.40751990846,113.81116370451124" fill="none" stroke="#000000" stroke-width="0.5740000000000001"/>
	<path d="M 469.1828529374077,98.84494107644147 L 476.6659642514426,98.84494107644147" fill="none" stroke="#000000" stroke-width="0.5740000000000001"/>
	<path d="M 451.7222598713263,100.09212629544729 L 457.94271613665535,82.53592380365392 L 473.94395850550404,75.14455605139646 L 480.05393452382725,58.08400260669823 L 497.8681129745411,58.93501406825541" fill="none" stroke="#000000" stroke-width="0.5740000000000001"/>
	<path d="M 429.2729259292215,66.41812538229027 L 438.00322246226233,66.41812538229027" fill="none" stroke="#000000" stroke-width="0.5740000000000001"/>
	<path d="M 431.76729636723314,111.31679326649962 L 438.10537472660656,98.83647720985083 L 450.4750746523206,93.85620020041821" fill="none" stroke="#000000" stroke-width="0.5740000000000001"/>
	<path d="M 445.4863337762972,113.81116370451124 L 452.9694450903321,113.81116370451124" fill="none" stroke="#000000" stroke-width="0.5740000000000001"/>
	<path d="M 333.2396640657738,86.37308888638331 L 344.46433103682625,83.87871844837163" fill="none" stroke="#000000" stroke-width="0.5740000000000001"/>
	<path d="M 320.76781187571567,83.87871844837169 L 333.2396640657739,88.86745932439499" fill="none" stroke="#000000" stroke-width="0.5740000000000001"/>
	<path d="M 314.5318857806866,121.29427501854614 L 319.4664981646951,141.52693875682462 L 325.9829978794281,162.058542827256 L 331.95134547562884,182.39286528892404 L 337.61355751213944,202.825872699677 L 343.32800824064964,223.2401882702586 L 349.4530719128496,243.51843521141242" fill="none" stroke="#000000" stroke-width="0.5740000000000001"/>
	<path d="M 267.13884745846565,176.17042091324632 L 268.38603267747146,176.17042091324632" fill="none" stroke="#000000" stroke-width="0.5740000000000001"/>
	<path d="M 237.20640220232605,122.54146023755196 L 245.93669873536675,122.54146023755196" fill="none" stroke="#000000" stroke-width="0.5740000000000001"/>
	<path d="M 243.44232829735512,115.05834892351706 L 257.16136570641913,115.05834892351706" fill="none" stroke="#000000" stroke-width="0.5740000000000001"/>
	<path d="M 249.6782543923842,98.84494107644147 L 257.16136570641913,98.84494107644147" fill="none" stroke="#000000" stroke-width="0.5740000000000001"/>
	<path d="M 252.17262483039585,83.87871844837169 L 257.16136570641913,83.87871844837169" fill="none" stroke="#000000" stroke-width="0.5740000000000001"/>
	<path d="M 265.89166223945983,67.66531060129608 L 265.8923922731282,112.75144241060418 L 260.0856987038513,131.43783843603438 L 235.85418538522046,131.03830251829862 L 222.32941095232647,145.1194449094588 L 214.75706826022125,167.44012438020567" fill="none" stroke="#000000" stroke-width="0.5740000000000001"/>
	<path d="M 208.5211421651923,154.96827219014747 L 213.50988304121555,154.96827219014747" fill="none" stroke="#000000" stroke-width="0.5740000000000001"/>
	<path d="M 209.76832738419813,138.7548643430719 L 218.49862391723883,138.7548643430719" fill="none" stroke="#000000" stroke-width="0.5740000000000001"/>
	<path d="M 206.0267717271807,131.27175677059267 L 222.24017957425627,131.27175677059267" fill="none" stroke="#000000" stroke-width="0.5740000000000001"/>
	<path d="M 218.49862391723883,122.54146023755196 L 229.72329088829116,122.54146023755196" fill="none" stroke="#000000" stroke-width="0.5740000000000001"/>
	<path d="M 239.70077264033768,107.57523760948217 L 257.16136570641913,107.57523760948217" fill="none" stroke="#000000" stroke-width="0.5740000000000001"/>
	<path d="M 237.20640220232605,91.36182976240659 L 257.16136570641913,91.36182976240659" fill="none" stroke="#000000" stroke-width="0.5740000000000001"/>
	<path d="M 223.4873647932621,98.84494107644147 L 238.45358742133186,98.84494107644147" fill="none" stroke="#000000" stroke-width="0.5740000000000001"/>
	<path d="M 204.77958650817487,107.57523760948217 L 218.49862391723883,107.57523760948217" fill="none" stroke="#000000" stroke-width="0.5740000000000001"/>
	<path d="M 198.5436604131458,115.05834892351706 L 235.95921698332023,115.05834892351706" fill="none" stroke="#000000" stroke-width="0.5740000000000001"/>
	<path d="M 194.80210475612833,122.54146023755196 L 201.03803085115743,122.54146023755196" fill="none" stroke="#000000" stroke-width="0.5740000000000001"/>
	<path d="M 187.3189984308343,131.27175677059267 L 196.04928997513414,131.27175677059267" fill="none" stroke="#000000" stroke-width="0.5740000000000001"/>
	<path d="M 197.29647519413996,146.23797565710677 L 216.0042534792272,146.23797565710677" fill="none" stroke="#000000" stroke-width="0.5740000000000001"/>
	<path d="M 198.5436604131458,162.45138350418236 L 211.01551260320394,162.45138350418236" fill="none" stroke="#000000" stroke-width="0.5740000000000001"/>
	<path d="M 182.33025755481106,146.23797565710677 L 189.8133638801051,146.23797565710677" fill="none" stroke="#000000" stroke-width="0.5740000000000001"/>
	<path d="M 181.08307233580524,138.7548643430719 L 203.53240128916906,138.7548643430719" fill="none" stroke="#000000" stroke-width="0.5740000000000001"/>
	<path d="M 173.59996102177035,154.96827219014747 L 188.56618364984013,154.96827219014747" fill="none" stroke="#000000" stroke-width="0.5740000000000001"/>
	<path d="M 168.6112201457471,162.45138350418236 L 191.06054909911091,162.45138350418236" fill="none" stroke="#000000" stroke-width="0.5740000000000001"/>
	<path d="M 158.63373839370058,162.45138350418236 L 172.02763975755244,142.48089242114352 L 184.27887737630743,121.77455229559804 L 197.51000410014382,101.94661003192809 L 219.35075231580473,92.09360746142978 L 239.77976238460246,79.90158843924137 L 261.1456111654705,67.6360097997335 L 281.87864454030756,74.23203099129951 L 302.02652741261795,92.63874421237267 L 310.6995352613963,113.12908414502495 L 329.4916321369765,122.19839725567078 L 352.91658138144294,125.10463675179442 L 369.908661068388,141.44273849782323 L 384.78979146744905,161.52590823332358 L 399.45431124105255,180.58561369734514 L 420.02060436204454,190.8983284273033 L 438.1685819550597,206.51829089765266 L 453.4512256403989,221.86423121969003 L 471.8896995311201,205.72755954949437 L 473.95978525470764,217.6559871106665 L 466.6674855793784,241.54027018764788 L 459.93392952446015,264.6678320773068 L 452.9285792949386,287.8185724726366 L 430.56782460763566,290.84675620972627 L 410.31270133405576,299.86479070008676 L 397.4784092229263,321.03764664663004 L 385.62144326401824,342.04606751287173" fill="none" stroke="#000000" stroke-width="0.5740000000000001"/>
	<path d="M 254.66699526840748,360.7538457979592 L 263.5422810751022,354.5479385582911 L 286.5146426921474,349.9805923980693 L 309.6891566559277,346.72201260036337 L 332.3633840572048,340.4204319346917 L 355.41174766521056,337.0582344053797 L 376.69316042072455,345.56331913959156 L 398.46484485626206,353.5679810255473 L 419.1786132417509,361.0735349765014 L 421.05284102560256,383.4484791636282 L 410.8535868511748,403.62658969899866 L 400.1053329424161,409.07898652960534 L 386.319804345556,389.7245926056262 L 379.38551716898894,368.23695711199383" fill="none" stroke="#000000" stroke-width="0.5740000000000001"/>
	<path d="M 322.0149970947215,132.5189419895985 L 333.2396640657738,132.5189419895985" fill="none" stroke="#000000" stroke-width="0.5740000000000001"/>
	<path d="M 302.06003359062845,60.182199287261206 L 307.0487744666517,60.182199287261206" fill="none" stroke="#000000" stroke-width="0.5740000000000001"/>
	<path d="M 288.3409961815645,48.95753231620887 L 320.76781187571567,48.95753231620887" fill="none" stroke="#000000" stroke-width="0.5740000000000001"/>
	<path d="M 327.00373797074474,47.710347097203055 L 327.00373797074474,48.95753231620887" fill="none" stroke="#000000" stroke-width="0.5740000000000001"/>
	<path d="M 304.5544040286401,37.73286534515653 L 333.2396640657738,37.73286534515653" fill="none" stroke="#000000" stroke-width="0.5740000000000001"/>
	<path d="M 269.6332178964773,37.73286534515653 L 285.84662574355286,37.73286534515653" fill="none" stroke="#000000" stroke-width="0.5740000000000001"/>
	<path d="M 153.64499751767733,127.53020111357522 L 153.64499751767733,128.77738633258105" fill="none" stroke="#000000" stroke-width="0.5740000000000001"/>
	<path d="M 142.42033054662497,166.1929391611998 L 159.14548204182012,176.18105581538558 L 182.52934844363386,176.17042091324632 L 205.3650551293879,176.17042091324632 L 227.9299560974281,177.61749091844575 L 241.8527945840103,195.05603865974075 L 254.07182776906004,214.9871677778138 L 268.2559121700477,232.4827086107522 L 284.59944052454705,228.55220011149055" fill="none" stroke="#000000" stroke-width="0.5740000000000001"/>
	<path d="M 147.40907142264825,169.93449481821725 L 143.6675157656308,173.6760504752347" fill="none" stroke="#000000" stroke-width="0.5740000000000001"/>
	<path d="M 141.17314532761915,174.9232356942405 L 117.47662616650874,176.1704209132464" fill="none" stroke="#000000" stroke-width="0.5740000000000001"/>
	<path d="M 137.43158967060174,169.93449481821725 L 141.17314532761918,173.6760504752347" fill="none" stroke="#000000" stroke-width="0.5740000000000001"/>
	<path d="M 83.80262525335166,212.33879226441496 L 94.8195905677909,196.32860514268438 L 115.14693586925108,198.48615811993903 L 133.44644879636994,204.44967030643912 L 123.71255226153775,219.82191605030206" fill="none" stroke="#000000" stroke-width="0.5740000000000001"/>
	<path d="M 80.06106959633422,244.7656204304183 L 107.49914441446215,244.7656204304183" fill="none" stroke="#000000" stroke-width="0.5740000000000001"/>
	<path d="M 96.27447744340982,269.70932481053467 L 114.98225572849705,270.9565100295405" fill="none" stroke="#000000" stroke-width="0.5740000000000001"/>
	<path d="M 127.4541079185552,297.1473996286626 L 139.92596010861334,303.38332572369166" fill="none" stroke="#000000" stroke-width="0.5740000000000001"/>
	<path d="M 136.1844044515959,299.6417700666742 L 128.701293137561,308.3720665997149" fill="none" stroke="#000000" stroke-width="0.5740000000000001"/>
	<path d="M 132.44284879457845,297.1473996286626 L 129.94847835656682,303.38332572369166" fill="none" stroke="#000000" stroke-width="0.5740000000000001"/>
	<path d="M 92.53292178639236,293.40584397164514 L 95.67855879302209,311.49756830459535 L 109.01094834306708,328.6219376075457 L 122.92502354705573,342.0796676306108 L 127.55476202762071,319.737925880856 L 122.4653670425319,300.88895528567997" fill="none" stroke="#000000" stroke-width="0.5740000000000001"/>
	<path d="M 86.29699569136329,303.38332572369166 L 82.55544003434585,304.63051094269747" fill="none" stroke="#000000" stroke-width="0.5740000000000001"/>
	<path d="M 85.04981047235748,302.13614050468584 L 86.29699569136329,303.38332572369166" fill="none" stroke="#000000" stroke-width="0.5740000000000001"/>
	<path d="M 80.06106959633422,298.3945848476684 L 77.56669915832259,303.38332572369166" fill="none" stroke="#000000" stroke-width="0.5740000000000001"/>
	<path d="M 82.55544003434585,294.65302919065095 L 87.5441809103691,300.88895528568" fill="none" stroke="#000000" stroke-width="0.5740000000000001"/>
	<path d="M 86.29699569136329,292.1586587526393 L 87.54418091036912,300.88895528567997" fill="none" stroke="#000000" stroke-width="0.5740000000000001"/>
	<path d="M 65.09484197952358,232.293755768508 L 123.71255226153775,232.293755768508" fill="none" stroke="#000000" stroke-width="0.5740000000000001"/>
</svg>
