<?xml version="1.0" ?>
<svg xmlns="http://www.w3.org/2000/svg" xmlns:ev="http://www.w3.org/2001/xml-events" xmlns:xlink="http://www.w3.org/1999/xlink" baseProfile="full" height="600px" version="1.1" viewBox="73.5253387746621 19.723 482.9493224506758 554.554" width="523px">
	<defs/>
	<path d="M 327.7892546608714,574.0 L 392.79063621449154,574.0" fill="none" stroke="#000000" stroke-width="0.554"/>
	<path d="M 401.2167412307016,543.90676779925 L 493.90389640901174,543.90676779925" fill="none" stroke="#000000" stroke-width="0.554"/>
	<path d="M 474.64422780053167,553.53660210349 L 538.4418800661218,553.53660210349" fill="none" stroke="#000000" stroke-width="0.554"/>
	<path d="M 523.9971286097618,493.35013770198987 L 549.2754436583919,493.35013770198987" fill="none" stroke="#000000" stroke-width="0.554"/>
	<path d="M 534.8306922020319,472.8867398054798 L 549.2754436583919,472.8867398054798" fill="none" stroke="#000000" stroke-width="0.554"/>
	<path d="M 523.9971286097618,482.51657410971984 L 538.4418800661218,482.51657410971984" fill="none" stroke="#000000" stroke-width="0.554"/>
	<path d="M 499.9225428491618,502.9799720062299 L 549.2754436583919,502.9799720062299" fill="none" stroke="#000000" stroke-width="0.554"/>
	<path d="M 498.7188135611318,462.0531762132098 L 519.1822114576419,462.0531762132098" fill="none" stroke="#000000" stroke-width="0.554"/>
	<path d="M 511.9598357294617,442.79350760472977 L 532.4232336259718,442.79350760472977" fill="none" stroke="#000000" stroke-width="0.554"/>
	<path d="M 503.53373071325177,442.79350760472977 L 504.73746000128176,442.79350760472977" fill="none" stroke="#000000" stroke-width="0.554"/>
	<path d="M 493.90389640901174,431.95994401245974 L 551.6829022344518,431.95994401245974" fill="none" stroke="#000000" stroke-width="0.554"/>
	<path d="M 503.53373071325177,422.3301097082197 L 551.6829022344516,422.3301097082197" fill="none" stroke="#000000" stroke-width="0.554"/>
	<path d="M 502.33001346251467,376.5883967630796 L 503.7219119108339,393.7087331178933 L 503.0477710328296,414.6983228234632 L 490.58817825217795,423.07739441829256 L 471.0330519737348,422.3301097082197" fill="none" stroke="#000000" stroke-width="0.554"/>
	<path d="M 454.1808299040216,431.95994401245974 L 477.05168637659165,431.95994401245974" fill="none" stroke="#000000" stroke-width="0.554"/>
	<path d="M 489.08897925689166,452.42334190896975 L 549.2754436583919,452.42334190896975" fill="none" stroke="#000000" stroke-width="0.554"/>
	<path d="M 479.45914495265174,472.8867398054798 L 515.5710235935518,472.8867398054798" fill="none" stroke="#000000" stroke-width="0.554"/>
	<path d="M 449.36591275190165,482.51657410971984 L 460.19947634417167,482.51657410971984" fill="none" stroke="#000000" stroke-width="0.554"/>
	<path d="M 434.92116129554165,493.35013770198987 L 507.14491857734174,493.35013770198987" fill="none" stroke="#000000" stroke-width="0.554"/>
	<path d="M 437.32861987160163,462.0531762132098 L 486.6815206808318,462.0531762132098" fill="none" stroke="#000000" stroke-width="0.554"/>
	<path d="M 431.30997343145157,452.42334190896975 L 446.95845417584155,452.42334190896975" fill="none" stroke="#000000" stroke-width="0.554"/>
	<path d="M 430.1062441434216,442.79350760472977 L 456.5882884800816,442.79350760472977" fill="none" stroke="#000000" stroke-width="0.554"/>
	<path d="M 475.84796912585455,394.64433608352965 L 480.6628862779746,399.45925323564967" fill="none" stroke="#000000" stroke-width="0.554"/>
	<path d="M 484.2740741420646,394.64433608352965 L 483.0703448540346,397.05179465958963" fill="none" stroke="#000000" stroke-width="0.554"/>
	<path d="M 480.6628862779746,392.2368775074696 L 480.7834322428628,404.90396756991333 L 480.66288627797474,421.1263804201895" fill="none" stroke="#000000" stroke-width="0.554"/>
	<path d="M 475.84796912585455,380.1995846271696 L 472.2367812617646,383.8107724912596" fill="none" stroke="#000000" stroke-width="0.554"/>
	<path d="M 469.82927453653303,375.38466747504964 L 470.0201621044157,397.68690883660304 L 466.92571305985234,421.1747654530885 L 442.8672200011928,423.3120746212877 L 420.1541660445455,427.92811132375704 L 404.936665578556,441.693611506223 L 419.85982856093517,461.78375760650323 L 427.3941578434326,480.77917499132707 L 406.16086695052104,490.47819575890827 L 382.46121380227316,492.3827016908632 L 358.9169807707739,493.2990842948683 L 335.32968923439535,493.41229909519154 L 311.9862320206562,493.30456322998003 L 287.9055824659873,494.28809593722707 L 278.3351262371551,509.384791936001 L 296.4642187025434,525.8512652548152 L 300.4076985498266,544.9579258465818 L 277.4317297655249,552.6866068706233 L 254.79262826666502,554.0378680196075 L 231.1647128988188,554.9975571209171 L 207.05867436147233,555.1508216197977 L 183.23918082928367,553.7194958735314 L 160.470900476911,549.9254142394" fill="none" stroke="#000000" stroke-width="0.554"/>
	<path d="M 160.47088843961814,563.16643640773 L 245.93566307483118,563.16643640773" fill="none" stroke="#000000" stroke-width="0.554"/>
	<path d="M 267.6027902593712,563.16643640773 L 302.5109396122413,563.16643640773" fill="none" stroke="#000000" stroke-width="0.554"/>
	<path d="M 309.7333153404213,563.16643640773 L 310.9370446284513,563.16643640773" fill="none" stroke="#000000" stroke-width="0.554"/>
	<path d="M 306.12212747633134,553.53660210349 L 400.0130119426716,553.53660210349" fill="none" stroke="#000000" stroke-width="0.554"/>
	<path d="M 419.27268055115155,533.07320420698 L 444.5509955997817,533.07320420698" fill="none" stroke="#000000" stroke-width="0.554"/>
	<path d="M 419.27268055115155,502.9799720062299 L 443.3472663117517,502.9799720062299" fill="none" stroke="#000000" stroke-width="0.554"/>
	<path d="M 403.62419980676157,512.6098063104699 L 475.84795708856177,512.6098063104699" fill="none" stroke="#000000" stroke-width="0.554"/>
	<path d="M 371.1235090299515,480.10911553365986 L 406.03165838282155,480.10911553365986" fill="none" stroke="#000000" stroke-width="0.554"/>
	<path d="M 367.5123211658614,469.27555194138984 L 356.6787575735914,472.88673980548" fill="none" stroke="#000000" stroke-width="0.554"/>
	<path d="M 359.08621614965136,460.8494469251798 L 367.5123211658614,466.86809336532946" fill="none" stroke="#000000" stroke-width="0.554"/>
	<path d="M 368.7160504538914,457.23825906108976 L 368.7160504538914,462.0531762132098" fill="none" stroke="#000000" stroke-width="0.554"/>
	<path d="M 363.90113330177144,457.23825906108976 L 377.14215547010144,472.88673980547986" fill="none" stroke="#000000" stroke-width="0.554"/>
	<path d="M 372.32723831798137,456.0345297730598 L 375.93842618207145,460.8494469251798" fill="none" stroke="#000000" stroke-width="0.554"/>
	<path d="M 377.14215547010144,442.79350760472977 L 381.9570726222214,442.79350760472977" fill="none" stroke="#000000" stroke-width="0.554"/>
	<path d="M 357.8824868616214,422.3301097082197 L 434.92116129554154,422.3301097082197" fill="none" stroke="#000000" stroke-width="0.554"/>
	<path d="M 461.40321766949455,378.9958553391396 L 467.4218641096445,382.6070432032296" fill="none" stroke="#000000" stroke-width="0.554"/>
	<path d="M 466.2181348216145,376.5883967630796 L 473.44051054979457,378.9958553391396" fill="none" stroke="#000000" stroke-width="0.554"/>
	<path d="M 473.4404624006231,374.1809381870198 L 477.05165026471286,378.99585533914006" fill="none" stroke="#000000" stroke-width="0.554"/>
	<path d="M 445.754688775933,344.0877059862696 L 456.4976506740163,348.61342266295554 L 473.44046240062335,354.92126957853964" fill="none" stroke="#000000" stroke-width="0.554"/>
	<path d="M 442.1435009118429,335.66160097005957 L 436.12485447169297,350.1063524264196" fill="none" stroke="#000000" stroke-width="0.554"/>
	<path d="M 433.717395895633,345.2914352742996 L 438.53231304775295,344.0877059862696" fill="none" stroke="#000000" stroke-width="0.554"/>
	<path d="M 437.32858375972296,341.6802474102096 L 442.1435009118429,341.6802474102096" fill="none" stroke="#000000" stroke-width="0.554"/>
	<path d="M 434.921125183663,341.6802474102096 L 443.3472301998729,342.88397669823956" fill="none" stroke="#000000" stroke-width="0.554"/>
	<path d="M 452.97706450411295,317.60566164960954 L 449.365876640023,322.42057880172956" fill="none" stroke="#000000" stroke-width="0.554"/>
	<path d="M 452.97706450411295,313.9944737855195 L 457.791981656233,318.80939093763953" fill="none" stroke="#000000" stroke-width="0.554"/>
	<path d="M 457.791981656233,312.7907444974895 L 457.791981656233,318.80939093763953" fill="none" stroke="#000000" stroke-width="0.554"/>
	<path d="M 462.606898808353,312.7907444974895 L 466.58915427510556,330.62505727608357 L 472.90689305553406,349.4747498646277 L 484.6512914123779,364.4459659227504 L 500.9202405425674,375.25605884326484 L 502.3299653133432,356.1249988665694" fill="none" stroke="#000000" stroke-width="0.554"/>
	<path d="M 531.2194682260632,301.9571809052195 L 537.2381146662132,305.5683687693095" fill="none" stroke="#000000" stroke-width="0.554"/>
	<path d="M 540.8493025303031,300.7534516171895 L 534.3950148732918,316.97443028815496 L 520.3859046337933,328.4392252418796" fill="none" stroke="#000000" stroke-width="0.554"/>
	<path d="M 534.8306560901532,298.3459930411295 L 544.4604903943934,303.1609101932496" fill="none" stroke="#000000" stroke-width="0.554"/>
	<path d="M 530.0157389380331,274.2714072805294 L 527.0028301132307,288.64847799871137 L 520.3859046337931,301.9571809052195" fill="none" stroke="#000000" stroke-width="0.554"/>
	<path d="M 505.9411531774331,283.9012415847694 L 510.75607032955315,285.10497087279947" fill="none" stroke="#000000" stroke-width="0.554"/>
	<path d="M 515.5709874816731,279.08632443264946 L 514.367258193643,281.49378300870944" fill="none" stroke="#000000" stroke-width="0.554"/>
	<path d="M 523.9970924978832,271.8639487044694 L 527.6082803619731,274.2714072805294" fill="none" stroke="#000000" stroke-width="0.554"/>
	<path d="M 527.6082803619731,269.4564901284094 L 536.0343853781833,273.06767799249934" fill="none" stroke="#000000" stroke-width="0.554"/>
	<path d="M 531.2194682260632,269.4564901284094 L 531.2194682260632,273.0676779924994" fill="none" stroke="#000000" stroke-width="0.554"/>
	<path d="M 505.9411531774331,258.6229265361394 L 502.3299653133431,264.6415729762894" fill="none" stroke="#000000" stroke-width="0.554"/>
	<path d="M 501.1262360253131,267.04903155234945 L 499.80807425951,289.3714050856371 L 499.7088421821478,311.7638454460616 L 499.9685368409382,335.7033315487242 L 504.56514344159655,353.70888022096034 L 516.9075423049734,334.84644059048736 L 521.3515564998485,312.92932090372335 L 515.4324225679244,290.59364769730934 L 519.1821753457638,280.29005372067945" fill="none" stroke="#000000" stroke-width="0.554"/>
	<path d="M 501.1262360253131,256.2154679600793 L 509.55234104152316,261.0303851121994" fill="none" stroke="#000000" stroke-width="0.554"/>
	<path d="M 497.51504816122304,257.4191972481094 L 499.92250673728313,264.6415729762894" fill="none" stroke="#000000" stroke-width="0.554"/>
	<path d="M 492.7001310091031,261.0303851121994 L 499.92250673728313,265.8453022643194" fill="none" stroke="#000000" stroke-width="0.554"/>
	<path d="M 484.27402599289303,275.47513656855944 L 480.66283812880295,281.49378300870944" fill="none" stroke="#000000" stroke-width="0.554"/>
	<path d="M 472.236733112593,282.69751229673943 L 474.644191688653,281.49378300870944" fill="none" stroke="#000000" stroke-width="0.554"/>
	<path d="M 472.2367331125929,279.08632443264946 L 467.42181596047294,280.29005372067945" fill="none" stroke="#000000" stroke-width="0.554"/>
	<path d="M 471.0330038245629,275.47513656855944 L 478.25537955274297,283.9012415847694" fill="none" stroke="#000000" stroke-width="0.554"/>
	<path d="M 475.847920976683,274.2714072805294 L 478.25537955274297,279.08632443264946" fill="none" stroke="#000000" stroke-width="0.554"/>
	<path d="M 479.45910884077307,273.0676779924994 L 482.27055881205433,292.8681998903593 L 498.7187774492529,306.7720980573395" fill="none" stroke="#000000" stroke-width="0.554"/>
	<path d="M 515.5709874816731,235.75205802627642 L 516.7747167697031,235.75205802627642" fill="none" stroke="#000000" stroke-width="0.554"/>
	<path d="M 473.440462400623,204.45509653749633 L 489.8942264472379,190.47711028307347 L 511.10638319356076,180.60169291279223 L 532.4231975140927,176.76932291280636" fill="none" stroke="#000000" stroke-width="0.554"/>
	<path d="M 536.0343853781832,151.49100786417623 L 543.6174661499037,173.2183989730505 L 550.9640850968088,196.844831061936 L 555.294794778444,220.20078343521178 L 556.1976612253379,243.82838623302618 L 554.9083476193068,267.3368393166818 L 552.8865954106033,291.1236173129496" fill="none" stroke="#000000" stroke-width="0.554"/>
	<path d="M 446.958418063963,226.1222237220364 L 431.81722413213424,241.23298836717285 L 415.59457405010266,255.70246958311304 L 397.9285347117584,266.77033061856173 L 376.9491257629156,272.58411873361877 L 355.4964447641363,276.9642659507389 L 336.538011325346,284.7228097680982 L 319.2407863214292,298.045373274045 L 303.71463278839246,312.7907444974897" fill="none" stroke="#000000" stroke-width="0.554"/>
	<path d="M 290.4736106200626,305.5683687693095 L 301.3071742123326,305.5683687693095" fill="none" stroke="#000000" stroke-width="0.554"/>
	<path d="M 291.6773399080926,291.1236173129495 L 312.1407378046026,291.1236173129495" fill="none" stroke="#000000" stroke-width="0.554"/>
	<path d="M 306.1220913644527,282.69751229673943 L 324.1780306849027,282.69751229673943" fill="none" stroke="#000000" stroke-width="0.554"/>
	<path d="M 314.5481963806626,275.47513656855944 L 335.01159427717266,275.47513656855944" fill="none" stroke="#000000" stroke-width="0.554"/>
	<path d="M 318.1593842447527,259.8266558241694 L 326.58548926096273,259.8266558241694" fill="none" stroke="#000000" stroke-width="0.554"/>
	<path d="M 310.93700851657263,252.6042800959893 L 320.56684282081267,252.6042800959893" fill="none" stroke="#000000" stroke-width="0.554"/>
	<path d="M 300.1034449243026,268.25276084037944 L 331.4004064130827,268.25276084037944" fill="none" stroke="#000000" stroke-width="0.554"/>
	<path d="M 349.45634573353277,250.1968215199293 L 349.45634573353277,251.4005508079593" fill="none" stroke="#000000" stroke-width="0.554"/>
	<path d="M 356.6787214617127,252.6042800959893 L 379.54957793428287,252.6042800959893" fill="none" stroke="#000000" stroke-width="0.554"/>
	<path d="M 389.1794122385228,252.6042800959893 L 393.99432939064286,252.6042800959893" fill="none" stroke="#000000" stroke-width="0.554"/>
	<path d="M 378.34584864625276,236.95578731430643 L 389.1794122385228,236.95578731430643" fill="none" stroke="#000000" stroke-width="0.554"/>
	<path d="M 408.43908084700286,230.9371408741564 L 409.64281013503285,230.9371408741564" fill="none" stroke="#000000" stroke-width="0.554"/>
	<path d="M 369.91974363004283,244.1781750797793 L 385.5682243744328,244.1781750797793" fill="none" stroke="#000000" stroke-width="0.554"/>
	<path d="M 372.3272022061028,259.8266558241694 L 400.0129758307928,259.8266558241694" fill="none" stroke="#000000" stroke-width="0.554"/>
	<path d="M 421.68010301533286,285.10497087279947 L 426.49502016745294,289.9198880249195" fill="none" stroke="#000000" stroke-width="0.554"/>
	<path d="M 427.6987494554829,282.69751229673943 L 432.5136666076029,285.10497087279947" fill="none" stroke="#000000" stroke-width="0.554"/>
	<path d="M 371.1234729180728,321.2168495136995 L 386.7719536624628,321.2168495136995" fill="none" stroke="#000000" stroke-width="0.554"/>
	<path d="M 385.5682243744328,356.1249988665697 L 388.1289552927175,371.5030927371321 L 386.77195366246303,360.93991601868953" fill="none" stroke="#000000" stroke-width="0.554"/>
	<path d="M 355.47499217368295,375.3846674750498 L 360.4210391585825,397.2025160909143 L 368.0397792672545,403.1942834332082 L 386.7719536624628,391.0331482194397" fill="none" stroke="#000000" stroke-width="0.554"/>
	<path d="M 361.49367472571134,409.08908753988965 L 357.8824868616214,410.2928168279197" fill="none" stroke="#000000" stroke-width="0.554"/>
	<path d="M 359.08621614965136,407.88535825185966 L 351.5288854393043,421.89996274391456 L 355.15574555737214,437.8465820390971 L 369.9197797419214,442.79350760472977" fill="none" stroke="#000000" stroke-width="0.554"/>
	<path d="M 341.0302768292013,450.01588333290977 L 361.49367472571134,450.01588333290977" fill="none" stroke="#000000" stroke-width="0.554"/>
	<path d="M 331.40044252496136,472.8867398054798 L 337.4190889651113,472.8867398054798" fill="none" stroke="#000000" stroke-width="0.554"/>
	<path d="M 319.36314964466135,465.6643640772998 L 353.0675697095014,464.4606347892698" fill="none" stroke="#000000" stroke-width="0.554"/>
	<path d="M 314.5482324925414,512.6098063104699 L 368.7160504538915,512.6098063104699" fill="none" stroke="#000000" stroke-width="0.554"/>
	<path d="M 332.60417181299135,523.44336990274 L 386.7719897743415,523.44336990274" fill="none" stroke="#000000" stroke-width="0.554"/>
	<path d="M 324.17806679678137,543.90676779925 L 360.28994543768147,543.90676779925" fill="none" stroke="#000000" stroke-width="0.554"/>
	<path d="M 289.26991744391125,476.49792766956983 L 283.2512710037612,478.90538624562987" fill="none" stroke="#000000" stroke-width="0.554"/>
	<path d="M 280.84381242770127,483.72030339774983 L 263.9916023952811,487.33149126183986" fill="none" stroke="#000000" stroke-width="0.554"/>
	<path d="M 259.1766852431612,494.55386699001986 L 271.2139781234613,494.55386699001986" fill="none" stroke="#000000" stroke-width="0.554"/>
	<path d="M 262.78787310725124,510.2023477344099 L 266.3990609713412,513.8135355984999" fill="none" stroke="#000000" stroke-width="0.554"/>
	<path d="M 263.99160239528123,516.2209941745599 L 260.38041453119126,519.83218203865" fill="none" stroke="#000000" stroke-width="0.554"/>
	<path d="M 257.9729559551312,521.03591132668 L 262.78787310725124,524.64709919077" fill="none" stroke="#000000" stroke-width="0.554"/>
	<path d="M 261.58414381922125,515.0172648865299 L 257.9729559551312,518.62845275062" fill="none" stroke="#000000" stroke-width="0.554"/>
	<path d="M 254.3617680910412,511.4060770224399 L 256.7692266671012,516.2209941745599" fill="none" stroke="#000000" stroke-width="0.554"/>
	<path d="M 257.9729559551312,508.9986184463799 L 251.9543095149812,524.64709919077" fill="none" stroke="#000000" stroke-width="0.554"/>
	<path d="M 249.5468509389212,513.8135355984999 L 255.56549737907122,518.62845275062" fill="none" stroke="#000000" stroke-width="0.554"/>
	<path d="M 231.49091161847116,539.09185064713 L 231.49091161847116,540.2955799351599" fill="none" stroke="#000000" stroke-width="0.554"/>
	<path d="M 217.04616016211114,540.2955799351599 L 225.47226517832115,540.2955799351599" fill="none" stroke="#000000" stroke-width="0.554"/>
	<path d="M 202.60140870575108,528.2582870548599 L 195.37903297757106,531.8694749189499" fill="none" stroke="#000000" stroke-width="0.554"/>
	<path d="M 194.17530368954107,536.68439207107 L 178.52682776006816,540.2955799351599" fill="none" stroke="#000000" stroke-width="0.554"/>
	<path d="M 185.74920348824818,528.2582870548599 L 194.17530368954107,534.27693349501" fill="none" stroke="#000000" stroke-width="0.554"/>
	<path d="M 195.37903297757106,524.64709919077 L 198.99022084166106,525.8508284787999" fill="none" stroke="#000000" stroke-width="0.554"/>
	<path d="M 189.36039135233818,524.64709919077 L 196.6986907307143,536.8934324983413 L 209.82378443393108,540.2955799351599" fill="none" stroke="#000000" stroke-width="0.554"/>
	<path d="M 206.2125965698411,517.4247234625899 L 244.7319337868012,517.4247234625899" fill="none" stroke="#000000" stroke-width="0.554"/>
	<path d="M 226.6759944663511,494.55386699001986 L 237.50955805862117,494.55386699001986" fill="none" stroke="#000000" stroke-width="0.554"/>
	<path d="M 223.06480660226114,480.10911553365986 L 244.7319337868012,480.10911553365986" fill="none" stroke="#000000" stroke-width="0.554"/>
	<path d="M 237.50955805862117,469.27555194138984 L 219.57036125650836,472.85378967168896 L 182.13801562415813,472.8867398054798" fill="none" stroke="#000000" stroke-width="0.554"/>
	<path d="M 177.32309847203817,478.9053862456298 L 180.9342863361282,480.10911553365986" fill="none" stroke="#000000" stroke-width="0.554"/>
	<path d="M 184.54547420021817,483.72030339774983 L 165.28580559173815,494.55386699001986" fill="none" stroke="#000000" stroke-width="0.554"/>
	<path d="M 177.32309847203817,490.9426791259299 L 186.95293277627815,494.55386699001986" fill="none" stroke="#000000" stroke-width="0.554"/>
	<path d="M 192.9715792164282,487.33149126183986 L 235.10209948256116,487.33149126183986" fill="none" stroke="#000000" stroke-width="0.554"/>
	<path d="M 243.52820449877117,463.25690550123977 L 239.91701663468118,466.8680933653298" fill="none" stroke="#000000" stroke-width="0.554"/>
	<path d="M 241.12074592271114,462.0531762132098 L 237.50955805862114,465.6643640772998" fill="none" stroke="#000000" stroke-width="0.554"/>
	<path d="M 237.50955805862114,457.23825906108976 L 236.30582877059112,465.6643640772998" fill="none" stroke="#000000" stroke-width="0.554"/>
	<path d="M 232.6946409065011,457.23825906108976 L 239.93523577538622,469.5289627950056 L 253.15803880301118,472.8867398054798" fill="none" stroke="#000000" stroke-width="0.554"/>
	<path d="M 241.12074592271114,457.23825906108976 L 245.93566307483115,460.8494469251798" fill="none" stroke="#000000" stroke-width="0.554"/>
	<path d="M 251.95430951498113,450.01588333290977 L 314.5482324925413,450.01588333290977" fill="none" stroke="#000000" stroke-width="0.554"/>
	<path d="M 288.0661881558812,422.3301097082197 L 328.9929839489013,422.3301097082197" fill="none" stroke="#000000" stroke-width="0.554"/>
	<path d="M 288.06620019317415,398.2555239476196 L 281.0432245610373,419.5592418279046 L 293.9907218672711,438.70056316476393 L 314.5629277868752,442.7916700637749 L 338.7633827343941,443.031075914084 L 338.61110441339895,424.9265421249543 L 337.4191010024042,403.07044109973947" fill="none" stroke="#000000" stroke-width="0.554"/>
	<path d="M 347.0488871574728,351.3100817144496 L 349.45634573353277,351.3100817144496" fill="none" stroke="#000000" stroke-width="0.554"/>
	<path d="M 328.9929478370227,348.9026231383896 L 349.7518879832703,355.77884989693433 L 367.51228505398274,369.36602103489963" fill="none" stroke="#000000" stroke-width="0.554"/>
	<path d="M 336.21532356520277,328.43922524187957 L 374.7346607821628,328.43922524187957" fill="none" stroke="#000000" stroke-width="0.554"/>
	<path d="M 332.6041357011127,321.2168495136995 L 348.2526164455028,321.2168495136995" fill="none" stroke="#000000" stroke-width="0.554"/>
	<path d="M 313.34446709263267,328.43922524187957 L 324.1780306849027,328.43922524187957" fill="none" stroke="#000000" stroke-width="0.554"/>
	<path d="M 290.4736106200626,321.2168495136995 L 320.56684282081267,321.2168495136995" fill="none" stroke="#000000" stroke-width="0.554"/>
	<path d="M 288.0661520440026,328.43922524187957 L 306.1220913644527,328.43922524187957" fill="none" stroke="#000000" stroke-width="0.554"/>
	<path d="M 283.2512348918826,336.86533025808956 L 321.77057210884266,336.86533025808956" fill="none" stroke="#000000" stroke-width="0.554"/>
	<path d="M 291.6773399080926,354.92126957853964 L 290.3268798564296,376.11819315445047 L 289.0988391745591,396.9273464343228 L 308.9524859004948,407.90075747665037 L 330.8808554745905,402.87790282943314 L 337.06301455156756,384.40944846028935 L 316.55076080320566,390.00807544339546 L 297.6959863482423,389.82941893140963" fill="none" stroke="#000000" stroke-width="0.554"/>
	<path d="M 284.4550123290841,392.2368775074696 L 271.86944646541826,412.4987895277295 L 277.08868965330294,434.8442415441214 L 266.71156371543566,437.3324860102805 L 268.8065315846939,415.1077339800396" fill="none" stroke="#000000" stroke-width="0.554"/>
	<path d="M 274.8251780248441,394.64433608352965 L 265.1953437206042,401.86671181170965" fill="none" stroke="#000000" stroke-width="0.554"/>
	<path d="M 254.36178012833406,387.4219603553496 L 253.15805084030404,392.2368775074696" fill="none" stroke="#000000" stroke-width="0.554"/>
	<path d="M 256.7691905552226,364.5511038827797 L 259.1766491312826,382.60704320322975" fill="none" stroke="#000000" stroke-width="0.554"/>
	<path d="M 253.1580026911326,363.3473745947497 L 253.59426663456023,385.3041468741467 L 260.67531364172,392.4715014466748 L 254.89211183224572,412.0582954665587 L 257.3952099954662,434.7553561423114 L 242.3244390988626,442.79350760472994" fill="none" stroke="#000000" stroke-width="0.554"/>
	<path d="M 219.45361873817106,442.79350760472977 L 227.87972375438108,442.79350760472977" fill="none" stroke="#000000" stroke-width="0.554"/>
	<path d="M 227.8797237543811,460.8494469251798 L 235.10209948256113,466.8680933653298" fill="none" stroke="#000000" stroke-width="0.554"/>
	<path d="M 201.39767941772106,465.6643640772998 L 219.45361873817112,465.6643640772998" fill="none" stroke="#000000" stroke-width="0.554"/>
	<path d="M 198.990220841661,448.8121540448798 L 198.990220841661,450.01588333290977" fill="none" stroke="#000000" stroke-width="0.554"/>
	<path d="M 189.36039135233813,431.95994401245974 L 175.80866558950498,435.63286964707106 L 154.45224199946796,435.5711318765493" fill="none" stroke="#000000" stroke-width="0.554"/>
	<path d="M 144.82240769522804,434.3674025885197 L 146.02613698325803,434.3674025885197" fill="none" stroke="#000000" stroke-width="0.554"/>
	<path d="M 150.84105413537804,448.8121540448798 L 152.4609123424147,462.24190503529303 L 132.78511481492808,465.6643640772993" fill="none" stroke="#000000" stroke-width="0.554"/>
	<path d="M 142.41494911916806,472.8867398054798 L 156.8597005755281,472.8867398054798" fill="none" stroke="#000000" stroke-width="0.554"/>
	<path d="M 155.6559712874981,460.8494469251798 L 165.28580559173807,465.6643640773002" fill="none" stroke="#000000" stroke-width="0.554"/>
	<path d="M 172.50818131991815,464.4606347892698 L 183.34174491218818,464.4606347892698" fill="none" stroke="#000000" stroke-width="0.554"/>
	<path d="M 172.50818131991818,478.9053862456298 L 168.89699345582818,483.72030339774983" fill="none" stroke="#000000" stroke-width="0.554"/>
	<path d="M 178.5268277600682,486.12776197380987 L 176.11936918400818,488.53522054986985" fill="none" stroke="#000000" stroke-width="0.554"/>
	<path d="M 148.43359555931812,506.59115987031987 L 178.52682776006816,506.59115987031987" fill="none" stroke="#000000" stroke-width="0.554"/>
	<path d="M 141.21121983113807,494.55386699001986 L 147.2298662712881,494.55386699001986" fill="none" stroke="#000000" stroke-width="0.554"/>
	<path d="M 127.97019766280808,487.33149126183986 L 160.47088843961814,487.33149126183986" fill="none" stroke="#000000" stroke-width="0.554"/>
	<path d="M 161.67461772764807,456.0345297730598 L 158.06342986355804,459.6457176371498" fill="none" stroke="#000000" stroke-width="0.554"/>
	<path d="M 159.26715915158806,450.01588333290977 L 159.26715915158806,454.8308004850298" fill="none" stroke="#000000" stroke-width="0.554"/>
	<path d="M 155.65597128749806,448.8121540448798 L 164.08207630370808,453.6270711969998" fill="none" stroke="#000000" stroke-width="0.554"/>
	<path d="M 170.10072274385809,450.01588333290977 L 191.76784992839814,450.01588333290977" fill="none" stroke="#000000" stroke-width="0.554"/>
	<path d="M 197.78649155363098,423.5338389962497 L 191.76784992839814,428.3487561483698" fill="none" stroke="#000000" stroke-width="0.554"/>
	<path d="M 194.175303689541,419.9226511321597 L 185.74920348824816,421.1263804201897" fill="none" stroke="#000000" stroke-width="0.554"/>
	<path d="M 189.36039135233813,418.7189218441297 L 197.786491553631,435.5711318765497" fill="none" stroke="#000000" stroke-width="0.554"/>
	<path d="M 180.9342863361281,423.5338389962497 L 186.95293277627812,428.3487561483697" fill="none" stroke="#000000" stroke-width="0.554"/>
	<path d="M 183.341756949481,400.66298252367966 L 179.730569085391,406.68162896382967" fill="none" stroke="#000000" stroke-width="0.554"/>
	<path d="M 176.11938122130104,397.05179465958963 L 186.95294481357107,401.86671181170965" fill="none" stroke="#000000" stroke-width="0.554"/>
	<path d="M 198.9902328789539,399.45925323564967 L 201.3976914550139,401.86671181170965" fill="none" stroke="#000000" stroke-width="0.554"/>
	<path d="M 203.8051500310739,399.45925323564967 L 213.43498433531383,399.45925323564944" fill="none" stroke="#000000" stroke-width="0.554"/>
	<path d="M 207.41633789516396,395.84806537155964 L 207.41633789516396,399.45925323564967" fill="none" stroke="#000000" stroke-width="0.554"/>
	<path d="M 207.4163378951639,405.4778996757997 L 207.915271056883,422.883037620141 L 205.52816176560844,440.821026584787 L 188.15666206430808,442.79350760472994" fill="none" stroke="#000000" stroke-width="0.554"/>
	<path d="M 213.43497229802105,415.10773398003965 L 218.5099040043252,430.54972700236107 L 208.62005514590106,442.7935076047299" fill="none" stroke="#000000" stroke-width="0.554"/>
	<path d="M 223.06480660226106,422.3301097082197 L 248.34312165089113,422.3301097082197" fill="none" stroke="#000000" stroke-width="0.554"/>
	<path d="M 218.24988945014107,412.7002754039797 L 221.86107731423107,415.10773398003965" fill="none" stroke="#000000" stroke-width="0.554"/>
	<path d="M 223.06481863955398,394.64433608352965 L 219.45363077546395,398.2555239476196" fill="none" stroke="#000000" stroke-width="0.554"/>
	<path d="M 202.60142074304395,395.84806537155964 L 211.02752575925396,395.8480653715593" fill="none" stroke="#000000" stroke-width="0.554"/>
	<path d="M 206.21260860713394,382.6070432032296 L 206.21260860713394,387.4219603553496" fill="none" stroke="#000000" stroke-width="0.554"/>
	<path d="M 203.8051018819025,362.1436453067197 L 205.00883116993248,362.1436453067197" fill="none" stroke="#000000" stroke-width="0.554"/>
	<path d="M 176.11933307212962,371.7734796109597 L 198.0141977048308,375.8991976202365 L 218.32241378470948,385.5824273430822 L 233.76816802181895,394.66450068895625 L 244.7318976749226,412.7002754039799" fill="none" stroke="#000000" stroke-width="0.554"/>
	<path d="M 267.6027902593712,457.23825906108976 L 280.8438124277012,457.23825906108976" fill="none" stroke="#000000" stroke-width="0.554"/>
	<path d="M 282.0475417157312,471.6830105174498 L 285.6587295798213,472.8867398054798" fill="none" stroke="#000000" stroke-width="0.554"/>
	<path d="M 277.23262456361124,472.8867398054798 L 288.06618815588126,487.33149126183986" fill="none" stroke="#000000" stroke-width="0.554"/>
	<path d="M 273.62143669952127,476.49792766956983 L 279.6400831396713,481.31284482168985" fill="none" stroke="#000000" stroke-width="0.554"/>
	<path d="M 209.8237844339311,574.0 L 282.0475417157313,574.0" fill="none" stroke="#000000" stroke-width="0.554"/>
	<path d="M 200.19395012969107,574.0 L 201.39767941772106,574.0" fill="none" stroke="#000000" stroke-width="0.554"/>
	<path d="M 147.22986627128802,453.6270711969998 L 153.24851271143802,458.4419883491198" fill="none" stroke="#000000" stroke-width="0.554"/>
	<path d="M 115.93290478250796,450.01588333290977 L 138.80376125507803,450.01588333290977" fill="none" stroke="#000000" stroke-width="0.554"/>
	<path d="M 133.988844102958,413.90400469200966 L 142.414949119168,412.7002754039797" fill="none" stroke="#000000" stroke-width="0.554"/>
	<path d="M 148.43360759661095,398.2555239476196 L 139.88696564348243,386.89434925712834 L 149.63733688464092,377.7921260511096" fill="none" stroke="#000000" stroke-width="0.554"/>
	<path d="M 162.878359052971,386.2182310673196 L 161.11934987817511,409.7545125985688 L 174.91565193327105,422.3301097082197" fill="none" stroke="#000000" stroke-width="0.554"/>
	<path d="M 121.95156325995089,413.90400469200966 L 126.04849350830125,399.8126410707063 L 137.60004400434093,393.4406067954996" fill="none" stroke="#000000" stroke-width="0.554"/>
	<path d="M 107.50679976629796,422.3301097082197 L 161.67461772764807,422.3301097082197" fill="none" stroke="#000000" stroke-width="0.554"/>
	<path d="M 93.06204830993791,422.3301097082197 L 108.2695911162267,417.55694208423307 L 120.74782193462798,406.68162896382967" fill="none" stroke="#000000" stroke-width="0.554"/>
	<path d="M 129.17389083895938,341.6802474102096 L 149.63728873546944,358.5324574426296" fill="none" stroke="#000000" stroke-width="0.554"/>
	<path d="M 156.85966446364944,324.82803737778954 L 153.45279549825128,343.1007793659397 L 153.08107057999766,363.8226590698813 L 160.6937841481739,382.2093916461388 L 169.7580323820468,373.49309008574545 L 178.5267916481894,356.12499886656957" fill="none" stroke="#000000" stroke-width="0.554"/>
	<path d="M 195.3789968656924,309.1795566333995 L 181.27632952396885,323.2259617881768 L 173.7929351293438,342.0087494986162 L 180.4482691338447,353.7434760877718 L 196.3029947361587,339.27550509988805 L 210.7348422122918,325.1557456933435 L 218.24985333826243,309.1795566333995" fill="none" stroke="#000000" stroke-width="0.554"/>
	<path d="M 223.06477049038244,309.1795566333995 L 229.08341693053245,321.2168495136995" fill="none" stroke="#000000" stroke-width="0.554"/>
	<path d="M 220.65731191432243,317.60566164960954 L 229.08341693053245,316.4019323615795" fill="none" stroke="#000000" stroke-width="0.554"/>
	<path d="M 226.67595835447247,311.58701520945954 L 220.65731191432243,317.60566164960954" fill="none" stroke="#000000" stroke-width="0.554"/>
	<path d="M 237.5095219467425,313.9944737855195 L 272.41767129961255,313.9944737855195" fill="none" stroke="#000000" stroke-width="0.554"/>
	<path d="M 279.64004702779255,313.9944737855195 L 295.28852777218265,313.9944737855195" fill="none" stroke="#000000" stroke-width="0.554"/>
	<path d="M 280.8437763158226,298.3459930411295 L 303.71463278839263,298.3459930411295" fill="none" stroke="#000000" stroke-width="0.554"/>
	<path d="M 278.43631773976256,282.69751229673943 L 301.3071742123326,282.69751229673943" fill="none" stroke="#000000" stroke-width="0.554"/>
	<path d="M 276.02885916370246,275.47513656855944 L 306.12209136445256,275.47513656855944" fill="none" stroke="#000000" stroke-width="0.554"/>
	<path d="M 276.0288591637026,268.25276084037944 L 289.2698813320326,268.25276084037944" fill="none" stroke="#000000" stroke-width="0.554"/>
	<path d="M 274.8251298756726,259.8266558241694 L 286.8624227559726,259.8266558241694" fill="none" stroke="#000000" stroke-width="0.554"/>
	<path d="M 276.0288591637026,252.6042800959893 L 301.3071742123326,252.6042800959893" fill="none" stroke="#000000" stroke-width="0.554"/>
	<path d="M 294.0847984841526,245.38190436780928 L 315.7519256686927,245.38190436780928" fill="none" stroke="#000000" stroke-width="0.554"/>
	<path d="M 294.0847984841526,230.9371408741564 L 290.4736106200626,235.75205802627642" fill="none" stroke="#000000" stroke-width="0.554"/>
	<path d="M 291.6773399080926,234.54832873824643 L 312.916954573807,236.20953531798102 L 329.07459988344385,250.42228351218438 L 341.03024071732295,269.4564901284095" fill="none" stroke="#000000" stroke-width="0.554"/>
	<path d="M 356.6787214617127,259.8266558241694 L 366.30855576595275,259.8266558241694" fill="none" stroke="#000000" stroke-width="0.554"/>
	<path d="M 360.2899093258028,267.04903155234945 L 375.9383900701928,267.04903155234945" fill="none" stroke="#000000" stroke-width="0.554"/>
	<path d="M 355.4749921736827,244.1781750797793 L 362.6973679018628,244.1781750797793" fill="none" stroke="#000000" stroke-width="0.554"/>
	<path d="M 353.06753359762274,236.95578731430643 L 362.6973679018628,236.95578731430643" fill="none" stroke="#000000" stroke-width="0.554"/>
	<path d="M 351.86380430959275,229.73341158612646 L 383.16076579837284,229.73341158612646" fill="none" stroke="#000000" stroke-width="0.554"/>
	<path d="M 366.30855576595275,221.3073065699164 L 379.54957793428287,221.3073065699164" fill="none" stroke="#000000" stroke-width="0.554"/>
	<path d="M 361.4936386138328,214.08493084173637 L 377.14211935822277,214.08493084173637" fill="none" stroke="#000000" stroke-width="0.554"/>
	<path d="M 365.10482647792276,206.86255511355634 L 373.5309314941328,206.86255511355634" fill="none" stroke="#000000" stroke-width="0.554"/>
	<path d="M 362.6973679018628,198.43645009734632 L 367.51228505398274,198.43645009734632" fill="none" stroke="#000000" stroke-width="0.554"/>
	<path d="M 343.4376992933827,206.86255511355634 L 349.45634573353277,206.86255511355634" fill="none" stroke="#000000" stroke-width="0.554"/>
	<path d="M 345.8451578694427,214.08493084173637 L 356.6787214617127,214.08493084173637" fill="none" stroke="#000000" stroke-width="0.554"/>
	<path d="M 348.2526164455028,221.3073065699164 L 355.4749921736827,221.3073065699164" fill="none" stroke="#000000" stroke-width="0.554"/>
	<path d="M 341.0302407173227,198.43645009734632 L 356.6787214617127,198.43645009734632" fill="none" stroke="#000000" stroke-width="0.554"/>
	<path d="M 338.62278214126275,191.21407436916633 L 343.4376992933827,191.21407436916633" fill="none" stroke="#000000" stroke-width="0.554"/>
	<path d="M 335.01159427717266,183.9916986409863 L 344.6414285814127,183.9916986409863" fill="none" stroke="#000000" stroke-width="0.554"/>
	<path d="M 332.6041357011127,175.56559362477628 L 344.6414285814127,175.56559362477628" fill="none" stroke="#000000" stroke-width="0.554"/>
	<path d="M 338.62278214126275,168.3432178965963 L 344.6414285814127,168.3432178965963" fill="none" stroke="#000000" stroke-width="0.554"/>
	<path d="M 343.4376992933827,161.12084216841626 L 344.6414285814127,161.12084216841626" fill="none" stroke="#000000" stroke-width="0.554"/>
	<path d="M 338.62278214126275,152.69473715220624 L 343.4376992933827,152.69473715220624" fill="none" stroke="#000000" stroke-width="0.554"/>
	<path d="M 327.7892185489927,161.12084216841626 L 338.62278214126275,161.12084216841626" fill="none" stroke="#000000" stroke-width="0.554"/>
	<path d="M 330.1966771250527,168.3432178965963 L 333.8078649891427,168.3432178965963" fill="none" stroke="#000000" stroke-width="0.554"/>
	<path d="M 325.3817599729327,152.69473715220624 L 328.9929478370227,152.69473715220624" fill="none" stroke="#000000" stroke-width="0.554"/>
	<path d="M 322.97430139687265,145.47236142402625 L 342.2339700053527,145.47236142402625" fill="none" stroke="#000000" stroke-width="0.554"/>
	<path d="M 349.45634573353277,129.82388429082408 L 349.45634573353277,171.84206559429578 L 352.7638103510318,190.91590107861782 L 373.8381192207288,193.0332183580206 L 383.8791359461462,211.2885153451659 L 393.4644504114309,229.8957407359603 L 402.42043440685256,248.99309223189937" fill="none" stroke="#000000" stroke-width="0.554"/>
	<path d="M 290.4736106200626,228.52968229809647 L 289.2698813320326,233.3445994502165" fill="none" stroke="#000000" stroke-width="0.554"/>
	<path d="M 276.0288591637026,245.38190436780928 L 284.4549641799126,245.38190436780928" fill="none" stroke="#000000" stroke-width="0.554"/>
	<path d="M 271.21394201158256,236.95578731430643 L 272.57941405893513,260.2178842938118 L 262.59708086847604,275.83053812614037 L 242.5943634366403,281.60162793186646 L 233.8983340826525,303.1609101932495" fill="none" stroke="#000000" stroke-width="0.554"/>
	<path d="M 241.1207098108325,305.5683687693095 L 261.5841077073425,305.5683687693095" fill="none" stroke="#000000" stroke-width="0.554"/>
	<path d="M 268.8064834355225,305.5683687693095 L 280.8437763158226,305.5683687693095" fill="none" stroke="#000000" stroke-width="0.554"/>
	<path d="M 270.01021272355257,321.2168495136995 L 282.0475056038526,321.2168495136995" fill="none" stroke="#000000" stroke-width="0.554"/>
	<path d="M 241.1207098108325,321.2168495136995 L 262.7878369953726,321.2168495136995" fill="none" stroke="#000000" stroke-width="0.554"/>
	<path d="M 244.7318976749225,298.3459930411295 L 267.60275414749253,298.3459930411295" fill="none" stroke="#000000" stroke-width="0.554"/>
	<path d="M 247.1393562509825,291.1236173129495 L 259.17664913128255,291.1236173129495" fill="none" stroke="#000000" stroke-width="0.554"/>
	<path d="M 249.5468148270425,282.69751229673943 L 272.41767129961255,282.69751229673943" fill="none" stroke="#000000" stroke-width="0.554"/>
	<path d="M 203.80510188190237,305.5683687693095 L 203.80510188190237,311.58701520945954" fill="none" stroke="#000000" stroke-width="0.554"/>
	<path d="M 196.58272615372238,299.54972232915947 L 195.3789968656924,305.5683687693095" fill="none" stroke="#000000" stroke-width="0.554"/>
	<path d="M 191.76781381651952,299.54972232915947 L 200.19391401781238,301.9571809052195" fill="none" stroke="#000000" stroke-width="0.554"/>
	<path d="M 186.9528966643995,287.51242944885945 L 188.15662595242952,287.51242944885945" fill="none" stroke="#000000" stroke-width="0.554"/>
	<path d="M 186.9528966643995,285.10497087279947 L 184.5454380883395,287.51242944885945" fill="none" stroke="#000000" stroke-width="0.554"/>
	<path d="M 185.74916737636943,279.08632443264946 L 189.36035524045946,279.08632443264946" fill="none" stroke="#000000" stroke-width="0.554"/>
	<path d="M 194.1752675776623,281.49378300870944 L 195.3789968656924,287.51242944885945" fill="none" stroke="#000000" stroke-width="0.554"/>
	<path d="M 161.6745816157694,274.2714072805294 L 159.465223679625,294.0056388251947 L 157.55304687094193,317.61159489335364 L 165.23506724967473,315.04719613755447 L 178.93933715264268,297.81043224317403 L 180.9342502242494,279.0863244326495" fill="none" stroke="#000000" stroke-width="0.554"/>
	<path d="M 161.67458161576945,263.43784368825936 L 166.48949876788947,263.43784368825936" fill="none" stroke="#000000" stroke-width="0.554"/>
	<path d="M 158.06339375167943,264.6415729762894 L 168.8969573439495,268.25276084037944" fill="none" stroke="#000000" stroke-width="0.554"/>
	<path d="M 153.2484765995594,267.04903155234945 L 162.8783109037994,269.4564901284093" fill="none" stroke="#000000" stroke-width="0.554"/>
	<path d="M 156.85966446364944,246.5856336558393 L 161.67458161576945,246.5856336558393" fill="none" stroke="#000000" stroke-width="0.554"/>
	<path d="M 159.26712303970945,230.93714087415648 L 173.71187449606953,246.5856336558393" fill="none" stroke="#000000" stroke-width="0.554"/>
	<path d="M 186.95289666439953,224.9184944340064 L 186.95289666439953,226.1222237220364" fill="none" stroke="#000000" stroke-width="0.554"/>
	<path d="M 201.3976433058424,232.14087016218642 L 220.65731191432243,232.14087016218642" fill="none" stroke="#000000" stroke-width="0.554"/>
	<path d="M 209.8237483220524,236.95578731430643 L 213.43493618614244,236.95578731430643" fill="none" stroke="#000000" stroke-width="0.554"/>
	<path d="M 209.8237483220524,223.7147651459764 L 227.3129014706107,229.51440857166162 L 235.1020633706825,246.58563365583936" fill="none" stroke="#000000" stroke-width="0.554"/>
	<path d="M 211.02747761008243,216.49238941779637 L 215.84239476220245,218.89984799385638" fill="none" stroke="#000000" stroke-width="0.554"/>
	<path d="M 205.00883116993242,218.89984799385638 L 194.17526757766234,226.1222237220366" fill="none" stroke="#000000" stroke-width="0.554"/>
	<path d="M 168.89695734394945,209.27001368961635 L 173.71187449606947,209.27001368961635" fill="none" stroke="#000000" stroke-width="0.554"/>
	<path d="M 142.4149130072894,217.69611870582636 L 153.6508727679166,223.0750507391609 L 158.06339375167948,235.75205802627636" fill="none" stroke="#000000" stroke-width="0.554"/>
	<path d="M 137.5999958551694,234.54832873824643 L 143.61864229531943,234.54832873824643" fill="none" stroke="#000000" stroke-width="0.554"/>
	<path d="M 126.76643226289937,246.5856336558393 L 133.9888079910794,246.5856336558393" fill="none" stroke="#000000" stroke-width="0.554"/>
	<path d="M 117.13659795865937,217.69611870582636 L 120.74778582274936,217.69611870582636" fill="none" stroke="#000000" stroke-width="0.554"/>
	<path d="M 123.15524439880936,203.25136724946634 L 120.74778582274935,206.86255511355634" fill="none" stroke="#000000" stroke-width="0.554"/>
	<path d="M 111.11795151850934,186.3991572170463 L 117.82124914671468,164.59923115451085 L 127.23729631449223,143.71229190670772 L 138.71217836966176,123.99686432668125 L 151.88229692221915,105.6557989336711 L 166.97269835906377,88.70620069272154 L 183.78549772363596,73.28112879955518 L 202.102551954202,59.52353131029919 L 221.70571798902816,47.57635628108066 L 242.3768527663806,37.58255176802676 L 263.89781322452575,29.6850658272646 L 286.05045630172975,24.02684651492133 L 308.61663893625894,20.750841887124103 L 331.37821806637965,20.0 L 354.22703458735816,21.76678737262189 L 376.72884238425615,25.5637324673483 L 398.6875523985176,31.414147928727907 L 420.0285971812036,39.40305540359212 L 440.5021940213271,49.631408343122935 L 460.1994402322932,61.21131487311393" fill="none" stroke="#000000" stroke-width="0.554"/>
	<path d="M 469.82927453653303,85.28590063371396 L 480.66283812880306,92.50827636189398" fill="none" stroke="#000000" stroke-width="0.554"/>
	<path d="M 491.4964017210731,85.28590063371396 L 496.31131887319304,85.28590063371396" fill="none" stroke="#000000" stroke-width="0.554"/>
	<path d="M 493.90386029713306,74.45233704144394 L 501.9731563330879,61.56945991148051 L 520.0600406155796,66.7361011271516 L 528.8120096500035,82.87844205765397" fill="none" stroke="#000000" stroke-width="0.554"/>
	<path d="M 519.1821753457631,120.19404998658403 L 527.6082803619731,120.19404998658403" fill="none" stroke="#000000" stroke-width="0.554"/>
	<path d="M 515.5709874816731,135.8425307309741 L 527.0580270962591,137.8139684538466 L 538.4418439542436,134.63880144294407" fill="none" stroke="#000000" stroke-width="0.554"/>
	<path d="M 480.66283812880306,120.19404998658403 L 508.34861175349306,120.19404998658403" fill="none" stroke="#000000" stroke-width="0.554"/>
	<path d="M 480.66283812880306,105.74929853022401 L 539.6455732422731,105.74929853022401" fill="none" stroke="#000000" stroke-width="0.554"/>
	<path d="M 473.440462400623,120.19404998658403 L 474.644191688653,120.19404998658403" fill="none" stroke="#000000" stroke-width="0.554"/>
	<path d="M 463.81062809638297,105.74929853022401 L 471.033003824563,105.74929853022401" fill="none" stroke="#000000" stroke-width="0.554"/>
	<path d="M 446.958418063963,106.95302781825401 L 452.96213369286954,90.008539698997 L 468.4058414844063,82.87471089281122 L 474.30292635226533,66.4086018190084 L 491.49640172107274,67.22996131326394" fill="none" stroke="#000000" stroke-width="0.554"/>
	<path d="M 425.29129087942295,74.45233704144393 L 433.717395895633,74.45233704144393" fill="none" stroke="#000000" stroke-width="0.554"/>
	<path d="M 427.6987494554829,117.78659141052404 L 433.8159888476307,105.74112957187694 L 445.7546887759331,100.93438137810399" fill="none" stroke="#000000" stroke-width="0.554"/>
	<path d="M 440.93977162381293,120.19404998658403 L 448.162147351993,120.19404998658403" fill="none" stroke="#000000" stroke-width="0.554"/>
	<path d="M 332.6041357011127,93.71200564992398 L 343.4376992933828,91.30454707386392" fill="none" stroke="#000000" stroke-width="0.554"/>
	<path d="M 320.56684282081267,91.30454707386397 L 332.6041357011128,96.11946422598402" fill="none" stroke="#000000" stroke-width="0.554"/>
	<path d="M 314.54819638066266,127.41642571476406 L 319.31087105094264,146.94411859108163 L 325.6003150264863,166.76033576010423 L 331.36070626045023,186.38614524401382 L 336.8256286789639,206.1072011770402 L 342.3409696259929,225.8102165535249 L 348.2526164455029,245.38190436780923" fill="none" stroke="#000000" stroke-width="0.554"/>
	<path d="M 268.8064834355225,180.3805107768963 L 270.01021272355257,180.3805107768963" fill="none" stroke="#000000" stroke-width="0.554"/>
	<path d="M 239.91698052280248,128.62015500279406 L 248.34308553901252,128.62015500279406" fill="none" stroke="#000000" stroke-width="0.554"/>
	<path d="M 245.9356269629525,121.39777927461404 L 259.17664913128255,121.39777927461404" fill="none" stroke="#000000" stroke-width="0.554"/>
	<path d="M 251.95427340310252,105.74929853022401 L 259.17664913128255,105.74929853022401" fill="none" stroke="#000000" stroke-width="0.554"/>
	<path d="M 254.36173197916253,91.30454707386397 L 259.17664913128255,91.30454707386397" fill="none" stroke="#000000" stroke-width="0.554"/>
	<path d="M 267.60275414749253,75.65606632947393 L 267.6034587444478,119.1712527795727 L 261.9990889929157,137.20655486683458 L 238.61187927423717,136.82094006121508 L 225.55835133726282,150.41145031331044 L 218.2498533382623,171.95440576068634" fill="none" stroke="#000000" stroke-width="0.554"/>
	<path d="M 212.23120689811242,159.91711288038627 L 217.0461240502324,159.91711288038627" fill="none" stroke="#000000" stroke-width="0.554"/>
	<path d="M 213.43493618614244,144.26863213599623 L 221.86104120235245,144.26863213599623" fill="none" stroke="#000000" stroke-width="0.554"/>
	<path d="M 209.8237483220524,137.04626001900408 L 225.47222906644245,137.04626001900408" fill="none" stroke="#000000" stroke-width="0.554"/>
	<path d="M 221.86104120235245,128.62015500279406 L 232.69460479462248,128.62015500279406" fill="none" stroke="#000000" stroke-width="0.554"/>
	<path d="M 242.32443909886248,114.17540354643403 L 259.17664913128255,114.17540354643403" fill="none" stroke="#000000" stroke-width="0.554"/>
	<path d="M 239.91698052280248,98.52692280204398 L 259.17664913128255,98.52692280204398" fill="none" stroke="#000000" stroke-width="0.554"/>
	<path d="M 226.67595835447247,105.74929853022401 L 241.1207098108325,105.74929853022401" fill="none" stroke="#000000" stroke-width="0.554"/>
	<path d="M 208.62001903402242,114.17540354643403 L 221.86104120235245,114.17540354643403" fill="none" stroke="#000000" stroke-width="0.554"/>
	<path d="M 202.6013725938724,121.39777927461404 L 238.71325123477249,121.39777927461404" fill="none" stroke="#000000" stroke-width="0.554"/>
	<path d="M 198.9901847297824,128.62015500279406 L 205.00883116993242,128.62015500279406" fill="none" stroke="#000000" stroke-width="0.554"/>
	<path d="M 191.76781381651952,137.04626001900408 L 200.1939140178124,137.04626001900408" fill="none" stroke="#000000" stroke-width="0.554"/>
	<path d="M 201.3976433058424,151.49100786417623 L 219.45358262629244,151.49100786417623" fill="none" stroke="#000000" stroke-width="0.554"/>
	<path d="M 202.6013725938724,167.13948860856627 L 214.63866547417243,167.13948860856627" fill="none" stroke="#000000" stroke-width="0.554"/>
	<path d="M 186.9528966643995,151.49100786417623 L 194.1752675776624,151.49100786417623" fill="none" stroke="#000000" stroke-width="0.554"/>
	<path d="M 185.7491673763695,144.26863213599623 L 207.4162897459924,144.26863213599623" fill="none" stroke="#000000" stroke-width="0.554"/>
	<path d="M 178.5267916481895,159.91711288038627 L 192.97154310454954,159.91711288038627" fill="none" stroke="#000000" stroke-width="0.554"/>
	<path d="M 173.71187449606947,167.13948860856627 L 195.3789968656924,167.13948860856627" fill="none" stroke="#000000" stroke-width="0.554"/>
	<path d="M 164.08204019182946,167.13948860856627 L 177.00925509701054,147.86483345176572 L 188.83362032486815,127.87996859191868 L 201.60373218027817,108.74289539666927 L 222.6834787159509,99.233203020265 L 242.40067658722953,87.46599302323993 L 263.0220707067433,75.62778646176369 L 283.03269873750935,81.9939811309755 L 302.4785647850006,99.75934545932833 L 310.84937723835117,119.53573626540737 L 328.9866972193118,128.28904543491572 L 351.59544614167135,131.094022230826 L 367.995467302939,146.86285213901408 L 382.3580914163184,166.2462598628245 L 396.5116523127929,184.64186409116587 L 416.3613498546563,194.5952507817527 L 433.8769937336291,209.67096368867524 L 448.62714112331184,224.4822022573315 L 466.42315947777104,208.90778395543535 L 468.4211167789339,220.42058686290812 L 461.38290420030603,243.4726649546288 L 454.88396682325947,265.7943884509198 L 448.1227054519094,288.1384828394438 L 426.5410711369864,291.0611549480634 L 406.99170128757294,299.7649722087946 L 394.60459705488006,320.2000979829844 L 383.16076579837295,340.47651812217936" fill="none" stroke="#000000" stroke-width="0.554"/>
	<path d="M 256.7691905552225,358.5324574426296 L 265.3352329540186,352.54278390469216 L 287.50716385269976,348.1345787256627 L 309.87420346234137,344.98953829373056 L 331.7583880970234,338.9075248986398 L 354.00367283367007,335.6624771090251 L 374.54357294961915,343.8712174274107 L 395.5566621086572,351.59697123371643 L 415.5486964040592,358.84100762540385 L 417.35762008394397,380.43633703249134 L 407.51374061942647,399.9113775143646 L 397.13999033118205,405.1737953613264 L 383.8347937411812,386.49377056361834 L 377.14211935822277,365.75483317080943" fill="none" stroke="#000000" stroke-width="0.554"/>
	<path d="M 321.77057210884266,138.24998930703407 L 332.6041357011127,138.24998930703407" fill="none" stroke="#000000" stroke-width="0.554"/>
	<path d="M 302.51090350036264,68.43369060129392 L 307.32582065248266,68.43369060129392" fill="none" stroke="#000000" stroke-width="0.554"/>
	<path d="M 289.2698813320326,57.60012700902389 L 320.56684282081267,57.60012700902389" fill="none" stroke="#000000" stroke-width="0.554"/>
	<path d="M 326.58548926096273,56.39639772099389 L 326.58548926096273,57.60012700902389" fill="none" stroke="#000000" stroke-width="0.554"/>
	<path d="M 304.9183620764227,46.76656341675387 L 332.6041357011127,46.76656341675387" fill="none" stroke="#000000" stroke-width="0.554"/>
	<path d="M 271.21394201158256,46.76656341675387 L 286.8624227559726,46.76656341675387" fill="none" stroke="#000000" stroke-width="0.554"/>
	<path d="M 159.26712303970947,133.43507215491405 L 159.26712303970947,134.63880144294407" fill="none" stroke="#000000" stroke-width="0.554"/>
	<path d="M 148.43355944743942,170.7506764726563 L 164.57595305081588,180.39077512495402 L 187.14505058845498,180.3805107768963 L 209.18508805170887,180.3805107768963 L 230.9637555365421,181.77716022442328 L 244.40147769955001,198.6080930618404 L 256.1947605994064,217.8447577507123 L 269.8846260317185,234.73069785776434 L 285.6586934679426,230.9371408741564" fill="none" stroke="#000000" stroke-width="0.554"/>
	<path d="M 153.24847659955944,174.36186433674627 L 149.63728873546944,177.9730522008363" fill="none" stroke="#000000" stroke-width="0.554"/>
	<path d="M 147.2298301594094,179.17678148886628 L 124.35897368683942,180.38051077689636" fill="none" stroke="#000000" stroke-width="0.554"/>
	<path d="M 143.61864229531943,174.36186433674627 L 147.22983015940943,177.9730522008363" fill="none" stroke="#000000" stroke-width="0.554"/>
	<path d="M 91.85828291002929,215.28866012976636 L 102.49138183720582,199.83631924921107 L 122.110457267535,201.91869616454048 L 139.77235650381346,207.67442046997786 L 130.37762012698937,222.5110478952393" fill="none" stroke="#000000" stroke-width="0.554"/>
	<path d="M 88.24709504593928,246.5856336558393 L 114.72913938259933,246.5856336558393" fill="none" stroke="#000000" stroke-width="0.554"/>
	<path d="M 103.89557579032932,270.6602194164394 L 121.95151511077935,271.8639487044694" fill="none" stroke="#000000" stroke-width="0.554"/>
	<path d="M 133.9888079910794,297.1422637530995 L 146.0261008713794,303.1609101932495" fill="none" stroke="#000000" stroke-width="0.554"/>
	<path d="M 142.41491300728939,299.54972232915947 L 135.1925372791094,307.9758273453695" fill="none" stroke="#000000" stroke-width="0.554"/>
	<path d="M 138.80372514319942,297.1422637530995 L 136.39626656713938,303.1609101932495" fill="none" stroke="#000000" stroke-width="0.554"/>
	<path d="M 100.2843879262393,293.53107588900946 L 103.32042085598297,310.992426551822 L 116.18826721613092,327.52012793480895 L 129.6175314374022,340.5089475041087 L 134.08595498833077,318.9456636550422 L 129.17389083895932,300.7534516171894" fill="none" stroke="#000000" stroke-width="0.554"/>
	<path d="M 94.2657414860893,303.1609101932495 L 90.65455362199928,304.3646394812795" fill="none" stroke="#000000" stroke-width="0.554"/>
	<path d="M 93.06201219805929,301.9571809052195 L 94.2657414860893,303.1609101932495" fill="none" stroke="#000000" stroke-width="0.554"/>
	<path d="M 88.24709504593928,298.3459930411295 L 85.83963646987927,303.1609101932495" fill="none" stroke="#000000" stroke-width="0.554"/>
	<path d="M 90.65455362199928,294.73480517703945 L 95.46947077411929,300.7534516171895" fill="none" stroke="#000000" stroke-width="0.554"/>
	<path d="M 94.2657414860893,292.32734660097947 L 95.46947077411932,300.7534516171894" fill="none" stroke="#000000" stroke-width="0.554"/>
	<path d="M 73.8023387746621,234.54832873824643 L 130.37762012698937,234.54832873824643" fill="none" stroke="#000000" stroke-width="0.554"/>
</svg>
