<?xml version="1.0" ?>
<svg xmlns="http://www.w3.org/2000/svg" xmlns:ev="http://www.w3.org/2001/xml-events" xmlns:xlink="http://www.w3.org/1999/xlink" baseProfile="full" height="493px" version="1.1" viewBox="9.695 46.3635981288997 610.61 501.2728037422006" width="600px">
	<defs/>
	<path d="M 497.4164682398225,88.47723550914566 L 493.83571702646,71.73101162640465 L 474.24226299158187,72.2920404306063 L 457.70565354260236,78.77153331298254 L 457.9183916848284,74.39432731035654 L 475.101087257221,70.08601993087441 L 495.9339911074198,69.86885764284591 L 499.08318866146715,87.77314141550985 L 517.4118235958074,88.26791771498524 L 497.4164682398225,88.47723550914566" fill="none" stroke="#000000" stroke-width="0.61"/>
	<path d="M 539.5034518675669,97.08389318573475 L 528.9771127180486,85.45541008479421 L 540.1608179535941,91.755795431201 L 539.5034518675669,97.08389318573475" fill="none" stroke="#000000" stroke-width="0.61"/>
	<path d="M 525.7685053042501,146.6463456283991 L 532.6932008076108,130.70219580378796 L 543.3323387781161,117.45127842224016 L 535.3079963238032,129.25151236169864 L 530.5719934607976,144.3748333709662 L 525.7685053042501,146.6463456283991" fill="none" stroke="#000000" stroke-width="0.61"/>
	<path d="M 489.8980318677068,163.6617993402652 L 501.4898950630799,160.06564044687215 L 506.84245110885695,163.23166312400355 L 489.8980318677068,163.6617993402652" fill="none" stroke="#000000" stroke-width="0.61"/>
	<path d="M 506.51774749060615,223.01801424921982 L 516.4882844249126,209.1737237618337 L 533.1031677702537,200.25466025933179 L 533.0261470026244,202.60075622540236 L 518.7502668442605,208.80388591252066 L 506.51774749060615,223.01801424921982" fill="none" stroke="#000000" stroke-width="0.61"/>
	<path d="M 511.06840954985023,238.0549453214672 L 511.0684095498501,238.0549453214672" fill="none" stroke="#000000" stroke-width="0.61"/>
	<path d="M 506.319925781551,241.6163193646177 L 506.31992578155035,241.6163193646177" fill="none" stroke="#000000" stroke-width="0.61"/>
	<path d="M 503.52758419319866,246.86942123166972 L 502.7922267120422,231.5233340801292 L 503.52758419319866,246.86942123166972" fill="none" stroke="#000000" stroke-width="0.61"/>
	<path d="M 528.4004448490842,273.21820502644584 L 521.9990848928558,267.3132375249086 L 528.4004448490842,273.21820502644584" fill="none" stroke="#000000" stroke-width="0.61"/>
	<path d="M 554.6952527953702,283.5665955835801 L 562.9418474195529,277.5855980347662 L 554.6952527953708,283.5665955835801" fill="none" stroke="#000000" stroke-width="0.61"/>
	<path d="M 574.5795874639851,281.9785570247334 L 588.0461486472492,283.2304942434217 L 574.5795874639851,281.9785570247334" fill="none" stroke="#000000" stroke-width="0.61"/>
	<path d="M 601.9307606445632,286.1905038093122 L 612.2156200887354,280.9097970562276 L 620.0,282.2966600754822 L 601.9307606445632,286.1905038093122" fill="none" stroke="#000000" stroke-width="0.61"/>
	<path d="M 571.5418643998281,206.633896250486 L 570.302783517081,204.6944997774467 L 571.5418643998288,206.63389625048595" fill="none" stroke="#000000" stroke-width="0.61"/>
	<path d="M 558.5533818359555,201.73278466582389 L 558.5533818359557,201.73278466582389" fill="none" stroke="#000000" stroke-width="0.61"/>
	<path d="M 544.6772366066381,204.00505392329214 L 549.9597508917673,200.11615130204933 L 544.6772366066381,204.00505392329214" fill="none" stroke="#000000" stroke-width="0.61"/>
	<path d="M 573.3924328711321,190.99761071618315 L 573.6586870014528,182.38782853470414 L 573.3924328711321,190.99761071618315" fill="none" stroke="#000000" stroke-width="0.61"/>
	<path d="M 572.7855074326224,175.11568881264654 L 583.1682816554982,156.4879414056652 L 581.7885889407513,159.86022308747482 L 572.7855074326224,175.11568881264654" fill="none" stroke="#000000" stroke-width="0.61"/>
	<path d="M 590.0323389610477,148.40273858270626 L 604.2554375275146,144.25659964222433 L 590.0323389610477,148.40273858270626" fill="none" stroke="#000000" stroke-width="0.61"/>
	<path d="M 433.56891714519634,219.0173225644176 L 424.19438255723566,212.88298660343466 L 441.247066672331,221.01180168145916 L 433.56891714519634,219.0173225644176" fill="none" stroke="#000000" stroke-width="0.61"/>
	<path d="M 421.44050360851315,229.1515102135909 L 417.91384014413944,231.0348943140156 L 419.6256846362452,220.22656062403678 L 422.32685156460605,219.42748808800752 L 421.44050360851315,229.1515102135909" fill="none" stroke="#000000" stroke-width="0.61"/>
	<path d="M 407.1950074359109,227.37084113909742 L 407.1950074359108,227.37084113909742" fill="none" stroke="#000000" stroke-width="0.61"/>
	<path d="M 406.55263651086176,223.73046852866787 L 406.55263651086176,223.73046852866787" fill="none" stroke="#000000" stroke-width="0.61"/>
	<path d="M 407.8834126257575,212.51226951173263 L 404.4761924065993,209.69720477499067 L 407.8834126257574,212.51226951173263" fill="none" stroke="#000000" stroke-width="0.61"/>
	<path d="M 391.44087956785216,231.40210119096233 L 391.9091825508405,215.55943497269075 L 391.44087956785216,231.40210119096233" fill="none" stroke="#000000" stroke-width="0.61"/>
	<path d="M 383.05681057319134,227.76652942491216 L 383.8464078916168,214.41162336775935 L 383.05681057319134,227.76652942491216" fill="none" stroke="#000000" stroke-width="0.61"/>
	<path d="M 378.245960695664,240.94779954139713 L 378.245960695664,240.94779954139713" fill="none" stroke="#000000" stroke-width="0.61"/>
	<path d="M 364.45851891810486,248.73906745091872 L 364.45851891810474,248.73906745091872" fill="none" stroke="#000000" stroke-width="0.61"/>
	<path d="M 350.0568831339102,242.11095439912359 L 349.0176867415065,219.6386486869398 L 350.9753438270374,222.60534624100754 L 350.0568831339102,242.11095439912359" fill="none" stroke="#000000" stroke-width="0.61"/>
	<path d="M 362.67780946267743,213.12532657073655 L 362.6778094626773,213.12532657073652" fill="none" stroke="#000000" stroke-width="0.61"/>
	<path d="M 355.5062453139014,210.67209464417172 L 355.5062453139014,210.67209464417172" fill="none" stroke="#000000" stroke-width="0.61"/>
	<path d="M 337.7481911606237,206.00257848443553 L 337.74819116062395,206.00257848443553" fill="none" stroke="#000000" stroke-width="0.61"/>
	<path d="M 325.9150519871276,204.75383085290247 L 325.9150519871276,204.75383085290247" fill="none" stroke="#000000" stroke-width="0.61"/>
	<path d="M 313.41215464176724,206.08733806496988 L 313.41215464176724,206.08733806496988" fill="none" stroke="#000000" stroke-width="0.61"/>
	<path d="M 296.7947676527303,206.89292199522313 L 296.79476765273074,206.89292199522316" fill="none" stroke="#000000" stroke-width="0.61"/>
	<path d="M 285.81150805073594,210.0723592553052 L 293.6624439951209,207.17185411268522 L 285.81150805073594,210.0723592553052" fill="none" stroke="#000000" stroke-width="0.61"/>
	<path d="M 292.8353273354276,225.3923054878444 L 293.4726648375323,212.08354710236523 L 292.8353273354276,225.3923054878444" fill="none" stroke="#000000" stroke-width="0.61"/>
	<path d="M 301.2123296666326,224.99657233432518 L 303.7853980058783,214.94658557113434 L 301.2123296666326,224.99657233432518" fill="none" stroke="#000000" stroke-width="0.61"/>
	<path d="M 301.24412740879797,243.1722505941381 L 301.24412740879797,243.1722505941381" fill="none" stroke="#000000" stroke-width="0.61"/>
	<path d="M 312.22503145630714,241.6163193646177 L 313.7814195113272,238.76075559303112 L 312.22503145630714,241.61631936461777" fill="none" stroke="#000000" stroke-width="0.61"/>
	<path d="M 295.6052844260147,256.7747701276804 L 295.60528442601446,256.7747701276804" fill="none" stroke="#000000" stroke-width="0.61"/>
	<path d="M 297.97953528370516,260.54022941143154 L 297.97953528370516,260.54022941143154" fill="none" stroke="#000000" stroke-width="0.61"/>
	<path d="M 299.46344038722276,269.2216097630627 L 299.46344038722265,269.2216097630626" fill="none" stroke="#000000" stroke-width="0.61"/>
	<path d="M 298.00334208770255,277.8523075557125 L 298.00334208770255,277.8523075557125" fill="none" stroke="#000000" stroke-width="0.61"/>
	<path d="M 299.1666584691651,290.9192502744104 L 299.1666584691649,290.9192502744103" fill="none" stroke="#000000" stroke-width="0.61"/>
	<path d="M 294.0224505208877,295.4326452183128 L 294.0224505208877,295.4326452183128" fill="none" stroke="#000000" stroke-width="0.61"/>
	<path d="M 285.46591455697387,303.2678206634392 L 285.46591455697387,303.2678206634392" fill="none" stroke="#000000" stroke-width="0.61"/>
	<path d="M 273.841333934215,319.1751313613655 L 273.841333934215,319.1751313613655" fill="none" stroke="#000000" stroke-width="0.61"/>
	<path d="M 261.8690061678791,315.51100578818387 L 262.17904424751885,289.51258898361647 L 274.12375623621006,294.61034756989204 L 284.25838189963156,304.8915673424642 L 282.59031646444055,305.56131743152963 L 266.9960384651307,289.7001644050869 L 263.5693130914496,314.74556865639505 L 263.4295669299328,337.67169234940167 L 262.3934770226915,341.20248217187213 L 261.8690061678791,315.51100578818387" fill="none" stroke="#000000" stroke-width="0.61"/>
	<path d="M 249.0848376698999,314.40710770776496 L 249.0848376698999,314.40710770776496" fill="none" stroke="#000000" stroke-width="0.61"/>
	<path d="M 246.9331754941379,311.6566725553975 L 246.93317549413806,311.65667255539745" fill="none" stroke="#000000" stroke-width="0.61"/>
	<path d="M 245.3835122829335,306.149929068146 L 250.43677163291125,302.405677007383 L 245.3835122829335,306.149929068146" fill="none" stroke="#000000" stroke-width="0.61"/>
	<path d="M 245.74604782190738,317.5922974562385 L 245.74604782190707,317.59229745623844" fill="none" stroke="#000000" stroke-width="0.61"/>
	<path d="M 248.71386251571315,321.153671499389 L 248.71386251571283,321.1536714993891" fill="none" stroke="#000000" stroke-width="0.61"/>
	<path d="M 243.96536080033218,324.7150365689986 L 243.96536080033218,324.7150365689986" fill="none" stroke="#000000" stroke-width="0.61"/>
	<path d="M 239.42858080885443,329.31870084754564 L 241.36271341934463,310.4836284356528 L 241.19926253305943,290.384476711615 L 241.44820950833216,262.94552191615355 L 241.46649427723423,237.7072505544562 L 236.91739255907342,225.58857482703448 L 241.69399347724405,218.66860903772022 L 249.2083778262907,201.96685079377184 L 247.26844958543137,210.26114438954346 L 248.0997424824006,217.6790869537296 L 243.960897604779,224.64204813235435 L 249.00305941870772,237.07952713577674 L 249.18419309785165,248.663045179714 L 244.30338542602993,263.77374871829534 L 243.4608615299023,293.1842929521181 L 243.61569427690486,313.03836713490074 L 239.42858080885443,329.31870084754564" fill="none" stroke="#000000" stroke-width="0.61"/>
	<path d="M 243.3718014509874,331.92483697553297 L 247.63078010388648,328.5299380384292 L 243.3718014509874,331.92483697553297" fill="none" stroke="#000000" stroke-width="0.61"/>
	<path d="M 249.307421865058,337.7734140429111 L 249.30742186505825,337.7734140429111" fill="none" stroke="#000000" stroke-width="0.61"/>
	<path d="M 252.2752365588637,329.46353379760916 L 252.27523655886299,329.4635337976092" fill="none" stroke="#000000" stroke-width="0.61"/>
	<path d="M 244.1632184035509,348.25968305591437 L 244.163218403551,348.2596830559145" fill="none" stroke="#000000" stroke-width="0.61"/>
	<path d="M 275.4604164577919,367.53904403116474 L 265.7459240623824,353.51495876415623 L 271.3839355794946,355.09401039375484 L 278.970199924442,369.0866500886219 L 291.07308856367933,370.4290250897588 L 275.4604164577919,367.53904403116474" fill="none" stroke="#000000" stroke-width="0.61"/>
	<path d="M 295.26131514315466,371.01290810349616 L 295.26131514315466,371.01290810349616" fill="none" stroke="#000000" stroke-width="0.61"/>
	<path d="M 285.3835868060222,387.9111938432045 L 283.0130856475952,381.17859639667313 L 285.3835868060222,387.9111938432045" fill="none" stroke="#000000" stroke-width="0.61"/>
	<path d="M 272.15957122747864,387.86358920875057 L 272.15957122747864,387.86358920875057" fill="none" stroke="#000000" stroke-width="0.61"/>
	<path d="M 261.01273743525917,384.3680585219254 L 250.92407628323366,370.9283266379509 L 244.90413215249916,358.2010416110933 L 255.39458622724183,356.7171742176144 L 258.63830963865536,371.0208151805493 L 262.6615583019891,366.6964739689609 L 255.79649762324286,357.8827417681938 L 267.3709154547694,374.01129901835316 L 261.01273743525917,384.3680585219254" fill="none" stroke="#000000" stroke-width="0.61"/>
	<path d="M 297.97953528370516,420.27858087148815 L 289.75459790848885,412.80711040909114 L 297.97953528370516,420.27858087148815" fill="none" stroke="#000000" stroke-width="0.61"/>
	<path d="M 302.7777907965847,437.9657934061613 L 302.7777907965847,437.9657934061613" fill="none" stroke="#000000" stroke-width="0.61"/>
	<path d="M 339.94258085136266,449.2596452056524 L 341.88987385090667,440.9826241485468 L 339.94258085136266,449.2596452056524" fill="none" stroke="#000000" stroke-width="0.61"/>
	<path d="M 342.92498203589514,414.87816487031483 L 351.6942093872051,407.9107353819061 L 342.92498203589514,414.87816487031483" fill="none" stroke="#000000" stroke-width="0.61"/>
	<path d="M 342.5787379604181,407.68104407706676 L 334.41547571699067,403.7598177119419 L 342.5787379604181,407.68104407706676" fill="none" stroke="#000000" stroke-width="0.61"/>
	<path d="M 345.0317450997834,398.9891512222757 L 345.0317450997836,398.98915122227567" fill="none" stroke="#000000" stroke-width="0.61"/>
	<path d="M 337.74303137460856,398.30836905542066 L 337.74303137460856,398.30836905542066" fill="none" stroke="#000000" stroke-width="0.61"/>
	<path d="M 334.8741006147076,393.1914765656309 L 332.3782056007556,388.4870696004036 L 326.2364553364107,374.9342664685998 L 322.44081149858806,347.44222792810376 L 320.6195551763913,325.5755385994057 L 309.89208886567906,314.6454422065812 L 310.8468291392473,325.4348645508198 L 308.7575122847647,346.3322179058721 L 307.9713499694291,367.85361455649786 L 298.3759563731819,380.90337311393597 L 303.66649208011995,361.1276778846537 L 304.42264934168,336.86809506739996 L 303.5396053772531,317.0281044455811 L 297.5521537501302,303.40555839371865 L 282.2214335313615,288.58771690345435 L 265.549298101999,276.1635240273031 L 283.5438607036111,287.26553386549404 L 286.1442725574443,271.78746324809583 L 289.0971128041019,276.713315032778 L 292.5867273692179,296.35383441659735 L 304.2259045167488,302.3761662799653 L 308.98306643935115,276.6671477861379 L 311.8962705323152,260.5101172689628 L 316.8706926027085,286.57821735796625 L 321.6114092013187,307.41644669638595 L 323.2007455726732,330.32712778271645 L 324.627672410886,311.113228183192 L 322.58144687241827,290.0052350789389 L 319.35241268901234,271.8517070294227 L 323.21126167136447,260.220293055703 L 328.7131329190525,247.5537556553547 L 352.3644008470023,245.62029301846547 L 371.2354941304013,253.1049694603536 L 357.0186282608341,252.7580214560503 L 337.6191791615519,248.67799835510428 L 322.86605280498435,253.42746403311423 L 325.1205144393855,264.0925020916393 L 326.0603604773547,304.2933473162187 L 327.36699760284296,327.14048759851374 L 336.2607056658115,333.2089233119354 L 351.845640994498,335.497055123752 L 331.50325267652937,336.4649004369907 L 323.28536377021237,340.2003938649201 L 325.58004437526324,361.2043368111786 L 329.96207747827714,380.1816109989273 L 334.8741006147076,393.1914765656309" fill="none" stroke="#000000" stroke-width="0.61"/>
	<path d="M 337.15463629804947,363.8529018753945 L 337.1546362980492,363.8529018753946" fill="none" stroke="#000000" stroke-width="0.61"/>
	<path d="M 330.03188821174837,356.69741382513394 L 330.03188821174865,356.69741382513405" fill="none" stroke="#000000" stroke-width="0.61"/>
	<path d="M 327.0640690311723,348.4575361723626 L 327.06406903117244,348.4575361723626" fill="none" stroke="#000000" stroke-width="0.61"/>
	<path d="M 334.7804168477521,348.9810390879314 L 334.780416847752,348.9810390879315" fill="none" stroke="#000000" stroke-width="0.61"/>
	<path d="M 346.74537733701237,348.95232375706377 L 346.74537733701237,348.95232375706377" fill="none" stroke="#000000" stroke-width="0.61"/>
	<path d="M 357.3357708318038,349.05125704544355 L 357.3357708318037,349.0512570454435" fill="none" stroke="#000000" stroke-width="0.61"/>
	<path d="M 367.57471559739855,349.8849214285461 L 367.57471559739855,349.8849214285461" fill="none" stroke="#000000" stroke-width="0.61"/>
	<path d="M 378.7221865110214,350.60515128118055 L 378.7221865110213,350.60515128118055" fill="none" stroke="#000000" stroke-width="0.61"/>
	<path d="M 389.9816920827329,336.5862908574511 L 389.9816920827329,336.5862908574511" fill="none" stroke="#000000" stroke-width="0.61"/>
	<path d="M 399.4787044870357,337.7734140429111 L 399.4787044870352,337.7734140429111" fill="none" stroke="#000000" stroke-width="0.61"/>
	<path d="M 412.51524036240704,336.684564590575 L 413.0887452458179,315.7380285517315 L 395.84879616742137,319.2536714674214 L 388.0244056353721,306.3646503920786 L 392.3577823751044,313.3259090488568 L 409.99593837499225,312.337391276329 L 426.31857740620023,319.49746514004585 L 438.7136766052486,335.372220570204 L 452.2193585096294,332.3527658811656 L 439.41017470590185,336.8643055112096 L 428.27509134892836,335.7785752155136 L 421.0278112121934,323.71216604253556 L 415.11325489534875,330.5720309007084 L 412.51524036240704,336.684564590575" fill="none" stroke="#000000" stroke-width="0.61"/>
	<path d="M 413.13064579706344,346.0832898014426 L 413.1306457970633,346.08328980144256" fill="none" stroke="#000000" stroke-width="0.61"/>
	<path d="M 404.35420872671955,360.8252560976638 L 404.35420872671955,360.8252560976638" fill="none" stroke="#000000" stroke-width="0.61"/>
	<path d="M 396.21408544132004,359.6513060702393 L 396.21408544132026,359.65130607023934" fill="none" stroke="#000000" stroke-width="0.61"/>
	<path d="M 392.35595640073456,367.4515340603457 L 392.35595640073456,367.45153406034564" fill="none" stroke="#000000" stroke-width="0.61"/>
	<path d="M 391.53981285623183,370.2019647259428 L 391.53981285623183,370.2019647259428" fill="none" stroke="#000000" stroke-width="0.61"/>
	<path d="M 395.91733044388513,379.32277937525726 L 403.52860995874926,374.271751726808 L 395.91733044388513,379.32277937525726" fill="none" stroke="#000000" stroke-width="0.61"/>
	<path d="M 388.9058093969916,382.46610306867984 L 386.96167085329023,359.6928580764582 L 384.6593869903856,340.4592931129926 L 378.66563460524156,332.4313529781853 L 390.1955727336277,321.88226876559384 L 386.776063518964,338.0033919759391 L 390.484511234911,346.54984536494845 L 390.2693958623659,371.2242667380914 L 388.9058093969916,382.46610306867984" fill="none" stroke="#000000" stroke-width="0.61"/>
	<path d="M 388.6402823218752,394.1597081680117 L 391.5704488212795,391.3805096034255 L 388.6402823218752,394.1597081680117" fill="none" stroke="#000000" stroke-width="0.61"/>
	<path d="M 395.3904041224646,400.01713314671343 L 395.3904041224645,400.0171331467132" fill="none" stroke="#000000" stroke-width="0.61"/>
	<path d="M 392.6527113981696,404.6533130506976 L 392.6527113981696,404.6533130506974" fill="none" stroke="#000000" stroke-width="0.61"/>
	<path d="M 389.7575330311476,411.02651472625644 L 390.5743267912411,404.1760555342646 L 389.7575330311476,411.02651472625644" fill="none" stroke="#000000" stroke-width="0.61"/>
	<path d="M 388.76245708117597,424.13473124630605 L 378.3025740092591,420.6743180995559 L 389.95097561874155,414.4992451305778 L 388.76245708117597,424.13473124630605" fill="none" stroke="#000000" stroke-width="0.61"/>
	<path d="M 371.9098332043176,424.1654207561707 L 357.91645038155093,416.52921186557876 L 365.6833907486379,416.6045091178363 L 371.9098332043176,424.1654207561707" fill="none" stroke="#000000" stroke-width="0.61"/>
	<path d="M 399.6321520363594,440.7546442871051 L 405.5927355357513,440.74279363130125 L 399.6321520363594,440.7546442871051" fill="none" stroke="#000000" stroke-width="0.61"/>
	<path d="M 414.6018578269834,406.32986661694366 L 415.65642651394535,388.84517482383023 L 416.9013487411203,405.0486763705034 L 416.0156348320946,421.7118627048918 L 414.6018578269834,406.32986661694366" fill="none" stroke="#000000" stroke-width="0.61"/>
	<path d="M 401.3428230050926,385.5551233793696 L 401.3428230050926,385.5551233793694" fill="none" stroke="#000000" stroke-width="0.61"/>
	<path d="M 414.3051028295485,380.8066844787749 L 414.8908443819744,370.2164221366261 L 414.3051028295486,380.8066844787749" fill="none" stroke="#000000" stroke-width="0.61"/>
	<path d="M 412.8400825428467,363.29659618107996 L 414.55588977811004,357.2694671319812 L 412.8400825428467,363.29659618107996" fill="none" stroke="#000000" stroke-width="0.61"/>
	<path d="M 428.2001373624523,359.6952764206303 L 428.10076705108264,346.9648190012823 L 428.2001373624523,359.6952764206303" fill="none" stroke="#000000" stroke-width="0.61"/>
	<path d="M 439.2473738242656,352.01897303029943 L 439.2473738242656,352.01897303029943" fill="none" stroke="#000000" stroke-width="0.61"/>
	<path d="M 453.12944159057446,353.6341027091116 L 453.12944159057486,353.6341027091117" fill="none" stroke="#000000" stroke-width="0.61"/>
	<path d="M 466.0846771854268,353.70257082614904 L 466.0846771854268,353.70257082614904" fill="none" stroke="#000000" stroke-width="0.61"/>
	<path d="M 478.661633163803,352.90311358094266 L 478.661633163803,352.90311358094266" fill="none" stroke="#000000" stroke-width="0.61"/>
	<path d="M 487.91950070322406,352.0189954641517 L 487.91950070322406,352.0189954641517" fill="none" stroke="#000000" stroke-width="0.61"/>
	<path d="M 505.33063776545754,359.53743183626744 L 505.33063776545754,359.53743183626744" fill="none" stroke="#000000" stroke-width="0.61"/>
	<path d="M 509.2877000944227,353.79966005187464 L 511.6619644124245,353.7996604250479 L 509.287700094423,353.79966005187464" fill="none" stroke="#000000" stroke-width="0.61"/>
	<path d="M 515.2233384555751,356.17391090956517 L 515.2233384555751,356.17391090956517" fill="none" stroke="#000000" stroke-width="0.61"/>
	<path d="M 511.66196441242465,337.7734140429111 L 511.66196441242516,337.7734140429111" fill="none" stroke="#000000" stroke-width="0.61"/>
	<path d="M 504.5392163261236,336.5862908574511 L 504.5392163261236,336.5862908574511" fill="none" stroke="#000000" stroke-width="0.61"/>
	<path d="M 465.364101851468,336.5862908574511 L 465.364101851468,336.5862908574511" fill="none" stroke="#000000" stroke-width="0.61"/>
	<path d="M 453.4928699968677,334.14197907921414 L 465.1746020916078,332.9161919678946 L 453.4928699968677,334.14197907921414" fill="none" stroke="#000000" stroke-width="0.61"/>
	<path d="M 467.15674611628737,303.3661706716607 L 467.15674611628737,303.3661706716607" fill="none" stroke="#000000" stroke-width="0.61"/>
	<path d="M 453.4928699968677,298.0748011394571 L 453.4928699968677,298.07480113945724" fill="none" stroke="#000000" stroke-width="0.61"/>
	<path d="M 441.66148066384636,292.7371460833114 L 441.66148066384636,292.7371460833114" fill="none" stroke="#000000" stroke-width="0.61"/>
	<path d="M 454.0864248594421,284.3387912115441 L 455.11803200456,282.8141627376116 L 454.0864248594421,284.3387912115441" fill="none" stroke="#000000" stroke-width="0.61"/>
	<path d="M 426.1652074934375,286.1048064937542 L 426.16520749343726,286.10480649375427" fill="none" stroke="#000000" stroke-width="0.61"/>
	<path d="M 423.5179680613756,272.2915164316437 L 430.8429059259108,272.93626403320474 L 423.5179680613756,272.2915164316437" fill="none" stroke="#000000" stroke-width="0.61"/>
	<path d="M 411.9434912042103,279.0107468176981 L 411.94349120421015,279.0107468176981" fill="none" stroke="#000000" stroke-width="0.61"/>
	<path d="M 410.1628266164872,254.65409807540314 L 416.49344090105046,253.68917158827588 L 402.0470608081693,247.16854205805706 L 410.1628266164872,254.65409807540314" fill="none" stroke="#000000" stroke-width="0.61"/>
	<path d="M 420.84694874593873,243.49771643567018 L 415.2034193658002,233.89306388908216 L 420.84694874593873,243.49771643567018" fill="none" stroke="#000000" stroke-width="0.61"/>
	<path d="M 445.18301218541814,254.18004834371297 L 438.83176207256304,240.88696714332693 L 444.45350994241267,228.2751529557356 L 446.5677903657608,240.09101843763554 L 445.18301218541814,254.18004834371297" fill="none" stroke="#000000" stroke-width="0.61"/>
	<path d="M 387.01387290215666,272.4815580807418 L 387.01387290215666,272.48155808074193" fill="none" stroke="#000000" stroke-width="0.61"/>
	<path d="M 385.21508176182346,286.6977511555476 L 394.3350319649934,285.0944736405215 L 385.21508176182346,286.6977511555476" fill="none" stroke="#000000" stroke-width="0.61"/>
	<path d="M 372.3297051828474,273.63251340962006 L 372.3297051828474,273.63251340962006" fill="none" stroke="#000000" stroke-width="0.61"/>
	<path d="M 357.3357708318038,274.8558179119732 L 357.3357708318038,274.8558179119732" fill="none" stroke="#000000" stroke-width="0.61"/>
	<path d="M 348.1355582926403,276.3922720709786 L 348.1355582926399,276.3922720709788" fill="none" stroke="#000000" stroke-width="0.61"/>
	<path d="M 340.7160103411999,286.2446322079977 L 340.7160103411999,286.2446322079975" fill="none" stroke="#000000" stroke-width="0.61"/>
	<path d="M 324.0962947183005,286.7270363062621 L 324.0962947183002,286.7270363062622" fill="none" stroke="#000000" stroke-width="0.61"/>
	<path d="M 329.75572749067015,273.4700025839912 L 329.75572749067015,273.4700025839912" fill="none" stroke="#000000" stroke-width="0.61"/>
	<path d="M 318.2397132524431,300.8687445048596 L 314.1541977241945,281.9948204191336 L 311.167875155343,284.28453981075063 L 310.68962547007203,301.5123502164904 L 317.4271096742766,313.2347784383452 L 318.2397132524431,300.8687445048596" fill="none" stroke="#000000" stroke-width="0.61"/>
	<path d="M 311.63146762019187,319.96654382715855 L 311.63146762019187,319.96654382715855" fill="none" stroke="#000000" stroke-width="0.61"/>
	<path d="M 316.97354663199945,328.2764106121491 L 316.97354663199945,328.2764106121491" fill="none" stroke="#000000" stroke-width="0.61"/>
	<path d="M 311.631467620192,338.96054171514163 L 311.6314676201924,338.96054171514163" fill="none" stroke="#000000" stroke-width="0.61"/>
	<path d="M 296.96943313950294,321.6239702909846 L 296.96943313950294,321.6239702909847" fill="none" stroke="#000000" stroke-width="0.61"/>
	<path d="M 286.10828548202306,328.2764106121491 L 286.1082854820228,328.27641061214905" fill="none" stroke="#000000" stroke-width="0.61"/>
	<path d="M 252.0437909920708,296.29347250970784 L 250.0091420499817,290.57139247243197 L 252.0437909920708,296.29347250970784" fill="none" stroke="#000000" stroke-width="0.61"/>
	<path d="M 245.65783342812807,292.4359581566738 L 245.65783342812807,292.4359581566738" fill="none" stroke="#000000" stroke-width="0.61"/>
	<path d="M 245.74604782190747,279.60430616704286 L 245.74604782190747,279.60430616704286" fill="none" stroke="#000000" stroke-width="0.61"/>
	<path d="M 249.29527617745507,271.873358399425 L 246.2343179457113,266.5353685379911 L 249.29527617745507,271.873358399425" fill="none" stroke="#000000" stroke-width="0.61"/>
	<path d="M 254.05592358043899,262.9845636235208 L 254.05592358043899,262.9845636235208" fill="none" stroke="#000000" stroke-width="0.61"/>
	<path d="M 261.5743778996365,264.1528378863285 L 261.5743778996365,264.1528378863285" fill="none" stroke="#000000" stroke-width="0.61"/>
	<path d="M 258.21085697293427,251.11331382183874 L 258.21085697293415,251.11331382183883" fill="none" stroke="#000000" stroke-width="0.61"/>
	<path d="M 262.3657948522,244.97984029131993 L 262.3657948522002,244.97984029132002" fill="none" stroke="#000000" stroke-width="0.61"/>
	<path d="M 253.75983262503033,244.0352674295118 L 253.75983262503053,244.0352674295118" fill="none" stroke="#000000" stroke-width="0.61"/>
	<path d="M 252.56650423604066,234.98269207194187 L 252.56650423604066,234.98269207194187" fill="none" stroke="#000000" stroke-width="0.61"/>
	<path d="M 258.9843986320326,219.19728692708946 L 258.9843986320326,219.19728692708946" fill="none" stroke="#000000" stroke-width="0.61"/>
	<path d="M 254.05592358043899,213.8590100045596 L 254.05592358043904,213.8590100045596" fill="none" stroke="#000000" stroke-width="0.61"/>
	<path d="M 252.2252180419087,199.9860248076687 L 259.6379762044248,190.29061509064084 L 279.06371355967804,199.3815799103548 L 258.51638932944945,192.01964954576337 L 252.22521804190845,199.98602480766868" fill="none" stroke="#000000" stroke-width="0.61"/>
	<path d="M 243.75721054570562,193.35021514984695 L 243.75721054570562,193.35021514984695" fill="none" stroke="#000000" stroke-width="0.61"/>
	<path d="M 242.58907088601134,186.479912959421 L 242.58907088601123,186.479912959421" fill="none" stroke="#000000" stroke-width="0.61"/>
	<path d="M 261.5070314752111,183.77773750999287 L 261.5070314752111,183.77773750999287" fill="none" stroke="#000000" stroke-width="0.61"/>
	<path d="M 270.6756661239611,182.33014608309662 L 270.67566612396115,182.33014608309665" fill="none" stroke="#000000" stroke-width="0.61"/>
	<path d="M 285.4469669253717,172.6534532838236 L 285.4469669253717,172.6534532838236" fill="none" stroke="#000000" stroke-width="0.61"/>
	<path d="M 292.934256137037,173.13189753796144 L 292.934256137037,173.13189753796144" fill="none" stroke="#000000" stroke-width="0.61"/>
	<path d="M 292.04391038286417,167.548036292735 L 292.04391038286417,167.548036292735" fill="none" stroke="#000000" stroke-width="0.61"/>
	<path d="M 295.1759902295439,182.85364765263424 L 300.234815225514,161.52865863841896 L 295.7201047445919,154.45333979860825 L 298.7390108984237,141.8237039726733 L 297.0984862443884,125.87893666052526 L 285.0966851102102,120.72384510117912 L 287.9099296492661,130.55771943794008 L 283.7340480846439,133.32061130063784 L 284.37481226436404,140.12632326108675 L 282.51874851844235,164.31432588013638 L 286.3108606786492,169.71373156072218 L 295.1759902295439,182.85364765263424" fill="none" stroke="#000000" stroke-width="0.61"/>
	<path d="M 307.4422463279326,164.22649484664055 L 307.5188038068507,149.6862161142425 L 307.4422463279326,164.22649484664055" fill="none" stroke="#000000" stroke-width="0.61"/>
	<path d="M 312.22503145630714,145.45922109690792 L 312.22503145630725,145.45922109690792" fill="none" stroke="#000000" stroke-width="0.61"/>
	<path d="M 307.47652974092614,128.83947586132356 L 312.71065147401043,128.5114390474883 L 307.47652974092614,128.83947586132356" fill="none" stroke="#000000" stroke-width="0.61"/>
	<path d="M 327.1801417826636,125.59201602050955 L 327.1801417826636,125.59201602050955" fill="none" stroke="#000000" stroke-width="0.61"/>
	<path d="M 341.90316493405305,137.14934847911576 L 341.90316493405317,137.14934847911576" fill="none" stroke="#000000" stroke-width="0.61"/>
	<path d="M 330.03188821174837,146.12284405886152 L 330.03188821174837,146.12284405886152" fill="none" stroke="#000000" stroke-width="0.61"/>
	<path d="M 344.9463169904522,157.452388117267 L 344.9463169904522,157.452388117267" fill="none" stroke="#000000" stroke-width="0.61"/>
	<path d="M 353.378663635134,158.91329583017603 L 353.378663635134,158.91329583017603" fill="none" stroke="#000000" stroke-width="0.61"/>
	<path d="M 343.09027465920184,166.82746490713396 L 343.0902746592017,166.82746490713396" fill="none" stroke="#000000" stroke-width="0.61"/>
	<path d="M 343.0902746592017,170.31877955523993 L 343.09027465920155,170.31877955523993" fill="none" stroke="#000000" stroke-width="0.61"/>
	<path d="M 345.06880582368444,180.28154412717254 L 345.06880582368444,180.28154412717254" fill="none" stroke="#000000" stroke-width="0.61"/>
	<path d="M 349.6314026923203,182.2407211586504 L 349.6314026923203,182.2407211586504" fill="none" stroke="#000000" stroke-width="0.61"/>
	<path d="M 351.40013247065144,176.3244621461527 L 351.40013247065144,176.3244621461527" fill="none" stroke="#000000" stroke-width="0.61"/>
	<path d="M 329.60394004641216,168.3780240366615 L 329.60394004641216,168.3780240366615" fill="none" stroke="#000000" stroke-width="0.61"/>
	<path d="M 327.7513525284067,181.5675961142419 L 327.7513525284067,181.5675961142419" fill="none" stroke="#000000" stroke-width="0.61"/>
	<path d="M 290.22596521948816,150.8012821616337 L 290.22596521948844,150.8012821616337" fill="none" stroke="#000000" stroke-width="0.61"/>
	<path d="M 258.46045152618956,162.0789663324923 L 258.46045152618956,162.0789663324923" fill="none" stroke="#000000" stroke-width="0.61"/>
	<path d="M 255.24304676589895,160.29827931091705 L 255.2430467658987,160.29827931091705" fill="none" stroke="#000000" stroke-width="0.61"/>
	<path d="M 254.79787388881255,156.3834437733467 L 254.79787388881255,156.3834437733467" fill="none" stroke="#000000" stroke-width="0.61"/>
	<path d="M 250.49454953728846,156.00322183394348 L 250.49454953728838,156.00322183394348" fill="none" stroke="#000000" stroke-width="0.61"/>
	<path d="M 254.52247591871043,148.3299407321864 L 254.52247591871043,148.3299407321864" fill="none" stroke="#000000" stroke-width="0.61"/>
	<path d="M 257.5991172297339,134.40825747488338 L 257.59911722973465,134.40825747488338" fill="none" stroke="#000000" stroke-width="0.61"/>
	<path d="M 258.4399604455533,112.53910343300282 L 258.4399604455533,112.53910343300282" fill="none" stroke="#000000" stroke-width="0.61"/>
	<path d="M 291.6761118621546,106.97399603576291 L 281.43777572528643,105.26133702552941 L 291.6761118621546,106.97399603576291" fill="none" stroke="#000000" stroke-width="0.61"/>
	<path d="M 301.1362250662925,93.61246991652702 L 313.4120746242435,87.05446842915309 L 301.1362250662925,93.61246991652702" fill="none" stroke="#000000" stroke-width="0.61"/>
	<path d="M 318.4518477592275,87.90450374822078 L 320.2962482417762,87.69166637811117 L 318.4518477592275,87.90450374822078" fill="none" stroke="#000000" stroke-width="0.61"/>
	<path d="M 361.66877965661234,131.21372537298294 L 357.788926160879,125.48333857835333 L 361.66877965661234,131.21372537298294" fill="none" stroke="#000000" stroke-width="0.61"/>
	<path d="M 380.75186685861206,147.83347015989025 L 380.75186685861206,147.83347015989025" fill="none" stroke="#000000" stroke-width="0.61"/>
	<path d="M 385.8267631770079,140.0470995603127 L 385.82676317700805,140.04709956031274" fill="none" stroke="#000000" stroke-width="0.61"/>
	<path d="M 387.01387290215655,160.93360914710217 L 387.01387290215655,160.93360914710217" fill="none" stroke="#000000" stroke-width="0.61"/>
	<path d="M 397.1044401690338,160.8918373142307 L 397.1044401690334,160.8918373142307" fill="none" stroke="#000000" stroke-width="0.61"/>
	<path d="M 394.730175851032,171.57596473807138 L 394.73017585103236,171.57596473807138" fill="none" stroke="#000000" stroke-width="0.61"/>
	<path d="M 387.01387290215655,175.13733748005845 L 387.01387290215644,175.13733748005845" fill="none" stroke="#000000" stroke-width="0.61"/>
	<path d="M 392.6527113981696,184.53924744545776 L 392.6527113981696,184.53924744545776" fill="none" stroke="#000000" stroke-width="0.61"/>
	<path d="M 382.5621441312924,212.26357859404558 L 390.7036149060025,210.89539939398693 L 382.5621441312924,212.26357859404558" fill="none" stroke="#000000" stroke-width="0.61"/>
	<path d="M 409.56927175391286,149.28456889524574 L 401.32600205963263,131.88139401257686 L 395.22426984802144,114.47940776952868 L 391.80800882866174,121.2058559108426 L 387.7932713805057,130.83000455789283 L 391.5098383779633,145.29373508721335 L 409.56927175391286,149.28456889524574" fill="none" stroke="#000000" stroke-width="0.61"/>
	<path d="M 420.25339388336437,95.00642424610187 L 438.81604301010145,91.55532853944459 L 420.25339388336437,95.00642424610187" fill="none" stroke="#000000" stroke-width="0.61"/>
	<path d="M 252.4875550232365,169.54525211920384 L 252.4875550232365,169.54525211920384" fill="none" stroke="#000000" stroke-width="0.61"/>
	<path d="M 235.06192569245596,207.92862251086262 L 235.06192569245596,207.92862251086262" fill="none" stroke="#000000" stroke-width="0.61"/>
	<path d="M 227.60520933462374,212.39564668218432 L 227.60520933462388,212.39564668218432" fill="none" stroke="#000000" stroke-width="0.61"/>
	<path d="M 224.37780356300436,222.0287441802081 L 224.37780356300442,222.0287441802081" fill="none" stroke="#000000" stroke-width="0.61"/>
	<path d="M 219.65966831001583,219.6544933225176 L 219.65966831001583,219.6544933225176" fill="none" stroke="#000000" stroke-width="0.61"/>
	<path d="M 214.77594879364156,214.60921417584944 L 206.7070007589101,220.16424122825538 L 214.77594879364156,214.60921417584944" fill="none" stroke="#000000" stroke-width="0.61"/>
	<path d="M 205.08702824373415,222.4914109752715 L 216.02055663130773,208.1047633209233 L 203.4146994228845,214.89330389031832 L 216.8104345028594,196.83171943603426 L 231.93904096346026,192.95187840359898 L 217.99004188728054,205.94353067761136 L 205.08702824373415,222.4914109752715" fill="none" stroke="#000000" stroke-width="0.61"/>
	<path d="M 192.3254416614202,224.50113865467952 L 199.35012859386867,219.58388984562066 L 192.32544166142014,224.5011386546795" fill="none" stroke="#000000" stroke-width="0.61"/>
	<path d="M 189.47117366734363,232.58070848611192 L 201.21510316196483,220.6463336956158 L 189.47117366734363,232.58070848611192" fill="none" stroke="#000000" stroke-width="0.61"/>
	<path d="M 168.04007872800406,222.7043531007366 L 168.04007872800406,222.7043531007366" fill="none" stroke="#000000" stroke-width="0.61"/>
	<path d="M 162.64732164398566,222.6223259634051 L 162.64732164398572,222.62232596340516" fill="none" stroke="#000000" stroke-width="0.61"/>
	<path d="M 165.72112282931553,212.10968999518673 L 176.70883790333977,207.56498210549955 L 169.31738449819753,197.23885851450717 L 165.72112282931553,212.10968999518673" fill="none" stroke="#000000" stroke-width="0.61"/>
	<path d="M 166.30487858523128,242.9831601403749 L 169.20779236082478,230.77130477168544 L 166.30487858523128,242.9831601403749" fill="none" stroke="#000000" stroke-width="0.61"/>
	<path d="M 152.6406614712577,271.430182135188 L 152.6406614712577,271.430182135188" fill="none" stroke="#000000" stroke-width="0.61"/>
	<path d="M 136.530580156472,287.9141819255743 L 146.51242728109108,277.89892236708624 L 136.530580156472,287.9141819255743" fill="none" stroke="#000000" stroke-width="0.61"/>
	<path d="M 112.49130760859128,296.7476907160176 L 116.44012212094525,295.95677965230607 L 112.49130760859128,296.7476907160176" fill="none" stroke="#000000" stroke-width="0.61"/>
	<path d="M 92.12946839504112,297.72510225073506 L 92.12946839504127,297.72510225073495" fill="none" stroke="#000000" stroke-width="0.61"/>
	<path d="M 78.64730199199771,300.8459606845243 L 88.65630021254411,297.375280507983 L 78.64730199199748,300.84596068452424" fill="none" stroke="#000000" stroke-width="0.61"/>
	<path d="M 65.24618012355762,300.3104018167616 L 60.22308874854977,288.2440486425454 L 68.12833258275427,298.9125682885575 L 65.24618012355762,300.3104018167616" fill="none" stroke="#000000" stroke-width="0.61"/>
	<path d="M 59.36747887939122,292.7160582622055 L 59.36747887939122,292.7160582622055" fill="none" stroke="#000000" stroke-width="0.61"/>
	<path d="M 36.009410254787745,297.11439446473787 L 26.944800806698943,282.7513650460129 L 35.50529731627869,292.7930072628213 L 50.55494402882734,295.52477413234897 L 36.009410254787745,297.11439446473787" fill="none" stroke="#000000" stroke-width="0.61"/>
	<path d="M 24.347302284001294,276.04293212389234 L 24.347302284001294,276.04293212389234" fill="none" stroke="#000000" stroke-width="0.61"/>
	<path d="M 14.478516080371897,274.1652635590822 L 10.0,256.29934407892455 L 18.075360872722925,237.6827063435997 L 29.005472135573658,220.8017914870763 L 21.708238068599677,235.35996341014905 L 14.236200364846193,254.0571761210686 L 15.715667269578237,269.1922582780571 L 14.478516080371897,274.1652635590822" fill="none" stroke="#000000" stroke-width="0.61"/>
	<path d="M 90.55268714324855,215.0086910906305 L 72.88134942499039,204.79490840272388 L 55.83725180727887,202.9650511195274 L 41.53229730562067,211.1461770770141 L 39.33806146544678,209.69311290419077 L 59.515582037413026,198.10892952817082 L 79.23674050470105,205.42572585546853 L 95.43954401514483,214.15229065673861 L 90.55268714324855,215.0086910906305" fill="none" stroke="#000000" stroke-width="0.61"/>
	<path d="M 96.99309166657852,197.3589619336346 L 102.78245349976221,180.41820836669402 L 119.1545039014616,171.5229402500405 L 102.68923172080368,182.20669347905803 L 99.551651474855,199.8293858044028 L 96.99309166657852,197.3589619336346" fill="none" stroke="#000000" stroke-width="0.61"/>
	<path d="M 121.11748722339993,168.38143124527204 L 133.44576803883155,158.69723719320746 L 121.11748722339993,168.38143124527204" fill="none" stroke="#000000" stroke-width="0.61"/>
	<path d="M 137.7177078287025,155.20752270766434 L 148.31775516930693,151.10149751089926 L 137.7177078287025,155.20752270766434" fill="none" stroke="#000000" stroke-width="0.61"/>
	<path d="M 153.15032718676454,147.30996859035264 L 168.35700172625425,137.24941856276743 L 185.31692895470783,134.61546504035277 L 203.76867962804005,130.27926460470104 L 222.6585407133559,132.78179096998747 L 241.75160918981695,139.13970162825672 L 232.9677372895295,138.7317503412499 L 214.38652109759843,132.50816567002516 L 192.26574521404558,132.30611152224293 L 180.4056877017982,145.16476978834106 L 163.5224702162878,140.79899087322053 L 153.15032718676454,147.30996859035264" fill="none" stroke="#000000" stroke-width="0.61"/>
	<path d="M 166.3313909118089,150.74192577802216 L 167.8987024100713,150.37823234597306 L 166.3313909118089,150.74192577802216" fill="none" stroke="#000000" stroke-width="0.61"/>
	<path d="M 216.66149612735862,258.23603947428757 L 216.66149612735862,258.23603947428757" fill="none" stroke="#000000" stroke-width="0.61"/>
	<path d="M 226.36393531662605,256.30426943141464 L 229.2834873306339,247.41901217952767 L 226.3639353166258,256.3042694314146" fill="none" stroke="#000000" stroke-width="0.61"/>
	<path d="M 235.6058120061702,253.11872074130528 L 235.89949977067292,242.12204593717038 L 235.6058120061702,253.11872074130528" fill="none" stroke="#000000" stroke-width="0.61"/>
	<path d="M 232.68767932153588,283.09561928964683 L 232.68767932153568,283.09561928964683" fill="none" stroke="#000000" stroke-width="0.61"/>
	<path d="M 225.56493123523484,284.28274696187736 L 225.56493123523464,284.28274696187725" fill="none" stroke="#000000" stroke-width="0.61"/>
	<path d="M 171.89252751720227,293.04031716248704 L 170.78978501696648,272.33308953375183 L 161.93981512077386,253.0240570782433 L 158.60683367816878,230.54797025717764 L 159.91706482400323,210.0510058789255 L 165.1307503440485,190.87170726074424 L 165.23837638712038,163.89637094958266 L 168.62597690266426,167.69492143274056 L 174.0742928624819,195.7207818608039 L 182.00322548620215,212.14191581890174 L 183.19645690436272,228.15275575512607 L 199.99297147508847,210.17373623295958 L 207.46825249670607,204.710689943877 L 190.48626313560223,222.75612352261572 L 178.21020867481957,233.03803626537464 L 173.8362394771508,214.3124511022277 L 160.67540854170284,222.6908975158945 L 163.4493700556397,248.09039414418515 L 170.7221201619681,254.2445875038702 L 174.2385667886177,276.79577075968155 L 171.89252751720227,293.04031716248704" fill="none" stroke="#000000" stroke-width="0.61"/>
	<path d="M 173.60685969062112,303.3468012836364 L 173.60685969062112,303.3468012836364" fill="none" stroke="#000000" stroke-width="0.61"/>
	<path d="M 195.33850992196514,343.4122570256945 L 196.20463002864582,329.34751592743754 L 196.9783268406811,302.9982628450458 L 197.3271492148882,276.2592594296053 L 195.18335469745514,254.9148131029446 L 203.6539395278483,239.98699921262892 L 218.60531302110886,227.68634799144743 L 220.64748066084377,239.2856455229209 L 221.43654558723875,261.6775902887096 L 220.30489841278697,284.66392524069886 L 218.84506465484463,306.35866930908963 L 216.75515464247053,329.21246571946085 L 214.0631875865818,337.4738909125359 L 217.1047245558608,307.84007799637527 L 219.10839231819367,279.63606592324413 L 220.08720329257534,256.78961550724375 L 215.01847934657837,249.6041124052053 L 214.88525139956343,236.54073949221592 L 207.88939112292877,248.29322537458086 L 207.47872925330836,277.0964106410514 L 205.77865465291444,274.37962200788866 L 205.6695898857916,246.69818464436364 L 198.8704978418301,257.58705304926457 L 198.69349525499172,285.3848038395389 L 198.44252061124755,308.1317222117822 L 198.3941244670174,330.5730016264014 L 195.33850992196514,343.4122570256945" fill="none" stroke="#000000" stroke-width="0.61"/>
	<path d="M 202.52445417002713,342.8186931895793 L 203.77715219949306,321.89998798688606 L 204.65822176526692,299.7336546065767 L 206.61039882459193,290.8300953792573 L 205.1192245734136,316.0910804407896 L 204.380146914653,340.13175745934143 L 202.52445417002713,342.8186931895793" fill="none" stroke="#000000" stroke-width="0.61"/>
	<path d="M 189.22973606276284,370.3324265502611 L 197.0114346948726,358.789480214459 L 199.00566041443867,362.00847805253113 L 189.22973606276284,370.3324265502611" fill="none" stroke="#000000" stroke-width="0.61"/>
	<path d="M 199.97186316056698,382.25283340897204 L 205.2530817681425,364.2611270493695 L 210.80455116136622,349.5240923147751 L 213.33106364521942,355.91697311255336 L 232.10982320869664,349.61603413632827 L 241.9996946384478,335.18145298612274 L 246.24353574109358,340.3979835975294 L 230.96993198007416,352.1512250140652 L 220.8608615249131,367.6395536690187 L 218.1085437171032,355.7345772100377 L 205.8418778707486,369.81373816723385 L 199.97186316056698,382.25283340897204" fill="none" stroke="#000000" stroke-width="0.61"/>
	<path d="M 180.15741442845095,387.8505775744512 L 178.66297397825585,384.45608276961923 L 180.15741442845095,387.8505775744512" fill="none" stroke="#000000" stroke-width="0.61"/>
	<path d="M 165.88718269036877,384.5411805596639 L 165.88718269036858,384.5411805596639" fill="none" stroke="#000000" stroke-width="0.61"/>
	<path d="M 170.9571974025171,376.3549646814515 L 170.95719740251698,376.3549646814517" fill="none" stroke="#000000" stroke-width="0.61"/>
	<path d="M 159.9323005707647,373.7385314152859 L 167.00602223757136,355.7831012247905 L 169.62239800127116,333.74022256081395 L 170.29663932647546,313.04297914877475 L 170.84852831864941,293.89605051230257 L 173.20793498491375,313.11598497905135 L 171.74390406740142,330.02019546894957 L 169.05791799421226,354.5930680510381 L 173.52345864432658,351.0556788748253 L 176.28000848737398,336.1448902895962 L 177.65970876430902,312.5288294849581 L 177.9185770520969,276.5845184211272 L 176.60954989991907,260.0061107155762 L 191.05350499897332,248.76191114367307 L 190.16961840728305,251.23593458434124 L 188.6220722426216,277.81674943823555 L 188.96593590034428,297.7307198774656 L 187.26193943092844,315.801689404968 L 186.38176484507696,350.3165181354843 L 183.38091867565748,360.00632817574274 L 185.18849107358332,341.83124706237794 L 184.92540603522292,314.16546083893155 L 186.24567985580836,296.68826093718366 L 186.5864461751901,271.37149339705934 L 181.1998477335591,255.65562776662347 L 180.6897518677917,266.8689163053621 L 180.1001397660764,288.6452070100987 L 179.62750996807029,315.0490469753306 L 178.49394756741452,333.96091054125264 L 178.54820486227553,346.39232375531566 L 174.25780397575193,355.632005046034 L 173.43661384990628,361.17427621817126 L 159.9323005707647,373.7385314152859" fill="none" stroke="#000000" stroke-width="0.61"/>
	<path d="M 154.69190972439208,410.9254906028478 L 156.0523684836594,391.3837440989654 L 158.90093885828205,380.3116151392639 L 157.21042106704195,402.21472284175724 L 154.69190972439208,410.9254906028478" fill="none" stroke="#000000" stroke-width="0.61"/>
	<path d="M 178.23903290859514,428.2600295199918 L 178.23903290859514,428.2600295199918" fill="none" stroke="#000000" stroke-width="0.61"/>
	<path d="M 213.69368143355285,460.311399845307 L 220.72557307700018,444.5108249699782 L 223.21477664466892,446.9054233930432 L 213.69368143355285,460.311399845307" fill="none" stroke="#000000" stroke-width="0.61"/>
	<path d="M 144.93417557612267,462.92599353558893 L 155.16280145062078,454.7182735741325 L 144.93417557612267,462.92599353558893" fill="none" stroke="#000000" stroke-width="0.61"/>
	<path d="M 132.57349988042495,450.9459440373118 L 132.57349988042495,450.9459440373118" fill="none" stroke="#000000" stroke-width="0.61"/>
	<path d="M 123.82482245884331,460.4752252946771 L 123.82482245884331,460.4752252946771" fill="none" stroke="#000000" stroke-width="0.61"/>
	<path d="M 118.72370994071944,468.3571259672496 L 124.3078194926995,454.2308404047259 L 137.11390824304408,438.7200588132503 L 149.0300352446653,423.01831162446956 L 154.24933920545664,423.81215602506626 L 145.52000935274896,434.73959700267324 L 131.18691401926475,449.0710723335654 L 124.08031638590917,457.2287801052556 L 118.72370994071944,468.3571259672496" fill="none" stroke="#000000" stroke-width="0.61"/>
	<path d="M 104.4782137681174,496.7914369413833 L 113.59458385920944,480.1004194913103 L 115.65280212927452,478.7030450202023 L 114.25054971045739,490.2125538038059 L 104.4782137681174,496.7914369413833" fill="none" stroke="#000000" stroke-width="0.61"/>
	<path d="M 281.3597882534126,547.3314018711003 L 301.5357372135941,544.5792331015864 L 281.3597882534126,547.3314018711003" fill="none" stroke="#000000" stroke-width="0.61"/>
	<path d="M 318.2386812952399,544.5542390271737 L 307.8022549065734,542.4232251328629 L 326.9580827481265,542.9502733017675 L 318.2386812952399,544.5542390271737" fill="none" stroke="#000000" stroke-width="0.61"/>
	<path d="M 358.7477574918095,502.42948127902696 L 357.53047560402507,482.12837015649166 L 357.83880328707346,476.05994438492786 L 359.90976429532293,498.17669761882473 L 358.7477574918095,502.42948127902696" fill="none" stroke="#000000" stroke-width="0.61"/>
	<path d="M 373.57438017284477,508.5255351440089 L 370.5449202138846,501.9210596505546 L 373.57438017284477,508.5255351440089" fill="none" stroke="#000000" stroke-width="0.61"/>
	<path d="M 426.9804088161462,531.6704417913953 L 434.0805958964935,520.6268229545948 L 426.9804088161462,531.6704417913953" fill="none" stroke="#000000" stroke-width="0.61"/>
	<path d="M 425.7048648454662,544.4540494430685 L 441.52480727332585,536.1502308949256 L 442.54265367640477,536.9739909169464 L 425.7048648454662,544.4540494430685" fill="none" stroke="#000000" stroke-width="0.61"/>
	<path d="M 443.99585759256485,505.9770360691975 L 460.1702113256548,500.23033335490493 L 457.72449091774797,504.8177809364527 L 443.99585759256485,505.9770360691975" fill="none" stroke="#000000" stroke-width="0.61"/>
	<path d="M 452.305760271719,509.89556601355474 L 452.305760271719,509.89556601355474" fill="none" stroke="#000000" stroke-width="0.61"/>
	<path d="M 466.55125644432115,495.68970597109086 L 473.8346842316234,487.28316995382187 L 473.9461159303297,489.0049595772495 L 473.1224822583431,492.76502214178794 L 481.30050231283815,493.25594299643615 L 466.55125644432115,495.68970597109086" fill="none" stroke="#000000" stroke-width="0.61"/>
	<path d="M 480.2031528866444,488.5382470406927 L 480.2031528866446,488.5382470406926" fill="none" stroke="#000000" stroke-width="0.61"/>
	<path d="M 484.0613267949343,484.19066518546884 L 484.0613267949343,484.19066518546884" fill="none" stroke="#000000" stroke-width="0.61"/>
	<path d="M 480.79675261692324,480.7230422108306 L 473.89926200375027,467.25902154857397 L 468.95223857140866,458.07609164891784 L 484.021446857484,470.4108604004723 L 496.26933239811905,469.0666510162286 L 495.75353229078087,471.96658797374334 L 481.6485090849575,472.1343878334951 L 486.23252167979285,477.87928235755675 L 480.79675261692324,480.7230422108306" fill="none" stroke="#000000" stroke-width="0.61"/>
	<path d="M 487.9195007032243,476.2081756062212 L 487.9195007032243,476.2081756062212" fill="none" stroke="#000000" stroke-width="0.61"/>
	<path d="M 477.8975810242024,464.4513205038831 L 488.63980975313063,462.71466366845056 L 497.80164989891455,463.8948940795476 L 477.8975810242024,464.4513205038831" fill="none" stroke="#000000" stroke-width="0.61"/>
	<path d="M 473.6740045306221,458.86013151002857 L 485.64916583770594,455.76694780864284 L 495.2642418831128,458.61808441872427 L 473.6740045306221,458.86013151002857" fill="none" stroke="#000000" stroke-width="0.61"/>
	<path d="M 475.3562742424191,448.3351910225334 L 475.3562742424193,448.33519102253354" fill="none" stroke="#000000" stroke-width="0.61"/>
	<path d="M 477.94886481042374,441.2473096293843 L 461.27300457655036,437.8158946164891 L 464.54336409114,428.2856990296957 L 473.89045856354426,425.68217636419615 L 472.33017045414374,435.56772754722215 L 478.819852193261,425.4810834649527 L 477.94886481042374,441.2473096293843" fill="none" stroke="#000000" stroke-width="0.61"/>
	<path d="M 469.77733413188787,429.4950938476894 L 469.77733413188787,429.4950938476894" fill="none" stroke="#000000" stroke-width="0.61"/>
	<path d="M 466.2037112054141,432.4604273574373 L 466.2037112054141,432.4604273574373" fill="none" stroke="#000000" stroke-width="0.61"/>
	<path d="M 457.78352370864644,420.94775127642373 L 467.56352173183836,411.53991618748313 L 475.56309172976296,419.89031788940355 L 457.78352370864644,420.94775127642373" fill="none" stroke="#000000" stroke-width="0.61"/>
	<path d="M 441.6216381422675,437.52914090615576 L 431.19382786695473,422.6400922930011 L 429.62781701919306,400.34233363115965 L 427.63315155226195,375.5877661139182 L 431.8348982187432,363.4670160690455 L 430.0407710627545,379.0143239098421 L 434.04948750603245,401.73790156681093 L 431.16429031268524,416.8213728015643 L 439.17971576972224,432.05707114865845 L 441.6216381422675,437.52914090615576" fill="none" stroke="#000000" stroke-width="0.61"/>
	<path d="M 460.02206322059436,450.2003056036299 L 453.7114386142627,440.5635680954983 L 452.3750399914015,420.8963591484748 L 464.5876320646907,403.4266711681839 L 453.66546144773434,421.0906426255517 L 457.0956999539212,439.772496991824 L 470.58052145987944,442.4519807630374 L 464.87862384201134,448.8198805452455 L 464.28189324346806,450.42249972082817 L 484.15522947860205,452.2263867886605 L 460.02206322059436,450.2003056036299" fill="none" stroke="#000000" stroke-width="0.61"/>
	<path d="M 481.7464224499602,425.3832155044137 L 471.8431560313966,408.70857764893816 L 479.12682937227936,413.2433437923292 L 481.7464224499602,425.3832155044137" fill="none" stroke="#000000" stroke-width="0.61"/>
	<path d="M 505.7263260512722,414.8664992671499 L 505.726326051272,414.86649926714995" fill="none" stroke="#000000" stroke-width="0.61"/>
	<path d="M 503.12951791904646,403.44145429975737 L 503.12951791904646,403.44145429975737" fill="none" stroke="#000000" stroke-width="0.61"/>
	<path d="M 510.7166467467221,398.26278346766827 L 510.7166467467221,398.26278346766827" fill="none" stroke="#000000" stroke-width="0.61"/>
	<path d="M 505.1007356476987,385.31024890862557 L 505.1007356476991,385.3102489086256" fill="none" stroke="#000000" stroke-width="0.61"/>
	<path d="M 506.31992578155115,382.8841534184078 L 506.3199257815518,382.88415341840766" fill="none" stroke="#000000" stroke-width="0.61"/>
	<path d="M 518.7847124987256,385.18834335555175 L 518.784712498725,385.18834335555204" fill="none" stroke="#000000" stroke-width="0.61"/>
	<path d="M 543.1578366621059,383.72329614822735 L 543.1578366621059,383.72329614822735" fill="none" stroke="#000000" stroke-width="0.61"/>
	<path d="M 550.4236229902912,388.0226900888389 L 550.4236229902912,388.0226900888389" fill="none" stroke="#000000" stroke-width="0.61"/>
	<path d="M 540.0911739285589,364.7048633083842 L 546.7710872651999,354.1205869047085 L 534.2747879828632,352.9584052024367 L 540.0911739285589,364.7048633083842" fill="none" stroke="#000000" stroke-width="0.61"/>
	<path d="M 523.6402506099157,413.7493921345319 L 523.0143809854076,390.9932997611044 L 525.9172044381368,398.54861910909517 L 523.6402506099157,413.7493921345319" fill="none" stroke="#000000" stroke-width="0.61"/>
	<path d="M 522.8771855598135,458.7590445718336 L 522.7402114192962,440.86416257401726 L 524.3636568010663,417.47378475313417 L 526.5126722268399,425.78531667701566 L 526.5485936188055,442.84809306681916 L 522.8771855598135,458.7590445718336" fill="none" stroke="#000000" stroke-width="0.61"/>
	<path d="M 522.3460865418762,463.60862873863914 L 522.3460865418765,463.6086287386393" fill="none" stroke="#000000" stroke-width="0.61"/>
	<path d="M 517.597602773577,465.9828795963296 L 517.597602773577,465.9828795963296" fill="none" stroke="#000000" stroke-width="0.61"/>
	<path d="M 530.8091226964228,516.0457078962881 L 527.4407259200368,495.1361542288995 L 531.8899982917327,511.5559507227246 L 530.8091226964228,516.0457078962881" fill="none" stroke="#000000" stroke-width="0.61"/>
	<path d="M 535.4982016239895,529.294360331362 L 535.4982016239895,529.294360331362" fill="none" stroke="#000000" stroke-width="0.61"/>
	<path d="M 568.6439491028328,498.77416323623487 L 568.6439491028328,498.77416323623487" fill="none" stroke="#000000" stroke-width="0.61"/>
	<path d="M 603.5350951536773,546.0486117661467 L 591.7777750949787,528.9818429974566 L 579.2453123811238,513.6449154240984 L 566.5101040567337,499.71611637322053 L 557.6372229527059,485.013467947351 L 544.2440926218324,477.74859846856907 L 552.0798316491862,494.38097923581216 L 569.7986268767628,514.3753228475277 L 563.1359126441218,513.1165396497227 L 551.7759662778286,500.5029747566514 L 543.4741073788248,493.4142071078631 L 539.8299562317302,476.1439710268013 L 535.9270495319167,450.67013808586523 L 533.0141848541406,436.06391678036834 L 533.5508650048653,405.79549625085815 L 532.6509151069514,388.9607594573945 L 536.8622949250963,403.97339841855097 L 534.7109379508489,410.01842604898155 L 535.7477138972082,435.2607308077392 L 538.8765614560847,453.617121885641 L 542.3053370208482,471.3084057666266 L 553.7734317409255,478.7971822340052 L 570.098069550967,497.62994824826893 L 567.2155608130762,486.3586642318512 L 575.1018801295277,500.59931922386926 L 586.4265879747165,519.6631719820571 L 599.5731270606649,537.3650617911121 L 603.5350951536773,546.0486117661467" fill="none" stroke="#000000" stroke-width="0.61"/>
	<path d="M 474.8611142557709,514.5685239749016 L 487.9219381747691,495.7273517120953 L 498.5055502302331,477.73529987032225 L 500.4021868693914,460.9201027083081 L 497.7811972126908,439.698140987295 L 499.36647677352477,437.6644968245106 L 507.65456933479425,456.1883433703291 L 502.24943535913036,477.3664427732306 L 502.02602670354065,481.5442646000955 L 513.4900593471455,460.5372173598224 L 508.4797284360428,443.55176937523316 L 498.2222037509451,424.57102895910054 L 496.6499715896007,405.5897217172663 L 495.41611994929036,375.5602219382507 L 494.07261765840155,340.6389169222505 L 492.73584021386336,331.5068599350708 L 476.9653432523064,330.96156718603834 L 473.93840584023684,320.26974698373505 L 473.32223840525944,299.9088810667041 L 471.3274072825114,281.0218039652894 L 452.87985801902124,276.69842092934005 L 437.3370105339268,263.5924534391222 L 419.1103214177818,265.0022011803881 L 406.8973832793577,256.4933094825909 L 404.3992104848203,281.604231818867 L 404.1472977649464,298.51427145841285 L 402.00306652524233,301.5866967881972 L 402.0055690774986,286.926180336896 L 399.95844910612226,256.97537034122314 L 380.4182398495888,255.66481085995684 L 360.95220150274605,261.6612093196798 L 348.0719498422479,253.29554912317786 L 325.2527015814585,251.70434206322534 L 349.31519444038184,249.9393555518199 L 365.83922605523384,259.423185087927 L 381.01403825006213,253.6496925303967 L 397.8091033176923,246.66089034101898 L 375.60696224789956,250.77192461464537 L 371.8203476477377,229.82153513606002 L 373.7659275684747,214.6701869609102 L 368.278280746371,202.7253492904293 L 353.51744589991256,190.0293424384433 L 349.7435103172624,207.0694950285427 L 345.9802238865989,185.33530759123187 L 334.8473434105059,186.57692636950935 L 320.41327568729616,188.6487754360053 L 318.04854100299406,183.99295852423506 L 334.3830093154358,182.15534930120938 L 337.48127653555656,165.77105401107005 L 337.3172434243344,137.3530876531386 L 336.50232828239183,115.2748058674928 L 349.45496521338816,128.2639547704341 L 340.80631234706175,113.71018632334794 L 355.5343443629109,122.20404300584774 L 369.81276586202887,135.17833494418028 L 381.26272799061184,138.87689124637225 L 390.55718357203375,111.51627088963943 L 392.7149899332316,89.05778218721875 L 394.7917941925541,76.54314404750701 L 394.47655514921695,104.46647738641215 L 401.29981212974303,121.26271901388782 L 407.9579401314448,106.6714531978171 L 400.49892355632534,125.64803563346774 L 410.63525534549547,149.41171300268485 L 407.4845459567711,163.16158765653262 L 405.948815444755,191.31913134097098 L 405.08062656715333,169.96031890349985 L 403.8473612421503,150.11366593923015 L 382.6285922886719,150.77617996347578 L 380.7356140665016,164.36212238222598 L 384.15551766076106,180.50213832725828 L 384.09346142944867,196.1953319589009 L 379.960803625506,182.04997995070767 L 378.32848811212654,153.42359495087436 L 372.5276805277766,136.41551958001605 L 364.2635367802568,134.85350079753402 L 353.6491136366142,130.4397627230096 L 339.4148276811596,133.01690535216483 L 339.9700492023976,161.0645133509891 L 340.3383576363011,181.58904452309167 L 359.17206275504776,186.10798427153077 L 361.4166825123331,170.6677628484887 L 359.29024379337454,141.26408182738777 L 354.6170268893563,136.87854211355972 L 372.0978259289116,146.3542527294702 L 364.42555451319504,147.37949796671813 L 363.9925092917532,170.15769787623702 L 361.99952194200785,191.72231395936262 L 380.42383163763117,199.53609924119135 L 397.5003544651522,198.00711427999423 L 413.2098929024089,197.7090521119993 L 428.2221999367494,207.42163154155463 L 445.647733362578,211.97964914597912 L 445.3288814940397,214.2534768763168 L 429.09448628821696,209.7736158709324 L 415.4735052885078,203.00407832669526 L 399.60212277347,202.52094989846577 L 378.2605623013747,202.1992443358444 L 377.09558129368645,224.45341501155426 L 378.9250960529304,234.0175450757303 L 385.4329746298499,246.11834330979528 L 406.8206819357026,245.79611340303148 L 421.18961180916637,262.13619115274656 L 436.78203781163654,261.81635214612595 L 454.1078861833703,275.6030164657519 L 470.45471485783895,278.0543757403493 L 476.16203029827227,297.8711981806857 L 475.4370722767929,320.36025968268183 L 485.3018007627266,328.4177457446457 L 493.3892973216281,313.24860913638736 L 508.6963605704921,319.2048665007926 L 522.820481667165,313.72083333644997 L 534.0621474642206,322.90590356995233 L 536.3200057150634,345.88786067063086 L 549.648933220373,357.86285411043946 L 559.4182535383013,376.5479801163572 L 556.9736676921194,400.3036324337073 L 558.6032551968285,415.3058872710644 L 561.3202098792835,446.9333334036649 L 563.6432475737897,470.55729552775176 L 562.8002499347497,473.4446237713948 L 559.8150927973951,449.8509714570237 L 557.4757868480394,422.58695284404945 L 553.6792095805683,402.1064392815219 L 557.7182812900414,380.8423499281272 L 545.0261640442498,366.8590221272207 L 534.4706786642813,381.3515338779588 L 531.3807228546325,362.6982621806223 L 528.2574716841831,341.87397909462925 L 525.5639998434312,357.31377887938635 L 526.5361288939471,375.2304242280061 L 519.62598098991,381.0238768010968 L 521.2869615731163,368.2967477868982 L 521.8829901379091,339.9417023183709 L 535.1809763711932,334.2694570178551 L 526.6319129700788,319.9069717288802 L 525.7549951627686,330.67596136906275 L 520.1068585742541,319.8375797488299 L 509.79032861168605,320.5206300622748 L 495.90778132467557,314.3849499520654 L 498.3650593811021,335.1926174526616 L 498.8364440382772,356.0601080743916 L 497.44317822719347,377.13622307322424 L 499.5109604427523,394.71590760430155 L 500.5902599955126,409.74611115164123 L 500.45943954549745,424.01800352329275 L 511.6270345263967,443.7886268504587 L 518.4911570838274,463.4803249344911 L 525.0495129955341,484.70908473992563 L 519.6384590677495,477.07592881291373 L 517.31705830095,498.4153060101556 L 513.325536128514,500.719932396097 L 513.9150551517389,476.12343029938245 L 499.8220480530017,483.80410551175737 L 486.98406379085486,500.52861006608094 L 474.8611142557709,514.5685239749016" fill="none" stroke="#000000" stroke-width="0.61"/>
	<path d="M 441.6216381422675,395.34894462235275 L 441.6216381422669,395.3489446223526" fill="none" stroke="#000000" stroke-width="0.61"/>
	<path d="M 438.7769808104906,384.77197554474185 L 438.7769808104906,384.77197554474185" fill="none" stroke="#000000" stroke-width="0.61"/>
	<path d="M 434.49889005596646,375.76140533210673 L 434.4988900559666,375.76140533210656" fill="none" stroke="#000000" stroke-width="0.61"/>
	<path d="M 450.82171607831754,380.6898579498482 L 450.82171607831714,380.6898579498481" fill="none" stroke="#000000" stroke-width="0.61"/>
	<path d="M 463.850983385563,378.2043935130616 L 463.850983385563,378.2043935130616" fill="none" stroke="#000000" stroke-width="0.61"/>
	<path d="M 478.42248829892134,380.056460565695 L 478.4224882989217,380.05646056569515" fill="none" stroke="#000000" stroke-width="0.61"/>
	<path d="M 382.2653891338574,317.5922974562385 L 382.2653891338574,317.5922974562385" fill="none" stroke="#000000" stroke-width="0.61"/>
	<path d="M 354.961506513802,337.19342268740127 L 369.74620001584344,336.32451013565594 L 354.961506513802,337.19342268740127" fill="none" stroke="#000000" stroke-width="0.61"/>
	<path d="M 365.3488736458186,288.17449986020057 L 365.3488736458186,288.17449986020057" fill="none" stroke="#000000" stroke-width="0.61"/>
	<path d="M 285.86292644007074,262.62737182815044 L 287.8032440146646,262.32689591618043 L 285.86292644007074,262.62737182815044" fill="none" stroke="#000000" stroke-width="0.61"/>
	<path d="M 284.83033660238294,254.3779104337021 L 283.7063757730328,231.1116377361885 L 282.27158122022234,209.83776854023446 L 281.804843270734,185.3990098107771 L 278.7629648209936,172.22903171492987 L 267.6550834609826,138.71666188281637 L 268.0973997883659,131.80366107372788 L 260.3634401697629,98.3786714267582 L 258.82932988029825,105.22589334054875 L 259.59502631748245,124.64374109857523 L 258.27909552895585,138.28099113670316 L 258.22067069566674,143.58131787797151 L 255.56994422454943,151.0244879087362 L 250.46934015297012,170.81140704382994 L 249.5980057680989,173.2471940035168 L 273.71614353549654,171.07385133363022 L 257.87547489673005,173.02231403776005 L 242.48312947244656,177.13828743580072 L 238.65317560093646,180.02467651524194 L 241.45377163455456,198.26052165133802 L 235.0006054811364,187.82602961542528 L 225.22196501709516,194.00597218130048 L 232.54383869156092,184.16728909313298 L 242.7008343048431,164.94433270392818 L 246.28675391277926,145.21146181688914 L 252.3186201454614,139.11232118680272 L 254.81854924603837,120.05249148565505 L 256.0585287662075,91.01536671176154 L 256.08544368131004,59.06655246790066 L 254.53706149329528,46.6685981288997 L 258.4219086710481,50.28604241368594 L 258.7516800851412,71.49060753910081 L 260.9018712348401,92.43357855521593 L 266.6740446149196,116.60893931241016 L 270.4907003868249,136.41763480242253 L 276.8434014527257,160.39944369772869 L 277.427903094811,156.13626808015815 L 282.29031404176123,135.86877864843413 L 279.8152293792947,114.74071962871703 L 290.40481139956296,103.57686630194561 L 294.5062499455616,93.8341170047243 L 303.28583267388973,73.50627557257546 L 319.1983635464229,64.613429183784 L 337.5215016217922,77.09983905157048 L 340.5762200560413,97.31863359851516 L 331.2336147598195,106.42850080894061 L 322.84133434001046,119.68065504232244 L 324.5726266456475,145.79498582052167 L 323.6739678534547,157.1335228874526 L 323.5989135003697,180.35035864288233 L 322.24697818104096,156.2950000183675 L 322.4742911817185,137.19722627261504 L 320.3067637137419,109.69249479646228 L 305.59383008790354,112.66687947610157 L 309.26723309073867,108.38511121538055 L 320.7131112025895,103.89563228176054 L 339.1700197311408,105.91331920450747 L 333.65332299773416,88.87032058239357 L 335.8962122373392,80.26349947915136 L 321.9329892497307,67.27712038967931 L 307.9565094585773,80.12847561658685 L 294.356044980469,84.07864538596516 L 296.30956078294463,107.19409677580319 L 282.119091573455,111.25304415019316 L 298.35362838118357,116.55934810286647 L 301.3617867111709,137.72641227055962 L 302.4626150180736,161.8775002743597 L 308.99911787464123,180.71106973376908 L 303.51088031001444,181.2707402856705 L 298.5415166813448,192.70652728018243 L 306.8968719900095,190.4143082019976 L 297.7620995952388,182.50163646125296 L 289.92979128982205,194.70712421780644 L 290.01657206526653,192.1706250951796 L 282.81176276936964,190.13014806832896 L 285.12331722148576,213.915076384328 L 285.7310901486882,234.0048128797431 L 284.83033660238294,254.3779104337021" fill="none" stroke="#000000" stroke-width="0.61"/>
	<path d="M 289.05126590139884,246.71329956715888 L 290.3128025076759,236.9192175124267 L 289.05126590139884,246.71329956715888" fill="none" stroke="#000000" stroke-width="0.61"/>
	<path d="M 272.58336464338015,256.35826322698665 L 272.5833646433803,256.3582632269867" fill="none" stroke="#000000" stroke-width="0.61"/>
</svg>
