<?xml version="1.0" ?>
<svg xmlns="http://www.w3.org/2000/svg" xmlns:ev="http://www.w3.org/2001/xml-events" xmlns:xlink="http://www.w3.org/1999/xlink" baseProfile="full" height="546px" version="1.1" viewBox="10.129240111019678 62.15303169724108 190.19 173.055783039453" width="600px">
	<defs/>
	<path d="M 184.0649243503204,157.2666190554928 L 106.21772866911914,235.11381473669408 L 98.43300910099902,229.36553135637362 L 28.37053298791785,159.30305524329248 L 21.051349373350487,151.09724625229882 L 15.432957227469117,141.65032832568835 L 11.776574745122234,131.28493128747493 L 10.224240111019679,120.40371601523705 L 10.836256314401393,109.42938119330759 L 13.588848580346813,98.7882428879159 L 18.375087939966903,88.8936735991879 L 25.00904506187765,80.13004412723588 L 33.23301298254657,72.83779205693376 L 42.72751815668578,67.30019690061735 L 53.1237309319919,63.73237564001877 L 64.0177933429508,62.27292615368916 L 74.98650763701927,62.97854315469933 L 85.60377608660663,65.8218157913652 L 95.45715345535238,70.69229246681562 L 104.16386911095121,77.4007715127369 L 112.5388611173711,72.27906935220922 L 122.12768859397379,66.90645581306786 L 132.5840327651002,63.51891168907962 L 143.501699762374,62.24803169724108 L 154.45657487431563,63.14318525880297 L 165.02309797910118,66.16959866299115 L 174.79079512665987,71.20970590893239 L 183.3802240736453,78.06771575011122 L 190.4577143407752,86.47721752701204 L 195.74832919079685,96.11153032688244 L 199.04654599774756,106.59639344050318 L 200.22424011101967,117.52450513432206 L 199.23566206791327,128.47134495546237 L 196.1192148066781,139.01166492617278 L 190.9959618412837,148.7360090001756 L 184.0649243503205,157.26661905549273" fill="none" stroke="#000000" stroke-width="0.19"/>
</svg>
