<?xml version="1.0" ?>
<svg xmlns="http://www.w3.org/2000/svg" xmlns:ev="http://www.w3.org/2001/xml-events" xmlns:xlink="http://www.w3.org/1999/xlink" baseProfile="full" height="600px" version="1.1" viewBox="9.888485030250273 13.809503052142222 190.2692215020724 269.4907235744933" width="424px">
	<defs/>
	<path d="M 184.06392085945052,175.53908588728672 L 183.92201827322728,178.24821910317826 L 183.62836541538243,180.93830359204009 L 183.22412938726714,183.61220732763041 L 182.57548751976765,186.2298436162785 L 181.54202865335859,188.7416009992026 L 179.40960788731306,190.16202962908199 L 177.0189508290178,188.79322745790574 L 176.57742094381703,186.31870868864678 L 177.11807000603017,183.6975230099199 L 178.4054505813705,181.32421663086078 L 180.0894462382858,179.21390622007786 L 181.971601619987,177.29661938721145 L 184.06392085945052,175.53908588728672" fill="none" stroke="#000000" stroke-width="0.2692215020724209"/>
	<path d="M 155.3388988172288,155.18776092749272 L 155.5268705060657,157.61144030284606 L 154.3934803771559,159.9576406147841 L 153.18162817085914,159.43463235316563 L 153.5791658850201,156.89527669288267 L 155.3388988172288,155.18776092749272" fill="none" stroke="#000000" stroke-width="0.2692215020724209"/>
	<path d="M 134.99083531251836,155.1368042742543 L 135.17880342344077,157.56046648585436 L 134.04542951228274,159.90665276767217 L 132.833555477774,159.38373476788024 L 133.2310750355403,156.84440423315564 L 134.99083531251836,155.1368042742543" fill="none" stroke="#000000" stroke-width="0.2692215020724209"/>
	<path d="M 122.66428332837641,158.9451176771256 L 123.82403960149959,160.64933942022572 L 122.48230867188134,162.4763267782224 L 120.42406388831405,162.89602363988595 L 121.24957366223907,160.70324181003946 L 122.66428332837641,158.9451176771256" fill="none" stroke="#000000" stroke-width="0.2692215020724209"/>
	<path d="M 100.65421326539233,172.3551835054706 L 100.33130671058076,175.06291103030077 L 99.58167668086335,177.70550801118907 L 98.57577569432245,180.2475747640711 L 97.35127596936977,182.6867855421015 L 95.87131956339012,184.9666807039938 L 94.18376573770284,187.11490866819733 L 92.1274386400571,188.90677394958416 L 89.58564024669589,189.86009638835117 L 87.43500137571465,188.2552498932228 L 87.29981701007894,185.6489533096756 L 88.45311098947938,183.1739354217331 L 90.08060590570105,180.9840437537472 L 91.90793372433858,178.98819096865944 L 93.92485949173073,177.14960620669802 L 96.09326654345388,175.42293128143507 L 98.33188014248,173.8300049131239 L 100.65421326539233,172.3551835054706" fill="none" stroke="#000000" stroke-width="0.2692215020724209"/>
	<path d="M 96.11932333108096,138.15658577892737 L 98.06440129514553,140.06157028812876 L 98.62683890027125,142.83616154592013 L 98.48814627037568,145.66396626093254 L 97.72499730915963,148.41146088717628 L 96.52536482795593,150.99759273130297 L 95.06125840002952,153.4367316996741 L 93.34162713497122,155.68659035641465 L 91.40965594463835,157.75300309969765 L 89.23275158972542,159.62858142357132 L 86.85312539295309,161.20840388571534 L 87.87230804002922,162.85150241411355 L 90.7272632250736,162.919886331589 L 93.5326684277407,163.3956504866848 L 96.27804323179785,164.454407084542 L 98.57820186277256,166.14130848789978 L 100.10563778218088,168.39189694533832 L 99.44339239675992,170.5849661425557 L 97.01777404265327,172.1461374017823 L 94.67371071055462,173.7851045061853 L 92.44743519712303,175.52445247752823 L 90.29996292410279,177.40875809119242 L 88.2935213591948,179.4619424017947 L 86.57385899643033,181.6739676750785 L 85.18251582051002,184.14540405362072 L 84.71425580757624,186.937147423695 L 85.40696420782233,189.4891074835007 L 87.59136905285779,191.3301472935251 L 90.46483698964215,191.85100769704198 L 93.27078082990568,191.4689799928425 L 95.92372014644712,190.33924662679607 L 98.3084430221708,188.76284213192247 L 100.37233964334115,186.8732717688191 L 102.19345532145898,184.69396304279346 L 103.74576441733434,182.30894733342018 L 105.00366497636246,179.75875884128425 L 105.98000806463257,177.08301710479057 L 106.62673147497429,174.31320568643415 L 106.90626813444862,171.4820402497833 L 107.09263627650772,168.78200876056079 L 109.61563786130708,167.45374034677738 L 112.16781977493454,166.1786116676432 L 113.03707057262436,167.5039896912761 L 113.38354092685974,170.32505330410154 L 114.50316392703624,172.919590308545 L 116.47451890299784,174.92976088325315 L 119.09807293815983,176.0423122869795 L 121.9270897443305,176.30352382972484 L 124.6483686314035,175.4869832542227 L 126.91426202460114,173.71747663093035 L 128.80110300301212,171.62876453357435 L 130.40526167622733,169.286011351167 L 131.83913511128156,166.8237563486335 L 133.46917458909337,165.26142927719016 L 136.23316550789355,165.926891768871 L 137.6019680503708,167.72977710398598 L 137.03060639019316,170.52671205572807 L 136.55216068317597,173.33602165974156 L 136.35220554481685,176.172230246703 L 136.74427039139044,178.9687826843982 L 138.4713927119851,181.12297379984557 L 141.28522197514832,181.5889356676179 L 143.92253005134947,180.56330432847363 L 145.88695765506992,178.4986934986382 L 147.53310477238122,176.19025644751426 L 148.984165791195,173.75941266137406 L 150.26771430407308,171.22284673578633 L 151.60141659573446,168.70277854762696 L 152.88349228400347,166.15591178580405 L 154.99323944556693,165.60567242429798 L 157.75044677609293,166.33855412830854 L 157.7052534413542,168.96639857722005 L 157.15660220171395,171.76971859119766 L 156.7781967116126,174.58915598150136 L 156.77053101249822,177.42909996750382 L 157.63648946212663,180.0954545045276 L 160.00086655788434,181.5613568382592 L 162.8260964809137,181.3652073560165 L 165.14682453484465,179.78094942373684 L 166.95473547223037,177.5944165239541 L 168.46669032832565,175.1920090719388 L 169.8887996255386,172.73598290681755 L 171.2073726903104,170.20993059564466 L 172.1909098521856,171.934491293476 L 174.33146709497402,173.62642697988045 L 177.21832040559525,173.7857892099677 L 179.5560204833618,172.16374322906202 L 181.25345755077987,169.9376395526221 L 182.6426692405444,167.44208870818534 L 183.89528163156257,164.89583108692042 L 184.07678500541954,167.22214512017985 L 184.07452929800655,170.07095385544386 L 183.88146026003255,172.84514834191586 L 181.6447554135996,174.67644060616396 L 179.51714868192164,176.5884740437791 L 177.58346854115405,178.62460333311736 L 175.9064611133946,180.90424906936164 L 174.64863307840324,183.46462554978075 L 174.07126121277847,186.2387187747124 L 174.44430603210785,189.0139332749551 L 173.84229070655562,191.08665726041323 L 171.44939104964357,192.83183279306905 L 169.44052112946207,194.32603672988077 L 166.6007994456797,196.17653253699817 L 164.46868460791336,197.52886893619282 L 162.09192457490187,198.82912489865495 L 159.47831168219028,200.22183611695436 L 156.88925016218363,201.51205494045226 L 154.4952192729977,202.59699791957252 L 151.66721260578404,203.73435220197965 L 148.76761663080967,204.81477696919617 L 146.20300291873505,205.66949319530505 L 143.62646841197585,206.420835154369 L 140.87027263688915,207.1350052933485 L 137.82264656984682,207.84246956560497 L 135.27640885580303,208.37820611204788 L 132.6726447543764,208.7979727166651 L 129.40951174620645,209.16666009173414 L 127.71528427816743,209.37649355711085 L 124.94339098902044,209.46654581651654 L 120.91258746496459,209.51580165516012 L 117.07373385854834,209.52356469115904 L 114.72475583862361,209.50111331934667 L 112.92937454670795,209.32237325263097 L 109.47057794722099,208.93391651166226 L 106.84734977793035,208.5728373706446 L 104.11417714702593,208.03594111005216 L 101.61803941656996,207.5056178460093 L 98.46827504286645,206.72547889588037 L 95.63129807236956,205.932049499331 L 93.0840916436782,205.18676351570562 L 90.73255875517279,203.38323671984625 L 88.66279103734985,201.55334942671556 L 86.87673775977409,199.16659839071795 L 85.21058488564593,197.27548902032615 L 83.19428325227194,198.82714687571644 L 84.67119091553562,201.23654274032367 L 83.35840518557443,201.06421888475006 L 80.67133199413279,199.52553918380048 L 78.40509746501161,198.1622514813194 L 75.87565040535465,196.61998333708982 L 73.82129779810934,194.88875759937076 L 73.05398102797048,192.178832252084 L 72.78028721772071,189.31369812739823 L 73.03348243013993,186.9454809240309 L 75.6000490281046,187.69351185261607 L 78.88523045441931,187.88597351270909 L 81.37929652328674,187.37843812170928 L 80.68960410509013,185.06585440729987 L 79.94107434010007,183.47635940360541 L 80.21549923585154,180.65101332779417 L 80.40108436932441,177.80903000502872 L 80.55303782218263,174.9664010037294 L 80.76633876350373,172.1271432763688 L 81.04059450830886,169.28901546103623 L 81.38702600067914,166.46075380282636 L 81.75988205118851,163.63507375568494 L 82.15567660716714,160.81684454539248 L 82.73744757009925,158.02662419861068 L 83.35761873834853,155.24675973939537 L 84.09396370089257,152.49491108623133 L 84.97452983098908,149.80515783910073 L 86.07185458689078,147.16761868543196 L 87.363468280367,144.63513778582382 L 88.9838955138137,142.2976157531624 L 90.90706994043069,140.26168412120563 L 93.32057796523979,138.7487134137068 L 96.11932333108096,138.15658577892737" fill="none" stroke="#000000" stroke-width="0.2692215020724209"/>
	<path d="M 65.4666002062265,129.71949380506916 L 67.06173062327326,132.34601432661046 L 69.04251239511638,134.31181308705135 L 71.30460689104817,135.8350457145575 L 73.72163280716238,136.8239686399516 L 76.07878686436418,137.51659101646607 L 78.76771644619777,138.00092946156295 L 82.16822441065112,138.3743939271025 L 84.8060141072616,138.64999294866539 L 87.72957699185541,138.68833528037044 L 88.62452013036994,139.43539656370675 L 86.71581256549989,141.5417413536646 L 85.17813826158708,143.9174951651882 L 83.8660185881557,146.43869704843107 L 82.74149572416451,149.05077199390027 L 81.87006948226961,151.76014282874135 L 81.09551041687507,154.4910908425983 L 80.43691248461349,157.2588133359563 L 79.8954804682175,160.05556406288486 L 79.43126985706512,162.85736007701172 L 79.02501201732478,165.67275529130845 L 79.02200878203188,163.62499946111743 L 79.1602653776284,160.7834070292537 L 79.4369940022997,157.95001900287212 L 79.70408200372238,155.117624852471 L 80.04718423402866,152.2912612545042 L 80.42179696340192,149.46932885081816 L 80.61487413071167,146.63966884455377 L 78.80085782111117,144.78342114262324 L 75.95666576337393,144.78870133652663 L 74.08257587392885,146.75298348093378 L 73.58057795845366,149.5547333950052 L 73.20804000757732,152.37757964795932 L 72.95207715750912,155.20979126255125 L 72.76887989908266,158.04572086721166 L 72.6533910378601,160.8873915374535 L 72.60683533907232,163.73202398999982 L 72.6214556636809,166.5769959722744 L 72.69555868158437,169.42143830356898 L 72.82745106268118,172.2644818031751 L 73.01543947686986,175.1052572903844 L 73.28418680458,177.93755534580518 L 73.66130022325609,180.76236171692818 L 73.92576775874085,183.39294777378785 L 72.64169822711393,181.19894231084325 L 71.32065761454339,178.9650288438689 L 69.48620391714192,176.7257037424824 L 67.17298409460267,174.3907005856172 L 65.14198722169131,172.6592403845646 L 62.937462902190326,172.59007908460606 L 63.08236673624456,175.3230414994763 L 64.12731063644563,177.91563097527654 L 65.81588602389391,180.5209993870953 L 67.52941322703026,182.5703899436586 L 69.56821222439339,184.5493297408202 L 70.11739305718085,187.20445952834936 L 69.86023430538529,189.75046172215283 L 69.26696017011393,191.7952332956574 L 64.56013399178542,188.50745335709271 L 62.469088965549716,186.75788723505934 L 60.41705036676168,184.42577503643517 L 59.902095997921975,182.0898670657553 L 60.118120780460565,179.11819317572477 L 60.93831569710365,176.3010537643225 L 61.427729794156484,173.51658960491483 L 61.78772805756175,170.7004240981594 L 61.827699737432035,167.8687739406799 L 61.35569653452159,164.978044283514 L 60.52767868522371,162.42392945868647 L 59.071772097746475,159.8189884688286 L 57.34869011647263,157.80215366059497 L 55.13132227308503,155.37859530697528 L 53.66524933812117,153.39167868920916 L 51.95146202849546,153.57845583821063 L 51.728341866978845,156.7922560170875 L 51.67670441840964,159.57892392764086 L 51.81899032035318,162.4502087766899 L 52.147371109880865,165.56791134042336 L 52.60998860260478,168.04071562918665 L 53.364306114734745,170.67176543231153 L 54.406678061847,173.76209728258166 L 55.2875551289988,176.12522020473017 L 56.29413140641022,178.93822451276415 L 56.964659490385024,181.34081805889357 L 55.18344541002026,179.22904973067213 L 51.94139397995274,174.82239498141084 L 49.75848974659874,171.885119972187 L 48.32600867037285,169.89108384442784 L 47.38459557579448,167.61810197980697 L 47.25832204147893,164.14882446772205 L 45.0981937397418,164.17817389675827 L 43.96300590713285,162.12742654355065 L 42.514062404976485,159.06002744079962 L 41.450187331136306,156.60746374053022 L 40.55580455336778,153.99971800472923 L 41.17077967228592,151.29989911606165 L 42.11762526951817,148.70838621122613 L 43.30350490691001,145.82134847135458 L 44.87371037859456,143.4963072128955 L 47.35499223350267,142.4154533002467 L 49.82543303500976,141.68871572744536 L 52.86234317873834,140.6529172798389 L 55.36080772851661,139.53790731352103 L 57.66611041148793,138.16297333990582 L 59.89624148358221,136.22293925412333 L 62.15165112970491,133.9330918344625 L 63.7547532915074,132.04136810518006 L 65.4666002062265,129.71949380506916" fill="none" stroke="#000000" stroke-width="0.2692215020724209"/>
	<path d="M 98.39121052616238,95.26114898087103 L 99.22794064884955,97.28989994115257 L 97.23037351263774,98.90833226120172 L 96.94750577561284,97.39112206890772 L 98.39121052616238,95.26114898087103" fill="none" stroke="#000000" stroke-width="0.2692215020724209"/>
	<path d="M 121.19095968475999,91.97089679655932 L 120.87291413357914,94.71986759896515 L 120.50372479620908,97.45873067674536 L 120.10679337878757,100.19703942611554 L 119.73919530587905,102.93923677573811 L 119.47598701200268,105.69180402101144 L 119.37056481618222,108.45670394441127 L 119.3654979189746,111.22295273613494 L 119.84730518890422,113.93319612477457 L 119.49246807362428,114.99766477294506 L 116.63001262723219,113.66610952497182 L 114.29183078803646,112.80159385696798 L 112.56687974818135,112.03032863398097 L 113.32468927904543,109.36922341681277 L 114.05872244300424,106.70236563899158 L 114.8540541880984,104.05161844783885 L 115.73063623032999,101.42366744369366 L 116.73151389241693,98.84480356522913 L 117.89421006193362,96.34027422192071 L 119.27626379776889,93.94946226850169 L 121.19095968475999,91.97089679655932" fill="none" stroke="#000000" stroke-width="0.2692215020724209"/>
	<path d="M 126.27027760983533,112.77098421927148 L 126.27027760983533,112.77098421927148" fill="none" stroke="#000000" stroke-width="0.2692215020724209"/>
	<path d="M 161.97387922998925,123.74950631493064 L 164.7529398562624,123.85079453763183 L 167.69210185875613,124.18263101475148 L 171.1267062694893,124.81057103592812 L 173.67484794686018,125.69065750632616 L 175.740503942205,126.98624714530641 L 177.80327349038302,129.10781919072735 L 178.11364905691454,131.46006927329574 L 176.55622345642354,133.79038059700275 L 174.30633489519332,135.20295795087242 L 171.39749349620007,135.94679136061905 L 168.42115302245884,136.17525568680819 L 165.41990940182225,136.09028892701616 L 162.935869485092,135.74279162834716 L 159.96418812134547,135.145843894498 L 157.20161051287644,134.31713420252623 L 154.43954716439015,133.246045394413 L 152.4583427265005,132.4376423976346 L 149.2336623299953,130.94175572962814 L 146.8044044436755,129.72999743224054 L 143.93855370934506,128.26711485828525 L 142.25675888472756,127.08459724434186 L 145.14543378786144,126.32682942127654 L 147.68111863343816,125.77961235619514 L 151.064616931759,125.03535801231035 L 154.21001492465416,124.44935105370244 L 157.03789548540547,124.03008839926925 L 159.3558008863672,123.8082243367444 L 161.97387922998925,123.74950631493064" fill="none" stroke="#000000" stroke-width="0.2692215020724209"/>
	<path d="M 169.62128637632694,95.23151502167612 L 170.485507480281,97.2885891045109 L 168.479462832503,98.91341254966345 L 168.1943524306245,97.39816984426281 L 169.62128637632694,95.23151502167612" fill="none" stroke="#000000" stroke-width="0.2692215020724209"/>
	<path d="M 76.306797629376,71.51264311166265 L 79.16853827428953,71.55966472204594 L 78.93174668345516,74.17852836641453 L 78.54650893541212,77.0147041605285 L 78.21048039726702,79.85793192855054 L 77.88739680630573,82.70281685532191 L 77.62831221082968,85.5652182257999 L 77.34725562052019,88.40047315799613 L 74.9319946993946,88.97318884864757 L 72.2041183240586,89.57818086287763 L 73.52515620859974,91.36475606415466 L 76.38920474042784,91.39815765732816 L 76.9692749938079,93.63481960172714 L 76.80757405209944,96.49163928069781 L 76.63564392157708,99.34836005184263 L 76.50876305506465,102.2088226301589 L 76.43148144078464,105.07086384650148 L 76.39365505878925,107.93313168250084 L 76.41118985210608,110.79574770947444 L 74.6452211172174,111.9334050829524 L 71.88008743319018,112.47195759413977 L 69.45489267334129,113.80987093356167 L 67.41678377649669,115.66381590274837 L 65.89703018029,117.93139716810111 L 64.8950677826904,120.61345301429012 L 64.23649774145927,123.5231065581135 L 61.711444285019844,124.5797242383808 L 58.97326007682461,125.56304338882256 L 56.19650496107125,126.80562274130772 L 53.957969986338135,128.06826484159265 L 51.61263823540202,129.9325209784618 L 49.418978011249,132.10152203584235 L 48.02201234802185,133.4134271889069 L 48.22046819339307,131.2356825827224 L 48.348011758845054,128.0524325347144 L 48.450451060524955,124.14544122984863 L 48.57968404388207,120.77597650876629 L 48.74119817490925,118.91480187648368 L 48.17539358411785,116.35150672373888 L 46.115597988855235,118.01533561792739 L 44.3549967589299,120.45594719770628 L 42.71135629219376,122.71980091514872 L 41.392509632938044,125.21001402768603 L 40.506375885612,127.87804948062505 L 40.074593002066436,130.8022719580363 L 39.76406183678472,133.6078617681136 L 40.07627137014612,136.5103823981504 L 40.72319765992611,139.16087934189886 L 42.028494102294026,141.91969154972864 L 40.987787030466166,144.4725474670939 L 39.78952016954049,147.0066854599976 L 38.72492414523334,148.93776544248323 L 38.06467782705941,146.11498864964017 L 37.4378236036887,143.09822913295545 L 36.97337082059704,140.24985056174302 L 36.68015417164291,137.51730527042628 L 36.38837647334936,134.93210638968594 L 36.16012870037683,131.9541428832096 L 36.02685399347486,129.21950889110235 L 35.92255134135869,126.12952679068985 L 35.85165534504887,122.1360903119759 L 36.24313151317663,120.51564935247443 L 38.84659210571256,119.12893145912105 L 40.70757499972305,117.53951598197332 L 42.95821407583913,115.29244451448827 L 44.849163174996065,113.1575816128153 L 46.614700187613046,110.91724619324293 L 48.03621396454802,108.79413756455976 L 49.827480571801466,105.983823685226 L 51.13479304150174,103.62709127163545 L 52.23645850002563,101.40502974477087 L 53.64777466812145,98.50540785211854 L 55.00796607872109,95.39470028964 L 54.30522194815953,93.697876338767 L 51.31569094441181,94.0447812157982 L 48.65109072783745,95.00494327562647 L 46.17163084789163,96.32625479183439 L 43.63734700764455,97.96072033707145 L 41.4685604176972,99.70159573502039 L 39.49144868073938,101.86020136783432 L 37.75964076547018,104.16711164342176 L 37.92294082029869,102.39909499158794 L 38.714965987806565,99.74608070738596 L 39.93468619327133,97.27319090350326 L 42.02362169725824,95.09788767361721 L 44.11569590857678,93.51488110345784 L 46.923507931576914,91.64847510260111 L 48.95555087722018,90.38631619217246 L 51.73610035360561,88.85731759622922 L 54.408824924681106,88.21530741294438 L 57.044711310596554,87.58587476454264 L 59.688820749960456,87.19158900718945 L 62.26570756619407,88.35626680693088 L 64.86707579633779,87.62630780210974 L 64.05358769032685,85.25990409985076 L 63.58973829113508,84.59732338330123 L 66.06649077464617,83.01434744844835 L 68.0528410165515,81.46838230705194 L 70.19037467081945,79.44342065773401 L 72.04211547449925,77.05024194402148 L 71.90499092309992,74.56455855457915 L 69.16016889528575,75.27684237482902 L 66.35891402176608,75.94368619597105 L 64.00282536269471,76.24897946050322 L 65.42610626099537,73.67164514906287 L 67.79772039726517,72.46418124552427 L 70.58899743826166,71.8915188315508 L 73.43486989345271,71.59745875788676 L 76.306797629376,71.51264311166265" fill="none" stroke="#000000" stroke-width="0.2692215020724209"/>
	<path d="M 71.19430915848619,80.29925531062462 L 71.19430915848619,80.29925531062462" fill="none" stroke="#000000" stroke-width="0.2692215020724209"/>
	<path d="M 50.80951272776015,69.75763177677305 L 49.28153215747651,71.93049911888808 L 47.739686897193906,74.14371981942804 L 46.38193092612763,75.91609202597894 L 46.69203961356665,73.00045306606748 L 48.350010676687646,71.14954026831462 L 50.80951272776015,69.75763177677305" fill="none" stroke="#000000" stroke-width="0.2692215020724209"/>
	<path d="M 96.84768821750532,13.944113803178432 L 94.21951891222572,14.730471786595338 L 91.72081951804265,16.25906686224073 L 89.408370635827,18.0619293984261 L 87.274273647184,20.025730300820403 L 85.32094515961357,22.141251055095175 L 83.65447549809255,24.30003998390641 L 82.03332444704861,26.736350354872705 L 80.6436504276662,29.10764227533953 L 79.27712824648555,31.743210121080224 L 78.10862367188449,34.422837335365145 L 76.73003055155365,36.749015888051034 L 75.3294574549225,39.03189592496169 L 74.00088148352937,41.7393568941909 L 72.70001582658477,44.452128323171344 L 71.46245931995983,47.06815397954897 L 70.07914661823244,49.36709761461979 L 70.15129427844525,46.326138502219656 L 70.3647962103046,43.56387113684101 L 72.01281813296148,41.328417537220865 L 73.56703524239546,39.026835864384104 L 74.86961351682898,36.39407518771527 L 76.13034660784167,33.60894392618592 L 76.57543091093261,31.28826298054523 L 76.59260226311902,27.650144987838075 L 75.20491226987241,26.74944723975585 L 73.235024573195,28.92601945734493 L 71.4239749682138,31.136600672949246 L 69.9829472541523,33.678107259367636 L 69.01169762448026,36.4116671939029 L 68.44100573300264,39.2568289824971 L 68.07028102991674,42.10556202398732 L 67.80773950061449,44.77208660162479 L 67.53772573172455,47.92253647524666 L 67.01578105799942,50.60070348791812 L 66.09518341827857,53.26317681257049 L 64.61746037738511,55.651511239348345 L 62.479094766063795,57.49700442602123 L 60.579281300146064,59.23077008334778 L 58.300785980073364,61.46248297514227 L 55.970447901820236,63.84878620951044 L 54.26909533333836,65.65500215617217 L 52.803117283271014,66.90334628681664 L 50.69758672993368,65.54138630579838 L 48.499704622367645,67.34638607012428 L 46.46515552514067,68.60057333400576 L 47.03143641235818,65.69505619570947 L 48.41042632898867,63.1861408974364 L 50.3236626533917,61.04856774370331 L 52.45965328355732,59.352321662352914 L 54.95765099472557,57.620302170347834 L 57.113147752373465,55.956658523451885 L 59.263194110331796,53.83700604092198 L 60.940486620904245,51.58948462086234 L 62.098598975613385,49.040415207960194 L 62.728227663438915,45.96421331031469 L 63.542611665291474,43.57432308708395 L 61.199852824311684,42.559790206953835 L 58.34108707513914,42.94477985735196 L 55.59421307193618,43.692990299321444 L 53.1230632206434,45.00105955910919 L 51.634213696109384,45.89482836376009 L 52.78697807962492,43.279186251146854 L 54.360803183154026,40.540929928878455 L 56.65579862793141,40.928982754894164 L 59.52297868197445,41.05955326389823 L 59.73165038610589,38.259979271763825 L 58.22736757857379,36.03231987075326 L 56.797482518094846,34.38957880976935 L 56.750897594150885,31.20286232220259 L 56.3928356155761,28.562886153654595 L 54.872142310097686,26.6009282462393 L 53.590933684030624,29.00900126219173 L 52.86009107323815,31.757238731435397 L 52.70847957748716,34.6988201363903 L 52.56071910185629,37.45773338366175 L 51.446787561845845,40.049035948974705 L 50.311963393130355,42.54770082592532 L 48.989270698895034,45.48521425193066 L 47.883763763258884,45.94067998807336 L 46.60182131923962,43.3987254139421 L 44.81934647657456,40.59618789528231 L 42.635991520650414,39.86655594761373 L 41.513701230313686,42.40868109144226 L 40.76149568771197,45.09316267845422 L 40.37314486744846,48.030598675954444 L 40.1647168158068,50.78620707762501 L 40.28627889415709,53.939005665669605 L 40.70279920557059,56.53370077793216 L 41.46229177131376,59.34480157522317 L 42.39652528200566,61.812853525307325 L 43.753511245735524,64.55266007955623 L 44.4323122714171,67.23776806141315 L 44.23647835860219,70.18525228599441 L 43.981303660355614,72.91524233106176 L 43.614962713853934,76.01954903170406 L 42.654368889318874,73.56604596946869 L 43.489607404748384,70.9616893636207 L 44.13874989204826,68.23170901087823 L 42.05649917814724,66.93285676041003 L 40.756009673014006,69.26647574142778 L 40.04177133655068,68.10052744838865 L 38.49222620936797,66.14246441724283 L 36.888628825294134,68.05784565546233 L 37.91104550543444,70.68184712050683 L 38.10771758886959,72.44211557321063 L 36.91961015022146,74.91223906858396 L 38.78033508399416,76.50654319879911 L 41.18360303083729,77.37586793024659 L 42.37858690751528,79.99628998545332 L 42.01275484174192,82.55064579960352 L 40.969213624359824,85.75900356541675 L 39.90937327979728,85.50577564148846 L 38.31431999147772,82.93699681622735 L 36.590888839622,80.8796486523365 L 34.48305138004433,82.40608668087418 L 34.63622405958344,85.14705529197099 L 36.897090646432716,86.2543131760995 L 37.86683078611371,88.95719117872797 L 38.44183355350833,91.60512255501443 L 37.4370628886645,94.41931307211354 L 36.49549310119977,97.19491819783013 L 35.69150312255101,99.87103213353049 L 34.93429804004484,102.6503884747323 L 34.23046897117929,105.60856464799039 L 33.72432762648252,108.23501166582325 L 32.77974499761447,106.50502764113504 L 31.630657403516185,104.04125066573054 L 30.134828847765032,101.34367660099569 L 28.65631530158346,99.20215483966538 L 26.866018448241938,97.0732354015767 L 24.793154113685482,94.83700198698747 L 22.20739695149325,92.28340021946504 L 20.699343993323613,92.78569924630179 L 20.66181962462536,95.6019273326209 L 21.03400551068236,98.75880462774147 L 21.471351122302202,101.51405103323826 L 22.06795258596371,104.22805177563114 L 22.84154802523707,107.14531088648775 L 23.72883115160428,109.77713780326017 L 24.926642629638888,112.27379948830627 L 26.53398191423236,114.62905979099003 L 28.331006280184877,116.97236572075101 L 30.405068361384473,119.15777662020274 L 32.25506546885989,120.78184284924882 L 32.265826979657675,124.34006551191824 L 30.741269794910394,123.66921080717736 L 28.639114200510754,121.96600718435317 L 26.504984678746812,120.12945784826309 L 24.979756326004676,117.56903108432923 L 23.47043506518208,115.13915200373756 L 21.484726454229374,113.07627350699639 L 19.110351513055306,111.48979027895692 L 16.631968365641868,110.3766441871595 L 13.527498640370897,109.30765291435169 L 11.258467766971217,108.22171020972178 L 10.023095781286482,109.88891843257163 L 11.323773452415075,112.83451050670921 L 12.674756378686894,115.13256387304821 L 14.672246869340695,117.21225285728038 L 17.135795263532756,119.03204535830554 L 17.16832075081038,119.92318883432446 L 14.224838775300778,120.54856821454959 L 13.017654433123546,122.73991284173665 L 15.4995244075969,123.99617837551094 L 17.99702913284898,125.13987295127082 L 20.982550381059454,125.82848775865739 L 23.508973041703452,125.62377139190887 L 26.89321465366939,124.86925839152964 L 29.206701160902405,125.92288324216172 L 30.80788675732855,127.87547053135773 L 32.278306112600916,130.51095865942727 L 32.69875602576501,133.55057899099074 L 33.101353422139475,136.26669023727067 L 32.02908396707629,136.33115369879928 L 29.86449519089377,134.39075501049126 L 27.56968639193763,132.95042952736986 L 25.292582984602177,130.95936151063333 L 23.07388433432934,128.99877222253184 L 20.441472900899683,127.59203305379282 L 19.033436557460668,129.2575214348944 L 20.525661311332833,131.4775745061138 L 22.476131298746985,133.47600460606782 L 25.0365042844858,134.96895010725385 L 28.05796726179209,136.61686813102233 L 27.74553762029088,136.92150526281432 L 24.972579475290786,136.45175736720824 L 24.603940891589673,139.182148136291 L 26.724209041218362,140.46949824724442 L 29.751879740971205,140.87652689641718 L 32.5223228647162,141.89939765942833 L 34.38340578151322,143.7452457879366 L 35.036736144816416,146.61947166398423 L 35.62916873913828,149.49620426090306 L 36.18060501131271,152.49588388748447 L 36.80838409791539,155.0991034294644 L 36.26274316109719,156.2815941933177 L 33.3991999230946,154.68462373628557 L 31.521271294486425,152.70090918304538 L 28.294287393892176,148.18282062828686 L 26.252903101108643,146.06074505688946 L 23.95320977279475,144.12511367589235 L 21.496710538462168,142.37619448764607 L 19.499879207827064,143.0853084793839 L 20.38592038203804,145.82334714168752 L 21.509954895682363,148.32659045089088 L 23.07933581716935,150.82671908183468 L 24.84876683007109,152.86886848196195 L 27.286038469321582,154.6087627764241 L 29.850206958771285,156.02376501381556 L 32.32512374447286,157.32485745729255 L 35.017821440520265,158.81530156812298 L 37.11736629715337,160.3611939795213 L 39.26896364384896,162.43945201659048 L 40.79807573686003,164.35734207047605 L 42.583335711725624,166.95899661667926 L 45.80732784866336,171.71974099245895 L 47.46127674433413,174.1299289685029 L 49.273145112007406,176.71617405053883 L 49.723748058319515,177.79095943940854 L 46.788172426131865,175.8383448538613 L 44.48043011842657,174.52079474853744 L 41.783083459649745,173.495004337114 L 39.07857938661539,172.77085806838167 L 36.67743439631987,172.52375427965916 L 32.79799863605791,172.5666944756718 L 30.503293546270356,172.95840197279819 L 27.738194288960518,173.5071647411336 L 24.634162264399414,173.62735302996816 L 21.925811128393683,173.1286119895714 L 21.244624937403643,175.1139426643317 L 23.27165729202327,177.40617708157114 L 25.40168044933749,178.94373673665228 L 28.313981382946366,180.45749465441256 L 30.735832550221414,181.45218606792892 L 33.486360680461594,182.25071317237624 L 35.67978524379468,182.6664215704691 L 37.83146891877723,182.78449223304185 L 42.21809896855244,182.76926817248062 L 45.95894931586548,182.77554802194913 L 48.31800575987173,182.85790031021574 L 50.38320643699964,183.26699981926706 L 47.39325236408443,184.10631771976634 L 44.820311209098094,185.02865829282214 L 42.33056424533335,186.19928330683905 L 39.143846232346775,187.88656768752037 L 38.35353816966139,189.81701392916406 L 40.554889344122856,190.569961519283 L 43.89903289531944,190.80706152813562 L 46.834600384436854,190.90811167306046 L 49.524770211008985,190.6358654454247 L 52.12643710871507,189.6279265422145 L 54.55463990756187,187.99948348274887 L 57.03762427420101,186.54161217420372 L 59.08021236968125,188.1039380983317 L 61.41517347508336,190.17060796429553 L 63.746408684942594,192.19607439043193 L 64.09729145259118,193.2776745694259 L 62.172180551455256,194.94705196398493 L 63.2287910570501,197.39968443403887 L 65.85105558323346,196.70324828840407 L 68.71160826482283,196.22946868587022 L 70.81068448656787,197.57739371501518 L 73.45740059088841,199.34233091857982 L 72.57145717454756,200.02492104739892 L 69.23028079791993,200.08129937197336 L 66.84192069822322,200.03784135705035 L 63.13197705613028,200.22720598441035 L 61.96674185087743,201.93237631398551 L 64.18997441026751,203.28199547898674 L 66.8568954042048,203.75335871015932 L 66.07441714771456,206.56327535883943 L 68.4254601198148,206.84060543767865 L 70.04948732099386,204.33065263256975 L 71.66963659746429,203.01580233143227 L 74.9983614860858,202.96563338881506 L 77.73637681576659,203.36990688245808 L 80.37281573374841,204.1094233225904 L 83.0939097889288,204.97986338707148 L 85.79229765958495,205.96681960207175 L 85.93997050828693,277.5890496933355 L 86.49590117715337,280.29329277136264 L 88.4234397126221,283.1656158755993 L 89.64848911225513,281.7759028160316 L 91.10040517436256,279.1324645755732 L 91.17152558873087,225.70289916652223 L 91.19764988533952,218.53669747036272 L 91.21297827295666,215.6628306351837 L 91.22984915008466,213.2560659086974 L 91.2482862642002,211.31211286597352 L 91.26831336277999,209.82668108208154 L 91.28995419330077,208.7954801320909 L 91.31323250323922,208.21421959107101 L 91.7244973022204,208.16067053897598 L 94.61072571954386,209.05267129744647 L 97.2356885558062,209.81110435684954 L 100.10529994636327,210.59159607769837 L 102.96536685089283,211.23643578528487 L 105.4589517243081,211.69611289521347 L 108.44299474684733,212.15744645737564 L 111.32487039373879,212.49562987242246 L 114.1587929453682,212.74588237112036 L 117.0295638864239,212.88838409698855 L 120.04244941210248,212.9630426332908 L 122.95585026655657,212.93864322543354 L 125.88377592134894,212.81953939884562 L 128.56189529356857,212.60382693470947 L 131.60110176537938,212.26452896169874 L 134.4279210136089,211.8601225509125 L 137.02202880001062,211.43504343513032 L 139.8823253766123,210.82698866195364 L 142.70125930387726,210.11237342784176 L 145.41764688141612,209.3688576512009 L 148.18767182965837,208.51524794171584 L 149.72179302788342,208.11243191970127 L 149.7455517164331,208.52551834723837 L 149.76710496294533,209.38403931503709 L 149.7864787740965,210.69385377371347 L 149.80369915656303,212.4608206738838 L 149.81879211702127,214.69079896616398 L 149.84269979861858,220.5632255295194 L 149.86325582286244,232.99092458078152 L 149.8670599007286,278.0810807145684 L 150.7656830290736,280.69178654949144 L 152.34654101707162,283.1155668973362 L 153.91913881979158,281.2731007003781 L 155.14617191205153,278.6569794734603 L 155.1688309321615,224.30562013956583 L 155.18718225409125,216.8610779610705 L 155.19953260188746,213.9388472196114 L 155.21418039065776,211.51385892250914 L 155.23126135771716,209.55902472913687 L 155.25091124038056,208.0472562988679 L 155.27326577596295,206.95146529107544 L 155.2984607017793,206.24456336513268 L 155.3266317551445,205.89946218041288 L 156.75034070323412,205.2098948411498 L 159.2571359191223,203.98707965354404 L 162.27242776976692,202.45790511635153 L 164.59177348745146,201.2001766204175 L 166.95624721391982,199.79117597469204 L 169.16002540628955,198.3908605821891 L 171.79993914638305,196.55685959595664 L 173.86963846086653,195.0567710627772 L 176.1877091116292,193.17427328690167 L 178.38597665009328,191.98959902388742 L 181.25664819383002,192.15118626143303 L 184.0311904554252,191.49088258677904 L 186.34170775718385,189.82462019174807 L 187.952647119353,187.4753891883339 L 188.92719309981635,184.79312108071392 L 189.61589698397364,182.01152561302223 L 190.0589452239271,179.1851644894132 L 190.40649676406744,176.33897968869906 L 190.65051931519312,173.48554448223177 L 190.86082255282034,170.6489976393598 L 193.1886042473625,168.97736629180145 L 195.55565792519678,167.36550552602685 L 197.91758539991835,165.74190891392485 L 200.0230957812865,163.88179081274953 L 197.89051589634005,163.24571657420228 L 195.49415106204822,164.81650184178926 L 193.1445069658099,166.43480837432088 L 190.91074819114647,167.66362846068822 L 190.81584902908676,164.80194001607202 L 190.63778420608406,161.94411430810237 L 190.28288691032233,159.10629662915733 L 188.87868708392418,156.83215209941017 L 185.96821553954277,156.58156454781212 L 183.70777906298935,158.16964492944965 L 182.9447309250642,160.88340970671814 L 181.84489619147038,163.53234724217202 L 180.66402452973023,166.1243279670131 L 179.30809419499673,168.63304017374156 L 177.60998285949174,170.97237305493584 L 177.67532249105523,168.4317720344021 L 178.1774976469414,165.61423925055988 L 178.77680915559236,162.81373584921548 L 179.28232886436044,160.01815854700013 L 177.36193458241934,158.1695217175844 L 174.51231284519721,158.11196945073894 L 172.54451058721224,159.95143086194378 L 171.84882245230955,162.71826326922707 L 170.9372368099615,165.4122980091021 L 169.66764892667663,167.98368115595446 L 168.321470279757,170.52003691882754 L 167.03531627283175,173.05368338388962 L 165.5569230118906,175.5166586890528 L 163.9373129924638,177.87259671180465 L 161.77090896168616,179.3857477424822 L 161.77571041180337,176.53680118323396 L 162.28775873308376,173.72224983370978 L 162.95671483028877,170.941041585819 L 163.71137169002859,168.18085322985752 L 164.28388719020342,165.4078389343262 L 162.61465530498535,163.16791477035557 L 159.91336521648688,162.29915296470585 L 157.03397337199664,161.9961316268261 L 156.72296377345407,160.45536865937538 L 157.84750109857433,157.85064871046893 L 157.96185143960108,155.08594540261834 L 155.97503916100467,153.18148839346864 L 153.13284725525457,153.45888857689596 L 150.9194813324708,155.23572198063167 L 149.8337320528475,157.85599009218728 L 149.59731655730118,160.68313066771105 L 150.69089159462357,163.3033092099989 L 150.40672178931976,165.73350531713686 L 149.13941747707483,168.30579046039387 L 147.81280262398909,170.84970318111064 L 146.47916713033163,173.36756486904918 L 144.99298002687152,175.80479453899355 L 143.32545842217516,178.14637977484483 L 141.34081674697492,178.93217517808236 L 141.4605982289484,176.08345367353155 L 142.01778373147025,173.26866739909363 L 142.71886362067323,170.49653401397958 L 143.47851360431815,167.7325821449605 L 143.7977720152418,164.99967439320045 L 141.8997911198387,162.92784585491438 L 139.16012846949712,162.1875022113508 L 136.281374284658,161.91046438390276 L 136.57511170859883,160.04848893342051 L 137.60256841195798,157.41843878535815 L 137.46671853125252,154.66037033823886 L 135.2126544939415,153.0612751421484 L 132.40829857351048,153.5962216828495 L 130.33100664841112,155.5188565707669 L 129.40311018207353,158.20241084965872 L 129.3207296149335,161.0239017546269 L 130.5835964636479,163.59737417679153 L 129.4723171299509,166.1468046060053 L 128.05778302381756,168.6176002767001 L 126.4125867798795,170.99289015055314 L 124.45064909381148,173.0084485761238 L 121.8736107903031,174.2626480198283 L 119.68803487669372,173.00855213610828 L 119.35435711857153,170.1719683277317 L 119.50957569995903,167.32051399109466 L 120.47672687417348,165.0234910443272 L 123.28411736945618,164.48010684902118 L 125.4423282179336,162.6703374043991 L 126.25881110197196,160.01815996775235 L 124.99704985646471,157.67768276045874 L 122.18509953759566,156.86701396106457 L 119.33777582202218,157.11154278295604 L 116.75576556259358,158.38491457285625 L 114.9214497434751,160.51304232924454 L 113.6309680480273,163.0325442629513 L 111.14028768588504,164.44855874772057 L 108.56412401354724,165.72653248314973 L 106.06797227316876,166.66469463553148 L 104.36383009176525,164.40886360303088 L 102.05530035241028,162.69901429161453 L 99.40016839089307,161.65711243864286 L 96.5902413463683,161.08533991650333 L 93.74084269566443,160.7663992289316 L 93.36976680083002,160.00184430427777 L 95.78927379182464,158.41260381449896 L 98.04242986149124,156.67529289450613 L 100.12767154390112,154.73355874183244 L 101.96415550507214,152.51632607467738 L 103.4034783187907,150.09578760504752 L 104.47526317429177,147.44811633311335 L 105.0508593710898,144.65741541342663 L 104.85202860518221,141.82720752486796 L 103.67688779741108,139.2319612756654 L 101.95960127531664,137.3294628665329 L 104.69038432135434,136.9273454094287 L 108.02716190206078,136.16982300188369 L 109.36771658146746,135.87882010635334 L 111.53151708642324,135.38894057111474 L 114.84068381773724,134.57813234106828 L 118.44138048709229,133.6552195762377 L 122.30341788489112,132.61895999677643 L 124.38007837494162,132.06065415666126 L 126.44185625854837,131.50559259372895 L 128.65523278485068,130.88821667954483 L 132.58649131013766,129.76946049052344 L 135.8993055837535,128.91939389534872 L 137.80195562160057,129.27469788650296 L 139.610887802733,130.2688792985416 L 142.00755898868965,131.4966377950849 L 145.04498099772002,133.01007307169724 L 148.16091695255213,134.52975141835947 L 150.79358239374008,135.77644796992462 L 153.3730863200169,137.0231054861393 L 156.1927982107334,138.21280467252575 L 158.95722212953254,139.06679017145476 L 161.5903447886815,139.68608950700468 L 164.61138145574748,140.1438527855048 L 167.63683615189717,140.3553504597882 L 170.5021955052506,140.3131847511114 L 173.04294614392785,140.00995788073084 L 175.67338042011465,139.14069560514176 L 178.02310130790988,137.56655278951132 L 179.80142849774202,135.25397796893725 L 180.38407849926446,132.56782440600625 L 180.13899371295113,129.79080937140537 L 179.16027152531103,127.03992678499043 L 177.41596271789342,124.45814928919381 L 175.6807768111025,122.93909550385128 L 172.82766145182492,121.41904939660188 L 170.62964795908562,120.68627395337464 L 167.4660685144628,119.94728395013674 L 164.44057268708593,119.5564702957751 L 161.78059707142882,119.47588841693744 L 158.6469209370654,119.55639020446537 L 156.92084332005453,119.75183224552421 L 153.58402654977257,120.20858946167284 L 150.3656430298858,120.77597827557504 L 144.30959003825475,122.12501444462939 L 141.95123679786636,122.74021375491589 L 139.2702814490696,123.46934183880786 L 136.4508258657396,124.15222540733883 L 133.85844978482305,122.8464831417198 L 128.84952866594773,120.0149061474467 L 126.76654743727674,118.79997107327486 L 124.01494223299717,117.32304341706845 L 125.88273765857555,117.10470767990832 L 128.47611938307915,116.0563748962617 L 130.25212848217137,113.8136209915363 L 131.6787644125619,111.33191340578163 L 132.90783333450582,108.74351945322579 L 133.64838723087774,110.51983655470039 L 134.81913565716832,113.00074072451213 L 137.56413967141253,113.53685686458454 L 139.6393621813192,111.77869341787938 L 140.39939396306028,109.01453525388769 L 141.16908477017657,106.25499051210629 L 142.00371206992898,103.51290725463545 L 142.9393273705841,100.80583309932884 L 144.01198218040844,98.15131566404013 L 145.26043008450833,95.58321799050911 L 146.85831262933215,93.20394204981409 L 148.069423125322,93.00066435711287 L 147.6974949713309,95.83908581779785 L 147.2976572699133,98.67631669369958 L 146.90915659510884,101.51592909795485 L 146.57123952095736,104.36149514369956 L 146.37190070178224,107.21851887503684 L 146.36165324349633,110.0837263021249 L 146.55546588095658,112.93331891007438 L 147.62415939557687,115.5684021082134 L 150.02385806008786,116.98581725298004 L 152.88552111836282,117.11268175981498 L 155.47966249450272,116.03908551594526 L 157.25969107099252,113.79944409495413 L 158.67271942018132,111.30552553199645 L 159.900694545754,108.71911457270123 L 161.1343281920899,108.78346428686518 L 162.96182541765637,110.96509512452107 L 165.479280328068,112.30541763736713 L 168.29968760214774,112.75026838935858 L 171.0885419157113,112.1827693619916 L 173.4783028622528,110.63322805105207 L 175.45798882760477,108.56173494940316 L 177.12780958639732,106.23696922951864 L 178.59330367865246,103.77472208025897 L 179.92031939795154,101.23387930478296 L 179.82117264308863,98.76492471388592 L 177.51163247390625,99.83632321494646 L 176.22886497936346,102.39665110394898 L 174.8145087993005,104.8883475153703 L 173.14467666677308,107.20948540052598 L 171.12636625001986,109.23765874870557 L 168.52014396223416,110.31526265047573 L 166.7491661850087,108.529939121342 L 166.59917053215153,105.67541987594451 L 166.81310484024115,102.81788514430168 L 168.56696963206707,101.38483805936909 L 171.1968571502719,100.33775255770979 L 173.01904848038086,98.15799011863025 L 173.32843799940017,95.38039543829342 L 171.50979399678937,93.29666302135888 L 168.7241459441205,92.74025581067953 L 165.89805575681288,93.13361903069358 L 163.42262382104119,94.53487660260642 L 161.631563404625,96.75977834107796 L 160.468140941114,99.3691849650258 L 159.62442372727887,102.10680761922224 L 158.583346666978,104.77460908168209 L 157.448912558621,107.40625852044619 L 156.29191393762815,110.024329670214 L 154.9240374746755,112.54364979118016 L 153.05325957012977,114.63334396287337 L 152.514699821709,112.01755417808845 L 152.59632294680873,109.15608463399563 L 152.84900771839108,106.30533565693435 L 153.18048194309634,103.45962252041926 L 153.49587508501955,100.61169879279373 L 153.7003166082557,97.75431804240138 L 153.73806240433248,94.88744121272597 L 153.39400708377056,92.05157059540976 L 151.6703351908986,89.85512051889725 L 148.9173417976854,89.22730768653771 L 146.30702143694586,90.28786770439247 L 144.26123609413688,92.29120205168611 L 142.7078843110886,94.68774421045123 L 141.42705626678892,97.25532065485358 L 140.37688171120914,98.21867432409402 L 138.93849775387412,95.9205953295182 L 136.14606289940718,95.60714890168977 L 133.9829162238264,97.32228707098955 L 133.44156872787278,100.12486761935898 L 132.43118060687658,102.80334438855827 L 131.31509259632216,105.4424735322718 L 130.20358761901343,108.08853753493223 L 128.99904710343344,110.68271794621194 L 127.55805104281774,113.14976730154635 L 125.66871084789464,114.17616154441892 L 125.50373434792705,111.31866045867787 L 125.65750360530195,108.46324114714669 L 125.95746897008803,105.61508749107932 L 126.30236396142736,102.76798944702519 L 126.59092209846204,99.91573697153365 L 126.7426692041251,97.05524291291077 L 126.73666287495234,94.19009541827839 L 126.15847462185661,91.40457253551469 L 124.07868128808678,89.52420573438873 L 121.26569189589779,89.3560195664811 L 118.75571111736969,90.69040988311677 L 116.8806574320724,92.84926749877337 L 115.4155639208502,95.30425939263867 L 114.16981221644086,97.889051634118 L 113.3140195461767,97.79252952473092 L 111.5645005431004,95.74292581161899 L 108.74907177586275,95.7365938529118 L 106.86447461098811,97.72456442835319 L 105.97666535414712,100.43104484492983 L 104.66643273801633,102.97834770433896 L 103.20263687873437,105.44239975528465 L 101.46977456815713,107.71394862898593 L 99.34459829642405,109.62919350873972 L 96.61390087397069,110.2711918509881 L 95.3780034062505,107.86664083102414 L 95.31280976136149,105.0091234060959 L 95.6731896075429,102.16700388092016 L 97.94005340488096,101.28771405896853 L 100.4273112819245,99.92301410434041 L 102.00456981702435,97.57441670506634 L 101.85680074057548,94.78464615333871 L 99.68176836655653,93.03984699142576 L 96.84360768742755,92.74245843612785 L 94.06419181635478,93.35867849344118 L 91.71509302443425,94.97567173583003 L 90.06776701685826,97.30000722394765 L 89.06570354773451,99.98125026326042 L 88.65749247951464,102.81189397189894 L 88.81688870981999,105.66708601083974 L 89.66884127955261,108.39154344476198 L 91.36323898743946,110.67678654641297 L 93.7978077550415,112.15310537859659 L 96.59654912876145,112.74131071857255 L 99.4110402425863,112.34713235802533 L 101.87527758830295,110.90519953223334 L 103.91362665253364,108.90629183255069 L 105.64800790605086,106.62168670683182 L 106.55286429053496,106.48970285459328 L 106.62847398701577,109.3557434110279 L 106.97033149492489,112.1371964630897 L 103.91522074766017,112.79179678389735 L 101.36726177981022,113.83743648795583 L 99.13430344203036,115.35990686021044 L 97.16597016404644,117.38496180924143 L 95.79614140321746,119.84930320175599 L 95.09536312084461,122.99601854123088 L 96.05101297699079,125.30690657496515 L 97.46357857868072,123.48374372244707 L 98.99958643927273,120.96866222168543 L 101.006514153801,118.81621818391197 L 103.24223321046651,117.33235222683625 L 105.93294926082001,116.369689076405 L 108.8499120599579,115.8883354594375 L 111.69033565675562,115.93499465566644 L 114.08572466470463,116.4356080870915 L 116.4882260201724,117.2897432930896 L 119.46365596738079,118.68907060862244 L 122.29125402349344,120.1717903658668 L 124.79499835829512,121.56402214478032 L 127.21773636505333,122.99138410948302 L 130.0676777304696,124.74378104243783 L 131.11481677146114,125.84326826627478 L 127.99407439849902,126.78395888769724 L 122.60926565747783,128.33348494453463 L 120.39895535404706,128.95033431470347 L 113.9626839223978,130.81639309678792 L 111.5575240393088,131.4516825296808 L 108.80347185368352,132.1472707602062 L 105.93752506568251,132.80806945069105 L 102.85102364676551,133.42678725242985 L 99.87126135042155,133.94253825510071 L 97.32553193013919,134.2944365483819 L 94.68387430303176,134.55990655580962 L 91.6723164228706,134.82616900792527 L 89.04254168425092,134.9338106886105 L 86.5391995073955,134.8989317696321 L 83.20923598567379,134.7034614753993 L 79.83531310709303,134.40730871527083 L 77.20009285965936,134.07038239860543 L 74.58050370724293,133.42718062042414 L 71.7917258306349,132.4293122954444 L 69.45542452952782,131.1384969981177 L 67.48396651762917,129.02512336753347 L 66.49100167973765,126.47232070270287 L 66.99787252347059,123.66668591370806 L 67.4880606429019,121.25979077457988 L 68.96210771991541,118.80322652948574 L 71.09018279539731,116.8069703046343 L 73.6740617645402,115.52164477211745 L 76.4027278607497,115.1407332707974 L 76.73274453375872,117.8554491273372 L 78.08065125476628,120.18026431549558 L 80.89770118549372,120.41155427326365 L 83.2459751183173,118.96857230409704 L 83.36361127260943,116.12625921124199 L 83.26615541249873,113.26096897009849 L 83.1529665823128,110.39291300342958 L 83.09614183786842,107.52750070933938 L 83.1677782349824,104.67014148593164 L 83.28148621127241,101.80678183947558 L 83.3784256569167,98.94048100406353 L 83.5082089467781,96.0782597236267 L 83.69952883033922,93.22291286632544 L 84.79182810320994,91.26226252946616 L 87.65947857172945,91.18606904097592 L 89.36532860717415,89.5806585918124 L 86.76991194082193,88.9521230980595 L 84.00829225543868,88.77224870610111 L 84.84167593604228,80.22115167015563 L 85.17128552500819,77.37525838771847 L 85.57659467734219,74.53789485592611 L 86.35311983431615,72.06376157510229 L 89.20444010364412,72.27526361799721 L 92.06060771939518,72.5225038547278 L 94.92068265068653,72.74307885511232 L 97.7834492942933,72.8738077755338 L 100.64933412064347,72.88975756848737 L 103.50182914548928,72.65846550256083 L 106.2554152979275,71.89651319103078 L 106.33050738195925,69.79995714330202 L 103.53704358946999,70.2141615554385 L 100.69512797893577,70.54298660707285 L 97.83066919876178,70.51260279945771 L 94.97417243087914,70.35196336041534 L 92.1196659307473,70.11332482118317 L 86.40744071904726,69.60523066524961 L 83.55182812668531,69.36843393162667 L 80.6932559722969,69.17749438428788 L 77.8313065721972,69.05976762453503 L 74.96954479168569,69.10477673740641 L 72.10334210550684,69.26546908696756 L 69.25921905753977,69.60653399357473 L 67.13506117526222,69.61644243820994 L 68.16129710202752,66.95745496944912 L 66.86926937533886,65.20888324635364 L 64.52099313432944,66.86126014082524 L 62.06794577158745,68.640974509195 L 59.89437822773243,70.36707466411217 L 57.6153474975438,72.38857646424191 L 55.822344948974795,74.3462118640496 L 54.052598611424955,76.74727488178058 L 52.51513174604148,79.29071346612581 L 51.56751627286463,81.48824303776703 L 50.52337533124007,84.68030369076077 L 48.76655082104931,86.65376430550705 L 46.421549311520806,88.11457370194204 L 43.879275240115895,89.80902697006587 L 43.14833959840475,89.21240922904647 L 44.128373855458236,86.51003713266967 L 45.327312863744204,83.87286923270271 L 46.66902896620391,81.5469427084904 L 48.265126454377565,78.87466285548977 L 49.722425984354246,76.62715813648373 L 51.417183692747756,74.19054096818459 L 52.90105717604772,72.1943023860904 L 54.945661055296526,69.65815640775457 L 56.635490635792074,67.6998447234152 L 58.64164452415004,65.57074062819832 L 60.882162282200376,63.28804635692296 L 63.043262671797436,61.21006316320493 L 65.16321005094537,59.36932550284559 L 67.33945139934886,58.29776377568979 L 69.74259854630317,59.5560245899524 L 72.20617225060106,61.656176947250565 L 72.69405037783193,64.1484146040369 L 75.06354413148257,65.11122071430032 L 76.6467649679202,63.06278456907568 L 75.54928661634915,60.63750231958928 L 74.39059614114574,59.46645351892841 L 77.38834024653741,60.37489012355448 L 79.90482850961715,61.40985160866625 L 82.71902781931705,61.80679547573211 L 83.90800818427797,59.401561989149926 L 82.18033060823143,57.893497865412236 L 79.09435843429229,57.997843982479196 L 77.57945751121609,56.955165700694785 L 80.52478292641943,56.71131484258451 L 81.7478460102709,54.28771254797115 L 80.18190364895543,52.51938466280555 L 77.62074605098547,53.9252360966734 L 75.0138188989948,55.14212466893232 L 72.36473183987643,56.03446052850158 L 69.8692867581899,55.65409509829757 L 72.02215633730177,54.11342221978839 L 74.8476042873644,52.2466450629404 L 76.84510300438914,51.005057696652024 L 79.38759977860653,49.56863039700644 L 82.07386331709174,48.17029627521018 L 84.63114347703392,46.90492928804695 L 87.39527471744779,46.657061523475235 L 90.22417713996863,47.03559805726666 L 92.92348887918821,47.66952167130334 L 95.79264412490973,48.54866357509023 L 98.63680069565572,49.511141817043296 L 101.03322179494646,50.492781934092505 L 103.74613677812854,51.67150782492575 L 106.5682994427377,52.55496630472786 L 109.20279581866812,52.83899796710052 L 112.35948988843265,52.761289141229334 L 115.1196406209182,52.461015286269806 L 118.03480542870263,51.94274779432432 L 119.4296363451083,50.07603053015518 L 117.40072521124674,48.52803300826117 L 114.62873213037408,47.74142873157987 L 111.85134385482498,47.112119100221335 L 108.89392607235571,46.70985322782041 L 105.94997808079346,46.499222661707726 L 103.09702860415668,46.465565853628036 L 100.18625718493968,46.74182467784293 L 97.71717443126462,46.25372976125882 L 94.62114145085636,45.11096754442645 L 92.50224302861685,44.132692644599175 L 95.31761770889622,42.87572218416017 L 98.07435277116679,42.07727371728613 L 100.7059728283569,42.802422370798446 L 103.43166816323293,43.63300591366068 L 106.27952651677992,44.23073357709092 L 109.1357105330648,44.43164377442769 L 112.17488833432776,44.28064292110659 L 114.92685882646215,43.64776069561496 L 117.02466155054202,42.871016255469485 L 119.70176439227684,41.55302180988352 L 122.63829389039375,40.09421811569643 L 124.81033990397039,39.02135427444894 L 127.73014341244759,37.76896495750047 L 130.61115200585755,36.82025363234554 L 131.7944427820376,34.99187739019129 L 129.25079596753915,33.88653754521996 L 126.41103780307763,33.235421323021356 L 123.48905360385184,32.78171119545176 L 120.3583230878292,32.41658745040384 L 121.66517521087225,30.94535531430686 L 123.9523665589379,28.494483771364173 L 125.94216861559171,26.587995890703183 L 128.282644460663,24.917838010089405 L 129.84108970811837,22.796887936844815 L 127.88105754226676,22.027294371309864 L 121.47663961283051,22.88257994187353 L 119.08125409206924,23.39913134800733 L 116.27192002548574,24.231139452984333 L 113.58036168000771,25.16749184687621 L 110.95091807477122,26.314769335238303 L 108.38618547090222,27.73942571498481 L 106.10688651443797,29.342157057485437 L 103.96038920478694,31.071111615644366 L 101.65996742791961,33.06746841584256 L 99.49822029732586,35.08927404906572 L 97.52968636840144,36.84533734982075 L 95.21351125040586,38.52176113183184 L 92.67241149945912,39.93998246947805 L 90.02662465821108,41.10167783491822 L 87.35340807028682,41.993600371633434 L 84.88696883519025,41.635113673869796 L 82.3290079072746,42.00071052138258 L 80.03692104104032,44.1145376284327 L 77.81255105122715,45.80316044496877 L 75.0731992734265,46.82012631237864 L 75.76032742606571,44.434239900624604 L 76.9888399082537,41.67613270559787 L 78.49067345212144,39.22320610106718 L 80.90904230524082,38.11949401535841 L 83.88085641163468,37.8758225532706 L 86.4958868769459,37.054514556065314 L 89.17822600936395,35.944101071737535 L 91.81410796562764,34.656159723724784 L 94.29777387866076,33.2205125417763 L 96.41662831277979,31.404487229914267 L 94.82999249280147,30.017894790857028 L 91.83520131528539,30.56948128289116 L 88.7847607725323,31.10851142851713 L 87.6259527132605,30.886964529902887 L 89.55133185402225,28.648109892350593 L 91.43448427884542,26.32970098438342 L 92.95642639940507,24.264176973201444 L 94.5104795528749,21.6563373352447 L 95.8893086556174,19.09871291253947 L 97.07963192368418,16.523383310728754 L 96.84768821750532,13.944113803178432" fill="none" stroke="#000000" stroke-width="0.2692215020724209"/>
</svg>
