<?xml version="1.0" ?>
<svg xmlns="http://www.w3.org/2000/svg" xmlns:ev="http://www.w3.org/2001/xml-events" xmlns:xlink="http://www.w3.org/1999/xlink" baseProfile="full" height="600px" version="1.1" viewBox="0.14663071107357212 -0.0005 0.7067385778528558 1.001" width="424px">
	<defs/>
	<path d="M 0.7935903130683148,0.600230556772687 L 0.7930632281767631,0.6102933979463565 L 0.791972480017406,0.6202854842699006 L 0.790470980230043,0.6302174685839583 L 0.7880616560768593,0.6399404523296768 L 0.7842229624418647,0.6492701580314467 L 0.7763022698165339,0.6545462174061444 L 0.7674223808036118,0.6494619200501032 L 0.7657823562075007,0.6402705339601715 L 0.7677905504195205,0.6305343663117874 L 0.7725724142952893,0.6217189248972279 L 0.7788274706111935,0.61388035927547 L 0.7858185740974035,0.6067587630504008 L 0.7935903130683148,0.600230556772687" fill="none" stroke="#000000" stroke-width="0.001"/>
	<path d="M 0.6868937014637386,0.5246373192224429 L 0.6875919060550879,0.5336398667778808 L 0.6833820263828285,0.5423546250489601 L 0.6788807061057774,0.5404119560660132 L 0.680357325584908,0.5309797389483779 L 0.6868937014637386,0.5246373192224429" fill="none" stroke="#000000" stroke-width="0.001"/>
	<path d="M 0.6113125783065072,0.5244480451382924 L 0.6120107696080024,0.5334505289404521 L 0.6078009501751804,0.5421652350978625 L 0.6032995488191225,0.5402229013846687 L 0.6047761008578945,0.5307907775937483 L 0.6113125783065072,0.5244480451382924" fill="none" stroke="#000000" stroke-width="0.001"/>
	<path d="M 0.5655266663743093,0.538593696111768 L 0.5698344808103613,0.5449238804766174 L 0.5648507372412561,0.5517100671070791 L 0.557205564891636,0.5532689948243409 L 0.5602718495961279,0.5451240962446702 L 0.5655266663743093,0.538593696111768" fill="none" stroke="#000000" stroke-width="0.001"/>
	<path d="M 0.48377216350750873,0.5884042265676067 L 0.4825727550192346,0.5984618464233261 L 0.47978831906613695,0.6082775445029596 L 0.4760519867940203,0.6177198317397279 L 0.4715036884020765,0.6267800693479939 L 0.4660065182481802,0.6352485428701385 L 0.4597382454219134,0.643227949966774 L 0.4521001961508987,0.6498836786793523 L 0.4426589057123755,0.6534247124802504 L 0.43467054351089457,0.6474636488847554 L 0.43416841286904356,0.6377827854935166 L 0.43845222367361375,0.628589545470375 L 0.44449741287170336,0.6204553821471319 L 0.4512848641137887,0.6130419594831766 L 0.45877656054912613,0.6062126952980789 L 0.46683092112222724,0.5997991105287669 L 0.47514605784716807,0.5938823232140499 L 0.48377216350750873,0.5884042265676067" fill="none" stroke="#000000" stroke-width="0.001"/>
	<path d="M 0.46692770680771856,0.46137649117764606 L 0.4741525307875704,0.4684523914847804 L 0.4762416566590041,0.47875837089739437 L 0.47572649487278734,0.4892620070974915 L 0.47289184401711104,0.4994673384142473 L 0.46843591285273845,0.5090733016237945 L 0.46299761607237,0.5181332725012878 L 0.4566101943700881,0.526490178021172 L 0.4494340543684133,0.5341656895511803 L 0.4413481312970558,0.5411323631245605 L 0.4325092154658373,0.5470004771124212 L 0.4362948813180469,0.5531036245792836 L 0.4468993655923988,0.5533576307301632 L 0.4573198007399319,0.555124815562851 L 0.46751725816039685,0.5590574754347671 L 0.47606099858702877,0.5653233248946814 L 0.4817345272897898,0.57368294119618 L 0.47927467404507085,0.5818289071771121 L 0.47026492432064454,0.5876277428838034 L 0.4615581036764743,0.5937155445333242 L 0.4532887957040646,0.6001762022369391 L 0.4453121955570133,0.607175292573926 L 0.437859441785629,0.6148016682341063 L 0.4314719045736054,0.6230180449211689 L 0.4263038806037145,0.6321979817372014 L 0.4245645692584869,0.6425676711883928 L 0.4271375747387837,0.6520467062586274 L 0.4352513577324164,0.6588850895075595 L 0.44592460602300577,0.6608197804572324 L 0.4563470418933351,0.6594007715695371 L 0.4662011556848397,0.6552044746268711 L 0.475059002689505,0.6493490563830135 L 0.48272516830140016,0.6423304105892795 L 0.48948954508445497,0.6342355566892393 L 0.49525546305135565,0.6253766219792928 L 0.49992782595455987,0.6159041672440468 L 0.5035543679683085,0.6059653558344964 L 0.5059565661781964,0.5956771307223307 L 0.5069948809388025,0.5851610114121827 L 0.5076871292942438,0.5751319778155416 L 0.5170586006120165,0.570198239597908 L 0.5265384597390966,0.5654618843316367 L 0.5297672166957232,0.5703848864448794 L 0.5310541508802826,0.5808634834035524 L 0.5352128937427874,0.5905006668546183 L 0.5425353214121468,0.5979672717105983 L 0.5522802861158065,0.6020997477393037 L 0.5627884245237471,0.603069995437703 L 0.5728963797432414,0.6000370260455239 L 0.5813128449057754,0.5934643466359263 L 0.5883213526359767,0.5857060060825996 L 0.5942798613764253,0.5770040518762183 L 0.5996058603178789,0.5678582184878023 L 0.6056605010700626,0.5620550896165315 L 0.615927106439706,0.5645268925243907 L 0.6210114051749127,0.5712235542740528 L 0.6188891316723157,0.5816125274066287 L 0.6171119864467889,0.5920474651154963 L 0.6163692703679471,0.6025823167715817 L 0.6178255613534572,0.612969869088792 L 0.6242408079340593,0.6209714257953135 L 0.6346925335261939,0.622702200878973 L 0.6444885864264994,0.6188925819174519 L 0.6517852829704183,0.611223763439201 L 0.6578997541573017,0.6026492735364483 L 0.6632895948930667,0.5936201143963796 L 0.6680572249040336,0.5841982595071464 L 0.6730111467913821,0.5748376840376527 L 0.6777733061226383,0.5653775675825494 L 0.6856097796038535,0.563333751032718 L 0.695851187921174,0.5660559767775749 L 0.6956833211854532,0.5758168778522766 L 0.6936454035770274,0.5862295677466504 L 0.6922398490905229,0.5967021242423245 L 0.692211375513727,0.6072508507152885 L 0.695427903328045,0.6171547941837657 L 0.7042101776915604,0.6225997617010232 L 0.7147042500493818,0.6218711814028941 L 0.7233243938197211,0.6159865922445826 L 0.7300397227346432,0.607864904775524 L 0.7356557483657927,0.598941369940743 L 0.7409380504340369,0.5898186730305217 L 0.7458357761157586,0.580435870053316 L 0.7494890398941125,0.5868416017075707 L 0.75743995475905,0.5931261505767369 L 0.7681629218638272,0.5937180878063435 L 0.7768461067497718,0.5876931382075208 L 0.7831510900232157,0.5794244685087643 L 0.7883111967720103,0.5701549605934365 L 0.7929639172322105,0.5606971067382865 L 0.7936380958266384,0.569337999146032 L 0.793629717196419,0.5799196529639269 L 0.7929125789422758,0.5902241586037689 L 0.7846045321138644,0.5970263354364183 L 0.7767017208031035,0.6041284183788899 L 0.7695192330527475,0.6116914446366907 L 0.7632901339100336,0.6201589916888242 L 0.7586180403910955,0.6296692888259761 L 0.7564734424998414,0.6399734183385788 L 0.7578590852380988,0.6502817127314098 L 0.7556229513449364,0.6579806668249821 L 0.7467347323932854,0.6644629705014038 L 0.7392729587061261,0.6700130618771283 L 0.7287250579555445,0.6768865686099582 L 0.7208055016743646,0.6819097052791492 L 0.7119772319607065,0.686739393667532 L 0.7022691927714425,0.6919124991125969 L 0.692652347534058,0.6967049054158305 L 0.6837599267179008,0.7007348323375977 L 0.6732555403838073,0.7049594365153918 L 0.662485241753669,0.7089725809295623 L 0.6529592057857665,0.7121473504763088 L 0.6433888910563503,0.7149381452429981 L 0.6331512400742781,0.7175908684968316 L 0.6218310964617426,0.7202186833883263 L 0.6123733165502447,0.722208630485118 L 0.6027018598449545,0.7237678172565531 L 0.5905812343263727,0.7251372746447297 L 0.584288172832409,0.7259166829154712 L 0.5739922147911328,0.726251174249605 L 0.5590201434928619,0.7264341308049483 L 0.5447610535729803,0.726462965931189 L 0.5360359777456682,0.7263795722511167 L 0.5293671891158778,0.7257156577222259 L 0.5165197880990134,0.724272768733128 L 0.5067760337959675,0.7229315714727378 L 0.4966239002930158,0.7209373167179745 L 0.4873522124402955,0.718967476790775 L 0.4756526849157213,0.7160697180897665 L 0.4651149791654067,0.713122593174254 L 0.45565360104707886,0.710354292804899 L 0.4469190353812471,0.7036552484047447 L 0.4392310620882886,0.696858290215876 L 0.43259692156152146,0.6879929097851718 L 0.4264081407200864,0.6809685474818848 L 0.4189187625766141,0.6867320464722919 L 0.42440460843920197,0.6956815391616208 L 0.4195283793124212,0.695041457094449 L 0.4095474781928709,0.6893261643369795 L 0.401129745910434,0.684262349998278 L 0.39173433343340036,0.6785337282784024 L 0.3841036182363182,0.6721032399095597 L 0.38125348641463164,0.6620374564322883 L 0.380236874412459,0.6513951633664282 L 0.3811773461447321,0.6425986252551065 L 0.39071063593848065,0.6453771214852625 L 0.4029131584005647,0.6460920036867638 L 0.4121771512453729,0.6442068073443733 L 0.40961534836972047,0.6356169150192524 L 0.40683499925485406,0.6297128732118232 L 0.40785432681093325,0.6192183694145328 L 0.40854366674865844,0.6086620680014275 L 0.4091080847156057,0.5981033682712156 L 0.4099003726260406,0.5875571908466618 L 0.41091907188554977,0.5770152103826752 L 0.41220586172107004,0.5665098769065658 L 0.4135908032938612,0.5560141326016355 L 0.4150609479625889,0.5455460637861872 L 0.4172218859205667,0.5351820314733772 L 0.4195254581221751,0.5248564652098492 L 0.42226054784151695,0.5146349612364267 L 0.42553133462235754,0.5046441052816633 L 0.4296072525837933,0.49484719406407685 L 0.4344048400109995,0.48544051265076643 L 0.440423776912298,0.47675798909797606 L 0.4475672420954751,0.4691956970214349 L 0.45653200904845004,0.46357589809804933 L 0.46692770680771856,0.46137649117764606" fill="none" stroke="#000000" stroke-width="0.001"/>
	<path d="M 0.35307081614744407,0.43003764227846486 L 0.3589957902106884,0.43979362573938013 L 0.3663532328985696,0.4470954153264247 L 0.3747555873855573,0.45275333126471556 L 0.38373342124172544,0.4564265999961562 L 0.392488866252829,0.45899928594873707 L 0.4024766627740381,0.4607983192405378 L 0.41510755569409397,0.46218552071837177 L 0.42490539753178236,0.46320920946329514 L 0.4357647191761857,0.46335162874039565 L 0.4390889081121563,0.4661265233070835 L 0.4319991788365332,0.47395035897304466 L 0.42628762053945796,0.48277489116395605 L 0.42141386542208836,0.49213967764584954 L 0.41723692243895066,0.5018420042630101 L 0.41400008498285296,0.5119057280517298 L 0.41112305228140783,0.5220495984069378 L 0.4086767471861914,0.5323300643877472 L 0.4066656447585319,0.5427183532331763 L 0.4049413745662219,0.5531253823618273 L 0.4034323649343276,0.5635829245440984 L 0.4034212096764088,0.5559767125052094 L 0.40393475185090916,0.5454218630225729 L 0.4049626364089444,0.5348974880949737 L 0.40595471170518443,0.524376804833801 L 0.4072291352845239,0.5138785215384105 L 0.4086206018891211,0.5033966975311774 L 0.40933777033897917,0.492886170012082 L 0.4025997635466669,0.4859912983631185 L 0.39203525797841493,0.486010911186993 L 0.38507411306607076,0.4933070674348649 L 0.38320948519789944,0.5037139253288445 L 0.3818257251787011,0.5141991437501977 L 0.3808749732955943,0.5247191489978843 L 0.38019450291333934,0.5352529643983255 L 0.37976552952030224,0.5458081044906553 L 0.3795926024010736,0.5563742458673612 L 0.37964690833316317,0.5669416483978964 L 0.3799221575882673,0.5775070835856453 L 0.3804120604380825,0.5880673229339918 L 0.3811103271543053,0.5986191379463199 L 0.3821085658746207,0.609139464270994 L 0.3835093210734928,0.6196319633818678 L 0.3844916628754994,0.6294030479223294 L 0.37972209758542275,0.6212536042632771 L 0.3748152064106785,0.6129559257725992 L 0.368001286707831,0.6046381462336375 L 0.35940903161404214,0.5959649788272797 L 0.35186506927345235,0.5895336195646499 L 0.343676554230891,0.5892767258937277 L 0.34421478699810604,0.59942807856739 L 0.34809614079844253,0.6090580280916402 L 0.3543682081275745,0.6187354438692177 L 0.3607329568194356,0.6263477279579233 L 0.36830589947694564,0.6336983287900563 L 0.37034578421334285,0.6435605788967171 L 0.36939059025663434,0.6530174839886388 L 0.3671869247592486,0.6606126112640023 L 0.3497038257419109,0.6484004368527613 L 0.34193681972590106,0.6419018247115856 L 0.33431469971322825,0.6332393955197418 L 0.33240194621889113,0.6245628672606748 L 0.3332043516021004,0.6135248414449241 L 0.33625089472859426,0.6030608205932595 L 0.33806878109088484,0.59271816914093 L 0.33940596352480656,0.5822577657738992 L 0.3395544348748384,0.5717398460101286 L 0.33780121977397515,0.5610024805511533 L 0.3347256190402895,0.5515154417924866 L 0.329317779858538,0.5418396136368396 L 0.32291754076912704,0.5343482550614348 L 0.3146813195671848,0.5253461570307665 L 0.30923571836639563,0.5179659269879535 L 0.3028700035314613,0.5186596945643309 L 0.30204124297630847,0.5305970775524562 L 0.30184944013674436,0.540947914647941 L 0.3023779488214082,0.551613054047827 L 0.30359769088138444,0.5631934907504451 L 0.3053160435729888,0.5723785085507622 L 0.30811789077435775,0.5821513156366432 L 0.31198969127724574,0.593630086189817 L 0.31526163300690313,0.6024077020338622 L 0.3190004735885913,0.612856363401472 L 0.3214910922011954,0.6217805894667553 L 0.31487492645420534,0.6139366085366832 L 0.3028326066353545,0.5975684703480927 L 0.29472439753411117,0.5866582162019223 L 0.2894035703891807,0.5792515413545961 L 0.2859067728179186,0.5708087466776337 L 0.2854377406888222,0.5579224152168142 L 0.2774141308169924,0.558031431134229 L 0.2731975737297224,0.5504141073416593 L 0.26781559832655943,0.5390205184970138 L 0.2638639263180064,0.5299106826132156 L 0.2605418187935935,0.5202244364711838 L 0.26282609071906815,0.5101961925609284 L 0.26634306685189413,0.500570241866476 L 0.27074791426661815,0.4898465897151893 L 0.27658030677463624,0.4812104249194307 L 0.2857968137616622,0.47719568648164407 L 0.2949730525928479,0.4744962825811122 L 0.306253392834437,0.4706488987739755 L 0.3155337234564175,0.4665072906270233 L 0.32409657101957823,0.4614002172208086 L 0.3323802001313955,0.45419412829088135 L 0.3407577243215547,0.4456886879674525 L 0.3467123087416775,0.4386620436811668 L 0.35307081614744407,0.43003764227846486" fill="none" stroke="#000000" stroke-width="0.001"/>
	<path d="M 0.4753664354292916,0.302045098744818 L 0.47847439714945944,0.3095807188370639 L 0.4710546066764293,0.3155922458049722 L 0.4700039189161745,0.30995669968174366 L 0.4753664354292916,0.302045098744818" fill="none" stroke="#000000" stroke-width="0.001"/>
	<path d="M 0.5600541330429258,0.2898237413904317 L 0.5588727803324901,0.30003455583595234 L 0.5575014584487323,0.31020782601198554 L 0.5560270910064367,0.3203790371830515 L 0.5546616797369845,0.33056469222365414 L 0.553684015279093,0.3407888653453571 L 0.5532924336446063,0.35105884713401847 L 0.5532736130928725,0.3613338391774829 L 0.5550632445532899,0.3714008039918705 L 0.5537452327579895,0.37535468078096934 L 0.5431128894111268,0.3704087339018265 L 0.5344279150639932,0.36719756517515 L 0.5280207335180293,0.3643327671666331 L 0.5308355515211627,0.3544483218430483 L 0.5335620542644739,0.3445425091301254 L 0.5365162452892317,0.33469653779890657 L 0.5397722335200521,0.3249352409339991 L 0.5434899070876622,0.3153562739547167 L 0.5478086415147658,0.3060534161813629 L 0.552942160662369,0.2971729518238916 L 0.5600541330429258,0.2898237413904317" fill="none" stroke="#000000" stroke-width="0.001"/>
	<path d="M 0.5789208204582164,0.36708386832158935 L 0.5789208204582164,0.36708386832158935" fill="none" stroke="#000000" stroke-width="0.001"/>
	<path d="M 0.7115387627299655,0.40786263974641385 L 0.7218613432255071,0.40823886609505794 L 0.7327786064450811,0.40947144400791124 L 0.7455361476678072,0.411803872942238 L 0.7550009996865195,0.4150728780685868 L 0.7626737003417189,0.4198852338017174 L 0.7703356795383995,0.42776562979196864 L 0.7714885427537902,0.43650285941315853 L 0.7657036199727262,0.4451585994107764 L 0.7573466033751999,0.4504054958993402 L 0.7465419634166471,0.45316840080857196 L 0.735486603979047,0.4540170118014921 L 0.7243387439547416,0.4537014101161217 L 0.7151119923854631,0.45241066143522507 L 0.7040739388092403,0.4501933506734398 L 0.6938125830586662,0.4471151801499396 L 0.6835531374823492,0.44313671334892923 L 0.6761941248379703,0.4401339702895695 L 0.6642163282218674,0.4345776285542646 L 0.6551930597696086,0.43007665709373977 L 0.6445481049191616,0.4246429062131665 L 0.6383012234046045,0.42025054674395407 L 0.6490309566573251,0.4174358836608342 L 0.6584495388510113,0.41540329316984803 L 0.6710172508364034,0.4126388247371425 L 0.6827005598168616,0.410462152539354 L 0.6932044777394004,0.4089048376473197 L 0.701814137009254,0.40808074276330425 L 0.7115387627299655,0.40786263974641385" fill="none" stroke="#000000" stroke-width="0.001"/>
	<path d="M 0.7399443955916399,0.3019350259647214 L 0.7431544701856133,0.3095758498476571 L 0.7357031907286019,0.315611116097362 L 0.7346441727835872,0.3099828780341443 L 0.7399443955916399,0.3019350259647214" fill="none" stroke="#000000" stroke-width="0.001"/>
	<path d="M 0.39333579253195844,0.21383332633289528 L 0.40396548081051104,0.21400798404047555 L 0.4030859389128112,0.22373552669293467 L 0.4016550065947105,0.2342702565428225 L 0.4004068576335079,0.24483118034027318 L 0.3992067915597573,0.2553982595106661 L 0.39824444422315275,0.2660304019972198 L 0.39720048381083073,0.27656171138510643 L 0.3882292058759952,0.2786890143168662 L 0.3780967448565845,0.2809362048628402 L 0.3830036258982993,0.2875722840300846 L 0.39364188662332,0.28769635136094923 L 0.39579650744266304,0.2960042388334637 L 0.39519588327087996,0.30661564860935214 L 0.39455726366138044,0.3172266910006704 L 0.3940859756493319,0.32785163201131373 L 0.39379891977272063,0.33848243673646045 L 0.39365841694622195,0.34911408322073495 L 0.39372354842042384,0.3597470230302883 L 0.38716401019151364,0.36397275301366805 L 0.37689316011920626,0.3659731597681125 L 0.36788498379903806,0.37094272322839666 L 0.3603146044602572,0.3778290415756139 L 0.3546696110830274,0.3862517761933814 L 0.3509479083591117,0.3962140408176517 L 0.3485017068627172,0.40702169741798033 L 0.3391226140450856,0.4109464124653805 L 0.32895186547144956,0.4145988664591081 L 0.3186378485954631,0.4192143200648565 L 0.31032300391366296,0.42390429501323673 L 0.3016114718373535,0.4308289133015919 L 0.2934633105379528,0.43888548025736607 L 0.28827440232492546,0.44375843855737446 L 0.2890115494095511,0.4356693944452937 L 0.289485298959532,0.42384548727776095 L 0.289865800891552,0.40933330576629023 L 0.2903458256383211,0.39681772029059537 L 0.29094575591797517,0.38990454798468516 L 0.2888441236693029,0.3803834096914471 L 0.2811931909636807,0.38656355831026334 L 0.2746535898680307,0.3956289990755495 L 0.268548429418053,0.40403788803878493 L 0.26364968749326817,0.41328756941032496 L 0.26035822027945077,0.42319775649568386 L 0.25875440007853157,0.4340595281405974 L 0.25760095890503204,0.4444806489963995 L 0.2587606342316982,0.45526181100498236 L 0.2611635860197243,0.46510685281384767 L 0.26601199683505655,0.47535422230919966 L 0.26214638036751337,0.48483658496490806 L 0.25769552168162974,0.49424942150803836 L 0.2537411717648806,0.5014222511951938 L 0.25128874388266664,0.4909372907774195 L 0.24896034805044187,0.4797317982983188 L 0.247235178331395,0.4691517422876134 L 0.2461460504322599,0.45900193898333763 L 0.24506226739098166,0.449399441185651 L 0.24421446076626735,0.43833805313323876 L 0.24371942338672659,0.4281804915304079 L 0.24333200020056475,0.4167030200928506 L 0.2430686631499797,0.4018697454547806 L 0.24452276754028376,0.395850757569238 L 0.25419309688803254,0.3906999138116679 L 0.26110555699870336,0.3847961673987229 L 0.26946536131890453,0.3764496146524248 L 0.27648912830854216,0.3685198509253854 L 0.28304706294238896,0.3601983186468465 L 0.28832715300203277,0.3523122151508781 L 0.2949806579912873,0.3418735471481352 L 0.2998365571658956,0.33311966829578193 L 0.3039285982920443,0.32486601281225064 L 0.3091708102150585,0.31409561791313767 L 0.3142231236451861,0.3025411635380864 L 0.31161284131204425,0.29623845763305606 L 0.3005084867908236,0.29752700581498354 L 0.29061105959402567,0.30109344479714917 L 0.2814013201755195,0.30600134222003955 L 0.2719879418950382,0.31207242321711903 L 0.26393217156000776,0.3185387544148428 L 0.25658836089949827,0.3265567084645652 L 0.25015571008246457,0.3351255272915506 L 0.250762274021717,0.3285583822521539 L 0.25370418304982584,0.3187039899997538 L 0.2582347283297369,0.309518654560917 L 0.2659938987076846,0.30143867873008273 L 0.27376472754272974,0.29555873764820906 L 0.2841941026163627,0.2886261338758897 L 0.2917419505037006,0.2839379536944675 L 0.30207006120429936,0.2782586205647833 L 0.3119976656136846,0.27587392922942283 L 0.3217884377683039,0.2735359560602797 L 0.3316097537442197,0.27207141569363713 L 0.34118137709672747,0.2763975107149335 L 0.3508439345452182,0.27368614108360007 L 0.347822303287132,0.2648963390654001 L 0.34609937478542935,0.26243524026218756 L 0.3552990578138854,0.2565554129725119 L 0.3626771841025166,0.2508130590762004 L 0.3706168681092308,0.2432915140520098 L 0.37749499927418384,0.23440225856799296 L 0.3769856619800087,0.2251694024613745 L 0.3667902577991205,0.22781511914732575 L 0.3563852386904829,0.23029205288407711 L 0.34763375100864985,0.23142603832796652 L 0.35292040488787,0.22185275279319128 L 0.3617295606128531,0.217367732487444 L 0.372097517924991,0.21524062744729966 L 0.3826682651843444,0.21414836671997875 L 0.39333579253195844,0.21383332633289528" fill="none" stroke="#000000" stroke-width="0.001"/>
	<path d="M 0.37434589599124846,0.2464704378983688 L 0.37434589599124846,0.2464704378983688" fill="none" stroke="#000000" stroke-width="0.001"/>
	<path d="M 0.2986283315552455,0.20731448841920772 L 0.29295277979388357,0.21538541635545605 L 0.2872257288398782,0.22360623335373803 L 0.2821824616393965,0.23018955672467042 L 0.283334333555465,0.2193596678136163 L 0.2894927237670871,0.21248461220511228 L 0.2986283315552455,0.20731448841920772" fill="none" stroke="#000000" stroke-width="0.001"/>
	<path d="M 0.4696331552240506,0.0 L 0.45987104749844765,0.0029208587626309845 L 0.4505898445672237,0.008598693051046016 L 0.44200045306463265,0.01529527011605473 L 0.43407353425534334,0.022589638832064787 L 0.42681806441904113,0.030447557824380994 L 0.420628106898216,0.03846619271124273 L 0.41460648143901374,0.04751565700815808 L 0.40944465740681374,0.056323615890390845 L 0.40436882887654624,0.06611320485506322 L 0.40002851963079095,0.07606644853603821 L 0.39490785464036987,0.08470683771290323 L 0.38970554692776227,0.09318639829531378 L 0.38477066631397033,0.10324302805329238 L 0.3799387132681298,0.11331938305502143 L 0.3753419165891928,0.1230363842463821 L 0.3702037211215987,0.13157561167574397 L 0.3704717073695671,0.12028023188998635 L 0.3712647418419842,0.11002002851055644 L 0.37738617683127995,0.10171662933028291 L 0.38315918194963006,0.09316760313765128 L 0.3879974963651076,0.08338844115986611 L 0.39268038046354625,0.07304331181436477 L 0.39433360763769376,0.06442334302369801 L 0.3943973891412298,0.0509098681908873 L 0.38924293460262716,0.04756430425506194 L 0.3819259570153484,0.05564899363103749 L 0.3751989697909252,0.0638600064906629 L 0.36984639689846033,0.0733002130375186 L 0.36623877409643485,0.08345378514633155 L 0.36411898839178447,0.09402189269603554 L 0.36274196352478044,0.10460326535595 L 0.36176677570626947,0.11450784042558976 L 0.36076383289965325,0.12620991418036137 L 0.3588251145220078,0.13615773406865184 L 0.3554056341586852,0.1460472611092378 L 0.3499167596463666,0.15491852290813893 L 0.3419739854070857,0.16177344783971606 L 0.33491729249328317,0.16821337052040955 L 0.3264540185625858,0.17650287516478289 L 0.3177981791875189,0.185366592275039 L 0.31147865212379944,0.192075625293419 L 0.30603340336475715,0.1967124916693768 L 0.29821259211034645,0.19165360903729087 L 0.29004874898991545,0.19835812465150196 L 0.28249159221913245,0.20301669484083285 L 0.2845949936297121,0.19222440256131534 L 0.2897171324856923,0.18290525353733375 L 0.29682368344716925,0.1749654228132704 L 0.30475763602422246,0.1686648633546351 L 0.31403623261453595,0.16223142665410303 L 0.32204263901616154,0.15605196612034364 L 0.3300288003792311,0.14817870018053872 L 0.3362589584374135,0.13983047612429286 L 0.3405606666806043,0.13036217811213616 L 0.342899368021243,0.11893589204670142 L 0.3459243270069985,0.11005885137634717 L 0.33722235178233906,0.1062904566815683 L 0.32660371349688916,0.10772046746241061 L 0.3164006874307763,0.11049963047951693 L 0.30722181489544653,0.11535834068549398 L 0.30169161202133316,0.1186781676598286 L 0.305973455687763,0.10896259110863012 L 0.31181929300541444,0.0987915746735023 L 0.3203438552231827,0.10023296335541863 L 0.3309937477168059,0.10071795622559788 L 0.3317688407258157,0.09031918060558325 L 0.32618131225594094,0.08204473230237411 L 0.3208701277871227,0.07594291261732528 L 0.32069709211357744,0.06410612965966417 L 0.3193671018423009,0.05430016636094577 L 0.3137186179962025,0.04701264329049084 L 0.30895967929255314,0.055957222372828255 L 0.3062450275832113,0.0661653129157017 L 0.3056818797863826,0.07709156279660319 L 0.30513303627093746,0.0873393075942282 L 0.30099543384529315,0.09696447700070411 L 0.296780227556123,0.10624555172065152 L 0.2918671998668283,0.11715669144534982 L 0.2877608899059739,0.11884847955527644 L 0.2829992254989668,0.10940660899678194 L 0.2763783767593829,0.09899682561363334 L 0.26826849348810977,0.09628667080782476 L 0.264099843206845,0.10572917493271701 L 0.2613058407337462,0.11570044976161174 L 0.25986334517795273,0.12661130188482014 L 0.2590891571950568,0.13684677111910626 L 0.25954068902819244,0.1485575689705962 L 0.26108781772410716,0.15819533969949057 L 0.2639088872148303,0.1686369306409705 L 0.2673790168422944,0.17780429629001976 L 0.27241942391707863,0.187981070927849 L 0.27494077165660274,0.19795467244625453 L 0.27421336351383774,0.2089028478404635 L 0.2732655391525505,0.2190431599034019 L 0.2719047973704801,0.23057383883040394 L 0.26833675463562956,0.22146051376777434 L 0.27143917590956196,0.21178685625602248 L 0.2738503595717245,0.20164658019438716 L 0.2661160192687687,0.1968221057728798 L 0.26128546340631975,0.20549013177768977 L 0.2586324868388271,0.20115931761885078 L 0.25287683539473893,0.19388626172965553 L 0.24692041151429245,0.2010007797881138 L 0.2507180899027938,0.21074740643139964 L 0.25144861135788266,0.21728577145482295 L 0.2470354889679462,0.22646083167980033 L 0.25394699090760986,0.23238273657202646 L 0.26287372197605413,0.23561176814920576 L 0.26731238630070586,0.24534509938402607 L 0.2659535347121171,0.25483303327670254 L 0.2620773910558746,0.2667502008919036 L 0.2581407057004922,0.26580960765555733 L 0.25221601812523864,0.25626810073472417 L 0.24581448207188095,0.2486262588013952 L 0.2379851020136319,0.2542960809247673 L 0.23855404869270475,0.26447717192231873 L 0.24695184221753658,0.2685899856300094 L 0.2505538581494592,0.2786295923546661 L 0.25268965623010414,0.28846510458494173 L 0.2489575224402349,0.29891817202359705 L 0.2454601428467898,0.3092279173609883 L 0.2424737915618449,0.31916811127232186 L 0.239661218729893,0.32949179017540653 L 0.23704690648719476,0.3404796798888453 L 0.23516688820930617,0.3502353903265887 L 0.2316583176768754,0.3438095141934749 L 0.22739013112694229,0.3346580275683771 L 0.22183400524458702,0.32463812186259433 L 0.21634219446870087,0.31668362437689856 L 0.20969229154653407,0.30877593713163537 L 0.2019928161383668,0.3004696413960604 L 0.1923882446524806,0.29098450834440875 L 0.18678671228392568,0.2928502546647068 L 0.18664733125971553,0.303310890478118 L 0.18802978356457223,0.3150368383345094 L 0.1896542660381237,0.32527096296529623 L 0.1918702906092258,0.3353518841454433 L 0.19474374400473232,0.34618779096714974 L 0.19803948048765457,0.3559634845745068 L 0.20248864769314917,0.36523711861126545 L 0.20845897053965454,0.3739855294348935 L 0.2151338622259401,0.38268953677354445 L 0.22283778656048925,0.3908070566693507 L 0.22970944091660295,0.39683951030527614 L 0.2297494136183186,0.41005622084020305 L 0.2240865777266402,0.407564389022994 L 0.21627830246549795,0.40123798637791097 L 0.20835126281474278,0.3944162826062856 L 0.2026859339275581,0.3849057986953642 L 0.19707969055842117,0.37588022287067385 L 0.18970394755250575,0.368217838993972 L 0.18088453705632865,0.36232498416689835 L 0.17167879706774947,0.3581902992207532 L 0.16014751259985485,0.3542196235333401 L 0.15171939353829003,0.3501859832175758 L 0.14713071107357212,0.35637868406062134 L 0.15196196586234717,0.3673198312255503 L 0.1569800751733501,0.3758557518286558 L 0.1643995809530797,0.383580576808173 L 0.1735502185330207,0.39034003876428236 L 0.173671031644259,0.39365011418232687 L 0.1627377222583029,0.39597303183716154 L 0.15825374035906925,0.40411259205177463 L 0.16747243186538782,0.4087788817949926 L 0.17674919730212565,0.41302703644443894 L 0.18783865793297588,0.41558483662787804 L 0.1972228365412818,0.414824435377708 L 0.2097933095009623,0.4120218620521336 L 0.21838655517199598,0.41593546049253105 L 0.2243340206756816,0.42318817721153507 L 0.22979576627903547,0.43297747007180803 L 0.23135749114100798,0.44426787707186205 L 0.23285290437240053,0.45435663753628164 L 0.22887005216034076,0.454596081492401 L 0.22082987424171285,0.44738863827790604 L 0.21230600530371535,0.44203867376157263 L 0.20384790151257423,0.4346430237060993 L 0.19560673714348156,0.4273605842537926 L 0.1858288723995224,0.4221353731992884 L 0.18059884310171298,0.4283216858388098 L 0.18614158297347388,0.4365678810874428 L 0.19338643515801252,0.44399087696470535 L 0.20289671931447664,0.44953629399006767 L 0.21411968239152504,0.45565734305592276 L 0.21295918949219797,0.4567888913514599 L 0.20265927613589346,0.45504405339464726 L 0.20128999997903602,0.4651858539123052 L 0.2091655527610658,0.46996760463074194 L 0.22041157388659385,0.4714794773676501 L 0.2307021454138255,0.47527884240772783 L 0.2376149770504917,0.482135085740074 L 0.24004171621610057,0.49281114933054626 L 0.24224225588236575,0.5034965239190329 L 0.24429051825342293,0.5146385746226 L 0.24662234941018474,0.524308008608893 L 0.24459561331140384,0.5287002683457664 L 0.23395922945662428,0.5227684596130356 L 0.2269838258794501,0.5154001233621422 L 0.21499747309650563,0.4986180739345183 L 0.20741492758260982,0.4907358076405484 L 0.1988729154824943,0.4835460721770101 L 0.18974846139757584,0.47704986301547075 L 0.18233140401076298,0.47968380564738977 L 0.18562252736974577,0.48985401360339126 L 0.18979765641772928,0.49915209451421677 L 0.1956269862053063,0.5084386062218562 L 0.2021993847666432,0.5160239936608503 L 0.21125241961151553,0.5224866806344715 L 0.2207768018384594,0.5277425841432886 L 0.22996966632606566,0.5325753795681021 L 0.2399714591818349,0.5381115053951896 L 0.2477700370831956,0.5438535891422094 L 0.2557619594598741,0.5515730989921698 L 0.26144171416460693,0.5586969358295768 L 0.26807290803702416,0.5683605567743235 L 0.2800481481724517,0.5860439302758169 L 0.2861915983907253,0.5949963651946132 L 0.2929216268384006,0.6046027490165868 L 0.2945953525358039,0.6085949464473128 L 0.28369141057875324,0.6013421283383714 L 0.27511950124038065,0.5964482023511024 L 0.26510044021437373,0.5926379925293492 L 0.25505479359173944,0.5899482138038092 L 0.24613594806189903,0.5890303681383615 L 0.23172611923916858,0.5891898657850282 L 0.22320263551991398,0.5906448294269034 L 0.21293191332267275,0.5926831612990279 L 0.20140225465623343,0.5931295903097471 L 0.19134231845070263,0.5912770598225551 L 0.18881211122079572,0.5986513990171497 L 0.1963413477008535,0.6071657056367705 L 0.2042531346157829,0.61287683808067 L 0.21507062471664962,0.6184995610285312 L 0.22406638155119682,0.622194256310518 L 0.2342829805563546,0.6251603162214107 L 0.2424302665140084,0.6267044291354715 L 0.2504225095496473,0.6271429924064726 L 0.2667162677227786,0.6270864439493693 L 0.28061133300737373,0.627109769907438 L 0.2893738442698347,0.6274156603643023 L 0.29704485368487155,0.62893522513124 L 0.28593892770979507,0.6320527989284231 L 0.2763819601749575,0.6354787532669726 L 0.26713401027274275,0.6398269387016635 L 0.25529722164904156,0.6460942106977444 L 0.25236169065838254,0.6532646864093181 L 0.26053841932795696,0.6560614451537827 L 0.27295995150667945,0.656942132643554 L 0.2838638632169994,0.6573174746728756 L 0.2938562665200925,0.6563062395912047 L 0.3035199333434291,0.6525623376537618 L 0.3125392827644631,0.6465136266595427 L 0.3217621135841619,0.6410984896912 L 0.3293491305191272,0.6469016143008669 L 0.33802214172895984,0.6545780808908495 L 0.3466813134218365,0.6621015008649032 L 0.3479846371346438,0.6661190112445273 L 0.3408339790842402,0.6723197692884 L 0.3447586674819396,0.6814298606116189 L 0.3544988424159535,0.6788430087432734 L 0.36512411810741696,0.6770831953595475 L 0.37292095530499103,0.682089946375974 L 0.38275195351258806,0.6886456530709388 L 0.3794611932667644,0.6911810751065661 L 0.3670506824015185,0.6913904875202866 L 0.3581793252427791,0.6912290664800336 L 0.34439906024338485,0.6919324450211318 L 0.3400708947874942,0.6982661528284544 L 0.3483288999701264,0.7032791965660908 L 0.35823494749384865,0.7050300345472479 L 0.35532849964155283,0.7154672270710614 L 0.36406124555524216,0.7164973456786183 L 0.3700935542255288,0.7071743429251692 L 0.37611145867966345,0.7022904451271998 L 0.38847571956892213,0.702104096926068 L 0.3986458408579128,0.7036057358758956 L 0.40843866534513606,0.7063526057746208 L 0.4185459340225406,0.7095857801599526 L 0.4285688625400789,0.7132517437156226 L 0.4291173805728706,0.97928632691172 L 0.43118233699197894,0.9893310040909583 L 0.4383420122802857,1.0 L 0.4428923523913199,0.9948380309564059 L 0.44828536911149575,0.9850192080908114 L 0.4485495397435621,0.7865597054219705 L 0.44864657618533044,0.7599414686132635 L 0.4487035121562657,0.7492667386490648 L 0.4487661775711681,0.7403270190948709 L 0.44883466063798705,0.7331063735381095 L 0.4489090495646724,0.7275888655662075 L 0.448989432559174,0.7237585587665921 L 0.4490758978294413,0.7215995167266903 L 0.45060350537867244,0.7214006134010539 L 0.4613241513713059,0.7247138731206677 L 0.4710743489448868,0.7275310071666663 L 0.4817332724278453,0.730430076204023 L 0.4923567437424069,0.7328252775628395 L 0.5016189492282989,0.7345327084566949 L 0.5127029191176599,0.7362462920992009 L 0.5234073971207438,0.7375024451644038 L 0.5339337574961758,0.7384319864409048 L 0.5445969880292387,0.7389612967848826 L 0.5557880909035854,0.7392386094650644 L 0.5666096665653628,0.7391479799734768 L 0.5774851933425842,0.73870557910404 L 0.587432836274534,0.7379043338005422 L 0.5987217060283075,0.7366440408061161 L 0.6092216817972158,0.7351419081470485 L 0.618857270954964,0.7335629885120639 L 0.6294815953665864,0.7313044216127041 L 0.6399522817923188,0.728650045091472 L 0.6500420686653158,0.725888320002958 L 0.6603310869157865,0.7227176605165718 L 0.6660294475088877,0.7212214352191354 L 0.6661176971039863,0.7227558090501899 L 0.6661977547752581,0.7259447109810905 L 0.666269717122255,0.7308099035774978 L 0.6663336807445288,0.7373731494050729 L 0.6663897422416308,0.7456562110294759 L 0.6664785452585268,0.7674688319314116 L 0.6665548988338751,0.8136304459020486 L 0.6665690287523136,0.9811139336126905 L 0.6699068866924393,0.9908111747870628 L 0.6757788470515816,0.9998140973960925 L 0.681620125666456,0.9929704159561812 L 0.6861778340322977,0.9832530597763093 L 0.6862619990040237,0.7813696332464556 L 0.6863301634031839,0.7537175247737351 L 0.6863760377026031,0.7428631512598654 L 0.6864304456479475,0.7338557418277245 L 0.6864938914237415,0.7265946791773631 L 0.6865668792145092,0.7209793460088322 L 0.6866499132047749,0.7169091250221827 L 0.686743497579063,0.7142833989174654 L 0.6868481365218975,0.7130015503947312 L 0.6921363803550615,0.7104402121139665 L 0.7014476545162681,0.7058981707903993 L 0.7126476954767168,0.7002181841421518 L 0.7212627046785473,0.6955464603524386 L 0.7300453379684854,0.6903128492371331 L 0.7382310815863072,0.6851114987442359 L 0.7480368129999272,0.6782992605978967 L 0.7557245322145935,0.6727273113975839 L 0.7643348052905498,0.6657349361178073 L 0.7725000800607379,0.6613345659620253 L 0.7831629413910507,0.6619347677895233 L 0.7934687388115287,0.6594821268616217 L 0.8020509556254632,0.6532929392142593 L 0.8080346506489603,0.6445669237016417 L 0.8116545174610887,0.6346038706506322 L 0.8142126485124936,0.6242718747057338 L 0.8158583129060987,0.6137736006011316 L 0.8171492630622524,0.6032016931613294 L 0.8180556637369655,0.5926028547160268 L 0.818836816936128,0.582066746637598 L 0.8274831608448546,0.5758576164801238 L 0.8362753771411503,0.5698704989825734 L 0.8450485525990533,0.5638397896981966 L 0.8528692889264279,0.5569305417857661 L 0.8449480052676926,0.5545678990040757 L 0.8360469152141679,0.5604024451138601 L 0.8273193653039596,0.5664135048549067 L 0.8190222614044999,0.5709778508559062 L 0.8186697666693871,0.5603483564708462 L 0.8180083602749053,0.5497332098871945 L 0.8166901249444067,0.5391923813980137 L 0.8114743460575465,0.5307452681019316 L 0.8006636510648468,0.5298144823003923 L 0.7922674551475335,0.5357132696164602 L 0.7894331787912569,0.5457933143245477 L 0.785347937734627,0.5556325638460861 L 0.7809616920126099,0.5652602522175142 L 0.7759252059804922,0.5745786468755071 L 0.769617718196518,0.583267896668657 L 0.7698604166105024,0.5738310537680096 L 0.771725702822861,0.563365571768417 L 0.773951793621841,0.5529633439382228 L 0.7758295028868019,0.5425794136774693 L 0.7686963643107289,0.5357128119566361 L 0.7581116906673303,0.5354990390358166 L 0.7508024592618253,0.5423315594587583 L 0.7482183858146919,0.5526087192917757 L 0.7448323797366825,0.5626154784812788 L 0.7401166052776894,0.572166658929565 L 0.735116341047095,0.5815877331875594 L 0.7303390331536888,0.5909987439930059 L 0.7248476691669317,0.6001472528832825 L 0.7188317677364765,0.6088981810395265 L 0.7107848472115517,0.6145186497577737 L 0.7108026817830114,0.603936484004602 L 0.712704641014866,0.5934820762850912 L 0.7151894206184841,0.5831515186346751 L 0.7179925282972194,0.5728990375560316 L 0.7201190876387566,0.5625989156334321 L 0.7139188700767545,0.55427891092828 L 0.7038851615218864,0.5510519702903215 L 0.6931899093881407,0.5499264237216145 L 0.692034691115646,0.5442033928507881 L 0.6962116878133976,0.5345283857326503 L 0.6966364322715725,0.5242591342554526 L 0.6892565897875872,0.5171851933016672 L 0.6786995136110135,0.5182155723066574 L 0.6704781571972589,0.5248154664089411 L 0.6664452353419635,0.5345482258333749 L 0.6655670904177043,0.5450493951447446 L 0.6696290803735743,0.5547818218718752 L 0.6685735561932383,0.5638085752642703 L 0.6638662638614987,0.57336310610024 L 0.6589386676521555,0.5828122500249792 L 0.6539849938802192,0.5921646296401157 L 0.6484646803390656,0.6012175085936279 L 0.6422708154662375,0.6099151245634749 L 0.6348990355009568,0.6128338936706547 L 0.635343953462752,0.6022525638637045 L 0.6374135708530151,0.5917972835359068 L 0.6400176715054748,0.5815004336789131 L 0.6428393257113881,0.5712339733563064 L 0.6440251834845082,0.5610828237240423 L 0.636975297495489,0.5533871956915951 L 0.6267990573762854,0.5506372532172216 L 0.6161061737741995,0.5496082201521972 L 0.6171972360470109,0.5426920732763011 L 0.6210136351661375,0.5329229793227472 L 0.620509032526082,0.5226783724622693 L 0.6121365064835497,0.5167386715699523 L 0.6017199688041905,0.5187256842586982 L 0.5940040474936389,0.5258671453720094 L 0.5905574562697031,0.5358349757950411 L 0.5902514607734078,0.5463151598934466 L 0.5949422705304037,0.5558741007742993 L 0.5908145194958743,0.565343739750342 L 0.5855603548201538,0.5745212967124533 L 0.5794494155702289,0.5833441056469866 L 0.5721619676102208,0.5908307232093107 L 0.5625897815713241,0.5954893386395416 L 0.5544716487446919,0.590831107873922 L 0.5532322315527008,0.5802948624903215 L 0.5538087775573575,0.569703381814792 L 0.5574011770008249,0.5611712886161233 L 0.5678289863461852,0.5591529349886339 L 0.5758454740036119,0.5524307028092176 L 0.5788782291058351,0.5425794189547306 L 0.5741915260163923,0.5338859186611915 L 0.5637467796004368,0.530874759473854 L 0.5531706417598288,0.5317830406475683 L 0.5435799878204045,0.5365128701006321 L 0.536766580254522,0.5444176167126461 L 0.5319731975361511,0.5537760888789183 L 0.5227217806063389,0.5590357522931295 L 0.5131528433093291,0.5637826752751036 L 0.5038811034179626,0.5672673975025628 L 0.4975512145781585,0.5588883081091244 L 0.4889763803929827,0.5525372206281683 L 0.479114122211231,0.5486671662493342 L 0.4686768910729511,0.5465433666354916 L 0.4580930460651426,0.5453586890183006 L 0.45671471672674313,0.5425188158329554 L 0.4657017663211093,0.5366157193954677 L 0.4740709197963043,0.5301626281430256 L 0.48181636979326975,0.5229502244615717 L 0.4886378307354088,0.5147145053600617 L 0.4939840709229083,0.505723624427458 L 0.4979651231317796,0.4958890783323176 L 0.5001031254546521,0.48552326097298937 L 0.49936458576009934,0.4750106983924665 L 0.49499962679981907,0.4653708805130446 L 0.4886209144426148,0.45830421460973675 L 0.4987641720391166,0.45681058407128133 L 0.5111583439571116,0.4539968325628998 L 0.5161377184464719,0.4529159274595175 L 0.5241749683997603,0.45109631226731484 L 0.5364665822041578,0.44808463517687064 L 0.54984105876579,0.4446565554814297 L 0.5641862628749327,0.440807458839875 L 0.571899838774572,0.43873368005245494 L 0.5795581345189145,0.43667195185221996 L 0.5877795303185224,0.43437876238023626 L 0.6023818503227747,0.43022323921284655 L 0.6146870126077867,0.4270657403183265 L 0.6217542417228492,0.42838548628370876 L 0.6284733639594,0.4320782872092871 L 0.6373755919297053,0.4366386900266409 L 0.6486578334507159,0.44226021455184483 L 0.6602317082372623,0.44790492842114576 L 0.6700105164710851,0.4525356750070176 L 0.6795918608526454,0.4571662765994541 L 0.6900654369563772,0.46158531139878595 L 0.7003336506670916,0.4647573667225814 L 0.7101141571975124,0.46705770057698254 L 0.72133553678202,0.46875802270941386 L 0.7325733267536985,0.46954361254029786 L 0.7432164564119776,0.4693869916598993 L 0.7526538550562872,0.4682606816584826 L 0.7624243758205582,0.46503188206819124 L 0.7711522109663674,0.4591848646364001 L 0.7777576536079948,0.45059500534666175 L 0.7799218566788391,0.44061752010772864 L 0.779011510423333,0.4303025377856485 L 0.7753761314506059,0.42008462218366605 L 0.7688970471501685,0.4104948328246344 L 0.762451849075595,0.40485243883437316 L 0.7518541986750334,0.39920635895015755 L 0.7436898675357323,0.39648452790179606 L 0.7319390251242973,0.393739613407414 L 0.7207010823742305,0.3922879698672316 L 0.7108208328578246,0.39198865544317046 L 0.6991810637077348,0.3922876723749841 L 0.6927696975882984,0.39301362494398157 L 0.6803753801040124,0.39471021014476454 L 0.6684209726918549,0.3968177268532538 L 0.6459262872933536,0.40182860510283525 L 0.6371663880199516,0.4041137097677703 L 0.6272082110981263,0.4068219930151308 L 0.6167355870260283,0.40935850500720516 L 0.6071064301386292,0.4045084382199402 L 0.5885012255754071,0.39399079021457617 L 0.5807641718384784,0.38947801889126255 L 0.5705435721348953,0.383992098766617 L 0.5774813368052519,0.38318110954220724 L 0.5871142290688349,0.3792871680272215 L 0.5937110613627667,0.37095665249461707 L 0.5990101772187015,0.36173856416715844 L 0.6035754474979429,0.35212419855137056 L 0.6063261709382004,0.35872217489353053 L 0.6106748147771148,0.3679372790019103 L 0.6208708949308679,0.36992863606642956 L 0.6285791295775511,0.3633980899058476 L 0.6314022019394927,0.35313086331839577 L 0.6342611519163383,0.34288077288899504 L 0.637361302882467,0.33269554163382875 L 0.640836565049318,0.3226403486627324 L 0.6448208486283309,0.3127803730855415 L 0.6494581004618196,0.30324139624393626 L 0.6553932970658188,0.2944037814086435 L 0.6598918623240427,0.2936487239888742 L 0.6585103673426684,0.3041917951731418 L 0.6570252047596663,0.314730444033137 L 0.6555821525821328,0.3252779388743604 L 0.654326988817165,0.3358475480023091 L 0.6535865620026623,0.3464597157130766 L 0.6535484987045713,0.35710228105437436 L 0.654268398994735,0.36768684649960737 L 0.6582379686850965,0.3774746352826526 L 0.6671514419628196,0.38273950132736156 L 0.6777808420525092,0.38321072857280203 L 0.6874165559764367,0.3792229481183979 L 0.694028318271749,0.3709039936376051 L 0.6992768899434453,0.3616405486907494 L 0.703838097410605,0.35203354873203335 L 0.7084203229640603,0.35227257018339814 L 0.7152084034535411,0.3603760493663834 L 0.7245592721287125,0.365354561493121 L 0.7350354311738436,0.36700692116189587 L 0.7453943894743338,0.36489899507501766 L 0.7542709499575996,0.35914335780603496 L 0.7616243223669825,0.3514489757239839 L 0.7678267272489795,0.3428138343924451 L 0.7732701783885579,0.33366803017433583 L 0.7781992635808028,0.32423028929585085 L 0.7778309915293518,0.3150595708655195 L 0.769252404189916,0.319039187994215 L 0.7644876752040501,0.32854930464275 L 0.7592341714193396,0.3378044955997897 L 0.7530317242905874,0.3464261616527905 L 0.7455348846948767,0.353959636254808 L 0.7358542972688225,0.35796230280809205 L 0.7292761533850957,0.35133087286883896 L 0.7287190074970349,0.34072800785462615 L 0.7295136479935882,0.33011394207739064 L 0.736028227172164,0.32479101254204057 L 0.7457967170511685,0.32090170394819123 L 0.7525650892505732,0.31280516477022774 L 0.7537142898777062,0.30248802940416153 L 0.7469590939196895,0.29474818544335485 L 0.7366120449981679,0.29268145895087105 L 0.7261147772630395,0.29414257263230437 L 0.7169199992950235,0.29934742276918497 L 0.7102672601838125,0.3076116279732442 L 0.7059458280004424,0.31730404334074297 L 0.7028119133341161,0.327472706070587 L 0.698944922576369,0.33738202401853534 L 0.6947311651326866,0.34715705839917027 L 0.6904335937571223,0.356881657398932 L 0.6853527348642665,0.36623945423749377 L 0.6784038920335684,0.37400144262106305 L 0.6764034583970459,0.36428531755434657 L 0.67670664044035,0.3536566362563606 L 0.6776452161842532,0.3430677755780095 L 0.6788764485418236,0.3324976200941077 L 0.6800479491073258,0.32191925356059276 L 0.6808073294750245,0.31130575973340313 L 0.6809475329720938,0.3006569935404851 L 0.6796695692213776,0.29012339724343533 L 0.6732671389563228,0.2819648732785789 L 0.6630413829449303,0.27963291677612 L 0.6533455735810952,0.28357227529574325 L 0.6457466807472729,0.2910134875758632 L 0.6399768898089904,0.2999152362858174 L 0.6352193647434213,0.30945227706687534 L 0.6313185821257785,0.31303057100634424 L 0.6259758292391682,0.30449455520936813 L 0.6156035713289669,0.3033302855451118 L 0.60756874996838,0.3097010180315475 L 0.6055579614845983,0.3201109612448334 L 0.6018049621393811,0.33005993169697345 L 0.59765934969029,0.3398627487951546 L 0.5935307605220677,0.34969132482749776 L 0.5890565988882175,0.3593271837440782 L 0.583704143569741,0.36849082534158617 L 0.5766863527158186,0.3723032780430664 L 0.5760735617659962,0.3616893372406249 L 0.5766447243818764,0.3510831290085533 L 0.5777589198026619,0.3405039084257145 L 0.5790400024379061,0.3299286088224596 L 0.5801118266971625,0.31933416352914024 L 0.5806754782052884,0.30870910558761894 L 0.5806531682147175,0.2980667628602477 L 0.5785055379227648,0.2877201788715201 L 0.5707803253459092,0.2807357189132656 L 0.5603317193819164,0.280111005929299 L 0.5510086127236193,0.2850674834259468 L 0.5440438878748854,0.2930863734441589 L 0.5386019246589306,0.3022052286431946 L 0.5339746876261536,0.3118062160144931 L 0.530795919720632,0.31144769298180786 L 0.5242974825987498,0.30383461714152604 L 0.5138398157869797,0.30381109762819425 L 0.506839642508221,0.311195242505696 L 0.5035419517591284,0.32124823008559816 L 0.49867520595299925,0.3307099663874924 L 0.49323806275301735,0.33986247475691256 L 0.48680149547574586,0.348299946712961 L 0.4789077118983799,0.35541395827968414 L 0.4687647723432815,0.3577986056325381 L 0.4641741380209615,0.3488671086998855 L 0.4639319818618614,0.33825310720694546 L 0.465270581652024,0.32769629988175936 L 0.47369065129686344,0.32443025383720864 L 0.4829293557015899,0.31936119380997124 L 0.4887879462040512,0.3106375317651681 L 0.4882390707416109,0.30027517017721 L 0.4801601009814843,0.2937942644973821 L 0.4696179984477665,0.2926896404127208 L 0.45929409842612146,0.2949785365542614 L 0.4505685740016696,0.3009847181925834 L 0.44444972392879223,0.30961826146540994 L 0.44072764578343593,0.3195775069887914 L 0.43921138105317653,0.33009168838533176 L 0.43980344457365445,0.3406970524330101 L 0.4429679487576607,0.3508168140900465 L 0.4492616425928249,0.35930515207218977 L 0.45830463785457465,0.3647888107726248 L 0.4687003207854539,0.3669736486679937 L 0.4791545047646657,0.3655095072175044 L 0.4883077013954972,0.36015357236574763 L 0.4958789728152754,0.35272880248557315 L 0.5023211820748117,0.344242834209888 L 0.505682192906111,0.3437525915984228 L 0.5059630385885651,0.35439825152666904 L 0.5072328387541446,0.3647297184810194 L 0.49588489394384155,0.3671611747940132 L 0.4864207205838528,0.37104511309763805 L 0.47812658983801365,0.37670019770468055 L 0.47081538600461986,0.38422208928259116 L 0.46572727547004417,0.39337567238626037 L 0.46312429511008635,0.4050638745367276 L 0.46667397390167525,0.4136474684025424 L 0.47192082673778324,0.40687548756712 L 0.47762619517517807,0.39753343471695396 L 0.4850807547073079,0.38953836737944814 L 0.4933851399048323,0.38402667553591713 L 0.5033795721089499,0.38045094646888183 L 0.5142143783063882,0.37866300006318204 L 0.5247648862521971,0.37883631161471026 L 0.5336623516831145,0.3806957969365416 L 0.5425862353141533,0.38386840833430563 L 0.5536382126796462,0.3890660887006993 L 0.5641410812631222,0.39457352308402543 L 0.5734410231902278,0.3997448476929306 L 0.5824400741133836,0.4050466603405651 L 0.5930259349880831,0.4115557872842347 L 0.5969154424491545,0.41563973754590877 L 0.5853237146378945,0.41913385155307825 L 0.5653223079910632,0.424889432162017 L 0.5571123014112909,0.4271806658317664 L 0.5332053274805166,0.434111979889967 L 0.5242715689784115,0.43647170757888687 L 0.5140418801741181,0.43905540993984565 L 0.5033965685406139,0.4415098895612657 L 0.4919320257936282,0.4438080633585888 L 0.48086395629172635,0.4457237758804368 L 0.47140806439347244,0.4470308716754321 L 0.46159585546226745,0.448016937072825 L 0.45040968401244375,0.4490059459375182 L 0.4406416130434605,0.44940577165669965 L 0.43134316489728675,0.4492762169268215 L 0.4189743032124353,0.44855015941385123 L 0.4064421582960417,0.4474501255835341 L 0.39665386045523693,0.44619864190161485 L 0.3869236229658415,0.4438095244900039 L 0.37656494858381595,0.44010302884497426 L 0.3678869593328734,0.4353084069912582 L 0.3605641489454313,0.42745846330430964 L 0.3568758668793711,0.4179762984505384 L 0.35875859481837724,0.40755501052443477 L 0.3605793562198921,0.39861480656375436 L 0.36605457668210084,0.38949011100198117 L 0.37395912761544137,0.382075189795894 L 0.3835567227155825,0.3773009591990708 L 0.3936921170849204,0.3758860963504949 L 0.3949179354926947,0.38596967376033176 L 0.39992461850512717,0.39460499883749817 L 0.4103883069885591,0.39546410539469223 L 0.41911076754518994,0.3901042735905504 L 0.4195477168727384,0.37954674727495 L 0.4191857255036966,0.36890387432800115 L 0.4187652953771479,0.3582507283326364 L 0.4185542247754056,0.3476074020305663 L 0.4188203119807831,0.33699398816350046 L 0.4192426704306643,0.3263582862436522 L 0.41960274362280564,0.31571165953164093 L 0.42008481243552065,0.3050801859739795 L 0.42079545360678067,0.2944742468668826 L 0.42485270484586224,0.28719158065424155 L 0.43550434465339927,0.2869085665268271 L 0.4418405771694255,0.2809454081728125 L 0.43220012629023064,0.27861076740706925 L 0.42194232866216314,0.27794263952510684 L 0.4250378603124524,0.2461803286765282 L 0.42626216664173383,0.23560950405616926 L 0.42776765245625453,0.22507036245733403 L 0.43065198803493754,0.21588040823087606 L 0.4412429707290351,0.21666601428858986 L 0.4518519584724538,0.21758436677837012 L 0.4624754596017283,0.218403673552482 L 0.47310895886374743,0.21888925482817945 L 0.48375404034605507,0.21894849895552726 L 0.49434938656798677,0.21808938456776075 L 0.5045773443322872,0.2152591785639138 L 0.5048562673880375,0.2074717023348986 L 0.4944801875764858,0.20901022882311734 L 0.48392413767461084,0.21023162105629012 L 0.4732843531175681,0.21011876302904767 L 0.46267414276700614,0.20952208171716954 L 0.45207132509398107,0.20863567948928222 L 0.4308537582661894,0.20674840766284064 L 0.4202468321091776,0.20586884666269717 L 0.40962891291482045,0.20515961821746173 L 0.3989984492331721,0.20472233234376067 L 0.3883686824482676,0.20488951480327786 L 0.37772242030309977,0.20548639264670476 L 0.3671581710656744,0.20675324876325457 L 0.35926817020791924,0.2067900528244419 L 0.36308003485790263,0.1969134736942744 L 0.3582809095401147,0.19041855516200532 L 0.34955844040992706,0.19655616631769635 L 0.34044680800367855,0.20316676151410468 L 0.33237327922858717,0.2095782113486459 L 0.32390801656329093,0.21708690506206982 L 0.31724806357006125,0.22435837255162083 L 0.3106744937625733,0.2332769136014553 L 0.3049637059779857,0.24272429638762308 L 0.3014438702075058,0.2508868300438319 L 0.29756549892740025,0.26274346344206273 L 0.29103992613077356,0.27007371232469257 L 0.2823296207076291,0.27549976256655634 L 0.27288656340412654,0.2817936627754186 L 0.2701715661394782,0.2795775777434775 L 0.2738118186806361,0.26953985016386584 L 0.2782651739997943,0.2597443179360665 L 0.2832488624947005,0.2511048648971832 L 0.2891774286600594,0.24117891235464892 L 0.2945904418063298,0.23283075033302308 L 0.3008854728322603,0.22378014646393213 L 0.3063971926313008,0.21636529079034184 L 0.3139916970208454,0.20694499575887887 L 0.3202684229416487,0.19967101626888778 L 0.3277201081633525,0.19176264313068228 L 0.33604231772240784,0.1832837725586679 L 0.3440695383305735,0.17556528359058002 L 0.35194389963837747,0.1687280226504632 L 0.3600273600293609,0.16474779923254484 L 0.3689536423970593,0.16942150027267996 L 0.3781043739892007,0.17722233468275328 L 0.3799165551243452,0.18647953604892026 L 0.388717834871359,0.1900557961278957 L 0.3945985718268037,0.1824470571176156 L 0.3905220833475298,0.17343855582475085 L 0.38621822772573133,0.16908879627119983 L 0.39735308910313083,0.17246310552076968 L 0.40670036725033765,0.17630738050306055 L 0.4171534673483487,0.17778179418848408 L 0.42156983214762495,0.16884776229256526 L 0.41515252311863887,0.1632461884504729 L 0.40368994620637944,0.16363377308343766 L 0.3980629776640648,0.15976083472688718 L 0.4090031343474305,0.1588550717910401 L 0.4135460964601761,0.14985281054534877 L 0.4077295389071533,0.14328450945664187 L 0.3982163403763725,0.14850642309669604 L 0.388533134793152,0.15302645051980865 L 0.3786933298788857,0.15634095494349035 L 0.3694242148101522,0.15492812042887683 L 0.37742086278417897,0.14920542418563718 L 0.387915744984571,0.14227144178646825 L 0.3953352813204444,0.13765967282770805 L 0.40477916583429513,0.13232418777696653 L 0.414757059567919,0.12713019654286328 L 0.42425585569028174,0.12243010023769209 L 0.4345229822724309,0.12150941684998466 L 0.4450306958121907,0.12291545808694945 L 0.4550570559596557,0.12527011255977888 L 0.4657142851320481,0.12853560917509158 L 0.47627865888693827,0.1321106514155667 L 0.4851799579319384,0.1357568687848805 L 0.49525684615334165,0.1401351442263278 L 0.5057395254448716,0.14341667439015723 L 0.5155251345275433,0.14447168545051545 L 0.5272504018091864,0.14418304273337362 L 0.5375027431386804,0.14306770145250242 L 0.5483308708526409,0.1411426416487499 L 0.5535118497331111,0.1342088817157599 L 0.5459756346899464,0.12845897871775347 L 0.5356793059809304,0.1255372051200796 L 0.5253629372876083,0.12319968888711078 L 0.5143778645512052,0.12170550707286358 L 0.5034428241889002,0.12092313804033354 L 0.4928457899450703,0.12079812273575864 L 0.48203398109321266,0.12182426226060455 L 0.4728627866133198,0.1200112758801452 L 0.46136283970500996,0.11576658439734913 L 0.4534923746569785,0.11213286683654257 L 0.46394984056741695,0.10746395870415693 L 0.4741894946851219,0.10449819088573338 L 0.4839644199304398,0.10719169288290017 L 0.49408877966357434,0.11027682366357164 L 0.5046669033707251,0.11249703140637464 L 0.515275952032509,0.11324329496924089 L 0.5265647152920105,0.11268241535093877 L 0.5367866718257576,0.11033162902585028 L 0.5445787787263259,0.10744647893877987 L 0.554522645843651,0.10255090248801248 L 0.565430130853251,0.09713230225379095 L 0.5734980080356327,0.0931472422456238 L 0.5843433658023827,0.08849535037477477 L 0.595044623210251,0.08497144415683928 L 0.5994398545237654,0.07818009863621884 L 0.5899916982846911,0.07407440931919691 L 0.57944366202978,0.07165589438934762 L 0.5685902042757268,0.06997062733572447 L 0.5569613763703671,0.06861440674324848 L 0.5618155656271059,0.06314964213577218 L 0.570311140202165,0.054046091624106875 L 0.577702087958331,0.046964607173625876 L 0.5863955831920129,0.04076095008176215 L 0.5921842933635957,0.032882864353401375 L 0.5849039232937325,0.03002427557200482 L 0.5611152664437553,0.03320115989951887 L 0.5522178139656955,0.03511984545084919 L 0.5417827853927257,0.03821026764436772 L 0.5317852245561698,0.04168826768033809 L 0.5220183835535177,0.04594973074896577 L 0.5124919059723212,0.0512414937351305 L 0.5040256470037076,0.05719470077900729 L 0.4960526682738228,0.06361675304767726 L 0.48750795041451717,0.07103204783219702 L 0.47947832754281855,0.07854187010738548 L 0.472166378408849,0.08506461545735623 L 0.4635631461255207,0.09129154669838366 L 0.45412445073386076,0.09655940727686267 L 0.4442969041936281,0.10087442430372583 L 0.4343674722301843,0.1041873934753906 L 0.42520609687156563,0.10285582562139649 L 0.41570477209540585,0.10421380351208683 L 0.40719101354124065,0.11206543159817299 L 0.39892878347161265,0.11833767509855216 L 0.38875369806159304,0.12211510691429292 L 0.3913059761944681,0.11325293805561003 L 0.39586917962633034,0.103008187269379 L 0.4014476105180195,0.09389700340906888 L 0.4104304325976201,0.08979736026313667 L 0.4214689792349331,0.08889226367830945 L 0.4311822838750943,0.08584158611027347 L 0.4411456007415773,0.08171705119838861 L 0.4509363564426381,0.07693310438099697 L 0.46016171880750967,0.07160051701001392 L 0.4680320204654696,0.0648550479524439 L 0.462138598848828,0.059704670184013486 L 0.45101470586679393,0.06175349053375567 L 0.43968410812749253,0.0637556714200393 L 0.43537981574983514,0.06293275461395653 L 0.44253147015314437,0.05461672257224376 L 0.4495262770698542,0.04600519306913773 L 0.4551793995316338,0.038332982657703546 L 0.4609517956497261,0.028646387724230414 L 0.46607333717641886,0.019146312867589766 L 0.4704946900732115,0.009580473653462108 L 0.4696331552240506,0.0" fill="none" stroke="#000000" stroke-width="0.001"/>
</svg>
