<?xml version="1.0" ?>
<svg xmlns="http://www.w3.org/2000/svg" xmlns:ev="http://www.w3.org/2001/xml-events" xmlns:xlink="http://www.w3.org/1999/xlink" baseProfile="full" height="600px" version="1.1" viewBox="-0.625 -0.625 901.25 1251.25" width="433px">
	<defs/>
	<path d="M 0.0,0.0 L 900.0,0.0 L 900.0,1250.0 L 0.0,1250.0 L 0.0,0.0" fill="none" stroke="#000000" stroke-width="1.25"/>
	<path d="M 43.0,31.0 L 47.0,31.0 L 47.0,35.0 L 43.0,35.0 L 43.0,31.0" fill="none" stroke="#000000" stroke-width="1.25"/>
	<path d="M 863.0,31.0 L 867.0,31.0 L 867.0,35.0 L 863.0,35.0 L 863.0,31.0" fill="none" stroke="#000000" stroke-width="1.25"/>
	<path d="M 135.0,337.0 L 765.0,337.0 L 765.0,931.0 L 135.0,931.0 L 135.0,337.0" fill="none" stroke="#000000" stroke-width="1.25"/>
	<path d="M 462.7892548508532,911.0000130413264 L 527.7906379898733,911.000012968575" fill="none" stroke="#000000" stroke-width="1.25"/>
	<path d="M 536.2167432115976,880.9067804624251 L 628.9039006505702,880.906780122328" fill="none" stroke="#000000" stroke-width="1.25"/>
	<path d="M 609.6442315723422,890.5366146117266 L 673.4418853939728,890.5366142732355" fill="none" stroke="#000000" stroke-width="1.25"/>
	<path d="M 658.9971335853015,830.3501493603075 L 684.275449250476,830.3501491927954" fill="none" stroke="#000000" stroke-width="1.25"/>
	<path d="M 669.830697441805,809.8867511939746 L 684.2754492504762,809.8867510932754" fill="none" stroke="#000000" stroke-width="1.25"/>
	<path d="M 658.9971335853015,819.5165856625674 L 673.4418853939727,819.5165855679539" fill="none" stroke="#000000" stroke-width="1.25"/>
	<path d="M 634.9225472375165,839.9799838985756 L 684.2754492504761,839.9799835933864" fill="none" stroke="#000000" stroke-width="1.25"/>
	<path d="M 633.7188179201273,799.0531877229033 L 654.1822163157445,799.0531875997963" fill="none" stroke="#000000" stroke-width="1.25"/>
	<path d="M 646.959840411409,779.7935188553007 L 667.4232388070266,779.7935187201692" fill="none" stroke="#000000" stroke-width="1.25"/>
	<path d="M 638.5337351896843,779.7935189069678 L 639.7374645070735,779.7935188997288" fill="none" stroke="#000000" stroke-width="1.25"/>
	<path d="M 628.9039006505702,768.9599552719287 L 686.6829078852545,768.9599548836119" fill="none" stroke="#000000" stroke-width="1.25"/>
	<path d="M 638.5337351896843,759.3301208227452 L 686.682907885254,759.3301204870729" fill="none" stroke="#000000" stroke-width="1.25"/>
	<path d="M 637.3300179095884,713.588407479351 L 638.7219163918562,730.7087439747498 L 638.0477754974095,751.6983338719062 L 625.5881824128653,760.0774056165035 L 606.0330556574679,759.3301210053145" fill="none" stroke="#000000" stroke-width="1.25"/>
	<path d="M 589.180833176725,768.9599554747177 L 612.0516902071205,768.9599553643471" fill="none" stroke="#000000" stroke-width="1.25"/>
	<path d="M 624.0889833810132,789.4233533828194 L 684.275449250476,789.423352996274" fill="none" stroke="#000000" stroke-width="1.25"/>
	<path d="M 614.4591488418993,809.8867515193039 L 650.5710283635767,809.8867513180503" fill="none" stroke="#000000" stroke-width="1.25"/>
	<path d="M 584.3659159071677,819.5165860483264 L 595.199479763671,819.5165860030456" fill="none" stroke="#000000" stroke-width="1.25"/>
	<path d="M 569.9211640984968,830.3501497947949 L 642.144923141852,830.3501494611234" fill="none" stroke="#000000" stroke-width="1.25"/>
	<path d="M 572.3286227332753,799.0531880122295 L 621.6815247462348,799.0531877890913" fill="none" stroke="#000000" stroke-width="1.25"/>
	<path d="M 566.309976146329,789.4233536440161 L 581.9584572723893,789.4233535839041" fill="none" stroke="#000000" stroke-width="1.25"/>
	<path d="M 565.1062468289397,779.7935192590625 L 591.5882918115032,779.793519152379" fill="none" stroke="#000000" stroke-width="1.25"/>
	<path d="M 610.8479729270246,731.6443471138692 L 615.6628901965815,736.4592642811066" fill="none" stroke="#000000" stroke-width="1.25"/>
	<path d="M 619.2740781487495,731.6443470667855 L 618.0703488313602,734.0518056706004" fill="none" stroke="#000000" stroke-width="1.25"/>
	<path d="M 615.6628901965817,729.2368884904367 L 615.7834361644101,741.9039786621572 L 615.6628901965819,758.1263916561737" fill="none" stroke="#000000" stroke-width="1.25"/>
	<path d="M 610.8479729270246,717.1995955343508 L 607.2367849748568,720.8107834487477" fill="none" stroke="#000000" stroke-width="1.25"/>
	<path d="M 604.8292781909057,712.3846783747033 L 605.0201657634442,734.6869199241426 L 601.9257166434063,758.174776760561 L 577.8672229979545,760.3120860564184 L 555.15416848733,764.9281228834008 L 539.9366676501821,778.6936232311839 L 554.8598309965407,798.7837694635216 L 562.3941604628025,817.7791869947791 L 541.1608690520056,827.478207914024 L 517.4612153257173,829.382713917244 L 493.9169817199685,830.299096566043 L 470.3296896082904,830.4123113869535 L 446.98623182519856,830.304575523387 L 422.9055816831965,831.2881082247075 L 413.3351252209389,846.3848043496328 L 431.4642181284998,862.8512778371345 L 435.4076980719656,881.9579386089385 L 412.43172872727445,889.6866196851663 L 389.7926266762412,891.037880812223 L 366.1647107321045,891.9975698709619 L 342.0586716068057,892.1508343022638 L 318.2391774936537,890.7195084576559 L 295.47089658595723,886.9254266903513" fill="none" stroke="#000000" stroke-width="1.25"/>
	<path d="M 295.4708845486641,900.1664489890503 L 380.9356612683836,900.1664492698079" fill="none" stroke="#000000" stroke-width="1.25"/>
	<path d="M 402.6027889813903,900.166449308342 L 437.5109391856787,900.1664493426504" fill="none" stroke="#000000" stroke-width="1.25"/>
	<path d="M 444.73331509001434,900.1664493454697 L 445.9370444074036,900.1664493457968" fill="none" stroke="#000000" stroke-width="1.25"/>
	<path d="M 441.1221271378467,890.5366149490832 L 535.0130138942086,890.5366148607774" fill="none" stroke="#000000" stroke-width="1.25"/>
	<path d="M 554.2726829724365,870.073216720623 L 579.5509986376109,870.0732166381946" fill="none" stroke="#000000" stroke-width="1.25"/>
	<path d="M 554.2726829724365,839.9799842388546 L 578.3472693202216,839.9799841578621" fill="none" stroke="#000000" stroke-width="1.25"/>
	<path d="M 538.6242018463762,849.6098186750726 L 610.8479608897316,849.6098184167832" fill="none" stroke="#000000" stroke-width="1.25"/>
	<path d="M 506.1235102768664,817.1091276697493 L 541.0316604811549,817.1091275952847" fill="none" stroke="#000000" stroke-width="1.25"/>
	<path d="M 502.5123223246984,806.2755639870386 L 491.67875846819504,809.8867518973274" fill="none" stroke="#000000" stroke-width="1.25"/>
	<path d="M 494.0862171029737,797.8494589085194 L 502.51232232469863,803.8681053897873" fill="none" stroke="#000000" stroke-width="1.25"/>
	<path d="M 503.7160516420876,794.2382709994445 L 503.71605164208785,799.0531881935954" fill="none" stroke="#000000" stroke-width="1.25"/>
	<path d="M 498.9011343725308,794.2382710065884 L 512.1421568638125,809.8867518671901" fill="none" stroke="#000000" stroke-width="1.25"/>
	<path d="M 507.3272395942556,793.0345416950848 L 510.9384275464234,797.8494588829863" fill="none" stroke="#000000" stroke-width="1.25"/>
	<path d="M 512.1421568638125,779.7935194037161 L 516.9570741333697,779.7935193943516" fill="none" stroke="#000000" stroke-width="1.25"/>
	<path d="M 492.88248778558443,759.3301213642171 L 569.9211640984968,759.330121166568" fill="none" stroke="#000000" stroke-width="1.25"/>
	<path d="M 596.4032211183535,715.9958663128247 L 602.4218677052997,719.6070541761696" fill="none" stroke="#000000" stroke-width="1.25"/>
	<path d="M 601.2181383879105,713.5884076919448 L 608.4405142922462,715.9958662494537" fill="none" stroke="#000000" stroke-width="1.25"/>
	<path d="M 608.4404661430735,711.1809490569411 L 612.0516540952409,715.9958662294342" fill="none" stroke="#000000" stroke-width="1.25"/>
	<path d="M 580.7546918431206,681.0877167553524 L 591.4976540032274,685.6134334147112 L 608.4404661430738,691.9212802895655" fill="none" stroke="#000000" stroke-width="1.25"/>
	<path d="M 577.1435038909528,672.6616116911996 L 571.1248573040067,687.1063632859601" fill="none" stroke="#000000" stroke-width="1.25"/>
	<path d="M 568.7173986692281,682.2914461068909 L 573.532315938785,681.0877167885521" fill="none" stroke="#000000" stroke-width="1.25"/>
	<path d="M 572.3285866213957,678.6802581993034 L 577.1435038909526,678.6802581775257" fill="none" stroke="#000000" stroke-width="1.25"/>
	<path d="M 569.9211279866173,678.680258209864 L 578.347233208342,679.8839874692807" fill="none" stroke="#000000" stroke-width="1.25"/>
	<path d="M 587.9770677474559,654.605672181161 L 584.3658797952883,659.4205893877604" fill="none" stroke="#000000" stroke-width="1.25"/>
	<path d="M 587.9770677474561,650.9944842902759 L 592.7919850170132,655.809401452639" fill="none" stroke="#000000" stroke-width="1.25"/>
	<path d="M 592.7919850170131,649.790754967582 L 592.7919850170132,655.809401452639" fill="none" stroke="#000000" stroke-width="1.25"/>
	<path d="M 597.6069022865701,649.7907549408878 L 601.5891578504509,667.625067832741 L 607.9068967849705,686.4747605345817 L 619.6512954282631,701.4459766467501 L 635.9202449552562,712.2560695572218 L 637.3299697604156,693.1250094081946" fill="none" stroke="#000000" stroke-width="1.25"/>
	<path d="M 666.2194733777576,638.9571907801514 L 672.238119964704,642.5683786219668" fill="none" stroke="#000000" stroke-width="1.25"/>
	<path d="M 675.8493079168716,637.7534613984851 L 669.3950201024386,653.9744402595805 L 655.3859095212546,665.4392354216849" fill="none" stroke="#000000" stroke-width="1.25"/>
	<path d="M 669.8306613299254,635.3460028557723 L 679.4604958690396,640.160919962064" fill="none" stroke="#000000" stroke-width="1.25"/>
	<path d="M 665.0157440603684,611.2714169475069 L 662.0028351620804,625.6484878034386 L 655.3859095212541,638.9571908698937" fill="none" stroke="#000000" stroke-width="1.25"/>
	<path d="M 640.9411577125833,620.9012515240893 L 645.7560749821404,622.1049807835924" fill="none" stroke="#000000" stroke-width="1.25"/>
	<path d="M 650.5709922516972,616.0863342592841 L 649.367262934308,618.493792863313" fill="none" stroke="#000000" stroke-width="1.25"/>
	<path d="M 658.9970974734222,608.8639584057886 L 662.6082854255898,611.2714169687101" fill="none" stroke="#000000" stroke-width="1.25"/>
	<path d="M 662.6082854255899,606.456499780005 L 671.0343906473148,610.0676875960618" fill="none" stroke="#000000" stroke-width="1.25"/>
	<path d="M 666.2194733777577,606.456499747841 L 666.2194733777577,610.0676876395363" fill="none" stroke="#000000" stroke-width="1.25"/>
	<path d="M 640.9411577125833,595.6229362916323 L 637.3299697604155,601.6415828030681" fill="none" stroke="#000000" stroke-width="1.25"/>
	<path d="M 636.1262404430263,604.0490414056378 L 634.8080786450729,626.3714151122343 L 634.7088465652904,648.7638556449717 L 634.9685412304149,672.7033419371464 L 639.5651479431856,690.7088907270668 L 651.9075471075965,671.8464508500658 L 656.351561410862,649.9293309487397 L 650.4324273345688,627.5936576128282 L 654.1821802038658,617.2900635266453" fill="none" stroke="#000000" stroke-width="1.25"/>
	<path d="M 636.1262404430264,593.2154777371244 L 644.552345664751,598.0303948554537" fill="none" stroke="#000000" stroke-width="1.25"/>
	<path d="M 632.5150524908586,594.4192070616522 L 634.9225111256371,601.6415828217714" fill="none" stroke="#000000" stroke-width="1.25"/>
	<path d="M 627.7001352213014,598.0303949872134 L 634.9225111256371,602.8453121183321" fill="none" stroke="#000000" stroke-width="1.25"/>
	<path d="M 619.2740299995767,612.4751466050911 L 615.6628420474088,618.4937931125519" fill="none" stroke="#000000" stroke-width="1.25"/>
	<path d="M 607.2367368256841,619.6975224639838 L 609.6441954604626,618.493793152079" fill="none" stroke="#000000" stroke-width="1.25"/>
	<path d="M 607.236736825684,616.0863345745114 L 602.4218195561272,617.2900639010909" fill="none" stroke="#000000" stroke-width="1.25"/>
	<path d="M 606.0330075082948,612.4751466929541 L 613.2553834126303,620.9012517217612" fill="none" stroke="#000000" stroke-width="1.25"/>
	<path d="M 610.8479247778517,611.2714173654481 L 613.2553834126303,616.0863345354272" fill="none" stroke="#000000" stroke-width="1.25"/>
	<path d="M 614.4591127300197,610.0676880450021 L 617.270562769873,629.8682100658278 L 633.7187818082475,643.7721082244418" fill="none" stroke="#000000" stroke-width="1.25"/>
	<path d="M 650.5709922516972,572.7520675424859 L 651.7747215690865,572.7520675318151" fill="none" stroke="#000000" stroke-width="1.25"/>
	<path d="M 608.4404661430733,541.4551062052951 L 624.8942305909995,527.4771197472115 L 646.1063878546921,517.6017021337708 L 667.4232026951464,513.7693318952472" fill="none" stroke="#000000" stroke-width="1.25"/>
	<path d="M 671.0343906473147,488.49101667003674 L 678.6174716039884,510.2184078106626 L 685.9640907300792,533.8448399639956 L 690.2948005173415,557.2007924506277 L 691.1976669862566,580.8283954139903 L 689.9083533487787,604.336848694428 L 687.8866010907643,628.1236269038234" fill="none" stroke="#000000" stroke-width="1.25"/>
	<path d="M 581.9584211605097,563.12223368318 L 566.8172268593836,578.232998496562 L 550.5945763816778,592.7024798723022 L 532.9285366124545,603.7703410410597 L 511.9491271519188,609.5841292519589 L 490.4964456299033,613.9642765378366 L 471.53801172871215,621.7228204240931 L 454.24078630291194,635.045384021109 L 438.7146323911884,649.7907553377399" fill="none" stroke="#000000" stroke-width="1.25"/>
	<path d="M 425.4736098999069,642.5683795486639 L 436.3071737564101,642.5683795591149" fill="none" stroke="#000000" stroke-width="1.25"/>
	<path d="M 426.677339217296,628.1236279987792 L 447.1407376129132,628.1236280139514" fill="none" stroke="#000000" stroke-width="1.25"/>
	<path d="M 441.12209102596705,619.6975229417184 L 459.17803078680595,619.6975229453589" fill="none" stroke="#000000" stroke-width="1.25"/>
	<path d="M 449.5481962476918,612.4751471723882 L 470.01159464330914,612.4751471682712" fill="none" stroke="#000000" stroke-width="1.25"/>
	<path d="M 453.15938419985974,596.8266663359002 L 461.5854894215844,596.8266663350356" fill="none" stroke="#000000" stroke-width="1.25"/>
	<path d="M 445.93700829552404,589.6042905650943 L 455.56684283463807,589.6042905668869" fill="none" stroke="#000000" stroke-width="1.25"/>
	<path d="M 435.1034444390206,605.2527713929685 L 466.40040669114137,605.2527713986351" fill="none" stroke="#000000" stroke-width="1.25"/>
	<path d="M 484.4563464519802,587.1968319583807 L 484.4563464519802,588.4005612531147" fill="none" stroke="#000000" stroke-width="1.25"/>
	<path d="M 491.6787223563157,589.604290537418 L 514.5495793867117,589.6042904891982" fill="none" stroke="#000000" stroke-width="1.25"/>
	<path d="M 524.1794139258257,589.604290462038 L 528.9943311953825,589.604290446934" fill="none" stroke="#000000" stroke-width="1.25"/>
	<path d="M 513.3458500693223,573.9557976241732 L 524.1794139258254,573.955797593028" fill="none" stroke="#000000" stroke-width="1.25"/>
	<path d="M 543.4390830040536,567.9371510516977 L 544.6428123214429,567.9371510468108" fill="none" stroke="#000000" stroke-width="1.25"/>
	<path d="M 504.91974484759754,581.1781854491009 L 520.568225973658,581.1781854088965" fill="none" stroke="#000000" stroke-width="1.25"/>
	<path d="M 507.327203482376,596.8266662767498 L 535.0129777823288,596.8266661975016" fill="none" stroke="#000000" stroke-width="1.25"/>
	<path d="M 556.6801054953355,622.1049813228362 L 561.4950227648925,626.9198984866172" fill="none" stroke="#000000" stroke-width="1.25"/>
	<path d="M 562.6987520822818,619.6975227046239 L 567.5136693518386,622.1049812747998" fill="none" stroke="#000000" stroke-width="1.25"/>
	<path d="M 506.1234741649868,658.2168603661781 L 521.771955291047,658.2168603301928" fill="none" stroke="#000000" stroke-width="1.25"/>
	<path d="M 520.5682259736578,693.125009942924 L 523.1289569543993,708.5031039259542 L 521.7719552910473,697.9399271289286" fill="none" stroke="#000000" stroke-width="1.25"/>
	<path d="M 490.47499303892675,712.3846787550751 L 495.4210401444615,734.202527537298 L 503.03978043895637,740.1942949165109 L 521.7719552910469,728.0331595667243" fill="none" stroke="#000000" stroke-width="1.25"/>
	<path d="M 496.49367573775226,746.0890990814697 L 492.88248778558443,747.2928283842781" fill="none" stroke="#000000" stroke-width="1.25"/>
	<path d="M 494.0862171029737,744.8853697868944 L 486.5288862083014,758.8999744037334 L 490.15574641482937,774.8465938290641 L 504.9197809594771,779.7935194163431" fill="none" stroke="#000000" stroke-width="1.25"/>
	<path d="M 476.0302773421348,787.015895239848 L 496.4936757377523,787.0158952191547" fill="none" stroke="#000000" stroke-width="1.25"/>
	<path d="M 466.40044280302084,809.8867519164056 L 472.4190893899673,809.8867519136827" fill="none" stroke="#000000" stroke-width="1.25"/>
	<path d="M 454.3631496291284,802.6643761269429 L 488.06757051602744,801.4606468110591" fill="none" stroke="#000000" stroke-width="1.25"/>
	<path d="M 449.5482323595711,849.6098187790614 L 503.7160516420879,849.6098187440633" fill="none" stroke="#000000" stroke-width="1.25"/>
	<path d="M 467.60417212041045,860.4433824686823 L 521.7719914029269,860.443382405313" fill="none" stroke="#000000" stroke-width="1.25"/>
	<path d="M 459.1780668986853,880.9067805570442 L 495.28994642036315,880.9067805339481" fill="none" stroke="#000000" stroke-width="1.25"/>
	<path d="M 424.2699166943971,813.4979397996108 L 418.2512701074508,815.9053983906725" fill="none" stroke="#000000" stroke-width="1.25"/>
	<path d="M 415.8438114726725,820.7203155828051 L 398.9916010292227,824.3315034544513" fill="none" stroke="#000000" stroke-width="1.25"/>
	<path d="M 394.1766837596657,831.5538792391258 L 406.2139769335585,831.5538792592749" fill="none" stroke="#000000" stroke-width="1.25"/>
	<path d="M 397.78787171183376,847.202360132482 L 401.3990596640013,850.8135480356768" fill="none" stroke="#000000" stroke-width="1.25"/>
	<path d="M 398.9916010292227,853.2210066299411 L 395.380413077055,856.8321945211378" fill="none" stroke="#000000" stroke-width="1.25"/>
	<path d="M 392.9729544422763,858.035923815965 L 397.7878717118335,861.6471117219628" fill="none" stroke="#000000" stroke-width="1.25"/>
	<path d="M 396.58414239444414,852.0172773267345 L 392.9729544422764,855.6284652176511" fill="none" stroke="#000000" stroke-width="1.25"/>
	<path d="M 389.36176649010866,848.4060894160657 L 391.7692251248873,853.2210066171368" fill="none" stroke="#000000" stroke-width="1.25"/>
	<path d="M 392.9729544422766,845.9986308248158 L 386.9543078553302,861.647111701992" fill="none" stroke="#000000" stroke-width="1.25"/>
	<path d="M 384.54684922055185,850.8135480045024 L 390.56549580749805,855.6284652131375" fill="none" stroke="#000000" stroke-width="1.25"/>
	<path d="M 366.4909094597129,876.0918632469493 L 366.49090945971284,877.2955925463539" fill="none" stroke="#000000" stroke-width="1.25"/>
	<path d="M 352.04615765104194,877.2955925064065 L 360.47226287276675,877.2955925304417" fill="none" stroke="#000000" stroke-width="1.25"/>
	<path d="M 337.60140584237064,865.2582994655744 L 330.3790299380354,868.8694873384318" fill="none" stroke="#000000" stroke-width="1.25"/>
	<path d="M 329.17530062064617,873.6844045321484 L 313.52682430950296,877.2955923704128" fill="none" stroke="#000000" stroke-width="1.25"/>
	<path d="M 320.7492002138385,865.2582994034329 L 329.17530062064594,871.2769459330729" fill="none" stroke="#000000" stroke-width="1.25"/>
	<path d="M 330.37902993803544,861.6471115415752 L 333.9902178902032,862.8508408540631" fill="none" stroke="#000000" stroke-width="1.25"/>
	<path d="M 324.360388166006,861.6471115189654 L 331.69868772336525,873.8934449705368 L 344.8237817467065,877.2955924841727" fill="none" stroke="#000000" stroke-width="1.25"/>
	<path d="M 341.21259379453875,854.424735783405 L 379.7319319509945,854.4247358915202" fill="none" stroke="#000000" stroke-width="1.25"/>
	<path d="M 361.6759921901559,831.553879162617 L 372.5095560466588,831.5538791917047" fill="none" stroke="#000000" stroke-width="1.25"/>
	<path d="M 358.064804237988,817.109127564257 L 379.73193195099464,817.1091276222871" fill="none" stroke="#000000" stroke-width="1.25"/>
	<path d="M 372.5095560466591,806.2755639153252 L 354.5703588070049,809.8538016260321 L 317.1380122616705,809.8867516201016" fill="none" stroke="#000000" stroke-width="1.25"/>
	<path d="M 312.3230949921138,815.9053980946171 L 315.93428294428145,817.1091274096176" fill="none" stroke="#000000" stroke-width="1.25"/>
	<path d="M 319.5454708964492,820.7203153224874 L 300.28580181822093,831.5538789300762" fill="none" stroke="#000000" stroke-width="1.25"/>
	<path d="M 312.3230949921138,827.9426910868655 L 321.9529295312275,831.5538790252933" fill="none" stroke="#000000" stroke-width="1.25"/>
	<path d="M 327.971576118174,824.3315032541209 L 370.1020974118808,824.331503391718" fill="none" stroke="#000000" stroke-width="1.25"/>
	<path d="M 378.5282026336056,800.2569174369377 L 374.91701468143776,803.8681053240417" fill="none" stroke="#000000" stroke-width="1.25"/>
	<path d="M 376.1207439988269,799.0531881323266 L 372.5095560466591,802.6643760191312" fill="none" stroke="#000000" stroke-width="1.25"/>
	<path d="M 372.5095560466589,794.2382709284525 L 371.3058267292699,802.6643760159615" fill="none" stroke="#000000" stroke-width="1.25"/>
	<path d="M 367.69463877710206,794.2382709153552 L 374.9352338225871,806.5289747774142 L 388.1580371727195,809.886751848312" fill="none" stroke="#000000" stroke-width="1.25"/>
	<path d="M 376.120743998827,794.2382709377879 L 380.93566126838374,797.8494588454145" fill="none" stroke="#000000" stroke-width="1.25"/>
	<path d="M 386.9543078553301,787.015895172114 L 449.5482323595712,787.0158952465202" fill="none" stroke="#000000" stroke-width="1.25"/>
	<path d="M 423.0661873770078,759.3301213711902 L 463.9929841682423,759.3301213869543" fill="none" stroke="#000000" stroke-width="1.25"/>
	<path d="M 423.0661994143011,735.2555354131678 L 416.04322361087213,756.5592534594356 L 428.9907212328984,775.7005749711773 L 449.5629276542637,779.7916819155839 L 473.7633831920376,780.0310877626682 L 473.61110486732844,761.9265538208621 L 472.41910142726033,740.0704526166033" fill="none" stroke="#000000" stroke-width="1.25"/>
	<path d="M 482.04888781720194,688.3100928207103 L 484.4563464519802,688.3100928181789" fill="none" stroke="#000000" stroke-width="1.25"/>
	<path d="M 463.9929480563629,685.9026342389313 L 484.7518887089262,692.7788610337584 L 502.51228621281894,706.3660322502037" fill="none" stroke="#000000" stroke-width="1.25"/>
	<path d="M 471.2153239606985,665.439236190901 L 509.7346621171546,665.4392361382027" fill="none" stroke="#000000" stroke-width="1.25"/>
	<path d="M 467.60413600853065,658.2168604140592 L 483.25261713459093,658.2168604015882" fill="none" stroke="#000000" stroke-width="1.25"/>
	<path d="M 448.3444669303027,665.439236195117 L 459.17803078680595,665.4392361956345" fill="none" stroke="#000000" stroke-width="1.25"/>
	<path d="M 425.47360989990676,658.2168604001527 L 455.5668428346381,658.2168604171516" fill="none" stroke="#000000" stroke-width="1.25"/>
	<path d="M 423.0661512651283,665.4392361763073 L 441.12209102596717,665.4392361922573" fill="none" stroke="#000000" stroke-width="1.25"/>
	<path d="M 418.2512339955712,673.8653412466222 L 456.77057215202734,673.8653412722608" fill="none" stroke="#000000" stroke-width="1.25"/>
	<path d="M 426.677339217296,691.9212807104642 L 425.32687913269507,713.1182044469688 L 424.09883842087226,733.9273578903006 L 443.95248563104326,744.9007690358911 L 465.8808557399772,739.8779143479295 L 472.0630149677387,721.4094598282481 L 451.5507607190778,727.0080868605557 L 432.695985804242,726.8294303386172" fill="none" stroke="#000000" stroke-width="1.25"/>
	<path d="M 419.4550114621331,729.2368889204333 L 406.8694452915023,749.4988010872264 L 412.0886886066856,771.8442532986275 L 401.7115624157177,774.3324977694986 L 403.8065303360727,752.1077455559564" fill="none" stroke="#000000" stroke-width="1.25"/>
	<path d="M 409.8251769230191,731.6443475022143 L 400.1953423839051,738.8667232721795" fill="none" stroke="#000000" stroke-width="1.25"/>
	<path d="M 389.3617785274019,724.4219716762391 L 388.1580492100125,729.2368888643058" fill="none" stroke="#000000" stroke-width="1.25"/>
	<path d="M 391.7691890130077,701.5511150292441 L 394.1766476477862,719.6070544964745" fill="none" stroke="#000000" stroke-width="1.25"/>
	<path d="M 388.15800106084,700.34738572335 L 388.59426501490816,722.3041581762923 L 395.6753121947762,729.4715128220136 L 389.89211024424844,749.0583069896778 L 392.39520846852,771.7553678617613 L 377.3244372043368,779.7935193585105" fill="none" stroke="#000000" stroke-width="1.25"/>
	<path d="M 354.4536162858204,779.793519291948 L 362.8797215075451,779.7935193184585" fill="none" stroke="#000000" stroke-width="1.25"/>
	<path d="M 362.87972150754524,797.8494587975711 L 370.1020974118805,803.8681053114748" fill="none" stroke="#000000" stroke-width="1.25"/>
	<path d="M 336.3976765249816,802.6643759040693 L 354.4536162858204,802.664375966766" fill="none" stroke="#000000" stroke-width="1.25"/>
	<path d="M 333.9902178902028,785.8121657114247 L 333.990217890203,787.0158950101658" fill="none" stroke="#000000" stroke-width="1.25"/>
	<path d="M 324.36038816600626,768.9599554902572 L 310.80866207264285,772.6328810958237 L 289.45223796171774,772.5711432156754" fill="none" stroke="#000000" stroke-width="1.25"/>
	<path d="M 279.8224034226039,771.3674138625561 L 281.02613273999316,771.3674138694976" fill="none" stroke="#000000" stroke-width="1.25"/>
	<path d="M 285.84105000955014,785.8121654850966 L 287.4609082560953,799.2419166083642 L 267.78511024871125,802.6643755716004" fill="none" stroke="#000000" stroke-width="1.25"/>
	<path d="M 277.41494478782516,809.8867514234047 L 291.8596965964965,809.8867515006625" fill="none" stroke="#000000" stroke-width="1.25"/>
	<path d="M 290.65596727910736,797.8494585022345 L 300.2858018182211,802.6643757476827" fill="none" stroke="#000000" stroke-width="1.25"/>
	<path d="M 307.50817772255664,801.4606464831883 L 318.3417415790598,801.4606465320405" fill="none" stroke="#000000" stroke-width="1.25"/>
	<path d="M 307.50817772255664,815.9053980728544 L 303.89698977038876,820.7203152530655" fill="none" stroke="#000000" stroke-width="1.25"/>
	<path d="M 313.52682430950284,823.1277738951179 L 311.11936567472446,825.5352324830233" fill="none" stroke="#000000" stroke-width="1.25"/>
	<path d="M 283.4335913747716,843.5911718417544 L 313.5268243095031,843.5911719834813" fill="none" stroke="#000000" stroke-width="1.25"/>
	<path d="M 276.21121547043634,831.553878807462 L 282.2298620573823,831.5538788397752" fill="none" stroke="#000000" stroke-width="1.25"/>
	<path d="M 262.97019297915415,824.3315029345109 L 295.4708845486641,824.3315031105944" fill="none" stroke="#000000" stroke-width="1.25"/>
	<path d="M 296.6746138660534,793.0345413368086 L 293.0634259138855,796.6457292156152" fill="none" stroke="#000000" stroke-width="1.25"/>
	<path d="M 294.2671552312749,787.0158948291563 L 294.2671552312746,791.8308120253952" fill="none" stroke="#000000" stroke-width="1.25"/>
	<path d="M 290.65596727910724,785.8121655111092 L 299.0820725008318,790.6270827508596" fill="none" stroke="#000000" stroke-width="1.25"/>
	<path d="M 305.10071908777786,787.0158948835847 L 326.7678468007847,787.0158949810514" fill="none" stroke="#000000" stroke-width="1.25"/>
	<path d="M 332.78648857281365,760.5338504359881 L 326.7678468007846,765.3487676048472" fill="none" stroke="#000000" stroke-width="1.25"/>
	<path d="M 329.17530062064606,756.9226625255774 L 320.7492002138385,758.1263917871735" fill="none" stroke="#000000" stroke-width="1.25"/>
	<path d="M 324.36038816600654,755.7189332063031 L 332.7864885728134,772.5711434212981" fill="none" stroke="#000000" stroke-width="1.25"/>
	<path d="M 315.9342829442815,760.5338503621817 L 321.95292953122777,765.348767583898" fill="none" stroke="#000000" stroke-width="1.25"/>
	<path d="M 318.341753616353,737.662993703119 L 314.73056566418535,743.6816401776067" fill="none" stroke="#000000" stroke-width="1.25"/>
	<path d="M 311.11937771201764,734.051805773065 L 321.9529415685208,738.8667230182456" fill="none" stroke="#000000" stroke-width="1.25"/>
	<path d="M 333.99022992749605,736.4592644747349 L 336.39768856227465,738.866723081047" fill="none" stroke="#000000" stroke-width="1.25"/>
	<path d="M 338.80514719705315,736.4592644945348 L 348.43498173616706,736.4592645317225" fill="none" stroke="#000000" stroke-width="1.25"/>
	<path d="M 342.4163351492209,732.8480766146313 L 342.4163351492209,736.4592645088569" fill="none" stroke="#000000" stroke-width="1.25"/>
	<path d="M 342.4163351492209,742.4779109995476 L 342.91526832310905,759.8830490940568 L 340.5281589736125,777.8210382057578 L 323.15665884861676,779.7935191731788" fill="none" stroke="#000000" stroke-width="1.25"/>
	<path d="M 348.434969698874,752.1077454078169 L 353.50990152895685,767.5497385801037 L 343.62005242931707,779.7935192544558" fill="none" stroke="#000000" stroke-width="1.25"/>
	<path d="M 358.0648042379881,759.3301212305456 L 383.3431199031624,759.3301213021001" fill="none" stroke="#000000" stroke-width="1.25"/>
	<path d="M 353.2498869684309,749.7002868283936 L 356.8610749205988,752.107745437068" fill="none" stroke="#000000" stroke-width="1.25"/>
	<path d="M 358.06481627528115,731.6443473738183 L 354.4536283231135,735.2555352553176" fill="none" stroke="#000000" stroke-width="1.25"/>
	<path d="M 337.601417879664,732.8480765953353 L 346.0275231013887,732.8480766285726" fill="none" stroke="#000000" stroke-width="1.25"/>
	<path d="M 341.2126058318317,719.607054332215 L 341.21260583183175,724.4219715238632" fill="none" stroke="#000000" stroke-width="1.25"/>
	<path d="M 338.8050990478805,699.1436562606692 L 340.0088283652698,699.1436562657635" fill="none" stroke="#000000" stroke-width="1.25"/>
	<path d="M 311.1193295628451,708.7734905120753 L 333.0141947295673,712.8992086599359 L 353.3224113047682,722.5824385426064 L 368.7681659186034,731.664512013631 L 379.7318958391153,749.7002869081597" fill="none" stroke="#000000" stroke-width="1.25"/>
	<path d="M 402.6027889813905,794.2382709934814 L 415.8438114726722,794.2382710129019" fill="none" stroke="#000000" stroke-width="1.25"/>
	<path d="M 417.0475407900616,808.6830225971853 L 420.6587287422293,809.8867518999335" fill="none" stroke="#000000" stroke-width="1.25"/>
	<path d="M 412.23262352050455,809.8867518897343 L 423.0661873770078,824.331503487079" fill="none" stroke="#000000" stroke-width="1.25"/>
	<path d="M 408.62143556833695,813.4979397807572 L 414.640082155283,818.312856983805" fill="none" stroke="#000000" stroke-width="1.25"/>
	<path d="M 344.8237817467063,911.0000128735653 L 417.0475407900615,911.0000130221626" fill="none" stroke="#000000" stroke-width="1.25"/>
	<path d="M 335.19394720759203,911.0000128428039 L 336.3976765249815,911.0000128467901" fill="none" stroke="#000000" stroke-width="1.25"/>
	<path d="M 282.2298620573823,790.6270826616991 L 288.2485086443286,795.4419998911692" fill="none" stroke="#000000" stroke-width="1.25"/>
	<path d="M 250.93289980526157,787.0158945734794 L 273.80375683565745,787.0158947159894" fill="none" stroke="#000000" stroke-width="1.25"/>
	<path d="M 268.9888395661005,750.9040157147148 L 277.4149447878252,749.7002864679448" fill="none" stroke="#000000" stroke-width="1.25"/>
	<path d="M 283.4336034120648,735.2555349197185 L 274.8869612504815,723.8943600772202 L 284.6373327294541,714.792136853291" fill="none" stroke="#000000" stroke-width="1.25"/>
	<path d="M 297.87835522073567,723.2182420185043 L 296.11934600303744,746.7545237437284 L 309.9156483946285,759.3301210348903" fill="none" stroke="#000000" stroke-width="1.25"/>
	<path d="M 256.951558429501,750.9040156361827 L 261.04848877777647,736.8126519146928 L 272.60003955556135,730.4406176584522" fill="none" stroke="#000000" stroke-width="1.25"/>
	<path d="M 242.50679458353693,759.3301206301846 L 296.6746138660533,759.330120967437" fill="none" stroke="#000000" stroke-width="1.25"/>
	<path d="M 228.06204277486577,759.3301205236103 L 243.2695859520703,754.5569529671133 L 255.74781707481858,743.681639833967" fill="none" stroke="#000000" stroke-width="1.25"/>
	<path d="M 264.17388618466396,678.6802577715334 L 284.6372845802812,695.5324680822521" fill="none" stroke="#000000" stroke-width="1.25"/>
	<path d="M 291.85966048461677,661.8280477903057 L 288.4527914361243,680.1007899026453 L 288.08106650880427,700.8226697749501 L 295.6937802626564,719.2094025509534 L 304.7580287176085,710.4931009674015 L 313.52678819762343,693.1250096525966" fill="none" stroke="#000000" stroke-width="1.25"/>
	<path d="M 330.37899382615575,646.1795671455548 L 316.2763261404645,660.2259723314686 L 308.7929315633177,679.0087601465655 L 315.448265730144,690.7434868646732 L 331.30299171915846,676.2755158414532 L 345.73483954728795,662.1557563928944 L 353.2498508565515,646.1795672485227" fill="none" stroke="#000000" stroke-width="1.25"/>
	<path d="M 358.0647681261085,646.179567267549 L 364.0834147130549,658.2168602559293" fill="none" stroke="#000000" stroke-width="1.25"/>
	<path d="M 355.65730949133,654.6056723344606 L 364.0834147130548,653.4019430692865" fill="none" stroke="#000000" stroke-width="1.25"/>
	<path d="M 361.6759560782764,648.5870258742353 L 355.65730949133,654.6056723344606" fill="none" stroke="#000000" stroke-width="1.25"/>
	<path d="M 372.5095199347795,650.9944845049399 L 407.4176701390678,650.9944845945414" fill="none" stroke="#000000" stroke-width="1.25"/>
	<path d="M 414.6400460434035,650.994484607075 L 430.28852716946375,650.994484627169" fill="none" stroke="#000000" stroke-width="1.25"/>
	<path d="M 415.84377536079273,635.3460037591306 L 438.7146323911885,635.3460037848025" fill="none" stroke="#000000" stroke-width="1.25"/>
	<path d="M 413.43631672601424,619.697522909813 L 436.30717375640995,619.6975229384585" fill="none" stroke="#000000" stroke-width="1.25"/>
	<path d="M 411.02885809123563,612.4751471323237 L 441.122091025967,612.4751471689605" fill="none" stroke="#000000" stroke-width="1.25"/>
	<path d="M 411.02885809123575,605.2527713602013 L 424.26988058251743,605.2527713812802" fill="none" stroke="#000000" stroke-width="1.25"/>
	<path d="M 409.82512877384653,596.8266662918332 L 421.86242194773905,596.8266663122225" fill="none" stroke="#000000" stroke-width="1.25"/>
	<path d="M 411.0288580912357,589.6042905245321 L 436.30717375640995,589.6042905592382" fill="none" stroke="#000000" stroke-width="1.25"/>
	<path d="M 429.0847978520744,582.3819147841468 L 450.7519255650811,582.3819147986543" fill="none" stroke="#000000" stroke-width="1.25"/>
	<path d="M 429.0847978520745,567.9371512146954 L 425.4736098999067,572.7520683869612" fill="none" stroke="#000000" stroke-width="1.25"/>
	<path d="M 426.677339217296,571.5483390942737 L 447.91695440104974,573.2095456995935 L 464.0746001047756,587.422293969163 L 476.0302412302556,606.4565006871896" fill="none" stroke="#000000" stroke-width="1.25"/>
	<path d="M 491.6787223563157,596.8266663068752 L 501.3085568954297,596.8266662895901" fill="none" stroke="#000000" stroke-width="1.25"/>
	<path d="M 495.2899103084835,604.0490420715803 L 510.93839143454375,604.0490420394225" fill="none" stroke="#000000" stroke-width="1.25"/>
	<path d="M 490.47499303892647,581.1781854765422 L 497.6973689432619,581.1781854639821" fill="none" stroke="#000000" stroke-width="1.25"/>
	<path d="M 488.06753440414803,573.9557976762665 L 497.6973689432619,573.9557976598186" fill="none" stroke="#000000" stroke-width="1.25"/>
	<path d="M 486.86380508675865,566.733421912741 L 518.1607673388794,566.7334218447894" fill="none" stroke="#000000" stroke-width="1.25"/>
	<path d="M 501.30855689542966,558.3073168287962 L 514.5495793867117,558.307316796256" fill="none" stroke="#000000" stroke-width="1.25"/>
	<path d="M 496.4936396258728,551.0849410761982 L 512.1421207519331,551.0849410398661" fill="none" stroke="#000000" stroke-width="1.25"/>
	<path d="M 500.10482757804056,543.862565307843 L 508.53093279976525,543.862565288003" fill="none" stroke="#000000" stroke-width="1.25"/>
	<path d="M 497.6973689432619,535.4364602604888 L 502.51228621281894,535.4364602499461" fill="none" stroke="#000000" stroke-width="1.25"/>
	<path d="M 478.43769986503395,543.8625653432953 L 484.45634645198027,543.8625653356958" fill="none" stroke="#000000" stroke-width="1.25"/>
	<path d="M 480.84515849981244,551.0849411010024 L 491.6787223563157,551.0849410850582" fill="none" stroke="#000000" stroke-width="1.25"/>
	<path d="M 483.25261713459093,558.30731686005 L 490.47499303892647,558.307316849365" fill="none" stroke="#000000" stroke-width="1.25"/>
	<path d="M 476.03024123025557,535.4364602940034 L 491.6787223563157,535.4364602720844" fill="none" stroke="#000000" stroke-width="1.25"/>
	<path d="M 473.6227825954769,528.2140845394458 L 478.43769986503384,528.2140845344586" fill="none" stroke="#000000" stroke-width="1.25"/>
	<path d="M 470.01159464330914,520.9917087873641 L 479.64142918242317,520.9917087778216" fill="none" stroke="#000000" stroke-width="1.25"/>
	<path d="M 467.60413600853065,512.5656037437993 L 479.64142918242317,512.5656037323985" fill="none" stroke="#000000" stroke-width="1.25"/>
	<path d="M 473.6227825954769,505.3432279879899 L 479.64142918242317,505.343227981267" fill="none" stroke="#000000" stroke-width="1.25"/>
	<path d="M 478.43769986503395,498.1208522336755 L 479.64142918242317,498.1208522321581" fill="none" stroke="#000000" stroke-width="1.25"/>
	<path d="M 473.622782595477,489.6947472011686 L 478.43769986503395,489.69474719576084" fill="none" stroke="#000000" stroke-width="1.25"/>
	<path d="M 462.78921873897366,498.1208522464877 L 473.6227825954769,498.1208522389855" fill="none" stroke="#000000" stroke-width="1.25"/>
	<path d="M 465.1966773737521,505.3432279942595 L 468.8078653259199,505.3432279920214" fill="none" stroke="#000000" stroke-width="1.25"/>
	<path d="M 460.3817601041951,489.69474720965616 L 463.9929480563629,489.6947472082699" fill="none" stroke="#000000" stroke-width="1.25"/>
	<path d="M 457.9743014694166,482.47237146605977 L 477.2339705476446,482.4723714528871" fill="none" stroke="#000000" stroke-width="1.25"/>
	<path d="M 484.4563464519802,466.823894282388 L 484.45634645198027,508.84207568316276 L 487.7638111501491,527.9159112298444 L 508.83812053385367,530.033228472756 L 518.879137504174,548.2885255109535 L 528.4644522032468,566.8957509633075 L 537.4204364171071,585.9931025330079" fill="none" stroke="#000000" stroke-width="1.25"/>
	<path d="M 425.4736098999067,565.529692621947 L 424.26988058251743,570.3446097968239" fill="none" stroke="#000000" stroke-width="1.25"/>
	<path d="M 411.02885809123575,582.3819147561361 L 419.45496331296056,582.381914771009" fill="none" stroke="#000000" stroke-width="1.25"/>
	<path d="M 406.21394082167876,573.9557976472613 L 407.57941290233543,597.2178947592618 L 397.5970794684048,612.8305486634571 L 377.59436154869786,618.6016384492476 L 368.8983319826119,640.1609208251173" fill="none" stroke="#000000" stroke-width="1.25"/>
	<path d="M 376.12070788694746,642.5683794416284 L 396.58410628256473,642.5683794978362" fill="none" stroke="#000000" stroke-width="1.25"/>
	<path d="M 403.80648218690015,642.5683795136739 L 415.8437753607927,642.5683795354319" fill="none" stroke="#000000" stroke-width="1.25"/>
	<path d="M 405.0102115042894,658.2168603684141 L 417.04750467818207,658.2168603890624" fill="none" stroke="#000000" stroke-width="1.25"/>
	<path d="M 376.12070788694734,658.2168602957961 L 397.787835599954,658.216860353312" fill="none" stroke="#000000" stroke-width="1.25"/>
	<path d="M 379.7318958391151,635.3460036754723 L 402.60275286951094,635.3460037345873" fill="none" stroke="#000000" stroke-width="1.25"/>
	<path d="M 382.1393544738936,628.1236279064332 L 394.1766476477862,628.1236279394084" fill="none" stroke="#000000" stroke-width="1.25"/>
	<path d="M 384.54681310867204,619.697522842547 L 407.41767013906804,619.6975228986604" fill="none" stroke="#000000" stroke-width="1.25"/>
	<path d="M 338.80509904788045,642.5683792959973 L 338.80509904788045,648.5870257793057" fill="none" stroke="#000000" stroke-width="1.25"/>
	<path d="M 331.5827231435449,636.5497327783248 L 330.3789938261557,642.568379255402" fill="none" stroke="#000000" stroke-width="1.25"/>
	<path d="M 326.7678106889052,636.5497327538422 L 335.19391109571274,638.957191389149" fill="none" stroke="#000000" stroke-width="1.25"/>
	<path d="M 321.9528934193482,624.5124397631681 L 323.1566227367374,624.5124397697418" fill="none" stroke="#000000" stroke-width="1.25"/>
	<path d="M 321.9528934193482,622.1049811704205 L 319.5454347845698,624.5124397498412" fill="none" stroke="#000000" stroke-width="1.25"/>
	<path d="M 320.7491641019589,616.0863346822798 L 324.3603520541266,616.0863347022862" fill="none" stroke="#000000" stroke-width="1.25"/>
	<path d="M 329.17526450876636,618.4937933204372 L 330.37899382615575,624.5124398079299" fill="none" stroke="#000000" stroke-width="1.25"/>
	<path d="M 296.67457775417375,611.2714173490331 L 294.4652197641426,631.0056490204515 L 292.55304290882094,654.611605254148 L 300.2350634749203,652.0472065265975 L 313.9393337121387,634.8104425854975 L 315.93424683240175,616.086334654756" fill="none" stroke="#000000" stroke-width="1.25"/>
	<path d="M 296.67457775417387,600.437853682236 L 301.48949502373085,600.4378537145049" fill="none" stroke="#000000" stroke-width="1.25"/>
	<path d="M 293.0633898020061,601.6415829536356 L 303.89695365850935,605.2527709148355" fill="none" stroke="#000000" stroke-width="1.25"/>
	<path d="M 288.248472532449,604.0490415124298 L 297.8783070715631,606.4565001715963" fill="none" stroke="#000000" stroke-width="1.25"/>
	<path d="M 291.8596604846169,583.5856435041061 L 296.6745777541739,583.5856435383898" fill="none" stroke="#000000" stroke-width="1.25"/>
	<path d="M 294.26711911939526,567.9371506410366 L 308.7118709280664,583.5856436196052" fill="none" stroke="#000000" stroke-width="1.25"/>
	<path d="M 321.9528934193482,561.9185043519262 L 321.9528934193482,563.122233646762" fill="none" stroke="#000000" stroke-width="1.25"/>
	<path d="M 336.39764041310195,569.1408802041531 L 355.65730949132995,569.140880299631" fill="none" stroke="#000000" stroke-width="1.25"/>
	<path d="M 344.8237456348267,573.955797427264 L 348.4349335869946,573.9557974449087" fill="none" stroke="#000000" stroke-width="1.25"/>
	<path d="M 344.82374563482676,560.7147751856772 L 362.3128992099498,566.5144187240088 L 370.1020613000009,583.5856439339616" fill="none" stroke="#000000" stroke-width="1.25"/>
	<path d="M 346.027474952216,553.4923994256117 L 350.84239222177297,555.8998580381118" fill="none" stroke="#000000" stroke-width="1.25"/>
	<path d="M 340.0088283652697,555.8998579827413 L 329.1752645087665,563.1222336897725" fill="none" stroke="#000000" stroke-width="1.25"/>
	<path d="M 303.8969536585094,546.2700234005222 L 308.7118709280664,546.270023434544" fill="none" stroke="#000000" stroke-width="1.25"/>
	<path d="M 277.41490867594575,554.6961282602713 L 288.6508687106207,560.075060416037 L 293.063389802006,572.7520678141676" fill="none" stroke="#000000" stroke-width="1.25"/>
	<path d="M 272.59999140638877,571.5483383590635 L 278.618637993335,571.5483384079613" fill="none" stroke="#000000" stroke-width="1.25"/>
	<path d="M 261.7664275498855,583.5856432665665 L 268.98880345422106,583.585643327235" fill="none" stroke="#000000" stroke-width="1.25"/>
	<path d="M 252.13659301077143,554.6961280354628 L 255.7477809629392,554.6961280694073" fill="none" stroke="#000000" stroke-width="1.25"/>
	<path d="M 258.1552395977177,540.2513765452879 L 255.74778096293932,543.8625644086703" fill="none" stroke="#000000" stroke-width="1.25"/>
	<path d="M 246.11794642382515,523.3991662927697 L 252.82124421552555,501.59924018008684 L 262.23729161296285,480.7123009333245 L 273.7121739480075,460.9968733994637 L 286.88229282178725,442.6558080922913 L 301.9726946266905,425.70620997480506 L 318.7854944013309,410.28113823441197 L 337.1025490786545,396.5235409164659 L 356.7057155916066,384.5763660643411 L 377.37685087313315,374.582561720029 L 398.8978118561797,366.6850759250826 L 421.05045547369207,361.0268567218878 L 443.6166386586159,357.750852155166 L 466.3782183438971,357.0000102735072 L 489.22703542216385,358.7667975943781 L 511.7288437678865,362.5637425876785 L 533.6875543177262,368.41415790587007 L 555.0285996209254,376.403065205767 L 575.5021969604052,386.6314179519424 L 595.199443651792,398.2113242837505" fill="none" stroke="#000000" stroke-width="1.25"/>
	<path d="M 604.8292781909057,422.2859099439036 L 615.662842047409,429.5082855735945" fill="none" stroke="#000000" stroke-width="1.25"/>
	<path d="M 626.4964059039121,422.2859097257995 L 631.3113231734692,422.2859096733373" fill="none" stroke="#000000" stroke-width="1.25"/>
	<path d="M 628.9038645386908,411.45234609898876 L 636.9731607714576,398.5694688726684 L 655.0600454950929,403.7361098612991 L 663.8120147429794,419.8784507000758" fill="none" stroke="#000000" stroke-width="1.25"/>
	<path d="M 654.182180203865,457.1940588518046 L 662.6082854255898,457.19405875326316" fill="none" stroke="#000000" stroke-width="1.25"/>
	<path d="M 650.5709922516972,472.84253969519784 L 662.0580321464549,474.81397729838585 L 673.4418492820937,471.6388101391139" fill="none" stroke="#000000" stroke-width="1.25"/>
	<path d="M 615.662842047409,457.1940592502932 L 643.3486163473616,457.1940589725025" fill="none" stroke="#000000" stroke-width="1.25"/>
	<path d="M 615.6628420474088,442.7493077619826 L 674.6455785994824,442.74930709436353" fill="none" stroke="#000000" stroke-width="1.25"/>
	<path d="M 608.4404661430733,457.1940593155122 L 609.6441954604626,457.1940593048506" fill="none" stroke="#000000" stroke-width="1.25"/>
	<path d="M 598.8106316039593,442.74930791469495 L 606.0330075082948,442.74930785131687" fill="none" stroke="#000000" stroke-width="1.25"/>
	<path d="M 581.9584211605097,443.95303733996275 L 587.9621369358484,427.00854915972417 L 603.405845104061,419.87472021541555 L 609.3029301157515,403.4086110867281 L 626.4964059039119,404.22997039647294" fill="none" stroke="#000000" stroke-width="1.25"/>
	<path d="M 560.2912934475032,411.45234671627486 L 568.7173986692281,411.45234665680965" fill="none" stroke="#000000" stroke-width="1.25"/>
	<path d="M 562.6987520822818,454.78660107917807 L 568.8159916236305,442.74113918632673 L 580.7546918431208,437.9343909026104" fill="none" stroke="#000000" stroke-width="1.25"/>
	<path d="M 575.9397745735635,457.19405957188206 L 583.162150477899,457.1940595201598" fill="none" stroke="#000000" stroke-width="1.25"/>
	<path d="M 467.60413600853065,430.7120156496827 L 478.43769986503406,428.30455706357947" fill="none" stroke="#000000" stroke-width="1.25"/>
	<path d="M 455.56684283463807,428.30455708051636 L 467.60413600853076,433.11947422411754" fill="none" stroke="#000000" stroke-width="1.25"/>
	<path d="M 449.5481962476918,464.41643572688923 L 454.3108710341346,483.94412863640514 L 460.60031516307936,503.76034585492886 L 466.3607065375406,523.3861554015022 L 471.825629089345,543.1072114098547 L 477.34097017089465,562.8102268724466 L 483.25261713459105,582.3819147813363" fill="none" stroke="#000000" stroke-width="1.25"/>
	<path d="M 403.8064821869002,517.3805208502031 L 405.0102115042895,517.3805208532694" fill="none" stroke="#000000" stroke-width="1.25"/>
	<path d="M 374.916978569558,465.6201648364335 L 383.34308379128294,465.6201648724752" fill="none" stroke="#000000" stroke-width="1.25"/>
	<path d="M 380.9356251565044,458.3977891241541 L 394.1766476477862,458.3977891753558" fill="none" stroke="#000000" stroke-width="1.25"/>
	<path d="M 386.9542717434506,442.7493083924193 L 394.1766476477861,442.7493084201204" fill="none" stroke="#000000" stroke-width="1.25"/>
	<path d="M 389.36173037822914,428.304556947613 L 394.1766476477861,428.3045569663975" fill="none" stroke="#000000" stroke-width="1.25"/>
	<path d="M 402.6027528695108,412.65607627086126 L 402.60345746648323,456.17126270545424 L 396.9990875782593,474.2065648007669 L 373.6118772891611,473.8209499042437 L 360.5583490338079,487.4114601268766 L 353.24985085655135,508.954415606872" fill="none" stroke="#000000" stroke-width="1.25"/>
	<path d="M 347.23120426960526,496.9171226515015 L 352.0461215391622,496.91712267817286" fill="none" stroke="#000000" stroke-width="1.25"/>
	<path d="M 348.4349335869945,481.2686418668951 L 356.8610388087193,481.26864191381986" fill="none" stroke="#000000" stroke-width="1.25"/>
	<path d="M 344.82374563482676,474.0462697100122 L 360.472226760887,474.0462697985851" fill="none" stroke="#000000" stroke-width="1.25"/>
	<path d="M 356.86103880871923,465.62016474572226 L 367.69460266522253,465.6201648023546" fill="none" stroke="#000000" stroke-width="1.25"/>
	<path d="M 377.3244372043366,451.1754133724303 L 394.1766476477862,451.17541344049636" fill="none" stroke="#000000" stroke-width="1.25"/>
	<path d="M 374.916978569558,435.5269326094363 L 394.1766476477862,435.526932691655" fill="none" stroke="#000000" stroke-width="1.25"/>
	<path d="M 361.67595607827633,442.74930827101394 L 376.12070788694734,442.74930834504596" fill="none" stroke="#000000" stroke-width="1.25"/>
	<path d="M 343.62001631743755,451.17541318660545 L 356.8610388087194,451.1754132675099" fill="none" stroke="#000000" stroke-width="1.25"/>
	<path d="M 337.6013697304913,458.3977888863019 L 373.7132492521689,458.39778909198895" fill="none" stroke="#000000" stroke-width="1.25"/>
	<path d="M 333.99018177832335,465.6201646044356 L 340.0088283652698,465.6201646444755" fill="none" stroke="#000000" stroke-width="1.25"/>
	<path d="M 326.7678106889051,474.0462695909858 L 335.1939110957126,474.0462696487751" fill="none" stroke="#000000" stroke-width="1.25"/>
	<path d="M 336.3976404131019,488.49101754297135 L 354.45358017394085,488.4910176489128" fill="none" stroke="#000000" stroke-width="1.25"/>
	<path d="M 337.6013697304912,504.13949834857385 L 349.63866290438375,504.13949841798075" fill="none" stroke="#000000" stroke-width="1.25"/>
	<path d="M 321.9528934193482,488.49101744564916 L 329.17526450876653,488.4910174957067" fill="none" stroke="#000000" stroke-width="1.25"/>
	<path d="M 320.74916410195897,481.26864168551515 L 342.41628700004816,481.26864183101253" fill="none" stroke="#000000" stroke-width="1.25"/>
	<path d="M 313.5267881976234,496.9171224306736 L 327.97154000629445,496.91712253262733" fill="none" stroke="#000000" stroke-width="1.25"/>
	<path d="M 308.7118709280663,504.13949815139284 L 330.37899382615564,504.13949830332916" fill="none" stroke="#000000" stroke-width="1.25"/>
	<path d="M 299.08203638895236,504.1394980760645 L 312.0092516094313,484.86484294725244 L 323.83361712568814,464.8799781196248 L 336.6037292925643,445.7429049827179 L 357.68347634237716,436.23321273523015 L 377.40067469456307,424.4660028463519 L 398.02206931703773,412.6277963871073 L 418.0326978358679,418.9939911060069 L 437.47856435764845,436.759355451232 L 445.84937701516526,456.5357462682718 L 463.9866974384996,465.2890554466524 L 486.59544691229195,468.09403222049576 L 502.99546847356015,483.86286212187093 L 517.3580929372474,503.2462698561098 L 531.5116541789308,521.6418740994145 L 551.3613522049332,531.5952607466202 L 568.8769965111169,546.6709736359628 L 583.6271442605592,561.4822121994827 L 601.4231630490676,545.9077936974675 L 603.4211203989612,557.4205966550886 L 596.3829076486694,580.4726749303401 L 589.8839701131122,602.7943986080276 L 583.1227085768534,625.1384931845963 L 561.5410737355493,628.0611654173047 L 541.9917034093219,636.7649828142902 L 529.6045988745045,657.200108770643 L 518.1607673388796,677.4765290870381" fill="none" stroke="#000000" stroke-width="1.25"/>
	<path d="M 391.7691890130076,695.5324685428889 L 400.33523162073175,689.5427949782223 L 422.50716306019143,685.1345898023029 L 444.87420321537087,681.9895493650672 L 466.75838838381327,675.907535924992 L 489.00367366302794,672.6624880925583 L 509.5435742799502,680.8712284364889 L 530.5566639515027,688.5969822495299 L 550.5486987345153,695.8410186336105 L 552.35762245852,717.4363482055556 L 542.513742753908,736.9113888782637 L 532.1399922126453,742.1738067981477 L 518.8347952981273,723.4937818811958 L 512.1421207519331,702.7548443399187" fill="none" stroke="#000000" stroke-width="1.25"/>
	<path d="M 456.7705721520274,475.2499993356275 L 467.60413600853065,475.24999933133324" fill="none" stroke="#000000" stroke-width="1.25"/>
	<path d="M 437.5109030737993,405.43370063748824 L 442.3258203433563,405.4337006422439" fill="none" stroke="#000000" stroke-width="1.25"/>
	<path d="M 424.2698805825176,394.60013705617894 L 455.56684283463807,394.6001370880165" fill="none" stroke="#000000" stroke-width="1.25"/>
	<path d="M 461.58548942158444,393.3964078027856 L 461.5854894215844,394.60013708656487" fill="none" stroke="#000000" stroke-width="1.25"/>
	<path d="M 439.91836170857783,383.76657353082965 L 467.60413600853065,383.7665735332143" fill="none" stroke="#000000" stroke-width="1.25"/>
	<path d="M 406.2139408216787,383.76657345598915 L 421.86242194773905,383.76657350055984" fill="none" stroke="#000000" stroke-width="1.25"/>
	<path d="M 294.26711911939526,470.43508145565 L 294.2671191193954,471.63881074747553" fill="none" stroke="#000000" stroke-width="1.25"/>
	<path d="M 283.433555262892,507.7506858242443 L 299.57594925998546,517.3907846561063 L 322.1450473480903,517.3805204718051 L 344.185085348906,517.3805206070165 L 365.96375336492633,518.7771701695634 L 379.4014758556837,535.6081031312617 L 391.194759043181,554.8447679479053 L 404.88462480939216,571.7307081760383 L 420.6586926303497,567.9371512031206" fill="none" stroke="#000000" stroke-width="1.25"/>
	<path d="M 288.2484725324491,511.361873747012 L 284.6372845802813,514.9730615975404" fill="none" stroke="#000000" stroke-width="1.25"/>
	<path d="M 282.22982594550274,516.1767908706336 L 259.35896891510697,517.3805199525357" fill="none" stroke="#000000" stroke-width="1.25"/>
	<path d="M 278.618637993335,511.3618736627735 L 282.22982594550274,514.9730615766387" fill="none" stroke="#000000" stroke-width="1.25"/>
	<path d="M 226.85827734559706,552.2886691879379 L 237.4913765321175,536.8363283172218 L 257.1104524409608,538.9187054423605 L 274.7723521080171,544.6744299421957 L 265.3776155020531,559.5110573768285" fill="none" stroke="#000000" stroke-width="1.25"/>
	<path d="M 223.24708939342926,583.5856429039771 L 249.72913437599297,583.585643160318" fill="none" stroke="#000000" stroke-width="1.25"/>
	<path d="M 238.89557051948967,607.6602290007509 L 256.9515102803284,608.863958456436" fill="none" stroke="#000000" stroke-width="1.25"/>
	<path d="M 268.98880345422094,634.1422737923582 L 281.0260966281135,640.1609203660953" fill="none" stroke="#000000" stroke-width="1.25"/>
	<path d="M 277.4149086759458,636.5497324488788 L 270.1925327716102,644.9758374776966" fill="none" stroke="#000000" stroke-width="1.25"/>
	<path d="M 273.80372072377816,634.1422738282263 L 271.3962620889995,640.1609202969328" fill="none" stroke="#000000" stroke-width="1.25"/>
	<path d="M 235.28438256732184,630.5310856215054 L 238.32041557111518,647.9924364540984 L 251.18826224511304,664.5201380802564 L 264.61752679392737,677.5089578588685 L 269.08595045384186,655.945673866113 L 264.17388618466396,637.753461647726" fill="none" stroke="#000000" stroke-width="1.25"/>
	<path d="M 229.2657359803756,640.1609199505459 L 225.65454802820784,641.3646492156572" fill="none" stroke="#000000" stroke-width="1.25"/>
	<path d="M 228.06200666298636,638.9571906415442 L 229.2657359803756,640.1609199505459" fill="none" stroke="#000000" stroke-width="1.25"/>
	<path d="M 223.24708939342926,635.3460027027689 L 220.83963075865088,640.1609198727123" fill="none" stroke="#000000" stroke-width="1.25"/>
	<path d="M 225.65454802820778,631.7348148312186 L 230.46946529776477,637.7534613654229" fill="none" stroke="#000000" stroke-width="1.25"/>
	<path d="M 229.26573598037555,629.3273562689047 L 230.46946529776477,637.7534613654228" fill="none" stroke="#000000" stroke-width="1.25"/>
	<path d="M 208.80233276984086,571.5483377398848 L 265.37761550205323,571.5483382982204" fill="none" stroke="#000000" stroke-width="1.25"/>
</svg>
