<?xml version="1.0" ?>
<svg xmlns="http://www.w3.org/2000/svg" xmlns:ev="http://www.w3.org/2001/xml-events" xmlns:xlink="http://www.w3.org/1999/xlink" baseProfile="full" height="600px" version="1.1" viewBox="-0.625 -0.625 901.25 1251.25" width="433px">
	<defs/>
	<path d="M 0.0,0.0 L 900.0,0.0 L 900.0,1250.0 L 0.0,1250.0 L 0.0,0.0" fill="none" stroke="#000000" stroke-width="1.25"/>
	<path d="M 43.0,31.0 L 47.0,31.0 L 47.0,35.0 L 43.0,35.0 L 43.0,31.0" fill="none" stroke="#000000" stroke-width="1.25"/>
	<path d="M 863.0,31.0 L 867.0,31.0 L 867.0,35.0 L 863.0,35.0 L 863.0,31.0" fill="none" stroke="#000000" stroke-width="1.25"/>
	<path d="M 135.0,337.0 L 765.0,337.0 L 765.0,931.0 L 135.0,931.0 L 135.0,337.0" fill="none" stroke="#000000" stroke-width="1.25"/>
	<path d="M 463.2509608065502,921.000013136892 L 530.5989642754984,921.0000130593387" fill="none" stroke="#000000" stroke-width="1.25"/>
	<path d="M 539.329261021473,889.8203822652335 L 635.3625252271953,889.820381903442" fill="none" stroke="#000000" stroke-width="1.25"/>
	<path d="M 615.4075612363963,899.7978638506255 L 681.5083794559192,899.7978634908002" fill="none" stroke="#000000" stroke-width="1.25"/>
	<path d="M 666.5421564628198,837.4386020067964 L 692.7330467007442,837.4386018284123" fill="none" stroke="#000000" stroke-width="1.25"/>
	<path d="M 677.7668237076444,816.2364529998503 L 692.7330467007442,816.2364528925416" fill="none" stroke="#000000" stroke-width="1.25"/>
	<path d="M 666.5421564628195,826.2139349253196 L 681.5083794559195,826.2139348245258" fill="none" stroke="#000000" stroke-width="1.25"/>
	<path d="M 641.5984514743205,847.4160840063195 L 692.7330467007442,847.416083681412" fill="none" stroke="#000000" stroke-width="1.25"/>
	<path d="M 640.3512662248954,805.0117861599451 L 661.5534154651198,805.011786028688" fill="none" stroke="#000000" stroke-width="1.25"/>
	<path d="M 654.07030396857,785.0568223830372 L 675.2724532087943,785.056822238864" fill="none" stroke="#000000" stroke-width="1.25"/>
	<path d="M 645.3400072225951,785.0568224381652 L 646.5871924720202,785.0568224304411" fill="none" stroke="#000000" stroke-width="1.25"/>
	<path d="M 635.3625252271953,773.8321554235115 L 695.2274171995937,773.8321550090375" fill="none" stroke="#000000" stroke-width="1.25"/>
	<path d="M 645.3400072225953,763.8546735185379 L 695.2274171995937,763.8546731601219" fill="none" stroke="#000000" stroke-width="1.25"/>
	<path d="M 644.092834445023,716.4616347793791 L 645.5349819699723,734.2000339655445 L 644.8365038591191,755.9473707926344 L 631.9271059700789,764.6289361052025 L 611.666017959974,763.8546737135165" fill="none" stroke="#000000" stroke-width="1.25"/>
	<path d="M 594.2054119961715,773.8321556400198 L 617.9019317352461,773.8321555221742" fill="none" stroke="#000000" stroke-width="1.25"/>
	<path d="M 630.3737842294955,795.0343043714823 L 692.7330467007439,795.0343039592188" fill="none" stroke="#000000" stroke-width="1.25"/>
	<path d="M 620.396302234096,816.2364533465841 L 657.8118597168448,816.2364531320785" fill="none" stroke="#000000" stroke-width="1.25"/>
	<path d="M 589.2166709984718,826.2139353363667 L 600.4413382432966,826.2139352881057" fill="none" stroke="#000000" stroke-width="1.25"/>
	<path d="M 574.2504480053722,837.438602469616 L 649.0815629708701,837.4386021141645" fill="none" stroke="#000000" stroke-width="1.25"/>
	<path d="M 576.7448185042222,805.0117864685036 L 627.8794137306459,805.011786230521" fill="none" stroke="#000000" stroke-width="1.25"/>
	<path d="M 570.5088922570972,795.0343046501598 L 586.7223004996218,795.0343045860108" fill="none" stroke="#000000" stroke-width="1.25"/>
	<path d="M 569.2617070076723,785.0568228139408 L 596.6997824950214,785.0568227000567" fill="none" stroke="#000000" stroke-width="1.25"/>
	<path d="M 616.6547589576734,735.1694133968392 L 621.6434999553735,740.1581542880622" fill="none" stroke="#000000" stroke-width="1.25"/>
	<path d="M 625.3850557036483,735.1694133464935 L 624.1378704542235,737.6637838137028" fill="none" stroke="#000000" stroke-width="1.25"/>
	<path d="M 621.6434999553735,732.6750429086524 L 621.7683977631956,745.7994287555263 L 621.6434999553736,762.6074884294771" fill="none" stroke="#000000" stroke-width="1.25"/>
	<path d="M 616.6547589576737,720.2031906399528 L 612.9132032093985,723.9447463500601" fill="none" stroke="#000000" stroke-width="1.25"/>
	<path d="M 610.4187828231388,715.2144497568597 L 610.6165616437834,738.3218263820511 L 607.4103995591231,762.6576202908146 L 582.4833682369402,764.8720887706966 L 558.9503478595062,769.6547695295031 L 543.1834787610892,783.9172193507119 L 558.6453844665224,804.7326416202418 L 566.4517113864395,824.4138142976144 L 544.4518751593687,834.4629803789849 L 519.8966382660664,836.4362411133344 L 495.50243232798,837.385706169439 L 471.0636134252663,837.5030081686872 L 446.8774315344818,837.3913829239636 L 421.92744384222704,838.4104222207816 L 412.0114835365664,854.0521254266995 L 430.7950563324874,871.1130564422065 L 434.8809001728291,890.9094883622199 L 411.0754734510734,898.9171831957809 L 387.61907529711465,900.3172263122891 L 363.1381659975937,901.3115611842711 L 338.1618727522484,901.4703586258833 L 313.4824691043256,899.9873603659427 L 289.89222859707326,896.0563081350438" fill="none" stroke="#000000" stroke-width="1.25"/>
	<path d="M 289.8922161252208,909.7753456802741 L 378.44236384565244,909.7753459779211" fill="none" stroke="#000000" stroke-width="1.25"/>
	<path d="M 400.89169833530195,909.7753460187213 L 437.0600705686259,909.7753460549668" fill="none" stroke="#000000" stroke-width="1.25"/>
	<path d="M 444.5431820651757,909.7753460579222 L 445.79036731460076,909.7753460582632" fill="none" stroke="#000000" stroke-width="1.25"/>
	<path d="M 440.8016263169009,899.797864209797 L 538.0820757720485,899.797864115519" fill="none" stroke="#000000" stroke-width="1.25"/>
	<path d="M 558.0370397628479,878.595715137159 L 584.2279300007718,878.5957150494273" fill="none" stroke="#000000" stroke-width="1.25"/>
	<path d="M 558.0370397628476,847.4160843687271 L 582.980744751347,847.4160842824399" fill="none" stroke="#000000" stroke-width="1.25"/>
	<path d="M 541.8236315203233,857.3935662594463 L 616.6547464858213,857.3935659843896" fill="none" stroke="#000000" stroke-width="1.25"/>
	<path d="M 508.14962978584873,823.7195651094756 L 544.318002019173,823.7195650300046" fill="none" stroke="#000000" stroke-width="1.25"/>
	<path d="M 504.408074037574,812.494898044246 L 493.1834067927492,816.2364537498198" fill="none" stroke="#000000" stroke-width="1.25"/>
	<path d="M 495.67777729159906,803.7646014465378 L 504.40807403757395,810.0005275841348" fill="none" stroke="#000000" stroke-width="1.25"/>
	<path d="M 505.65525928699896,800.0230457422493 L 505.6552592869989,805.0117866621036" fill="none" stroke="#000000" stroke-width="1.25"/>
	<path d="M 500.66651828929895,800.0230457498893 L 514.3855560329737,816.2364537176103" fill="none" stroke="#000000" stroke-width="1.25"/>
	<path d="M 509.3968150352739,798.775860506061 L 513.1383707835488,803.7646014192384" fill="none" stroke="#000000" stroke-width="1.25"/>
	<path d="M 514.3855560329737,785.0568229684618 L 519.3742970306735,785.0568229584502" fill="none" stroke="#000000" stroke-width="1.25"/>
	<path d="M 494.43059204217417,763.8546740971211 L 574.2504480053719,763.8546738857768" fill="none" stroke="#000000" stroke-width="1.25"/>
	<path d="M 601.6885359645739,718.9560054923601 L 607.9244622116988,722.6975611478329" fill="none" stroke="#000000" stroke-width="1.25"/>
	<path d="M 606.6772769622736,716.4616350068812 L 614.1603884588236,718.9560054245449" fill="none" stroke="#000000" stroke-width="1.25"/>
	<path d="M 614.1603385714138,713.9672645062784 L 617.9018943196884,718.9560054031226" fill="none" stroke="#000000" stroke-width="1.25"/>
	<path d="M 585.4750778346395,682.7876339295067 L 596.6058725637031,687.4767338601578 L 614.160338571414,694.0123008360168" fill="none" stroke="#000000" stroke-width="1.25"/>
	<path d="M 581.7335220863645,674.05733734692 L 575.4975958392398,689.0235601201807" fill="none" stroke="#000000" stroke-width="1.25"/>
	<path d="M 573.0032253403897,684.0348192163401 L 577.9919663380896,682.7876339651041" fill="none" stroke="#000000" stroke-width="1.25"/>
	<path d="M 576.7447810886647,680.2932635134872 L 581.7335220863645,680.2932634901331" fill="none" stroke="#000000" stroke-width="1.25"/>
	<path d="M 574.2504105898147,680.2932635248127 L 582.9807073357896,681.5404487128664" fill="none" stroke="#000000" stroke-width="1.25"/>
	<path d="M 592.9581893311893,655.3495588624123 L 589.2166335829143,660.3382997958416" fill="none" stroke="#000000" stroke-width="1.25"/>
	<path d="M 592.9581893311893,651.6080031774336 L 597.9469303288892,656.5967440633805" fill="none" stroke="#000000" stroke-width="1.25"/>
	<path d="M 597.9469303288892,650.3608179214729 L 597.9469303288892,656.5967440633805" fill="none" stroke="#000000" stroke-width="1.25"/>
	<path d="M 602.9356713265889,650.3608178928076 L 607.0616906292379,668.8389687955156 L 613.6075067816104,688.369155818805 L 625.7758909354911,703.8808490457482 L 642.6321671602099,715.0811980154768 L 644.0927845576128,695.2594858733187" fill="none" stroke="#000000" stroke-width="1.25"/>
	<path d="M 674.025230543812,639.1361503134976 L 680.2611567909369,642.8777059459165" fill="none" stroke="#000000" stroke-width="1.25"/>
	<path d="M 684.0027125392119,637.8889649941423 L 677.3154179444742,654.6955387641019 L 662.8005632989875,666.5742254537852" fill="none" stroke="#000000" stroke-width="1.25"/>
	<path d="M 677.7667862920867,635.3945945923994 L 687.7442682874869,640.3833354183091" fill="none" stroke="#000000" stroke-width="1.25"/>
	<path d="M 672.7780452943869,610.4508900581101 L 669.6563671217928,625.3469887454169 L 662.8005632989872,639.1361504098895" fill="none" stroke="#000000" stroke-width="1.25"/>
	<path d="M 647.8343403058877,620.4283721011773 L 652.8230813035877,621.675557289261" fill="none" stroke="#000000" stroke-width="1.25"/>
	<path d="M 657.8118223012873,615.4396311049406 L 656.5646370518624,617.9340015725495" fill="none" stroke="#000000" stroke-width="1.25"/>
	<path d="M 666.5421190472622,607.9565196575205 L 670.2836747955371,610.450890080923" fill="none" stroke="#000000" stroke-width="1.25"/>
	<path d="M 670.2836747955373,605.4621491664691 L 679.013971541512,609.2037047711026" fill="none" stroke="#000000" stroke-width="1.25"/>
	<path d="M 674.025230543812,605.4621491318521 L 674.025230543812,609.203704817881" fill="none" stroke="#000000" stroke-width="1.25"/>
	<path d="M 647.8343403058877,594.2374823094847 L 644.0927845576128,600.4734084800115" fill="none" stroke="#000000" stroke-width="1.25"/>
	<path d="M 642.845599308188,602.967778946054 L 641.4798504417164,626.0960145214982 L 641.3770359763821,649.2968464111683 L 641.6461059001753,674.1005740878537 L 646.4086550935514,692.7561426902984 L 659.1966282350169,673.2127483000086 L 663.8010762676423,650.504396629659 L 657.6682550405807,627.3623812955259 L 661.553378049563,616.6868163014742" fill="none" stroke="#000000" stroke-width="1.25"/>
	<path d="M 642.845599308188,591.7431118952029 L 651.5758960541626,596.7318527338095" fill="none" stroke="#000000" stroke-width="1.25"/>
	<path d="M 639.104043559913,592.9902971532692 L 641.5984140587628,600.4734085001504" fill="none" stroke="#000000" stroke-width="1.25"/>
	<path d="M 634.1153025622132,596.7318528757164 L 641.5984140587628,601.7205937280845" fill="none" stroke="#000000" stroke-width="1.25"/>
	<path d="M 625.3850058162383,611.6980756745038 L 621.6434500679633,617.9340018406276" fill="none" stroke="#000000" stroke-width="1.25"/>
	<path d="M 612.9131533219887,619.181187127567 L 615.4075238208385,617.934001883148" fill="none" stroke="#000000" stroke-width="1.25"/>
	<path d="M 612.9131533219886,615.4396314440542 L 607.9244123242887,616.6868167042633" fill="none" stroke="#000000" stroke-width="1.25"/>
	<path d="M 611.6659680725637,611.6980757690562 L 619.1490795691135,620.4283723137648" fill="none" stroke="#000000" stroke-width="1.25"/>
	<path d="M 616.6547090702634,610.4508905078376 L 619.1490795691135,615.4396314020029" fill="none" stroke="#000000" stroke-width="1.25"/>
	<path d="M 620.3962648185384,609.203705254213 L 623.3092112497222,629.7190475651036 L 640.3512288093377,644.124891502359" fill="none" stroke="#000000" stroke-width="1.25"/>
	<path d="M 657.8118223012876,570.5409504233833 L 659.0590075507125,570.540950411871" fill="none" stroke="#000000" stroke-width="1.25"/>
	<path d="M 614.1603385714138,538.1141349001814 L 631.2081017358715,523.6315279863811 L 653.1860408502388,513.3995970925289 L 675.2724157932366,509.428874127221" fill="none" stroke="#000000" stroke-width="1.25"/>
	<path d="M 679.0139715415118,483.23798434172755 L 686.8708099334448,505.7497578311492 L 694.4826499666148,530.2291297719644 L 698.9697030674965,554.4282574394892 L 699.905163993773,578.9088424622162 L 698.569304737614,603.2659763704393 L 696.4745650334614,627.9114830392435" fill="none" stroke="#000000" stroke-width="1.25"/>
	<path d="M 586.7222630840645,560.5634691538775 L 571.034455270262,576.2197489459057 L 554.2261495406535,591.2115942732976 L 535.9223466028664,602.6790172198182 L 514.1855577394228,608.7026894841373 L 491.9584111805116,613.2409648326258 L 472.3155572828876,621.2796005567941 L 454.3938832857588,635.0831231287262 L 438.3072184024931,650.360818319611" fill="none" stroke="#000000" stroke-width="1.25"/>
	<path d="M 424.5881806588187,642.8777069420719 L 435.8128479036433,642.8777069532044" fill="none" stroke="#000000" stroke-width="1.25"/>
	<path d="M 425.8353659082436,627.9114842171065 L 447.03751514846806,627.9114842332427" fill="none" stroke="#000000" stroke-width="1.25"/>
	<path d="M 440.8015889013432,619.1811876421621 L 459.5093676427177,619.181187645933" fill="none" stroke="#000000" stroke-width="1.25"/>
	<path d="M 449.53188564731784,611.6980762856558 L 470.73403488754235,611.6980762810691" fill="none" stroke="#000000" stroke-width="1.25"/>
	<path d="M 453.2734413955928,595.4846683435306 L 462.0037381415676,595.4846683425318" fill="none" stroke="#000000" stroke-width="1.25"/>
	<path d="M 445.790329899043,588.0015569855786 L 455.76781189444284,588.0015569874295" fill="none" stroke="#000000" stroke-width="1.25"/>
	<path d="M 434.5656626542183,604.214964918486 L 466.9924791392676,604.2149649243303" fill="none" stroke="#000000" stroke-width="1.25"/>
	<path d="M 485.700257880642,585.507186514884 L 485.700257880642,586.7543717407896" fill="none" stroke="#000000" stroke-width="1.25"/>
	<path d="M 493.1833693771918,588.001556955406 L 516.8798891162662,588.0015569033045" fill="none" stroke="#000000" stroke-width="1.25"/>
	<path d="M 526.8573711116659,588.0015568739846 L 531.8461121093658,588.0015568576839" fill="none" stroke="#000000" stroke-width="1.25"/>
	<path d="M 515.6327038668412,571.7881364987305 L 526.857371111666,571.7881364650697" fill="none" stroke="#000000" stroke-width="1.25"/>
	<path d="M 546.8123351024655,565.5522102623869 L 548.0595203518903,565.5522102571072" fill="none" stroke="#000000" stroke-width="1.25"/>
	<path d="M 506.9024071208665,579.271260346827 L 523.1158153633909,579.271260303386" fill="none" stroke="#000000" stroke-width="1.25"/>
	<path d="M 509.3967776197164,595.4846682794415 L 538.0820383564906,595.4846681939407" fill="none" stroke="#000000" stroke-width="1.25"/>
	<path d="M 560.5313728461399,621.6755578692546 L 565.5201138438398,626.6642987566504" fill="none" stroke="#000000" stroke-width="1.25"/>
	<path d="M 566.7672990932648,619.1811873864696 L 571.7560400909647,621.6755578175656" fill="none" stroke="#000000" stroke-width="1.25"/>
	<path d="M 508.14959237029143,659.0911148632968 L 524.363000612816,659.0911148246064" fill="none" stroke="#000000" stroke-width="1.25"/>
	<path d="M 523.115815363391,695.2594864463076 L 525.768991505892,711.1927462775382 L 524.3630006128161,700.2482273575306" fill="none" stroke="#000000" stroke-width="1.25"/>
	<path d="M 491.936184127767,715.2144501642617 L 497.06078889054146,737.8199469176764 L 504.95457396101085,744.0280235884285 L 524.3630006128158,731.4278580796847" fill="none" stroke="#000000" stroke-width="1.25"/>
	<path d="M 498.17214779044906,750.1356365686592 L 494.4305920421743,751.3828218032133" fill="none" stroke="#000000" stroke-width="1.25"/>
	<path d="M 495.6777772915991,748.8884513429317 L 487.84761856679444,763.4089983657466 L 491.60541235478524,779.931308023737 L 506.90244453642384,785.0568229819658" fill="none" stroke="#000000" stroke-width="1.25"/>
	<path d="M 476.9699985502248,792.5399343963355 L 498.1721477904492,792.53993437416" fill="none" stroke="#000000" stroke-width="1.25"/>
	<path d="M 466.99251655482504,816.2364537702814 L 473.22844280194977,816.2364537673471" fill="none" stroke="#000000" stroke-width="1.25"/>
	<path d="M 454.52066406057526,808.7533423924723 L 489.4418510444744,807.5061571438376" fill="none" stroke="#000000" stroke-width="1.25"/>
	<path d="M 449.5319230628754,857.3935663705176 L 505.6552592869988,857.3935663330022" fill="none" stroke="#000000" stroke-width="1.25"/>
	<path d="M 468.23970180425,868.6182334429374 L 524.3630380283737,868.6182333752796" fill="none" stroke="#000000" stroke-width="1.25"/>
	<path d="M 459.50940505827526,889.820382366161 L 496.9249625410244,889.820382341433" fill="none" stroke="#000000" stroke-width="1.25"/>
	<path d="M 423.3410328249511,819.9780094471913 L 417.10510657782623,822.4723799007411" fill="none" stroke="#000000" stroke-width="1.25"/>
	<path d="M 414.6107360789765,827.4611208184389 L 397.1501425870267,831.2026764829001" fill="none" stroke="#000000" stroke-width="1.25"/>
	<path d="M 392.16140158932694,838.6857878557004 L 404.6332540835768,838.6857878770709" fill="none" stroke="#000000" stroke-width="1.25"/>
	<path d="M 395.9029573376017,854.8991958582557 L 399.6445130858767,858.6407515561589" fill="none" stroke="#000000" stroke-width="1.25"/>
	<path d="M 397.150142587027,861.1351220130891 L 393.4085868387517,864.8766776982717" fill="none" stroke="#000000" stroke-width="1.25"/>
	<path d="M 390.91421633990177,866.1238629242923 L 395.902957337602,869.8654186251613" fill="none" stroke="#000000" stroke-width="1.25"/>
	<path d="M 394.6557720881766,859.8879367781848 L 390.91421633990177,863.6294924630704" fill="none" stroke="#000000" stroke-width="1.25"/>
	<path d="M 387.17266059162705,856.1463810723538 L 389.6670310904773,861.1351219995148" fill="none" stroke="#000000" stroke-width="1.25"/>
	<path d="M 390.91421633990194,853.65201061862 L 384.6782900927773,869.8654186039921" fill="none" stroke="#000000" stroke-width="1.25"/>
	<path d="M 382.1839195939272,858.6407515231032 L 388.4198458410521,863.6294924582849" fill="none" stroke="#000000" stroke-width="1.25"/>
	<path d="M 363.47614085255265,884.8316413236782 L 363.47614085255265,886.0788265545506" fill="none" stroke="#000000" stroke-width="1.25"/>
	<path d="M 348.50991785945337,886.078826512186 L 357.24021460542787,886.078826537677" fill="none" stroke="#000000" stroke-width="1.25"/>
	<path d="M 333.5436948663534,873.606974153788 L 326.0605833698036,877.3485298195129" fill="none" stroke="#000000" stroke-width="1.25"/>
	<path d="M 324.8133981203786,882.337270738884 L 308.5999948665952,886.0788263679049" fill="none" stroke="#000000" stroke-width="1.25"/>
	<path d="M 316.0831063631452,873.6069740878329 L 324.81339812037874,879.8429002768456" fill="none" stroke="#000000" stroke-width="1.25"/>
	<path d="M 326.0605833698038,869.8654184337835 L 329.8021391180785,871.1126036785499" fill="none" stroke="#000000" stroke-width="1.25"/>
	<path d="M 319.82466211141985,869.8654184097827 L 327.4278822304163,882.5538577637392 L 341.0268063629035,886.0788264886021" fill="none" stroke="#000000" stroke-width="1.25"/>
	<path d="M 337.2852506146286,862.3823070891162 L 377.1951785962273,862.3823072038531" fill="none" stroke="#000000" stroke-width="1.25"/>
	<path d="M 358.4873998548528,838.6857877744789 L 369.71206709967777,838.6857878053669" fill="none" stroke="#000000" stroke-width="1.25"/>
	<path d="M 354.7458441065781,823.7195649980303 L 377.1951785962275,823.71956505968" fill="none" stroke="#000000" stroke-width="1.25"/>
	<path d="M 369.71206709967754,812.4948979686362 L 351.1252454109386,816.2023139349027 L 312.34155061487,816.2364534556453" fill="none" stroke="#000000" stroke-width="1.25"/>
	<path d="M 307.3528096171702,822.4723795861796 L 311.09436536544496,823.7195648336548" fill="none" stroke="#000000" stroke-width="1.25"/>
	<path d="M 314.8359211137202,827.4611205419103 L 294.8809571229207,838.6857875274021" fill="none" stroke="#000000" stroke-width="1.25"/>
	<path d="M 307.35280961717035,834.9442318931872 L 317.3302916125698,838.6857876285909" fill="none" stroke="#000000" stroke-width="1.25"/>
	<path d="M 323.56621785969475,831.2026762701014 L 367.21769660082776,831.2026764163003" fill="none" stroke="#000000" stroke-width="1.25"/>
	<path d="M 375.94799334680255,806.2589718340126 L 372.2064375985274,810.0005275148629" fill="none" stroke="#000000" stroke-width="1.25"/>
	<path d="M 373.4536228479523,805.011786597593 L 369.7120670996776,808.7533422781256" fill="none" stroke="#000000" stroke-width="1.25"/>
	<path d="M 369.71206709967754,800.0230456673943 L 368.4648818502524,808.7533422747568" fill="none" stroke="#000000" stroke-width="1.25"/>
	<path d="M 364.7233261019777,800.0230456534689 L 372.2253144704045,812.7574572374803 L 385.92547534220216,816.2364536982308" fill="none" stroke="#000000" stroke-width="1.25"/>
	<path d="M 373.4536228479526,800.0230456773188 L 378.44236384565215,803.7646013799839" fill="none" stroke="#000000" stroke-width="1.25"/>
	<path d="M 384.6782900927772,792.5399343246866 L 449.5319230628756,792.5399344036053" fill="none" stroke="#000000" stroke-width="1.25"/>
	<path d="M 422.0938475755262,763.8546741049963 L 464.4981460559751,763.854674121559" fill="none" stroke="#000000" stroke-width="1.25"/>
	<path d="M 422.09386004737866,738.9109695191638 L 414.81734721133495,760.9837748603323 L 428.2322635200771,780.8161188106657 L 449.54714887362167,785.0549191469768 L 474.62126706618886,785.3029678041338 L 474.4634913290351,766.544840578286 L 473.22845527380235,743.8997104486524" fill="none" stroke="#000000" stroke-width="1.25"/>
	<path d="M 483.2058873817921,690.2707456036183 L 485.700257880642,690.270745600892" fill="none" stroke="#000000" stroke-width="1.25"/>
	<path d="M 464.4981086404176,687.7763751601501 L 486.0064695331455,694.9008411890068 L 504.40803662201637,708.9785240012527" fill="none" stroke="#000000" stroke-width="1.25"/>
	<path d="M 471.98122013696735,666.5742262793898 L 511.8911481185663,666.5742262226418" fill="none" stroke="#000000" stroke-width="1.25"/>
	<path d="M 468.2396643886925,659.091114914906 L 484.453072631217,659.0911149014233" fill="none" stroke="#000000" stroke-width="1.25"/>
	<path d="M 448.28470039789295,666.5742262840722 L 459.5093676427176,666.5742262845488" fill="none" stroke="#000000" stroke-width="1.25"/>
	<path d="M 424.58818065881854,659.0911149003053 L 455.76781189444284,659.0911149183088" fill="none" stroke="#000000" stroke-width="1.25"/>
	<path d="M 422.0938101599686,666.574226264098 L 440.80158890134317,666.5742262810599" fill="none" stroke="#000000" stroke-width="1.25"/>
	<path d="M 417.10506916226876,675.3045228532039 L 457.0149971438678,675.3045228803919" fill="none" stroke="#000000" stroke-width="1.25"/>
	<path d="M 425.8353659082437,694.0123012876788 L 424.4361527519964,715.974456928753 L 423.16377844046883,737.5348433492303 L 443.73416381707204,748.9044065225712 L 466.45417183607566,743.7002213400882 L 472.85951370743885,724.5650356093646 L 451.60674486496345,730.3657791415627 L 432.0712921553681,730.1806729255318" fill="none" stroke="#000000" stroke-width="1.25"/>
	<path d="M 418.3523042991037,732.675043369267 L 405.312385559136,753.668432510065 L 410.72004921060756,776.8205797485338 L 399.9682975253807,779.3986525393562 L 402.1388960565789,756.37156269968" fill="none" stroke="#000000" stroke-width="1.25"/>
	<path d="M 408.3748223037041,735.1694138129425 L 398.39734030830436,742.6525251701479" fill="none" stroke="#000000" stroke-width="1.25"/>
	<path d="M 387.1726730634796,727.6863023960932 L 385.92548781405463,732.6750433095139" fill="none" stroke="#000000" stroke-width="1.25"/>
	<path d="M 389.66699367491964,703.9897830534013 L 392.1613641737695,722.6975614915184" fill="none" stroke="#000000" stroke-width="1.25"/>
	<path d="M 385.92543792664463,702.7425978155737 L 386.3774514819427,725.4920335349824 L 393.71413213400837,732.9181374466964 L 387.7221503296708,753.2120360975889 L 390.31561311077536,776.7284854502099 L 374.7007706818199,785.0568229210907" fill="none" stroke="#000000" stroke-width="1.25"/>
	<path d="M 351.00428835830286,785.0568228502743 L 359.73458510427787,785.0568228784831" fill="none" stroke="#000000" stroke-width="1.25"/>
	<path d="M 359.73458510427787,803.7646013291247 L 367.21769660082765,810.0005275015071" fill="none" stroke="#000000" stroke-width="1.25"/>
	<path d="M 332.2965096169285,808.7533421557879 L 351.00428835830337,808.7533422224585" fill="none" stroke="#000000" stroke-width="1.25"/>
	<path d="M 329.8021391180785,791.2927489222265 L 329.8021391180785,792.5399341524165" fill="none" stroke="#000000" stroke-width="1.25"/>
	<path d="M 319.82466211141974,773.8321556582223 L 305.7837040291268,777.6376778545487 L 283.6562898780955,777.5737111668957" fill="none" stroke="#000000" stroke-width="1.25"/>
	<path d="M 273.678807882696,776.326525878765 L 274.9259931321211,776.3265258861595" fill="none" stroke="#000000" stroke-width="1.25"/>
	<path d="M 279.9147341298209,791.2927486813077 L 281.59307101342563,805.2073283664276 L 261.20695538844643,808.7533418020856" fill="none" stroke="#000000" stroke-width="1.25"/>
	<path d="M 271.1844373838462,816.2364532464334 L 286.1506603769459,816.2364533286135" fill="none" stroke="#000000" stroke-width="1.25"/>
	<path d="M 284.90347512752084,803.7646010149399 L 294.8809571229207,808.7533419894357" fill="none" stroke="#000000" stroke-width="1.25"/>
	<path d="M 302.36406861947046,807.5061567956774 L 313.58873586429524,807.5061568476473" fill="none" stroke="#000000" stroke-width="1.25"/>
	<path d="M 302.3640686194702,822.4723795630393 L 298.62251287119545,827.4611204681075" fill="none" stroke="#000000" stroke-width="1.25"/>
	<path d="M 308.59999486659524,829.9554909758641 L 306.1056243677452,832.4498614260564" fill="none" stroke="#000000" stroke-width="1.25"/>
	<path d="M 277.420363630971,851.1576397487954 L 308.59999486659535,851.1576398993652" fill="none" stroke="#000000" stroke-width="1.25"/>
	<path d="M 269.9372521344211,838.6857873970766 L 276.17317838154605,838.6857874314239" fill="none" stroke="#000000" stroke-width="1.25"/>
	<path d="M 256.21821439074677,831.2026759303234 L 289.89221612522067,831.202676117537" fill="none" stroke="#000000" stroke-width="1.25"/>
	<path d="M 291.13940137464556,798.7758601255878 L 287.39784562637055,802.5174157976427" fill="none" stroke="#000000" stroke-width="1.25"/>
	<path d="M 288.64503087579556,792.5399339597541 L 288.64503087579556,797.5286748819032" fill="none" stroke="#000000" stroke-width="1.25"/>
	<path d="M 284.90347512752084,791.2927487090016 L 293.63377187349556,796.2814896774694" fill="none" stroke="#000000" stroke-width="1.25"/>
	<path d="M 299.86969812062046,792.539934017693 L 322.31903261026986,792.5399341214329" fill="none" stroke="#000000" stroke-width="1.25"/>
	<path d="M 328.55495386865357,765.1018590861723 L 322.31903261026974,770.09059997915" fill="none" stroke="#000000" stroke-width="1.25"/>
	<path d="M 324.8133981203786,761.3603033804657 L 316.08310636314496,762.6074885710864" fill="none" stroke="#000000" stroke-width="1.25"/>
	<path d="M 319.82466211141985,760.113118128388 L 328.55495386865357,777.5737113858838" fill="none" stroke="#000000" stroke-width="1.25"/>
	<path d="M 311.0943653654451,765.10185900754 L 317.33029161256985,770.0905999568355" fill="none" stroke="#000000" stroke-width="1.25"/>
	<path d="M 313.5887483361476,741.4053396518268 L 309.8471925878724,747.6412657823598" fill="none" stroke="#000000" stroke-width="1.25"/>
	<path d="M 306.10563683959776,737.6637839251222 L 317.33030408442227,742.6525248995057" fill="none" stroke="#000000" stroke-width="1.25"/>
	<path d="M 329.802151589931,740.1581544966532 L 332.29652208878105,742.6525249664708" fill="none" stroke="#000000" stroke-width="1.25"/>
	<path d="M 334.79089258763094,740.1581545177661 L 344.76837458303055,740.1581545574163" fill="none" stroke="#000000" stroke-width="1.25"/>
	<path d="M 338.53244833590594,736.4165988445668 L 338.5324483359061,740.1581545330374" fill="none" stroke="#000000" stroke-width="1.25"/>
	<path d="M 338.53244833590577,746.394080680819 L 339.04939353773216,764.4275631120729 L 336.57610695540166,783.0131330590974 L 318.5774768619947,785.056822723857" fill="none" stroke="#000000" stroke-width="1.25"/>
	<path d="M 344.768362111178,756.3715625419378 L 350.02650447664314,772.371028393433 L 339.77962111347836,785.0568228103734" fill="none" stroke="#000000" stroke-width="1.25"/>
	<path d="M 354.74584410657786,763.8546739553539 L 380.9367343445021,763.854674031535" fill="none" stroke="#000000" stroke-width="1.25"/>
	<path d="M 349.757103108878,753.8771921007893 L 353.498658857153,756.3715625731011" fill="none" stroke="#000000" stroke-width="1.25"/>
	<path d="M 354.7458565784304,735.169413676137 L 351.00430083015556,738.9109693510316" fill="none" stroke="#000000" stroke-width="1.25"/>
	<path d="M 333.543707338206,736.4165988239888 L 342.2740040841807,736.4165988594334" fill="none" stroke="#000000" stroke-width="1.25"/>
	<path d="M 337.285263086481,722.6975613163255 L 337.28526308648094,727.6863022336016" fill="none" stroke="#000000" stroke-width="1.25"/>
	<path d="M 334.790842700221,701.4954124103372 L 336.03802794964594,701.4954124157788" fill="none" stroke="#000000" stroke-width="1.25"/>
	<path d="M 306.1055869521879,711.4728941040906 L 328.79088046427904,715.7475551489687 L 349.83224565230347,725.7803601207507 L 365.83560873595206,735.190306282313 L 377.19514118066996,753.8771921857549" fill="none" stroke="#000000" stroke-width="1.25"/>
	<path d="M 400.8916983353018,800.0230457364977 L 414.61073607897634,800.0230457571099" fill="none" stroke="#000000" stroke-width="1.25"/>
	<path d="M 415.85792132840135,814.9892685185864 L 419.5994770766761,816.2364537530082" fill="none" stroke="#000000" stroke-width="1.25"/>
	<path d="M 410.86918033070145,816.2364537421973 L 422.0938475755262,831.2026765174868" fill="none" stroke="#000000" stroke-width="1.25"/>
	<path d="M 407.1276245824268,819.9780094272097 L 413.36355082955134,824.9667503564809" fill="none" stroke="#000000" stroke-width="1.25"/>
	<path d="M 341.0268063629033,921.0000129594335 L 415.85792132840123,921.0000131167862" fill="none" stroke="#000000" stroke-width="1.25"/>
	<path d="M 331.0493243675037,921.0000129268325 L 332.29650961692874,921.0000129310573" fill="none" stroke="#000000" stroke-width="1.25"/>
	<path d="M 276.1731783815459,796.2814895825652 L 282.4091046286708,801.2702305400896" fill="none" stroke="#000000" stroke-width="1.25"/>
	<path d="M 243.74636189649658,792.5399336875398 L 267.44288163557104,792.539933839275" fill="none" stroke="#000000" stroke-width="1.25"/>
	<path d="M 262.4541406378712,755.1243768913691 L 271.1844373838461,753.8771917165673" fill="none" stroke="#000000" stroke-width="1.25"/>
	<path d="M 277.4203761028235,738.9109689930885 L 268.5651909029158,727.1396434315742 L 278.6675613522483,717.7088200923437" fill="none" stroke="#000000" stroke-width="1.25"/>
	<path d="M 292.38659909592303,726.4391167829069 L 290.5640877404013,750.825083770623 L 304.8584515901727,763.8546737469179" fill="none" stroke="#000000" stroke-width="1.25"/>
	<path d="M 249.98230061547412,755.1243768076336 L 254.22713458643116,740.5242995937698 L 266.19570885799897,733.9222280014661" fill="none" stroke="#000000" stroke-width="1.25"/>
	<path d="M 235.01606515052194,763.8546733155746 L 291.13940137464556,763.8546736750374" fill="none" stroke="#000000" stroke-width="1.25"/>
	<path d="M 220.04984215742246,763.8546732019647 L 235.80639411358715,758.9091891299951 L 248.73510289419653,747.6412654158809" fill="none" stroke="#000000" stroke-width="1.25"/>
	<path d="M 257.46536222461395,680.2932630575898 L 278.6675114648384,697.7538564181481" fill="none" stroke="#000000" stroke-width="1.25"/>
	<path d="M 286.15062296138825,662.832670049489 L 282.6207622504952,681.7650779427523 L 282.23561765070866,703.2350401225568 L 290.1231586158914,722.2855538681624 L 299.5146362569428,713.2545843583032 L 308.5999574510376,695.2594861370703" fill="none" stroke="#000000" stroke-width="1.25"/>
	<path d="M 326.06054595424615,646.6192623123021 L 311.4487566914545,661.1727579363194 L 303.69520346531306,680.6336247337111 L 310.5908024035048,692.7919877974014 L 327.0179011719061,677.8017073526634 L 341.97075433679106,663.1722092973325 L 349.7570656933206,646.6192624225895" fill="none" stroke="#000000" stroke-width="1.25"/>
	<path d="M 354.74580669102045,646.6192624429639 L 360.9817329381453,659.0911147461441" fill="none" stroke="#000000" stroke-width="1.25"/>
	<path d="M 352.25143619217044,655.3495590284864 L 360.9817329381453,654.1023738341988" fill="none" stroke="#000000" stroke-width="1.25"/>
	<path d="M 358.4873624392954,649.1136329132501 L 352.25143619217044,655.3495590284864" fill="none" stroke="#000000" stroke-width="1.25"/>
	<path d="M 369.71202968412,651.608003409237 L 405.8804019174442,651.6080035050718" fill="none" stroke="#000000" stroke-width="1.25"/>
	<path d="M 413.363513413994,651.6080035184601 L 429.57692165651844,651.6080035398943" fill="none" stroke="#000000" stroke-width="1.25"/>
	<path d="M 414.6106986634187,635.3945955640044 L 438.3072184024934,635.3945955913878" fill="none" stroke="#000000" stroke-width="1.25"/>
	<path d="M 412.11632816456904,619.1811876080967 L 435.81284790364333,619.181187638697" fill="none" stroke="#000000" stroke-width="1.25"/>
	<path d="M 409.6219576657189,611.6980762428924 L 440.80158890134294,611.6980762820377" fill="none" stroke="#000000" stroke-width="1.25"/>
	<path d="M 409.62195766571904,604.2149648834386 L 423.34099540939366,604.2149649060024" fill="none" stroke="#000000" stroke-width="1.25"/>
	<path d="M 408.37477241629404,595.484668296463 L 420.8466249105437,595.4846683183056" fill="none" stroke="#000000" stroke-width="1.25"/>
	<path d="M 409.6219576657191,588.001556942196 L 435.81284790364333,588.001556979353" fill="none" stroke="#000000" stroke-width="1.25"/>
	<path d="M 428.32973640709343,580.5184456167897 L 450.77907089674295,580.518445632236" fill="none" stroke="#000000" stroke-width="1.25"/>
	<path d="M 428.32973640709355,565.5522104391291 L 424.58818065881866,570.5409513355717" fill="none" stroke="#000000" stroke-width="1.25"/>
	<path d="M 425.8353659082436,569.2937661118658 L 447.8417542033241,571.0149440752111 L 464.58270841620975,585.7407879493002 L 476.9699611346675,605.4621501435149" fill="none" stroke="#000000" stroke-width="1.25"/>
	<path d="M 493.1833693771918,595.4846683119853 L 503.1608513725915,595.4846682933073" fill="none" stroke="#000000" stroke-width="1.25"/>
	<path d="M 496.9249251254667,602.9677796634303 L 513.1383333679912,602.9677796287178" fill="none" stroke="#000000" stroke-width="1.25"/>
	<path d="M 491.93618412776675,579.2712603765091 L 499.41929562431653,579.2712603629182" fill="none" stroke="#000000" stroke-width="1.25"/>
	<path d="M 489.4418136289169,571.7881365550919 L 499.41929562431653,571.7881365372825" fill="none" stroke="#000000" stroke-width="1.25"/>
	<path d="M 488.194628379492,564.3050252049467 L 520.621444864541,564.3050251313979" fill="none" stroke="#000000" stroke-width="1.25"/>
	<path d="M 503.16085137259154,555.574728601062 L 516.8798891162662,555.5747285658316" fill="none" stroke="#000000" stroke-width="1.25"/>
	<path d="M 498.1721103748917,548.0916172627612 L 514.3855186174162,548.0916172233932" fill="none" stroke="#000000" stroke-width="1.25"/>
	<path d="M 501.9136661231666,540.6085059073915 L 510.6439628691414,540.608505885881" fill="none" stroke="#000000" stroke-width="1.25"/>
	<path d="M 499.41929562431653,531.8782093432014 L 504.40803662201654,531.8782093317592" fill="none" stroke="#000000" stroke-width="1.25"/>
	<path d="M 479.46433163351725,540.6085059458884 L 485.700257880642,540.6085059376238" fill="none" stroke="#000000" stroke-width="1.25"/>
	<path d="M 481.95870213236714,548.091617289682 L 493.1833693771918,548.0916172723704" fill="none" stroke="#000000" stroke-width="1.25"/>
	<path d="M 484.453072631217,555.5747286349464 L 491.93618412776675,555.5747286233527" fill="none" stroke="#000000" stroke-width="1.25"/>
	<path d="M 476.96996113466724,531.8782093796344 L 493.1833693771918,531.8782093557933" fill="none" stroke="#000000" stroke-width="1.25"/>
	<path d="M 474.4755906358172,524.3950980393043 L 479.46433163351725,524.3950980338643" fill="none" stroke="#000000" stroke-width="1.25"/>
	<path d="M 470.73403488754246,516.9119867016982 L 480.71151688294196,516.911986691277" fill="none" stroke="#000000" stroke-width="1.25"/>
	<path d="M 468.2396643886923,508.18169014176243 L 480.7115168829422,508.18169012929485" fill="none" stroke="#000000" stroke-width="1.25"/>
	<path d="M 474.4755906358173,500.69857880010414 L 480.71151688294196,500.69857879275673" fill="none" stroke="#000000" stroke-width="1.25"/>
	<path d="M 479.4643316335171,493.2154674601128 L 480.7115168829422,493.21546745845444" fill="none" stroke="#000000" stroke-width="1.25"/>
	<path d="M 474.4755906358172,484.48517091235396 L 479.4643316335171,484.4851709064331" fill="none" stroke="#000000" stroke-width="1.25"/>
	<path d="M 463.2509233909926,493.2154674741683 L 474.4755906358172,493.2154674659214" fill="none" stroke="#000000" stroke-width="1.25"/>
	<path d="M 465.7452938898426,500.6985788069836 L 469.48684963811746,500.69857880452196" fill="none" stroke="#000000" stroke-width="1.25"/>
	<path d="M 460.75655289214257,484.4851709217042 L 464.49810864041757,484.48517092016255" fill="none" stroke="#000000" stroke-width="1.25"/>
	<path d="M 458.2621823932927,477.00205959354037 L 478.2171463840922,477.00205957902733" fill="none" stroke="#000000" stroke-width="1.25"/>
	<path d="M 485.700257880642,460.78865543871007 L 485.700257880642,504.3237386850563 L 489.1271256365066,524.0861603493838 L 510.96224041312456,526.2799150353816 L 521.3657489708212,545.1942480645955 L 531.2971039117376,564.4732145054452 L 540.5764088553401,584.2600011478579" fill="none" stroke="#000000" stroke-width="1.25"/>
	<path d="M 424.58818065881854,563.0578399838226 L 423.3409954093936,568.0465808830577" fill="none" stroke="#000000" stroke-width="1.25"/>
	<path d="M 409.6219576657191,580.518445586768 L 418.3522544116938,580.5184456027182" fill="none" stroke="#000000" stroke-width="1.25"/>
	<path d="M 404.63321666801926,571.7881365245225 L 406.04798376963834,595.8900205351074 L 395.7052772875512,612.066308153201 L 374.9804395873496,618.0457405285016 L 365.9704739358452,640.3833363467949" fill="none" stroke="#000000" stroke-width="1.25"/>
	<path d="M 373.45358543239496,642.8777068275961 L 394.6557346726195,642.8777068877519" fill="none" stroke="#000000" stroke-width="1.25"/>
	<path d="M 402.13884616916926,642.8777069046911 L 414.61069866341893,642.8777069279465" fill="none" stroke="#000000" stroke-width="1.25"/>
	<path d="M 403.38603141859414,659.0911148664304 L 415.8578839128438,659.0911148884777" fill="none" stroke="#000000" stroke-width="1.25"/>
	<path d="M 373.45358543239496,659.0911147887939 L 395.90291992204436,659.0911148502934" fill="none" stroke="#000000" stroke-width="1.25"/>
	<path d="M 377.1951411806699,635.3945954744775 L 400.89166091974414,635.3945955377592" fill="none" stroke="#000000" stroke-width="1.25"/>
	<path d="M 379.68951167951974,627.9114841182786 L 392.1613641737694,627.911484153598" fill="none" stroke="#000000" stroke-width="1.25"/>
	<path d="M 382.1838821783697,619.1811875360474 L 405.8804019174441,619.1811875961606" fill="none" stroke="#000000" stroke-width="1.25"/>
	<path d="M 334.7908427002209,642.8777066716187 L 334.79084270022094,649.113632811599" fill="none" stroke="#000000" stroke-width="1.25"/>
	<path d="M 327.30773120367104,636.6417804948037 L 326.06054595424615,642.8777066281245" fill="none" stroke="#000000" stroke-width="1.25"/>
	<path d="M 322.3189951947123,636.6417804685619 L 331.049286951946,639.1361509695579" fill="none" stroke="#000000" stroke-width="1.25"/>
	<path d="M 317.3302541970124,624.1699281627289 L 318.5774394464374,624.1699281697806" fill="none" stroke="#000000" stroke-width="1.25"/>
	<path d="M 317.3302541970125,621.6755577073349 L 314.8358836981624,624.1699281484326" fill="none" stroke="#000000" stroke-width="1.25"/>
	<path d="M 316.08306894758744,615.4396315621159 L 319.8246246958622,615.4396315835886" fill="none" stroke="#000000" stroke-width="1.25"/>
	<path d="M 324.81336070482115,617.9340020662416 L 326.06054595424615,624.1699282107439" fill="none" stroke="#000000" stroke-width="1.25"/>
	<path d="M 291.139363959088,610.4508904926729 L 288.8502457528102,630.8975493008431 L 286.869037242062,655.355706121756 L 294.8283870704752,652.6987298243141 L 309.02739630542715,634.8397000388426 L 311.09432794988766,615.439631532574" fill="none" stroke="#000000" stroke-width="1.25"/>
	<path d="M 291.1393639590882,599.2262234438691 L 296.128104956788,599.2262234785452" fill="none" stroke="#000000" stroke-width="1.25"/>
	<path d="M 287.3978082108132,600.4734086447465 L 298.62247545563787,604.2149644053229" fill="none" stroke="#000000" stroke-width="1.25"/>
	<path d="M 282.4090672131134,602.9677790636974 L 292.386549208513,605.4621495904811" fill="none" stroke="#000000" stroke-width="1.25"/>
	<path d="M 286.15062296138825,581.7656302247636 L 291.1393639590881,581.7656302616491" fill="none" stroke="#000000" stroke-width="1.25"/>
	<path d="M 288.64499346023814,565.5522098217001 L 303.6112164533378,581.7656303490236" fill="none" stroke="#000000" stroke-width="1.25"/>
	<path d="M 317.3302541970125,559.3162838907955 L 317.3302541970124,560.5634691168411" fill="none" stroke="#000000" stroke-width="1.25"/>
	<path d="M 332.2964722013711,566.7993953366677 L 352.25143619217044,566.7993954394489" fill="none" stroke="#000000" stroke-width="1.25"/>
	<path d="M 341.0267689473458,571.7881362879237 L 344.7683246956207,571.7881363069113" fill="none" stroke="#000000" stroke-width="1.25"/>
	<path d="M 341.0267689473458,558.0690988032852 L 359.14729990785236,564.0781157576677 L 367.21765918527007,581.7656306870955" fill="none" stroke="#000000" stroke-width="1.25"/>
	<path d="M 342.2739541967707,550.5859874567393 L 347.26269519447055,553.0803579333996" fill="none" stroke="#000000" stroke-width="1.25"/>
	<path d="M 336.038027949646,553.0803578737318 L 324.81336070482115,560.563469163175" fill="none" stroke="#000000" stroke-width="1.25"/>
	<path d="M 298.622475455638,543.1028758243253 L 303.6112164533378,543.1028758610314" fill="none" stroke="#000000" stroke-width="1.25"/>
	<path d="M 271.18439996828863,551.8331721866464 L 282.82599032912526,557.4062896227323 L 287.3978082108133,570.5409507192687" fill="none" stroke="#000000" stroke-width="1.25"/>
	<path d="M 266.1956589705888,569.2937653206062 L 272.4315852177136,569.2937653732679" fill="none" stroke="#000000" stroke-width="1.25"/>
	<path d="M 254.97099172576404,581.7656299691681 L 262.45410322231385,581.7656300344515" fill="none" stroke="#000000" stroke-width="1.25"/>
	<path d="M 244.9935097303643,551.833171944204 L 248.7350654786392,551.8331719808128" fill="none" stroke="#000000" stroke-width="1.25"/>
	<path d="M 251.22943597748923,536.8669492826399 L 248.73506547863923,540.6085049381327" fill="none" stroke="#000000" stroke-width="1.25"/>
	<path d="M 238.7575834832395,519.4063559822625 L 245.70287758510958,496.81942892924764 L 255.4588544914795,475.1784485593996 L 267.34799250648973,454.7512727466434 L 280.99356693527966,435.7480751279641 L 296.62874858873545,418.1865781741836 L 314.0485086440488,402.2046446531512 L 333.0268288331889,387.9503831888394 L 353.33769088812494,375.5719024028481 L 374.7550765408256,365.2173109150442 L 397.0529675232602,357.0347173446215 L 420.0053455673977,351.17223031157783 L 443.3861924052068,347.7779584384927 L 466.96948976865696,347.0000103523664 L 490.6431738894604,348.8305806036209 L 513.9573218866532,352.76459941309145 L 536.7087656693391,358.82622104615274 L 558.8202458210293,367.1035365346257 L 580.0329621980352,377.70114387385524 L 600.4413008277392,389.6990973471544" fill="none" stroke="#000000" stroke-width="1.25"/>
	<path d="M 610.4187828231387,414.64280160718243 L 621.6434500679634,422.1259128107261" fill="none" stroke="#000000" stroke-width="1.25"/>
	<path d="M 632.8681173127882,414.6428013680983 L 637.856858310488,414.6428013105946" fill="none" stroke="#000000" stroke-width="1.25"/>
	<path d="M 635.3624878116382,403.41813436287856 L 643.7230943777179,390.07017131462584 L 662.4629352285601,395.4233336224483 L 671.5308600449624,412.1484304378932" fill="none" stroke="#000000" stroke-width="1.25"/>
	<path d="M 661.5533780495624,450.81117246100155 L 670.2836747955371,450.81117235350865" fill="none" stroke="#000000" stroke-width="1.25"/>
	<path d="M 657.8118223012876,467.02458041206916 L 669.7135567770832,469.06718904109596 L 681.5083420403622,465.77739490146126" fill="none" stroke="#000000" stroke-width="1.25"/>
	<path d="M 621.6434500679634,450.81117289573706 L 650.3287108047376,450.8111725926691" fill="none" stroke="#000000" stroke-width="1.25"/>
	<path d="M 621.6434500679636,435.8449502373228 L 682.7555272897868,435.84494950767896" fill="none" stroke="#000000" stroke-width="1.25"/>
	<path d="M 614.1603385714136,450.8111729668985 L 615.4075238208386,450.81117295526525" fill="none" stroke="#000000" stroke-width="1.25"/>
	<path d="M 604.1828565760138,435.844950404261 L 611.6659680725637,435.8449503349764" fill="none" stroke="#000000" stroke-width="1.25"/>
	<path d="M 586.7222630840643,437.0921357728713 L 592.9427195011118,419.5359332206889 L 608.9439622602347,412.1445653197531 L 615.0539384275818,395.08401182122776 L 632.8681173127878,395.9350230796367" fill="none" stroke="#000000" stroke-width="1.25"/>
	<path d="M 564.2729285944149,403.41813504075645 L 573.0032253403897,403.4181349754317" fill="none" stroke="#000000" stroke-width="1.25"/>
	<path d="M 566.7672990932648,448.31680290052395 L 573.1053776072255,435.836486789128 L 585.4750778346395,430.8562096831253" fill="none" stroke="#000000" stroke-width="1.25"/>
	<path d="M 580.4863368369396,450.81117324667224 L 587.9694483334894,450.81117319022064" fill="none" stroke="#000000" stroke-width="1.25"/>
	<path d="M 468.2396643886923,423.37309889294147 L 479.4643316335173,420.8787284449399" fill="none" stroke="#000000" stroke-width="1.25"/>
	<path d="M 455.76781189444284,420.8787284637386 L 468.2396643886926,425.86746932806517" fill="none" stroke="#000000" stroke-width="1.25"/>
	<path d="M 449.5318856473179,458.29428502439623 L 454.46649815168286,478.5269487913652 L 460.9829980253549,499.05855290854925 L 466.95134576712525,519.392875431663 L 472.61355794173846,539.8258829177971 L 478.32800880962543,560.2401985756009 L 484.4530726312172,580.518445613311" fill="none" stroke="#000000" stroke-width="1.25"/>
	<path d="M 402.13884616916926,513.1704309673325 L 403.38603141859414,513.1704309706417" fill="none" stroke="#000000" stroke-width="1.25"/>
	<path d="M 372.20640018297,459.54147004939205 L 380.93669692894474,459.5414700885443" fill="none" stroke="#000000" stroke-width="1.25"/>
	<path d="M 378.44232643009485,452.05835875534035 L 392.1613641737694,452.05835881099307" fill="none" stroke="#000000" stroke-width="1.25"/>
	<path d="M 384.6782526772196,435.8449509282893 L 392.1613641737695,435.8449509584544" fill="none" stroke="#000000" stroke-width="1.25"/>
	<path d="M 387.1726231760695,420.8787283191133 L 392.1613641737695,420.8787283396079" fill="none" stroke="#000000" stroke-width="1.25"/>
	<path d="M 400.89166091974414,404.6653205534508 L 400.89239095343055,449.7514523262687 L 395.08569724252686,468.4378483536211 L 370.85418333288357,468.0383123373893 L 357.329408570117,482.1194546919814 L 349.7570656933203,504.44013419134006" fill="none" stroke="#000000" stroke-width="1.25"/>
	<path d="M 343.52113944619566,491.9682819236525 L 348.5098804438955,491.9682819525453" fill="none" stroke="#000000" stroke-width="1.25"/>
	<path d="M 344.7683246956208,475.7548740379385 L 353.49862144159545,475.754874088853" fill="none" stroke="#000000" stroke-width="1.25"/>
	<path d="M 341.0267689473458,468.271766424545 L 357.2401771898704,468.27176652072575" fill="none" stroke="#000000" stroke-width="1.25"/>
	<path d="M 353.49862144159545,459.5414699508184 L 364.72328868642023,459.541470012364" fill="none" stroke="#000000" stroke-width="1.25"/>
	<path d="M 374.70077068182,444.57524741850017 L 392.1613641737694,444.5752474925546" fill="none" stroke="#000000" stroke-width="1.25"/>
	<path d="M 372.20640018297,428.3618395575772 L 392.1613641737694,428.3618396472168" fill="none" stroke="#000000" stroke-width="1.25"/>
	<path d="M 358.48736243929534,435.8449507960125 L 373.45358543239496,435.84495087668483" fill="none" stroke="#000000" stroke-width="1.25"/>
	<path d="M 339.77958369792077,444.57524721619063 L 353.49862144159545,444.57524730428815" fill="none" stroke="#000000" stroke-width="1.25"/>
	<path d="M 333.54365745079605,452.0583584966138 L 370.9592149335451,452.0583587203671" fill="none" stroke="#000000" stroke-width="1.25"/>
	<path d="M 329.80210170252104,459.54146979722964 L 336.03802794964594,459.5414698407607" fill="none" stroke="#000000" stroke-width="1.25"/>
	<path d="M 322.3189951947123,468.27176629526343 L 331.049286951946,468.2717663580353" fill="none" stroke="#000000" stroke-width="1.25"/>
	<path d="M 332.296472201371,483.2379852931513 L 351.0042509427455,483.2379854080238" fill="none" stroke="#000000" stroke-width="1.25"/>
	<path d="M 333.54365745079593,499.4513932018247 L 346.0155099450456,499.45139327696455" fill="none" stroke="#000000" stroke-width="1.25"/>
	<path d="M 317.3302541970124,483.23798518760265 L 324.81336070482126,483.2379852418937" fill="none" stroke="#000000" stroke-width="1.25"/>
	<path d="M 316.08306894758755,475.75487384108646 L 338.5323984484958,475.7548739990005" fill="none" stroke="#000000" stroke-width="1.25"/>
	<path d="M 308.5999574510376,491.96828168437145 L 323.5661804441373,491.968281794856" fill="none" stroke="#000000" stroke-width="1.25"/>
	<path d="M 303.61121645333776,499.4513929883049 L 326.06054595424615,499.4513931528367" fill="none" stroke="#000000" stroke-width="1.25"/>
	<path d="M 293.6337344579381,499.4513929067209 L 307.0276361484705,479.4809018594348 L 319.2788740660361,458.7745617751294 L 332.5100011125828,438.9466195816896 L 354.350749860945,429.0936171554882 L 374.77976042801123,416.90159825645327 L 396.1456097299975,404.6360197343653 L 416.8786436105184,411.23204097698266 L 437.0265269742405,429.6387542079293 L 445.6995350345557,450.12909414398194 L 464.4916323684797,459.1984072606008 L 487.91658218428637,462.10464673137443 L 504.90866228567245,478.44274846402067 L 519.7897930476879,498.5259182041253 L 534.4543131789627,517.5856236784713 L 555.0206068015715,527.8983383583956 L 573.1685848372204,543.5183008054487 L 588.4512288953069,558.8642411180058 L 606.8897032357469,542.7275692354842 L 608.9597890098244,554.6559968479817 L 601.6674891566344,578.5402801174514 L 594.9339329374827,601.66784219727 L 587.928582537099,624.8185827897242 L 565.5678273044118,627.8467666595876 L 545.3127035368045,636.8648012943721 L 532.4784111126437,658.0376574317202 L 520.6214448645413,679.046078483345" fill="none" stroke="#000000" stroke-width="1.25"/>
	<path d="M 389.66699367491964,697.7538569102566 L 398.54227969808454,691.5479496432467 L 421.51464187543127,686.9806034871831 L 444.6891564044436,683.722023684352 L 467.36338435875075,677.4204429717379 L 490.41174852891186,674.0582453971455 L 511.69316180348454,682.5633301567193 L 533.4648467700387,690.567992048036 L 554.1786156607416,698.0735459891551 L 556.052843490306,720.448490348036 L 545.853589067116,740.626601083345 L 535.1053348962047,746.0789979908058 L 521.3198059631122,726.7246039434266 L 514.3855186174162,705.2369682955483" fill="none" stroke="#000000" stroke-width="1.25"/>
	<path d="M 457.01499714386773,469.5189520091321 L 468.2396643886925,469.5189520043485" fill="none" stroke="#000000" stroke-width="1.25"/>
	<path d="M 437.0600331530682,397.1822093467807 L 442.0487741507681,397.18220935194125" fill="none" stroke="#000000" stroke-width="1.25"/>
	<path d="M 423.3409954093936,385.95754239400276 L 455.76781189444273,385.9575424286127" fill="none" stroke="#000000" stroke-width="1.25"/>
	<path d="M 462.0037381415676,384.7103572133127 L 462.0037381415676,385.9575424269384" fill="none" stroke="#000000" stroke-width="1.25"/>
	<path d="M 439.5544036519182,374.73287550295476 L 468.2396643886925,374.73287550521275" fill="none" stroke="#000000" stroke-width="1.25"/>
	<path d="M 404.63321666801926,374.73287542093914 L 420.8466249105437,374.73287546984204" fill="none" stroke="#000000" stroke-width="1.25"/>
	<path d="M 288.6449934602382,464.53021034460346 L 288.64499346023814,465.7773955673824" fill="none" stroke="#000000" stroke-width="1.25"/>
	<path d="M 277.42032621541347,503.1929484372793 L 294.14547811853913,513.1810652833506 L 317.52934509069104,513.1704305583345 L 340.3650523334135,513.1704307045479 L 362.9299538518173,514.617500833675 L 376.852792677981,532.0560487043126 L 389.0718261610559,551.9871779547926 L 403.25591090799674,569.482718913547 L 419.5994396611188,565.55221042672" fill="none" stroke="#000000" stroke-width="1.25"/>
	<path d="M 282.4090672131133,506.93450415691325 L 278.66751146483847,510.6760597983524" fill="none" stroke="#000000" stroke-width="1.25"/>
	<path d="M 276.1731409659885,511.9232450009008 L 252.4766212269142,513.1704299966046" fill="none" stroke="#000000" stroke-width="1.25"/>
	<path d="M 272.43158521771363,506.93450406573066 L 276.1731409659884,510.67605977573544" fill="none" stroke="#000000" stroke-width="1.25"/>
	<path d="M 218.80261949243996,549.3388012138365 L 229.8195850755857,533.3286141056353 L 250.14693087283482,535.4861673090666 L 268.44644424628325,541.4496797041805 L 258.71254747403896,556.8219254549281" fill="none" stroke="#000000" stroke-width="1.25"/>
	<path d="M 215.0610637441649,581.7656295789554 L 242.49913923151422,581.7656298548312" fill="none" stroke="#000000" stroke-width="1.25"/>
	<path d="M 231.27447198668958,606.7093343162679 L 249.9822507280642,607.9565197151661" fill="none" stroke="#000000" stroke-width="1.25"/>
	<path d="M 262.4541032223139,634.147409617777 L 274.92595571656364,640.3833358548725" fill="none" stroke="#000000" stroke-width="1.25"/>
	<path d="M 271.1843999682887,636.641780141605 L 263.70128847173885,645.3720766865277" fill="none" stroke="#000000" stroke-width="1.25"/>
	<path d="M 267.44284422001374,634.1474096562449 L 264.94847372116385,640.3833357807256" fill="none" stroke="#000000" stroke-width="1.25"/>
	<path d="M 227.5329162384147,630.4058536323669 L 230.67855332176728,648.4975781442878 L 244.01094319699263,665.6219477047824 L 257.92501874034895,679.0796779495149 L 262.55475733383435,656.7379360499532 L 257.46536222461395,637.8889652647484" fill="none" stroke="#000000" stroke-width="1.25"/>
	<path d="M 221.29698999128973,640.38333540933 L 217.555434243015,641.6305206035547" fill="none" stroke="#000000" stroke-width="1.25"/>
	<path d="M 220.04980474186482,639.1361501680433 L 221.29698999128973,640.38333540933" fill="none" stroke="#000000" stroke-width="1.25"/>
	<path d="M 215.06106374416504,635.3945944315445 L 212.56669324531515,640.3833353258691" fill="none" stroke="#000000" stroke-width="1.25"/>
	<path d="M 217.55543424301493,631.6530387671402 L 222.5441752407148,637.8889649620165" fill="none" stroke="#000000" stroke-width="1.25"/>
	<path d="M 221.29698999128988,629.1586683442924 L 222.54417524071496,637.8889649620164" fill="none" stroke="#000000" stroke-width="1.25"/>
	<path d="M 200.09483576232458,569.293764653663 L 258.7125474740389,569.2937652550778" fill="none" stroke="#000000" stroke-width="1.25"/>
</svg>
