<?xml version="1.0" ?>
<svg xmlns="http://www.w3.org/2000/svg" xmlns:ev="http://www.w3.org/2001/xml-events" xmlns:xlink="http://www.w3.org/1999/xlink" baseProfile="full" height="600px" version="1.1" viewBox="-0.625 -0.625 901.25 1251.25" width="433px">
	<defs/>
	<path d="M 0.0,0.0 L 900.0,0.0 L 900.0,1250.0 L 0.0,1250.0 L 0.0,0.0" fill="none" stroke="#000000" stroke-width="1.25"/>
	<path d="M 43.0,31.0 L 47.0,31.0 L 47.0,35.0 L 43.0,35.0 L 43.0,31.0" fill="none" stroke="#000000" stroke-width="1.25"/>
	<path d="M 863.0,31.0 L 867.0,31.0 L 867.0,35.0 L 863.0,35.0 L 863.0,31.0" fill="none" stroke="#000000" stroke-width="1.25"/>
	<path d="M 135.0,337.0 L 765.0,337.0 L 765.0,931.0 L 135.0,931.0 L 135.0,337.0" fill="none" stroke="#000000" stroke-width="1.25"/>
	<path d="M 632.4164725670535,425.47724454063973 L 628.8357212663556,408.7310206837061 L 609.2422667535882,409.292049696406 L 592.7056569012768,415.77154273244594 L 592.9183950486917,411.3943367295144 L 610.1010910401744,407.08602918869036 L 630.9339953984929,406.86886667578875 L 634.0831930293498,424.7731504275512 L 652.41182841073,425.2679265131872 L 632.4164725670535,425.47724454063973" fill="none" stroke="#000000" stroke-width="1.25"/>
	<path d="M 674.5034572213098,434.0839017231653 L 663.9771178150514,422.4554187305156 L 675.1608233233702,428.7558039438374 L 674.5034572213098,434.0839017231653" fill="none" stroke="#000000" stroke-width="1.25"/>
	<path d="M 660.7685103229942,483.64635452730994 L 667.6932059952499,467.7022045517898 L 678.3323442252464,454.4512869827831 L 670.3080015752179,466.2515210720488 L 665.5719985966999,481.3748422050228 L 660.7685103229942,483.64635452730994" fill="none" stroke="#000000" stroke-width="1.25"/>
	<path d="M 624.8980360115613,500.66180867425174 L 636.4898994896628,497.06564965809895 L 641.84245566599,500.23167229831404 L 624.8980360115613,500.66180867425174" fill="none" stroke="#000000" stroke-width="1.25"/>
	<path d="M 641.5177520398195,560.0180237610693 L 651.4882892173099,546.1737330973217 L 668.103172967892,537.2546693758975 L 668.026152198384,539.6007653576283 L 653.7502716918281,545.8038952244568 L 641.5177520398195,560.0180237610693" fill="none" stroke="#000000" stroke-width="1.25"/>
	<path d="M 646.0684142100555,575.0549548924622 L 646.0684142100553,575.0549548924622" fill="none" stroke="#000000" stroke-width="1.25"/>
	<path d="M 641.3199303259395,578.6163289997735 L 641.3199303259389,578.6163289997735" fill="none" stroke="#000000" stroke-width="1.25"/>
	<path d="M 638.5275886694812,583.8694309253208 L 637.7922311703894,568.5233436780404 L 638.5275886694812,583.8694309253208" fill="none" stroke="#000000" stroke-width="1.25"/>
	<path d="M 663.400449932022,610.2182146996299 L 656.9990898196629,604.3132472093824 L 663.400449932022,610.2182146996299" fill="none" stroke="#000000" stroke-width="1.25"/>
	<path d="M 689.6952585196448,620.566605094752 L 697.9418533449639,614.5856074145291 L 689.6952585196453,620.566605094752" fill="none" stroke="#000000" stroke-width="1.25"/>
	<path d="M 709.5795936732435,618.9785663204224 L 723.0461551849603,620.2305034036366 L 709.5795936732435,618.9785663204224" fill="none" stroke="#000000" stroke-width="1.25"/>
	<path d="M 736.9307675209233,623.1905128378124 L 747.2156272159459,617.909805913743 L 755.0000073170735,619.2966688499414 L 736.9307675209233,623.1905128378124" fill="none" stroke="#000000" stroke-width="1.25"/>
	<path d="M 706.5418705349955,543.6339049812333 L 705.302789622027,541.6945085089947 L 706.5418705349963,543.6339049812332" fill="none" stroke="#000000" stroke-width="1.25"/>
	<path d="M 693.5533876543308,538.7327935145614 L 693.553387654331,538.7327935145615" fill="none" stroke="#000000" stroke-width="1.25"/>
	<path d="M 679.6772420865707,541.0050629420539 L 684.9597565005416,537.1161602370694 L 679.6772420865707,541.0050629420539" fill="none" stroke="#000000" stroke-width="1.25"/>
	<path d="M 708.3924390514355,527.997619312305 L 708.65869318825,519.387837067752 L 708.3924390514355,527.997619312305" fill="none" stroke="#000000" stroke-width="1.25"/>
	<path d="M 707.7855135981226,512.1156973077518 L 718.1682880742368,493.48794963902066 L 716.7885953258389,496.8602313619671 L 707.7855135981226,512.1156973077518" fill="none" stroke="#000000" stroke-width="1.25"/>
	<path d="M 725.0323455472023,485.40274666558565 L 739.2554444605743,481.25660748379187 L 725.0323455472023,485.40274666558565" fill="none" stroke="#000000" stroke-width="1.25"/>
	<path d="M 568.56891991517,556.0173325615034 L 559.1943850985621,549.8829966168242 L 576.2470696295767,558.0118116472407 L 568.56891991517,556.0173325615034" fill="none" stroke="#000000" stroke-width="1.25"/>
	<path d="M 556.4405060826717,566.1515203251256 L 552.9138425322818,568.0349044518367 L 554.6256870661399,557.2265706966742 L 557.326854060383,556.4274981438078 L 556.4405060826717,566.1515203251256" fill="none" stroke="#000000" stroke-width="1.25"/>
	<path d="M 542.1950095626185,564.3708513026853 L 542.1950095626185,564.3708513026853" fill="none" stroke="#000000" stroke-width="1.25"/>
	<path d="M 541.5526386219017,560.7304786758491 L 541.5526386219017,560.7304786758491" fill="none" stroke="#000000" stroke-width="1.25"/>
	<path d="M 542.8834147692555,549.5122795972351 L 539.4761944669942,546.6972148608552 L 542.8834147692553,549.5122795972351" fill="none" stroke="#000000" stroke-width="1.25"/>
	<path d="M 526.4408813103126,568.4021114329024 L 526.9091843047232,552.5594451330597 L 526.4408813103126,568.4021114329024" fill="none" stroke="#000000" stroke-width="1.25"/>
	<path d="M 518.0568121111623,564.766539673759 L 518.8464094488463,551.4116335483466 L 518.0568121111623,564.766539673759" fill="none" stroke="#000000" stroke-width="1.25"/>
	<path d="M 513.2459621162973,577.947809873009 L 513.2459621162973,577.947809873009" fill="none" stroke="#000000" stroke-width="1.25"/>
	<path d="M 499.45852000245907,585.7390778568325 L 499.458520002459,585.7390778568325" fill="none" stroke="#000000" stroke-width="1.25"/>
	<path d="M 485.05688386700496,579.1109647926552 L 484.01768744925505,556.6386589680804 L 485.97534458253364,559.6053565336629 L 485.05688386700496,579.1109647926552" fill="none" stroke="#000000" stroke-width="1.25"/>
	<path d="M 497.6778105035997,550.1253367984125 L 497.6778105035997,550.1253367984125" fill="none" stroke="#000000" stroke-width="1.25"/>
	<path d="M 490.50624617990746,547.6721048739073 L 490.50624617990746,547.6721048739073" fill="none" stroke="#000000" stroke-width="1.25"/>
	<path d="M 472.74819159350653,543.0025887160346 L 472.74819159350665,543.0025887160346" fill="none" stroke="#000000" stroke-width="1.25"/>
	<path d="M 460.9150521313971,541.7538410858325 L 460.9150521313971,541.7538410858325" fill="none" stroke="#000000" stroke-width="1.25"/>
	<path d="M 448.4121544810881,543.0873483034293 L 448.4121544810881,543.0873483034293" fill="none" stroke="#000000" stroke-width="1.25"/>
	<path d="M 431.79476708674895,543.8929322253534 L 431.7947670867495,543.8929322253534" fill="none" stroke="#000000" stroke-width="1.25"/>
	<path d="M 420.8115072168703,547.0723694845176 L 428.66244335274143,544.1718643403324 L 420.8115072168703,547.0723694845176" fill="none" stroke="#000000" stroke-width="1.25"/>
	<path d="M 427.83532667287477,562.3923157992141 L 428.4726641905242,549.0835573516637 L 427.83532667287477,562.3923157992141" fill="none" stroke="#000000" stroke-width="1.25"/>
	<path d="M 436.21232920839685,561.996582652627 L 438.7853976104002,551.9465958438831 L 436.21232920839685,561.996582652627" fill="none" stroke="#000000" stroke-width="1.25"/>
	<path d="M 436.24412695133765,580.1722610056652 L 436.24412695133765,580.1722610056652" fill="none" stroke="#000000" stroke-width="1.25"/>
	<path d="M 447.22503126667374,578.6163297743433 L 448.78141935965454,575.7607659881822 L 447.22503126667374,578.6163297743433" fill="none" stroke="#000000" stroke-width="1.25"/>
	<path d="M 430.6052838310216,593.7747806091121 L 430.6052838310214,593.7747806091122" fill="none" stroke="#000000" stroke-width="1.25"/>
	<path d="M 432.9795347466207,597.5402399168672 L 432.9795347466207,597.5402399168672" fill="none" stroke="#000000" stroke-width="1.25"/>
	<path d="M 434.4634398863312,606.2216203208759 L 434.46343988633095,606.2216203208759" fill="none" stroke="#000000" stroke-width="1.25"/>
	<path d="M 433.00334155119873,614.852318164562 L 433.00334155119873,614.852318164562" fill="none" stroke="#000000" stroke-width="1.25"/>
	<path d="M 434.1666579610346,627.919260966472 L 434.1666579610346,627.9192609664719" fill="none" stroke="#000000" stroke-width="1.25"/>
	<path d="M 429.022449887289,632.4326559346385 L 429.022449887289,632.4326559346385" fill="none" stroke="#000000" stroke-width="1.25"/>
	<path d="M 420.4659137146791,640.2678314209703 L 420.4659137146791,640.2678314209703" fill="none" stroke="#000000" stroke-width="1.25"/>
	<path d="M 408.841332808394,656.1751422089724 L 408.841332808394,656.1751422089724" fill="none" stroke="#000000" stroke-width="1.25"/>
	<path d="M 396.86900475004984,652.5110165857377 L 397.17904283725164,626.5125996068923 L 409.12375511727726,631.6103582517403 L 419.25838102788475,641.8915781091592 L 417.5903155520092,642.5613282002801 L 401.9960371723511,626.7001750405464 L 398.5693117150913,651.7455794524647 L 398.42956555016605,674.6717033086258 L 397.39347561765425,678.2024931547681 L 396.86900475004984,652.5110165857377" fill="none" stroke="#000000" stroke-width="1.25"/>
	<path d="M 384.0848359402618,651.4071184651112 L 384.0848359402618,651.4071184651112" fill="none" stroke="#000000" stroke-width="1.25"/>
	<path d="M 381.9331737120203,648.6566832874317 L 381.93317371202045,648.6566832874317" fill="none" stroke="#000000" stroke-width="1.25"/>
	<path d="M 380.3835104630192,643.1499397575484 L 385.4367699362471,639.4056876858339 L 380.3835104630192,643.1499397575484" fill="none" stroke="#000000" stroke-width="1.25"/>
	<path d="M 380.7460460108353,654.592308226441 L 380.7460460108351,654.5923082264408" fill="none" stroke="#000000" stroke-width="1.25"/>
	<path d="M 383.71386077702675,658.153682303277 L 383.7138607770264,658.153682303277" fill="none" stroke="#000000" stroke-width="1.25"/>
	<path d="M 378.9653589458289,661.7150473847353 L 378.9653589458289,661.7150473847353" fill="none" stroke="#000000" stroke-width="1.25"/>
	<path d="M 374.4285788436978,666.3187116828569 L 376.3627115013621,647.4836391427651 L 376.19926061109027,627.3844872817493 L 376.4482075924349,599.9455323132647 L 376.46649236178285,574.7072608061286 L 371.9173905326683,562.5885849974086 L 376.69399156734147,555.6686191908366 L 384.2083760996658,538.9668608949592 L 382.26844781149106,547.261154521879 L 383.0997407287358,554.6790971244396 L 378.9608957501667,561.6420583236866 L 384.003057687075,574.0795374094231 L 384.1841913706368,585.6630555181611 L 379.303383579771,600.7737591298853 L 378.46085966309414,630.1843035479983 L 378.615692413873,650.0383778667666 L 374.4285788436978,666.3187116828569" fill="none" stroke="#000000" stroke-width="1.25"/>
	<path d="M 378.37179958200693,668.9248478417604 L 382.6307783387836,665.5299488921876 L 378.37179958200693,668.9248478417604" fill="none" stroke="#000000" stroke-width="1.25"/>
	<path d="M 384.30742014084865,674.7734249687276 L 384.30742014084905,674.7734249687276" fill="none" stroke="#000000" stroke-width="1.25"/>
	<path d="M 387.2752349070402,666.4635446706515 L 387.2752349070393,666.4635446706515" fill="none" stroke="#000000" stroke-width="1.25"/>
	<path d="M 379.16321655387327,685.259694045692 L 379.16321655387344,685.259694045692" fill="none" stroke="#000000" stroke-width="1.25"/>
	<path d="M 410.46041537146056,704.5390552373293 L 400.7459227391123,690.5149698458373 L 406.38393439373687,692.0940214980851 L 413.97019892371526,706.0866613121652 L 426.07308785814496,707.4290363389808 L 410.46041537146056,704.5390552373293" fill="none" stroke="#000000" stroke-width="1.25"/>
	<path d="M 430.261314539772,708.012919361283 L 430.261314539772,708.012919361283" fill="none" stroke="#000000" stroke-width="1.25"/>
	<path d="M 420.3835859617193,724.9112052228337 L 418.0130847454753,718.1786077200816 L 420.3835859617193,724.9112052228337" fill="none" stroke="#000000" stroke-width="1.25"/>
	<path d="M 407.159570060639,724.8636005687815 L 407.159570060639,724.8636005687815" fill="none" stroke="#000000" stroke-width="1.25"/>
	<path d="M 396.0127359965454,721.3680698330732 L 385.9240745984549,707.9283378199291 L 379.90413032089276,695.2010526785971 L 390.39458465150005,693.7171853007916 L 393.63830814202885,708.0208263814297 L 397.6615569034905,703.6964851449311 L 390.7964960573038,694.8827528612109 L 402.3709141711331,711.0113102605125 L 396.0127359965454,721.3680698330732" fill="none" stroke="#000000" stroke-width="1.25"/>
	<path d="M 432.97953474662063,757.278592526392 L 424.75459717079605,749.8071219949827 L 432.97953474662063,757.278592526392" fill="none" stroke="#000000" stroke-width="1.25"/>
	<path d="M 437.77779037653085,774.9658052125802 L 437.77779037653085,774.9658052125802" fill="none" stroke="#000000" stroke-width="1.25"/>
	<path d="M 474.9425813377671,786.2596571068121 L 476.8898743848061,777.9826359775992 L 474.9425813377671,786.2596571068121" fill="none" stroke="#000000" stroke-width="1.25"/>
	<path d="M 477.92498259504106,751.8781764798715 L 486.69421016023455,744.9107469261113 L 477.92498259504106,751.8781764798715" fill="none" stroke="#000000" stroke-width="1.25"/>
	<path d="M 477.5787385111189,744.6810556278721 L 469.4154760685875,740.7598292360415 L 477.5787385111189,744.6810556278721" fill="none" stroke="#000000" stroke-width="1.25"/>
	<path d="M 480.03174571031366,735.9891627005634 L 480.03174571031394,735.9891627005634" fill="none" stroke="#000000" stroke-width="1.25"/>
	<path d="M 472.7430318073654,735.3083805336361 L 472.7430318073654,735.3083805336361" fill="none" stroke="#000000" stroke-width="1.25"/>
	<path d="M 469.8741009774905,730.1914880044649 L 467.378205902663,725.4870810030139 L 461.2364554885194,711.9342777670256 L 457.4408115581202,684.4422390192736 L 455.6195551915024,662.575549533311 L 444.8920886191446,651.6454530627151 L 445.84682891599925,662.4348754821215 L 443.75751201055766,683.3322289866177 L 442.97134967604745,704.8536257984683 L 433.3759558457662,717.9033844512131 L 438.6664916817416,698.1276890731906 L 439.42264896174464,673.8681060770333 L 438.53960497578004,654.028115314752 L 432.5521532026218,640.4055691659966 L 417.221432609933,625.587727560166 L 400.549296773933,613.1635345736325 L 418.54385981443687,624.2655445157765 L 421.1442717316948,608.787473805959 L 424.097112050373,613.713325624734 L 427.5867267006014,633.3538451373736 L 439.2259041320148,639.3761770505321 L 443.9830661706455,613.6671583953174 L 446.89627033466337,597.5101277832812 L 451.87069252638395,623.5782280311118 L 456.61140924062136,644.4164575055025 L 458.2007456507402,667.3271387499871 L 459.62767252375613,648.1132390168681 L 457.5814469353803,627.0052457739165 L 454.3524126732176,608.85171761194 L 458.21126174968805,597.2203035695482 L 463.7131331315678,584.5537660967143 L 487.3644016363778,582.6203034277586 L 506.23549538004755,590.1049798765908 L 492.01862916372744,589.7580318977963 L 472.6191795912879,585.6780087974421 L 457.866052874888,590.4274745084391 L 460.120514564276,601.0925126276011 L 461.06036062516847,641.2933581037786 L 462.3669977825259,664.1404985423886 L 471.26070606241416,670.2089342948708 L 486.84564177122104,672.4970661088013 L 466.50325295709666,673.4649114458186 L 458.2853638503431,677.2004049030577 L 460.5800445113619,698.2043480046158 L 464.96207772125484,717.181622337117 L 469.8741009774905,730.1914880044649" fill="none" stroke="#000000" stroke-width="1.25"/>
	<path d="M 472.1546367164551,700.8529130841067 L 472.154636716455,700.8529130841067" fill="none" stroke="#000000" stroke-width="1.25"/>
	<path d="M 465.03188845642865,693.6974249833439 L 465.0318884564289,693.697424983344" fill="none" stroke="#000000" stroke-width="1.25"/>
	<path d="M 462.0640692034668,685.4575472701961 L 462.064069203467,685.4575472701961" fill="none" stroke="#000000" stroke-width="1.25"/>
	<path d="M 469.78041720825,685.9810501864828 L 469.78041720825,685.9810501864831" fill="none" stroke="#000000" stroke-width="1.25"/>
	<path d="M 481.7453779893387,685.9523348461233 L 481.7453779893387,685.9523348461233" fill="none" stroke="#000000" stroke-width="1.25"/>
	<path d="M 492.33577174243237,686.051268122563 L 492.3357717424322,686.0512681225628" fill="none" stroke="#000000" stroke-width="1.25"/>
	<path d="M 502.5747167577576,686.8849324956485 L 502.5747167577576,686.8849324956485" fill="none" stroke="#000000" stroke-width="1.25"/>
	<path d="M 513.7221879432698,687.6051623315883 L 513.7221879432697,687.6051623315882" fill="none" stroke="#000000" stroke-width="1.25"/>
	<path d="M 524.9816937896035,673.5863017764378 L 524.9816937896035,673.5863017764378" fill="none" stroke="#000000" stroke-width="1.25"/>
	<path d="M 534.4787064255406,674.7734249436555 L 534.4787064255402,674.7734249436555" fill="none" stroke="#000000" stroke-width="1.25"/>
	<path d="M 547.5152426188763,673.6845754405863 L 548.0887475162751,652.7380392468431 L 530.848798017392,656.2536822446975 L 523.0244072945038,643.3646611017438 L 527.3577841399283,650.3259197945671 L 544.9959405700151,649.3374019584834 L 561.3185799993362,656.4974758104876 L 573.7136795007041,672.3722313048935 L 587.2193617344919,669.3527765280229 L 574.4101776183452,673.8643162540999 L 563.2750939897844,672.778585998458 L 556.0278136762865,660.712176765097 L 550.1132572151844,667.5720416960603 L 547.5152426188763,673.6845754405863" fill="none" stroke="#000000" stroke-width="1.25"/>
	<path d="M 548.1306480685425,683.0833007200241 L 548.1306480685425,683.0833007200241" fill="none" stroke="#000000" stroke-width="1.25"/>
	<path d="M 539.3542107841392,697.8252671582816 L 539.3542107841392,697.8252671582816" fill="none" stroke="#000000" stroke-width="1.25"/>
	<path d="M 531.2140873002004,696.6513171457822 L 531.2140873002004,696.6513171457822" fill="none" stroke="#000000" stroke-width="1.25"/>
	<path d="M 527.355958165514,704.4515452067794 L 527.355958165514,704.4515452067794" fill="none" stroke="#000000" stroke-width="1.25"/>
	<path d="M 526.5398146011055,707.2019758959755 L 526.5398146011055,707.2019758959755" fill="none" stroke="#000000" stroke-width="1.25"/>
	<path d="M 530.9173322955276,716.3227906056495 L 538.5286119960324,711.2717628953574 L 530.9173322955276,716.3227906056495" fill="none" stroke="#000000" stroke-width="1.25"/>
	<path d="M 523.9058110776211,719.466114342178 L 521.9616724865016,696.6928691766623 L 519.659388567444,677.4593040740995 L 513.6656360361108,669.431363894681 L 525.1955744457149,658.8822795776716 L 521.7760651476488,675.0034029136772 L 525.4845129540454,683.5498563565329 L 525.2693975762536,708.2242779193815 L 523.9058110776211,719.466114342178" fill="none" stroke="#000000" stroke-width="1.25"/>
	<path d="M 523.6402839960285,731.1597195361475 L 526.5704505669003,728.3805209418699 L 523.6402839960285,731.1597195361475" fill="none" stroke="#000000" stroke-width="1.25"/>
	<path d="M 530.390405961255,737.0171445456948 L 530.3904059612548,737.0171445456947" fill="none" stroke="#000000" stroke-width="1.25"/>
	<path d="M 527.6527131701869,741.6533244947865 L 527.6527131701871,741.6533244947863" fill="none" stroke="#000000" stroke-width="1.25"/>
	<path d="M 524.7575347325509,748.0265262301245 L 525.5743285125664,741.1760669795478 L 524.7575347325509,748.0265262301245" fill="none" stroke="#000000" stroke-width="1.25"/>
	<path d="M 523.7624587583091,761.1347428622197 L 513.3025754312731,757.6743297087017 L 524.950977324863,751.4992566628816 L 523.7624587583091,761.1347428622197" fill="none" stroke="#000000" stroke-width="1.25"/>
	<path d="M 506.90983447041117,761.1654324064023 L 492.91645130634237,753.5292234733187 L 500.6833918628669,753.6045207152112 L 506.90983447041117,761.1654324064023" fill="none" stroke="#000000" stroke-width="1.25"/>
	<path d="M 534.632153978607,777.7546560182267 L 540.592737623379,777.7428053461941 L 534.632153978607,777.7546560182267" fill="none" stroke="#000000" stroke-width="1.25"/>
	<path d="M 549.6018601343459,743.3298780118386 L 550.656428847029,725.8451860709192 L 551.9013511045679,742.0486877471375 L 551.0156371739394,758.7118742249298 L 549.6018601343459,743.3298780118386" fill="none" stroke="#000000" stroke-width="1.25"/>
	<path d="M 536.342824989064,722.5551346444911 L 536.342824989064,722.555134644491" fill="none" stroke="#000000" stroke-width="1.25"/>
	<path d="M 549.3051051296729,717.806695665246 L 549.8908466963853,707.2164332364764 L 549.3051051296729,717.806695665246" fill="none" stroke="#000000" stroke-width="1.25"/>
	<path d="M 547.840084807239,700.2966072334196 L 549.5558920843512,694.2694781314544 L 547.840084807239,700.2966072334196" fill="none" stroke="#000000" stroke-width="1.25"/>
	<path d="M 563.2001400014801,696.6952873881261 L 563.1007696876866,683.9648298701292 L 563.2001400014801,696.6952873881261" fill="none" stroke="#000000" stroke-width="1.25"/>
	<path d="M 574.2473767327384,689.0189838910976 L 574.2473767327384,689.0189838910976" fill="none" stroke="#000000" stroke-width="1.25"/>
	<path d="M 588.1294448376342,690.6341135176123 L 588.1294448376344,690.6341135176121" fill="none" stroke="#000000" stroke-width="1.25"/>
	<path d="M 601.0846807484678,690.7025815681227 L 601.0846807484678,690.7025815681227" fill="none" stroke="#000000" stroke-width="1.25"/>
	<path d="M 613.661637033599,689.9031242453246 L 613.661637033599,689.9031242453246" fill="none" stroke="#000000" stroke-width="1.25"/>
	<path d="M 622.9195047988217,689.0190060651231 L 622.9195047988217,689.0190060651231" fill="none" stroke="#000000" stroke-width="1.25"/>
	<path d="M 640.3306422857171,696.537442386419 L 640.3306422857171,696.537442386419" fill="none" stroke="#000000" stroke-width="1.25"/>
	<path d="M 644.2877047111959,690.7996705260134 L 646.6619690871067,690.7996708824184 L 644.2877047111962,690.7996705260134" fill="none" stroke="#000000" stroke-width="1.25"/>
	<path d="M 650.2233432171198,693.1739213616788 L 650.2233432171198,693.1739213616788" fill="none" stroke="#000000" stroke-width="1.25"/>
	<path d="M 646.6619690871065,674.7734243656564 L 646.6619690871073,674.7734243656564" fill="none" stroke="#000000" stroke-width="1.25"/>
	<path d="M 639.5392208270802,673.5863012213576 L 639.5392208270802,673.5863012213576" fill="none" stroke="#000000" stroke-width="1.25"/>
	<path d="M 600.3641053969338,673.5863014673977 L 600.3641053969338,673.5863014673977" fill="none" stroke="#000000" stroke-width="1.25"/>
	<path d="M 588.4928732527914,671.1419897333315 L 600.1746056324516,669.9162025502604 L 588.4928732527914,671.1419897333315" fill="none" stroke="#000000" stroke-width="1.25"/>
	<path d="M 602.1567497054764,640.3661810189881 L 602.1567497054764,640.3661810189881" fill="none" stroke="#000000" stroke-width="1.25"/>
	<path d="M 588.4928732527915,635.0748115257715 L 588.4928732527914,635.0748115257716" fill="none" stroke="#000000" stroke-width="1.25"/>
	<path d="M 576.6614836311995,629.7371564934534 L 576.6614836311995,629.7371564934534" fill="none" stroke="#000000" stroke-width="1.25"/>
	<path d="M 589.0864281298427,621.338801498121 L 590.1180353001217,619.8141730079088 L 589.0864281298427,621.338801498121" fill="none" stroke="#000000" stroke-width="1.25"/>
	<path d="M 561.1652100828328,623.1048169311857 L 561.1652100828326,623.1048169311857" fill="none" stroke="#000000" stroke-width="1.25"/>
	<path d="M 558.5179705862041,609.2915267900519 L 565.8429086293963,609.9362743625637 L 558.5179705862041,609.2915267900519" fill="none" stroke="#000000" stroke-width="1.25"/>
	<path d="M 546.9434934467345,616.0107572669873 L 546.9434934467344,616.0107572669873" fill="none" stroke="#000000" stroke-width="1.25"/>
	<path d="M 545.1628288155806,591.6541083803327 L 551.493443254549,590.6891818616407 L 537.0470628093174,584.1685523500495 L 545.1628288155806,591.6541083803327" fill="none" stroke="#000000" stroke-width="1.25"/>
	<path d="M 555.8469512056206,580.4977266302476 L 550.2034216878347,570.8930740544281 L 555.8469512056206,580.4977266302476" fill="none" stroke="#000000" stroke-width="1.25"/>
	<path d="M 580.1830152386625,591.1800584810613 L 573.8317649708988,577.8869772344962 L 579.4535129778642,565.2751629434217 L 581.5677934527803,577.0910284815889 L 580.1830152386625,591.1800584810613" fill="none" stroke="#000000" stroke-width="1.25"/>
	<path d="M 522.0138745366412,609.4815685720581 L 522.0138745366414,609.4815685720581" fill="none" stroke="#000000" stroke-width="1.25"/>
	<path d="M 520.2150833524354,623.6977617418462 L 529.335033778043,622.0944841901277 L 520.2150833524354,623.6977617418462" fill="none" stroke="#000000" stroke-width="1.25"/>
	<path d="M 507.3297064591817,610.6325239450745 L 507.3297064591817,610.6325239450745" fill="none" stroke="#000000" stroke-width="1.25"/>
	<path d="M 492.33577174243237,611.8558284832924 L 492.33577174243237,611.8558284832924" fill="none" stroke="#000000" stroke-width="1.25"/>
	<path d="M 483.1355589788736,613.392282664394 L 483.1355589788731,613.3922826643943" fill="none" stroke="#000000" stroke-width="1.25"/>
	<path d="M 475.7160108464684,623.2446428703726 L 475.71601084646846,623.2446428703723" fill="none" stroke="#000000" stroke-width="1.25"/>
	<path d="M 459.09629481821014,623.727046980204 L 459.09629481820986,623.7270469802042" fill="none" stroke="#000000" stroke-width="1.25"/>
	<path d="M 464.7557277286148,610.4700131742662 L 464.7557277286148,610.4700131742662" fill="none" stroke="#000000" stroke-width="1.25"/>
	<path d="M 453.2397132095093,637.8687552704104 L 449.1541975816139,618.9948310630252 L 446.1678749399253,621.2845504680436 L 445.6896252429897,638.5123609846044 L 452.42710961152324,650.2347892867324 L 453.2397132095093,637.8687552704104" fill="none" stroke="#000000" stroke-width="1.25"/>
	<path d="M 446.63146741608136,656.9665547205707 L 446.63146741608136,656.9665547205707" fill="none" stroke="#000000" stroke-width="1.25"/>
	<path d="M 451.97354655818356,665.2764215649133 L 451.97354655818356,665.2764215649133" fill="none" stroke="#000000" stroke-width="1.25"/>
	<path d="M 446.6314674160814,675.9605527431717 L 446.63146741608176,675.9605527431718" fill="none" stroke="#000000" stroke-width="1.25"/>
	<path d="M 431.96943257778184,658.6239811869348 L 431.9694325777818,658.623981186935" fill="none" stroke="#000000" stroke-width="1.25"/>
	<path d="M 421.10828465539595,665.2764215429353 L 421.10828465539566,665.276421542935" fill="none" stroke="#000000" stroke-width="1.25"/>
	<path d="M 387.0437893346023,633.2934831515395 L 385.0091403428877,627.5714030706879 L 387.0437893346023,633.2934831515395" fill="none" stroke="#000000" stroke-width="1.25"/>
	<path d="M 380.6578316149045,629.4359687543626 L 380.6578316149045,629.4359687543626" fill="none" stroke="#000000" stroke-width="1.25"/>
	<path d="M 380.7460460108356,616.6043166816082 L 380.7460460108356,616.6043166816082" fill="none" stroke="#000000" stroke-width="1.25"/>
	<path d="M 384.2952744529497,608.8733688762154 L 381.2343161465483,603.5353789725473 L 384.2952744529497,608.8733688762154" fill="none" stroke="#000000" stroke-width="1.25"/>
	<path d="M 389.0559219720468,599.9845740600521 L 389.0559219720468,599.9845740600521" fill="none" stroke="#000000" stroke-width="1.25"/>
	<path d="M 396.57437647462126,601.1528483499354 L 396.57437647462126,601.1528483499354" fill="none" stroke="#000000" stroke-width="1.25"/>
	<path d="M 393.21085546588205,588.1133242005789 L 393.2108554658818,588.1133242005789" fill="none" stroke="#000000" stroke-width="1.25"/>
	<path d="M 397.36579344648766,581.9798506466063 L 397.36579344648794,581.9798506466063" fill="none" stroke="#000000" stroke-width="1.25"/>
	<path d="M 388.7598310094165,581.0352777558656 L 388.75983100941676,581.0352777558655" fill="none" stroke="#000000" stroke-width="1.25"/>
	<path d="M 387.56650259132124,571.9827023454757 L 387.56650259132124,571.9827023454757" fill="none" stroke="#000000" stroke-width="1.25"/>
	<path d="M 393.9843971438472,556.1972971389837 L 393.9843971438472,556.1972971389837" fill="none" stroke="#000000" stroke-width="1.25"/>
	<path d="M 389.0559219720468,550.8590201761136 L 389.0559219720469,550.8590201761137" fill="none" stroke="#000000" stroke-width="1.25"/>
	<path d="M 387.22521638886525,536.9860349102644 L 394.6379747321803,527.2906251760387 L 414.0637125612321,536.3815900810137 L 393.51638782984924,529.0196596347436 L 387.22521638886496,536.9860349102642" fill="none" stroke="#000000" stroke-width="1.25"/>
	<path d="M 378.7572086861254,530.3502251944026 L 378.7572086861254,530.3502251944026" fill="none" stroke="#000000" stroke-width="1.25"/>
	<path d="M 377.5890689979398,523.479922971469 L 377.5890689979398,523.479922971469" fill="none" stroke="#000000" stroke-width="1.25"/>
	<path d="M 396.5070300485533,520.7777475756952 L 396.5070300485533,520.7777475756952" fill="none" stroke="#000000" stroke-width="1.25"/>
	<path d="M 405.6756649209285,519.330156168189 L 405.67566492092874,519.330156168189" fill="none" stroke="#000000" stroke-width="1.25"/>
	<path d="M 420.44696608261484,509.6534633669431 L 420.44696608261484,509.6534633669431" fill="none" stroke="#000000" stroke-width="1.25"/>
	<path d="M 427.9342554768969,510.13190763442554 L 427.9342554768969,510.13190763442554" fill="none" stroke="#000000" stroke-width="1.25"/>
	<path d="M 427.0439097010083,504.5480463704919 L 427.0439097010083,504.5480463704919" fill="none" stroke="#000000" stroke-width="1.25"/>
	<path d="M 430.1759896240803,519.8536577851489 L 435.23481474343646,498.5286687089595 L 430.72010415239924,491.4533498453778 L 433.73901037986303,478.823713995413 L 432.0984856858149,462.87894665685695 L 420.0966842589099,457.7238550724244 L 422.90992886658137,467.5577294259658 L 418.7340472001085,470.3206212847761 L 419.374811395457,477.12633325821605 L 417.51874760426557,501.31433593210573 L 421.31085985696285,506.7137416360091 L 430.1759896240803,519.8536577851489" fill="none" stroke="#000000" stroke-width="1.25"/>
	<path d="M 442.44224602164593,501.2265049308355 L 442.51880350243124,486.6862261613554 L 442.44224602164593,501.2265049308355" fill="none" stroke="#000000" stroke-width="1.25"/>
	<path d="M 447.2250312666737,482.4592311375145 L 447.2250312666739,482.4592311375145" fill="none" stroke="#000000" stroke-width="1.25"/>
	<path d="M 442.4765294354756,465.83948587160177 L 447.7106512962215,465.5114490602789 L 442.4765294354756,465.83948587160177" fill="none" stroke="#000000" stroke-width="1.25"/>
	<path d="M 462.18014195778903,462.59202602994264 L 462.18014195778903,462.59202602994264" fill="none" stroke="#000000" stroke-width="1.25"/>
	<path d="M 476.9031654682766,474.149358492676 L 476.9031654682767,474.1493584926761" fill="none" stroke="#000000" stroke-width="1.25"/>
	<path d="M 465.03188845642853,483.1228540997502 L 465.03188845642853,483.1228540997502" fill="none" stroke="#000000" stroke-width="1.25"/>
	<path d="M 479.946317598899,494.4523981707838 L 479.946317598899,494.4523981707838" fill="none" stroke="#000000" stroke-width="1.25"/>
	<path d="M 488.3786644492478,495.9133058745841 L 488.3786644492478,495.9133058745841" fill="none" stroke="#000000" stroke-width="1.25"/>
	<path d="M 478.09027522237926,503.8274749891593 L 478.09027522237915,503.8274749891592" fill="none" stroke="#000000" stroke-width="1.25"/>
	<path d="M 478.09027522237915,507.31878964789513 L 478.090275222379,507.31878964789513" fill="none" stroke="#000000" stroke-width="1.25"/>
	<path d="M 480.0688064351187,517.2815542502944 L 480.0688064351187,517.2815542502944" fill="none" stroke="#000000" stroke-width="1.25"/>
	<path d="M 484.6314034150376,519.240731282413 L 484.6314034150376,519.240731282413" fill="none" stroke="#000000" stroke-width="1.25"/>
	<path d="M 486.40013323650845,513.3244722466834 L 486.40013323650845,513.3244722466834" fill="none" stroke="#000000" stroke-width="1.25"/>
	<path d="M 464.6039402806547,505.37803413473256 L 464.6039402806547,505.37803413473256" fill="none" stroke="#000000" stroke-width="1.25"/>
	<path d="M 462.7513527174641,518.5676062561524 L 462.7513527174641,518.5676062561524" fill="none" stroke="#000000" stroke-width="1.25"/>
	<path d="M 425.2259644932922,487.80129219168333 L 425.2259644932925,487.8012921916834" fill="none" stroke="#000000" stroke-width="1.25"/>
	<path d="M 393.460450025225,499.07897631568727 L 393.460450025225,499.07897631568727" fill="none" stroke="#000000" stroke-width="1.25"/>
	<path d="M 390.2430451864611,497.2982892782121 L 390.2430451864608,497.29828927821205" fill="none" stroke="#000000" stroke-width="1.25"/>
	<path d="M 389.79787229851684,493.38345372797556 L 389.79787229851684,493.38345372797556" fill="none" stroke="#000000" stroke-width="1.25"/>
	<path d="M 385.49454784203346,493.00323177215483 L 385.49454784203346,493.00323177215483" fill="none" stroke="#000000" stroke-width="1.25"/>
	<path d="M 389.52247432169764,485.3299506649065 L 389.52247432169764,485.3299506649065" fill="none" stroke="#000000" stroke-width="1.25"/>
	<path d="M 392.59911570776103,471.4082673890173 L 392.5991157077619,471.4082673890172" fill="none" stroke="#000000" stroke-width="1.25"/>
	<path d="M 393.43995894408897,449.53911332330443 L 393.43995894408897,449.53911332330443" fill="none" stroke="#000000" stroke-width="1.25"/>
	<path d="M 426.67611117132805,443.9740060119855 L 416.43777478474436,442.2613469812349 L 426.67611117132805,443.9740060119855" fill="none" stroke="#000000" stroke-width="1.25"/>
	<path d="M 436.1362246062005,430.6124799103194 L 448.4120744635624,424.054478438993 L 436.1362246062005,430.6124799103194" fill="none" stroke="#000000" stroke-width="1.25"/>
	<path d="M 453.4518477214677,424.9045137583356 L 455.2962482490018,424.6916763885447 L 453.4518477214677,424.9045137583356" fill="none" stroke="#000000" stroke-width="1.25"/>
	<path d="M 496.6687806729242,468.21373534214433 L 492.7889270825601,462.4833485485842 L 496.6687806729242,468.21373534214433" fill="none" stroke="#000000" stroke-width="1.25"/>
	<path d="M 515.751868340365,484.83348010750876 L 515.751868340365,484.83348010750876" fill="none" stroke="#000000" stroke-width="1.25"/>
	<path d="M 520.8267647825387,477.0471094731445 L 520.8267647825388,477.04710947314453" fill="none" stroke="#000000" stroke-width="1.25"/>
	<path d="M 522.0138745366412,497.9336191084616 L 522.0138745366412,497.9336191084616" fill="none" stroke="#000000" stroke-width="1.25"/>
	<path d="M 532.1044420496299,497.8918472373185 L 532.1044420496295,497.8918472373186" fill="none" stroke="#000000" stroke-width="1.25"/>
	<path d="M 529.7301776737194,508.57597470513593 L 529.7301776737195,508.57597470513593" fill="none" stroke="#000000" stroke-width="1.25"/>
	<path d="M 522.0138745366413,512.1373474874171 L 522.0138745366412,512.1373474874171" fill="none" stroke="#000000" stroke-width="1.25"/>
	<path d="M 527.6527131701871,521.5392574676741 L 527.6527131701871,521.5392574676741" fill="none" stroke="#000000" stroke-width="1.25"/>
	<path d="M 517.5621456571984,549.2635887683261 L 525.7036166304808,547.8954095361908 L 517.5621456571984,549.2635887683261" fill="none" stroke="#000000" stroke-width="1.25"/>
	<path d="M 544.5692739385294,486.284578729811 L 536.3260040431937,468.8814038462732 L 530.2242716827598,451.47941760672103 L 526.8080105800766,458.2058657695862 L 522.7932730340001,467.8300144462877 L 526.5098401221057,482.2937449903227 L 544.5692739385294,486.284578729811" fill="none" stroke="#000000" stroke-width="1.25"/>
	<path d="M 555.2533963285691,432.0064339426076 L 573.8160459080538,428.5553381106369 L 555.2533963285691,432.0064339426076" fill="none" stroke="#000000" stroke-width="1.25"/>
	<path d="M 387.4875533765915,506.5452621058142 L 387.4875533765915,506.5452621058142" fill="none" stroke="#000000" stroke-width="1.25"/>
	<path d="M 370.06192362079554,544.9286325864965 L 370.06192362079554,544.9286325864965" fill="none" stroke="#000000" stroke-width="1.25"/>
	<path d="M 362.6052070810922,549.3956567479128 L 362.6052070810923,549.3956567479129" fill="none" stroke="#000000" stroke-width="1.25"/>
	<path d="M 359.37780123075567,559.0287542803387 L 359.37780123075567,559.0287542803387" fill="none" stroke="#000000" stroke-width="1.25"/>
	<path d="M 354.6596658626908,556.6545033888702 L 354.6596658626908,556.6545033888702" fill="none" stroke="#000000" stroke-width="1.25"/>
	<path d="M 349.7759462272012,551.6092241928711 L 341.70699799566614,557.164251232866 L 349.7759462272012,551.6092241928711" fill="none" stroke="#000000" stroke-width="1.25"/>
	<path d="M 340.0870254409787,559.491420983732 L 351.0205540952237,545.1047733117233 L 338.41469657934044,551.8933138495566 L 351.81043198604067,533.8317293776514 L 366.9390388156319,529.9518883988358 L 352.9900393992327,542.9435406676314 L 340.0870254409787,559.491420983732" fill="none" stroke="#000000" stroke-width="1.25"/>
	<path d="M 327.3254385474064,561.5011486025702 L 334.35012565118876,556.5838998070709 L 327.32543854740635,561.5011486025701" fill="none" stroke="#000000" stroke-width="1.25"/>
	<path d="M 324.4711704837137,569.5807184630413 L 336.2151002647723,557.64634367316 L 324.4711704837137,569.5807184630413" fill="none" stroke="#000000" stroke-width="1.25"/>
	<path d="M 303.04007502166445,559.7043628814275 L 303.04007502166445,559.7043628814275" fill="none" stroke="#000000" stroke-width="1.25"/>
	<path d="M 297.64731780611544,559.6223357049912 L 297.6473178061155,559.6223357049912" fill="none" stroke="#000000" stroke-width="1.25"/>
	<path d="M 300.721119066416,549.109699698816 L 311.70883440843335,544.5649918619401 L 304.3173808230118,534.2388681646248 L 300.721119066416,549.109699698816" fill="none" stroke="#000000" stroke-width="1.25"/>
	<path d="M 301.3048748365698,579.9831700320691 L 304.207788682966,567.7713146081687 L 301.3048748365698,579.9831700320691" fill="none" stroke="#000000" stroke-width="1.25"/>
	<path d="M 287.6406573893224,608.4301921215821 L 287.6406573893224,608.4301921215821" fill="none" stroke="#000000" stroke-width="1.25"/>
	<path d="M 271.53057568160807,624.9141919138665 L 281.51242304968684,614.898932355587 L 271.53057568160807,624.9141919138665" fill="none" stroke="#000000" stroke-width="1.25"/>
	<path d="M 247.49130254740354,633.7477005805123 L 251.44011715607013,632.9567895434966 L 247.49130254740354,633.7477005805123" fill="none" stroke="#000000" stroke-width="1.25"/>
	<path d="M 227.12946283722323,634.7251119433573 L 227.12946283722331,634.7251119433573" fill="none" stroke="#000000" stroke-width="1.25"/>
	<path d="M 213.64729610534647,637.8459702755072 L 223.65629457001486,634.3752901653656 L 213.64729610534624,637.8459702755072" fill="none" stroke="#000000" stroke-width="1.25"/>
	<path d="M 200.24617391004966,637.3104112690103 L 195.22308241252753,625.2440579368551 L 203.1283264395428,635.9125777581228 L 200.24617391004966,637.3104112690103" fill="none" stroke="#000000" stroke-width="1.25"/>
	<path d="M 194.36747252250046,629.7160675864251 L 194.36747252250046,629.7160675864251" fill="none" stroke="#000000" stroke-width="1.25"/>
	<path d="M 171.00940332818803,634.1144035695318 L 161.9447936590109,619.7513739103613 L 170.50529037738352,629.7930163219057 L 185.55493745699673,632.5247833862093 L 171.00940332818803,634.1144035695318" fill="none" stroke="#000000" stroke-width="1.25"/>
	<path d="M 159.34729507295975,613.042940894044 L 159.34729507295975,613.042940894044" fill="none" stroke="#000000" stroke-width="1.25"/>
	<path d="M 149.47850862862828,611.1652721867043 L 144.99999243902442,593.2993524789499 L 153.07535350870734,574.6827146817017 L 164.0054650381461,557.8017998256277 L 156.7082307931908,572.3599717766868 L 149.23619290719222,591.0571845570498 L 150.71565984800895,606.1922668747643 L 149.47850862862828,611.1652721867043" fill="none" stroke="#000000" stroke-width="1.25"/>
	<path d="M 225.55268154697254,552.0087001328203 L 207.8813433977061,541.7949171729604 L 190.83724536428494,539.9650596670836 L 176.53229051372537,548.1461855030223 L 174.33805462003357,546.6931212894166 L 194.5155756841345,535.1089380862508 L 214.23673463242633,542.4257347044481 L 230.43953853806053,551.1522997451863 L 225.55268154697254,552.0087001328203" fill="none" stroke="#000000" stroke-width="1.25"/>
	<path d="M 231.99308622738562,534.3589709269653 L 237.78244820177312,517.4182173182804 L 254.15449900279094,508.52294932562427 L 237.68922642054105,519.2067024402418 L 234.5516460980659,536.8293948412061 L 231.99308622738562,534.3589709269653" fill="none" stroke="#000000" stroke-width="1.25"/>
	<path d="M 256.1174823726069,505.38144032459167 L 268.4457634887284,495.6972463491249 L 256.1174823726069,505.38144032459167" fill="none" stroke="#000000" stroke-width="1.25"/>
	<path d="M 272.7177033827929,492.2075318895675 L 283.31775098193503,488.10150677558624 L 272.7177033827929,492.2075318895675" fill="none" stroke="#000000" stroke-width="1.25"/>
	<path d="M 288.1503231172603,484.3099778842158 L 303.35699802764435,474.24942795421083 L 320.3169256697547,471.6154745587741 L 338.76867679312977,467.2792742418842 L 357.65853833917396,469.781800725458 L 376.7516072813195,476.1397114899815 L 367.9677351667913,475.7317601621168 L 349.38651852165987,469.5081753780315 L 327.26574209857597,469.3061210855383 L 315.40568429705894,482.1647793009135 L 298.5224663997625,477.7990002351069 L 288.1503231172603,484.3099778842158" fill="none" stroke="#000000" stroke-width="1.25"/>
	<path d="M 301.33138716379403,487.7419351984331 L 302.89869870028355,487.37824177791265 L 301.33138716379403,487.7419351984331" fill="none" stroke="#000000" stroke-width="1.25"/>
	<path d="M 351.66149360690736,595.2360497453516 L 351.66149360690736,595.2360497453516" fill="none" stroke="#000000" stroke-width="1.25"/>
	<path d="M 361.36393303281955,593.3042797322892 L 364.28348511803597,584.4190224398284 L 361.36393303281926,593.3042797322892" fill="none" stroke="#000000" stroke-width="1.25"/>
	<path d="M 370.6058099477754,590.1187310591764 L 370.8994977194413,579.1220561929945 L 370.6058099477754,590.1187310591764" fill="none" stroke="#000000" stroke-width="1.25"/>
	<path d="M 367.6876771919671,620.0956297827609 L 367.687677191967,620.0956297827609" fill="none" stroke="#000000" stroke-width="1.25"/>
	<path d="M 360.5649289319403,621.2827574359061 L 360.5649289319402,621.282757435906" fill="none" stroke="#000000" stroke-width="1.25"/>
	<path d="M 306.89252390482494,630.0403274290104 L 305.7897813776929,609.3330996480788 L 296.93981126564734,590.0240670045296 L 293.60682974175006,567.5479800168207 L 294.9170609195412,547.0510155278183 L 300.1307465667496,527.8717168472033 L 300.2383726124466,500.8963804126916 L 303.62597321061475,504.6949309387299 L 309.07428930331827,532.720791537587 L 317.00322212042704,549.141925635151 L 318.1964535676909,565.1527656681825 L 334.99296854808773,547.1737461487725 L 342.4682497520293,541.7106998738868 L 325.4862599767306,559.7561334498785 L 313.2102052165319,570.0380461753216 L 308.8362359121811,551.312460875595 L 295.6754046557371,559.6909072434257 L 298.44936623733173,585.0904040487958 L 305.72211652104414,591.2445974971544 L 309.23856323346087,613.7957809260806 L 306.89252390482494,630.0403274290104" fill="none" stroke="#000000" stroke-width="1.25"/>
	<path d="M 308.60685612005665,640.3468116353222 L 308.60685612005665,640.3468116353222" fill="none" stroke="#000000" stroke-width="1.25"/>
	<path d="M 330.338506881441,680.4122677946865 L 331.2046270092466,666.3475265928686 L 331.97832384015237,639.9982733206767 L 332.32714622286744,613.2592697225693 L 330.18335165314676,591.914823246874 L 338.6539366901395,576.9870093116294 L 353.6053105480677,564.6863580952746 L 355.64747823761155,576.2856557001206 L 356.4365431832521,598.6776006017544 L 355.30489598119914,621.663935696085 L 353.845062187651,643.3586799067248 L 351.75515212430355,666.2124764737315 L 349.063185002757,674.4739017177995 L 352.10472204621993,644.840088597361 L 354.10838985742265,616.6360763405266 L 355.0872008556779,593.7896257846171 L 350.01847678605355,586.6041226167025 L 349.8852488357891,573.5407496273963 L 342.88938838852374,585.2932355441305 L 342.47872650888706,614.0964209896974 L 340.778651867028,611.3796323305982 L 340.66958709724497,583.6981947932776 L 333.870494887452,594.5870632296393 L 333.6934922962965,622.3848142008839 L 333.44251764643093,645.1317327313781 L 333.39412150102027,667.5730123114222 L 330.338506881441,680.4122677946865" fill="none" stroke="#000000" stroke-width="1.25"/>
	<path d="M 337.5244513047699,679.8187039867755 L 338.7771493647894,658.8999986319096 L 339.6582189520527,636.7336650959908 L 341.61039605899185,627.8301058160488 L 340.1192217714433,653.0910910492894 L 339.3801440946566,677.1317682440947 L 337.5244513047699,679.8187039867755" fill="none" stroke="#000000" stroke-width="1.25"/>
	<path d="M 324.2297328732443,707.3324375046063 L 332.01143169515154,695.7894911119286 L 334.0056574633572,699.008488984562 L 324.2297328732443,707.3324375046063" fill="none" stroke="#000000" stroke-width="1.25"/>
	<path d="M 334.9718602330515,719.2528445091297 L 340.25307896943707,701.2611380262763 L 345.8045484980626,686.5241031989186 L 348.33106104353783,692.9169840565049 L 367.10982106503377,686.616045099527 L 376.99969273600135,672.1814638721662 L 381.24353394215535,677.3979945343539 L 365.9699298086089,689.1512359928713 L 355.86085910688524,704.6395647335178 L 353.1085412319457,692.734588170984 L 340.84187508640406,706.8137491909954 L 334.9718602330515,719.2528445091297" fill="none" stroke="#000000" stroke-width="1.25"/>
	<path d="M 315.15741101765605,724.8505886300119 L 313.66297053101124,721.4560937892504 L 315.15741101765605,724.8505886300119" fill="none" stroke="#000000" stroke-width="1.25"/>
	<path d="M 300.8871789315195,721.5411915131543 L 300.8871789315193,721.5411915131544" fill="none" stroke="#000000" stroke-width="1.25"/>
	<path d="M 305.9571937673266,713.3549755934228 L 305.9571937673266,713.3549755934229" fill="none" stroke="#000000" stroke-width="1.25"/>
	<path d="M 294.93229666667446,710.738542244123 L 302.00601850601083,692.7831119453606 L 304.62239433352477,670.7402331201858 L 305.29663567517395,650.0429895530574 L 305.84852468080857,630.8960607786587 L 308.2079314046195,650.1159954009414 L 306.74390045139904,667.0202060114648 L 304.057914312698,691.5930787734762 L 308.52345507172805,688.055689593381 L 311.28000498200817,673.1449009051436 L 312.6597052925945,649.5288399279061 L 312.9185735866963,613.584528608322 L 311.60954640259087,597.0061207838392 L 326.0535018539368,585.7619212264892 L 325.16961524068824,588.2359446774142 L 323.6220690382818,614.8167596952278 L 323.9659327043913,634.7307302745063 L 322.26193619341484,652.8016999243582 L 321.3817615860956,687.3165289152355 L 318.3809153434848,697.0063390179042 L 320.1884877854978,678.8312577693933 L 319.9254027407206,651.1654713338601 L 321.2456765935078,633.6882713121964 L 321.5864429212009,608.3715035994431 L 316.19984434818946,592.6556378348563 L 315.6897484699807,603.8689264436078 L 315.1001363538846,625.6452172938062 L 314.6275065443509,652.0490574480673 L 313.4939441160474,670.9609211518531 L 313.54820141223166,683.3923344637035 L 309.2578004210642,692.6320158054257 L 308.43661027518937,698.1742870181283 L 294.93229666667446,710.738542244123" fill="none" stroke="#000000" stroke-width="1.25"/>
	<path d="M 289.69190569248735,747.925501722746 L 291.0523644849367,728.3837550558866 L 293.90093492903645,717.3116260177319 L 292.21041709656424,739.2147338993144 L 289.69190569248735,747.925501722746" fill="none" stroke="#000000" stroke-width="1.25"/>
	<path d="M 313.2390294510106,765.2600409148608 L 313.2390294510106,765.2600409148608" fill="none" stroke="#000000" stroke-width="1.25"/>
	<path d="M 348.69367884071585,797.3114116680149 L 355.7255706556725,781.5108366763611 L 358.21477428405353,783.9054351283327 L 348.69367884071585,797.3114116680149" fill="none" stroke="#000000" stroke-width="1.25"/>
	<path d="M 279.93417130622436,799.9260050740103 L 290.1627974302012,791.7182850919868 L 279.93417130622436,799.9260050740103" fill="none" stroke="#000000" stroke-width="1.25"/>
	<path d="M 267.57349530904685,787.94595539194 L 267.57349530904685,787.94595539194" fill="none" stroke="#000000" stroke-width="1.25"/>
	<path d="M 258.82481767408296,797.4752366852051 L 258.82481767408296,797.4752366852051" fill="none" stroke="#000000" stroke-width="1.25"/>
	<path d="M 253.7237050315418,805.3571374007856 L 259.30781471971954,791.2308517391753 L 272.11390378240753,775.720070081747 L 284.0300310746662,760.018322819962 L 289.2493351627576,760.8121672571468 L 280.52000509713935,771.7396082841316 L 266.1869094140675,786.0710836622287 L 259.0803116073804,794.2287914666158 L 253.7237050315418,805.3571374007856" fill="none" stroke="#000000" stroke-width="1.25"/>
	<path d="M 239.47820851148853,833.791448559726 L 248.59457882493123,817.1004310053636 L 250.65279714519647,815.7030565338715 L 249.2505446921781,827.212565420478 L 239.47820851148853,833.791448559726" fill="none" stroke="#000000" stroke-width="1.25"/>
	<path d="M 416.35978731096844,884.3314146397959 L 436.53573676324595,881.579245861017 L 416.35978731096844,884.3314146397959" fill="none" stroke="#000000" stroke-width="1.25"/>
	<path d="M 453.2386812522811,881.5542517912255 L 442.8022546090676,879.4232378749101 L 461.95808291783595,879.9502860501814 L 453.2386812522811,881.5542517912255" fill="none" stroke="#000000" stroke-width="1.25"/>
	<path d="M 493.747758436877,839.4294936328981 L 492.5304765194025,819.128382329289 L 492.83880420997116,813.0599565034735 L 494.90976526873203,835.1767099327998 L 493.747758436877,839.4294936328981" fill="none" stroke="#000000" stroke-width="1.25"/>
	<path d="M 508.5743814795369,845.5255475327758 L 505.5449214466875,838.9210719838748 L 508.5743814795369,845.5255475327758" fill="none" stroke="#000000" stroke-width="1.25"/>
	<path d="M 561.9804114254244,868.6704542686019 L 569.080598678947,857.6268353045274 L 561.9804114254244,868.6704542686019" fill="none" stroke="#000000" stroke-width="1.25"/>
	<path d="M 560.7048674236337,881.4540620456273 L 576.5248102373456,873.1502433663322 L 577.5426566652499,873.9740033926165 L 560.7048674236337,881.4540620456273" fill="none" stroke="#000000" stroke-width="1.25"/>
	<path d="M 578.995860616854,842.9770482464147 L 595.1702147444407,837.230345413681 L 592.724494276882,841.8177930486531 L 578.995860616854,842.9770482464147" fill="none" stroke="#000000" stroke-width="1.25"/>
	<path d="M 587.3057634986889,846.8955781955752 L 587.3057634986889,846.8955781955752" fill="none" stroke="#000000" stroke-width="1.25"/>
	<path d="M 601.5512600187423,832.6897179593743 L 608.834687983689,824.2831818296229 L 608.9461196851131,826.0049714686871 L 608.1224859930377,829.7650340724715 L 616.300506246997,830.2559548924107 L 601.5512600187423,832.6897179593743" fill="none" stroke="#000000" stroke-width="1.25"/>
	<path d="M 615.2031567940386,825.5382588975003 L 615.2031567940388,825.5382588975002" fill="none" stroke="#000000" stroke-width="1.25"/>
	<path d="M 619.0613307964302,821.1906769819893 L 619.0613307964302,821.1906769819893" fill="none" stroke="#000000" stroke-width="1.25"/>
	<path d="M 615.7967565387952,817.723053991197 L 608.8992657573908,804.2590332376573 L 603.9522422043901,795.0761032775051 L 619.0214508580074,807.4108720680222 L 631.2693366973713,806.0666626055045 L 630.7535365774525,808.9665995931596 L 616.6485130276042,809.134399529269 L 621.2325257342449,814.8792940835569 L 615.7967565387952,817.723053991197" fill="none" stroke="#000000" stroke-width="1.25"/>
	<path d="M 622.9195047988219,813.2081873077237 L 622.9195047988219,813.2081873077237" fill="none" stroke="#000000" stroke-width="1.25"/>
	<path d="M 612.897584875363,801.4513321472853 L 623.6398138662968,799.7146752400273 L 632.8016542355402,800.8949056116954 L 612.897584875363,801.4513321472853" fill="none" stroke="#000000" stroke-width="1.25"/>
	<path d="M 608.6740082787687,795.8601431229347 L 620.6491698779295,792.7669593318518 L 630.2642461578506,795.6180959158448 L 608.6740082787687,795.8601431229347" fill="none" stroke="#000000" stroke-width="1.25"/>
	<path d="M 610.3562780315965,785.3352025309719 L 610.3562780315968,785.3352025309721" fill="none" stroke="#000000" stroke-width="1.25"/>
	<path d="M 612.9488686628351,778.247321060288 L 596.2730080222334,774.8159060984119 L 599.5433676165881,765.2857104115251 L 608.8904623169702,762.6821876764017 L 607.3301741695136,772.5677389555996 L 613.819856066916,762.4810947496015 L 612.9488686628351,778.247321060288" fill="none" stroke="#000000" stroke-width="1.25"/>
	<path d="M 604.7773377849936,766.4951052146134 L 604.7773377849936,766.4951052146134" fill="none" stroke="#000000" stroke-width="1.25"/>
	<path d="M 601.2037147713584,769.4604387682874 L 601.2037147713584,769.4604387682874" fill="none" stroke="#000000" stroke-width="1.25"/>
	<path d="M 592.7835270692204,757.9477626256848 L 602.5635253309488,748.5399274074327 L 610.5630955239847,756.8903291415684 L 592.7835270692204,757.9477626256848" fill="none" stroke="#000000" stroke-width="1.25"/>
	<path d="M 576.6216411086491,774.5291524704868 L 566.1938305789993,759.640103768165 L 564.6278196930424,737.3423449231304 L 562.6331541774609,712.587777210219 L 566.8349009464237,700.4670270516871 L 565.0407737466758,716.0143350244823 L 569.0494902877273,738.7379128533665 L 566.1642930240093,753.821384226978 L 574.1797186765447,769.0570826747434 L 576.6216411086491,774.5291524704868" fill="none" stroke="#000000" stroke-width="1.25"/>
	<path d="M 595.0220666357667,787.2003172022812 L 588.7114418755175,777.5635796359986 L 587.3750432200611,757.8963705218683 L 599.5876355912183,740.42668233278 L 588.6654647078676,758.0906539948617 L 592.0957032977188,776.772508510267 L 605.5805251325754,779.4519922419923 L 599.8786273756363,785.8198921090514 L 599.2818967625387,787.422511301905 L 619.155233482388,789.2263982872081 L 595.0220666357667,787.2003172022812" fill="none" stroke="#000000" stroke-width="1.25"/>
	<path d="M 616.746426394995,762.3832267725039 L 606.8431597348883,745.7085888223412 L 614.1268332534218,750.2433549668316 L 616.746426394995,762.3832267725039" fill="none" stroke="#000000" stroke-width="1.25"/>
	<path d="M 640.7263305811828,751.8665103003526 L 640.7263305811825,751.8665103003526" fill="none" stroke="#000000" stroke-width="1.25"/>
	<path d="M 638.1295223856201,740.4414652467462 L 638.1295223856201,740.4414652467462" fill="none" stroke="#000000" stroke-width="1.25"/>
	<path d="M 645.7166513983477,735.2627943193523 L 645.7166513983477,735.2627943193523" fill="none" stroke="#000000" stroke-width="1.25"/>
	<path d="M 640.1007401623509,722.3102596826751 L 640.1007401623511,722.3102596826751" fill="none" stroke="#000000" stroke-width="1.25"/>
	<path d="M 641.3199303259396,719.8841641631943 L 641.3199303259403,719.8841641631942" fill="none" stroke="#000000" stroke-width="1.25"/>
	<path d="M 653.7847173471333,722.1883540355806 L 653.7847173471326,722.1883540355809" fill="none" stroke="#000000" stroke-width="1.25"/>
	<path d="M 678.1578421049801,720.7233066328736 L 678.1578421049801,720.7233066328736" fill="none" stroke="#000000" stroke-width="1.25"/>
	<path d="M 685.4236286103796,725.022700554807 L 685.4236286103796,725.022700554807" fill="none" stroke="#000000" stroke-width="1.25"/>
	<path d="M 675.0911792966364,701.7048736455498 L 681.771092796202,691.120597092581 L 669.2747932090778,689.9584154822697 L 675.0911792966364,701.7048736455498" fill="none" stroke="#000000" stroke-width="1.25"/>
	<path d="M 658.6402555767511,750.7494030391268 L 658.0143859369781,727.9933104631001 L 660.9172094605076,735.5486298586796 L 658.6402555767511,750.7494030391268" fill="none" stroke="#000000" stroke-width="1.25"/>
	<path d="M 657.8771905080373,795.7590559033252 L 657.7402163641796,777.864173736947 L 659.3636617855459,754.4737956870528 L 661.5126772637345,762.7853276732186 L 661.5485986565762,779.8481042229678 L 657.8771905080373,795.7590559033252" fill="none" stroke="#000000" stroke-width="1.25"/>
	<path d="M 657.3460914771467,800.6086401198689 L 657.346091477147,800.608640119869" fill="none" stroke="#000000" stroke-width="1.25"/>
	<path d="M 652.597607593031,802.9828910303632 L 652.597607593031,802.9828910303632" fill="none" stroke="#000000" stroke-width="1.25"/>
	<path d="M 665.8091278381088,853.0457197358197 L 662.4407309795665,832.1361658830532 L 666.8900034597816,848.5559625107952 L 665.8091278381088,853.0457197358197" fill="none" stroke="#000000" stroke-width="1.25"/>
	<path d="M 670.4982068800433,866.2943722739697 L 670.4982068800433,866.2943722739697" fill="none" stroke="#000000" stroke-width="1.25"/>
	<path d="M 703.6439551673193,835.774174640629 L 703.6439551673193,835.774174640629" fill="none" stroke="#000000" stroke-width="1.25"/>
	<path d="M 738.5351020691672,883.0486233908836 L 726.777781723705,865.9818545354295 L 714.2453187041804,850.6449269001736 L 701.5101100691754,836.7161278032418 L 692.6372287487358,822.0134792948159 L 679.2440980912006,814.7486098399727 L 687.0798373096701,831.3809907171446 L 704.7986329694123,851.375334402826 L 698.1359185742662,850.1165512411128 L 686.775971930901,837.5029863015001 L 678.474112829413,830.4142186394768 L 674.8299615934367,813.143982413058 L 670.9270547984302,787.6701492521479 L 668.0141900496085,773.0639278278577 L 668.5508702134229,742.7955070115266 L 667.6509202935592,725.960770070641 L 671.8623002144207,740.9734091378646 L 669.710943187701,747.0184368402167 L 670.7477191593476,772.2607418282969 L 673.8765667945374,790.6171330595835 L 677.3053424429297,808.3084170883757 L 688.7734374427164,815.7971935477387 L 705.0980756509201,834.6299596299809 L 702.2155668427241,823.3586755211268 L 710.101886351525,837.5993305975518 L 721.4265944729259,856.6631834646383 L 734.5731338795217,874.3650733552759 L 738.5351020691672,883.0486233908836" fill="none" stroke="#000000" stroke-width="1.25"/>
	<path d="M 609.8611180328713,851.5685361045306 L 622.9219422704265,832.7273635982508 L 633.5055545840271,814.7353115289666 L 635.402191269445,797.9201141977566 L 632.7812015488174,776.6981522950033 L 634.3664811483169,774.664508104246 L 642.654573911735,793.1883547727037 L 637.2494398042386,814.3664544073002 L 637.0260311432,818.5442762751812 L 648.4900640664151,797.5372287676283 L 643.4797330331095,780.5517806544755 L 633.2222080978279,761.5710401261753 L 631.6499758981365,742.5897327234952 L 630.4161242277326,712.5602326900264 L 629.0726219040754,677.6389273905434 L 627.7358444269328,668.5068703383532 L 611.9653470807294,667.9615776848124 L 608.9384095948321,657.2697574176957 L 608.3222421448264,636.9088913512921 L 606.3274109734239,618.021814126481 L 587.8798612599935,613.6984311704479 L 572.3370133958051,600.5924636769132 L 554.1103238351066,602.0022115117092 L 541.897385398806,593.4933198110708 L 539.3992125433376,618.6042423126996 L 539.1472998173197,635.5142820652395 L 537.0030685253172,638.5867074231318 L 537.0055710776345,623.9261908736593 L 534.9584510563285,593.9753806977496 L 515.4182413232045,592.6648212685027 L 495.9522025015803,598.6612198059083 L 483.0719505269295,590.2955595806999 L 460.25270170957316,588.7043525285142 L 484.31519515538656,586.9393659890245 L 500.8392271732637,596.4231955519338 L 516.0140397382094,590.6497029257346 L 532.8091052154753,583.6609006451155 L 510.606963604167,587.7719350073968 L 506.8203489116485,566.8215454249669 L 508.7659288798389,551.6701971706032 L 503.2782819238901,539.7253594594968 L 488.51744671741125,527.0293525850109 L 484.74351104271386,544.0695052511835 L 480.9802245202629,522.3353177312705 L 469.84734377263635,523.5769365254282 L 455.4132756973761,525.6487856050926 L 453.0485409553975,520.9929686761539 L 469.383009666241,519.1553594415029 L 472.48127696192915,502.77106409588015 L 472.3172438467062,474.3530976720144 L 471.50232868488763,452.27481586207386 L 484.45496593180195,465.2639647599417 L 475.8063128545328,450.710196312445 L 490.5343452296022,459.20405297723096 L 504.8127670769744,472.17834489892016 L 516.2627294848248,475.87690117278936 L 525.5571852929406,448.5162807444224 L 527.7149917067682,426.057792032074 L 529.7917960167442,413.54315389605125 L 529.4765569657183,441.4664872208791 L 536.2998141126652,458.2627288310251 L 542.9579422767603,443.6714629680878 L 535.4989255197138,462.6480454604949 L 545.6352575561115,486.41172283242634 L 542.4845480905408,500.1615975420347 L 540.9488175410675,528.3191413383158 L 540.0806286422905,506.96032882250654 L 538.8473632872079,487.1136758026907 L 517.6285938161985,487.77618991205856 L 515.7356155478581,501.3621323748657 L 519.1555192255297,517.5021483633689 L 519.0934629927038,533.1953420570876 L 514.9608050879647,519.0499900056128 L 513.3284895347726,490.4236049201291 L 507.5276818089395,473.415529529231 L 499.26353785985515,471.85351076622374 L 488.6491144573242,467.43977270799274 L 474.41482815469203,470.01691536201486 L 474.97004968947203,498.0645234200406 L 475.3383581323587,518.5890546561975 L 494.17206371046393,523.1079943930281 L 496.41668352249604,507.66777291185986 L 494.2902447516732,478.26409181916665 L 489.617027733674,473.8785521067869 L 507.09782719959037,483.35426270007014 L 499.42555559674514,484.3795079596568 L 498.9925103647413,507.1577079323279 L 496.9995229663865,528.7223240967417 L 515.4238331113831,536.5361093646587 L 532.5003563554046,535.0071243397302 L 548.209895175821,534.7090621052532 L 563.2222025763152,544.4216415075582 L 580.6477364271569,548.9796590383065 L 580.3288845508416,551.2534867824623 L 564.0944889490581,546.7736258440475 L 550.47350761713,540.0040883337815 L 534.6021247149853,539.5209599702081 L 513.2605637223639,539.199254477021 L 512.0955826862617,561.4534252601238 L 513.925097490128,571.0175553685018 L 520.4329762257762,583.118353650114 L 541.8206840532802,582.7961236693193 L 556.1896142772057,599.1362014573181 L 571.7820406599789,598.8163623754664 L 589.1078894542943,612.6030266925737 L 605.4547185274663,615.0543858863018 L 611.1620341071024,634.8712084325016 L 610.437076067941,657.3602701082812 L 620.3018047944778,665.4177561716745 L 628.3893015506354,650.2486193910213 L 643.6963651728424,656.2048766935413 L 657.8204866140063,650.7208433761671 L 669.0621526852486,659.9059135937932 L 671.3200109911611,682.8878708723888 L 684.6489388215665,694.8628643075232 L 694.4182593777709,713.5479904008322 L 691.9736734719651,737.3036429610942 L 693.6032610164203,752.3058979278395 L 696.3202157651427,783.9333443455837 L 698.6432535163079,807.5573066856122 L 697.8002558567073,810.4446349645406 L 694.8150986465439,786.8509824393328 L 692.475792640132,759.5869635797401 L 688.6792152800615,739.1064498527247 L 692.7182870880482,717.8423602669685 L 680.0261695326926,703.859032443718 L 669.4706838952737,718.3515444085891 L 666.3807280102601,699.6982725686318 L 663.2574767636338,678.8739893262186 L 660.5640048571875,694.313789264836 L 661.5361339314137,712.230434763545 L 654.6259858588365,718.0238874382048 L 656.2869664825545,705.29675829994 L 656.8829950618847,676.9417125829757 L 670.1809816195098,671.2694671287512 L 661.6319180098816,656.9069817886813 L 660.7550001811832,667.6759715255507 L 655.1068634549092,656.8375898599394 L 644.7903332407185,657.5206402575218 L 630.9077856151093,651.3849601981971 L 633.3650637314694,672.1926278478852 L 633.8364484001419,693.0601186387818 L 632.443182555076,714.136233825711 L 634.5109648210685,731.7159184967521 L 635.5902644001533,746.7461221708064 L 635.4594439469472,761.0180146719149 L 646.6270392002269,780.7886381123949 L 653.491161925075,800.4803363390469 L 660.0495179967419,821.7090963074032 L 654.6384639369804,814.0759403405411 L 652.3170631135614,835.4153177587751 L 648.3255408437711,837.7199441908293 L 648.9150598813745,813.1234418530502 L 634.8220524389056,820.804117220737 L 621.984067863637,837.528622002818 L 609.8611180328713,851.5685361045306" fill="none" stroke="#000000" stroke-width="1.25"/>
	<path d="M 576.6216411086491,732.3489558243591 L 576.6216411086482,732.348955824359" fill="none" stroke="#000000" stroke-width="1.25"/>
	<path d="M 573.7769837074902,721.7719866709216 L 573.7769837074902,721.7719866709216" fill="none" stroke="#000000" stroke-width="1.25"/>
	<path d="M 569.4988928486225,712.7614164024469 L 569.4988928486225,712.7614164024465" fill="none" stroke="#000000" stroke-width="1.25"/>
	<path d="M 585.8217192690912,717.6898689889549 L 585.8217192690909,717.6898689889549" fill="none" stroke="#000000" stroke-width="1.25"/>
	<path d="M 598.8509868941237,715.204404467681 L 598.8509868941237,715.204404467681" fill="none" stroke="#000000" stroke-width="1.25"/>
	<path d="M 613.4224921628845,717.0564714572429 L 613.4224921628851,717.056471457243" fill="none" stroke="#000000" stroke-width="1.25"/>
	<path d="M 517.2653906525255,654.5923082585509 L 517.2653906525255,654.5923082585509" fill="none" stroke="#000000" stroke-width="1.25"/>
	<path d="M 489.9615073665218,674.1934336807489 L 504.7462012291655,673.3245210988624 L 489.9615073665218,674.1934336807489" fill="none" stroke="#000000" stroke-width="1.25"/>
	<path d="M 500.3488747518888,625.1745105013067 L 500.3488747518888,625.1745105013067" fill="none" stroke="#000000" stroke-width="1.25"/>
	<path d="M 420.86292560745926,599.6273823310577 L 422.8032432293778,599.326906420101 L 420.86292560745926,599.6273823310577" fill="none" stroke="#000000" stroke-width="1.25"/>
	<path d="M 419.83033574458636,591.3779208875233 L 418.70637488782256,568.1116480628972 L 417.27158030001704,546.8377787623518 L 416.8048423391449,522.3990199315158 L 413.76296381521223,509.2290417837068 L 402.65508218427743,475.7166718368252 L 403.09739852244877,468.8036710169768 L 395.3634387152128,435.37868132072913 L 393.82932838833057,442.22590322905785 L 394.5950248441904,461.64375100465537 L 393.27909402356795,475.28100106039676 L 393.2206691888537,480.5813278124614 L 390.5699426530847,488.02449785181005 L 385.4693384571004,507.8114170275463 L 384.5980040509771,510.2472039924203 L 408.716142406622,508.0738613873424 L 392.8754733814977,510.02232405393096 L 377.4831275817911,514.1382974117672 L 373.65317361686755,517.0246864865785 L 376.45376971879284,535.2605317082148 L 370.00060340798046,524.8260396022986 L 360.22196270543577,531.0059821509888 L 367.5438365584838,521.1672990547 L 377.70083241949766,501.9443426388956 L 381.2867521148953,482.2114717111184 L 387.3186184946959,476.1123310909083 L 389.81854765624684,457.0525013691501 L 391.05852720665933,428.01537659247094 L 391.0854421224183,396.066562404675 L 389.5370598966382,383.66860810228917 L 393.42190716914337,387.28605239001024 L 393.7516785912797,408.4906174559426 L 395.9018697934223,429.43358845343823 L 401.67404331428645,453.6089492332245 L 405.49069917928097,473.4176447601695 L 411.84340040012563,497.3994537265308 L 412.4279020564671,493.136278098744 L 417.2903131220127,472.86878863374375 L 414.81522839917835,451.7407295839133 L 425.4048106777291,440.57687627591423 L 429.5062493237628,430.8341269893385 L 438.2858322662271,410.50628559765926 L 454.1983635268708,401.6134392404303 L 472.52150204914585,414.09984906847336 L 475.5762205579003,434.31864358793985 L 466.23361503381,443.4285108051965 L 457.84133440931134,456.6806650474773 L 459.5726267571749,482.7949958628916 L 458.6739679430637,494.1335329562424 L 458.59891358814804,517.3503687817414 L 457.2469782358453,493.295010085253 L 457.4742912420671,474.1972362993479 L 455.3067637212239,446.6925047968615 L 440.59382973653356,449.66688947132826 L 444.2672328289638,445.3851212121423 L 455.7131112199824,440.89564228187777 L 474.1700201987024,442.9133291935747 L 468.65332333074196,425.8703305857154 L 470.8962126250517,417.2635094921531 L 456.9329892968767,404.27713043880857 L 442.9565091648336,417.1284856332318 L 429.3560443550067,421.07865538040096 L 431.309560205129,444.19410675920034 L 417.1190906495304,448.2530541088617 L 433.35362785322326,453.5593580925125 L 436.36178625658033,474.7264222887583 L 437.4626145903326,498.8775103480402 L 443.99911760632705,517.7110798711586 L 438.5108799078408,518.2707504212196 L 433.5415161579672,529.7065374534593 L 441.8968716704209,527.4143183735257 L 432.7620990528511,519.5016465955612 L 424.9297905564024,531.7071343881184 L 425.0165713339633,529.170635255588 L 417.81176186233944,527.1301582088794 L 420.12331637083497,550.9150866299019 L 420.73108931286123,571.0048232245327 L 419.83033574458636,591.3779208875233" fill="none" stroke="#000000" stroke-width="1.25"/>
	<path d="M 424.05126514655166,583.7133099844095 L 425.3128017835979,573.9192278789777 L 424.05126514655166,583.7133099844095" fill="none" stroke="#000000" stroke-width="1.25"/>
	<path d="M 407.58336348687686,593.3582736700672 L 407.58336348687715,593.3582736700673" fill="none" stroke="#000000" stroke-width="1.25"/>
</svg>
