<?xml version="1.0" ?>
<svg xmlns="http://www.w3.org/2000/svg" xmlns:ev="http://www.w3.org/2001/xml-events" xmlns:xlink="http://www.w3.org/1999/xlink" baseProfile="full" height="600px" version="1.1" viewBox="-0.625 -0.625 901.25 1251.25" width="433px">
	<defs/>
	<path d="M 0.0,0.0 L 900.0,0.0 L 900.0,1250.0 L 0.0,1250.0 L 0.0,0.0" fill="none" stroke="#000000" stroke-width="1.25"/>
	<path d="M 43.0,31.0 L 47.0,31.0 L 47.0,35.0 L 43.0,35.0 L 43.0,31.0" fill="none" stroke="#000000" stroke-width="1.25"/>
	<path d="M 863.0,31.0 L 867.0,31.0 L 867.0,35.0 L 863.0,35.0 L 863.0,31.0" fill="none" stroke="#000000" stroke-width="1.25"/>
	<path d="M 345.0,335.0 L 555.0,335.0 L 555.0,632.0 L 345.0,632.0 L 345.0,335.0" fill="none" stroke="#000000" stroke-width="1.25"/>
	<path d="M 529.064926156782,492.26662897428133 L 451.2177285768686,570.1138251032335 L 443.4330088188772,564.365541691355 L 373.3705309969552,494.30306513671826 L 366.05134720387116,486.0972560893421 L 360.4329549209558,476.65033811099 L 356.77657234942893,466.2849410311896 L 355.2242376774646,455.4037257322645 L 355.83625389577344,444.4293909018962 L 358.58884622885535,433.78825260766774 L 363.37508570521294,423.8936833486653 L 370.00904298892755,415.13005392149796 L 378.23301111018105,407.8378019054279 L 387.7275165158935,402.3002068058729 L 398.1237295447658,398.732385597495 L 409.01779222143347,397.27293615290586 L 419.98650678303164,397.97855318146287 L 430.60377549157676,400.82182583061484 L 440.45715310064884,405.69230250543933 L 449.16386896860666,412.4007815417381 L 457.5388611792945,407.27907939357465 L 467.12768888977104,401.9064658640294 L 477.58403331593036,398.5189217380754 L 488.5017005794885,397.24804172974643 L 499.4565759586223,398.14319525999684 L 510.023099321128,401.169608620667 L 519.7907967069232,406.2097158159904 L 528.3802258634068,413.0677256060832 L 535.4577163031585,421.47722733833876 L 540.7483312822195,431.1115401059785 L 544.0465481696147,441.59640320390156 L 545.224242311611,452.52451490032615 L 544.2356642443929,463.4713547417452 L 541.1192169071468,474.01167474768084 L 535.995963816795,483.73601886757626 L 529.0649261567821,492.2666289742814" fill="none" stroke="#000000" stroke-width="1.25"/>
</svg>
