<?xml version="1.0" ?>
<svg xmlns="http://www.w3.org/2000/svg" xmlns:ev="http://www.w3.org/2001/xml-events" xmlns:xlink="http://www.w3.org/1999/xlink" baseProfile="full" height="600px" version="1.1" viewBox="-0.625 -0.625 901.25 1251.25" width="433px">
	<defs/>
	<path d="M 0.0,0.0 L 900.0,0.0 L 900.0,1250.0 L 0.0,1250.0 L 0.0,0.0" fill="none" stroke="#000000" stroke-width="1.25"/>
	<path d="M 43.0,31.0 L 47.0,31.0 L 47.0,35.0 L 43.0,35.0 L 43.0,31.0" fill="none" stroke="#000000" stroke-width="1.25"/>
	<path d="M 863.0,31.0 L 867.0,31.0 L 867.0,35.0 L 863.0,35.0 L 863.0,31.0" fill="none" stroke="#000000" stroke-width="1.25"/>
	<path d="M 345.0,335.0 L 555.0,335.0 L 555.0,632.0 L 345.0,632.0 L 345.0,335.0" fill="none" stroke="#000000" stroke-width="1.25"/>
	<path d="M 503.80700119041467,489.8830099950859 L 450.59799989263416,548.3700102622663 L 439.96399963326826,538.2040102133337 L 397.40199859517065,491.41700997410703 L 388.5619983795609,478.144009912911 L 384.9999982926829,462.193009871238 L 387.3009983488048,445.9560098649117 L 395.1009985390487,431.92900989406616 L 407.2169988345609,422.2960099419039 L 421.7639991893659,418.51300998402456 L 436.51899954924386,421.1910100042123 L 449.1939998583904,429.88801000424695 L 461.47900015802435,421.99701001251333 L 476.07800051409754,418.50001000493404 L 490.7940008730244,421.45100997435554 L 503.33900117900004,430.3820099331771 L 511.7890013850976,443.94100990432133 L 514.8440014596098,460.022009905998 L 512.036001391122,476.16800994075396 L 503.80700119041467,489.8830099950859" fill="none" stroke="#000000" stroke-width="1.25"/>
</svg>
