<?xml version="1.0" ?>
<svg xmlns="http://www.w3.org/2000/svg" xmlns:ev="http://www.w3.org/2001/xml-events" xmlns:xlink="http://www.w3.org/1999/xlink" baseProfile="full" height="600px" version="1.1" viewBox="-0.625 -0.625 901.25 1251.25" width="433px">
	<defs/>
	<path d="M 0.0,0.0 L 900.0,0.0 L 900.0,1250.0 L 0.0,1250.0 L 0.0,0.0" fill="none" stroke="#000000" stroke-width="1.25"/>
	<path d="M 43.0,31.0 L 47.0,31.0 L 47.0,35.0 L 43.0,35.0 L 43.0,31.0" fill="none" stroke="#000000" stroke-width="1.25"/>
	<path d="M 863.0,31.0 L 867.0,31.0 L 867.0,35.0 L 863.0,35.0 L 863.0,31.0" fill="none" stroke="#000000" stroke-width="1.25"/>
	<path d="M 345.0,335.0 L 555.0,335.0 L 555.0,632.0 L 345.0,632.0 L 345.0,335.0" fill="none" stroke="#000000" stroke-width="1.25"/>
	<path d="M 495.24579784118606,488.71293641553046 L 450.2723995203289,538.2296164085467 L 441.5481935859363,529.7545123442648 L 405.4920504287188,490.20062275291326 L 398.0189347673197,478.96390912661315 L 394.9609212224426,465.5041693025713 L 396.9162848331951,451.7032432205759 L 403.57295965504335,439.88758677260574 L 413.80311447318473,431.71588122679157 L 426.1270807804772,428.52854811930234 L 438.58770708599695,430.7823995811773 L 449.2809840203764,438.1739684460677 L 459.67364917503846,431.42614623779565 L 472.0458031146951,428.48360838763256 L 484.52616540040907,430.9878323478123 L 495.1326148540678,438.5544469996525 L 502.31497535627153,449.9913215205562 L 504.88923547001764,463.61088721708546 L 502.5152400601151,477.31146738906665 L 495.4718056035089,488.8630453219505" fill="none" stroke="#000000" stroke-width="1.25"/>
</svg>
