<?xml version="1.0" ?>
<svg xmlns="http://www.w3.org/2000/svg" xmlns:ev="http://www.w3.org/2001/xml-events" xmlns:xlink="http://www.w3.org/1999/xlink" baseProfile="full" height="600px" version="1.1" viewBox="-0.625 -0.625 901.25 1251.25" width="433px">
	<defs/>
	<path d="M 0.0,0.0 L 900.0,0.0 L 900.0,1250.0 L 0.0,1250.0 L 0.0,0.0" fill="none" stroke="#000000" stroke-width="1.25"/>
	<path d="M 43.0,31.0 L 47.0,31.0 L 47.0,35.0 L 43.0,35.0 L 43.0,31.0" fill="none" stroke="#000000" stroke-width="1.25"/>
	<path d="M 863.0,31.0 L 867.0,31.0 L 867.0,35.0 L 863.0,35.0 L 863.0,31.0" fill="none" stroke="#000000" stroke-width="1.25"/>
	<path d="M 345.0,335.0 L 555.0,335.0 L 555.0,632.0 L 345.0,632.0 L 345.0,335.0" fill="none" stroke="#000000" stroke-width="1.25"/>
	<path d="M 505.782160721569,502.54381581191643 L 505.6820145897317,504.4557556410588 L 505.47477243439914,506.3542520490515 L 505.18948746784196,508.2413290755365 L 504.73171586757195,510.08869599446837 L 504.00236405913404,511.861340085584 L 502.4974324236154,512.863791373877 L 500.81025347000934,511.89777487695915 L 500.4986487891482,510.15141151477377 L 500.88020569873845,508.3015396546421 L 501.78875985729434,506.62660577834356 L 502.97722058630296,505.1372783026136 L 504.3055302810805,503.7841750123103 L 505.782160721569,502.54381581191643" fill="none" stroke="#000000" stroke-width="1.25"/>
	<path d="M 485.5098040222519,488.18110068201605 L 485.6424628978439,489.8915847214249 L 484.8425857406053,491.5473887982981 L 483.9873348671059,491.17828169195843 L 484.26789257498353,489.38616043479743 L 485.5098040222519,488.18110068201605" fill="none" stroke="#000000" stroke-width="1.25"/>
	<path d="M 471.149390272124,488.1451386238959 L 471.2820466226436,489.85561055021367 L 470.4821809108984,491.51140472481126 L 469.6269146323873,491.14236131908564 L 469.9074595265965,489.35025779428406 L 471.149390272124,488.1451386238959" fill="none" stroke="#000000" stroke-width="1.25"/>
	<path d="M 462.4500667928278,490.83281232070146 L 463.2685515556406,492.0355473526205 L 462.32164025441534,493.3249228160194 L 460.8690574725585,493.621119083556 L 461.45165158062173,492.0735883493549 L 462.4500667928278,490.83281232070146" fill="none" stroke="#000000" stroke-width="1.25"/>
	<path d="M 446.9167108692733,500.2968131318151 L 446.68882325094296,502.20776090974925 L 446.1597804069511,504.0727435500982 L 445.44987725793396,505.86677813012335 L 444.5857005423872,507.58822328052725 L 443.54123818767215,509.19723325418596 L 442.3502663216334,510.71332060665094 L 440.8990369247449,511.97790906515525 L 439.10519169767315,512.6507054881663 L 437.5874028423725,511.51810340002254 L 437.49199801809385,509.67873934967173 L 438.30592209081397,507.93202374047627 L 439.4545080664653,506.3865327052352 L 440.7441238339155,504.97798239580453 L 442.1675461913473,503.6804221977704 L 443.69787473756156,502.461841088994 L 445.27775075383397,501.3376514968268 L 446.9167108692733,500.2968131318151" fill="none" stroke="#000000" stroke-width="1.25"/>
	<path d="M 443.7162640182535,476.1615433505107 L 445.08898060790625,477.5059644120794 L 445.4859145331599,479.4641005043512 L 445.38803379139136,481.4597913862342 L 444.84945011567675,483.39880434010746 L 444.0028231737964,485.2239373533381 L 442.9695467603247,486.94533182323744 L 441.7559366072908,488.53314387483056 L 440.39246997371737,489.9914910679574 L 438.856144552688,491.3151590488456 L 437.17675050379574,492.4301007077838 L 437.8960270332588,493.58969873008164 L 439.91087909452847,493.63795990058907 L 441.8907618208496,493.97372502113416 L 443.82827877799446,494.7209303999637 L 445.4515894986474,495.91144180134205 L 446.5295599784639,497.49976890337183 L 446.06218785056797,499.04750244376044 L 444.3503353611746,500.1492812302232 L 442.6960393984334,501.30596354591785 L 441.1248708453545,502.533488512072 L 439.60931678045006,503.86331567885156 L 438.1932935293497,505.3123270574417 L 436.9796614294645,506.87343863165904 L 435.99773685123597,508.6176266312099 L 435.66726768758247,510.587867632897 L 436.1561387407625,512.3888843025898 L 437.6977575471532,513.6881771256112 L 439.7256747718266,514.0557684089536 L 441.7059376354882,513.7861567208251 L 443.57821930153955,512.9888603002462 L 445.26121027347466,511.8763308311672 L 446.7177817752607,510.542788126713 L 448.00301339538834,509.00476588131687 L 449.09853783581946,507.32156828154194 L 449.98628680908075,505.52180187660525 L 450.6753298084989,503.63342770333344 L 451.1317474795097,501.67866492644595 L 451.32902728883647,499.6806022519154 L 451.46055447957843,497.77508586334864 L 453.24113407338405,496.8376755997278 L 455.04230735146024,495.9377680968344 L 455.65577118818175,496.87313850081694 L 455.900288689212,498.8640719283481 L 456.6904498523601,500.6951367890994 L 458.08171114347147,502.11379171560856 L 459.9332544823266,502.89896216295125 L 461.92980082853154,503.08330922557013 L 463.8503123670772,502.50704503859237 L 465.4494407869618,501.2582359463747 L 466.7810572881784,499.78415123630896 L 467.91317397647623,498.13077993179877 L 468.92511380003396,496.39307158260436 L 470.075495571007,495.2904770932757 L 472.0261506388161,495.7601196453518 L 472.9921674220666,497.0324853802893 L 472.58893544673833,499.0063902812495 L 472.25127784565285,500.9890284518169 L 472.11016178723094,502.9906502723864 L 472.3868570812266,504.96428521827033 L 473.6057539612701,506.48458099599816 L 475.5915818722106,506.81342826090156 L 477.45283196866495,506.0896006539232 L 478.83920434582336,504.6325251369739 L 480.0009538996667,503.00337204912637 L 481.02502366443935,501.2878318061507 L 481.93087338861704,499.4976793708423 L 482.8721185701704,497.71917002534116 L 483.7769288651775,495.9217478926502 L 485.2658588629239,495.53342274482833 L 487.2117264906749,496.0506456345332 L 487.17983181011016,497.9052168438456 L 486.79262745506514,499.88362792998055 L 486.5255720961158,501.87341367034253 L 486.5201621163926,503.8776717061568 L 487.1313024160188,505.759420969886 L 488.7999345857851,506.7939647985393 L 490.79380838240223,506.65553453789 L 492.43163573871374,505.53746259124324 L 493.7075482636688,503.9943419648831 L 494.77459315961266,502.2988703390065 L 495.778230577058,500.56555791885893 L 496.7087984792818,498.7828253460544 L 497.4029186140989,499.99991436232915 L 498.9135924752827,501.19397864756024 L 500.9509562748823,501.3064467167499 L 502.60076144345084,500.16170628557614 L 503.7987082946234,498.59065903523606 L 504.77912860080704,496.8294525237865 L 505.6631455098065,495.03246028398615 L 505.79123944587195,496.67422984566736 L 505.78964750609157,498.68474407679514 L 505.6533912344811,500.64260015445456 L 504.0748622985821,501.9350137606158 L 502.5733281129147,503.2844095275407 L 501.2086554070624,504.72138452425565 L 500.0251265410803,506.33021847197926 L 499.1374287508308,508.13717493583346 L 498.72995514155417,510.09495955051875 L 498.99322726824437,512.0535354910864 L 498.5683618181809,513.5163367747712 L 496.8796001761779,514.7479744811803 L 495.46186314103875,515.8024918491792 L 493.4577619495477,517.1084581369846 L 491.95304621942296,518.0628541103642 L 490.2756749329165,518.9804949104727 L 488.43114744196794,519.963384951744 L 486.60394680229905,520.8739421556284 L 484.9143868060203,521.6396282761507 L 482.9185533538638,522.4423030757526 L 480.8721965642263,523.2048005199974 L 479.06224968617965,523.808006738362 L 477.2438898432405,524.338257748097 L 475.29873610920396,524.842275170261 L 473.147908770363,525.3415600035655 L 471.35093054334965,525.7196499549125 L 469.5133537245256,526.0158954440049 L 467.21043481982633,526.2760923502624 L 466.01475310681025,526.4241799229493 L 464.0585210312549,526.4877332776455 L 461.21382741520057,526.5224950243658 L 458.50460026434433,526.5279736990228 L 456.84683581672186,526.5121288999685 L 455.5797659461574,526.3859851390787 L 453.1387596934165,526.1118362300396 L 451.28744633068374,525.857008749352 L 449.35854091807647,525.4781003440793 L 447.5969201830932,525.1038307559428 L 445.3740098992067,524.5532565997621 L 443.37184575781373,523.9933028626829 L 441.57418387148607,523.4673257894449 L 439.91461635450077,522.1945073475774 L 438.4539013932115,520.9030852858651 L 437.1934146623821,519.2186629969358 L 436.01754627382974,517.8840341535305 L 434.5945643918632,518.9790989641497 L 435.6368751311771,520.6795025822237 L 434.71039157449155,520.5578869881051 L 432.8140203155241,519.4719813582867 L 431.214651142852,518.5098566286796 L 429.42952272867586,517.4214184958666 L 427.9796868058683,516.1996256996213 L 427.43816174654006,514.287126831653 L 427.24500546141604,512.2650911420983 L 427.42369509490635,510.5937488957174 L 429.23502019989724,511.12166318363154 L 431.5534995242415,511.2574908052696 L 433.3136582076856,510.8993035010767 L 432.82691564943997,509.26722395351226 L 432.29864930473076,508.1454560059444 L 432.4923215451096,506.1515002784947 L 432.6232961364719,504.14580300408596 L 432.73053555280734,502.1396500495558 L 432.8810702594616,500.1358763333172 L 433.0746231234892,498.13290003979955 L 433.3191131982012,496.13688667421803 L 433.5822521034495,494.1426952513497 L 433.8615795973206,492.15376217167915 L 434.27215781935064,490.1845960278687 L 434.7098365483313,488.22273843362916 L 435.229503607681,486.2806526748022 L 435.85095311119807,484.38239003987627 L 436.62537754275917,482.5209769053883 L 437.5369191761612,480.7337074341208 L 438.6805172153006,479.0840279569305 L 440.0377756332079,477.6471924608563 L 441.7410813958173,476.5794306647963 L 443.7162640182535,476.1615433505107" fill="none" stroke="#000000" stroke-width="1.25"/>
	<path d="M 422.08345426517184,470.20716202333347 L 423.20919936464543,472.06079888586805 L 424.60711350943836,473.44813891211373 L 426.2035609009036,474.5231429448388 L 427.90934937518017,475.2210640076612 L 429.572883967864,475.70987434192335 L 431.47056535317864,476.05169067053225 L 433.87043506652265,476.3152589547414 L 435.7320250610881,476.5097598186941 L 437.7952962238484,476.5368194834608 L 438.4268921370876,477.06404945266917 L 437.0798435418643,478.55057823068125 L 435.99464743895186,480.2272393490925 L 435.06863394406594,482.00654878324633 L 434.2750147579132,483.84999084349124 L 433.6600156262546,485.7620983668158 L 433.1133793996475,487.68943373803535 L 432.6485814202199,489.64272227843026 L 432.2664719496447,491.6164971634106 L 431.93886060511534,493.5938327024403 L 431.6521487680624,495.58076572189486 L 431.65002926900627,494.13558543072276 L 431.7476022845411,492.13016402404105 L 431.9429003553311,490.130532783121 L 432.1313946662142,488.1316029589864 L 432.37353515219456,486.13692912859887 L 432.63791381351626,484.14538256316905 L 432.7741758223129,482.1483823304955 L 431.4939545005485,480.83835671293417 L 429.4866983936231,480.8420831467985 L 428.1640808280189,482.2283528348494 L 427.8098015244253,484.2056558383893 L 427.5468871143651,486.1978473424706 L 427.36624425216894,488.1966483438666 L 427.2369548763871,490.1980732745419 L 427.1554499297221,492.2035498969289 L 427.12259377626714,494.21111676359465 L 427.13291190361593,496.21892324972004 L 427.18520926336134,498.2263559409416 L 427.27829080709637,500.2328014228957 L 427.4109614864146,502.23764628121774 L 427.60062684790057,504.23650828910473 L 427.86677034217746,506.23008312661216 L 428.0534152891112,508.0865891953454 L 427.1471978618937,506.5381948940121 L 426.2148885159532,504.961635974587 L 424.9202437408354,503.38125785545714 L 423.28771523319773,501.7333560407676 L 421.8543623535256,500.51139777490386 L 420.29854445749226,500.4625879745345 L 420.4008086857575,502.391344988345 L 421.13826592580807,504.2210354047354 L 422.3299587474089,506.05974441014826 L 423.53926102835777,507.5060783935088 L 424.9781201683788,508.90269255830896 L 425.3656982777473,510.77652008521255 L 425.1842114215462,512.5733320583236 L 424.7655149668308,514.0164062448473 L 421.4437260725174,511.6960930935622 L 419.9679948934821,510.4613567800962 L 418.5197920557522,508.8154952256632 L 418.1563688829643,507.16695485051133 L 418.3088259094923,505.0697299392844 L 418.8876691176444,503.08156597253486 L 419.233067534904,501.11646219143915 L 419.4871322035458,499.1289855464698 L 419.5153417607398,497.1305807858292 L 419.1822308834512,495.09048134247183 L 418.59786672979817,493.2879439724656 L 417.5703772602046,491.44953661617404 L 416.3543318035569,490.0261784808308 L 414.78944973701994,488.31577984754045 L 413.75478548363435,486.913536133816 L 412.5452996354972,487.04535197091843 L 412.38783512617755,489.3134547437631 L 412.35139258577146,491.2801137967352 L 412.45180923830685,493.30649028817294 L 412.68356023535466,495.50677326806294 L 413.01004725472274,497.2519266556444 L 413.54239823596697,499.10876000836214 L 414.27804034945837,501.2897264213628 L 414.8997092932557,502.9574734379918 L 415.61008902110285,504.94271910533325 L 416.0833065690395,506.63832206396256 L 414.826235046451,505.14796568004476 L 412.53819422506353,502.0380194098827 L 410.9976344582527,499.96507111254573 L 409.98667727605834,498.557802885152 L 409.32228572131385,496.9536718904238 L 409.2331696146121,494.50526890594466 L 407.70868370178187,494.5259819265607 L 406.9075378356604,493.07869040008376 L 405.88496248411855,490.9139085113289 L 405.1341447841808,489.18303968705465 L 404.5029443391474,487.3426529138581 L 404.936956015573,485.4372865675634 L 405.6051814971081,483.60835593322827 L 406.4421025263185,481.57086202222945 L 407.5502571298701,479.92999071047086 L 409.3013935001158,479.16719041018456 L 411.0448789205649,478.65430367232824 L 413.18814361874166,477.9233007525669 L 414.9514064799244,477.1363952070913 L 416.5783475566064,476.1660512616003 L 418.1522371262393,474.7968943656969 L 419.74396676119227,473.1808607046151 L 420.8753378286099,471.84579829018423 L 422.08345426517184,470.20716202333347" fill="none" stroke="#000000" stroke-width="1.25"/>
	<path d="M 445.3196224954587,445.888578758994 L 445.9101352366933,447.32034657715957 L 444.5003750124332,448.4625367005846 L 444.3007443331156,447.3917829367301 L 445.3196224954587,445.888578758994" fill="none" stroke="#000000" stroke-width="1.25"/>
	<path d="M 461.4102854345044,443.566520862971 L 461.185828414047,445.5065756078855 L 460.9252772497781,447.439496941824 L 460.6451474289096,449.37202706503575 L 460.38571928138606,451.30730152366067 L 460.1999630298562,453.249894417882 L 460.12556251748896,455.20119095900475 L 460.1219866125723,457.153439448727 L 460.462016598345,459.0661627649896 L 460.21159435113003,459.817399355689 L 458.1914490659542,458.87766944827433 L 456.54130389975154,458.26754738989484 L 455.3239393763265,457.7232357678815 L 455.8587548099662,455.84519115491673 L 456.3767903438304,453.96308673815076 L 456.93808665222446,452.09235218408855 L 457.55672443116913,450.23770577879986 L 458.26308242624316,448.4177020519452 L 459.08364198740645,446.65015907436015 L 460.0590106492406,444.962870845896 L 461.4102854345044,443.566520862971" fill="none" stroke="#000000" stroke-width="1.25"/>
	<path d="M 464.9949561308405,458.24594498490296 L 464.9949561308405,458.24594498490296" fill="none" stroke="#000000" stroke-width="1.25"/>
	<path d="M 490.19236577704373,465.9939115318279 L 492.15365611903314,466.0653945341705 L 494.2279361813443,466.2995843334722 L 496.65186907278263,466.7427458260969 L 498.4501910001995,467.3638567966924 L 499.90800416024376,468.27820438372623 L 501.36378024311983,469.7754796204727 L 501.58282425938665,471.4355532506333 L 500.4836889041763,473.0801438557931 L 498.8958557119186,474.07705419430266 L 496.8429740697233,474.6020061328577 L 494.7424557253471,474.7632422265329 L 492.6243622690684,474.70327791072964 L 490.87127942814715,474.4580356644844 L 488.7740491975129,474.03674662304815 L 486.8243915573513,473.45189422612196 L 484.8750968503073,472.6959855360006 L 483.47688441377255,472.1254643560558 L 481.2011030012062,471.0697594281334 L 479.4866819534617,470.2145748517445 L 477.46414048254655,469.1821621855585 L 476.2772329658318,468.34761388666755 L 478.31588233357184,467.81282789757915 L 480.1054129940193,467.42663570132726 L 482.4932783294844,466.90138669486856 L 484.71310708991365,466.48781897316 L 486.70885154387264,466.1919291398274 L 488.34468684504327,466.035351108659 L 490.19236577704373,465.9939115318279" fill="none" stroke="#000000" stroke-width="1.25"/>
	<path d="M 495.58943615239787,445.8676648848767 L 496.1993503401287,447.319421421643 L 494.7836072087661,448.46612201291805 L 494.5823937943059,447.3967567809486 L 495.58943615239787,445.8676648848767" fill="none" stroke="#000000" stroke-width="1.25"/>
	<path d="M 429.73379996482333,429.12834198952083 L 431.75344078700783,429.16152695695024 L 431.586327822369,431.00976005926566 L 431.3144506752986,433.0113587290748 L 431.07730236688604,435.01793424922414 L 430.8492898073122,437.0256792904989 L 430.6664438088976,439.0457863621577 L 430.4680913257186,441.04673514529816 L 428.76354847652556,441.4509226997241 L 426.8383808358824,441.8778889003231 L 427.77068825654726,443.13874394367076 L 429.79195784360047,443.162316739688 L 430.20133580926057,444.7408153602334 L 430.0872172138384,446.7569832179 L 429.965879485074,448.77308127272295 L 429.87633476060086,450.7918200654974 L 429.8217941427144,452.8116729643087 L 429.79509860502856,454.8316857976206 L 429.8074735854287,456.851944363015 L 428.56116129153776,457.65483305869043 L 426.60969973020275,458.03491033930123 L 424.8981461876257,458.97912739476436 L 423.4597740781752,460.28752787950424 L 422.38722531034165,461.8878474566439 L 421.6801017755507,463.78067773614936 L 421.2153234798998,465.83413249194757 L 419.43329580108576,466.57982834848116 L 417.50085352496205,467.27379460428875 L 415.54119027072807,468.15073078641535 L 413.96136974265386,469.0418260243796 L 412.3061786077845,470.3575034973463 L 410.7580279231386,471.88825121770043 L 409.7721353386172,472.81411329382894 L 409.91219328811206,471.2771949102888 L 410.00220570480394,469.03065254509534 L 410.07450107365105,466.2733380540327 L 410.16570577776173,463.8953768106803 L 410.27969253367615,462.58187407120164 L 409.8803823966892,460.77285779234325 L 408.4267051471653,461.94708602748887 L 407.18418090868647,463.66951977171027 L 406.02420039489823,465.26720867368743 L 405.0934394064878,467.02464813419726 L 404.46806062060926,468.90758368152075 L 404.16333477500245,470.9713202965384 L 403.94418094669226,472.95133326192666 L 404.16451926413305,474.9997540478978 L 404.6210801149935,476.8703119964185 L 405.5422781923748,478.81731220692967 L 404.8078110456277,480.61896111325285 L 403.962147874684,482.4074000579825 L 403.2108213721766,483.7702376994945 L 402.74486006319114,481.778095214371 L 402.3024648442781,479.6490516375306 L 401.9746825896646,477.63884099043884 L 401.7677482837818,475.7103783582503 L 401.5618295009165,473.88590377267184 L 401.4007462382919,471.78424003849676 L 401.306689133885,469.85430333042876 L 401.233078726719,467.6735837536157 L 401.1830446858874,464.8552615681094 L 401.4593245267838,463.71165386913646 L 403.29668714766973,462.7329935594052 L 404.6100546007306,461.61128174336744 L 406.19841746030943,460.02543672422456 L 407.53293322088956,458.5187816181522 L 408.7789408317109,456.9376904870331 L 409.78215796751203,455.43933082410814 L 411.0463239463038,453.45598390528215 L 411.9689448119823,451.7927469245298 L 412.7464326449137,450.22455238366865 L 413.7424529345795,448.178177354285 L 414.70239250971696,445.9828310245465 L 414.2064388543235,444.7853169010919 L 412.09661144383244,445.0301410504884 L 410.21610023057474,445.70776445241154 L 408.46624969837916,446.64026495835736 L 406.6777077814648,447.7937703432769 L 405.1471113804773,449.02237326702993 L 403.75178732094844,450.5457845332226 L 402.529583635902,452.17386010774527 L 402.644830787171,450.926102549758 L 403.20379351614486,449.0537680223894 L 404.0645971403231,447.3085542907544 L 405.5388395480903,445.77335888666545 L 407.01529706276006,444.65617008502954 L 408.99687837508156,443.33897537352726 L 410.43096950865356,442.4482211427944 L 412.39331058962944,441.369147853177 L 414.27955547341855,440.91605650414783 L 416.139802228168,440.4718416064485 L 418.0058523091054,440.19357894103956 L 419.8244607904382,441.01553699897306 L 421.6603467504292,440.5003767728067 L 421.08623679739026,438.830314388387 L 420.7588803740823,438.36270561519 L 422.5068201921217,437.24553843392516 L 423.90866422115295,436.1544911966545 L 425.41720421922224,434.72539764539385 L 426.72404917243756,433.0364391065714 L 426.62727508418396,431.28219644721656 L 424.6901482425681,431.78488261374423 L 422.71319456370856,432.25550001965996 L 421.0504118636048,432.47095725051213 L 422.05487612515566,430.65203300209606 L 423.7286157537255,429.7998791479151 L 425.6985276910782,429.39572919426666 L 427.7069697193418,429.1881996597387 L 429.73379996482333,429.12834198952083" fill="none" stroke="#000000" stroke-width="1.25"/>
	<path d="M 426.1257195340864,435.32939317720235 L 426.1257195340864,435.32939317720235" fill="none" stroke="#000000" stroke-width="1.25"/>
	<path d="M 411.7393819403596,427.88976274890484 L 410.6610270793996,429.423239052729 L 409.5728873715985,430.98519427839983 L 408.61466658013575,432.23602571550356 L 408.8335222495266,430.1783468241931 L 410.0036164182737,428.8720862627486 L 411.7393819403596,427.88976274890484" fill="none" stroke="#000000" stroke-width="1.25"/>
	<path d="M 444.230299229894,388.50001009791316 L 442.37549871679033,389.05497325911296 L 440.61207011684735,390.1337617680659 L 438.9800856915505,391.40611140389296 L 437.4739710810511,392.7920414531248 L 436.0954317785308,394.28504605467435 L 434.9193398208888,395.80858667643975 L 433.7752309557354,397.52798488565327 L 432.7944843656967,399.2014970666367 L 431.8300769214239,401.0615189629507 L 431.00541814461656,402.95263525573586 L 430.0324917727068,404.5943091934005 L 429.044053283203,406.2054256983341 L 428.10642594371353,408.11618534617315 L 427.18835484261183,410.03069279059395 L 426.3149634523116,411.8769230115061 L 425.3387062896575,413.4993762180867 L 425.3896236780133,411.3532540631181 L 425.5403002314477,409.4038154254564 L 426.70337290778156,407.8261695869555 L 427.80024390702107,406.20185461622657 L 428.71952366838326,404.3438138467665 L 429.6092716687877,402.3782392779241 L 429.92338483953705,400.74044521287266 L 429.9355033255045,398.1728850023958 L 428.9561569392835,397.53722785491493 L 427.5659311637926,399.07331882910444 L 426.2878035599784,400.6334112654207 L 425.27081468560544,402.42705050229404 L 424.5853663365023,404.3562291964654 L 424.1826070427953,406.36416962506615 L 423.92097231168316,408.3746304252005 L 423.7356866216469,410.25649968392264 L 423.5451274837421,412.47989369240696 L 423.17677098300516,414.3699794668711 L 422.52706969812743,416.2489895999723 L 421.4841835153507,417.9345293368635 L 419.9750563730793,419.23696506864195 L 418.6342846867551,420.46055037324385 L 417.0262626007025,422.03555624988354 L 415.38165307932735,423.7196624948693 L 414.18094290793516,424.9943787639997 L 413.146345618483,425.87538337190955 L 411.66039144390226,424.9141956688161 L 410.10926121318795,426.188053630049 L 408.67340139171813,427.0731819611926 L 409.0730476694757,425.0226464310876 L 410.04625407584876,423.2520081211302 L 411.3964987914621,421.74344028905205 L 412.9039498178694,420.54633399748275 L 414.66688321302735,419.3239810306225 L 416.18810046643887,418.14988353472194 L 417.7054711624312,416.6539630121546 L 418.8892012223574,415.06780044689725 L 419.70652580849844,413.2688238297068 L 420.1508790740576,411.0978294825284 L 420.72562129536925,409.4111917599987 L 419.07224596235767,408.69519676579813 L 417.0547046389139,408.96689880872407 L 415.11612963907015,409.49493977594494 L 413.37214381482124,410.4180947085529 L 412.321405243112,411.0488618295421 L 413.13495555957627,409.20290229085157 L 414.2456646770206,407.2704091754432 L 415.86533153790066,407.54427302859466 L 417.8888111610422,407.6364216787407 L 418.03607883634595,405.6606543159738 L 416.97444840117635,404.08850913969115 L 415.965323327488,402.9291633999939 L 415.9324465487126,400.6801746441155 L 415.6797483910067,398.81704162211616 L 414.606536434072,397.43241224007687 L 413.702338058325,399.13188225812905 L 413.18655422097004,401.0714194543027 L 413.0795561369629,403.1474069257836 L 412.97527586648494,405.09447843211245 L 412.1891313864382,406.923260612808 L 411.38824217196196,408.6866648034034 L 410.4547668882283,410.7597813441143 L 409.67456797663675,411.0812210820994 L 408.769851717239,409.2872656769575 L 407.51189042603625,407.30940683461915 L 405.9710125669119,406.7944774178273 L 405.17896899415354,408.5885531950714 L 404.6481085113168,410.48309540695845 L 404.3740343490313,412.556157305546 L 404.2269386286934,414.5008964561875 L 404.3127296790817,416.7259480447011 L 404.60668413847515,418.55712448147705 L 405.1426873547858,420.54102675943545 L 405.802012000085,422.28282623272395 L 406.759689367652,424.2164134147477 L 407.23874544984585,426.11139770287105 L 407.1005378993496,428.191551025654 L 406.9204512663127,430.11821031575386 L 406.66191032141336,432.3090393099073 L 405.98398218525705,430.5775075469153 L 406.5734422416813,428.73951262264353 L 407.0315671486659,426.8128601737939 L 405.56204245526226,425.8962100300645 L 404.6442368190113,427.54313496676866 L 404.14017125889364,426.7202802756693 L 403.0465974578443,425.3383996544321 L 401.91487689295644,426.69015808068923 L 402.63643580437065,428.54201714387284 L 402.7752348842229,429.7843064979573 L 401.9367416096839,431.52756793702775 L 403.24992701024894,432.65272987023275 L 404.94600595462117,433.26624587490244 L 405.7893521968745,435.11557881140675 L 405.5311703887454,436.91828624980536 L 404.79470307609677,439.1825480942222 L 404.0467328403309,439.0038353770526 L 402.9210421735769,437.1909490587836 L 401.7047502937732,435.7389990878536 L 400.21716804642347,436.8162652862266 L 400.32526791808385,438.75067257593696 L 401.9208487267185,439.53210718554664 L 402.6052317704761,441.4396324654932 L 403.01103341569626,443.308379790808 L 402.30192797832586,445.29446260249654 L 401.63742583936397,447.2533142152915 L 401.0700190813852,449.1419510576143 L 400.53563023028045,451.10345004872045 L 400.03891089205257,453.1911490942252 L 399.6817074105416,455.0447340778209 L 399.01507899312054,453.82381760932566 L 398.2041235288537,452.08503514652546 L 397.1484595854584,450.1812530575662 L 396.10501551259006,448.66989853078996 L 394.84153392656185,447.1674379489599 L 393.3786335633296,445.58924175321397 L 391.55376493650215,443.78706646595253 L 390.4894737605184,444.14155826289294 L 390.46299136527267,446.12907906818447 L 390.72565730960184,448.35700916310526 L 391.0343089871046,450.3014928453919 L 391.4553536658835,452.2168678726413 L 392.0013098243457,454.2756901725489 L 392.62749977137406,456.13307196200407 L 393.4728415610359,457.8950624338562 L 394.60720292953926,459.55726049619267 L 395.8754323808661,461.2110218968631 L 397.3391780401315,462.7533506839021 L 398.6447923996373,463.8995168804811 L 398.6523872131485,466.41069188572135 L 397.5764483674872,465.93724383630473 L 396.09287603168553,464.7352273271298 L 394.5867384613068,463.4391036036257 L 393.51032594648797,461.6321116544226 L 392.4451396803717,459.91725224182323 L 391.04374847506756,458.4613992984624 L 389.36806043992357,457.34175687382753 L 387.6189697994327,456.5561667265118 L 385.428025697095,455.80173833645114 L 383.8266830363405,455.03534666914834 L 382.95483334677965,456.21195982698026 L 383.8727717790356,458.29077779449096 L 384.8262125713808,459.9126027149469 L 386.2359187039124,461.3803194685596 L 387.97453988650665,462.66461724868157 L 387.99749437820174,463.2935315790799 L 385.9201655442036,463.73488592612597 L 385.06820896256966,465.2814023658779 L 386.819760391491,466.167997425288 L 388.5823458674612,466.97514681663415 L 390.68934343871274,467.46112886000043 L 392.4723374177786,467.31665262858735 L 394.86072733837136,466.7841637041303 L 396.49344405569013,467.5277474143975 L 397.6234625289518,468.9057635968664 L 398.66119421889954,470.7657292466981 L 398.9579219499117,472.91090658138927 L 399.24205047080625,474.8277710740424 L 398.4853085320575,474.8732654234462 L 396.95767469025895,473.50385120529563 L 395.3381395525386,472.4873579400544 L 393.7310997930257,471.0821844216131 L 392.1652785247073,469.69852091787 L 390.307484178043,468.7057308092209 L 389.3137785872225,469.88113020910424 L 390.3668991885431,471.4479073129313 L 391.74342113717904,472.8582765370724 L 393.5503751709792,473.9119057801007 L 395.6827382076274,475.07490511194317 L 395.46224455137735,475.28989928778753 L 393.5052609659481,474.958380068818 L 393.2450984897997,476.88532217010845 L 394.74145355488184,477.7938548134775 L 396.8781976208479,478.0811106410136 L 398.8334062587099,478.80299000623626 L 400.1468443017116,480.1056762460991 L 400.60792475442315,482.1341283340566 L 401.0260273012112,484.16434951167474 L 401.415197161204,486.2813391514422 L 401.8582450917948,488.11853161456503 L 401.47316522363417,488.95306096554407 L 399.4522522419355,487.8260172976215 L 398.12692552994736,486.4260334025323 L 395.8495184456415,483.23744399664423 L 394.40883476286257,481.7398133927175 L 392.78585242425567,480.3737636461977 L 391.0522061058373,479.1394838968597 L 389.642965167971,479.63993299302876 L 390.2682786214292,481.5722725111762 L 391.06155315989423,483.3389078910604 L 392.16912584654796,485.1033451234831 L 393.41788160365934,486.544568744575 L 395.13795826613807,487.77247927821037 L 396.94759093339496,488.7711009531073 L 398.6942352286411,489.6893320914912 L 400.5945759175871,490.74119600695 L 402.0763057549854,491.83219192595425 L 403.59477104359,493.2988988055312 L 404.6739244638101,494.6524278111927 L 405.9338513302993,496.48851579905465 L 408.20914701152554,499.8483567796339 L 409.3764025814671,501.5493194220227 L 410.6551080177134,503.37453235667186 L 410.97311590797625,504.13304987155294 L 408.90136688560625,502.7550144218187 L 407.27270407159205,501.8251684774688 L 405.3690824302208,501.10122860434967 L 403.4604095253673,500.5901706399448 L 401.76582883336647,500.41577995836064 L 399.0279612902704,500.446084503517 L 397.40849934411284,500.72252759150564 L 395.4570620790411,501.1098106424227 L 393.2664268789874,501.19463214779717 L 391.3550389533174,500.8426513479109 L 390.87429956790976,502.2437757976059 L 392.30485453401224,503.8614940651186 L 393.80809408451324,504.9466092377287 L 395.86341725380777,506.01492660763506 L 397.5726110940595,506.71691871861344 L 399.5137649523846,507.2804701091503 L 401.0617493220946,507.5738515681293 L 402.5802755359031,507.65717859404015 L 405.6760896643057,507.6464343952484 L 408.31615213277064,507.6508663338079 L 409.98102931324485,507.7089855247211 L 411.43852113765047,507.9977028346818 L 409.3283951509195,508.5900418532274 L 407.51257127501185,509.24097317533983 L 405.75546075073476,510.06712840630695 L 403.5064708573782,511.2579100837624 L 402.9487199555492,512.6203004721237 L 404.5022984406606,513.1516846394447 L 406.86238961218106,513.3190152689873 L 408.9341328876722,513.3903302597578 L 410.8326895615661,513.1981955979337 L 412.66878630278296,512.4868542314439 L 414.38246273457634,511.33759914231365 L 416.134800633059,510.30872311848725 L 417.5763338858618,511.41131680076404 L 419.2242060559221,512.8698454607977 L 420.8694487176965,514.2992952636233 L 421.11708022916974,515.0626222387889 L 419.75845516645586,516.2407662688255 L 420.5041459802062,517.9716836276244 L 422.3547792628064,517.4801817740304 L 424.3735816934235,517.1458172331661 L 425.85498079709424,518.097099931857 L 427.72287050209593,519.3426842109648 L 427.0976260401395,519.8244143985917 L 424.73962891823066,519.8642027539058 L 423.05407101695897,519.8335327535212 L 420.4358206032144,519.9671746724501 L 419.61346914653785,521.1705791587761 L 421.1824901695067,522.1230574751335 L 423.06463924492,522.4557166958643 L 422.5124141395148,524.4387832818916 L 424.1716359035848,524.6345058206698 L 425.31777457889365,522.863135292632 L 426.4611764530672,521.9351947092625 L 428.81038607932413,521.8997885541248 L 430.7427091713622,522.1850999580658 L 432.60334586931594,522.7070052428996 L 434.5237269648615,523.321308380423 L 436.4280834296415,524.0178414604252 L 436.5323018584138,574.5644124953209 L 436.9246435876136,576.4729011697065 L 438.28498192557083,578.5000104042133 L 439.1495465677544,577.5192362813578 L 440.1742197695798,575.653659927774 L 440.2244121908966,537.9463542426213 L 440.24284911528224,532.8888892283246 L 440.2536669500238,530.8606905270854 L 440.2655733791458,529.162143805161 L 440.2785851621588,527.7902211440964 L 440.29271905857354,526.7418946254463 L 440.30799182790133,526.0141363307765 L 440.32442022965296,525.6039183416626 L 440.61466567108596,525.5661267098585 L 442.6515884593673,526.1956460603031 L 444.50412604353147,526.7309015321135 L 446.5293215546887,527.2817246522523 L 448.54778115368606,527.7368129129064 L 450.307600238928,528.0612247844637 L 452.41355456927135,528.3868056781665 L 454.44740543946347,528.62547476163 L 456.44741395957624,528.8020876048017 L 458.4734278102731,528.9026565703002 L 460.5997374082602,528.9553459792638 L 462.6558368341467,528.9381263751254 L 464.7221869722175,528.8540702087247 L 466.61223917538683,528.7018335994803 L 468.757124480918,528.4623779282772 L 470.75211992566915,528.1769727205059 L 472.58288191029396,527.8769779872025 L 474.60150359773695,527.447850272828 L 476.5909340671487,526.9435187298438 L 478.50799361977573,526.4187909588916 L 480.46290713504584,525.8163656518245 L 481.54559567414213,525.5320828428423 L 481.5623630976198,525.8236138718241 L 481.5775740555325,526.4295052409778 L 481.59124690179544,527.3538918378142 L 481.6033999903238,528.6009085498549 L 481.6140516750331,530.1746902646316 L 481.6309242486547,534.3190882525753 L 481.64543142832486,543.0897949439227 L 481.6481161128936,574.9116577620139 L 482.2823091369856,576.7541335940826 L 483.3979816324342,578.4646888974995 L 484.5078245963296,577.1643894155561 L 485.37378920696074,575.3180917304576 L 485.3897805519787,536.9602405081162 L 485.40273178813493,531.7063398768269 L 485.41144790523725,529.6440089010039 L 485.4217854151048,527.9326011022054 L 485.43384011279966,526.5529991933081 L 485.4477077933838,525.4860858872039 L 485.463484251919,524.7127438967962 L 485.48126528346734,524.2138559349999 L 485.50114668309095,523.9703047147389 L 486.5059130358985,523.4836504380296 L 488.2750551696778,522.6206625804962 L 490.4030630040655,521.5414651097083 L 492.0399147923366,520.6538375834535 L 493.7086151581247,519.6594514647709 L 495.2639064834448,518.6711948644793 L 497.12699549747384,517.3768696081961 L 498.58766218388655,516.3181992532393 L 500.2236141082194,514.9896479417631 L 501.77501635239423,514.1535776056515 L 503.80096005456704,514.267615948364 L 505.7590616122163,513.801614165505 L 507.3896828466351,512.6256685041824 L 508.5265849288289,510.96772554807757 L 509.21435963990825,509.07474546016584 L 509.70040455153,507.1116662228511 L 510.0130807939412,505.11699413570824 L 510.25836132959284,503.1083317151673 L 510.4305774619887,501.0945524039241 L 510.57899657344944,499.0926918626447 L 512.2218019561761,497.91295712443235 L 513.8923230932166,496.77540479152935 L 515.5592264708746,495.6295700189975 L 517.0451664093181,494.31681290714516 L 515.54012247745,493.86791078226094 L 513.8489153260311,494.9764745515278 L 512.1906808026472,496.11857591060385 L 510.61423102329957,496.98580165793123 L 510.5472570219947,494.96619771929704 L 510.421589803978,492.9493198632786 L 510.17112508507455,490.94656244578385 L 509.18012707240035,489.3416109183104 L 507.12609497368913,489.16476162140987 L 505.5308177104904,490.2855312186618 L 504.9923051896632,492.20073971957885 L 504.21610936997206,494.07019713567445 L 503.3827226624623,495.89945793337967 L 502.42579029302004,497.66995292575695 L 501.22736758483524,499.320910394114 L 501.273480284617,497.5279102377656 L 501.627884673609,495.53946865145565 L 502.0508419357313,493.5630453573404 L 502.4076067047754,491.5900986017379 L 501.05231034226557,490.28544427483047 L 499.0412223009689,490.2448274246049 L 497.6524683000508,491.54300631145094 L 497.16149433312063,493.4956666858878 L 496.51815316260746,495.39695093838856 L 495.6221559935453,497.21167523047353 L 494.67210576656043,499.0016793465215 L 493.7644172446745,500.7897714065605 L 492.7210580617427,502.5279881029051 L 491.5780367620779,504.19066445978984 L 490.0491218250515,505.2585535223481 L 490.0525103937114,503.24794202314393 L 490.41388265657775,501.2616045499073 L 490.88599079278015,499.2987985898018 L 491.41858126472977,497.3508271783939 L 491.8226275494766,495.3938040069909 L 490.64458618396344,493.81300311107924 L 488.7381815120408,493.19988439177735 L 486.70608355706577,492.9860305466978 L 486.48659207993836,491.89865467884573 L 487.280221471868,490.0604033204923 L 487.3609229208896,488.10924553500007 L 485.95875281473315,486.7651967530351 L 483.952908292261,486.960968767662 L 482.3908505355487,488.2149486523683 L 481.62459536435335,490.06417294852804 L 481.45774782467475,492.0593951228437 L 482.2295259351138,493.9085562046114 L 482.02897633595865,495.6236393539527 L 481.1345907711138,497.4390002189287 L 480.19834746850336,499.2343375708528 L 479.2571494288794,501.0112897039806 L 478.20828983047835,502.73133671143336 L 477.0314554759377,504.38388375198394 L 475.63081724837247,504.9384498855596 L 475.71535166317545,502.9279972161672 L 476.1085789769163,500.9414939477033 L 476.60335811295147,498.9850924688069 L 477.13947242515087,497.0344650015488 L 477.3647854075391,495.1057465660181 L 476.0253070369552,493.6435772375998 L 474.0918213671483,493.121088168193 L 472.0601734331997,492.9255718872915 L 472.26747527009,491.611503977406 L 472.9925911204098,489.75537612104523 L 472.8967166164608,487.8089008130805 L 471.30593662958023,486.6803576424311 L 469.3267944222302,487.057890055774 L 467.86076933746875,488.4147676714825 L 467.2059169889488,490.3086554567689 L 467.14777784323473,492.2998904403697 L 468.0390317188019,494.1160892117225 L 467.25475900311267,495.9153206223732 L 466.2564676903772,497.6590564504515 L 465.0953892045725,499.3353901532569 L 463.7107740583999,500.75784749476423 L 461.89205866665054,501.6429844297672 L 460.3496133919698,500.75792058227273 L 460.1141241197479,498.7560339538739 L 460.2236678633045,496.743652620049 L 460.90622377421084,495.1225549078365 L 462.88750759815343,494.73906771689855 L 464.4106402902141,493.4618435988462 L 464.9868637736907,491.5900996615317 L 464.0963901649778,489.93833460221896 L 462.1118882975437,489.36621435612875 L 460.10242205881684,489.5387877801973 L 458.28019776588155,490.4374553788259 L 456.9856502967897,491.9393572389405 L 456.0749075580859,493.71746695505124 L 454.3171382985492,494.7168030063261 L 452.4990401677734,495.6187183750915 L 450.7374095454473,496.2808155997367 L 449.5347306365509,494.6887886105162 L 447.9055121016304,493.4820819855103 L 446.0316830013944,492.74677165088434 L 444.04860903675353,492.34324972219974 L 442.03767843622296,492.1181609730976 L 441.7757958555397,491.5785850663679 L 443.4833353201166,490.4569967416424 L 445.0734745191874,489.2309094016712 L 446.54511005450433,487.86055269973775 L 447.8411876651225,486.2957660674637 L 448.8569733255227,484.5874986869037 L 449.6133732636569,482.71893492513357 L 450.0195937149106,480.7494296230048 L 449.8792711695231,478.75204272882127 L 449.049928946842,476.9204773281146 L 447.83797356941324,475.57781080368085 L 449.76519255975404,475.2940210015433 L 452.1200852816095,474.7594082145669 L 453.0661664576629,474.5540362447037 L 454.5932439860335,474.2083093577058 L 456.9286506658302,473.6360907094784 L 459.4698012745197,472.9847555658378 L 462.1953901217346,472.2534272018977 L 463.66096957841194,471.8594092310259 L 465.11604580532656,471.46768087161547 L 466.6781110453512,471.03197487032514 L 469.45255191382853,470.2424254653142 L 471.79053280500466,469.642500672433 L 473.1333063696171,469.89325240491445 L 474.40993962569917,470.5948845804865 L 476.1013629813114,471.4613611152075 L 478.24498892258697,472.52945077405263 L 480.4440251856658,473.601946408019 L 482.3019987954086,474.48178825812045 L 484.1224542723064,475.36160255938677 L 486.1124337805516,476.20121916946584 L 488.0633944331716,476.8039096786512 L 489.9216907192758,477.2409731083343 L 492.053752892334,477.56403430989747 L 494.18893303903036,477.7132963735864 L 496.2111277234252,477.6835384017945 L 498.0042335095783,477.4695394969697 L 499.8606325000678,476.8560675691559 L 501.5189212182177,475.74513425084393 L 502.77395535073737,474.11306097952956 L 503.18515394422707,472.2173387797043 L 503.0121881514622,470.2574921357035 L 502.32146612979716,468.316088170118 L 501.09044008268904,466.4940281924467 L 499.86585241865214,465.42197333594044 L 497.8522987934344,464.3492181614995 L 496.30107583913247,463.8320702653416 L 494.0684157265047,463.31053651584256 L 491.9332065519137,463.0347242474742 L 490.0559590980101,462.97785451066727 L 487.84440290555256,463.034667732038 L 486.62624331314834,463.17259872253726 L 484.2713229336971,463.49494991513245 L 481.99998546998864,463.89537809384325 L 477.7259951400297,464.84744496843285 L 476.0616142374886,465.28161485736825 L 474.1695605761942,465.79618867716323 L 472.17976195396403,466.27812595831347 L 470.3502221007351,465.3566132692405 L 466.8152331475038,463.3582601485582 L 465.34519290163263,462.50083359709885 L 463.4032789105881,461.4585087733453 L 464.7214542301065,461.3044208198684 L 466.55170380482747,460.5645719301656 L 467.80510197124516,458.98177397659515 L 468.8119340084296,457.2303371920974 L 469.67933538264174,455.403607722981 L 470.2019728490378,456.6572232284876 L 471.0282151985839,458.40809300980413 L 472.9654704750471,458.7864508505153 L 474.4300350936379,457.5456470773442 L 474.96641885548945,455.59487402356865 L 475.50961936433885,453.64735684000055 L 476.0986480622699,451.71216289967293 L 476.7589478900764,449.80167623342015 L 477.5159617885527,447.9282808720664 L 478.3970396584052,446.1158752704747 L 479.5247270406697,444.436728449876 L 480.37945446057927,444.29326753883726 L 480.1169704077161,446.2964510646027 L 479.8347895100632,448.29879434900937 L 479.56060958964446,450.30281837005873 L 479.32212846848404,452.3110441057553 L 479.1814473702973,454.3273559722733 L 479.1742153434835,456.34944338863045 L 479.3109964019509,458.36051082474523 L 480.0652146615151,460.22019069423465 L 481.75877462558867,461.2205152412617 L 483.77836069188794,461.3100484147972 L 485.6091463820876,460.5523701245594 L 486.86538124883674,458.9717687693783 L 487.8626098907816,457.2117142260025 L 488.7292393306793,455.3863842306695 L 489.59986220707054,455.431798304747 L 490.88959753152886,456.9714593481778 L 492.6662626231447,457.9173766493616 L 494.6567328902676,458.23132498231166 L 496.62493501536574,457.8308190208306 L 498.31148154832164,456.7372479345899 L 499.7086223401808,455.2753153341825 L 500.8870792965031,453.6346384767968 L 501.9213350382489,451.8969356713339 L 502.8578612476175,450.103764900722 L 502.7878895561351,448.3613283982431 L 501.15795792188794,449.1174556575575 L 500.25265939249306,450.92437782419955 L 499.2544936490525,452.6828641097756 L 498.0760286658464,454.32098066403125 L 496.6516291079201,455.7523408430593 L 494.81231745210846,456.5128474931546 L 493.5624700837162,455.25287580646744 L 493.4566123624028,453.2383314525036 L 493.6075940604304,451.2216589532117 L 494.84536413454924,450.2103023381002 L 496.7013772568287,449.471333700461 L 497.98736800608134,447.9329912527473 L 498.20571613056217,445.9727355319268 L 496.92222886723437,444.5021651822205 L 494.95628952419554,444.1094871533434 L 492.9618086058752,444.38709875747503 L 491.2148007493423,445.37602028752707 L 489.9507802873825,446.9462192793873 L 489.129708152516,448.7877782015587 L 488.53426435139096,450.71982412232086 L 487.7995360894988,452.60259453493484 L 486.99892215567195,454.4598510700145 L 486.18238357439907,456.30752488288675 L 485.21702036121115,458.0855062854579 L 483.8967401911765,459.5602840819696 L 483.5166577909671,457.7142203181926 L 483.57426238059963,455.69477086980163 L 483.75259177629084,453.68288733916484 L 483.9865259299349,451.6745577955985 L 484.2091110428093,449.66466815284156 L 484.353393316191,447.64810432464105 L 484.3800319812839,445.62483874738444 L 484.1372188627256,443.62345545105035 L 482.92075708269545,442.07333589971546 L 480.97786339314314,441.63026416737887 L 479.13565956908275,442.3787422888495 L 477.6918698954421,443.7925726241462 L 476.5956095904303,445.4839048806994 L 475.69167980592516,447.2959426306467 L 474.95053109049627,447.9758184802361 L 473.93540801728113,446.35397547953374 L 471.96467896627627,446.1327642453655 L 470.43806287053036,447.34320341953463 L 470.05601304929354,449.3210926310486 L 469.3429431563103,451.21139701839235 L 468.55527677177156,453.0739322686913 L 467.7708448106769,454.9413617166321 L 466.9207540795114,456.7721749127438 L 465.90378754419686,458.51326681839123 L 464.5704072494301,459.23763283310575 L 464.4539769661241,457.22098407896317 L 464.56249786578815,455.20580451328715 L 464.77419500090076,453.1957526011301 L 465.0176007075338,451.18644567529526 L 465.2212473217596,449.1735010685921 L 465.32834111091563,447.15474005901467 L 465.32410221260375,445.13269494042777 L 464.9160524471802,443.1668439826662 L 463.44826202177785,441.83979659143165 L 461.46302684019895,441.7211011253693 L 459.6916365319179,442.66283185027794 L 458.3683387783829,444.1864209540955 L 457.3343657421325,445.91900344229776 L 456.45519068446157,447.7431910433529 L 455.8512247676817,447.67507166716496 L 454.61652168440935,446.2285872571933 L 452.6295649417106,446.2241185494978 L 451.29953198630665,447.62710607630925 L 450.6729707286971,449.5371737169667 L 449.7482890029793,451.3349036148449 L 448.7152317697864,453.0738802056129 L 447.4922839572767,454.6769998777759 L 445.9924650409962,456.02866207569446 L 444.06530647852367,456.48174507197325 L 443.19308593600914,454.78476065296314 L 443.147076264658,452.76810036801004 L 443.40141023099204,450.76230697536613 L 445.0012235025315,450.1417582276381 L 446.75657738224305,449.17863682302203 L 447.86970960486025,447.52114103448764 L 447.7654232644529,445.5522923323154 L 446.2304189725899,444.3209202522741 L 444.22741944232973,444.1110416750112 L 442.26587839037467,444.5459319405754 L 440.60802870929354,445.68710645068353 L 439.4454471670912,447.3274796718579 L 438.73825230222496,449.2197363212557 L 438.45016199644897,451.2174307871952 L 438.5626540680835,453.23244995746967 L 439.16390987770944,455.15520467413256 L 440.35971173555663,456.76798889300295 L 442.0778808771956,457.80988404830157 L 444.0530606822377,458.2250032501299 L 446.0393556867341,457.9468163754329 L 447.77846308900945,456.92918875357327 L 449.2170046938538,455.5184824758167 L 450.44102448301965,453.9061485027229 L 451.079616556542,453.8130024066432 L 451.13297723750975,455.8356777943876 L 451.3742392748543,457.79865651730336 L 449.21812970830877,458.2606332165822 L 447.4199367260525,458.99858149423375 L 445.84405184590673,460.073047569819 L 444.45492308368074,461.5022069702703 L 443.48818205853246,463.2413877612466 L 442.99361577807775,465.4621461721411 L 443.66805476492937,467.093029009183 L 444.66495682810455,465.8063526493988 L 445.74897685764904,464.03136260631436 L 447.1653432032994,462.5122998111625 L 448.74317642931265,461.4650783604146 L 450.64211859441076,460.78568983756395 L 452.700731822134,460.4459800205374 L 454.7053283807303,460.4789092155082 L 456.39584685383676,460.8322114269515 L 458.0913847850888,461.4350075929197 L 460.1912605357489,462.42256686308053 L 462.18680561528123,463.46897939637125 L 463.9537946245285,464.45153107239764 L 465.663614341631,465.4588754757247 L 467.6749279568804,466.6956095952755 L 468.4139343925085,467.47156014548136 L 466.21150605465124,468.13544180926874 L 462.4112386990639,469.22900212848026 L 460.8513374108609,469.66433652693576 L 456.3090122532254,470.9812862008465 L 454.61159809642504,471.429634462466 L 452.66795717620334,471.9205379116584 L 450.64534791650556,472.386889040083 L 448.46708474145,472.82354206161034 L 446.3641514847977,473.1875274404635 L 444.5675319803093,473.4358756409678 L 442.70321223790927,473.6232280656067 L 440.57783961060426,473.81113974863746 L 438.7219060812308,473.88710663383193 L 436.95520089036745,473.86249123343686 L 434.6051171129265,473.7245403032432 L 432.22400952073593,473.5155338722897 L 430.3642328856227,473.2777519698884 L 428.51548771754625,472.8238196583143 L 426.5473395369577,472.1195854816115 L 424.89852153906355,471.2086073252675 L 423.50718753151455,469.71711802005603 L 422.80641392187107,467.9155066939477 L 423.1641322390071,465.9354619859109 L 423.51007691373263,464.2368232318251 L 424.55036882692525,462.5031310748506 L 426.05223354089065,461.0942960466753 L 427.87577665439426,460.1871922352534 L 429.8015016315373,459.91836829663237 L 430.0344071346951,461.83424800682604 L 430.98567693025893,463.4749597746637 L 432.9737777906012,463.6381900233147 L 434.6310453367824,462.6198219813543 L 434.7140657110413,460.6138919793524 L 434.645287349246,458.59174611741423 L 434.5654056232534,456.5676483764784 L 434.52530220794426,454.5454163775362 L 434.57585877819906,452.5288677415786 L 434.6561068856338,450.50808437585147 L 434.72452079380923,448.48522529982864 L 434.816113870459,446.46524532339436 L 434.95113569629154,444.4501168928563 L 435.72201345051906,443.0664103132537 L 437.74582506331234,443.01263763124246 L 438.94970927072035,441.8796375451883 L 437.1180235589981,441.4360557978687 L 435.16904196212914,441.3091114981099 L 435.75719299002924,435.27427243912456 L 435.9898111982663,433.2658157625486 L 436.2758535100018,431.263378860376 L 436.8238772833179,429.51728755929656 L 438.8361640442768,429.6665527122653 L 440.85187176468986,429.84103968706034 L 442.870337028483,429.9967079756462 L 444.89070193754384,430.08896841933495 L 446.9132674685131,430.1002248046522 L 448.92638329978047,429.9369930719838 L 450.86969532239556,429.39925393230976 L 450.9226907042805,427.91963345014 L 448.95123549200156,428.2119534820113 L 446.945585961727,428.44401800522854 L 444.9240268465825,428.4225749789417 L 442.9080868308065,428.3092055284095 L 440.89355142379674,428.14078910363656 L 436.862213628191,427.782207452931 L 434.8468976092047,427.61509086067576 L 432.8294929130718,427.4803374535684 L 430.80970476429553,427.39725313474815 L 428.7900490259038,427.42901779887944 L 426.7672591689855,427.5424245856217 L 424.7600517649184,427.78312724392316 L 423.26095156538156,427.7901200126724 L 423.9852058665432,425.9135699811178 L 423.0733720339236,424.6795354594947 L 421.41610285876675,425.8456815744846 L 419.6848926593548,427.10169465690916 L 418.1509221546736,428.31987012100285 L 416.542522209038,429.74652192173187 L 415.2771311094612,431.1281007407921 L 414.02815281557565,432.8226235362335 L 412.94310311003926,434.617626262073 L 412.2743342973368,436.1685076545222 L 411.5374437361437,438.4212679978014 L 410.2975848745442,439.81401528209244 L 408.64262680378187,440.8449648235265 L 406.84844587235585,442.0408058582312 L 406.332596379491,441.61974970063 L 407.0242443791805,439.7125814624438 L 407.87038191045804,437.85143034174314 L 408.81728274758547,436.2099342673512 L 409.9437103464774,434.3240032879825 L 410.97218286935345,432.73785250734954 L 412.1682387934523,431.0182377763357 L 413.21546558081224,429.60941520199333 L 414.65842145001966,427.8195591510369 L 415.85099940405973,426.43750305208505 L 417.2668196307155,424.9349121606825 L 418.8480394855023,423.3239267574086 L 420.3732114382531,421.85741385862616 L 421.869340123227,420.5583342848965 L 423.4051976349736,419.8020918396779 L 425.101191326202,420.69009503934626 L 426.8398303711147,422.1722535784673 L 427.18414479519004,423.9311218365018 L 428.85638798790916,424.6106112535466 L 429.97372803669583,423.1649508450678 L 429.1991952067428,421.45333560037915 L 428.3814626186562,420.62688128498456 L 430.49708633196275,421.26800004492236 L 432.27306922324874,421.99841229321623 L 434.259158290312,422.27855089578685 L 435.09826762264066,420.5810848389393 L 433.87897887739445,419.5167858089142 L 431.70108921094607,419.5904268860162 L 430.63196516182995,418.8545685977671 L 432.7105949823677,418.68247364328647 L 433.5737578048421,416.97204401055194 L 432.46861184281306,415.72406680429197 L 430.66110407787926,416.7162303915013 L 428.8212949721939,417.57503559753036 L 426.9517319928842,418.20479143382096 L 425.19060008687046,417.93635287323656 L 426.7099632389931,416.8490405915712 L 428.7039909057024,415.53158394143856 L 430.11370284390154,414.65534784314684 L 431.90804094529744,413.6416056881539 L 433.8038408009252,412.6547473582912 L 435.60861210819286,411.76172906447357 L 437.55936620638056,411.5867992234856 L 439.5558318276292,411.85394706006883 L 441.46084030211125,412.3013314107642 L 443.4857138942529,412.9217757680518 L 445.49294495663895,413.6010337937555 L 447.1841918164388,414.2938150935295 L 449.09880062520324,415.1256874266873 L 451.0905097391722,415.7491781573039 L 452.94977551022765,415.94963025876604 L 455.1775763480765,415.8947881427398 L 457.12552124819126,415.68287329961186 L 459.1828655640229,415.31711193714915 L 460.1672515753217,413.9996975520593 L 458.7353706821964,412.90721598499454 L 456.7790681797687,412.3520790029092 L 454.81895808022995,411.90795091966356 L 452.731794209407,411.6240563753866 L 450.6541364898944,411.47540625907675 L 448.6406999344585,411.45165335056305 L 446.586456202502,411.64661985889575 L 444.8439292088217,411.30215244629227 L 442.6589392429504,410.49566106470775 L 441.16355084735153,409.8052547284091 L 443.1504694187963,408.91816218691724 L 445.0960037486123,408.3546663040997 L 446.95323959052115,408.86643168345233 L 448.87686798673434,409.45260653132226 L 450.8867115401137,409.8744460021708 L 452.9024308350165,410.01623607920396 L 455.04729590663555,409.90966895210664 L 456.9894676954176,409.4630195512177 L 458.46996804263534,408.91484103566773 L 460.35930284100834,407.9846815116623 L 462.4317250433792,406.9551474687887 L 463.96462174541955,406.19798606830034 L 466.025239771361,405.3141266137451 L 468.0584787284472,404.64458443247764 L 468.89357269838297,403.3542287862818 L 467.09842296917486,402.5741478197441 L 465.0942960318606,402.11462998583784 L 463.032139008294,401.79442924779977 L 460.822661652386,401.53674733698466 L 461.7449576336614,400.49844206423023 L 463.3591168422923,398.7687674714793 L 464.7633969502146,397.4232854293121 L 466.415161084901,396.2445905845525 L 467.51501604432747,394.74775430035646 L 466.13174569731524,394.20462243488515 L 461.6119007855794,394.80823045771564 L 459.9213847735159,395.17278071186894 L 457.93872929629424,395.7599609271614 L 456.03919269101846,396.4207809320329 L 454.1834928552535,397.2304589124207 L 452.3734620706791,398.2358938763518 L 450.7648728274087,399.3670032107866 L 449.25000683178257,400.5871931376405 L 447.62651039891705,401.9960991418874 L 446.10088201608374,403.42296536936345 L 444.711611646745,404.66228698165145 L 443.076997473044,405.8454039131958 L 441.28364530488835,406.846297419105 L 439.4164114167018,407.6661506504406 L 437.529819297633,408.29561478954304 L 435.7891579370405,408.04261689580085 L 433.98390618553947,408.30063269206903 L 432.3662920207941,409.79244202276334 L 430.7964682692763,410.98416828289527 L 428.86320199421976,411.70188032326183 L 429.34813485129365,410.01806824446805 L 430.215143524494,408.0715656008761 L 431.2750454197663,406.340440673236 L 432.9817816565182,405.5615084800069 L 435.07910556876186,405.38954013220695 L 436.92463349540543,404.80991139807315 L 438.81766374620844,404.02624976901257 L 440.67790737478197,403.117299878041 L 442.43072626685927,402.104108281941 L 443.9260836183436,400.82246916587934 L 442.8063334838709,399.84389739193375 L 440.6927937657347,400.23317325535373 L 438.5399801427597,400.61358762042 L 437.7221645710581,400.4572334268108 L 439.08097894082863,398.8771873451697 L 440.40999228741845,397.2409967461143 L 441.48408558135407,395.78327677376575 L 442.58084087054164,393.9428237437044 L 443.55393378434724,392.13780952823805 L 444.393990855227,390.3203000850329 L 444.230299229894,388.50001009791316" fill="none" stroke="#000000" stroke-width="1.25"/>
</svg>
