<?xml version="1.0" ?>
<svg xmlns="http://www.w3.org/2000/svg" xmlns:ev="http://www.w3.org/2001/xml-events" xmlns:xlink="http://www.w3.org/1999/xlink" baseProfile="full" height="600px" version="1.1" viewBox="-0.625 -0.625 901.25 1251.25" width="433px">
	<defs/>
	<path d="M 0.0,0.0 L 900.0,0.0 L 900.0,1250.0 L 0.0,1250.0 L 0.0,0.0" fill="none" stroke="#000000" stroke-width="1.25"/>
	<path d="M 43.0,31.0 L 47.0,31.0 L 47.0,35.0 L 43.0,35.0 L 43.0,31.0" fill="none" stroke="#000000" stroke-width="1.25"/>
	<path d="M 863.0,31.0 L 867.0,31.0 L 867.0,35.0 L 863.0,35.0 L 863.0,31.0" fill="none" stroke="#000000" stroke-width="1.25"/>
	<path d="M 345.0,335.0 L 555.0,335.0 L 555.0,632.0 L 345.0,632.0 L 345.0,335.0" fill="none" stroke="#000000" stroke-width="1.25"/>
	<path d="M 529.0639226658876,510.5390958636919 L 528.9220200762034,513.2482290897285 L 528.6283672111962,515.9383135894861 L 528.2241311732215,518.6122173365562 L 527.5754892899016,521.2298536375775 L 526.5420303982862,523.7416110340166 L 524.4096095802304,525.1620396769767 L 522.0189524636264,523.7932375084958 L 521.5774225676566,521.3187187311339 L 522.1180716430563,518.6975330406849 L 523.4054522497961,516.3242266484508 L 525.0894479477845,514.2139162241045 L 526.9716033753921,512.2966293775964 L 529.0639226658876,510.5390958636919" fill="none" stroke="#000000" stroke-width="1.25"/>
	<path d="M 500.33889992305564,490.1877709320558 L 500.52687161647725,492.6114503131571 L 499.3934814599238,494.9576506340239 L 498.1816292240697,494.43464237380294 L 498.57916694792664,491.8952867059471 L 500.33889992305564,490.1877709320558" fill="none" stroke="#000000" stroke-width="1.25"/>
	<path d="M 479.990835922051,490.13681431686666 L 480.17880403755794,492.5604765342109 L 479.0454300987566,494.90666282354135 L 477.83355603469005,494.3837448238867 L 478.2310756021519,491.84441428222095 L 479.990835922051,490.13681431686666" fill="none" stroke="#000000" stroke-width="1.25"/>
	<path d="M 467.6642836372613,493.9451277415485 L 468.82403993867126,495.64934948825527 L 467.48230897632794,497.4763368520497 L 465.42406414255953,497.89603371608746 L 466.24957393661896,495.70325187991193 L 467.6642836372613,493.9451277415485" fill="none" stroke="#000000" stroke-width="1.25"/>
	<path d="M 445.65421303744637,507.35519360970056 L 445.331306474759,510.0629211428786 L 444.58167642675784,512.7055181319522 L 443.57577541568287,515.2475848927672 L 442.3512756608644,517.686795678426 L 440.871319218788,519.9666908473464 L 439.18376535194096,522.1149188180204 L 437.127438204141,523.9067841042624 L 434.5856397487848,524.8601065441642 L 432.4350008253489,523.2552600407748 L 432.29981645641584,520.6489634475712 L 433.4531104639457,518.1739455521076 L 435.0806054198622,515.9840538782246 L 436.9079332830687,513.988201088129 L 438.92485909965416,512.1496163218222 L 441.0932662042652,510.4229413926127 L 443.3318798578918,508.8300150207009 L 445.65421303744637,507.35519360970056" fill="none" stroke="#000000" stroke-width="1.25"/>
	<path d="M 441.1193229925279,473.1565957987857 L 443.06440100403336,475.06158031255677 L 443.6268386228771,477.83617157564373 L 443.48814598959876,480.66397629596685 L 442.7249970097693,483.4114709273134 L 441.5253644993062,485.99760277618645 L 440.06125803567,488.43674174897905 L 438.34162672866944,490.68660040961197 L 436.4096554912153,492.7530131561904 L 434.2327510832072,494.6285914825944 L 431.8531248283952,496.2084139461465 L 432.87230750032944,497.8515124801997 L 435.72726275500696,497.9198964009625 L 438.53266802609863,498.3956605599899 L 441.27804289711594,499.45441716294386 L 443.5782015841922,501.1413185725614 L 445.10563754085507,503.3919070373551 L 444.4433921392817,505.58497624075557 L 442.0177737260137,507.14614750327905 L 439.67371033674266,508.7851146110898 L 437.44743476901164,510.52446258610286 L 435.2999624436141,512.4087682038689 L 433.29352082976857,514.4619525192124 L 431.573858425061,516.6739777980972 L 430.1825152152056,519.1454141836184 L 429.7142551908508,521.937157563164 L 430.4069636079922,524.489117633261 L 432.5913685063057,526.3301574527655 L 435.4648365131748,526.851017861241 L 438.270780421876,526.4689901581037 L 440.9237198031233,525.3392567898209 L 443.3084427370109,523.762852290609 L 445.37233940852025,521.873281921692 L 447.1934551310554,519.6939731886513 L 448.74576426479194,517.3089574714771 L 450.00366485450064,514.758768971001 L 450.98000796658397,512.0830272258628 L 451.62673139269947,509.3132157987312 L 451.90626805899177,506.48205035333365 L 452.09263620559636,503.7820188560428 L 454.6156378519324,502.45375043859656 L 457.16781982780816,501.1786217556868 L 458.03707064669936,502.503999783005 L 458.3835410093852,505.32506340409896 L 459.50316403686946,507.91960041624685 L 461.4745190609129,509.9297709967248 L 464.0980731600639,511.04232240297557 L 466.9270900352352,511.3035339450491 L 469.64836898868083,510.48699336506525 L 471.91426243714415,508.71748673430943 L 473.8011034615757,506.62877462871774 L 475.4052621739167,504.2860214375834 L 476.83913564394345,501.8237664262353 L 478.4691751615122,500.26143934839047 L 481.2331661477268,500.9269018383874 L 482.6019687235896,502.7297871768296 L 482.03060704947626,505.52672213777123 L 481.55216133078954,508.33603175117327 L 481.3522061875535,511.1722403475192 L 481.7442710436897,513.9687927939666 L 483.47139340640933,516.1229839143534 L 486.28522273820255,516.588945779499 L 488.92253087872825,515.5633144324584 L 490.8869585303616,513.4987035920927 L 492.53310568782285,511.19026653017295 L 493.98416674202826,508.75942273326285 L 495.2677152862124,506.2228567970075 L 496.60141761040325,503.7027885982557 L 497.88349332994227,501.15592182600113 L 499.99324054296306,500.605682458046 L 502.75044794073796,501.3385641575578 L 502.70525460489705,503.96640861453585 L 502.156603351875,506.7697286386333 L 501.77819785254434,509.58916603897046 L 501.7705321532429,512.4291100344767 L 502.63649062399236,515.0954645786077 L 505.0008677774176,516.5613669116776 L 507.82609776935516,516.3652174214083 L 510.1468258798891,514.7809594771802 L 511.95473686137024,512.5944265646272 L 513.4666917543425,510.1920190999587 L 514.8888010862411,507.7359929223352 L 516.2073741831731,505.2099405988403 L 517.1909113690369,506.9345012991348 L 519.3314686640342,508.6264369841955 L 522.2183220450665,508.78579920508406 L 524.5560221798503,507.16375321051703 L 526.2534592886691,504.9376495205596 L 527.6426710123167,502.4420986628904 L 528.8952834338864,499.8958410288468 L 529.0767868121704,502.22215506871686 L 529.0745311047025,505.07096381322634 L 528.8814620620194,507.84515830972117 L 526.6447571610325,509.6764505885824 L 524.5171503774618,511.588484040511 L 522.5834701895312,513.6246133437822 L 520.9064627208694,515.9042590938923 L 519.6486346551992,518.46463558785 L 519.0712627754922,521.2387288250718 L 519.4443076039203,524.0139433348161 L 518.8422922636846,526.0866673303449 L 516.4493925484092,527.831842877365 L 514.4405225792309,529.326046826174 L 511.6008008261871,531.176542648905 L 509.4686859364178,532.5288790594451 L 507.0919258454366,533.8291350334647 L 504.47831288897834,535.2218462640269 L 501.8892513058239,536.5120650989948 L 499.49522035824697,537.597008087994 L 496.6672136220575,538.7343623811182 L 493.7676175763614,539.8147871585705 L 491.2030038017351,540.6695033929724 L 488.6264692321337,541.4208453595938 L 485.87027338982267,542.1350155059226 L 482.82264724844794,542.8424797855299 L 480.2764094723008,543.3782163375357 L 477.6726453073677,543.7979829469643 L 474.4095122196092,544.1666703269198 L 472.71528471024754,544.3765037947137 L 469.94339135349344,544.4665560566715 L 465.9125877311252,544.5158118980149 L 462.0737340310784,544.5235749356939 L 459.7247559538615,544.5011235644445 L 457.92937461815603,544.3223834972775 L 454.4705779343082,543.9339267548175 L 451.8473497010364,543.5728476120032 L 449.1141770034693,543.035951348499 L 446.61803921213186,542.505628081319 L 443.46827476160485,541.7254891263401 L 440.6312977219134,540.9320597246403 L 438.08409123109504,540.1867737359333 L 435.7325582852353,538.3832469304261 L 433.6627905169301,536.5533596276523 L 431.876737195792,534.1666085799511 L 430.210584281026,532.2754991999914 L 428.19428259847405,533.8271570590966 L 429.6711902977597,536.2365529354389 L 428.3584045357794,536.0642290774999 L 425.67133127879947,534.5255493665784 L 423.40509669440434,533.1622616551897 L 420.87564957305347,531.6199935006885 L 418.821296915702,529.8887677525377 L 418.0539801268481,527.1788423932658 L 417.7802863099229,524.3137082571302 L 418.0334815285175,521.9454910453937 L 420.60004818908146,522.6935219813104 L 423.8852296955225,522.8859836474753 L 426.37929582522077,522.3784482583135 L 425.6896033902024,520.0658645344938 L 424.9410736069556,518.4763695240088 L 425.2154985094003,515.6510234387428 L 425.4010836473997,512.8090401066243 L 425.5530371039641,509.9664110962188 L 425.76633805048766,507.1271533601603 L 426.040593801982,504.2890255365349 L 426.3870253028018,501.4607638704834 L 426.75988136240517,498.63508381586394 L 427.1556759280373,495.8168545984692 L 427.7374469051589,493.0266342452521 L 428.3576180885344,490.2467697800001 L 429.09396306903807,487.49492112134607 L 429.9745292206117,484.8051678693696 L 431.0718540032774,482.16762871153855 L 432.3634677282565,479.63514780847896 L 433.9838950012258,477.2976257733271 L 435.9070694747495,475.2616941398536 L 438.32057755842465,473.74872343216987 L 441.1193229925279,473.1565957987857" fill="none" stroke="#000000" stroke-width="1.25"/>
	<path d="M 410.4665991200461,464.71950376237305 L 412.06172957599847,467.34602429148714 L 414.0425113961533,469.3118230595144 L 416.30460594725804,470.8350556944324 L 418.7216319223242,471.823978626465 L 421.07878603701744,472.51660100871317 L 423.7677156844349,473.0009394594732 L 427.16822373182737,473.3744039312009 L 429.8060134927742,473.6500029570977 L 432.7295764486744,473.688345292707 L 433.6245196090168,474.43540657838366 L 431.71581199759294,476.5417513696913 L 430.1781376561759,478.9175051836195 L 428.8660179507415,481.4387070700386 L 427.7414950593229,484.0507820193732 L 426.87006879617377,486.76015285894044 L 426.09550971188753,489.4911008780209 L 425.4369117635626,492.2588233771801 L 424.8954797339609,495.05557411048505 L 424.43126911148624,497.85737013144455 L 424.0250112618373,500.67276535302295 L 424.0220080264712,498.6250095170219 L 424.1602646254399,495.7834170776091 L 424.43699325686055,492.95002904425803 L 424.7040812647976,490.11763488721226 L 425.04718350347224,487.2912712830812 L 425.42179624198235,484.469338873639 L 425.6148734140012,481.63967886166625 L 423.8008570601565,479.7834311529856 L 420.9566649330487,479.78871134183436 L 419.08257499789414,481.7529934866877 L 418.5805770701751,484.55474340581947 L 418.20803911021244,487.3775896644849 L 417.9520762539012,490.20980128538906 L 417.7688789910065,493.04573089685925 L 417.65339012696717,495.8874015743983 L 417.6068344270439,498.73203403471865 L 417.6214547520092,501.5770060252139 L 417.69555777171996,504.42144836516195 L 417.8274501560336,507.26449187383975 L 418.0154385748074,510.1052673705238 L 418.2841859090724,512.9375654358375 L 418.6612993369464,515.7623718173124 L 418.9257668788816,518.3929578839011 L 417.6416973159358,516.1989524108486 L 416.32065667114483,513.9650389336261 L 414.4862029290005,511.7257138209901 L 412.17298305004135,509.39071065149807 L 410.1419861275934,507.6592504402805 L 407.9374617543235,507.59008913489333 L 408.0823655919121,510.32305155903424 L 409.12730951759954,512.9156410460181 L 410.81588494623253,515.5210094706773 L 412.52941219116235,517.5704000382104 L 414.5682112382523,519.5493398467196 L 415.11739208443424,522.2044696450827 L 414.8602333263666,524.750471847934 L 414.2669591766252,526.7952434280928 L 409.560132883496,523.5074634669011 L 407.46908780625927,521.7578973334575 L 405.4170491574214,519.4257851212357 L 404.9020947760218,517.0898771408147 L 405.11811956382934,514.1182032408575 L 405.93831450047713,511.30106382189393 L 406.427728609467,508.5165996544927 L 406.7877268816527,505.7004341396161 L 406.827698562498,502.8687839734784 L 406.35569534807513,499.9780543065013 L 405.5276774785817,497.42393947219534 L 404.07177085559465,494.81899847124544 L 402.3486888322945,492.8021636528529 L 400.13132093482454,490.3786052865557 L 398.66524796410295,488.3916886593983 L 396.95146061267747,488.5784658036194 L 396.72834044571886,491.79226599011065 L 396.67670299589037,494.5789339080575 L 396.8189889013042,497.45021876565664 L 397.14736969884115,500.5679213395663 L 397.60998720284846,503.0407256372626 L 398.36430473337646,505.6717754508917 L 399.4066767059123,508.76210731421344 L 400.2875537945489,511.125230246754 L 401.29413009651097,513.9382345672286 L 401.9646581968401,516.3408281236393 L 400.1834440730311,514.229059783097 L 396.9413925638891,509.82240500940196 L 394.7584882772937,506.8851299838259 L 393.32600716612916,504.8910938451212 L 392.3845940485895,502.6181119702931 L 392.25832051119403,499.14883444721613 L 390.09819215677095,499.1781838691268 L 388.96300429647437,497.1274365059478 L 387.514060758978,494.06003738929513 L 386.4501856591897,491.6074736784018 L 385.5558028596069,488.99972793234684 L 386.1707779935244,486.2999090390497 L 387.11762361385036,483.7083961313832 L 388.3035032801661,480.8213583891689 L 389.8737087901485,478.49631713128076 L 392.3549907055756,477.4154632250595 L 394.8254315673375,476.68872565911437 L 397.862341785137,475.65292721927005 L 400.3608063958534,474.53791725853574 L 402.6661091350516,473.1629832892309 L 404.89624026153933,471.22294920642935 L 407.151649962672,468.93310178922906 L 408.75475216357455,467.04137806133144 L 410.4665991200461,464.71950376237305" fill="none" stroke="#000000" stroke-width="1.25"/>
	<path d="M 443.3912102430212,430.26115898171565 L 444.2279403861163,432.28990994111194 L 442.2303732011834,433.90834225875585 L 441.94750545725935,432.39113206714234 L 443.3912102430212,430.26115898171565" fill="none" stroke="#000000" stroke-width="1.25"/>
	<path d="M 466.1909599577103,426.9709068006358 L 465.87291439877214,429.71987760075245 L 465.50372505239756,432.4587406767695 L 465.10679362529476,435.19704942486453 L 464.73919554342046,437.9392467736529 L 464.4759872431244,440.69181401848476 L 464.3705650447326,443.4567139418085 L 464.3654981474015,446.2229627338529 L 464.84730542908227,448.93320612296367 L 464.49246830514784,449.9976747717421 L 461.63001278893984,448.6661195246241 L 459.2918308927153,447.8016038571043 L 457.5668798107882,447.0303386342653 L 458.3246893601353,444.3692334165407 L 459.0587225419974,441.7023756385503 L 459.85405430649,439.05162844759957 L 460.73063637010165,436.4236774440083 L 461.73151405660025,433.8448135664006 L 462.8942102544753,431.340284224175 L 464.2762640240192,428.9494722719319 L 466.1909599577103,426.9709068006358" fill="none" stroke="#000000" stroke-width="1.25"/>
	<path d="M 471.27027800667133,447.7709942121576 L 471.27027800667133,447.7709942121576" fill="none" stroke="#000000" stroke-width="1.25"/>
	<path d="M 506.97388049764487,458.7495162446604 L 509.75294119169996,458.85080445897626 L 512.6921032658805,459.1826409270043 L 516.1267077603846,459.81058093724147 L 518.6748494999053,460.69066739964074 L 520.740505545632,461.98625703269437 L 522.8032751441215,464.1078290732834 L 523.113650718223,466.4600791582517 L 521.5562250797461,468.7903904916549 L 519.3063364636407,470.20296785616557 L 516.3974949936999,470.94680127739736 L 513.4211544473651,471.17526561391196 L 510.41991075352735,471.0902988634837 L 507.93587077621083,470.74280157172234 L 504.9641893399842,470.1458538454124 L 502.2016116641352,469.31714415961164 L 499.43954824828165,468.2460553569374 L 497.45834376206994,467.4376523637946 L 494.23366328691384,465.9417657010952 L 491.8044053413439,464.7300074073162 L 488.93855453711456,463.267124837281 L 487.2567596714778,462.0846072251214 L 490.1454346450671,461.3268393956713 L 492.68111955248975,460.7796223247295 L 496.064617933335,460.03536797244107 L 499.2100160029472,459.449361005547 L 502.0378966326712,459.03009834329026 L 504.3558020901673,458.8082342741348 L 506.97388049764487,458.7495162446604" fill="none" stroke="#000000" stroke-width="1.25"/>
	<path d="M 514.6212878305046,430.23152491755104 L 515.4855089555374,432.2885989962769 L 513.4794642588314,433.91342244814894 L 513.194353849999,432.39817974428985 L 514.6212878305046,430.23152491755104" fill="none" stroke="#000000" stroke-width="1.25"/>
	<path d="M 421.30679680759056,406.5126531180651 L 424.1685375223026,406.5596747343638 L 423.93174592569284,409.1785383722064 L 423.5465081682538,412.01471415958787 L 423.2104796219129,414.85794192156936 L 422.88739602307146,417.7028268429187 L 422.6283114212763,420.5652282086633 L 422.3472548241118,423.40048313669035 L 419.9319938440774,423.9731988215811 L 417.20411740220777,424.57819082895725 L 418.52515531896944,426.36476603148833 L 421.3892039206523,426.3981676308527 L 421.96927418818046,428.634829574458 L 421.80757324252806,431.49164925103435 L 421.63564310781237,434.3483700202925 L 421.5087622382052,437.20883259732983 L 421.43148062204034,440.0708738130002 L 421.3936542391223,442.9331416489029 L 421.4111890328668,445.795757676375 L 419.6452202549057,446.9334150465824 L 416.8800865034362,447.4719675519724 L 414.45489168443623,448.80988088633825 L 412.4167827378817,450.66382585151683 L 410.89702910460784,452.9314071144792 L 409.8950666825701,455.61346296017405 L 409.23649662527635,458.52311650499865 L 406.7114431072502,459.579734179578 L 403.9732588322699,460.56305332335603 L 401.1965036487909,461.80563266903766 L 398.95796861945934,463.0682747639539 L 396.61263681132,464.9325308957918 L 394.418976533663,467.10153194905877 L 393.0220108363636,468.4134370994089 L 393.22046668657515,466.23569249048364 L 393.34801025513815,463.05244243833175 L 393.45044955931655,459.1454511288963 L 393.5796825458256,455.7759864046568 L 393.7411966807921,453.9148117712105 L 393.1753920762006,451.35151661435106 L 391.11559643069904,453.0153455023419 L 389.3549951578323,455.4559570777887 L 387.7113546510074,457.71981079136305 L 386.39250795958463,460.21002390177546 L 385.50637419064554,462.87805935483146 L 385.07459129656866,465.802281834913 L 384.7640601237131,468.6078716483672 L 385.0762696646894,471.510392284782 L 385.7231959702479,474.1608892360729 L 387.0284924444524,476.9197014544143 L 385.9877853472414,479.47255737333893 L 384.7895184570897,482.00669536743584 L 383.72492240681686,483.9377753504193 L 383.06467607253927,481.11499854835034 L 382.4378218338795,478.09823902244585 L 381.9733690394596,475.24986044336737 L 381.680152383354,472.5173151454408 L 381.3883746779438,469.93211625869145 L 381.1601268994044,466.9541527461117 L 381.02685218925177,464.2195187490844 L 380.92254953459155,461.1295366437436 L 380.8516535365527,457.13610015963906 L 381.24312971422864,455.5156591999781 L 383.8465903702634,454.1289413160981 L 385.70757330966387,452.53952584505083 L 387.95821244067366,450.29245438469036 L 389.84916158595126,448.157591488912 L 391.6146986416302,445.9172560748354 L 393.0362124532361,443.7941474505962 L 394.827479104179,440.9838335771196 L 396.1347916057649,438.6271011680323 L 397.2364570911586,436.4050396452179 L 398.6477732936769,433.5054177581694 L 400.00796473745186,430.3947102017127 L 399.3052205897503,428.69788624947256 L 396.3156895130872,429.04479111575097 L 393.6510892315226,430.0049531652015 L 391.171629291102,431.3262646712755 L 388.6373453890433,432.96073020586294 L 386.46855874619854,434.70160559452984 L 384.4914469610185,436.8602112188526 L 382.7596390035102,439.167121487173 L 382.9229390623216,437.39910483586965 L 383.7149642491472,434.7460905552018 L 384.9346844843611,432.27320075707615 L 387.02362003929784,430.09789753682225 L 389.1156943016424,428.5148909760868 L 391.92350639312593,426.6484849876269 L 393.9555493883311,425.3863260859996 L 396.73609893253496,423.8573275017452 L 399.40882356879877,423.21531732859614 L 402.0447100190041,422.58588468980645 L 404.68881952285847,422.1915989414427 L 407.2657064019431,423.3562767478015 L 409.8670746955347,422.62631775134525 L 409.05358656968264,420.25991404965566 L 408.58973715917745,419.59733333263307 L 411.0664897030971,418.01435740708575 L 413.05283999345005,416.46839227348045 L 415.19037369985307,414.4434306331377 L 417.0421145486972,412.0502519284848 L 416.90498999395334,409.56456854378513 L 414.16016789919234,410.2768523555288 L 411.3589129573493,410.94369616767483 L 409.0028242408124,411.24898942479274 L 410.42610517382724,408.6716551228206 L 412.7977193679413,407.4641912286469 L 415.5889964770177,406.891528823416 L 418.4348690016203,406.5974687574994 L 421.30679680759056,406.5126531180651" fill="none" stroke="#000000" stroke-width="1.25"/>
	<path d="M 416.1943082120059,415.2992652870653 L 416.1943082120059,415.2992652870653" fill="none" stroke="#000000" stroke-width="1.25"/>
	<path d="M 395.8095112840897,404.7576417098191 L 394.28153067653835,406.93050904108173 L 392.73968537864965,409.1437297309143 L 391.38192937446746,410.9161019285938 L 391.6920380694699,408.0004629755659 L 393.35000917302943,406.14955018848116 L 395.8095112840897,404.7576417098191" fill="none" stroke="#000000" stroke-width="1.25"/>
	<path d="M 441.8476878967172,348.9441241379678 L 439.21951852733594,349.730482111954 L 436.72081907220894,351.25907717193894 L 434.4083701335922,353.06193969047484 L 432.27427309289806,355.02574057435606 L 430.3209445576855,357.14126130952604 L 428.6544748555188,359.3000502197956 L 427.03332376493455,361.7363605708381 L 425.6436497116577,364.10765247283666 L 424.2771274971472,366.7432202990761 L 423.10862289404605,369.42284749473714 L 421.7300297400909,371.7490260309661 L 420.3294566092995,374.0319060520706 L 419.00088060550206,376.73936700397826 L 417.7000149168291,379.4521384163473 L 416.4624583800199,382.0681640573712 L 415.0791456445531,384.36710767862553 L 415.1512933065255,381.3261485797944 L 415.36479524359225,378.5638812279282 L 417.0128172064449,376.3284276438554 L 418.5670343537865,374.0268459870387 L 419.86961265999025,371.3940853280217 L 421.13034578175257,368.6089540855932 L 421.5754300956992,366.28827315498904 L 421.5926014483045,362.6501551853884 L 420.20491142121176,361.749457439736 L 418.23502367648837,363.92602963795514 L 416.42397402733513,366.1366108347475 L 414.9829462781267,368.6781174018669 L 414.01169662476565,371.4116773180426 L 413.44100471936855,374.25683908965027 L 413.0702800072407,377.10557211556346 L 412.8077384715349,379.7720966796117 L 412.53772469605923,382.9225465381964 L 412.0157800096039,385.6007135379657 L 411.0951823474294,388.2631868492484 L 409.61745927049384,390.6515212625619 L 407.47909360701726,392.4970144359375 L 405.57928009476274,394.23078008118824 L 403.3007847191169,396.4624929581288 L 400.9704465840263,398.8487961771812 L 399.269093974048,400.65501211262534 L 397.803115888225,401.9033562345011 L 395.69758528353333,400.541396248926 L 393.4997031223605,402.3463959998099 L 391.4651539755103,403.60058325225447 L 392.0314348765395,400.69506612356145 L 393.4104248268039,398.1861508378279 L 395.3236611978713,396.0485776981263 L 397.4596518801341,394.3523316304844 L 399.9576496522292,392.620312153679 L 402.11314646245023,390.9566685204364 L 404.2631928728487,388.83701605323944 L 405.9404854243307,386.5894946476024 L 407.0985978072865,384.04042524901206 L 407.7282265104689,380.9642233668742 L 408.5426105321845,378.57433315739377 L 406.1998516340642,377.5598002742354 L 403.3410858151657,377.9447899126289 L 400.5942117449657,378.6930003407864 L 398.123061833401,380.0010695849009 L 396.6342122725537,380.89483837955146 L 397.78697668418533,378.2791962834803 L 399.36080182610044,375.5409399806794 L 401.6557973268534,375.92899281367454 L 404.5229774508277,376.059563332616 L 404.73164916004856,373.2599893555148 L 403.22736631582666,371.0323299609071 L 401.79748122047255,369.38958890359146 L 401.75089629539224,366.2028724342831 L 401.3928343080843,363.56289628043476 L 399.87214096551577,361.6009383793508 L 398.5909323081998,364.0090113748405 L 397.86008967958173,366.75724882453613 L 397.70847818013294,369.69883021211643 L 397.5607177008982,372.45774344390645 L 396.44678613371866,375.0490459913612 L 395.31196193732455,377.5477108514568 L 393.9892692108284,380.4852242584509 L 392.8837622482288,380.9406899878257 L 391.6018197729426,378.39873541937925 L 389.81934488680236,375.59619790577455 L 387.6359898776258,374.86656595133286 L 386.5136995599162,377.4086910776982 L 385.76149399896786,380.09317264905684 L 385.37314316923243,383.0306086323495 L 385.16471511250717,385.7862170221935 L 385.2862771938224,388.9390155992903 L 385.7027975153949,391.5337107046894 L 386.46229009966225,394.3448114965843 L 387.3965236331404,396.81286344361916 L 388.7535096299675,399.55266999635097 L 389.43231067220523,402.2377779743001 L 389.2364767546139,405.1852621911398 L 388.9813020501434,407.9152522293307 L 388.6149610947066,411.0195589225271 L 387.6543672467424,408.56605586069844 L 388.48960578254366,405.961699263833 L 389.13874828567634,403.23171892009174 L 387.05649752098867,401.93286666356477 L 385.7560079841361,404.266485633214 L 385.04176963025253,403.1005373395789 L 383.49222446527585,401.1424743058958 L 381.8886270420899,403.0578555318859 L 382.91104374716735,405.6818569960244 L 383.10771583539923,407.44212544605773 L 381.91960836777287,409.912248931205 L 383.7803333469292,411.5065530673325 L 386.18360135238845,412.3758778081636 L 387.3785852582126,414.9962998645081 L 387.0127531835164,417.5506556735586 L 385.96921194068204,420.7590134311056 L 384.90937157026974,420.5057855028058 L 383.3143182430465,417.93700667332524 L 381.5908870491559,415.87965850412127 L 379.48304953816745,417.40609652073607 L 379.6362222214426,420.14706512951165 L 381.8970888634349,421.25432302309565 L 382.8668290267681,423.9572010277363 L 383.4418318081872,426.605132404691 L 382.4370611188367,429.4193229158075 L 381.495491308407,432.1949280363416 L 380.6915013101486,434.87104196797344 L 379.9342962091741,437.65039830577456 L 379.2304671231418,440.60857447639756 L 378.7243257661003,443.23502149287293 L 377.77974311419365,441.50503746318896 L 376.6306554920688,439.0412604817387 L 375.134826899834,436.34368640948253 L 373.6563133175912,434.20216464089106 L 371.866016420584,432.0732451940267 L 369.79315203546975,429.8370117692001 L 367.20739481021013,427.28340998871204 L 365.6993418152589,427.78570900711264 L 365.6618174456453,430.60193709253525 L 366.03400334078003,433.75881438948767 L 366.471348963067,436.5140607976478 L 367.0679504412796,439.2280615439393 L 367.8415458994211,442.1453206600829 L 368.7288290474294,444.7771475829316 L 369.92664055467895,447.27380927579185 L 371.53397987847575,449.6290695883583 L 373.33100428825816,451.9723755289542 L 375.40506642004453,454.15778644036004 L 377.255063572642,455.78185267961464 L 377.2658250837022,459.34007534671167 L 375.7412678617705,458.66922063423823 L 373.63911221609885,456.96601699955517 L 371.50498264228304,455.1294676511124 L 369.9797542523401,452.56904087689 L 368.4704329547049,450.13916178633343 L 366.4847242953202,448.0762832775591 L 364.11034929623463,446.4898000356752 L 361.6319660883728,445.37665392952323 L 358.527496287383,444.30766263845493 L 356.2584653586411,443.2217199198773 L 355.02309334282535,444.8889281367361 L 356.3237710456778,447.83452022115233 L 357.67475400490036,450.13257359760996 L 359.67224454427355,452.21226259539213 L 362.1357929985521,454.03205511204504 L 362.168318486623,454.9231985893499 L 359.22483643932117,455.5485779543569 L 358.01765206770045,457.73992257792213 L 360.49952210270726,458.9961881271845 L 362.9970268888741,460.13988271799 L 365.9825482099022,460.8284975418435 L 368.5089709321661,460.6237811874295 L 371.89321262667465,459.86926820234254 L 374.20669919033406,460.9228930652913 L 375.8078848258136,462.87548036465154 L 377.2783042169499,465.5109685033924 L 377.6987541403688,468.5505888419601 L 378.10135154656274,471.2667000949585 L 377.0290820653466,471.3311635519894 L 374.86449323636924,469.3907648504975 L 372.5696843814421,467.95043935431306 L 370.2925809185676,465.9593713233739 L 368.0738822141802,463.99878202120703 L 365.4414707165452,462.59204283699955 L 364.033434338764,464.2575312136744 L 365.52565912903185,466.47758429639583 L 367.4761291640184,468.47601440971965 L 370.03650221220533,469.96895992608705 L 373.0579652632059,471.6168779671043 L 372.7455356140845,471.92151509807184 L 369.97257740145125,471.4517671886376 L 369.60393880875904,474.18215796158967 L 371.72420701010157,475.4695080851667 L 374.7518777837,475.8765367488538 L 377.5223209750167,476.89940752608624 L 379.38340393720597,478.74525566645895 L 380.03673431644404,481.61948155176935 L 380.6291669252155,484.4962141580179 L 381.18060321083976,487.49589379439226 L 381.80838231275396,490.0991133457262 L 381.26274136262754,491.28160411066347 L 378.39919805478246,489.68463363779665 L 376.52126938037105,487.70091907145394 L 373.29428540106994,483.18283049118367 L 371.2529010584966,481.060754905425 L 368.9532076740925,479.12512350917154 L 366.49670837984524,477.37620430511805 L 364.499877000507,478.08531828870264 L 365.3859181963288,480.8233569619543 L 366.5099527373885,483.3266002828759 L 368.07933369715306,485.82672892776 L 369.84876475321175,487.8688783415432 L 372.2860364519079,489.60877265171825 L 374.85020500389834,491.02377490417956 L 377.32512184996364,492.3248673617005 L 380.01781961168666,493.81531148766834 L 382.1173645195281,495.3612039117308 L 384.2689619187016,497.4394619630452 L 385.7980740490082,499.357352028303 L 387.58333406741673,501.9590065888844 L 390.80732628298847,506.7197509909016 L 392.46127521899933,509.12993898033807 L 394.27314363086464,511.71618407688374 L 394.72374658816693,512.7909694708641 L 391.78817088437995,510.8383548693351 L 389.4804285203883,509.5208047519208 L 386.7830817958223,508.4950143277797 L 384.07857765682456,507.7708680469443 L 381.67743260796453,507.5237642484884 L 377.79799675308226,507.56670442964037 L 375.5032916073262,507.9584119188749 L 372.73819228257497,508.50717467763747 L 369.6341601823059,508.627362953551 L 366.92580898024266,508.1286218993436 L 366.24462277263825,510.11395257811137 L 368.27165517669783,512.4061870127719 L 370.40167838596386,513.9437466827983 L 373.3139793906044,515.4575046184555 L 375.735830616949,516.4521960455396 L 378.4863588142752,517.2507231637844 L 380.6797834311065,517.666431571767 L 382.83146715856907,517.7845022427125 L 387.21809731533546,517.769278197538 L 390.9589477538887,517.7755580594351 L 393.31800425543287,517.857910355465 L 395.3832049829315,518.2670098723172 L 392.39325083709065,519.1063277667441 L 389.82030961934964,520.0286683350149 L 387.33056259485926,521.1992933452075 L 384.143844504148,522.8865777214075 L 383.3535364221867,524.8170239678659 L 385.55488765033954,525.5699715686799 L 388.89903128310067,525.8070715896962 L 391.8345988438174,525.9081217444112 L 394.5247687360034,525.635875523933 L 397.1264356971647,524.6279366244146 L 399.554638555236,522.99949356552 L 402.0376229824358,521.5416222581712 L 404.0802111277352,523.1039481934787 L 406.41517229008764,525.1706180731098 L 408.74640755680616,527.1960845125714 L 409.09729033301295,528.2776846966082 L 407.17217938492297,529.9470620933673 L 408.22878991628886,532.3996945757885 L 410.85105450642993,531.7032584331487 L 413.7116072577889,531.2294788346828 L 415.81068353073096,532.5774038734005 L 418.4573996996054,534.3423410890505 L 417.5714562616563,535.0249312190864 L 414.2302798035365,535.0813095375474 L 411.8419196455872,535.0378515175753 L 408.13197591300775,535.227216137612 L 406.96674067933463,536.9323864716746 L 409.18997329294973,538.2820056474536 L 411.85689435193393,538.7533688863607 L 411.07441607635883,541.5632855455267 L 413.4254591058016,541.8406156303938 L 415.04948634659115,539.3306628176304 L 416.6696356625774,538.0158125139619 L 419.9983606323873,537.9656435770278 L 422.7363760288489,538.3699170768214 L 425.3728150111342,539.1094335240135 L 428.0939091326827,539.9798735958918 L 430.79229706915316,540.966829818417 L 430.9399699214568,612.5890602863033 L 431.4959006038827,615.293303381493 L 433.4234391863646,618.1656265053449 L 434.6484886158767,616.7759134382192 L 436.10040471339676,614.1324751826537 L 436.17152512949986,560.7029094784924 L 436.1976494267456,553.5367077483318 L 436.21297781473663,550.6628408999368 L 436.22984869227605,548.2560761625737 L 436.2482858068413,546.3121231111951 L 436.26831290590957,544.8266913207722 L 436.2899537369582,543.7954903662944 L 436.3132320474644,543.2142298227694 L 436.72449685647643,543.1606807708056 L 439.61072534419577,544.0526815354731 L 442.2356882444815,544.8111145999503 L 445.1052997050292,545.5916063257714 L 447.96536667931633,546.2364460373503 L 450.45895161355077,546.696123149997 L 453.4429947088716,547.1574567146366 L 456.32487042605277,547.4956401312025 L 459.15879304680215,547.7458926306472 L 462.02956405787654,547.8883943563903 L 465.0424496570403,547.9630528918079 L 467.955850582553,547.9386534822547 L 470.88377630875823,547.8195496531341 L 473.5618957462977,547.6038371858477 L 476.6011022922354,547.2645392084277 L 479.4279216094119,546.8601327927503 L 482.02202945908454,546.4350536719052 L 484.8823261054495,545.8269988921564 L 487.7012601014689,545.112383650677 L 490.41764774526115,544.3688678663393 L 493.187672761065,543.515258148227 L 494.72179399670773,543.1124421215859 L 494.74555268583686,543.5255285508945 L 494.7671059328747,544.3840495224441 L 494.7864797444985,545.6938639869122 L 494.80370012738496,547.4608308949945 L 494.8187930882114,549.6908091974055 L 494.8427007703918,555.5632357881657 L 494.8632567951371,567.9909349006788 L 494.86706087309585,613.0810912893028 L 495.7656840233586,615.6917971388633 L 497.3465420499141,618.1155774990983 L 498.91913989099015,616.2731112877839 L 500.1461730131778,613.6569900423204 L 500.16883203384043,559.3056304057279 L 500.18718335621776,551.8610881916143 L 500.1995337043152,548.9388574365978 L 500.2141814934426,546.5138691284267 L 500.2312624609187,544.5590349262475 L 500.2509123440613,543.047266489233 L 500.2732668801889,541.9514754765771 L 500.29846180661974,541.2445735474927 L 500.3266328606721,540.8994723612102 L 501.75034184348635,540.2099050158063 L 504.2571371205159,538.987089817128 L 507.2724290447043,537.4579152659903 L 509.5917748189582,536.2001867587037 L 511.95624860309664,534.7911861006216 L 514.1600268492172,533.3908706960171 L 516.7999406536987,531.5568696943648 L 518.8696400186627,530.0567811486376 L 521.1877107259636,528.1742833576786 L 523.3859783180441,526.9896090825835 L 526.2566499317971,527.1511963108874 L 529.031192261064,526.4908926236025 L 531.3417096191768,524.8246302132512 L 532.9526490206372,522.4753991943064 L 533.9271950248699,519.7931310723889 L 534.6158989258249,517.011535591329 L 535.0589471765844,514.185174455399 L 535.4064987252017,511.33898964293627 L 535.650521282279,508.4855544253926 L 535.8608245250355,505.64900757192527 L 538.1886062763529,503.97737620888864 L 540.55566001192,502.36551542741154 L 542.9175875442497,500.7419187993272 L 545.0230979769718,498.8818006823547 L 542.8905180400112,498.24572645172174 L 540.4941531472714,499.8165117351737 L 538.1445089937247,501.4348182832448 L 535.9107501645794,502.6636383831339 L 535.8158510002052,499.80194992973634 L 535.6377861728593,496.94412421367133 L 535.2828888684417,494.106306527771 L 533.8786890077946,491.8321619974209 L 530.9682173924261,491.58157445710305 L 528.7077808607403,493.1696548521758 L 527.944732704204,495.8834196402136 L 526.8448979437851,498.53235718774056 L 525.6640262532432,501.1243379249415 L 524.3080958854382,503.6330501445322 L 522.6099845085157,505.9723830393213 L 522.675324141673,503.4317820103467 L 523.1774993098072,500.61424921590634 L 523.7768108330756,497.81374580393896 L 524.2823305541734,495.01816849172434 L 522.3619362253933,493.1695316640346 L 519.5123144186683,493.1119794069896 L 517.5445121126882,494.9514408299252 L 516.8488239608175,497.7182732474151 L 515.9372382962356,500.4123079982177 L 514.6676503819851,502.9836911569357 L 513.321471702232,505.5200469319218 L 512.035317663937,508.0536934090203 L 510.5569243669376,510.5166687266439 L 508.93731430800807,512.8726067619436 L 506.7709102243913,514.38575780368 L 506.77571167462565,511.53681123462457 L 507.28776000839497,508.72225987435155 L 507.956716121916,505.9410516156573 L 508.7113730000621,503.18086324896865 L 509.2838885142008,500.4078489434298 L 507.61465658826967,498.16792477757036 L 504.91336643388604,497.29916297671076 L 502.03397451916675,496.9961416453132 L 501.7229649130386,495.4553786743677 L 502.84750226558657,492.850658715659 L 502.96185260940246,490.08595540039727 L 500.97504028234704,488.1814983915305 L 498.1328483072752,488.4588985824136 L 495.9194823305069,490.23573199548264 L 494.8337330244019,492.8560001160255 L 494.5973175230894,495.68314069953936 L 495.69089258708425,498.3033192467625 L 495.4067227748497,500.73351536147254 L 494.1394184316948,503.3058005149741 L 492.81280354625267,505.84971324611035 L 491.4791680200675,508.3675749445283 L 489.9929808803588,510.80480462508297 L 488.32545923499123,513.1463898716124 L 486.3408175113851,513.9321852807573 L 486.46059899628005,511.0834637665246 L 487.01778451239176,508.26867748209844 L 487.71886441869424,505.49654408715844 L 488.4785144208673,502.7325922084936 L 488.7977728395778,499.99968444821366 L 486.8997918978824,497.9278559073609 L 484.16012918071976,497.1875122661535 L 481.28137492566725,496.9104744421465 L 481.57511235677237,495.04849898628186 L 482.60256908519136,492.41844882996077 L 482.46671920117257,489.6603803762339 L 480.2126551088843,488.06128517952857 L 477.4082991200544,488.5962317250585 L 475.3310071442893,490.518866619937 L 474.4031106553202,493.20242090646826 L 474.3207300861708,496.02391181884536 L 475.58359696568675,498.59738424665693 L 474.4723176048855,501.14681468420366 L 473.0577834642514,503.61761036346763 L 471.4125871801865,505.9929002459171 L 469.4506494462664,508.0084586792613 L 466.8736110799034,509.26265812864705 L 464.6880351129873,508.00856224219757 L 464.3543573467266,505.1719784253049 L 464.5095759318999,502.3205240801828 L 465.4767271297034,500.0235011263703 L 468.28411769345905,499.4801169278037 L 470.4423285945758,497.670347476582 L 471.2588114985283,495.0181700321975 L 469.9970502222464,492.67769281996385 L 467.1850998347932,491.8670240205831 L 464.33777604977286,492.1115528447071 L 461.7557657273684,493.3849246388933 L 459.9214498635105,495.5130524013164 L 458.63096813658746,498.0325543420279 L 456.14028771369686,499.4485688309948 L 453.5641239785259,500.7265425699811 L 451.0679721772657,501.66470472468154 L 449.36382995429767,499.4088736853987 L 447.05530015863707,497.6990243684769 L 444.40016813236065,496.6571225114135 L 441.590241019301,496.0853499859799 L 438.74084229909954,495.7664092953385 L 438.36976639521464,495.001854368358 L 440.78927344522157,493.4126138764659 L 443.04242956984314,491.67530295369846 L 445.12767130311255,489.7335687975452 L 446.964155309076,487.5163361261159 L 448.4034781578999,485.09579765167433 L 449.4752630395421,482.4481263745091 L 450.050859250379,479.6574254494468 L 449.8520284796219,476.8272175555814 L 448.6768876431889,474.2319713015203 L 446.95960107920934,472.32947288861675 L 449.6903841918515,471.9273554318948 L 453.0271618539428,471.1698330238612 L 454.36771656604583,470.87883012798846 L 456.5315171237773,470.38895059196494 L 459.84068393580276,469.57814236014593 L 463.44138069297964,468.65522959266747 L 467.3034181849746,467.61897000953553 L 469.38007872567516,467.0606641671164 L 471.4418566595693,466.5056026016671 L 473.65523323985633,465.8882266844988 L 477.5864918610278,464.76947048949995 L 480.8993062154439,463.9194038887504 L 482.801956299697,464.2747078774448 L 484.61088852494976,465.2688892877956 L 487.0075597693618,466.4966477817956 L 490.04498185247576,468.0100830548026 L 493.16091788330624,469.5297613973392 L 495.7935833887055,470.7764579450599 L 498.373087377897,472.0231154572814 L 501.192799337387,473.2128146387018 L 503.9572233236111,474.06680013187054 L 506.5903460469827,474.686099461239 L 509.6113827877325,475.143862731743 L 512.6368375576736,475.35536039706585 L 515.5021969809138,475.31319467897487 L 518.0429476815607,475.00996779934604 L 520.6733820219044,474.1407055127193 L 523.0231029670099,472.566562685391 L 524.8014302002159,470.25398785376575 L 525.3840802159493,467.5678342839241 L 525.1389954236582,464.79081924587484 L 524.1602732121469,462.0399366593376 L 522.4159643621852,459.45815916697217 L 520.6807784130726,457.9391053864517 L 517.827662984207,456.4190592880994 L 515.6296494378576,455.6862838519614 L 512.4660699160743,454.9472938588177 L 509.4405740149047,454.5564802139002 L 506.78059833437027,454.47589834316847 L 503.6469221235756,454.5564001398682 L 501.9208444644654,454.75184218585844 L 498.5840276127977,455.20859941111064 L 495.36564401441376,455.77598823328304 L 489.3095908750741,457.125024416519 L 486.9512375771649,457.7402237318426 L 484.27028216297896,458.4693518211101 L 481.45082651088177,459.15223539478313 L 478.85845036673646,457.84649313170746 L 473.8495291256924,455.0149161413509 L 471.766547846217,453.7999810685082 L 469.01494257482517,452.3230534138839 L 470.88273804595946,452.1047176749801 L 473.4761198337162,451.056384888197 L 475.2521289761257,448.81363098049866 L 476.6787649413123,446.33192339224314 L 477.90783389323343,443.7435294376616 L 478.6483878076676,445.51984653835547 L 479.8191362625131,448.0007507071457 L 482.5641403437086,448.5368668431863 L 484.6393629042305,446.77870339240866 L 485.399394704509,444.0145452264988 L 486.16908553039804,441.255000483177 L 487.0037128505073,438.5129172244388 L 487.9393281739824,435.8058430680469 L 489.011983009969,433.1513256317408 L 490.26043094451893,430.5832279571024 L 491.8583135283154,428.2039520146481 L 493.06942405384467,428.0006743193142 L 492.6974958907821,430.83909577876955 L 492.29765817961237,433.676326654005 L 491.90915749533207,436.5159390580544 L 491.57124041293883,439.3615051039592 L 491.3719015889018,442.2185288356308 L 491.36165413036593,445.08373626312545 L 491.55546677255336,447.933328871515 L 492.6241603132392,450.5684120685443 L 495.0238590362795,451.9858272087045 L 497.88552216435113,452.11269170871606 L 500.47966360376273,451.03909545749076 L 502.25969222366786,448.79945403043433 L 503.6727206073208,446.3055354624174 L 504.9006957628441,443.71912449878084 L 506.1343294392688,443.78347420925894 L 507.96182670940823,445.96510504194873 L 510.47928168122104,447.30542754731306 L 513.2996890240913,447.75027829008377 L 516.0885434056756,447.1827792526281 L 518.4783044105042,445.6332379321678 L 520.4579904241411,443.5617448221405 L 522.127811223661,441.2369790950011 L 523.5933053516599,438.7747319393907 L 524.9203211033253,436.2338891583125 L 524.821174346044,433.7649345681369 L 522.5116341205317,434.83633307864613 L 521.2288665947017,437.39666097262227 L 519.8145103801423,439.88835738975195 L 518.1446782068872,442.209495281718 L 516.1263677409069,444.23766863794833 L 513.5201453895548,445.31527254934406 L 511.7491675691346,443.5299490256838 L 511.59917191261917,440.6754297802783 L 511.81310622592673,437.8178950478755 L 513.5669710605297,436.3848479569937 L 516.1968586428782,435.33776244597414 L 518.0190500174309,433.15800000055066 L 518.3284395439962,430.3804053201036 L 516.5097954970283,428.2966729113067 L 513.7241473764167,427.7402657113346 L 510.8980571201801,428.1336289410795 L 508.4226251240321,429.53488652041057 L 506.63156466393144,431.75978826341407 L 505.4681421720443,434.3691948899005 L 504.6244249376307,437.1068175459546 L 503.58334785193773,439.77461901123087 L 502.4489137159116,442.4062684533935 L 501.2919150666992,445.02433960690837 L 499.9240385703838,447.5436597324167 L 498.0532606202093,449.6333539099058 L 497.51470085865293,447.0175641253229 L 497.5963239857434,444.1560945802179 L 497.8490087634889,441.30534560218206 L 498.1804829962788,438.45963246495864 L 498.4958761458946,435.6117087371418 L 498.70031767411706,432.75432798734494 L 498.7380634711145,429.887451159228 L 498.3940081421611,427.0515805450051 L 496.67033620724834,424.85513047510364 L 493.91734274688883,424.2273176503119 L 491.3070223224831,425.28787767316595 L 489.26123692977694,427.29121202301263 L 487.70788510884194,429.6877541830109 L 486.42705703330256,432.2553306282122 L 485.37688245210865,433.2186842988919 L 483.93849845969106,430.9206053083251 L 481.14606353711605,430.607158885433 L 478.98291680877554,432.3222970569058 L 478.44156929961844,435.124877604575 L 477.4311811539785,437.80335437421365 L 476.3150931162025,440.44248351886904 L 475.203588111784,443.088547522794 L 473.9990475668248,445.6827279357578 L 472.558051471063,448.14977729326944 L 470.6687112300585,449.1761715383426 L 470.50373472606685,446.3186704519108 L 470.65750398719223,443.46325113986944 L 470.9574693592945,440.6150974836311 L 471.30236435904595,437.76799943984275 L 471.59092250311863,434.9157469651647 L 471.7426696124828,432.05525290800506 L 471.7366632831637,429.1901054155266 L 471.1584750159658,426.4045825359585 L 469.07868163146935,424.52421573884743 L 466.2656921706707,424.3560295733579 L 463.7557113309237,425.6904198900409 L 461.88065759989337,427.84927750440073 L 460.4155640529371,430.3042693966859 L 459.16981231814367,432.8890616367054 L 458.3140196270065,432.7925395275741 L 456.564500581259,430.7429358161504 L 453.74907174535235,430.73660385747496 L 451.864474534512,432.7245744312745 L 450.97666525601704,435.43105484617536 L 449.66643260792927,437.97835770424166 L 448.20263671294504,440.44240975409747 L 446.46977436010286,442.7139586268225 L 444.3445980365363,444.6292035054547 L 441.6139005474804,445.27120184584027 L 440.3780030496165,442.8666508246632 L 440.3128094031373,440.00913339990063 L 440.6731892581085,437.1670138757535 L 442.9400531107359,436.28772405593287 L 445.4273110484443,434.92302410353943 L 447.00456962201383,432.57442670643275 L 446.8568005419609,429.7846561566684 L 444.6817681148923,428.03985699504824 L 441.84360736653997,427.7424684379722 L 439.0641914276765,428.3586884922202 L 436.715092578461,429.97568173077036 L 435.0677665307063,432.3000172153105 L 434.06570303714193,434.9812602519159 L 433.6574919589657,437.8119039589875 L 433.8168881931588,440.6670959975793 L 434.66884078367076,443.3915534324833 L 436.36323853288417,445.6767965363607 L 438.79780735986606,447.1531153713747 L 441.59654880184803,447.74132071395104 L 444.41103998431896,447.34714235528145 L 446.875277390139,445.905209530533 L 448.9136265040854,443.9063018314757 L 450.6480077999047,441.6216967063234 L 451.5528642064584,441.48971285430656 L 451.62847390478345,444.3557534107454 L 451.9703314210305,447.1372064633235 L 448.91522059925103,447.79180678348393 L 446.36726156925556,448.8374464867696 L 444.13430317701346,450.35991685834347 L 442.1659698510213,452.384971807013 L 440.7961410567819,454.8493131999827 L 440.0953627573168,457.99602854130933 L 441.05101263677165,460.3069165779606 L 442.46357827291433,458.48375372481405 L 443.9995861709701,455.9686722230457 L 446.00651393444775,453.81622818495845 L 448.2422330456429,452.332362228041 L 450.9329491616237,451.36969907796475 L 453.84991203190697,450.88834546121467 L 456.6903356979833,450.93500465742034 L 459.0857247643566,451.43561808867895 L 461.4882261784219,452.2897532943751 L 464.4636561982017,453.6890806093383 L 467.29125432328004,455.1718003657825 L 469.79499871914874,456.5640321437753 L 472.21773678499807,457.9913941074254 L 475.06767821992514,459.74379103894125 L 476.1148172864568,460.8432782626418 L 472.9940748373789,461.7839688885235 L 467.60926596502094,463.33349495174565 L 465.39895560768014,463.9503443240639 L 458.9626840190486,465.81640311101364 L 456.55752407729705,466.45169254508636 L 453.80347182449987,467.14728077654496 L 450.9375249665977,467.8080794674895 L 447.85102347240024,468.42679726910575 L 444.87126110337914,468.94254827105783 L 442.3255316210058,469.2944465632175 L 439.6838739294678,469.5599165689625 L 436.67231597585396,469.8261790186383 L 434.0425411730934,469.9338206965989 L 431.5391989351807,469.8989417744651 L 428.2092353322405,469.7034714752688 L 424.83531237136896,469.40731870933087 L 422.20009205966164,469.0703923875262 L 419.58050284335275,468.4271906033957 L 416.79172489872576,467.4293222712164 L 414.45542354063576,466.1385069669084 L 412.4839654806527,464.0251333288973 L 411.4910006185426,461.47233065853567 L 411.99787147463815,458.66669586776186 L 412.4880596060254,456.2598007275742 L 413.96210671899127,453.8032364840616 L 416.0901818463774,451.80698026280794 L 418.6740608785417,450.52165473522723 L 421.402727041304,450.1407432392883 L 421.7327437223621,452.85545909801294 L 423.0806504762455,455.18027429035067 L 425.8977004756815,455.41156425325954 L 428.24597446578,453.96858228684687 L 428.3636106229414,451.12626919247475 L 428.26615476045373,448.2609789499225 L 428.15296592750724,445.39292298228486 L 428.0961411816767,442.52751068779185 L 428.1677775805379,439.67015146467395 L 428.28148555960144,436.8067918190745 L 428.37842500761013,433.94049098500363 L 428.50820830063685,431.07826970648074 L 428.69952818886435,428.22292285171955 L 429.79182748837655,426.2622725184482 L 432.6594780268386,426.18607903426425 L 434.36532810388957,424.580668589118 L 431.76991137423437,423.95213309254405 L 429.00829162149455,423.77225869655587 L 429.84167532242463,415.2211616745818 L 430.1712849194298,412.37526839805025 L 430.5765940816493,409.5379048728716 L 431.353119257563,407.0637715989745 L 434.20443959643524,407.2752736454912 L 437.060607281849,407.5225138852326 L 439.92068228289827,407.7430888881647 L 442.78344899632873,407.87381781081746 L 445.64933389257845,407.88976760574377 L 448.50182898699734,407.65847554184194 L 451.25541520659624,406.89652323308746 L 451.3305072924594,404.7999671907239 L 448.53704343183693,405.214171600849 L 445.6951277519877,405.54299665016646 L 442.83066890194874,405.5126128406158 L 439.9741720643956,405.3519733994421 L 437.11966549464165,405.1133348577474 L 431.407440143619,404.60524069536115 L 428.551827481608,404.36844395766394 L 425.6932552574983,404.17750440558797 L 422.83130578759483,404.0597776403604 L 419.9695439372843,404.1047867467952 L 417.10334118119806,404.26547908907656 L 414.25921806386214,404.6065439874788 L 412.13506012977587,404.6164524262613 L 413.16129608157144,401.95746496726804 L 411.86926832336974,400.2088932453845 L 409.52099202508526,401.86127012839603 L 407.06794460251297,403.64098448457224 L 404.89437700564406,405.36708462827244 L 402.61534621986937,407.3885864161643 L 400.8223436275685,409.34622180563684 L 399.0525972468542,411.7472848124448 L 397.5151303439716,414.2907233867968 L 396.56751484768216,416.48825295154046 L 395.5233738805907,419.6803135963467 L 393.7665493275504,421.6537742021524 L 391.42154776082697,423.11458358794204 L 388.87927362741516,424.8090368442879 L 388.1483379678764,424.2124191007346 L 389.12837224883316,421.51004701096485 L 390.3273112863615,418.87287911891457 L 391.6690274215461,416.5469526032135 L 393.26512494864886,413.87467276062114 L 394.72242451416946,411.62716805115843 L 396.41718226389855,409.1905508939855 L 397.9010557833905,407.1943123216188 L 399.94565971250773,404.6581663565378 L 401.63548933421856,402.6998546830507 L 403.6416432715071,400.5707506004141 L 405.88216108420437,398.2880563431215 L 408.0432615265112,396.21007316267986 L 410.16320895736516,394.3693355148124 L 412.3394503588475,393.29777379770377 L 414.74259756441535,394.5560346144455 L 417.2061713288004,396.65618697137467 L 417.6940494679307,399.1484246217303 L 420.063543279374,400.11123073485936 L 421.6467641544267,398.0627945993718 L 420.54928577608786,395.6375123551134 L 419.3905952726238,394.4664635556176 L 422.38833945113106,395.3749001640942 L 424.9048277755887,396.4098616511139 L 427.71902715392736,396.8068055223114 L 428.9080075478879,394.401572045874 L 427.18032992970296,392.893507924262 L 424.09435768049616,392.9978540348189 L 422.5794567204711,391.9551757535067 L 425.52478220751175,391.7113249024784 L 426.7478453211939,389.28772261939974 L 425.1819029216848,387.5193947381043 L 422.62074526124763,388.92524616093954 L 420.01381804567325,390.1421347225395 L 417.364730921943,391.03447057223644 L 414.86928577939193,390.65410513681474 L 417.02215541101293,389.1134322698357 L 419.84760342998885,387.2466551274106 L 421.8451021957332,386.00506777089873 L 424.38759903196257,384.56864048293164 L 427.0738626359666,383.17030637271404 L 429.63114285828135,381.9049393960164 L 432.39527416611304,381.6570716372211 L 435.22417665763146,382.0356081734605 L 437.92348846268794,382.66953178807427 L 440.7926437783889,383.5486736910273 L 443.6368004185046,384.51115193124787 L 446.03322157624456,385.49279204572514 L 448.7461366255953,386.6715179329835 L 451.5682993590378,387.5549764100601 L 454.20279579922413,387.83900807165156 L 457.35948994598124,387.7612992459287 L 460.1196407457875,387.461025391492 L 463.03480562467354,386.94275790037193 L 464.42963657509944,385.0760406432913 L 462.4007253917523,383.5280431294075 L 459.62873224326995,382.7414388574453 L 456.85134389997967,382.1121292296056 L 453.89392604537835,381.70986335914984 L 450.9499779820124,381.49923279349025 L 448.09702843579146,381.4655759844748 L 445.18625694558006,381.7418348056983 L 442.7171741316835,381.25373988948513 L 439.62114107576224,380.1109776750701 L 437.5022426018422,379.13270277752645 L 440.31761735078936,377.8757323265092 L 443.0743524802974,377.07728386627366 L 445.7059726016733,377.8024325180848 L 448.43166800302964,378.6330160583216 L 451.2795264260367,379.2307437198364 L 454.13571051198466,379.43165391665076 L 457.17488838737387,379.2806530639285 L 459.9268589466295,378.6477708408684 L 462.02466172187513,377.87102640372007 L 464.7017646289052,376.55303196326906 L 467.63829419864476,375.09422827438436 L 469.81034026519825,374.0213644367556 L 472.7301438448902,372.7689751232529 L 475.61115250856864,371.8202637994151 L 476.79444331360935,369.99188756589166 L 474.2507964370708,368.8865477311934 L 471.4110382033469,368.23543151656634 L 468.48905393285327,367.7817213949204 L 465.3583233404712,367.4165976548208 L 466.66517549538867,365.9453655267985 L 468.95236689923956,363.49449399742815 L 470.9421690044252,361.5880061272572 L 473.28264490658125,359.9178482551121 L 474.84109019204743,357.79689819463823 L 472.8810579783901,357.02730463745615 L 466.4766398927486,357.88259020888404 L 464.0812543135633,358.39914161315403 L 461.2719201784595,359.23114971383046 L 458.58036176733367,360.1675021021495 L 455.9509180979643,361.31477958305123 L 453.3861854315409,362.73943595313136 L 451.106886419484,364.3421672846436 L 448.96038905747923,366.07112183099343 L 446.6599672245041,368.06747861767036 L 444.4982200411849,370.0892842373957 L 442.52968606424747,371.845347526442 L 440.2135108897598,373.52177129687936 L 437.67241107683515,374.9399926239739 L 435.0266241710557,376.10168797981055 L 432.3534075179309,376.99361050790856 L 429.88696822267724,376.63512380779065 L 427.3290072323723,377.000720648659 L 425.03692031023354,379.11454774060354 L 422.8125502661675,380.80317054428247 L 420.0731984215533,381.82013640058875 L 420.7603265909518,379.43425000159226 L 421.9888391031035,376.67614282301975 L 423.49067268360113,374.22321623464006 L 425.9090415957053,373.1195041601068 L 428.88085577458236,372.87583270523396 L 431.49588630367487,372.0545247172317 L 434.1782255015158,370.9441112434539 L 436.8141075220692,369.65616990660635 L 439.29777349567956,368.2205227362392 L 441.41662798147803,366.4044974377613 L 439.82999212280134,365.017905005769 L 436.8352008722416,365.5694914906425 L 433.7847602550874,366.10852162848914 L 432.62595216755216,365.88697472940737 L 434.55133135527416,363.648120109167 L 436.434483826028,361.3297112193257 L 437.95642598370813,359.26418722442696 L 439.5104791750818,356.65634760711174 L 440.8893083114541,354.0987232051449 L 442.07963160855326,351.5233936247171 L 441.8476878967172,348.9441241379678" fill="none" stroke="#000000" stroke-width="1.25"/>
</svg>
