<?xml version="1.0" ?>
<svg xmlns="http://www.w3.org/2000/svg" xmlns:ev="http://www.w3.org/2001/xml-events" xmlns:xlink="http://www.w3.org/1999/xlink" baseProfile="full" height="600px" version="1.1" viewBox="-0.00049955 -0.00049955 1.0000991 0.9999991" width="600px">
	<defs/>
	<path d="M 0.9141,0.546 L 0.4997,0.999 L 0.4976,0.9971 L 0.0853,0.5464 L 0.0832,0.5441 L 0.0812,0.5418 L 0.0792,0.5395 L 0.0772,0.5371 L 0.0752,0.5348 L 0.0733,0.5324 L 0.0714,0.53 L 0.0695,0.5275 L 0.0676,0.5251 L 0.0657,0.5226 L 0.0639,0.5201 L 0.0621,0.5176 L 0.0603,0.5151 L 0.0585,0.5125 L 0.0568,0.5099 L 0.055,0.5073 L 0.0533,0.5047 L 0.0517,0.5021 L 0.05,0.4995 L 0.0484,0.4968 L 0.0468,0.4941 L 0.0452,0.4914 L 0.0437,0.4887 L 0.0421,0.486 L 0.0406,0.4832 L 0.0392,0.4804 L 0.0377,0.4777 L 0.0363,0.4749 L 0.0349,0.472 L 0.0335,0.4692 L 0.0322,0.4664 L 0.0308,0.4635 L 0.0295,0.4606 L 0.0283,0.4577 L 0.027,0.4548 L 0.0258,0.4519 L 0.0246,0.449 L 0.0235,0.4461 L 0.0223,0.4431 L 0.0212,0.4401 L 0.0201,0.4372 L 0.0191,0.4342 L 0.0181,0.4312 L 0.0171,0.4282 L 0.0161,0.4251 L 0.0151,0.4221 L 0.0142,0.4191 L 0.0133,0.416 L 0.0125,0.413 L 0.0117,0.4099 L 0.0108,0.4068 L 0.0101,0.4037 L 0.0093,0.4006 L 0.0086,0.3975 L 0.0079,0.3944 L 0.0073,0.3913 L 0.0066,0.3882 L 0.006,0.385 L 0.0054,0.3819 L 0.0049,0.3787 L 0.0044,0.3756 L 0.0039,0.3724 L 0.0034,0.3693 L 0.003,0.3661 L 0.0026,0.3629 L 0.0022,0.3597 L 0.0019,0.3566 L 0.0016,0.3534 L 0.0013,0.3502 L 0.001,0.347 L 0.0008,0.3438 L 0.0006,0.3406 L 0.0004,0.3374 L 0.0003,0.3342 L 0.0002,0.331 L 0.0001,0.3278 L 0.0,0.3246 L 0.0,0.3214 L 0.0,0.3182 L 0.0,0.315 L 0.0001,0.3118 L 0.0002,0.3086 L 0.0003,0.3054 L 0.0005,0.3022 L 0.0007,0.299 L 0.0009,0.2958 L 0.0011,0.2926 L 0.0014,0.2894 L 0.0017,0.2862 L 0.002,0.2831 L 0.0024,0.2799 L 0.0027,0.2767 L 0.0032,0.2735 L 0.0036,0.2704 L 0.0041,0.2672 L 0.0046,0.264 L 0.0051,0.2609 L 0.0057,0.2578 L 0.0063,0.2546 L 0.0069,0.2515 L 0.0075,0.2484 L 0.0082,0.2452 L 0.0089,0.2421 L 0.0096,0.239 L 0.0104,0.2359 L 0.0112,0.2328 L 0.012,0.2298 L 0.0128,0.2267 L 0.0137,0.2236 L 0.0146,0.2206 L 0.0155,0.2176 L 0.0165,0.2145 L 0.0175,0.2115 L 0.0185,0.2085 L 0.0195,0.2055 L 0.0206,0.2025 L 0.0217,0.1996 L 0.0228,0.1966 L 0.0239,0.1936 L 0.0251,0.1907 L 0.0263,0.1878 L 0.0275,0.1849 L 0.0288,0.182 L 0.0301,0.1791 L 0.0314,0.1762 L 0.0327,0.1734 L 0.0341,0.1705 L 0.0354,0.1677 L 0.0368,0.1649 L 0.0383,0.1621 L 0.0397,0.1593 L 0.0412,0.1566 L 0.0427,0.1538 L 0.0443,0.1511 L 0.0458,0.1484 L 0.0474,0.1457 L 0.049,0.143 L 0.0507,0.1404 L 0.0523,0.1377 L 0.054,0.1351 L 0.0557,0.1325 L 0.0574,0.1299 L 0.0592,0.1274 L 0.061,0.1248 L 0.0628,0.1223 L 0.0646,0.1198 L 0.0664,0.1173 L 0.0683,0.1148 L 0.0702,0.1124 L 0.0721,0.1099 L 0.0741,0.1075 L 0.076,0.1052 L 0.078,0.1028 L 0.08,0.1005 L 0.082,0.0981 L 0.0841,0.0958 L 0.0861,0.0936 L 0.0882,0.0913 L 0.0903,0.0891 L 0.0924,0.0869 L 0.0946,0.0847 L 0.0968,0.0825 L 0.0989,0.0804 L 0.1011,0.0783 L 0.1034,0.0762 L 0.1056,0.0742 L 0.1079,0.0721 L 0.1101,0.0701 L 0.1124,0.0681 L 0.1148,0.0662 L 0.1171,0.0642 L 0.1194,0.0623 L 0.1218,0.0604 L 0.1242,0.0586 L 0.1266,0.0567 L 0.129,0.0549 L 0.1315,0.0531 L 0.1339,0.0514 L 0.1364,0.0497 L 0.1389,0.048 L 0.1414,0.0463 L 0.1439,0.0447 L 0.1464,0.043 L 0.149,0.0414 L 0.1515,0.0399 L 0.1541,0.0384 L 0.1567,0.0368 L 0.1593,0.0354 L 0.1619,0.0339 L 0.1645,0.0325 L 0.1672,0.0311 L 0.1698,0.0297 L 0.1725,0.0284 L 0.1751,0.0271 L 0.1778,0.0258 L 0.1805,0.0246 L 0.1832,0.0234 L 0.186,0.0222 L 0.1887,0.021 L 0.1914,0.0199 L 0.1942,0.0188 L 0.197,0.0177 L 0.1997,0.0167 L 0.2025,0.0157 L 0.2053,0.0147 L 0.2081,0.0138 L 0.2109,0.0129 L 0.2137,0.012 L 0.2166,0.0111 L 0.2194,0.0103 L 0.2222,0.0095 L 0.2251,0.0088 L 0.2279,0.008 L 0.2308,0.0073 L 0.2337,0.0067 L 0.2365,0.006 L 0.2394,0.0054 L 0.2423,0.0049 L 0.2452,0.0043 L 0.2481,0.0038 L 0.251,0.0033 L 0.2539,0.0029 L 0.2568,0.0025 L 0.2597,0.0021 L 0.2626,0.0017 L 0.2655,0.0014 L 0.2684,0.0011 L 0.2714,0.0009 L 0.2743,0.0007 L 0.2772,0.0005 L 0.2801,0.0003 L 0.2831,0.0002 L 0.286,0.0001 L 0.2889,0.0 L 0.2918,0.0 L 0.2948,0.0 L 0.2977,0.0 L 0.3006,0.0001 L 0.3036,0.0002 L 0.3065,0.0003 L 0.3094,0.0005 L 0.3123,0.0007 L 0.3153,0.0009 L 0.3182,0.0012 L 0.3211,0.0015 L 0.324,0.0018 L 0.3269,0.0021 L 0.3298,0.0025 L 0.3327,0.0029 L 0.3357,0.0034 L 0.3385,0.0039 L 0.3414,0.0044 L 0.3443,0.0049 L 0.3472,0.0055 L 0.3501,0.0061 L 0.353,0.0067 L 0.3558,0.0074 L 0.3587,0.0081 L 0.3615,0.0088 L 0.3644,0.0096 L 0.3672,0.0104 L 0.3701,0.0112 L 0.3729,0.0121 L 0.3757,0.013 L 0.3785,0.0139 L 0.3813,0.0148 L 0.3841,0.0158 L 0.3869,0.0168 L 0.3896,0.0179 L 0.3924,0.0189 L 0.3952,0.02 L 0.3979,0.0211 L 0.4006,0.0223 L 0.4034,0.0235 L 0.4061,0.0247 L 0.4088,0.026 L 0.4115,0.0272 L 0.4141,0.0286 L 0.4168,0.0299 L 0.4194,0.0313 L 0.4221,0.0326 L 0.4247,0.0341 L 0.4273,0.0355 L 0.4299,0.037 L 0.4325,0.0385 L 0.4351,0.04 L 0.4376,0.0416 L 0.4402,0.0432 L 0.4427,0.0448 L 0.4452,0.0465 L 0.4477,0.0481 L 0.4502,0.0498 L 0.4527,0.0516 L 0.4551,0.0533 L 0.4575,0.0551 L 0.46,0.0569 L 0.4624,0.0588 L 0.4647,0.0606 L 0.4671,0.0625 L 0.4695,0.0644 L 0.4718,0.0664 L 0.4741,0.0683 L 0.4764,0.0703 L 0.4787,0.0723 L 0.4809,0.0744 L 0.4832,0.0764 L 0.4854,0.0785 L 0.4876,0.0806 L 0.4898,0.0828 L 0.492,0.0849 L 0.4941,0.0871 L 0.4962,0.0893 L 0.4983,0.0916 L 0.5004,0.0919 L 0.5025,0.0897 L 0.5046,0.0875 L 0.5068,0.0853 L 0.5089,0.0831 L 0.5111,0.081 L 0.5133,0.0789 L 0.5155,0.0768 L 0.5178,0.0747 L 0.52,0.0727 L 0.5223,0.0706 L 0.5246,0.0687 L 0.5269,0.0667 L 0.5292,0.0647 L 0.5316,0.0628 L 0.5339,0.0609 L 0.5363,0.0591 L 0.5387,0.0572 L 0.5411,0.0554 L 0.5436,0.0536 L 0.546,0.0519 L 0.5485,0.0501 L 0.551,0.0484 L 0.5535,0.0467 L 0.556,0.0451 L 0.5585,0.0435 L 0.561,0.0419 L 0.5636,0.0403 L 0.5662,0.0388 L 0.5687,0.0372 L 0.5713,0.0358 L 0.574,0.0343 L 0.5766,0.0329 L 0.5792,0.0315 L 0.5819,0.0301 L 0.5845,0.0288 L 0.5872,0.0275 L 0.5899,0.0262 L 0.5926,0.0249 L 0.5953,0.0237 L 0.598,0.0225 L 0.6007,0.0213 L 0.6035,0.0202 L 0.6062,0.0191 L 0.609,0.018 L 0.6118,0.017 L 0.6145,0.016 L 0.6173,0.015 L 0.6201,0.014 L 0.6229,0.0131 L 0.6257,0.0122 L 0.6286,0.0114 L 0.6314,0.0105 L 0.6342,0.0097 L 0.6371,0.009 L 0.6399,0.0082 L 0.6428,0.0075 L 0.6457,0.0068 L 0.6485,0.0062 L 0.6514,0.0056 L 0.6543,0.005 L 0.6572,0.0045 L 0.6601,0.0039 L 0.663,0.0035 L 0.6659,0.003 L 0.6688,0.0026 L 0.6717,0.0022 L 0.6746,0.0018 L 0.6775,0.0015 L 0.6804,0.0012 L 0.6833,0.001 L 0.6863,0.0007 L 0.6892,0.0005 L 0.6921,0.0004 L 0.695,0.0002 L 0.698,0.0001 L 0.7009,0.0 L 0.7038,0.0 L 0.7068,0.0 L 0.7097,0.0 L 0.7126,0.0001 L 0.7155,0.0002 L 0.7185,0.0003 L 0.7214,0.0004 L 0.7243,0.0006 L 0.7272,0.0008 L 0.7302,0.0011 L 0.7331,0.0014 L 0.736,0.0017 L 0.7389,0.002 L 0.7418,0.0024 L 0.7447,0.0028 L 0.7476,0.0033 L 0.7505,0.0037 L 0.7534,0.0042 L 0.7563,0.0048 L 0.7592,0.0053 L 0.7621,0.0059 L 0.765,0.0066 L 0.7678,0.0072 L 0.7707,0.0079 L 0.7735,0.0086 L 0.7764,0.0094 L 0.7792,0.0102 L 0.7821,0.011 L 0.7849,0.0118 L 0.7877,0.0127 L 0.7905,0.0136 L 0.7933,0.0146 L 0.7961,0.0155 L 0.7989,0.0165 L 0.8017,0.0176 L 0.8044,0.0186 L 0.8072,0.0197 L 0.8099,0.0208 L 0.8127,0.022 L 0.8154,0.0232 L 0.8181,0.0244 L 0.8208,0.0256 L 0.8235,0.0269 L 0.8262,0.0282 L 0.8288,0.0295 L 0.8315,0.0309 L 0.8341,0.0323 L 0.8368,0.0337 L 0.8394,0.0351 L 0.842,0.0366 L 0.8446,0.0381 L 0.8471,0.0396 L 0.8497,0.0412 L 0.8523,0.0428 L 0.8548,0.0444 L 0.8573,0.046 L 0.8598,0.0477 L 0.8623,0.0494 L 0.8648,0.0511 L 0.8672,0.0529 L 0.8697,0.0546 L 0.8721,0.0564 L 0.8745,0.0583 L 0.8769,0.0601 L 0.8792,0.062 L 0.8816,0.0639 L 0.8839,0.0658 L 0.8863,0.0678 L 0.8886,0.0698 L 0.8908,0.0718 L 0.8931,0.0738 L 0.8954,0.0759 L 0.8976,0.078 L 0.8998,0.0801 L 0.902,0.0822 L 0.9041,0.0843 L 0.9063,0.0865 L 0.9084,0.0887 L 0.9105,0.0909 L 0.9126,0.0932 L 0.9147,0.0955 L 0.9167,0.0978 L 0.9188,0.1001 L 0.9208,0.1024 L 0.9227,0.1048 L 0.9247,0.1071 L 0.9267,0.1095 L 0.9286,0.112 L 0.9305,0.1144 L 0.9323,0.1169 L 0.9342,0.1194 L 0.936,0.1219 L 0.9378,0.1244 L 0.9396,0.1269 L 0.9414,0.1295 L 0.9431,0.1321 L 0.9448,0.1347 L 0.9465,0.1373 L 0.9482,0.1399 L 0.9498,0.1426 L 0.9514,0.1453 L 0.953,0.1479 L 0.9546,0.1507 L 0.9561,0.1534 L 0.9576,0.1561 L 0.9591,0.1589 L 0.9606,0.1617 L 0.962,0.1644 L 0.9634,0.1673 L 0.9648,0.1701 L 0.9662,0.1729 L 0.9675,0.1758 L 0.9688,0.1786 L 0.9701,0.1815 L 0.9714,0.1844 L 0.9726,0.1873 L 0.9738,0.1902 L 0.975,0.1932 L 0.9761,0.1961 L 0.9772,0.1991 L 0.9783,0.202 L 0.9794,0.205 L 0.9805,0.208 L 0.9815,0.211 L 0.9825,0.214 L 0.9834,0.2171 L 0.9843,0.2201 L 0.9852,0.2231 L 0.9861,0.2262 L 0.987,0.2293 L 0.9878,0.2323 L 0.9886,0.2354 L 0.9893,0.2385 L 0.9901,0.2416 L 0.9908,0.2447 L 0.9915,0.2478 L 0.9921,0.251 L 0.9927,0.2541 L 0.9933,0.2572 L 0.9939,0.2604 L 0.9944,0.2635 L 0.9949,0.2667 L 0.9954,0.2698 L 0.9959,0.273 L 0.9963,0.2762 L 0.9967,0.2793 L 0.997,0.2825 L 0.9974,0.2857 L 0.9977,0.2889 L 0.9979,0.2921 L 0.9982,0.2953 L 0.9984,0.2985 L 0.9986,0.3017 L 0.9987,0.3049 L 0.9989,0.3081 L 0.999,0.3113 L 0.999,0.3145 L 0.9991,0.3177 L 0.9991,0.3209 L 0.9991,0.3241 L 0.999,0.3273 L 0.9989,0.3305 L 0.9988,0.3337 L 0.9987,0.3369 L 0.9985,0.3401 L 0.9983,0.3433 L 0.9981,0.3465 L 0.9979,0.3497 L 0.9976,0.3528 L 0.9973,0.356 L 0.9969,0.3592 L 0.9966,0.3624 L 0.9962,0.3656 L 0.9957,0.3687 L 0.9953,0.3719 L 0.9948,0.3751 L 0.9943,0.3782 L 0.9937,0.3814 L 0.9932,0.3845 L 0.9926,0.3876 L 0.9919,0.3908 L 0.9913,0.3939 L 0.9906,0.397 L 0.9899,0.4001 L 0.9891,0.4032 L 0.9884,0.4063 L 0.9876,0.4094 L 0.9867,0.4124 L 0.9859,0.4155 L 0.985,0.4186 L 0.9841,0.4216 L 0.9832,0.4246 L 0.9822,0.4277 L 0.9812,0.4307 L 0.9802,0.4337 L 0.9791,0.4367 L 0.978,0.4396 L 0.9769,0.4426 L 0.9758,0.4456 L 0.9747,0.4485 L 0.9735,0.4514 L 0.9723,0.4544 L 0.971,0.4573 L 0.9698,0.4602 L 0.9685,0.463 L 0.9672,0.4659 L 0.9658,0.4687 L 0.9644,0.4716 L 0.963,0.4744 L 0.9616,0.4772 L 0.9602,0.48 L 0.9587,0.4827 L 0.9572,0.4855 L 0.9557,0.4882 L 0.9541,0.491 L 0.9526,0.4937 L 0.951,0.4963 L 0.9494,0.499 L 0.9477,0.5017 L 0.946,0.5043 L 0.9443,0.5069 L 0.9426,0.5095 L 0.9409,0.5121 L 0.9391,0.5146 L 0.9373,0.5172 L 0.9355,0.5197 L 0.9337,0.5222 L 0.9318,0.5247 L 0.93,0.5271 L 0.9281,0.5296 L 0.9261,0.532 L 0.9242,0.5344 L 0.9222,0.5368 L 0.9202,0.5391 L 0.9182,0.5414 L 0.9162,0.5437 L 0.9141,0.546" fill="none" stroke="#000000" stroke-width="0.0009991"/>
</svg>
