<?xml version="1.0" ?>
<svg xmlns="http://www.w3.org/2000/svg" xmlns:ev="http://www.w3.org/2001/xml-events" xmlns:xlink="http://www.w3.org/1999/xlink" baseProfile="full" height="600px" version="1.1" viewBox="-0.625 -0.625 901.25 1251.25" width="433px">
	<defs/>
	<path d="M 0.0,0.0 L 900.0,0.0 L 900.0,1250.0 L 0.0,1250.0 L 0.0,0.0" fill="none" stroke="#000000" stroke-width="1.25"/>
	<path d="M 43.0,31.0 L 47.0,31.0 L 47.0,35.0 L 43.0,35.0 L 43.0,31.0" fill="none" stroke="#000000" stroke-width="1.25"/>
	<path d="M 863.0,31.0 L 867.0,31.0 L 867.0,35.0 L 863.0,35.0 L 863.0,31.0" fill="none" stroke="#000000" stroke-width="1.25"/>
	<path d="M 345.0,335.0 L 555.0,335.0 L 555.0,632.0 L 345.0,632.0 L 345.0,335.0" fill="none" stroke="#000000" stroke-width="1.25"/>
	<path d="M 497.74926539091473,486.32021119326834 L 449.808981937813,538.2813704230812 L 449.7358417199155,538.1809007743516 L 404.4138336487349,488.630236352956 L 404.1521181811396,488.3511109092618 L 403.9319280679308,488.0979489607716 L 403.71185923669435,487.84489016515874 L 403.4919336973791,487.58095364715086 L 403.2721427302055,487.32813234143816 L 403.0631587518584,487.06414618719987 L 402.85386210965186,486.799892135559 L 402.6451037568197,486.5250993048507 L 402.43620276643856,486.2611844231781 L 402.22705663777026,485.9860589944317 L 402.0289860960086,485.7109983447646 L 401.8308607332965,485.43589034440686 L 401.6332906178046,485.161260923382 L 401.4348993311398,484.87492341777636 L 401.2481737305936,484.5891604497781 L 401.05018200230165,484.3031677682546 L 400.8629554173605,484.0169717223449 L 400.6873506962917,483.73131432593095 L 400.50032715115367,483.44529421370663 L 400.32360847087347,483.14767024415846 L 400.14812134145296,482.85111585017773 L 399.97220181348143,482.5541860071989 L 399.8070657561116,482.25706763964456 L 399.63110725833786,481.9601039003646 L 399.4661796888475,481.6521672391327 L 399.31187919079406,481.34390476829634 L 399.1472705307569,481.0472470353357 L 398.99258705870153,480.73864872547847 L 398.83894610680426,480.4199631157948 L 398.6848797296833,480.1119048223719 L 398.54234187018994,479.804310663235 L 398.3874963008444,479.48456746439564 L 398.24465141502947,479.16570355091324 L 398.11341286548844,478.8473741263788 L 397.9699974180908,478.5280080976895 L 397.83808123444857,478.20908209034525 L 397.7064001350323,477.89036396318875 L 397.5854895943947,477.5714434298121 L 397.453182794958,477.24117222822 L 397.3314909764895,476.91055925564694 L 397.2112109905569,476.5921975575097 L 397.1003874506484,476.26146647086176 L 396.99105923739955,475.93206303933295 L 396.88060043370143,475.6016549164219 L 396.77058525364544,475.2606410522596 L 396.6604949340025,474.93056019279925 L 396.5622666058842,474.60124826007973 L 396.46257385868,474.25962983128903 L 396.3748020059354,473.9298334192537 L 396.28627554167326,473.58836223550014 L 396.18846597887426,473.2484277016478 L 396.1106220124949,472.90667159230327 L 396.02250967754935,472.56557049363727 L 395.94642730773427,472.2253941210286 L 395.86894105483844,471.8839574234665 L 395.8029088279149,471.54292838641624 L 395.7256513405295,471.2016964691764 L 395.66050939022347,470.85046947853976 L 395.5947757470186,470.50971014043836 L 395.53939912179976,470.1573707364832 L 395.4844957928897,469.8164583950095 L 395.42928120434385,469.46426472146055 L 395.3745378140917,469.1234972092725 L 395.32978367078323,468.7708144309008 L 395.2868236946512,468.419757248561 L 395.2421995617867,468.06719150560184 L 395.20982328380927,467.7267581177913 L 395.1763502821141,467.37432880078273 L 395.14292625942477,467.0219433258617 L 395.1095511868992,466.66960177660866 L 395.0879929671354,466.31800400015175 L 395.0664673580125,465.96643661130327 L 395.0431482746325,465.61323305502907 L 395.0323176242664,465.2613871295645 L 395.02150569723125,464.90955856050385 L 395.01071248182643,464.5577473778848 L 394.9999379663376,464.2059536118174 L 395.00043742920275,463.85441119378913 L 395.0009417209931,463.5028738975646 L 394.9995251701468,463.14957468596225 L 395.0118062514787,462.79732159617686 L 395.02211245819393,462.44591369260166 L 395.0324116693424,462.094512702647 L 395.0540483239725,461.74282398162575 L 395.07759971287436,461.3894962320865 L 395.0991925646707,461.0378447279947 L 395.12076394417744,460.6862122110555 L 395.1548399878476,460.33328869755593 L 395.1870025411689,459.9820075668067 L 395.2198474314345,459.6411409348873 L 395.2637190119514,459.2892515675186 L 395.29763846876483,458.9364598148429 L 395.35239989310696,458.5846649957971 L 395.39632994099895,458.2437250590112 L 395.45095758129077,457.8920463832121 L 395.50551496995917,457.5404290174962 L 395.5614117829569,457.1986534810599 L 395.62685199212984,456.85813792039346 L 395.6930430426705,456.50597244105717 L 395.7583074853832,456.16561056014746 L 395.82511217822946,455.82391233807425 L 395.90196701869866,455.4720384189185 L 395.97888939611465,455.13110598078526 L 396.0557038131041,454.7902676879745 L 396.14332053151406,454.44960204625227 L 396.2323164705023,454.10773361757975 L 396.32037079103765,453.77768591384404 L 396.407601120074,453.43735846823785 L 396.50746127246737,453.095606094412 L 396.6056237713441,452.7663393201474 L 396.7050181957505,452.4359938050495 L 396.81452532080897,452.09542639810076 L 396.92555399320673,451.7645230180209 L 397.0350803752756,451.43493907402967 L 397.14442908176534,451.1055123910144 L 397.2654896148875,450.7754595664788 L 397.38759029867157,450.45548901337054 L 397.50823853891336,450.12579911558845 L 397.62867912336117,449.7962934334511 L 397.76052729405797,449.47742809086327 L 397.89327464112193,449.157766481176 L 398.02464559788154,448.83932405734055 L 398.1677855084551,448.5202001924302 L 398.3106488626764,448.20132183401626 L 398.4543113609462,447.88173278539387 L 398.59655784761196,447.5744035554995 L 398.7506538870629,447.25531836714737 L 398.8943540876754,446.94669377354086 L 399.04804898235477,446.63896603160777 L 399.2131610107005,446.3308657842929 L 399.3671565222193,446.0228696508342 L 399.5318836246623,445.7261141175065 L 399.6967957286761,445.4181931092557 L 399.8730522420082,445.12096287765047 L 400.0382954219212,444.82374413374424 L 400.2136952678761,444.527284169671 L 400.3901951374529,444.2298339384952 L 400.5772860458906,443.9437517183871 L 400.7529094551547,443.6470916155395 L 400.9402542629429,443.3607798934567 L 401.12707588177665,443.07494113431613 L 401.3140172843845,442.78899417012553 L 401.5120305893314,442.51398208428793 L 401.7099845456921,442.22802388142344 L 401.9082584260708,441.95277483645486 L 402.1058824365725,441.67811688103905 L 402.3038945469149,441.40310596666836 L 402.51309502219686,441.12792315435235 L 402.7219077691062,440.86409411411296 L 402.9309279777485,440.5890757331951 L 403.1511096951016,440.3249094369995 L 403.3599668952211,440.07204021848327 L 403.5801018442836,439.80791642465266 L 403.8000024893565,439.55500759738624 L 404.0200302786154,439.29098204115786 L 404.2509741522088,439.0380336931443 L 404.47109405151883,438.79592320357506 L 404.7020487616748,438.54296490373497 L 404.93293069086974,438.3010739399857 L 405.163941801639,438.05906374025784 L 405.40604028198544,437.81697261724446 L 405.64796767737073,437.5750398865167 L 405.8789931628469,437.3440162723443 L 406.1209933563989,437.11301610474675 L 406.3740015493475,436.882008496387 L 406.61600292948617,436.66200721476304 L 406.86899169637286,436.4310176892279 L 407.1110069589598,436.2110034584891 L 407.36396095518097,435.99104643977694 L 407.627939974032,435.7820661122676 L 407.88102113020386,435.561990182441 L 408.1340685833107,435.35294567986546 L 408.3980646914985,435.143949265713 L 408.6620156948807,434.94599524030446 L 408.9259055318199,434.7370988519317 L 409.1900972726719,434.5389184000259 L 409.4649506427541,434.3410565347294 L 409.7291610184504,434.1538580503556 L 410.00385907397964,433.96714316048684 L 410.278984620281,433.78002456881944 L 410.55414727923636,433.59287057485517 L 410.8290191633116,433.4169918699806 L 411.10383299036505,433.2301685207318 L 411.38978255723873,433.05421661195976 L 411.6647866149841,432.88921297621346 L 411.95103030265756,432.7239812117727 L 412.2367799479624,432.54821978521386 L 412.5229036026733,432.3941020399636 L 412.809009952516,432.2290005738024 L 413.09477302544366,432.07522708965445 L 413.3918792568028,431.92112565581925 L 413.67790079089247,431.7671051516394 L 413.97505658834035,431.62395583128927 L 414.2607408398035,431.4812589295096 L 414.5578929890717,431.3381129670707 L 414.8551957948013,431.2058217554818 L 415.1520230860477,431.0739878994804 L 415.46019728624117,430.94181994132526 L 415.75687815583547,430.81012773358134 L 416.05437484427466,430.6886480465136 L 416.3620793461807,430.56793343261194 L 416.67007216695333,430.44694031089153 L 416.96701986837024,430.33699092390583 L 417.2752205693798,430.22679625295905 L 417.5827031051921,430.11729843222327 L 417.8908051348852,430.0181995662393 L 418.1991353574097,429.9188785363953 L 418.506661487541,429.82033981355426 L 418.82647211174447,429.72055007615836 L 419.1338518353514,429.63315476978505 L 419.44252586694154,429.5444967341474 L 419.76132467505005,429.46769290389614 L 420.069319659308,429.37969752024804 L 420.38850353884436,429.3025171728103 L 420.7064281821493,429.2375707168702 L 421.0148208868687,429.16018598422085 L 421.33435703855406,429.0936596962179 L 421.65249329827617,429.03950826391315 L 421.972382624379,428.9726339132609 L 422.29084850933936,428.9181594510263 L 422.60947836054623,428.86352434176996 L 422.92942804896745,428.8185881463725 L 423.24815713924534,428.77485521025034 L 423.56703875839,428.7309720401073 L 423.88607267946134,428.6869384738269 L 424.2053221466003,428.65369154375395 L 424.5247146026795,428.62030258145234 L 424.85356846451214,428.59943812708025 L 425.17229294998543,428.5777118034537 L 425.4926382385067,428.554376700351 L 425.81163302102794,428.53238138479145 L 426.14171706118,428.5212973157009 L 426.46054780332526,428.510465219548 L 426.77950786357644,428.4995045849155 L 427.0972644944331,428.5007435148861 L 427.42776155728905,428.5002482711546 L 427.74736826722165,428.4996428124946 L 428.06657855386425,428.51043248682583 L 428.39655664323874,428.5214539684075 L 428.71436201429333,428.5336487121608 L 429.03434570186846,428.5546643757171 L 429.352741600492,428.57726933925653 L 429.6832963538215,428.5987133765576 L 430.0016180188296,428.6323936896206 L 430.32181830267535,428.6641890302575 L 430.64037474974197,428.69763405584536 L 430.95904875626076,428.730961501698 L 431.2786753857184,428.7743311897771 L 431.5966035069838,428.81940958819706 L 431.9261777676857,428.8748386189528 L 432.2351985405452,428.9288104717299 L 432.5537096449481,428.98430332163775 L 432.8723382000412,429.0396782712186 L 433.1926906227744,429.10431336443423 L 433.51123734811256,429.1707708255477 L 433.82990256994526,429.2371090543877 L 434.137049230404,429.3149720401875 L 434.45706468498236,429.39094514909016 L 434.764439836525,429.46857767652267 L 435.0833407340965,429.5566783616947 L 435.3917390969474,429.6442750136366 L 435.7108809498043,429.732131334655 L 436.0198719770839,429.8301261035473 L 436.3269505133998,429.9300608661953 L 436.634147037791,430.0298767143375 L 436.9434909176544,430.12751196209325 L 437.2507988840037,430.23821506019544 L 437.5582281404399,430.34879546521535 L 437.8552311457715,430.46979272758267 L 438.1649842079962,430.57800914066934 L 438.472224112606,430.6997825393086 L 438.7695844286844,430.820415492163 L 439.06624825834274,430.95275777866544 L 439.3750702483806,431.08391988834245 L 439.6719812880486,431.21601019727217 L 439.967774174546,431.36024106480687 L 440.26493175904284,431.49208036875046 L 440.55207644099784,431.64491209634144 L 440.8482456125739,431.7887599890078 L 441.1334527416252,431.94356966411516 L 441.43206205003645,432.08492574676285 L 441.7178361406186,432.25015632295765 L 442.0034198405995,432.40458162304276 L 442.2894502356837,432.5695504381348 L 442.5756101173104,432.7343868055538 L 442.8618994826117,432.89909062274705 L 443.1369679059627,433.075020419232 L 443.421231745202,433.2527971051998 L 443.69655956952346,433.42846168975854 L 443.97176454656267,433.6152519087653 L 444.2473510311248,433.79065134578474 L 444.52282004615,433.977170873433 L 444.79785728327454,434.1751325956567 L 445.0602567628016,434.3637723995505 L 445.32451701661006,434.56150581107835 L 445.5999620506294,434.759049767248 L 445.8636715493772,434.9683475561476 L 446.1174959865923,435.16550241554705 L 446.38147529900715,435.3745235759541 L 446.6455927115095,435.5834031338676 L 446.89798488152604,435.8040264067304 L 447.1515830656834,436.01241294864656 L 447.4042464559873,436.2327581484435 L 447.65704691263386,436.4529628050588 L 447.8981327300673,436.6849004694101 L 448.15120681150086,436.9048245415375 L 448.3949058078398,437.1340817999335 L 448.636400265022,437.3656003665093 L 448.87878957184165,437.60720104414935 L 449.12055895359975,437.8384376018341 L 449.3506231907966,438.08139746590933 L 449.5831620565636,438.32181906003785 L 449.81400073338574,438.57498459850956 L 450.04411371124365,438.6088943044753 L 450.2750083675139,438.3670023914491 L 450.5059931934745,438.1250179910892 L 450.7480132516099,437.8829973575208 L 450.97899960743626,437.641011408973 L 451.2210269058535,437.409983255315 L 451.4629813469344,437.17903027950234 L 451.70495808855765,436.94805435018105 L 451.95793961407907,436.71707352317327 L 452.1999711232099,436.4970409517888 L 452.4530640963365,436.2659445682197 L 452.70595382216254,436.0570589902993 L 452.95890113753484,435.83711380226714 L 453.21198288962944,435.61702886409216 L 453.4760586869936,435.4079499472162 L 453.72891761028114,435.19909697389085 L 453.9931352676294,435.0008699097023 L 454.25697434370767,434.7920378949508 L 454.5211325442754,434.5938724752875 L 454.7962075130941,434.39579384589643 L 455.0600576811267,434.2089506602165 L 455.3351187796541,434.01088650289455 L 455.6098743054145,433.8241431325212 L 455.8851689165706,433.63683355006765 L 456.15996740026964,433.4610454472227 L 456.435217236295,433.28478230451503 L 456.70983730400764,433.10918271651457 L 456.9961933327598,432.932807084013 L 457.28205283257336,432.7679553448912 L 457.5569437083539,432.5920707177395 L 457.8432725292933,432.4377226450015 L 458.1396638189744,432.273367490666 L 458.425953750647,432.1190602656167 L 458.7118623295464,431.96515740316534 L 459.0090190619365,431.81099095366295 L 459.29535993154013,431.6676282562044 L 459.5922045404939,431.52479338762697 L 459.88933207389454,431.38165722119385 L 460.1859279256873,431.2390881600447 L 460.4833691376762,431.1066169643424 L 460.780192895427,430.97480502806263 L 461.07726527539717,430.84272738063925 L 461.38469750363925,430.7223353106836 L 461.6823636539649,430.60062138488206 L 461.990243251911,430.47975023872624 L 462.2980827886458,430.36992237391803 L 462.5954783760972,430.2594969847504 L 462.90269252062217,430.15034221232827 L 463.21113794130525,430.039862747624 L 463.51889672421675,429.94112267882025 L 463.82683993583714,429.8421840650182 L 464.1461846062761,429.7538119743226 L 464.454498564177,429.6544724175745 L 464.76165312856455,429.5673866615872 L 465.08158265537077,429.4893804396781 L 465.3890751327091,429.4019299583446 L 465.70808886919866,429.32491499592646 L 466.0272647352541,429.2477239863658 L 466.33560628669846,429.1813526412089 L 466.65394968540545,429.11606613783255 L 466.97244401697975,429.0506165550738 L 467.29149165103803,428.99556516838976 L 467.61157467553886,428.92838494549903 L 467.9303872766357,428.88458892222667 L 468.2485187035012,428.8305370026252 L 468.5675996692474,428.78644894580265 L 468.8868140855442,428.74221480445954 L 469.20616178325,428.6978344203925 L 469.5256307702982,428.6643206035125 L 469.8437866141752,428.63224541019963 L 470.16268784549754,428.6103539336016 L 470.49322280941266,428.57676692453066 L 470.81237285368917,428.55460191533797 L 471.1315514547486,428.54340528571345 L 471.44945570606296,428.52261037005337 L 471.7802447185813,428.51074213086537 L 472.0982432481905,428.5008453169676 L 472.4186860874898,428.4992551698333 L 472.74865619078304,428.49928763435355 L 473.0677450010087,428.4991891070031 L 473.38544303009377,428.51162690001087 L 473.70489479316984,428.522127911597 L 474.0351493768125,428.5328463829258 L 474.35319488989074,428.5449028014584 L 474.6725237744555,428.56653909724565 L 474.99196611057215,428.58804920513563 L 475.32229567772885,428.62068376134545 L 475.640903328495,428.65411893195625 L 475.95962474676,428.6874283058647 L 476.2784598783804,428.72061171880875 L 476.5975342015613,428.7645294529356 L 476.91672281618054,428.80831997947416 L 477.2356581516132,428.8633921128213 L 477.5550766915514,428.9069263248085 L 477.8742417432857,428.9617424154892 L 478.19266348765336,429.0283868070462 L 478.51206153175383,429.08294312043967 L 478.83071697344707,429.149327540883 L 479.15007340226003,429.2259298175868 L 479.45785900028426,429.29216924212557 L 479.7774498863861,429.3685090704005 L 480.08434003114206,429.4467495714792 L 480.4043615346755,429.53360743883985 L 480.7117987909308,429.6222369352107 L 481.03008328392303,429.71103800602566 L 481.3396796672482,429.7972506418105 L 481.64739577342635,429.8965684073492 L 481.95523088745216,429.99575304446444 L 482.2627256518653,430.10631945652483 L 482.5708009274223,430.2052351520096 L 482.8785389805073,430.31552918938667 L 483.18762439102926,430.43531095118385 L 483.4833318487167,430.5467621746385 L 483.7926646205652,430.6662652736368 L 484.08990521472924,430.78699466924155 L 484.3961923746458,430.9209197450937 L 484.69468578377564,431.0512407762846 L 484.9912407712741,431.183741093919 L 485.2879197704921,431.3161021875274 L 485.5853958890582,431.45856637308987 L 485.8830004288832,431.6008856845971 L 486.1688969811255,431.74400189053046 L 486.46498452169095,431.89902938290476 L 486.7515871852705,432.0523504324887 L 487.04793811444836,432.20708170202715 L 487.3347966465177,432.3601140328047 L 487.6198025759251,432.5262345500675 L 487.90493988641333,432.692207376059 L 488.18085144425925,432.85617953625115 L 488.46608825073434,433.03304046587107 L 488.753661298503,433.20726591775247 L 489.0277736368365,433.38426744138224 L 489.30201537395243,433.56112323889965 L 489.5782065377299,433.7467789056297 L 489.85233899966363,433.9347582146364 L 490.12879924894384,434.12010967882713 L 490.39148288302374,434.31959592800433 L 490.66601828743165,434.5071206548596 L 490.9311552694151,434.7038367097471 L 491.19560162788207,434.91233258384034 L 491.4588200231618,435.1112153600091 L 491.7126920493217,435.31923038241246 L 491.9753112091709,435.52979014935306 L 492.22944890267877,435.73750499398113 L 492.4934753101069,435.9574751525724 L 492.74685036144155,436.17705146083875 L 492.98760767936403,436.3984553080704 L 493.24125189694206,436.6177275553523 L 493.4937184286323,436.84933020774395 L 493.735803855726,437.0802337010493 L 493.97802379434125,437.31098526016626 L 494.2203782445031,437.5415849020551 L 494.4503836559121,437.773708289757 L 494.69375118672355,438.0141637653508 L 494.9247316471918,438.25618590951393 L 495.1558445493549,438.49805849555094 L 495.3853481542538,438.75274815644804 L 495.61725666322786,439.00472241578746 L 495.83705339748064,439.2579519070655 L 496.066965342379,439.51217998424136 L 496.2870258282445,439.76511157526255 L 496.4977644092985,440.02714969026897 L 496.71808431027927,440.27978890117305 L 496.93658419057914,440.5454812431268 L 497.14558762508085,440.820477279165 L 497.3546360151284,441.08442263780415 L 497.5522068394143,441.3599063671483 L 497.7616011796818,441.6344617341642 L 497.9594250327815,441.90966012629997 L 498.15737350169957,442.18471803936075 L 498.35544658804156,442.45963556627447 L 498.5535142591072,442.74555921464645 L 498.74028503930674,443.0318171136633 L 498.9271770881743,443.3179383926191 L 499.11419040812837,443.60392315987696 L 499.30132500158277,443.88977152329596 L 499.4770799873086,444.1870467994449 L 499.6529524253109,444.48418987120004 L 499.8293269298992,444.7697686669862 L 500.0071016101917,445.0757747099168 L 500.1703462191814,445.37474649975024 L 500.33584455200696,445.6711867999138 L 500.50084214493063,445.9791894417888 L 500.6659528520682,446.2870651849573 L 500.8191688757556,446.5849443549328 L 500.9730964927691,446.90402511955796 L 501.12797039360055,447.2110454777332 L 501.2829496128005,447.517948607733 L 501.4247759292454,447.8382631903538 L 501.5676221353106,448.14643521934426 L 501.7117851485103,448.46413394367016 L 501.85390696034295,448.784116358714 L 501.9862121540151,449.1027751837148 L 502.11860843731347,449.4213325429153 L 502.24994445692136,449.7520743511519 L 502.37089138262445,450.07113356617083 L 502.49276835506765,450.40015510896984 L 502.61388112415443,450.7190297586909 L 502.7338392559458,451.0501914970255 L 502.8559693889708,451.37893239675697 L 502.96478989469983,451.7102462839485 L 503.07572017587773,452.0392108558948 L 503.1742364043685,452.3807493942803 L 503.2723975367583,452.71168209354636 L 503.3726076430168,453.0403371949958 L 503.4713237889993,453.3816527862686 L 503.57010708890436,453.72289349502904 L 503.6580722836838,454.05293216979004 L 503.74637627334454,454.3935952109054 L 503.82263652910575,454.73541505971616 L 503.91105188795257,455.07595489827725 L 503.98741056937797,455.4176646491004 L 504.065748848495,455.75718413442985 L 504.1304223980619,456.11065077077734 L 504.19721662507607,456.4507730736464 L 504.2621678260742,456.7929310131347 L 504.328883177971,457.1441412401047 L 504.3846869758338,457.4842549585095 L 504.4382880251986,457.8377968047974 L 504.49414657115767,458.17785097413366 L 504.5496815297699,458.5292624318188 L 504.59264081019853,458.8824073324333 L 504.6362134030862,459.22387674742384 L 504.6707524566214,459.5755245281948 L 504.7136078376835,459.9274427133975 L 504.74597933799254,460.2783091757505 L 504.7698978199216,460.63162266648015 L 504.8023421817332,460.98324221722095 L 504.8239301427416,461.3349605266601 L 504.84550839702587,461.68667267840806 L 504.8580573385708,462.0397294332279 L 504.8796119549216,462.3914253065984 L 504.88974573257514,462.7428351136741 L 504.890351380665,463.09524735681526 L 504.9004349321348,463.4466240726092 L 504.9009772128341,463.7989927854416 L 504.901485751958,464.1513380319614 L 504.88952753104934,464.502687757262 L 504.88001269739163,464.855694770837 L 504.8679623223416,465.20698275364987 L 504.8558654188282,465.5582402641715 L 504.8358332714823,465.91157194626754 L 504.81319954059563,466.26314317092215 L 504.79050894736633,466.61467656959877 L 504.7677614691488,466.9661722041475 L 504.73507649207664,467.3073852572697 L 504.70393921752236,467.6606415158641 L 504.6588363896596,468.01189805982915 L 504.62495801487694,468.3633066766825 L 504.58236397316205,468.7162532366437 L 504.5269239543497,469.0569571618115 L 504.48417694671787,469.4097994027673 L 504.42695585375304,469.7603068848164 L 504.3739080110184,470.10261795556136 L 504.3071237101753,470.454091335019 L 504.25126885042846,470.7945179631046 L 504.18616152390626,471.1361166006306 L 504.10938688842435,471.48826754098474 L 504.0440946376291,471.8297413488405 L 503.9664735572848,472.1703252999801 L 503.88875392806824,472.51084371853534 L 503.8010747264749,472.85205831511297 L 503.72315457922474,473.19244327938145 L 503.63526679102307,473.5335185009316 L 503.5369675561809,473.8639866890869 L 503.44886678755466,474.2049194352305 L 503.35047001603743,474.54632199081686 L 503.2518436531475,474.876571095182 L 503.1531088303544,475.2067476925757 L 503.04095597845924,475.54631252064536 L 502.9316635843717,475.8767842320292 L 502.8222556570714,476.2071786641691 L 502.7020816690301,476.53772860827087 L 502.5793900526436,476.85560237899705 L 502.45897314370245,477.1859905248569 L 502.33843359434513,477.5162968437886 L 502.2181947962497,477.8358029987433 L 502.08417826616244,478.1534620535456 L 501.95229133494183,478.48353736481494 L 501.8097748262336,478.80285877778033 L 501.6782440965208,479.1221705963264 L 501.53358474107614,479.42906832706956 L 501.3906824036068,479.74813339426015 L 501.2373563925699,480.05658107406765 L 501.08275341228165,480.3751808429499 L 500.92916214914743,480.68345229241993 L 500.77543987650085,480.9916367071102 L 500.621586593306,481.2997341279928 L 500.4575173257281,481.59735170758853 L 500.2918181890042,481.90488784543146 L 500.12748354358706,482.2023292308014 L 499.94961277270926,482.50908832209973 L 499.78500947710086,482.8063515279719 L 499.6103996319059,483.09327352054123 L 499.4338064765078,483.38988014999967 L 499.24800968375274,483.687678054412 L 499.0611357646322,483.9737616622325 L 498.8741245919485,484.2597542520691 L 498.6869761656996,484.5456558261648 L 498.4996904858835,484.83146638658997 L 498.2996034732557,485.10508240523643 L 498.1028054608503,485.3918795103173 L 497.9053130442739,485.66721613904485 L 497.7076837763881,485.94246203558396 L 497.497592791085,486.2167384410456 L 497.2994561780837,486.48064780647917 L 497.09200959249506,486.75667830033694 L 496.8717860740315,487.02053009882576 L 496.66103826340026,487.28337039590673 L 496.4434307134654,487.54895804480276 L 496.2230609679946,487.80171278563796 L 496.00255478768696,488.0543768740617 L 495.7819121722778,488.30695026578616 L 495.5513446178766,488.5602374436057" fill="none" stroke="#000000" stroke-width="1.25"/>
</svg>
