<?xml version="1.0" ?>
<svg xmlns="http://www.w3.org/2000/svg" xmlns:ev="http://www.w3.org/2001/xml-events" xmlns:xlink="http://www.w3.org/1999/xlink" baseProfile="full" height="600px" version="1.1" viewBox="-0.625 -0.625 901.25 1251.25" width="433px">
	<defs/>
	<path d="M 0.0,0.0 L 900.0,0.0 L 900.0,1250.0 L 0.0,1250.0 L 0.0,0.0" fill="none" stroke="#000000" stroke-width="1.25"/>
	<path d="M 43.0,31.0 L 47.0,31.0 L 47.0,35.0 L 43.0,35.0 L 43.0,31.0" fill="none" stroke="#000000" stroke-width="1.25"/>
	<path d="M 863.0,31.0 L 867.0,31.0 L 867.0,35.0 L 863.0,35.0 L 863.0,31.0" fill="none" stroke="#000000" stroke-width="1.25"/>
	<path d="M 345.0,335.0 L 555.0,335.0 L 555.0,632.0 L 345.0,632.0 L 345.0,335.0" fill="none" stroke="#000000" stroke-width="1.25"/>
	<path d="M 495.8313196157688,492.2798308280695 L 450.17384858192315,581.9345162652606 L 449.73659771241626,581.4290905994071 L 404.4641327835422,492.709246617927 L 404.1517658952035,492.18751249245673 L 403.9319751845054,491.73458929302836 L 403.7127803159264,491.28217149357954 L 403.49157262929634,490.80834762207326 L 403.2720126152309,490.35562101995345 L 403.0621884727895,489.8821196134337 L 402.85465530984123,489.41056885349127 L 402.64492086563007,488.91744275558943 L 402.4367758247827,488.445373549739 L 402.22631736654654,487.9516258574292 L 402.0290093743803,487.4597183532537 L 401.83033150677596,486.9666362677687 L 401.632173797885,486.4739997874417 L 401.4344078604113,485.96200030574795 L 401.24803187826535,485.4503378235776 L 401.04932617583745,484.9375281936579 L 400.86392674052996,484.42671216690707 L 400.6864862578151,483.9132651723568 L 400.50001552696176,483.4015238091532 L 400.3247586717267,482.87026971943817 L 400.1477699312028,482.3375100749858 L 399.97123971032624,481.8051475358544 L 399.806316633049,481.2733137049036 L 399.6306907196824,480.741739905212 L 399.46528157578365,480.18978117550864 L 399.31308746245986,479.6397641529279 L 399.147635839556,479.1074688790899 L 398.9938394014054,478.5560488113711 L 398.8381426934034,477.9832549637316 L 398.6851377734749,477.43253193595905 L 398.541037434244,476.8799596593608 L 398.3889953968366,476.31039144734507 L 398.24402669607565,475.7373474989498 L 398.11423522803955,475.1680070832751 L 397.9699969396555,474.5956076430312 L 397.83831110174845,474.024587430207 L 397.7069573396362,473.45386425974044 L 397.5861198569938,472.88271071012423 L 397.4524007114716,472.29017420037695 L 397.33247983702233,471.70014033015434 L 397.20997563256765,471.1274911066238 L 397.10196892977723,470.5382812044734 L 396.9914894708834,469.9468509574058 L 396.88128905131157,469.3556709520984 L 396.76981317560427,468.74363879159887 L 396.6601772720168,468.152966405221 L 396.5625036921846,467.5631665359169 L 396.46413367682794,466.9530386497557 L 396.3763186855573,466.3622082215974 L 396.288276922223,465.7514720483567 L 396.18777574155257,465.1394060484535 L 396.11043313263957,464.5283931072424 L 396.02306800326755,463.91827253133033 L 395.9461270060854,463.30762662886104 L 395.86938219089154,462.6971607188237 L 395.8034363625183,462.08651096640983 L 395.7270743652211,461.47639813868057 L 395.65912593198925,460.8442055532068 L 395.5936974867681,460.2340314220077 L 395.53749652356214,459.6025218655106 L 395.4833472366949,458.99260665368865 L 395.4274388822293,458.3613643531044 L 395.37357245349193,457.75171377931076 L 395.32971427718184,457.1214449467784 L 395.2859746087739,456.49128676216327 L 395.2423533211558,455.8612396000001 L 395.2089009702797,455.25011798160307 L 395.1744070742878,454.61832185488544 L 395.1432235742592,453.9896196126038 L 395.1089193559267,453.35799759831434 L 395.0871593811785,452.72782141367213 L 395.0654657882619,452.09770826979735 L 395.0438385007956,451.4676583683208 L 395.03180921810883,450.836287928948 L 395.02311864504634,450.2080663375755 L 395.01117525979254,449.57677605665054 L 394.9992760661662,448.94552506018414 L 395.00056095550957,448.3163421615587 L 394.9985305954266,447.6840154293519 L 394.9998474472071,447.0548653523192 L 395.01132724564417,446.4249219104627 L 395.0227997410142,445.79497277317864 L 395.03426491679744,445.1650179010828 L 395.0559168468452,444.53259490296216 L 395.0774559063452,443.9026039410404 L 395.09896444547917,443.2726413909609 L 395.12044246201,442.64270738047543 L 395.15494771667807,442.0109624477149 L 395.18604626780404,441.3822636116231 L 395.21930538674184,440.7713325255478 L 395.2629099982311,440.14128856011655 L 395.2971677727254,439.50975880010037 L 395.3527462134302,438.8788374892945 L 395.39465225788757,438.2700255930046 L 395.45001483646183,437.6392998886004 L 395.505262845752,437.0086768412128 L 395.56161368513915,436.3967534346989 L 395.62592886707057,435.7875821155951 L 395.69240135892153,435.1567540457826 L 395.7594562155651,434.5450941996026 L 395.8263677444952,433.9335620671776 L 395.90348125440545,433.30305629688866 L 395.97771531295876,432.69488537193206 L 396.05472567574697,432.0841777643858 L 396.14453220104,431.471821071508 L 396.2312551359694,430.86229469407573 L 396.3200901534318,430.2705266591405 L 396.4092795787769,429.6587291457446 L 396.5077743142688,429.0484941150593 L 396.6050011897967,428.4591342572251 L 396.70468853159286,427.86749848689533 L 396.8142314790648,427.2572234683253 L 396.9245191977164,426.66595699406986 L 397.0345381111975,426.0749401157855 L 397.14428848120355,425.4841738378251 L 397.2667848572073,424.8917758841678 L 397.3863815152446,424.32178893819156 L 397.5082675137796,423.72995875604744 L 397.6298444684899,423.1384161582496 L 397.76009418398485,422.56876235737263 L 397.89237879900963,421.9971954398547 L 398.0243237438445,421.42594842870415 L 398.1689875312189,420.8530754254888 L 398.31096830694446,420.2827397651012 L 398.45486463290007,419.71058888857823 L 398.59625999435485,419.16051343597076 L 398.7515533172271,418.58798264167143 L 398.8943637274317,418.03656266802705 L 399.04800126970287,417.4853085291786 L 399.21367748102796,416.93306105861706 L 399.36646859620487,416.38261943690634 L 399.53269594364485,415.84954111697004 L 399.69699653986686,415.29861308600067 L 399.8726288329349,414.7670675981612 L 400.0374524994596,414.23533849865674 L 400.2139531342585,413.7029551043452 L 400.38994225367185,413.1710657304298 L 400.5762391850625,412.65954831294744 L 400.753063551616,412.1268479805682 L 400.93994534097783,411.6147630239026 L 401.1262687736301,411.10322326823893 L 401.3137209686107,410.59058251785666 L 401.5123347589403,410.09748204447465 L 401.71040692450447,409.585210699192 L 401.9077749516026,409.09333089980987 L 402.10604281379653,408.6005676754365 L 402.30369237248703,408.10841306550793 L 402.51238252109164,407.61621956643523 L 402.7222302403979,407.1425820825267 L 402.9310131631078,406.65029678528447 L 403.15144436113695,406.17706878263056 L 403.3598459267539,405.72456301352366 L 403.5800685489417,405.2515415773008 L 403.8000820871785,404.79842796409844 L 404.02006781905897,404.32564208635665 L 404.2515324331187,403.8720769271245 L 404.4710033673413,403.4392064892253 L 404.7018983878947,402.9862119156073 L 404.93346074453365,402.5522464071445 L 405.1641493493228,402.11915940213646 L 405.4056581521602,401.6862549018358 L 405.64805954490504,401.2524496972468 L 405.8794140313916,400.8383906623609 L 406.1213299334736,400.4247752794548 L 406.37404480147853,400.0113643986982 L 406.616309918388,399.61709457265465 L 406.86907650045373,399.20363195604085 L 407.11133102955597,398.8093720113723 L 407.3638949591101,398.4158173382048 L 407.62791066790925,398.0415014285424 L 407.88132838943733,397.6470731106006 L 408.1339347272386,397.2731770153249 L 408.3978434723797,396.8989710275587 L 408.6620041320648,396.5442057135473 L 408.9258069760073,396.1701092177987 L 409.18993615504394,395.81537598803646 L 409.4650761749786,395.4606311204516 L 409.72891593139946,395.1258971755892 L 410.00408072639675,394.79082617007754 L 410.27899611392735,394.4560140565016 L 410.55407945240864,394.12102725667233 L 410.82897933592477,393.8059315865158 L 411.10408684516614,393.47091929950244 L 411.3899617568616,393.1558500610304 L 411.6649883982617,392.8603222086547 L 411.95100781262687,392.5648018608193 L 412.23697811183536,392.2496330704736 L 412.52299063875324,391.97381992668323 L 412.80899039413276,391.6783202065093 L 413.09503212066886,391.4024761892714 L 413.39197664993105,391.1267347774829 L 413.678040534128,390.85086720449533 L 413.97507884882145,390.5947265454541 L 414.26095896060883,390.3387536763321 L 414.5579176060216,390.0826976935963 L 414.8550910537634,389.84611324305837 L 415.15194807650175,389.60986547359107 L 415.4599136353744,389.37350230520235 L 415.75687619823987,389.1371424333408 L 416.0538968582276,388.92042050834937 L 416.3621537058782,388.7034455362131 L 416.6701441822612,388.4867555454819 L 416.966885171016,388.2900335053793 L 417.27497036974916,388.09294206245136 L 417.5830273966544,387.89588071923686 L 417.8909552280792,387.71865847717885 L 418.19934357537045,387.54093947422786 L 418.5067558801684,387.3642739842429 L 418.82577049613263,387.1869585046206 L 419.134109392162,387.0289917887497 L 419.4419979707955,386.87151246377493 L 419.76142815564657,386.7331455514397 L 420.0692177502138,386.57577366472276 L 420.38828116991317,386.4378044178787 L 420.707240299495,386.31964860928815 L 421.01494219718006,386.18207332350516 L 421.3343853245148,386.06338978814966 L 421.65289471779624,385.9654253413907 L 421.9717588054366,385.8473741094562 L 422.29067600280456,385.74896503150296 L 422.60979343328313,385.6503367142696 L 422.9294933433459,385.57076921580693 L 423.2481306198164,385.49236695532755 L 423.56693788582015,385.41377864000515 L 423.88591480177996,385.33500410763037 L 424.2043392320557,385.27653792669753 L 424.5242338100646,385.21645273509233 L 424.8541492658816,385.1771457704755 L 425.1732769916163,385.13760463570657 L 425.49253541189324,385.0979188567457 L 425.8105122876328,385.05964976588353 L 426.140731574655,385.0397075257776 L 426.45943674747105,385.0203343312426 L 426.77826123157416,385.00082940020405 L 427.09852929691624,384.9994232992376 L 427.42831469787393,384.99966110341904 L 427.7472208546941,384.9997651141511 L 428.0655140308785,385.0202508004796 L 428.39605139715707,385.0393533235822 L 428.7145645249376,385.0595953631072 L 429.0340413346727,385.0984644748652 L 429.35362494783374,385.1372138389049 L 429.68324218167726,385.1770403778189 L 430.0023106827666,385.2360637660039 L 430.3214876503088,385.29496592216543 L 430.64077303004814,385.35374669300876 L 430.9583158705866,385.41447555014014 L 431.2774457291412,385.4931306867864 L 431.59668759084497,385.5716602949422 L 431.9270162742993,385.66979237622695 L 432.23415950600264,385.7692523419606 L 432.55400211176044,385.866808251717 L 432.8739617875636,385.9642319477867 L 433.1909667875902,386.0846699138196 L 433.51020785099143,386.2025998286782 L 433.8295732007833,386.3203899394409 L 434.13898766833216,386.45670113325843 L 434.45643450940554,386.59634616724946 L 434.76396132082294,386.7347783542615 L 435.08285912236335,386.8924936713366 L 435.3920246336719,387.0487829824835 L 435.711202935359,387.2061823444013 L 436.0188442929228,387.3838859648082 L 436.32663122975026,387.56142588839185 L 436.6345637423268,387.7388019972911 L 436.94264182714596,387.91601417349045 L 437.2504472806289,388.1132334380252 L 437.5584095172546,388.3102761211219 L 437.85607213363,388.52622946362084 L 438.1643501690666,388.722916057111 L 438.47152137450485,388.94055034973786 L 438.76966931272915,389.15595613633525 L 439.0660455491894,389.3930594265286 L 439.3741815973456,389.62930601168665 L 439.6709094764366,389.86601288913465 L 439.9676341289844,390.12242342665496 L 440.26471635564394,390.35873072350097 L 440.55229412642564,390.63275132302925 L 440.8469714823205,390.8914707944379 L 441.1349313805087,391.16506047884656 L 441.4299854508824,391.42335501123466 L 441.71693295479474,391.71778645433193 L 442.0028379838748,391.9936935440022 L 442.2901906318925,392.28766847486276 L 442.5750261336919,392.5844814106651 L 442.8600675025787,392.88106200339803 L 443.1349094085699,393.19643999251946 L 443.4210401602601,393.5114924724278 L 443.6963089434087,393.8263894648032 L 443.97194677706045,394.16057085425865 L 444.24764521468126,394.4749842887876 L 444.52088254924735,394.8118690659452 L 444.7968452586833,395.1653851011083 L 445.05969904411927,395.5015749072314 L 445.3252191165822,395.8544644370806 L 445.5989503792859,396.21049140463793 L 445.8640861560401,396.5835140874024 L 446.11677929298503,396.93845900665127 L 446.38239062286357,397.31094858957243 L 446.6452784310481,397.6864982590912 L 446.89929219760194,398.07936030667315 L 447.15198920734485,398.45400087583613 L 447.4034885594946,398.84968468562505 L 447.65823681408057,399.24172419040764 L 447.89778982164677,399.6581672490654 L 448.1530344216784,400.04965219989157 L 448.39308334720374,400.46553736617466 L 448.63641993748405,400.8777410453706 L 448.8776381997642,401.31201570007926 L 449.1214812112408,401.72365505483185 L 449.3497661235497,402.1600896917337 L 449.5813770375563,402.5928067048121 L 449.813519660021,403.0446310771404 L 450.04411004263477,403.10418818670087 L 450.2753353466552,402.6705360590198 L 450.5063335828515,402.237137445493 L 450.74809524108787,401.8040042240985 L 450.9793772885749,401.3702871534806 L 451.2209081177608,400.9571144828099 L 451.4631115217586,400.54318539106464 L 451.70473236994536,400.12991322475074 L 451.95811620100113,399.71577971834984 L 452.2000082566902,399.3219017646211 L 452.45288972078134,398.908336204869 L 452.70607550058924,398.5338253681268 L 452.95895562147024,398.1399616287437 L 453.21215096534837,397.7457391305862 L 453.47611954451685,397.37147473409624 L 453.72904618388696,396.99725838176704 L 453.992970748581,396.6427446549834 L 454.25689228905634,396.2685346558928 L 454.5209494724729,395.9138691987965 L 454.7960827129259,395.5591161011858 L 455.05995078466304,395.2243678758726 L 455.33504217465736,394.86966258589564 L 455.6100009087115,394.5348101783565 L 455.88499415315806,394.19991799862686 L 456.16000704521696,393.88470308682383 L 456.43500652709236,393.5695036853443 L 456.71000736596886,393.2543027095921 L 456.99598479253075,392.93912896018054 L 457.2820777592574,392.6435207227067 L 457.55699880208306,392.32841268926495 L 457.8430530074524,392.0525493988934 L 458.13995930625657,391.7571589005799 L 458.42593361907143,391.4813890530177 L 458.71190520156944,391.2056224869941 L 459.00912640889516,390.92956291723414 L 459.29516010150644,390.6734231260709 L 459.59218982955116,390.41728789521534 L 459.88908323827434,390.161313254572 L 460.18583065739045,389.9055112451767 L 460.4829621778796,389.66895608371834 L 460.77989406061477,389.4326367463303 L 461.0771005579931,389.1959922775327 L 461.3852843629714,388.97907412240795 L 461.68217192599565,388.7625072534994 L 461.99021105960105,388.54576048256854 L 462.29796432588824,388.3490539144165 L 462.594697363179,388.15237213563495 L 462.9033031229752,387.95464978411314 L 463.21092937195397,387.7580958482695 L 463.5190389163693,387.5806649455686 L 463.82670256436836,387.4037676075878 L 464.14599998470425,387.2458115251994 L 464.45433779683583,387.0681061848825 L 464.7624101820493,386.91041881059067 L 465.08131018188215,386.77263855363447 L 465.389055347142,386.6153449224543 L 465.708416601422,386.4770095487493 L 466.0270003852556,386.3396111022383 L 466.3354975887508,386.2208107727196 L 466.6538155025169,386.10343457490785 L 466.9734128715476,385.9845120953618 L 467.2921817574355,385.8862915062363 L 467.6110675605235,385.7682297230514 L 467.9294962691929,385.6901227671832 L 468.2487554594427,385.59130859858567 L 468.56747173372344,385.5128537231927 L 468.88757842276476,385.4327079933685 L 469.20657802219114,385.3539078683235 L 469.524763384495,385.2958000182457 L 469.84440342215015,385.2359196619103 L 470.1635481001656,385.1963426959694 L 470.4936806367075,385.13708022375886 L 470.8116540800481,385.09893462874055 L 471.13126149855736,385.07849179058076 L 471.44946542681026,385.04006627650955 L 471.7793663582304,385.02048817046415 L 472.0993028181633,384.99964042955145 L 472.4175440806499,385.00057120403824 L 472.7484877727398,384.9994128291933 L 473.0669423130563,385.0000826664463 L 473.38672886269364,385.0188156468426 L 473.7049771829826,385.0394398740181 L 474.03548011272585,385.05852075908325 L 474.3539397489577,385.07888604141476 L 474.6722343804869,385.1191554849161 L 474.9923531731844,385.1571762927813 L 475.3223829187649,385.21623936322334 L 475.6411192759073,385.275664607744 L 475.9599640625926,385.334956258055 L 476.27891724427235,385.3941141493925 L 476.59872756124196,385.4719123296948 L 476.91677772614224,385.55188684279705 L 477.2364761914068,385.6495226249643 L 477.5547568482749,385.7292129501606 L 477.87469027619693,385.82655696676915 L 478.19332422775534,385.9452102082304 L 478.51155137814493,386.04466801925327 L 478.8304358330909,386.16301150092244 L 479.14905648688324,386.3013822484987 L 479.4577519892207,386.4187196924638 L 479.7766363297214,386.5567633474434 L 480.08544624851027,386.6936579614971 L 480.4032939667426,386.85268876437266 L 480.7113147348753,387.010263181099 L 481.03163022631287,387.16622899156675 L 481.339931294436,387.32345467008423 L 481.64640093719754,387.50265663267425 L 481.9552221853136,387.6789358181095 L 482.2636609345994,387.8753902730674 L 482.570582914594,388.0540307243425 L 482.87933547073607,388.25009482325095 L 483.18695921588954,388.46726279517765 L 483.48429462475593,388.66384557174086 L 483.7922512439547,388.8805995190092 L 484.08874347296404,389.0979312432768 L 484.3974332870435,389.33347301504773 L 484.6947231116373,389.56951242549655 L 484.9921883797984,389.80533354596105 L 485.2874498806756,390.04389657209066 L 485.58512583437437,390.29915557223666 L 485.8829893444314,390.5541813081639 L 486.16730996453026,390.8123705413821 L 486.46480382004484,391.08755617251876 L 486.75122204350197,391.3628359926336 L 487.0491117221849,391.63752960434175 L 487.3334368185633,391.9154124674302 L 487.61915903568126,392.2112577127867 L 487.905085200253,392.5068493261684 L 488.18019375618064,392.80221420271613 L 488.4672835301651,393.1160598950575 L 488.751953086477,393.432912760703 L 489.0284474099208,393.74625653121973 L 489.3025657492326,394.0625514193185 L 489.5771398683373,394.3979799287005 L 489.8519335883271,394.73313561559985 L 490.12694691149613,395.0680187132796 L 490.3912106475755,395.42229117283756 L 490.66666499434376,395.7566275918728 L 490.9313722206665,396.11035092820595 L 491.1956607721728,396.4842936415657 L 491.45812921271283,396.84079067035435 L 491.7123058697964,397.21363363002206 L 491.9772861010418,397.5867208452657 L 492.22920041615333,397.9623643885412 L 492.49356351205,398.3559156056793 L 492.74478751407946,398.75211058260356 L 492.98866406003793,399.1437921037495 L 493.24035214767713,399.53941208779196 L 493.4935506039639,399.95286680432974 L 493.736605961798,400.3652650276316 L 493.9770713594619,400.7808568986975 L 494.22059799689856,401.19267565885104 L 494.4513956408883,401.6066252155442 L 494.6934237850205,402.0399908768633 L 494.92264493513625,402.4755786539891 L 495.1549557481363,402.90736671806724 L 495.38508183333886,403.36153997990846 L 495.6183899182204,403.81180643271404 L 495.83611683541625,404.2676955542162 L 496.0669675324337,404.7209778506361 L 496.28804939575974,405.17275185058645 L 496.49669268032403,405.6459885067961 L 496.7182384145376,406.0971975982409 L 496.93714914335084,406.5713300730001 L 497.1461473516776,407.0638324084126 L 497.3557130107777,407.53594221722875 L 497.55256371532096,408.02984438213144 L 497.76225954307773,408.5214961386939 L 497.95955931995945,409.01484889252873 L 498.1570803242462,409.50793115142665 L 498.35482257919193,410.0007435433108 L 498.55506823101894,410.51021505194524 L 498.7400279334512,411.0248919068314 L 498.9281924973356,411.53567901989976 L 499.1135786875726,412.04983403145974 L 499.30217460401735,412.5601010855313 L 499.4774957805525,413.09282206368755 L 499.65302254374564,413.62529315992816 L 499.8300028453374,414.1363089731192 L 500.00748418099397,414.6861228657218 L 500.17154281563364,415.2191585383096 L 500.33579056785663,415.7519644539612 L 500.50159732518097,416.30259427927433 L 500.6645294209399,416.8566786579995 L 500.820490055869,417.38622440263134 L 500.97280196813296,417.95954840373605 L 501.1273703484971,418.51046637181577 L 501.28211843768315,419.0611707476807 L 501.42618894045086,419.63119173828954 L 501.5665958844044,420.1858884929971 L 501.71099730232385,420.75551564353054 L 501.85249731312905,421.3286023133789 L 501.98562059618985,421.8985638536582 L 502.11889412783876,422.46834972895397 L 502.249715664068,423.0607499892348 L 502.3719709017842,423.63056106806164 L 502.4916137820658,424.2231699069088 L 502.61413408124156,424.7926705928919 L 502.7340363922159,425.3849694238027 L 502.85406823335234,425.9771123608711 L 502.96606303299643,426.5657590093405 L 503.075150434582,427.1578352639162 L 503.17314760176043,427.76971508806355 L 503.2715555856085,428.3614094483756 L 503.3730374755547,428.9494949582984 L 503.47131258019937,429.56104607238956 L 503.5696798371894,430.17248722505775 L 503.6578467249675,430.76329164735347 L 503.7455683689486,431.3743164804467 L 503.8228557227839,431.98468070433785 L 503.9107158261828,432.59554345515943 L 503.9881175847992,433.20577563625625 L 504.0655729276928,433.8159467296175 L 504.1317739263072,434.4475707885463 L 504.19565226852984,435.0567297963976 L 504.2632675019126,435.6686019670101 L 504.3294552566157,436.2991374930089 L 504.38304698769184,436.9088196671298 L 504.438497287809,437.5395455465488 L 504.49588279223076,438.1519638795994 L 504.54744347128536,438.7798890837849 L 504.59175784050746,439.4105165019668 L 504.6384408937579,440.02314080468403 L 504.67121466064816,440.65337733168553 L 504.7154717460923,441.2839596520208 L 504.7481689220146,441.9141420174115 L 504.7689508947339,442.54367315674233 L 504.8015525013273,443.1737898643443 L 504.82220661922406,443.80323453380083 L 504.84690445970307,444.43554950688457 L 504.85517480971527,445.06401575783485 L 504.8797377259118,445.69622974709245 L 504.8920109072108,446.32752786673177 L 504.8916410162038,446.9576650926165 L 504.8995427941901,447.58588229426874 L 504.89895623711556,448.2158713850323 L 504.9025075404203,448.8487664875342 L 504.88877011566746,449.47724595331925 L 504.87920711001266,450.1086531772343 L 504.8695146809239,450.73996716197905 L 504.85537289268524,451.3681721481139 L 504.8365455507209,452.0007858514885 L 504.8131907242066,452.6302410063626 L 504.78968186800506,453.25959153510104 L 504.77040814762654,453.8918861721065 L 504.7341057618252,454.5002942697381 L 504.7009488505588,455.1305872541093 L 504.65821957440113,455.76186824312543 L 504.62471293150344,456.3919188378849 L 504.58161375095625,457.02294165526706 L 504.5258156902801,457.63309181891736 L 504.4823358246578,458.26385094942884 L 504.42900973272293,458.89540261255934 L 504.37261249317544,459.50514207506546 L 504.308995100298,460.1371770579529 L 504.2521881273826,460.74663718064556 L 504.1854979028497,461.3568645604938 L 504.1111092362027,461.98905048310604 L 504.04397711881415,462.5989756487649 L 503.9667116597849,463.20949382233135 L 503.8892149820847,463.81985480217725 L 503.8013446839695,464.4306429607581 L 503.72337869416884,465.04068574164484 L 503.6350213080071,465.65114337469083 L 503.5389217733362,466.24411270612336 L 503.4500714464719,466.85423480560456 L 503.3505815214016,467.46460222584915 L 503.2491658504407,468.05396708497096 L 503.15206782911804,468.6462541863414 L 503.04117948765014,469.25635412012605 L 502.9332146326927,469.8487280088912 L 502.82035741103164,470.4378008790545 L 502.70128610471,471.03010107892806 L 502.5808883491463,471.601806275433 L 502.46127132954337,472.19373578404935 L 502.33668408761,472.7823242072272 L 502.2154790025548,473.3534872605628 L 502.0834072328157,473.9247399295081 L 501.95185552114845,474.51604129241633 L 501.80839774636576,475.08703528022386 L 501.68010102937205,475.66081444813585 L 501.53578999075734,476.211536708206 L 501.3914733571615,476.78195648333076 L 501.23576624808345,477.3324167174245 L 501.08453649593156,477.90556643783106 L 500.9282430711617,478.4556367763748 L 500.7762597535846,479.0085815425752 L 500.62399001849707,479.56133375134675 L 500.4562523730552,480.0914108367636 L 500.2923806226483,480.6437616321585 L 500.1285829903854,481.1764607886256 L 499.95287235842943,481.72825241699115 L 499.7839668781903,482.25755849999155 L 499.60916678645924,482.77055551905767 L 499.43317830637625,483.3024634716538 L 499.2456405070023,483.8340072299998 L 499.05894471909903,484.3464092440517 L 498.8719567332177,484.8586175393697 L 498.68467653180676,485.3706323799189 L 498.4971040973777,485.8824540278082 L 498.2996660460585,486.3753262196955 L 498.1048013822424,486.8895994777604 L 497.90678237763063,487.38208645323806 L 497.7084763467426,487.87438382915883 L 497.498620833075,488.3663185316064 L 497.30174390345087,488.83985976820037 L 497.09130656125313,489.33141086529514 L 496.87156813120265,489.8043833746983 L 496.6628002236621,490.277336326788 L 496.4424843813704,490.74992794528066 L 496.220412093081,491.20166191481763 L 496.00231673585586,491.6560173263501 L 495.783947167498,492.1101914605844 L 495.5497319913504,492.56117337758457" fill="none" stroke="#000000" stroke-width="1.25"/>
</svg>
