<?xml version="1.0" encoding="UTF-8" standalone="no"?>
<!-- Created with Inkscape (http://www.inkscape.org/) -->

<svg
   id="svg2"
   version="1.1"
   inkscape:version="1.3 (0e150ed6c4, 2023-07-21)"
   width="401.28665"
   height="461.28555"
   sodipodi:docname="buffalo.svg"
   xml:space="preserve"
   xmlns:inkscape="http://www.inkscape.org/namespaces/inkscape"
   xmlns:sodipodi="http://sodipodi.sourceforge.net/DTD/sodipodi-0.dtd"
   xmlns="http://www.w3.org/2000/svg"
   xmlns:svg="http://www.w3.org/2000/svg"
   xmlns:rdf="http://www.w3.org/1999/02/22-rdf-syntax-ns#"
   xmlns:cc="http://creativecommons.org/ns#"
   xmlns:dc="http://purl.org/dc/elements/1.1/"><metadata
     id="metadata8"><rdf:RDF><cc:Work
         rdf:about=""><dc:format>image/svg+xml</dc:format><dc:type
           rdf:resource="http://purl.org/dc/dcmitype/StillImage" /></cc:Work></rdf:RDF></metadata><defs
     id="defs6" /><sodipodi:namedview
     pagecolor="#ffffff"
     bordercolor="#666666"
     borderopacity="1"
     objecttolerance="10"
     gridtolerance="10"
     guidetolerance="10"
     inkscape:pageopacity="0"
     inkscape:pageshadow="2"
     inkscape:window-width="3840"
     inkscape:window-height="2080"
     id="namedview4"
     showgrid="false"
     showborder="true"
     borderlayer="true"
     inkscape:showpageshadow="false"
     inkscape:zoom="3.294873"
     inkscape:cx="64.494139"
     inkscape:cy="201.37346"
     inkscape:window-x="-11"
     inkscape:window-y="-11"
     inkscape:window-maximized="1"
     inkscape:current-layer="svg2"
     inkscape:pagecheckerboard="0"
     inkscape:deskcolor="#d1d1d1" /><path
     style="fill:none;stroke:#342923"
     d="M 31.000004,138.78554 C 35.546694,119.13216 44.870364,100.4074 56.000774,83.785543 91.306534,31.060934 156.89544,-3.5149327 221,0.87502135 247.59869,2.6965543 273.18176,9.1309413 297,21.03243 c 8.30435,4.149536 15.81247,9.194824 24,13.753113 m -157,-12 h 13 m 15,0 h 23 m -5,8 v 1 m -31,0 h 26 m 144,14 c -3.61982,-8.060455 4.49212,-11.786041 12,-10.786255 10.09164,1.343872 14.39294,8.795075 17,17.786255 m -68,20 c -0.42084,-11.914795 6.90835,-18.491943 18,-19 -0.90143,-4.928833 -1.65067,-8.791962 2.27853,-12.721466 5.73248,-5.732941 10.2742,-2.370178 16.72147,-1.278534 m -157,1 h 4 M 75.000004,122.78554 c 7.65704,-9.96301 13.72567,-21.20947 20.19984,-31.999997 3.01324,-5.022186 5.671706,-11.736877 10.013116,-15.696777 7.02492,-6.407593 19.4424,-7.526856 27.78704,-13.277771 7.1049,-4.896515 17.61706,-14.367737 26,-15.386536 10.47607,-1.273193 31.09603,17.737946 34.89196,26.361084 2.0065,4.558136 2.42508,13.18866 6.53781,15.972229 7.82554,5.296479 20.0915,-2.320465 28.57023,2.921296 16.87832,10.434572 27.6206,34.038022 41.28936,47.997682 5.28308,5.39551 11.72663,3.62323 17.71064,7.67282 8.83731,5.98053 15.01141,16.43036 22,24.43597 6.44412,-6.31112 13.51388,-13.66348 21,-17 -0.80756,5.46802 -2.7483,10.75733 -4.97532,18 -3.57208,11.61713 -6.95813,23.31879 -10.31558,35.00001 -1.44211,5.01736 -2.26968,12.61944 -5.56326,16.68209 -2.14771,2.6492 -6.10736,2.45908 -9.14584,2.26389 -2.53864,-0.16309 -4.3581,-1.03549 -7,-1.03549 -2.43833,0 -3.94996,0.71014 -6,0.96603 -2.26874,0.28317 -4.73359,0.23728 -6.62113,1.72687 C 270.91412,236.64748 264.9772,255.80502 257,266.78555 M 292,45.785543 h 7 m -138,1 c 0,8.716705 0,25.880737 0,36 0,3.716309 1.10861,9.480561 -1.02778,12.682098 -4.3175,6.470159 -20.14773,-0.07724 -26.69754,2.921296 C 127.07225,101.22845 122.16722,120.41881 120,126.78554 m 209,-71.999997 9,6 m 9,-6 h 4 m -146,5 c 4.60684,-0.844696 7.0906,0.332459 10,4 m 0,-2 c 3.39093,-2.21167 5.1513,-2.709625 9,-2 m -74,0 h 4 m -16,6 h 16 m 140,16 c 0.47308,-8.64151 8.07867,-13.376587 15,-14 m -182,4 h 12 m 9,0 h 6 m 170,0 h 6 m 8,0 h 49 m -275,7 h 11 m 17,0 h 14 m 151,5 h 6 m 21,0 h 1 m 5,0 h 23 m 9,0 h 7 m -270,1 h 30 m 6,0 h 11 m 46,5 c 1.19714,8.882782 5.7395,21.646207 8.65893,30.999997 6.92301,22.181 12.26669,44.87571 19.34107,67.00001 M 104,90.785543 h 5 m 14,0 h 9 m 6,0 h 7 m 84,1 c 0,9.637907 0,24.413147 0,34.999997 0,4.0141 -1.18399,10.04969 0.60339,13.6821 2.95169,5.99857 14.81363,-0.43823 19.75928,3.9213 3.33926,2.94351 5.39907,9.41391 7.39041,13.3966 5.42691,10.85379 11.49417,21.58438 16.24692,33.00001 M 71.000004,94.785543 v 1 m 295.999996,1 c 5.07778,-2.167205 6.94229,-0.414307 10,2 2.89013,-2.284759 4.32806,-3.596619 9,-3 m -287.999996,2 H 105 m 8,0 h 13 m 80,1 h 9 M 93.000004,103.78554 H 111 m 5,0 h 7 m 84,1 h 16 m -128.999996,5 H 100 m 6,0 h 15 m 263,0 c 4.59176,13.48951 11.69702,31.82602 14.54013,47 4.39022,23.43119 1.30603,45.64042 -0.54013,69.00001 M 209,110.78554 h 3 m 8,0 h 4 m -136.999996,6 h 12 m 15.999996,0 h 4 m 92,1 h 9 m 4,0 h 1 m -141.999996,5 H 101 m 6,0 h 10 m 96,1 h 3 m 4,0 h 5 m -162.999996,2 c 0.65066,8.60074 7.61952,8 16,8 H 113 c 5.25145,0 12.12292,-1.04879 16.95986,0.89353 4.8812,1.96008 7.52852,7.83908 10.37346,12.10647 6.42522,9.63785 13.4525,24.00354 21.9923,31.6821 2.69272,2.42114 6.12601,2.44635 9.67285,2.29862 4.2691,-0.17783 5.98135,-0.80735 4.00153,-4.98072 m -117.999996,-47 3,3 m 5,-3 -3,3 m 151.999996,-2 h 10 m 107,24 c 10.40377,-12.77899 32.53625,-22.86374 49,-23 m -319.999996,2 c -4.85659,1.69019 -10.21149,1 -19,1 m 119.999996,0 h 1 m 54,3 h 8 m -5,6 h 4 m -208.999996,20 c 0.85107,-8.25555 6.531,-14.14859 15,-13.86651 3.73332,0.12436 6.49293,2.14828 10,2.73843 3.13919,0.52823 5.81219,-1.16751 8.99614,-0.0895 4.16931,1.41162 8.44627,6.50388 5.96064,10.88889 -1.41031,2.48797 -5.50233,4.54257 -7.95678,6.3287 M 222,148.78554 h 13 m 5,0 h 4 m -202.999996,4 -2,3 m 184.999996,0 h 5 m 13,0 h 7 m -169.999996,2 h 4 m 142.999996,4 h 9 m 4,0 h 13 m -138,2 1,5 3,-3 m -81.999996,-1 h 3 m 18,0 c 7.34635,0.75733 13.21176,6.15882 13,15 m 38.999996,-14 4,4 c -3.14304,1.67734 -4.57477,2 -13,2 m 128,-4 h 6 m 9,0 h 11 m -141,2 h 2 m 0,0 5.02468,1.8804 7.27625,2.4375 L 134,188.78555 M 94.000004,170.78554 v 1 m 215.999996,0 c -10.34882,10.34882 -21.69739,22.39658 -34,30.3017 -14.04395,9.02402 -35.07853,8.54984 -50,14.45911 -13.03717,5.16302 -24.91282,17.58505 -35,27.2392 m -11,-70.00001 -1,4 m 52,-3 h 26 m -185.999996,1 c 5.97456,0.94907 11.25015,5.72611 12,13.00001 M 183,175.78554 l -3,4 m 98,-4 h 1 m -173,1 h 16 m -122,2 h 47.000004 m 6,0 h 5 m 122.999996,0 c 5.13491,2.74033 15.60211,-1.57895 22.81558,3.6034 7.30005,5.24454 12.57681,18.10123 18.18442,25.39661 m 145,-28.00001 h 1 m -255,1 h 3 m 48,0 c 0,7.02897 3.15026,23.421 -1.02778,29.6821 -3.58599,5.3739 -13.57342,0.28611 -18.75927,3.34568 -5.92275,3.49432 -8.97602,15.40283 -11.21295,21.97223 m 99,-55.00001 h 8 m 13,0 h 9 m -28,6.00001 h 6 m 6,0 h 13 m -91,1 h 7 m 8,0 h 18 m -188.999996,1 h 22 m 10,0 h 6 m 19,0 h 4 m 155.999996,3 v 1 m 6,1 h 19 m -86,0 h 21 m 8,0 h 8 m 57,0 h 4 m 89,3 1.58718,6.25152 L 362,200.78555 m -10,-3 2,6 m 5,-5 -3,5 m -189,-4 h 10 m 26,0 h 7 m 25,0 h 8 m 5,0 h 23 m 77,1 6,4 m -280.999996,-2 1,5 3,-5 m -7,1 c 1.40893,4.85284 3.18598,6.99655 9,3 m -13,-1 c 2.65426,3.11468 3.56539,4.53298 8,2 m 163.999996,-2 h 13 m 104,0 c -0.0131,1.57931 0.12487,2.84408 -0.42438,7.00152 -0.8862,6.70789 -0.72687,19.30579 -0.72687,25.99848 0,12.09924 -0.9574,30.26324 3.15125,40 4.95861,-5.73459 10.55328,-13.82142 13.26156,-22 2.89014,-8.72776 1.63687,-18.55463 -1.66125,-27 -2.12406,-5.43897 -2.62262,-7.40037 -5.57486,-11.4267 L 362,216.78555 c 3.83923,1.01214 4.62893,1.54949 8,0 m -202,-10 h 11 m 9,0 h 26 m 163,1 c 1.72793,2.99655 3.34909,3.64147 7,3 m -4,-3 v 3 m -354.999996,-2 15,1 m 333.999996,0 3,2 m -40,-1 c -0.1893,1.66027 -0.6832,4.08377 -0.71604,7.00152 -0.0348,3.09433 0.89679,5.8981 2.08408,7.99848 2.27945,4.03253 10.75256,11.49707 14.63196,13 m -279.999996,-27 c -0.44251,1.49703 -0.85376,2.66922 -1.01157,7.00152 -0.27158,7.45621 -3.56494,28.61475 -1.98843,33.99848 3.85223,-4.42347 13.69766,-16.56443 17.76002,-22 1.79576,-2.40278 3.34995,-4.05591 3.3264,-7 -0.0204,-2.55039 -1.78476,-6.40635 -2.08642,-8 m 244.999996,-4 2,4 m 43,-4 -1.03937,9 -6.96063,14 m -203,-22 h 25 m 7,0 h 17 m 113,0 6,7 m 5,-7 -3,5 m -244.999996,-2 1,4 2,-4 m 234.999996,0 -4,1 m 40,-1 -1,2 m -266,0 -4.999996,5 H 101 m 45,-4 h 19 m 5,0 h 19 m 4,0 h 15 m 86,0 1,5 3,-3 m 33,-2 2,-1 m 26,2 4,1 m -268.999996,0 -2,2 m 196.999996,-2 4,4 m -198.999996,-2 h 1 m 48.999996,3 h 10 m 27,0 h 17 m -180.999996,1 c 1.99644,4.19702 1.75834,5.56045 1,7 m 4,-6 -3,7 c 1.44577,1.87579 2.74166,3.69631 5.15277,7.00152 4.2467,5.82147 15.62405,20.61542 21.84723,25.99848 1.83039,-4.33103 3.69265,-16.49854 4.41975,-21 0.3494,-2.16318 0.94583,-4.27427 -0.26775,-6.99537 -1.13252,-2.53933 -3.41009,-5.00451 -4.152,-6.00463 m -32,-5 4,5 m 32,-3 3.1466,6.29089 6.8534,-1.29089 m -6,-5 -2,5 m -40,-4 c 3.07793,3.07794 1.31724,1.31723 3,3 l -5,1 m 131.999996,-4 h 19 m 11,0 h 19 m 192,0 c 1.66009,3.43423 3.13449,5.85339 8,4 m -333.999996,-3 -6,7 m 47,-7 1.999996,8 5,-6 m -3,-2 -1,5 m 287,-4 c 0.0447,-0.0812 -1.29014,1.84033 -2.125,4.04473 -1.17896,3.11286 -1.15931,4.68598 -2.00773,6.95527 -1.68869,4.51678 -7.46533,10.71554 -12.86727,12 m -354.999996,-22 1,1 m 362.999996,-1 5,3 m -367.999996,-2 -3,1 m 93.999996,1 -6,4 6,1 m 31,-5 h 17 m 6,0 h 10 m 8,0 h 9 m -88,3 c -2.817976,2.02685 -4.687916,4.15032 -8.169756,8 -2.73913,3.0285 -7.1112,6.65853 -8.81712,11 -2.69394,6.85589 0.42369,15.05679 1.98688,20 7.1977,-5.05033 21.415796,-19.66651 27.998446,-25.95911 3.09087,-2.95468 5.01603,-4.42401 7.00155,-6.04089 l -1,-7 m 4,0 -0.91358,5.94598 5.91358,4.05402 m -2,-8 -5,5 m 197,-4 v 5 m 4,-5 c -0.26362,1.1759 -1.39933,3.30087 -1.41742,6.00463 -0.016,2.39054 3.50006,6.89219 5.51617,9.99537 4.34708,6.69097 2.7738,14.97839 7.38504,20.48535 5.42258,6.47589 14.02274,11.45727 20.51621,15.51465 1.58715,-5.36957 1,-10.96985 1,-16 m -220,-35 h 29 m 6,0 h 13 m 131,0 4,4 m -197,-1 7,-1 m 186,1 2,3 -5,1 m -173,-1 h 18 m 6,0 h 10 m 7,0 h 25 m 10,0 h 13 m 19,0 h 13 m -190.999996,3 c -1.57944,6.61566 -3.90049,18.51315 -3.65586,28 0.22357,8.67041 5.46677,17.01181 8.65586,23 5.07948,-7.19623 8.32966,-18.16761 13,-25 m 90.999996,-23 h 15 m 6,0 h 9 m 10,0 h 32 m -98,25 v 5 c -1.65357,-4.34635 1.38333,-7.72834 7,-9.93058 8.93115,-3.5018 19.53747,-3.55871 29,-4.78778 15.5736,-2.02283 30.14276,-9.96216 46,-9.24228 10.82501,0.49143 15.05554,7.77256 24,11.74613 9.12518,4.05386 17.97769,-2.61231 25.14968,6.42746 4.10093,5.16894 3.36448,11.1333 2.55018,16.78705 -0.55185,3.83157 -1.0745,10.59454 -3.43754,13.70138 -2.0259,2.66361 -4.62503,3.27335 -6.1296,6.35648 -1.49198,3.05731 -2.12055,5.90933 -4.13272,8.94214 -2.15256,-3.68799 -3.89798,-7.6272 -6.22068,-11 C 258.47467,305.1784 252,301.52914 252,287.78555 m 54,-25 1.00308,5.98919 L 301,274.78555 m -127,-11 h 32 m 94,4 7,1 m -260.999996,-1 17,14 M 302,267.78555 h 4 m 3,2 c 5.65686,2.50753 10.47576,4.51846 23,9 m -33,-8 4,-1 m -91,4 13,2.4645 19,14.5355 m -17,-15 h 2 m -48,3 c 2.0914,6.54061 4.00073,9.92663 0.34643,15.42437 -3.15274,4.74317 -8.40414,11.54596 -4.01388,17.57486 3.94891,5.42282 10.05548,9.25528 16.66745,10.75693 5.25714,1.19397 8.00256,-0.31464 13,-2.45599 3.95315,-1.69394 8.12649,-0.56623 11.14196,-3.88892 4.33252,-4.7739 1.86389,-10.24316 -0.14196,-14.41125 -3.51056,2.91998 -13.63068,4.33178 -18,7 l -2,-4 c -3.84613,1.22174 -6.44825,1.92272 -12,3 m 73,-28 c -0.88752,2.85034 -2.42408,5.74493 -1.2392,8.95602 0.74255,2.01239 4.93802,6.40179 7.06326,3.46527 1.24442,-1.71945 -4.06515,-6.29477 -4.82406,-8.42129 m -152,1 h 1 m 40,1 c -1.62308,12.84289 -0.59717,15.73522 1,20 l 4,-4 c 4.81219,7.48345 -2.43775,13.57617 -3.52701,22 -0.83634,6.46783 5.77591,22.58947 -0.7909,26.97222 -2.59478,1.73179 -6.67241,1.02744 -9.68209,1.02778 m 12,-65 2,15 m -68.999996,-9 c 5.92999,2.73461 9.21868,1.57775 14.999996,2.38348 3.81979,0.53238 6.02784,3.25391 9.28549,5.01776 7.48967,4.05524 14.18246,1.88147 14.71451,11.59876 5.28668,-0.11728 9.60455,-1.61481 14.60571,3.39428 3.19026,3.19531 3.35579,7.30011 3.39429,11.60572 m 190,-32 c 0.20117,2.74536 0.0874,4 3,4 m -101,-3 c 7.48214,9.12969 2.70639,19.28601 4,28 l 6.94982,-5.28626 L 260,308.78555 m 69,-13 c 0.0125,1.01232 0.10098,3.21163 0.13888,6.00463 0.0383,2.81974 -0.12073,5.86225 -0.1358,7.99537 -0.0282,3.98257 1.48092,20.3092 -1.60648,23.3966 -3.79291,3.79291 -16.40549,1.74854 -22.3966,2.5679 -3.83063,0.5239 -6.03965,1.48575 -10,2.27085 -6.00477,1.19037 -15.71744,2.25183 -18.97147,7.95291 -7.8284,13.71542 32.47638,28.9418 13.95602,40.81714 -8.55047,5.48263 -22.07971,5.38992 -31.98455,6.0841 -18.9455,1.32785 -37.9805,0.9105 -57,0.9105 -8.8436,0 -20.77332,-1.21363 -28.98072,2.65277 -6.83316,3.21899 -4.0325,9.06588 0.0749,13.25772 5.16361,5.26983 23.29492,16.05749 17.8534,24.90432 -4.77137,7.75727 -21.58579,8.76624 -29.94754,9.14582 -27.97367,1.26989 -60.543156,3.57629 -87.999996,-2.96063 m 253.999996,-144 c 1.40469,2.59597 2.15625,3.76025 6,2 v 0 m 24,-2 c 0,6.0343 3.93252,28.24868 -1.02778,35.68209 -3.32135,4.97733 -19.83676,2.22608 -24.97222,2.31791 m -267.999996,-20 c -8.9311,-4.79593 -10.33593,-14.70624 1,-17 m 258.999996,1 5,3 m 7,-2 -3,3 m -221,-1 v 4 m -35.999996,-1 c 0,6.46737 -3.96196,22.09494 1.02778,28.3966 1.85228,2.3393 6.29575,1.60132 8.97222,1.6034 m 65.999996,-29 -3,8 2,-4 m 26,0 c -3.22031,5.01391 -9.74436,12.45071 -10.73456,18 -1.52136,8.526 3.46386,15.99646 7.73456,22 -3.62952,1.93414 -7.74323,3.55639 -10.9105,-1.14814 -4.47119,-6.64129 -2.50927,-15.09765 0.9105,-19.85186 m 176,-19 c 0.26705,5.62707 0,14.43481 0,24 m -297.999996,-6 c -0.18969,-9.76502 4.93244,-15.78544 13,-17 m 70.999996,1 -3,3 m 46,-3 c -2.17588,3.41711 -4.06467,3.32879 -8,6 m 175,-6 4,4 m 3,-4 -1,2 m -233,-1 1,7 c 4.11007,-3.08729 4.58308,-4.55121 6,-7 m -3,0 v 3 m -25.999996,-2 9,4 m 83.999996,-3 c -1.02543,3.30029 -2.60511,6.09149 -4.16434,9 -1.3237,2.46917 -1.80976,4.23461 -1.77704,7 0.044,3.7182 1.30566,7.01824 3.49924,10 8.10122,11.01217 13.51553,11 26.44214,11 5.15231,0 17.94775,2.56488 21.1875,-1.6034 1.4132,-1.81824 0.28927,-4.42847 -0.37345,-6.3966 -1.54291,-4.5821 -3.48373,-7.71247 -5.32409,-13 -1.83759,-5.27955 -0.98801,-6.35462 1.51004,-12 m -115,-3 2,2 m 2,-2 c 4.46859,3.0838 5.82917,2.12213 8,0 m -24.999996,1 -3,5 m 22.999996,-1 c -0.17077,1.55331 -0.11826,2.84436 -0.0139,8 0.0991,4.89727 2.1246,17.68249 -1.58951,21.3966 -2.99417,2.99417 -10.434506,1.6034 -14.396596,1.6034 m -79,-17 9.43672,-1.17902 13.56328,-11.82098 m 197.999996,1 c -3.58808,4.367 -6.24579,8.0245 -6.52857,14 -0.51123,10.80279 5.87412,14.99896 15.52857,15 m -7,-28 -3,1 m -185.999996,3 7,-1 m 62.999996,0 v 4 l 3,-2 m -7,0 c 3.07592,3.98217 9.5001,22.56039 -4,23 m -15.999996,-20 0.14814,7.99536 6.851856,6.00464 m -3,-13 -3.999996,7 -3,-6 m -65,1 c 7.87878,0 37.12123,0 45,0 m 50.999996,0 h 21 m 33,0 h 34 m 24,0 h 44 20 m 57,0 c 9.46383,0 28.97699,0 40,0 m -307.999996,1 5,4 m 8.999996,-4 c -3.111616,3.3648 -3.494036,3.2243 -4.999996,4 m -2,3 c -5.751,4.13677 -14.60398,3 -29,3 m 248.999996,-3 h 19 m 14,0 h 48 m -337.999996,2 h 1 m 60.999996,7 h 7 m 124,0 h 4 m 40,0 h 22 m 39,0 h 1 m 6,0 h 17 m -316.999996,5 5,9 c -5.24415,4.43493 -7.66614,1.3543 -20,5 m 19,-14 v 8 l 7,-4 m 28.999996,-4 v 1 m -68.999996,0 h 19 m 17,0 v 4 m 9,-4 h 18 m 49.999996,0 h 52 m 22,0 h 17 m 58,2 h 13 m 35,0 h 50 m -333.999996,1 5,4 m 7,-2 -3,3 m 177.999996,-3 -2,8 5,-4 m -119,-3 3.92053,7.98071 4.14813,4.41589 8.93134,0.6034 m -13,-13 -1,7 m 4,-7 2,5 2,-2 m 18,-3 h 11 m 69,0 c 0.50579,1.58074 1.97418,5.26934 3.18286,7.98071 1.74209,3.9079 3.27932,4.67596 7.81714,5.01929 m -7,-13 v 4 m -176.999996,-1 c 1.70303,1.24291 2.49748,1.97406 8,4 m 51.999996,-4 6,5 m 103,-5 c 3.41549,3.74688 4.72241,4.19787 7,5 m -105,-4 -3,3 m 166,-3 h 41 m 10,0 h 17 m -229,1 -3,3 m -55.999996,-2 h 9 m 14.999996,1 h 15 m 83,0 28,-1 m -96,4 -6.00464,2.85647 -10.99536,0.14353 H 90.000034 m 153.999996,-3 c -1.95816,1.40979 -2.95081,2.80889 -9,3 m -62,-1 1,5 2,-4 m -118.999996,0 h 12 m 99.999996,0 2.69677,6.98223 6.30323,5.01777 m 36,-12 h 5 m 118,0 h 30 m 16,0 h 12 m -229,3 5,4 m 8,-4 c -2.42524,2.66876 -3.43485,3.56604 -5,2 m -91.999996,0 2,8 -5,-4 m 7,-4 1,6 2,-5 m 34.999996,0 h 18 m 105,0 h 29 m 36,2 h 9 m 53,0 h 12 m -293.999996,1 -6.00463,5.65277 -9.99537,3.34723 m 95.999996,-9 c -3.27988,2.35925 -4.64557,3 -14,3 m -70.999996,-1 -2,2 m -40,-1 h 27 m 27,0 h 34.999996 m -47.999996,3 c 1.65013,1.19223 2.29611,2.59338 8,3 m 205.999996,-1 h 60 m 14,0 h 21 m -338.999996,1 h 5 m 65.999996,0 h 9 m 18,0 h 10 m 123,7 h 20 m 47,0 h 41 m -332.999996,3 h 25 m 65.999996,2 -0.51233,7.98071 -4.48767,5.01929 m 9,-12 c -0.4751,2.92327 -0.23444,3.99298 3,3 v 0 m -10,-2 2,4 m 48,-3 h 45 m 29,0 h 60 m -188,1 5,4 m 5,-3 -3,3 m 5,-2 -3,3 m -45,-2 h 32 m 11,3 4,3 m 58,-1 h 45 m -163.999996,1 4.157406,7.98071 3.90431,4.41589 8.93828,0.6034 m -12,-13 1,5 2,-4 m -10.999996,2 6.999996,5 m 7,-5 -6,3 m 186,1 h 21 m -208,3 c -2.986146,2.14801 -4.205106,2.99902 -12.999996,3 m 43.999996,-1 v 1 m -12,0 h 7 m 82,3 h 30 m 34,0 h 77 m -156,8 h 78 m 62,0 h 53 m -313.999996,8 h 70.999996 m 18,0 h 29 m 6,0 h 1 m -92,9 h 1 m 7,0 h 60 m 38,0 h 54"
     id="path1" /></svg>
