<?xml version="1.0" encoding="UTF-8" standalone="no"?>
<!-- Created with Inkscape (http://www.inkscape.org/) -->

<svg
   width="470.00391mm"
   height="331.53046mm"
   viewBox="0 0 470.0039 331.53046"
   version="1.1"
   id="svg1"
   xml:space="preserve"
   inkscape:version="1.3 (0e150ed6c4, 2023-07-21)"
   sodipodi:docname="cake_topper_single_path_sideways.svg"
   xmlns:inkscape="http://www.inkscape.org/namespaces/inkscape"
   xmlns:sodipodi="http://sodipodi.sourceforge.net/DTD/sodipodi-0.dtd"
   xmlns="http://www.w3.org/2000/svg"
   xmlns:svg="http://www.w3.org/2000/svg"><sodipodi:namedview
     id="namedview1"
     pagecolor="#ffffff"
     bordercolor="#000000"
     borderopacity="0.25"
     inkscape:showpageshadow="2"
     inkscape:pageopacity="0.0"
     inkscape:pagecheckerboard="0"
     inkscape:deskcolor="#d1d1d1"
     inkscape:document-units="mm"
     inkscape:zoom="0.58110877"
     inkscape:cx="554.97356"
     inkscape:cy="468.93114"
     inkscape:window-width="3840"
     inkscape:window-height="2080"
     inkscape:window-x="-11"
     inkscape:window-y="-11"
     inkscape:window-maximized="1"
     inkscape:current-layer="svg1" /><path
     id="path4"
     style="display:inline;fill:#000000"
     d="m 0.09572176,180.01427 c -0.14491,0.38168 -0.12393,0.94546 0.0537,1.48466 0.15827,0.47839 0.69608,1.75806 1.19528004,2.84375 0.49921,1.0857 1.75909,3.16935 2.79983,4.63021 1.04074,1.46088 2.84429,3.72732 4.00802,5.03639 1.16373,1.30905 2.9566392,3.15458 3.9837392,4.10104 1.0271,0.94646 2.46079,2.20465 3.18637,2.79621 0.72558,0.59156 2.2718,1.73633 3.43596,2.54352 1.16417,0.80718 3.12777,2.09091 4.36304,2.85305 1.23547,0.76214 3.71355,2.16218 5.50664,3.11092 1.79327,0.94874 4.569894,2.23836 6.17017,2.86546 1.600295,0.62711 3.408659,1.54057 4.01836,2.03037 0.609683,0.48981 1.802227,1.34434 2.649967,1.89859 0.847741,0.55427 3.169517,1.78232 5.159375,2.72903 1.989859,0.94672 5.319216,2.5418 7.398515,3.54449 2.0793,1.00269 3.821765,1.82314 3.872115,1.82314 0.05035,0 0.997805,0.51653 2.105298,1.14774 1.107492,0.63123 1.96485,1.19677 1.90531,1.25677 -0.05954,0.06 -2.0535,0.0245 -4.430737,-0.0785 -2.377256,-0.10302 -4.949503,-0.29006 -5.716447,-0.416 -1.247367,-0.20483 -1.537107,-0.38912 -2.746603,-1.74614 -0.74366,-0.83437 -2.08096,-1.9914 -2.971394,-2.57142 -0.890434,-0.58005 -2.750136,-1.60068 -4.132565,-2.26808 -1.38241,-0.66738 -3.704186,-1.77939 -5.159375,-2.47065 -1.45517,-0.69127 -3.272622,-1.38945 -4.038513,-1.55133 -0.76589,-0.16186 -3.223716,-0.30628 -5.461686,-0.32091 -2.56506,-0.0168 -4.27501,0.0837 -4.62659,0.27182 -0.39205,0.20982 -0.55759,0.55492 -0.55759,1.16117 0,0.71646 0.21264,1.02623 1.25678,1.83089 0.69103,0.53271 1.85208,1.58155 2.57968,2.33113 0.72761,0.74957 2.25836,2.06887 3.40186,2.9316 1.1435,0.86274 3.286665,2.14866 4.762502,2.85719 1.579325,0.75821 3.82663,1.56717 5.461682,1.96629 1.52795,0.37299 4.028319,0.85047 5.55625,1.06092 1.52795,0.21046 3.96877,0.5106 5.423959,0.66714 1.455171,0.15654 4.372277,0.4076 6.482291,0.55759 2.110014,0.14999 4.669915,0.49119 5.688542,0.75861 1.018627,0.26742 2.447415,0.6867 3.175,0.93173 0.727585,0.24502 1.977779,0.70798 2.778125,1.02887 0.800345,0.32088 1.931459,0.84765 2.513542,1.17047 0.582065,0.32283 1.594133,1.23502 2.248958,2.02675 0.654825,0.79172 2.219877,2.61166 3.477824,4.0442 1.257946,1.43256 4.294097,4.58127 6.746875,6.99751 2.452758,2.41624 5.298488,5.15474 6.323645,6.08541 1.025157,0.93068 2.21582,1.9534 2.645833,2.27273 l 0.781865,0.58085 -0.68833,0.0145 c -0.378662,0.008 -1.08559,0.28288 -1.570964,0.6103 -0.530732,0.35802 -0.969301,0.92911 -1.099674,1.43298 -0.126601,0.48923 -0.106603,1.12669 0.04754,1.53221 0.14522,0.38195 0.621394,0.89806 1.058333,1.1467 0.436958,0.24864 0.795414,0.52377 0.796334,0.61133 9.2e-4,0.0876 0.507567,0.92707 1.12603,1.86552 0.618445,0.93845 1.511072,2.11703 1.983341,2.61896 0.472269,0.50192 0.859222,1.01751 0.859896,1.14567 6.73e-4,0.12818 -0.44547,0.15344 -0.991154,0.0563 -0.545703,-0.0971 -1.684352,-0.29489 -2.530595,-0.43977 -0.846243,-0.14486 -1.739231,-0.3663 -1.984375,-0.49144 -0.245144,-0.12512 -1.219892,-0.61158 -2.165759,-1.08107 -0.945866,-0.46951 -2.46306,-1.44436 -3.371371,-2.16628 -0.908312,-0.7219 -2.3371,-2.16643 -3.175,-3.21014 -0.837901,-1.04371 -1.833276,-2.31407 -2.212268,-2.82308 -0.378973,-0.50902 -1.496977,-2.11618 -2.484086,-3.57136 -0.987109,-1.45518 -2.344147,-3.29661 -3.01532,-4.09174 -0.671153,-0.79512 -1.991876,-2.21101 -2.935221,-3.14658 -0.943346,-0.93556 -2.312601,-2.15082 -3.042708,-2.70061 -0.730125,-0.54978 -2.055551,-1.4102 -2.945557,-1.91203 -0.890006,-0.50184 -2.415635,-1.17039 -3.389974,-1.48518 -0.974338,-0.31478 -2.746725,-0.70618 -3.938261,-0.87023 -1.908664,-0.26277 -2.248462,-0.39473 -2.857707,-1.10742 -0.584576,-0.68385 -0.863107,-0.80217 -1.79989,-0.76481 -0.609464,0.0243 -1.341172,0.11831 -1.626257,0.20877 -0.285084,0.0905 -0.720966,0.54299 -0.968416,1.00562 -0.322101,0.60213 -0.444392,1.44272 -0.430982,2.95796 0.0103,1.16414 0.285592,3.30732 0.611849,4.7625 0.326257,1.45518 0.773948,3.24116 0.994771,3.96875 0.220842,0.72759 0.64551,1.85871 0.944129,2.51354 0.298599,0.65483 0.904657,1.72642 1.346688,2.38125 0.442012,0.65483 1.344695,1.78462 2.005562,2.51044 0.660866,0.72582 1.022883,1.18746 0.804602,1.0263 -0.218281,-0.16117 -0.845221,-0.4374 -1.393197,-0.61392 -0.547957,-0.17652 -1.962347,-0.79301 -3.14296,-1.36994 -1.180613,-0.57694 -3.083809,-1.58932 -4.229199,-2.24999 -1.14541,-0.66067 -2.082561,-1.37374 -2.082561,-1.5844 0,-0.21066 0.191996,-0.67614 0.426848,-1.03456 0.234834,-0.35843 0.65159,-1.5074 0.926041,-2.55282 0.274471,-1.04542 0.499195,-2.48267 0.499195,-3.19412 0,-0.85924 -0.149497,-1.44287 -0.444934,-1.73788 -0.339658,-0.33914 -0.918176,-0.44205 -2.447396,-0.43615 -1.212568,0.005 -2.545526,0.19403 -3.379122,0.48008 -0.845415,0.29009 -1.683266,0.82175 -2.170927,1.37717 -0.436784,0.49746 -0.932004,1.41209 -1.100708,2.03295 -0.168705,0.62087 -0.343087,1.2616 -0.387057,1.42369 -0.05504,0.20288 -0.49406,0.22942 -1.409216,0.0848 -0.73115,-0.11559 -2.556944,-0.15973 -4.057117,-0.0977 -1.500191,0.062 -3.263261,0.17948 -3.918111,0.26045 -0.65484,0.081 -2.14312,0.3395 -3.30729,0.57464 -1.16416,0.23514 -2.33088,0.60977 -2.5926,0.83251 -0.32767,0.27889 -0.45128,0.69359 -0.39688,1.3317 0.0606,0.71047 0.26702,1.03567 0.88522,1.39526 0.44345,0.25795 1.8722,0.78602 3.175,1.17306 1.3028,0.38703 3.26182,0.92478 4.35322,1.19527 1.106218,0.27417 2.862543,0.48451 3.968751,0.47491 1.091387,-0.01 2.639238,-0.11134 3.439583,-0.22583 1.011337,-0.14466 1.759654,-0.10112 2.453081,0.14211 0.548743,0.1925 1.382199,0.52384 1.852083,0.73639 0.469865,0.21256 1.747199,0.76908 2.838586,1.23662 1.091387,0.46754 2.877363,1.26966 3.96875,1.78232 1.091387,0.51267 3.411323,1.56193 5.155241,2.33216 1.743917,0.77022 3.208719,1.5145 3.255099,1.65364 0.04638,0.13913 -0.308984,0.33818 -0.789616,0.44235 -0.480651,0.10418 -1.689682,0.59877 -2.686658,1.09916 -0.996977,0.50041 -3.16513,1.74291 -4.81831,2.76107 -1.6532,1.01817 -3.317609,2.22162 -3.698483,2.67426 -0.572703,0.68062 -0.662556,0.98675 -0.519865,1.76992 0.0949,0.52083 0.320951,1.09998 0.502295,1.28674 0.181343,0.18674 1.154606,0.63965 2.163176,1.00666 1.008569,0.36699 2.726984,0.97111 3.818371,1.34203 1.091387,0.37095 3.353614,0.84722 5.027084,1.05834 1.673452,0.21111 4.352415,0.49008 5.953125,0.62011 1.800204,0.14624 4.212994,0.13673 6.325195,-0.0248 1.878111,-0.14355 3.514291,-0.32221 3.635954,-0.39739 0.121664,-0.0752 0.966303,-0.25445 1.876888,-0.39842 0.910586,-0.14398 2.429638,-0.50581 3.375504,-0.80357 0.945867,-0.29778 2.374655,-0.7747 3.175,-1.05988 0.800365,-0.28519 1.917742,-0.72102 2.483053,-0.96842 0.565292,-0.24742 2.521706,-1.20689 4.347538,-2.13217 l 3.319694,-1.68207 3.060795,0.16692 c 1.683383,0.0919 4.251439,0.28174 5.706629,0.42168 1.455168,0.13994 4.050008,0.39023 5.766058,0.55603 1.71604,0.1658 3.0554,0.36558 2.97656,0.44442 -0.0788,0.0788 -1.02755,0.52789 -2.1084,0.99787 -1.65129,0.71807 -2.04202,0.80167 -2.4474,0.52349 -0.26533,-0.1821 -1.07799,-0.51851 -1.80557,-0.74776 -0.72761,-0.22925 -1.85872,-0.4989 -2.51354,-0.59945 -0.654825,-0.10055 -1.760622,-0.40679 -2.457214,-0.68006 -0.696611,-0.27325 -1.5718,-0.49661 -1.944584,-0.49661 -0.372802,0 -1.071386,0.187 -1.552877,0.41548 -0.481509,0.22849 -1.012439,0.74582 -1.179773,1.1498 -0.172838,0.41723 -0.222313,1.06631 -0.114722,1.50275 0.104167,0.42254 0.363651,1.03782 0.576709,1.36684 0.213058,0.32904 0.819298,0.80311 1.347205,1.05368 0.564736,0.26804 1.590301,0.45574 2.491837,0.45579 1.273917,7e-5 1.457322,0.0545 1.088823,0.32401 -0.243781,0.17826 -1.11185,0.46253 -1.929082,0.632 -0.817213,0.16948 -1.94547,0.42102 -2.50734,0.55863 -0.56187,0.1376 -1.30603,0.55715 -1.653646,0.93224 -0.347617,0.37506 -0.632003,0.90636 -0.632003,1.1808 0,0.27447 0.166061,0.89622 0.36897,1.38183 0.20291,0.48563 0.646161,1.07735 0.984953,1.31465 0.443742,0.3108 1.20263,0.4315 2.714046,0.4315 h 2.098063 l 1.481047,-1.48415 c 0.814581,-0.81631 1.715958,-1.64975 2.002978,-1.85208 0.28704,-0.20231 0.60484,-0.36794 0.70641,-0.36794 0.10158,0 0.26505,0.36604 0.36329,0.81339 0.0983,0.44737 0.53125,1.21501 0.96222,1.70584 0.58496,0.66626 1.0813,0.93727 1.9575,1.06867 0.64551,0.0968 1.58792,0.098 2.09393,0.003 0.50599,-0.0949 1.29077,-0.48466 1.74408,-0.8661 0.75206,-0.63281 0.81286,-0.8 0.69453,-1.90789 -0.0713,-0.6678 -0.20958,-1.51456 -0.30696,-1.88206 -0.14324,-0.54059 0.0326,-0.90619 0.91932,-1.91358 0.71014,-0.80676 1.71816,-1.5428 2.8634,-2.09031 1.3687,-0.65435 2.12616,-0.84666 3.35535,-0.85266 1.16052,-0.006 2.5482,0.29966 5.15937,1.13585 1.9645,0.62909 4.07741,1.33809 4.69532,1.57561 0.61791,0.23752 1.12393,0.52131 1.12448,0.63046 5.5e-4,0.10911 -0.12441,0.19843 -0.2775,0.19843 -0.15309,0 -1.24523,0.48248 -2.42724,1.07229 -1.18201,0.58981 -2.69372,1.52437 -3.35949,2.07687 -0.66576,0.55249 -1.5484,1.08702 -1.96112,1.18753 -0.4127,0.10051 -1.03288,0.46545 -1.37821,0.8108 -0.34535,0.34534 -0.70552,0.93575 -0.79995,1.31207 -0.0944,0.37633 -0.0929,0.99681 0.003,1.37924 0.096,0.38245 0.50811,1.02901 0.91571,1.43661 0.42654,0.42656 1.39138,0.93012 2.27324,1.18649 0.92746,0.26962 1.96038,0.38792 2.61793,0.29972 0.73457,-0.0985 1.28598,-0.37744 1.70274,-0.86196 0.49215,-0.57216 0.59892,-0.96201 0.52968,-1.93477 l -0.0868,-1.21801 1.65416,-0.81494 c 0.9097,-0.44804 2.87428,-1.14057 4.36562,-1.53944 1.49135,-0.39889 3.0858,-0.83953 3.54346,-0.97875 0.65519,-0.19932 1.13338,-0.13361 2.24895,0.30902 0.77925,0.3092 2.42903,0.91264 3.66593,1.34049 1.2369,0.42785 2.90382,1.00012 3.70417,1.27176 0.80034,0.27164 1.87194,0.61328 2.38125,0.75912 0.5093,0.14585 2.11668,0.62524 3.57187,1.06557 1.45519,0.44031 4.13415,1.15774 5.95313,1.59422 1.81897,0.43646 4.14075,0.97978 5.15937,1.20716 1.01863,0.22738 2.42318,0.49024 3.12126,0.58446 l 1.26917,0.17157 -1.66605,0.64492 c -0.91636,0.35466 -2.26137,0.88391 -2.98896,1.17667 -0.7276,0.29274 -2.69217,1.25039 -4.36563,2.12752 -1.67347,0.87713 -4.00415,2.21939 -5.17952,2.98276 -1.17538,0.76338 -3.37808,2.46424 -4.8948,3.77962 -1.5167,1.3154 -4.3976,3.98059 -6.40167,5.92263 -3.21179,3.11238 -3.64312,3.63219 -3.63802,4.38475 0.004,0.63218 0.19162,0.97556 0.7214,1.32292 0.55625,0.3647 1.24825,0.46622 3.10885,0.45682 1.31632,-0.007 4.23866,-0.26891 6.49418,-0.58291 2.25554,-0.31403 5.05356,-0.74875 6.21771,-0.96584 1.16415,-0.21709 2.83106,-0.56997 3.70417,-0.78445 0.8731,-0.21447 2.48048,-0.6278 3.57187,-0.91829 1.09139,-0.2905 2.6528,-0.71632 3.46956,-0.94619 0.81676,-0.22988 2.54322,-0.84262 3.83645,-1.36219 1.29326,-0.51956 2.88708,-1.25611 3.54191,-1.63659 0.65482,-0.38051 1.96455,-1.22834 2.91041,-1.88413 0.94587,-0.65579 2.7914,-1.99505 4.10105,-2.97553 1.30966,-0.98047 3.30206,-2.71431 4.42712,-3.85299 1.12506,-1.13868 2.46414,-2.54641 2.97604,-3.12849 0.51192,-0.58207 0.9311,-1.15307 0.93121,-1.26866 1.1e-4,-0.11559 1.67159,-0.18916 3.7145,-0.1633 2.04292,0.0259 3.68002,0.1397 3.63802,0.2527 -0.042,0.113 -0.73133,0.91008 -1.53169,1.77095 -0.80036,0.86087 -1.69335,1.87414 -1.98437,2.25206 -0.29104,0.37794 -1.20296,1.55947 -2.02623,2.62568 -0.82328,1.06622 -1.95439,2.39779 -2.51355,2.95848 -0.55913,0.56071 -2.08807,1.55786 -3.39772,2.21588 -1.30967,0.65803 -3.21471,1.72867 -4.23333,2.37919 -1.01863,0.65049 -2.48763,1.79652 -3.2644,2.54661 -0.77678,0.75011 -1.95208,2.11351 -2.61173,3.02979 -0.65963,0.91627 -1.71435,2.64953 -2.34353,3.85196 -0.62918,1.20243 -1.69544,3.90555 -2.36936,6.00687 -0.67394,2.10132 -1.51394,4.4394 -1.86707,5.19503 -0.35314,0.75562 -0.76077,1.44716 -0.90589,1.53686 -0.14512,0.0897 -0.26407,0.50889 -0.26407,0.93172 0,0.49907 0.18638,0.8686 0.53124,1.05317 0.29221,0.15639 1.0959,0.30468 1.78594,0.32918 1.05715,0.0376 1.76023,-0.20999 4.46587,-1.57097 1.76606,-0.88834 3.8688,-2.03553 4.67259,-2.54971 0.80378,-0.51417 2.14661,-1.62787 2.98431,-2.47478 0.8377,-0.84692 2.2018,-2.45101 3.03082,-3.56465 0.82902,-1.11361 1.77519,-2.57854 2.10272,-3.25509 0.32752,-0.67656 0.63587,-1.18986 0.68523,-1.1405 0.0494,0.0494 0.22208,1.21661 0.38395,2.59364 0.16188,1.37704 0.53895,3.21812 0.83768,4.09122 0.29874,0.87313 0.78765,1.85538 1.08675,2.18281 0.39547,0.43293 0.83792,0.59418 1.62213,0.59118 0.59307,-0.002 1.22621,-0.0978 1.40663,-0.21239 0.18043,-0.11459 0.61875,-0.91638 0.9741,-1.7818 0.35535,-0.86543 1.06915,-2.43588 1.58595,-3.48971 0.51677,-1.05384 1.12154,-2.35192 1.3441,-2.88458 0.22257,-0.53267 0.6415,-1.91899 0.93069,-3.08095 0.2892,-1.16196 0.52555,-2.86467 0.52555,-3.78323 0,-1.00868 -0.36576,-3.1683 -0.92345,-5.45341 -0.50787,-2.08093 -0.92505,-4.03338 -0.92605,-4.33824 -0.001,-0.30486 0.45401,-1.26034 1.01183,-2.12339 0.5578,-0.86303 1.30196,-1.76212 1.65365,-1.99781 0.35167,-0.2357 0.87736,-0.65354 1.1684,-0.92862 0.29102,-0.27509 1.56689,-1.18838 2.83497,-2.02985 l 2.30528,-1.53014 3.64784,-0.50023 c 2.00609,-0.27519 4.42125,-0.61954 5.36712,-0.76481 0.94586,-0.14529 2.2258,-0.3393 2.84427,-0.43098 0.61844,-0.0917 1.12448,-0.0944 1.12448,-0.006 0,0.0882 -0.92914,1.08091 -2.06448,2.20607 -1.13535,1.12515 -2.54322,2.70073 -3.129,3.50107 -0.58579,0.80035 -1.5281,2.28867 -2.09393,3.3073 -0.72411,1.30352 -1.89885,2.71408 -3.96617,4.7625 -2.32846,2.30717 -3.24919,3.44826 -4.44107,5.50509 -0.99749,1.72138 -1.50327,2.88711 -1.50327,3.46438 0,0.49445 0.19991,1.04921 0.46302,1.28468 0.25466,0.2279 0.99882,0.49225 1.65365,0.58756 1.04745,0.15245 1.34037,0.0739 2.43551,-0.65474 0.68466,-0.45554 2.37034,-1.89373 3.74602,-3.19567 2.45724,-2.32552 2.54368,-2.4498 4.91701,-7.06055 1.32872,-2.5813 2.72095,-5.05046 3.09336,-5.487 l 0.67696,-0.79375 -0.17829,0.79375 c -0.0981,0.43654 -0.52683,1.52504 -0.95239,2.41897 -0.42557,0.89391 -0.7736,1.99061 -0.7736,2.43706 0,0.4787 0.22353,1.02013 0.54467,1.3193 0.29952,0.27905 0.98414,0.57989 1.52135,0.66869 0.53722,0.0888 1.39343,0.1622 1.90273,0.1633 0.50932,10e-4 1.30714,-0.23012 1.77302,-0.51418 0.46586,-0.28404 1.03032,-0.87088 1.25419,-1.3038 0.22946,-0.44371 0.52505,-2.1329 0.67747,-3.8716 0.14871,-1.69631 0.37067,-3.28191 0.49351,-3.52381 0.12285,-0.2419 0.3649,-1.02004 0.53796,-1.7291 0.17308,-0.70903 0.61983,-1.89143 0.9927,-2.62722 0.37284,-0.73582 0.82218,-1.48158 0.99839,-1.65778 0.17621,-0.17621 0.63229,-0.6912 1.01337,-1.14412 0.53734,-0.63858 1.06797,-0.90537 2.36317,-1.18804 0.9186,-0.20048 3.03944,-0.66866 4.71289,-1.04025 1.67349,-0.3716 4.47146,-0.92619 6.21771,-1.23248 1.74625,-0.30629 3.77032,-0.6862 4.49792,-0.84439 0.7276,-0.1582 2.097,-0.50063 3.0427,-0.7612 0.94588,-0.26056 2.04722,-0.54579 2.4474,-0.63355 0.50666,-0.1111 0.7276,-0.0534 0.7276,0.18965 0,0.19193 -0.11253,0.46172 -0.25011,0.59996 -0.13758,0.13825 -0.84019,1.44233 -1.56114,2.8975 -0.99095,1.99962 -1.68933,3.01047 -2.85874,4.13877 -0.85115,0.82108 -2.50021,2.16237 -3.66438,2.98069 -1.16416,0.81831 -2.29526,1.60722 -2.51354,1.75287 -0.21828,0.14565 -1.15648,0.75864 -2.08515,1.36219 -0.92868,0.60353 -2.84205,2.23848 -4.25193,3.63337 -1.40994,1.39487 -3.65822,4.00383 -4.99608,5.79758 -1.33784,1.79375 -2.61795,3.61946 -2.84428,4.05711 -0.2263,0.43768 -0.42126,1.15031 -0.43356,1.58337 -0.0123,0.43308 0.16191,0.97218 0.38757,1.19786 0.22567,0.22568 0.94356,0.47024 1.59474,0.54364 1.03813,0.11701 1.5169,-0.0347 3.8871,-1.23249 1.48681,-0.7513 3.32818,-1.59998 4.09174,-1.88567 0.76356,-0.28568 2.11401,-0.96479 3.00137,-1.50895 0.88736,-0.54415 2.28306,-1.57265 3.1011,-2.28565 0.81805,-0.71302 1.77741,-1.52445 2.13217,-1.80351 0.35476,-0.27904 1.16162,-1.18433 1.79266,-2.01124 0.63104,-0.82694 1.67343,-2.45595 2.31665,-3.62045 0.64323,-1.16451 1.34775,-2.47421 1.5658,-2.91042 0.21805,-0.43621 0.47287,-0.85277 0.56637,-0.92553 0.0935,-0.0728 1.05013,-1.91826 2.12545,-4.10104 1.07533,-2.18275 2.70867,-5.02084 3.62976,-6.30659 0.9209,-1.28577 2.6784,-3.33715 3.90518,-4.55838 1.22678,-1.22124 2.97002,-2.74723 3.87367,-3.39101 0.90366,-0.64377 3.48845,-2.42264 5.74383,-3.95324 2.25557,-1.5306 5.82764,-3.94934 7.9375,-5.37487 2.11005,-1.42551 5.47376,-3.75321 7.47448,-5.17229 2.00091,-1.41907 3.63802,-2.51741 3.63802,-2.44068 0,0.0767 -0.99192,1.5911 -2.204,3.36517 -1.21189,1.77405 -2.62935,3.99957 -3.14967,4.94543 -0.52032,0.94587 -1.24679,2.49372 -1.61438,3.43959 -0.36759,0.94586 -0.90021,2.55324 -1.1839,3.57187 -0.28369,1.01863 -0.73871,2.74507 -1.01079,3.83646 -0.39932,1.60174 -0.49193,2.9537 -0.48163,7.01146 0.01,3.78737 0.12121,5.45119 0.45269,6.74687 0.24198,0.94587 0.57616,2.43419 0.74259,3.3073 0.16644,0.8731 0.4019,2.12328 0.52348,2.77812 0.12159,0.65483 0.22819,2.50461 0.23719,4.11034 0.0122,2.26798 -0.10202,3.25411 -0.51159,4.41937 -0.38919,1.10732 -0.46204,1.67213 -0.2775,2.15749 0.13748,0.36161 0.48619,0.78408 0.77463,0.93845 0.28844,0.15437 0.87433,0.2806 1.30172,0.2806 0.53765,0 1.29672,-0.41521 2.46135,-1.34617 0.92622,-0.74039 2.19669,-1.94662 2.82309,-2.68046 0.62641,-0.73383 1.50715,-1.86906 1.95698,-2.52284 0.44982,-0.6538 1.49211,-2.51346 2.31614,-4.13257 0.82403,-1.61908 1.75583,-3.59886 2.07068,-4.39921 0.31485,-0.80035 0.88334,-2.40773 1.26348,-3.57187 0.38013,-1.16415 0.95062,-3.48593 1.26763,-5.15938 0.53789,-2.83927 0.57081,-3.68684 0.49351,-12.67778 -0.0541,-6.28921 0.0245,-10.46977 0.22634,-12.03854 0.17008,-1.32184 0.4024,-2.57394 0.51676,-2.78226 0.13389,-0.2439 0.37283,0.36846 0.67076,1.71979 0.25447,1.15418 0.73272,2.93204 1.06299,3.95067 0.33027,1.01862 0.95931,2.75472 1.39785,3.85816 0.43855,1.10343 1.83798,4.02052 3.10937,6.48229 1.27139,2.46175 2.50076,4.62142 2.73213,4.79867 0.23137,0.17728 0.90603,0.32613 1.49913,0.33073 0.78801,0.006 1.22449,-0.15202 1.62161,-0.58704 0.46329,-0.5075 0.59406,-1.21969 0.88625,-4.82865 0.18851,-2.32828 0.38958,-5.84071 0.44648,-7.80521 0.0763,-2.6331 -0.0158,-4.19772 -0.34984,-5.95312 -0.30676,-1.61214 -0.78869,-3.02218 -1.4919,-4.36563 -0.57127,-1.09138 -1.66612,-2.81783 -2.43345,-3.83645 -0.76732,-1.01863 -1.83075,-2.56878 -2.36264,-3.44476 -0.53189,-0.87597 -0.96305,-1.76896 -0.95705,-1.98437 0.006,-0.21541 0.74965,-1.24986 1.65365,-2.29857 0.9038,-1.04871 2.95351,-3.37336 4.55424,-5.16609 1.60073,-1.79273 3.50399,-3.99661 4.2292,-4.89738 0.82228,-1.02135 1.41184,-1.54455 1.56683,-1.38958 0.15498,0.155 0.13202,0.50494 -0.0615,0.92966 -0.17068,0.3746 -0.31057,0.94901 -0.31057,1.27641 0,0.34328 0.42006,0.9958 0.99219,1.54151 0.7354,0.70165 1.30064,0.98609 2.18487,1.09864 0.84881,0.10802 1.49755,0.0135 2.24896,-0.3266 0.58083,-0.26289 1.2944,-0.74535 1.58544,-1.07228 0.37081,-0.41652 0.52164,-0.94258 0.50384,-1.75752 -0.0143,-0.65604 -0.20755,-1.3647 -0.44338,-1.62574 -0.22995,-0.25451 -0.78424,-1.23643 -1.23145,-2.18229 -0.53665,-1.13502 -0.81125,-2.12463 -0.80925,-2.91042 0.002,-0.65485 0.15096,-1.44562 0.33072,-1.757 0.17975,-0.31139 1.65664,-2.55805 3.28197,-4.99298 l 2.95538,-4.42763 0.16588,1.15703 c 0.091,0.63628 0.18941,2.70489 0.21911,4.59662 0.0297,1.89175 0.007,4.21351 -0.0501,5.15937 -0.0573,0.94587 -0.0102,3.47294 0.10439,5.61568 0.16388,3.06359 0.2988,3.97454 0.63304,4.26383 0.23378,0.20233 0.99756,0.44207 1.69705,0.53278 1.09649,0.14219 1.35502,0.0821 1.8743,-0.43718 0.35901,-0.35899 0.83081,-1.45317 1.16841,-2.70888 0.31149,-1.15866 0.58803,-2.7959 0.61443,-3.63802 0.0264,-0.84212 0.1482,-1.59319 0.27027,-1.66863 0.12206,-0.0754 0.80173,0.15456 1.5105,0.51056 0.70878,0.356 1.64656,0.72556 2.08411,0.82166 0.43755,0.0961 1.09509,0.0987 1.46089,0.008 0.37237,-0.0935 0.86535,-0.53883 1.12035,-1.01235 0.40919,-0.75981 0.41587,-0.93955 0.0703,-1.76527 -0.21179,-0.50548 -0.72336,-1.32029 -1.13688,-1.81074 -0.41352,-0.49043 -1.49241,-1.23458 -2.39779,-1.65364 -0.90538,-0.41904 -1.75219,-0.76171 -1.88154,-0.76171 -0.12935,0 -0.55443,-0.14885 -0.94464,-0.33073 -0.39021,-0.1819 -0.7854,-0.50933 -0.8785,-0.72761 -0.0931,-0.21826 -0.22963,-1.89078 -0.30283,-3.71657 -0.0732,-1.82577 6.5e-4,-4.3118 0.16382,-5.52421 0.16317,-1.2124 0.53728,-3.0523 0.83095,-4.08864 0.29387,-1.03631 0.7408,-2.58328 0.99323,-3.43803 0.25244,-0.85473 1.0542,-3.3551 1.7818,-5.55625 l 1.32292,-4.00234 64.16145,-0.13229 64.16146,-0.13229 3.51245,-2.23294 c 2.75506,-1.75117 3.43976,-2.29914 3.175,-2.54093 -0.18565,-0.16956 -1.7662,-1.18868 -3.51245,-2.26498 l -3.175,-1.95699 -62.24323,-0.0677 c -42.29886,-0.0461 -62.24323,-0.15465 -62.24323,-0.33899 0,-0.14921 0.22171,-0.95224 0.493,-1.78439 0.27129,-0.83214 0.79771,-2.52514 1.16944,-3.76204 0.37154,-1.23691 0.85857,-2.90381 1.0821,-3.70417 0.22352,-0.80035 0.70616,-2.52679 1.07229,-3.83646 0.36612,-1.30967 0.91471,-3.51236 1.21904,-4.89479 0.30433,-1.38241 0.72856,-3.46606 0.9431,-4.63021 0.21455,-1.16415 0.6813,-4.06036 1.03714,-6.43578 0.35584,-2.3754 0.84199,-6.84034 1.08004,-9.92188 0.23806,-3.08157 0.43897,-8.51979 0.44597,-12.08505 0.008,-3.98112 -0.16066,-8.53376 -0.43822,-11.79928 -0.24856,-2.92441 -0.73847,-7.27019 -1.08882,-9.65729 -0.35035,-2.3871 -0.82648,-5.41204 -1.05782,-6.72155 -0.23133,-1.30968 -0.72917,-3.69094 -1.10639,-5.29167 -0.37722,-1.60073 -0.98142,-3.98199 -1.34255,-5.291673 -0.36112,-1.30969 -0.86606,-3.15515 -1.1219,-4.10104 -0.25584,-0.94588 -0.67513,-2.37463 -0.93224,-3.175 -0.2571,-0.80036 -0.68985,-2.13615 -0.96118,-2.96829 -0.27134,-0.83216 -0.493,-1.63583 -0.493,-1.78594 0,-0.18673 19.60311,-0.27285 62.07373,-0.27285 h 62.07374 l 3.07991,-1.89394 c 1.69398,-1.04154 3.28828,-2.07185 3.54294,-2.28979 0.25466,-0.21794 0.46239,-0.46685 0.46147,-0.55345 -9.2e-4,-0.0866 -0.32835,-0.3536 -0.72761,-0.59325 -0.39927,-0.23964 -1.95578,-1.21053 -3.45818,-2.15749 l -2.73214,-1.72186 -63.90307,-0.0145 c -48.15488,-0.0111 -63.99427,-0.0906 -64.2736,-0.32246 -0.20387,-0.16919 -0.37052,-0.41983 -0.37052,-0.55655 0,-0.13671 -0.3091,-0.92565 -0.68678,-1.75338 -0.37767,-0.82773 -1.70078,-3.52889 -2.94039,-6.00274 -1.2396,-2.47386 -2.75458,-5.39088 -3.36672,-6.48229 -0.61215,-1.0914 -1.38695,-2.46063 -1.72134,-3.04271 -0.33438,-0.58209 -0.99321,-1.65365 -1.46399,-2.38125 -0.47077,-0.72761 -1.31965,-2.07185 -1.88671,-2.9869 -0.56705,-0.91487 -2.15781,-3.23677 -3.53467,-5.15937 -1.37686,-1.92261 -2.59655,-3.61446 -2.71043,-3.75998 -0.11387,-0.14553 -0.99939,-1.27661 -1.96783,-2.51354 -0.8887,-1.13486 -2.37436,-2.91498 -4.04885,-3.82819 0.77422,-2.00767 0.90729,-4.32782 0.7984,-6.52467 -0.0649,-1.63709 -0.32174,-3.290738 -1.00408,-4.710818 -0.81023,-1.88705 -1.99538,-3.49509 -3.41322,-4.6917 -1.28688,-1.16811 -2.76425,-1.94933 -4.20698,-2.75952 -0.81605,-0.36662 -1.70942,-0.40205 -2.49546,-0.88522 -1.36918,-0.56538 -2.8108,-0.77662 -4.21008,-1.19734 -2.10958,-0.58964 -4.25467,-0.92686 -6.40322,-1.20407 -5.17873,-0.78677 -10.39057,-1.1929 -15.60267,-1.4428 -0.61381,-0.21864 -0.93819,-1.00817 -1.37459,-1.53582 -1.13137,-1.70058 -2.24119,-3.42293 -3.41168,-5.08238 -1.89049,-2.78866 -3.80101,-5.56266 -5.72316,-8.31267 -0.50865,-1.08060997 -1.72742,-1.48456997 -2.59623,-0.86041997 -0.81582,0.54478 -0.8133,1.95872997 -0.34778,2.82515997 1.31149,2.35826 2.88913,4.46705 4.37699,6.65282 1.40259,1.98781 2.73714,4.04788 4.06022,6.11849 -4.04647,0.21167 -8.1097,0.10556 -12.13673,0.7245 -1.76838,0.22105 -3.58315,0.2759 -5.28339,0.97979 -1.52312,0.7455 -2.63502,2.71743 -2.53887,4.78782 -0.0396,1.98201 0.67116,3.97155 1.85209,5.2834 1.14393,1.26199 2.79544,1.07963 4.14703,1.52962 2.72066,0.87235 5.35318,2.110938 8.01088,3.233908 3.39211,1.56669 6.76757,3.14226 9.86813,5.50354 0.58463,0.43512 1.16254,0.88613 1.70842,1.39475 -1.44243,0.0849 -2.87477,-0.2447 -4.30826,-0.29766 -1.85692,-0.14107 -3.69635,-0.49642 -5.51594,-0.9679 -2.56332,-0.54376 -5.13269,-1.05231 -7.68119,-1.69447 -1.25915,-0.25071 -2.73156,-0.40338 -3.78478,0.67955 -0.78257,0.89632 -1.23223,2.16655 -1.5291,3.41633 -0.19398,1.37874 -0.07,2.80781 0.16639,4.1615 0.31046,1.28153 1.00741,2.5322 2.08877,2.89698 1.72306,0.81991 3.59051,0.89054 5.35419,1.51722 1.09399,0.28381 2.25465,0.27066 3.27577,0.89659 1.89895,0.64323 3.6628,1.68186 5.48442,2.58175 0.8582,0.39364 1.73026,0.74798 2.54558,1.27744 1.12533,0.60631 2.23141,1.28876 3.40444,1.74305 0.58476,0.17907 1.063,0.69954 1.6521,0.89658 2.6589,1.21713 5.18937,2.83234 7.70237,4.454 1.64333,1.16058 3.45821,2.22322 4.80074,3.83284 0.36593,0.54943 0.99088,0.97697 1.0449,1.75131 -0.12173,0.40163 -0.60653,0.29675 -0.89245,0.39998 -1.75197,0.1821 -3.50216,-0.0821 -5.24981,-0.21033 -1.66825,-0.14472 -3.28314,-0.72476 -4.93148,-1.00304 -1.05302,-0.20664 -2.04425,-0.62791 -3.11816,-0.80098 -1.32005,-0.24052 -2.58316,-0.79377 -3.9026,-1.03663 -1.37498,-0.32399 -2.72165,-0.80031 -4.12327,-1.08831 -0.7222,-0.13768 -1.44896,-0.39606 -2.16834,-0.46147 -1.61646,0.5614 -3.36558,1.36242 -4.29018,3.2427 -1.32189,2.43987 -1.55526,5.46206 -1.83968,8.30699 -0.0821,1.12084 -0.10767,2.26717 -0.38757,3.34656 -2.43803,-1.90013 -5.17262,-3.21112 -7.99848,-3.85403 -1.95061,-0.39529 -4.15595,-0.30641 -5.77019,1.30018 -0.85059,0.81214 -1.46915,2.06838 -1.43609,3.43649 -0.022,1.19845 -0.0147,2.4622 0.50747,3.51606 0.64076,1.48907 1.5661,2.77533 2.70526,3.69125 0.88463,0.7809 1.85944,1.40489 2.92282,1.69705 2.15087,0.74807 4.39701,1.12755 6.63112,1.08676 1.67596,-0.16857 3.33805,-0.76634 4.81159,-1.78181 0.47398,-0.37867 0.8847,-0.87515 1.38389,-1.20457 0.51635,0.28776 1.01315,0.63715 1.57252,0.78083 1.10755,0.52691 2.2623,1.1267 3.38429,1.69395 1.01627,0.61586 2.12699,0.9188 3.13314,1.56011 1.38141,0.74349 2.73845,1.59779 4.18631,2.11202 0.9632,0.7492 2.0969,1.03342 3.10627,1.66708 2.97241,1.60738 5.85847,3.46246 8.65528,5.50096 0.95808,0.71785 1.81723,1.58597 2.55437,2.577103 0.22094,0.3023 0.57554,0.72758 0.42426,1.16582 -0.79809,0.41118 -1.70263,0.30817 -2.55178,0.31574 -2.32351,-0.13707 -4.66984,-0.25209 -6.94066,-0.95653 -1.22719,-0.2335 -2.42861,-0.48686 -3.61322,-0.8847 -1.25535,-0.25526 -2.50537,-0.55551 -3.73104,-0.977203 -1.24938,-0.28038 -2.44585,-0.59639 -3.66747,-0.96428 -1.25124,-0.33117 -2.51265,-0.60287 -3.76928,-0.90124 -1.61995,0.56408 -3.38317,1.33534 -4.3279,3.207563 -1.35127,2.4475 -1.58715,5.50036 -1.87379,8.36848 -0.0821,1.12084 -0.10769,2.26664 -0.38757,3.34605 -2.43803,-1.90015 -5.17263,-3.21059 -7.99848,-3.85351 -1.9506,-0.39529 -4.15596,-0.3064 -5.77019,1.30017 -0.85058,0.81215 -1.46915,2.06838 -1.43609,3.43649 -0.022,1.19845 -0.0142,2.46219 0.50798,3.51606 0.64078,1.48904 1.56559,2.77532 2.70474,3.69125 0.88463,0.78089 1.85944,1.40488 2.92282,1.69705 2.15086,0.74779 4.39709,1.12791 6.63112,1.08624 1.64679,-0.16178 3.27508,-0.75279 4.73615,-1.71152 0.48313,-0.40012 1.07147,-1.0582 1.67431,-0.59841 0.70667,0.39574 1.4298,0.73968 2.16059,1.05058 3.4765,1.87509 6.99415,3.76635 10.19266,6.3376 1.82439,1.68191 3.76445,3.29791 4.94906,5.80274 0.47248,0.99036 0.57491,2.16614 0.64182,3.29179 0.0504,1.17952 -0.87998,1.90116 -1.66398,2.23604 -1.26015,0.48476 -2.60552,0.6109 -3.91708,0.72657 -2.96664,0.20596 -5.89675,-0.0203 -8.8377,-0.51625 -0.61349,-0.12864 -1.29124,-0.17209 -1.84278,-0.50539 -0.006,-1.44413 0.30711,-3.04909 -0.31781,-4.4018 -0.87807,-2.3066 -2.35486,-4.30749 -4.20698,-5.41259 -0.69243,-0.2637 -1.30435,-0.79248 -2.0097,-0.99167 -1.0797,-0.24966 -2.19622,-0.18303 -3.28093,-0.0295 -1.84932,0.43438 -3.57035,2.15689 -3.99666,4.51239 -0.58499,2.38001 -0.58899,4.96455 0.008,7.3396 0.52612,2.31889 1.79456,4.26916 3.26595,5.77278 0.96717,0.91198 1.96437,1.63905 3.07475,2.25722 0.49715,0.29414 0.94312,0.73672 1.49862,0.88057 0.72224,0.21855 1.36409,0.69328 2.08411,0.91984 0.76618,0.22815 1.1016,1.18515 1.54047,1.89756 0.99287,1.82614 1.87728,3.83632 2.88716,5.69164 0.77319,1.72237 1.67991,3.34118 2.48977,5.03432 0.25233,0.38294 0.264,0.69394 -0.18965,0.8139 -0.95174,0.47296 -1.88157,1.02521 -2.69286,1.81746 -1.50533,1.35494 -2.95315,2.89438 -4.01422,4.81315 -0.95631,1.98315 -1.83825,4.05512 -2.31872,6.30452 -0.80526,3.66699 -1.24717,7.45014 -1.36013,11.24789 -2.60693,-4.59784 -5.62295,-8.85354 -9.05629,-12.50931 -2.55336,-2.64991 -5.38747,-4.88759 -8.42223,-6.56911 -0.81094,-0.40063 -1.64124,-0.72528 -2.43706,-1.17305 -1.05542,-0.41902 -2.07586,-1.00171 -3.1874,-1.16479 -1.43486,-0.51699 -2.90305,-0.90049 -4.39973,-0.96997 -2.80729,-0.23204 -5.70655,0.0381 -8.33955,1.35548 -1.05697,0.62947 -2.12095,1.26939 -3.01377,2.23552 -0.65936,0.65135 -1.28858,1.36765 -1.83968,2.16369 -0.3259,-2.2501 -0.64066,-4.45908 -0.73845,-5.04362 -0.23241,-1.38895 -1.74512,-7.61245 -1.74512,-7.61245 0.038,-0.5761 -2.68498,-11.70939 -4.61109,-18.8526 -1.74307,-6.4643 -1.71911,-6.3756 -2.50889,-9.3245 -0.88247,-3.29502 -1.25465,-4.62245 -3.50314,-12.50208 -1.12963,-3.95867 -1.81095,-6.78167 -1.77354,-7.34993 0.0523,-0.79258 0.53086,-1.92589 1.5012,-3.55534 1.31227,-2.20348 7.78982,-15.236243 10.61124,-21.349093 0.84124,-1.82268 1.46125,-2.90023 2.12029,-4.37751 0.96685,-2.16717 2.20001,-5.06949 2.68872,-6.57582 0.48869,-1.50636 1.13609,-4.07789 1.30948,-4.75424 2.04239,-7.96914 2.48519,-17.78646 1.08366,-24.00938 -0.60466,-2.68351 -2.26657,-5.89041 -3.98994,-7.69876 -2.72457,-2.85874 -4.73706,-3.8819 -8.20467,-4.17132 -3.60334,-0.30083 -7.38655,0.54436 -10.90889,2.43654 -1.89986,1.02065 -4.49824,3.06976 -5.21674,4.11396 -0.31843,0.46279 -0.72541,0.97137 -0.90434,1.13017 -0.5526,0.49035 -2.86065,4.84058 -3.4866,6.57117 -0.51116,1.41322 -1.08693,3.62767 -1.9017,7.31894 l -0.2005,0.90847 c 0,0 -0.49831,2.57084 -0.61443,4.0442 -0.11641,1.47325 -0.17105,4.78627 -0.17105,4.78627 -0.11945,1.85769 2e-5,6.15454 0.2191,7.89512 0.14333,1.13834 0.38016,2.87822 1.25316,9.21288 0.12994,0.94288 0.45469,2.63861 0.7214,3.76824 0.26671,1.12967 0.91583,4.04484 1.44281,6.47816 0.52694,2.43334 1.09131,4.91221 1.25367,5.50871 0.16238,0.59649 0.37297,1.37754 0.4687,1.735293 0.62494,2.33574 1.09953,4.08049 1.89498,6.97012 0.49723,1.80604 0.89346,3.44444 0.88056,3.6406 -0.0137,0.19607 -0.32552,0.91775 -0.69401,1.60352 -0.3685,0.68571 -1.19864,2.24719 -1.84537,3.47059 -0.64659,1.22337 -1.30003,2.3897 -1.4521,2.59158 -0.15201,0.20193 -0.6953,1.15392 -1.20717,2.11563 -0.51188,0.96174 -1.56065,2.78851 -2.3306,4.05918 -1.45938,2.40854 -2.54279,4.40095 -4.91443,8.91987 0.21475,-1.5754 0.1602,-3.21209 0.1173,-4.77387 -0.23005,-2.10323 -1.46231,-4.01848 -3.20032,-5.20123 -3.45721,-2.90633 -7.61226,-4.79551 -11.68404,-6.65851 -0.7005,-0.2998 -0.13632,-1.2025 0.48369,-1.05058 2.04869,-0.0829 4.27,0.0852 6.13089,-0.93741 2.52806,-1.96448 2.96759,-6.16728 0.78135,-8.53591 -1.55477,-1.44395 -3.80807,-1.53024 -5.73453,-2.16628 -7.57572,-2.04218 -15.17264,-4.22877 -22.25549,-7.659483 -2.99141,-1.46464 -6.05461,-3.21411 -8.1902,-5.87923 -0.68806,-0.60221 0.77851,-0.0783 1.12345,-0.14056 7.51992,0.89424 15.00894,2.21732 22.56503,2.89285 3.78537,0.23958 7.59191,0.22506 11.37656,-0.007 2.79184,-0.26987 5.82562,-1.2276 7.47138,-3.65404 1.33183,-2.16986 1.12949,-4.83137 1.17409,-7.2719 -0.0505,-2.06802 -0.92451,-4.12499 -2.54351,-5.44618 -2.71741,-2.47907 -6.02468,-4.19588 -9.30796,-5.79913 -1.65535,-0.78802 -3.33218,-1.52996 -5.00331,-2.28358 2.86413,-1.22682 5.58101,-3.09179 7.1453,-5.85494 1.98803,-3.37761 2.64381,-7.59397 1.58233,-11.38484 -1.17415,-3.69982 -3.97904,-6.61031 -6.92516,-9.01185 -3.40491,-2.7118 -7.20486,-4.88641 -11.06186,-6.88124 -1.39789,-0.65763 -2.76759,-1.5304 -4.28552,-1.82934 -1.87388,0.22351 -2.54221,2.88281 -1.22163,4.12016 1.19807,1.29018 2.99248,1.70096 4.45967,2.59364 4.74041,2.36818 9.43442,5.09981 12.97699,9.14466 1.57021,1.73249 2.74653,4.16376 2.16627,6.53914 -0.73461,1.42573 -2.55136,1.57051 -3.96926,1.72082 -3.73263,0.3093 -7.55086,0.15198 -11.20294,-0.62321 -0.63062,-1.0399 -0.009,-2.32505 -0.39532,-3.44424 -0.70035,-3.60301 -3.63455,-6.6542 -7.15822,-7.61142 -2.54089,-0.61115 -5.53667,0.49404 -6.66626,2.94762 -1.29068,2.49803 -1.2718,5.44302 -0.91416,8.16436 0.54954,3.35999 2.47507,6.47336 5.30976,8.37934 2.7247,2.0545 6.01668,3.12186 9.27643,3.98322 4.69031,1.49556 9.12534,3.66468 13.66945,5.53454 3.2638,1.51713 6.56121,3.14238 9.26869,5.55057 0.44172,0.37357 0.75346,1.26603 0.0372,1.53117 -1.53976,0.42467 -3.17483,0.29009 -4.76095,0.30696 -9.01851,0.021 -17.87881,-2.13853 -26.9136,-2.12287 -2.7024,-0.0417 -5.50016,-0.0764 -8.07703,0.83406 -2.68415,1.2109 -4.32406,4.21471 -4.1646,7.11636 0.0127,3.09362 2.13788,5.63757 4.2726,7.65173 3.60103,3.25601 8.18838,5.044543 12.47728,7.178373 0.58443,0.0702 0.3272,0.53361 -0.0956,0.48008 -1.56794,0.0162 -3.41433,0.20298 -4.36925,1.6309 -2.07519,2.64336 -1.75481,6.99617 0.95912,9.08214 1.90377,1.3123 4.36969,0.80088 6.44147,1.64744 3.37323,1.16299 6.6119,2.6783 9.91464,4.02198 4.66247,1.95613 9.32529,3.85595 13.39401,6.90294 0.58886,0.48469 1.12634,1.05315 1.48415,1.73219 -0.79268,1.08075 -2.33347,0.84224 -3.50676,0.95395 -8.27975,0.24371 -16.44147,-1.63584 -24.70599,-2.0376 -3.53173,-0.14793 -7.11349,-0.38199 -10.61072,0.25786 -2.99228,0.5721 -5.36268,3.26898 -5.61051,6.29574 -0.0445,0.39356 -0.0578,0.78565 -0.0439,1.17461 l -5.1e-4,0.001 c 0.0972,2.72377 1.5649,5.29256 3.56205,7.11429 3.69302,3.50314 8.43958,5.51983 12.99042,7.64191 0.47672,0.26223 1.34613,0.62074 0.36277,0.62012 -1.41965,0.24283 -3.07342,0.0358 -4.17545,1.16014 -1.94564,1.89232 -2.23883,5.06435 -1.18339,7.48275 0.64271,1.53407 2.08013,2.66684 3.72949,2.9099 1.4877,0.32386 3.02157,0.61926 4.30826,1.48156 5.08263,2.52213 10.244,5.19384 14.22394,9.3307 1.84616,1.78006 3.29648,4.32304 2.91765,6.95926 -0.32094,1.40741 -1.93192,1.74633 -3.13779,2.01435 -3.11374,0.57068 -6.23989,0.36901 -9.32243,-0.0816 -0.98866,-0.17994 -2.03861,-0.25985 -2.97501,-0.58343 -0.16732,-0.7627 0.0857,-1.57854 -0.0558,-2.36316 -0.14083,-2.47144 -1.56136,-4.6784 -3.28507,-6.37119 -2.08364,-1.99078 -5.332,-3.03001 -8.06463,-1.82676 -2.17428,1.00188 -3.39163,3.35555 -3.58041,5.66614 -0.54582,3.62635 0.1016,7.53157 2.34095,10.50634 2.43563,3.33838 6.34636,5.26986 10.26862,6.26938 3.68179,0.86162 7.5836,0.97388 11.27218,0.0951 3.58583,-0.87544 6.96308,-3.01854 8.80205,-6.28489 2.4729,-4.2314 2.87152,-9.85625 0.31626,-14.14435 -2.77063,-4.36055 -7.02096,-7.47818 -11.33213,-10.18543 3.8666,-0.0658 7.77264,0.0218 11.59206,-0.6444 0.14363,-0.0537 0.26565,-0.13406 0.39791,-0.20206 0.95049,6.65939 2.91313,10.97989 6.85488,15.12725 2.35515,2.47797 5.09079,4.11116 8.62841,5.15007 3.54437,1.04088 6.32173,0.54295 7.69411,-1.37976 0.36713,-0.5143 0.35351,-0.55927 -0.27182,-0.89555 -0.36205,-0.19471 -1.09217,-0.51337 -1.62264,-0.70849 -4.7652,-1.7528 -9.73692,-5.95793 -11.88041,-10.04796 -2.49842,-4.76732 -3.53721,-11.49925 -2.56987,-16.65273 0.76119,-4.05503 2.05083,-7.37061 5.32525,-13.69064 2.54437,-4.91078 5.04398,-9.32841 7.7587,-13.71286 1.46732,-2.36974 2.86312,-4.64929 3.10111,-5.0648 0.23801,-0.41553 0.51778,-0.74775 0.6227,-0.73846 0.10485,0.0102 0.52179,1.16556 0.92604,2.56935 0.40421,1.40373 1.00571,3.48095 1.33635,4.61626 0.33062,1.13529 0.83401,2.89448 1.1188,3.90932 0.28479,1.01484 0.72085,2.53032 0.96893,3.36724 0.24809,0.83693 0.64928,2.25347 0.89193,3.14812 0.4354,1.6055 0.91219,3.25491 2.41691,8.36383 1.07654,3.65542 1.90602,6.65648 2.3983,8.67958 0.23164,0.95192 0.6859,2.75431 1.00976,4.00544 1.69779,6.55937 3.56912,16.61711 4.06022,21.82089 0.11205,1.1874 0.34097,3.45706 0.50849,5.04362 0.16753,1.58655 0.32359,3.60043 0.34727,4.47569 0.0237,0.87528 0.0911,2.54867 0.14986,3.71812 0.21631,4.30982 -0.83366,18.02894 -1.67328,21.86637 -0.88407,4.04005 -2.43947,8.4244 -3.89537,10.97969 -2.15457,3.78147 -5.62356,6.21849 -9.38134,6.79545 -0.37507,-0.0931 -0.74638,-0.20184 -1.12551,-0.27802 -1.00004,-0.20095 -2.00574,-0.37241 -3.01067,-0.54725 -0.62604,-0.10892 -1.25428,-0.19535 -1.88516,-0.2651 0.0242,0.16084 0.0467,0.32195 0.0718,0.48266 -2.34578,-0.75062 -4.86152,-1.99997 -6.83111,-3.43442 -4.04731,-2.94775 -6.78974,-8.03443 -6.81612,-12.64212 -0.002,-0.3407 0.0276,-0.60246 0.0429,-0.89762 2.03271,-0.11066 4.06386,-0.25132 6.09162,-0.4377 2.18097,-0.47998 3.3774,-2.86144 3.22564,-4.95991 0.0707,-2.1743 -0.4226,-4.61703 -2.17454,-6.06578 -1.50356,-0.82775 -3.2639,-0.30805 -4.88652,-0.43511 -7.23958,0.14014 -14.52746,0.80772 -21.73408,0.27595 -7.40589,-0.24589 -14.81659,-0.39057 -22.16092,-1.16479 -0.12038,-2.90658 0.13061,-5.88151 -0.48731,-8.7328 -0.70125,-1.34471 -3.2043,-1.31022 -3.49178,0.32763 -0.13711,1.76279 -0.0344,3.53915 -0.14676,5.30614 -0.0217,0.96288 -0.058,1.92562 -0.0909,2.88819 -3.53011,-0.28518 -7.07626,-0.74146 -10.62932,-1.02164 -6.25442,-0.59833 -12.53428,-1.27797 -18.71824,-2.50372 0.37985,-6.72008 1.26433,-13.46839 1.44126,-20.22667 0.0688,-3.4423 0.15438,-6.91696 -0.37879,-10.32806 -0.33681,-1.86759 -0.72989,-3.7908 -1.68569,-5.44721 -0.58232,-0.87491 -1.942481,-1.16397 -2.69337,-0.33796 -0.981084,0.86763 -0.827359,2.31646 -0.428914,3.43028 0.625089,2.49724 1.206937,5.05708 1.118278,7.66413 0.129749,6.8247 -0.694892,13.59178 -1.255221,20.40289 -0.608894,6.77071 -1.239149,13.55204 -1.349788,20.35225 0.13451,5.94794 0.321214,12.01383 1.831412,17.78806 -0.963271,-0.40425 -1.983053,-0.8144 -2.70216,-1.17978 -1.653828,-0.84028 -2.226782,-1.00125 -3.439584,-0.9648 -1.209284,0.0363 -1.555816,0.16016 -2.05052,0.73329 -0.327422,0.37933 -0.595313,0.83335 -0.595313,1.00873 0,0.17537 0.421205,0.79412 0.936377,1.37459 0.515154,0.58048 1.158899,1.47494 1.430404,1.98799 0.271485,0.51308 1.061252,1.70372 1.754931,2.64584 0.693698,0.94211 1.745898,2.36793 2.337842,3.16828 0.591944,0.80035 2.074727,2.64586 3.295406,4.10104 1.22068,1.45518 3.05107,3.45133 4.06693,4.43591 1.01586,0.98458 3.05392,2.67002 4.52944,3.74499 1.47551,1.07496 3.71401,2.54973 4.97438,3.27732 1.26036,0.72758 2.74866,1.47815 3.30729,1.66811 0.55861,0.18996 1.13502,0.42569 1.28054,0.52348 0.14552,0.0978 1.51478,0.55385 3.04271,1.01338 1.52794,0.45952 3.27112,1.06105 3.87366,1.33687 0.69918,0.32005 1.52209,1.05811 2.27428,2.04018 0.64824,0.84635 1.50762,2.13426 1.90996,2.86184 0.40235,0.72759 1.35991,2.27544 2.12804,3.43959 0.76813,1.16415 1.84501,2.74323 2.39262,3.50934 0.5476,0.7661 0.9358,1.45322 0.86248,1.52653 -0.0733,0.0733 -0.95473,-0.21049 -1.95854,-0.63046 -1.00381,-0.41997 -2.65867,-1.03296 -3.67729,-1.36219 -1.01863,-0.3292 -2.62601,-0.94937 -3.57188,-1.37821 -0.94587,-0.42886 -2.49371,-1.22988 -3.43958,-1.78025 -0.94587,-0.55039 -3.20248,-1.87183 -5.01417,-2.93626 -1.81168,-1.06442 -4.37158,-2.66129 -5.68854,-3.54862 -1.31695,-0.88732 -3.64436,-2.50031 -5.17229,-3.58427 -1.52793,-1.08397 -2.83766,-2.03706 -2.91042,-2.1177 -0.0728,-0.0806 -1.32293,-1.08852 -2.778122,-2.23966 -1.45517,-1.15114 -3.657901,-2.99064 -4.894791,-4.08812 -1.236908,-1.09749 -4.138149,-3.84362 -6.447152,-6.10247 -2.309004,-2.25885 -5.226092,-5.28101 -6.482292,-6.71536 -1.256181,-1.43432 -2.782669,-3.25035 -3.392041,-4.03592 l -1.107942,-1.42834 0.427364,-1.25574 c 0.235162,-0.69044 0.815231,-1.91671 1.28881,-2.7249 0.47356,-0.80819 1.672954,-2.40478 2.664954,-3.5481 0.991999,-1.14332 2.101182,-2.29683 2.464965,-2.56315 0.549575,-0.40232 0.891447,-0.44691 2.022099,-0.26562 0.992487,0.15914 1.546875,0.12066 2.04742,-0.14159 0.377487,-0.19779 0.866129,-0.70816 1.086239,-1.13378 0.220111,-0.42565 0.400492,-1.18174 0.400492,-1.68052 0,-0.49876 -0.168903,-1.31087 -0.375171,-1.80454 -0.206248,-0.49365 -0.59324,-1.08635 -0.859895,-1.31723 -0.266675,-0.23089 -0.978568,-0.54029 -1.581816,-0.6873 -0.660118,-0.16087 -1.647984,-0.18019 -2.480985,-0.0486 -0.761256,0.12034 -1.614676,0.42757 -1.896526,0.68264 -0.28183,0.25508 -0.752393,1.02194 -1.045931,1.70429 -0.29352,0.68233 -0.821587,1.51105 -1.173055,1.84123 -0.351449,0.33019 -0.696338,0.54235 -0.766878,0.47181 -0.07054,-0.0705 0.231352,-1.18492 0.67076,-2.47685 0.439426,-1.29192 0.919047,-2.89212 1.066085,-3.55534 0.147037,-0.66322 0.515703,-1.89024 0.819072,-2.72696 0.30335,-0.83675 0.644972,-1.52136 0.759126,-1.52136 0.114154,0 0.455184,-0.4008 0.758094,-0.8909 0.369728,-0.59826 0.55087,-1.33548 0.55087,-2.24276 0,-0.83915 -0.182389,-1.65109 -0.48059,-2.14147 -0.264155,-0.43435 -0.810152,-1.04914 -1.213363,-1.36632 -0.573499,-0.4511 -1.069201,-0.57161 -2.276864,-0.55449 -0.84911,0.012 -1.789074,0.17458 -2.088761,0.36173 -0.299687,0.18716 -0.620278,0.52172 -0.712618,0.74311 -0.09234,0.22141 -0.259023,0.78255 -0.37052,1.24695 -0.111496,0.46438 -0.08617,1.93587 0.05633,3.27009 0.235444,2.20456 0.205519,2.58618 -0.325561,4.18269 -0.321429,0.96622 -0.679423,1.85909 -0.795301,1.98386 -0.115877,0.12476 -0.347928,-0.0307 -0.516247,-0.3452 -0.203238,-0.37974 -0.248001,-1.25585 -0.132809,-2.60811 0.158698,-1.86298 0.119858,-2.11486 -0.455269,-2.9621 -0.345747,-0.50932 -1.100852,-1.18447 -1.677934,-1.50016 -0.577063,-0.31569 -1.465769,-0.58284 -1.975073,-0.59376 -0.509304,-0.0109 -1.369065,0.10336 -1.910478,0.25373 -0.541393,0.15036 -1.16649,0.53334 -1.389062,0.85111 -0.222572,0.31776 -0.404627,0.88723 -0.404627,1.26555 0,0.38603 0.520913,1.43404 1.187525,2.38849 0.653256,0.93535 1.189025,1.80193 1.190625,1.92546 0.0016,0.12353 0.169738,0.59978 0.37362,1.05834 0.203902,0.45853 0.49475,1.21913 0.646473,1.69033 0.151704,0.47118 0.848308,1.72138 1.547709,2.77813 l 1.271757,1.92133 v 2.38125 c 0,1.30966 -0.100539,2.8575 -0.223243,3.43958 l -0.223242,1.05833 -0.646472,-0.79375 c -0.355687,-0.43654 -1.754692,-2.46066 -3.108854,-4.49791 -1.354162,-2.03726 -2.94703,-4.4781 -3.539836,-5.42396 -0.592787,-0.94587 -1.875249,-3.14856 -2.849438,-4.89479 -0.974189,-1.74622 -2.680477,-5.02051 -3.792017,-7.27605 l -2.021065,-4.10104 0.0052,-2.64583 c 0.003,-1.48126 0.222329,-3.7522 0.49816,-5.15938 0.270996,-1.38242 0.768876,-3.60573 1.106393,-4.94078 0.337518,-1.33505 1.147187,-4.01401 1.799373,-5.95312 0.652205,-1.93912 1.43196,-4.24028 1.732711,-5.11339 0.300751,-0.8731 0.661037,-1.82562 0.800468,-2.11666 0.139431,-0.29103 0.686908,-1.48169 1.216463,-2.64584 0.529575,-1.16414 1.200949,-2.712 1.491899,-3.43958 0.290931,-0.72759 0.74143,-2.03731 1.000972,-2.91042 0.259562,-0.8731 0.631644,-2.18281 0.82734,-2.91041 0.218952,-0.81406 0.358252,-2.79861 0.362252,-5.15938 0.0035,-2.10999 -0.152492,-5.14615 -0.346749,-6.74688 -0.194257,-1.60073 -0.525092,-3.973 -0.735356,-5.27151 -0.210263,-1.29851 -0.604973,-2.86402 -0.876949,-3.47886 -0.374852,-0.84746 -0.676639,-1.15324 -1.248502,-1.26452 -0.41491,-0.0808 -1.21799,-0.0631 -1.784388,0.0393 -0.647344,0.11694 -1.209717,0.43221 -1.514119,0.84801 -0.26633,0.3638 -0.660502,1.31578 -0.875916,2.11615 -0.215395,0.80036 -0.708952,2.52677 -1.09709,3.83646 -0.388157,1.30969 -0.979967,3.69201 -1.315165,5.29271 -0.335216,1.6007 -0.754415,4.51779 -0.93121,6.48229 -0.176796,1.96449 -0.371542,5.00066 -0.432532,6.74687 -0.06934,1.98556 0.03177,4.11614 0.269235,5.68803 0.244251,1.61697 0.307617,3.03261 0.177767,3.96875 -0.111031,0.80035 -0.766765,2.94353 -1.456759,4.7625 -0.689994,1.81898 -1.49014,3.94392 -1.778186,4.72116 -0.288047,0.77723 -0.680402,1.71468 -0.871781,2.08359 -0.347951,0.67067 -0.348033,0.67088 -1.128097,-0.88367 -0.429101,-0.8551 -1.049609,-2.3884 -1.378727,-3.40702 -0.329137,-1.01863 -0.759741,-2.35808 -0.957048,-2.97657 -0.197307,-0.61849 -0.431558,-1.58174 -0.520898,-2.14043 -0.116985,-0.73157 -0.01855,-1.30541 0.352433,-2.05053 0.283316,-0.56902 0.839314,-2.10615 1.235584,-3.41581 0.396251,-1.30966 0.882294,-2.91704 1.080037,-3.57187 0.197743,-0.65484 0.606251,-2.47664 0.907955,-4.04833 0.395877,-2.06231 0.548804,-3.90852 0.548804,-6.63319 0,-2.73125 -0.141797,-4.43935 -0.512114,-6.17224 -0.281525,-1.31747 -0.758183,-3.1546 -1.059367,-4.08244 -0.301166,-0.92765 -0.70951,-2.04339 -0.907438,-2.47995 -0.197929,-0.43655 -1.820743,-3.73173 -3.605981,-7.32255 l -3.245797,-6.52932 c 0,0 -2.053501,-4.55799 -2.900598,-6.90707 -0.635353,-1.7619 -1.080843,-3.75588 -1.631425,-5.37641 -0.107115,-0.31527 -0.970483,-0.45527 -0.970483,-0.45527 -0.549284,0 -1.191956,0.0747 -1.428337,0.16536 -0.236382,0.0907 -0.649299,0.59628 -0.917773,1.12396 -0.268492,0.52775 -0.739171,1.80294 -1.045415,2.83342 -0.306225,1.03047 -0.847325,3.29326 -1.20251,5.0276 -0.355204,1.73441 -0.839397,4.93873 -1.075904,7.12153 -0.236489,2.18271 -0.459533,4.07962 -0.496093,4.21473 -0.03656,0.13511 -0.476534,-0.26654 -0.977202,-0.89142 -0.500671,-0.62489 -2.414651,-2.48696 -4.253491,-4.13773 -1.83865,-1.65076 -4.05678,-3.88779 -4.92889,-4.97179 -0.87211,-1.08408 -2.04639,-2.7101 -2.60966,-3.61425 -0.56327,-0.90415 -1.33344,-2.0068 -1.71101,-2.44998 -0.55109,-0.64684 -0.87729,-0.79928 -1.65571,-0.76998 -0.53332,0.02 -1.20551,0.16216 -1.49345,0.31626 -0.28794,0.1541 -0.59053,0.54925 -0.67283,0.87695 -0.0822,0.32769 -0.0247,1.15433 0.12816,1.83658 0.1529,0.68224 0.57624,3.81726 0.94051,6.9665 0.45688,3.94987 0.91907,6.63925 1.48983,8.67234 0.45507,1.621 1.18475,4.07872 1.62161,5.46117 0.43685,1.38244 1.25895,3.68803 1.82728,5.12268 0.56834,1.43462 1.63702,3.74476 2.37453,5.13354 0.73751,1.38878 1.88417,3.31047 2.54816,4.27054 0.66399,0.96007 1.80661,2.51904 2.53938,3.46491 0.73276,0.94586 2.35013,2.91045 3.594099,4.36562 1.243924,1.45519 3.095333,3.52672 4.11396,4.60282 1.018627,1.07609 2.182366,2.29042 2.586406,2.69855 0.404021,0.40812 1.400487,1.55186 2.213818,2.54144 0.813332,0.98959 2.13004,2.79679 2.926436,4.01578 0.796415,1.21899 2.048042,3.47898 2.781226,5.02191 0.733183,1.54293 1.56262,3.46212 1.842782,4.26538 0.280143,0.80327 0.930639,2.7538 1.445389,4.3341 l 0.935861,2.87321 -0.875399,0.90279 c -0.772549,0.79706 -0.872418,1.06523 -0.854728,2.28926 0.0123,0.85084 0.231593,1.79366 0.567407,2.4412 0.300955,0.58033 1.469053,1.94873 2.596224,3.04012 1.12717,1.09139 2.55816,2.67303 3.179651,3.51452 0.621472,0.84148 1.485251,2.28119 1.919262,3.1998 0.434029,0.91861 0.870714,2.10575 0.970484,2.63757 0.106653,0.56851 0.07628,0.96686 -0.07338,0.96686 -0.140001,0 -0.659295,-0.12877 -1.153934,-0.28629 -0.494658,-0.15751 -1.137296,-0.38869 -1.428337,-0.51366 -0.291042,-0.12497 -1.422155,-0.60489 -2.513542,-1.06608 -1.091387,-0.4612 -3.07684,-1.36551 -4.412133,-2.0097 -1.465345,-0.70693 -2.948631,-1.66591 -3.741374,-2.41846 -1.083063,-1.02813 -1.365086,-1.49281 -1.607137,-2.64893 -0.161447,-0.77113 -0.293522,-2.32723 -0.293522,-3.45767 0,-1.16128 -0.215865,-2.87711 -0.496094,-3.94446 -0.272787,-1.03901 -1.069866,-3.35203 -1.771468,-5.14078 -0.701601,-1.78875 -2.062511,-4.80036 -3.024105,-6.69209 -0.961593,-1.89174 -2.41437,-4.45215 -3.228227,-5.68906 -0.813858,-1.2369 -1.836281,-2.58531 -2.271696,-2.99724 -0.725278,-0.68616 -0.887788,-0.73031 -1.941488,-0.52193 -0.91583,0.18114 -1.20209,0.37462 -1.40456,0.95033 -0.17206,0.48939 -0.15497,1.00009 0.0506,1.58027 0.16763,0.47133 0.61169,2.82137 0.98651,5.22242 0.37464,2.40104 0.89806,5.28235 1.16272,6.40271 l 0.4811,2.03708 -0.97306,-0.84646 c -0.53507,-0.46552 -2.29247,-1.97758 -3.90571,-3.36 -1.61325,-1.38243 -3.60263,-2.9898 -4.42092,-3.57187 -0.81829,-0.58208 -1.63262,-1.17792 -1.80919,-1.32344 -0.17658,-0.14551 -0.73763,-0.56912 -1.24695,-0.94206 -0.50932,-0.37293 -2.32109,-1.47472 -4.02611,-2.44791 -1.70503,-0.97319 -4.14581,-2.29555 -5.4239592,-2.93884 -1.27815,-0.6433 -3.06467,-1.47684 -3.96979,-1.85208 -0.90493,-0.37525 -2.1157,-0.68213 -2.69027,-0.68213 -0.57457,0 -1.24178,0.0759 -1.48311004,0.16846 -0.24124,0.0926 -0.54405,0.44453 -0.67283,0.7829 z M 97.469105,260.3334 c 0.151958,-0.0506 0.680241,0.24576 1.173572,0.65887 0.493312,0.41311 1.651993,1.30251 2.575033,1.97611 0.92304,0.67359 2.8691,2.02575 4.32428,3.00498 1.45519,0.97924 2.74863,1.87655 2.87425,1.99368 0.12561,0.11713 -0.76738,0.15302 -1.98438,0.0796 -1.217,-0.0734 -2.70567,-0.31217 -3.30781,-0.53072 -0.60215,-0.21854 -1.51463,-0.83315 -2.02778,-1.36529 -0.51316,-0.53216 -1.601119,-2.03773 -2.417937,-3.34605 -0.816819,-1.30833 -1.361185,-2.42052 -1.209228,-2.47117 z m 3.061825,-44.48308 c -0.0148,-1.7892 0.0109,-3.57939 0.0997,-5.3666 5.67487,1.11972 11.44093,1.6704 17.17828,2.3673 3.64454,0.42302 7.37907,0.69014 10.98744,1.01958 0.70852,0.0898 1.41583,0.19042 2.11925,0.31419 0.17766,2.75367 -0.18498,5.60473 0.66198,8.27185 0.66964,1.31985 3.01228,1.21378 3.33209,-0.31781 0.57011,-2.05374 0.15428,-4.2539 0.308,-6.36809 0.067,-0.53997 -0.29428,-1.52081 0.60254,-1.20613 6.6215,0.19119 13.21315,0.85254 19.8453,0.97152 5.15006,0.17602 10.30886,0.21873 15.46211,0.0894 -0.14535,2.02827 -0.14143,4.40891 0.24391,5.88491 0.6254,2.39525 1.09611,3.47658 2.36368,5.43119 3.70777,5.71755 9.41799,8.91621 17.14728,9.60717 0.0825,0.007 0.16407,0.005 0.24649,0.0109 0.008,0.0361 0.0148,0.0724 0.0227,0.10852 0.0155,0.0357 0.0297,0.0348 0.046,0.0729 0.28017,0.65484 0.66903,1.54783 0.86403,1.98438 0.19498,0.43656 0.58716,1.38908 0.87178,2.11666 0.28461,0.72759 0.90242,2.45404 1.37253,3.83646 0.47011,1.38242 1.43634,3.7042 2.14716,5.15938 0.7108,1.45518 1.58107,3.15196 1.93373,3.77031 0.35265,0.61835 1.41143,2.10667 2.35283,3.30729 0.9414,1.20062 2.70714,3.1617 3.9243,4.35787 1.21715,1.19617 2.72502,2.54965 3.35019,3.00809 0.62518,0.45845 1.09604,0.87441 1.04644,0.92397 -0.0496,0.0496 -0.978,-0.0355 -2.06292,-0.18861 -1.08493,-0.15315 -6.3779,-0.37555 -11.76207,-0.49403 -5.38418,-0.11848 -10.50398,-0.3411 -11.37708,-0.49506 -0.87311,-0.15397 -2.24235,-0.20873 -3.04271,-0.12144 -0.80035,0.0873 -1.60404,0.27611 -1.78594,0.41961 -0.1819,0.14351 -0.33073,0.66369 -0.33073,1.15549 0,0.79223 0.18854,1.03087 1.65365,2.09599 0.90948,0.66119 2.52461,1.82187 3.58892,2.57917 1.06432,0.7573 2.55264,1.85523 3.3073,2.43965 0.75467,0.58442 2.02687,1.48503 2.82721,2.00143 0.80035,0.51641 1.99102,1.19229 2.64584,1.50171 0.65484,0.30942 1.84547,0.82373 2.64583,1.14257 0.80035,0.31885 2.16961,0.75274 3.04271,0.96428 0.87311,0.21154 2.54001,0.49393 3.70417,0.62787 1.16415,0.13394 2.92231,0.36188 3.90725,0.50643 0.98495,0.14456 2.25891,0.26303 2.83084,0.26303 0.57191,0 2.39788,-0.17826 4.05763,-0.39584 1.65975,-0.21758 3.77422,-0.63699 4.69842,-0.93224 0.9242,-0.29525 2.55817,-1.00997 3.63079,-1.58854 1.0726,-0.57856 2.06514,-1.05213 2.20555,-1.05213 0.1404,0 0.99413,0.34103 1.89755,0.75809 0.90343,0.41707 2.45916,1.08084 3.45664,1.47485 0.99749,0.394 2.36673,1.05432 3.04271,1.46761 0.67599,0.41327 1.91348,0.94895 2.75022,1.19011 0.83675,0.24116 1.52135,0.48255 1.52135,0.5364 0,0.0538 -0.11735,0.17046 -0.26045,0.2589 -0.14311,0.0884 -1.00631,0.32587 -1.91823,0.52762 -0.91192,0.20174 -3.08656,0.68338 -4.83277,1.07021 -1.74624,0.38684 -4.30613,0.87807 -5.68855,1.09193 -1.38243,0.21386 -2.8112,0.43682 -3.175,0.49557 -0.36381,0.0587 -1.97118,0.23041 -3.57187,0.38138 -1.60069,0.15096 -3.8034,0.39264 -4.89479,0.53692 -1.09139,0.14426 -4.24662,0.38622 -7.01146,0.53743 -2.76483,0.15121 -7.96091,0.33457 -11.54658,0.40773 -5.754,0.11741 -6.56953,0.0833 -6.94532,-0.29249 -0.23415,-0.23418 -0.42581,-0.63116 -0.42581,-0.88212 0,-0.25095 -0.54172,-1.33467 -1.20354,-2.40812 -0.66184,-1.07344 -1.56718,-2.37797 -2.01177,-2.89853 -0.44456,-0.52056 -2.07579,-2.23864 -3.6251,-3.81837 -1.54929,-1.57974 -4.00754,-3.85143 -5.46271,-5.04776 -1.45519,-1.19633 -3.35833,-2.70192 -4.2292,-3.34553 -0.87086,-0.64362 -1.70431,-1.22975 -1.85209,-1.30276 -0.14777,-0.073 -1.63795,-1.03412 -3.31142,-2.13579 -1.67345,-1.10166 -3.99523,-2.53173 -5.15938,-3.1781 -1.16413,-0.64637 -3.12872,-1.6686 -4.36562,-2.27118 -1.23689,-0.60257 -4.47456,-2.17864 -7.1944,-3.50211 -3.92534,-1.91008 -5.18351,-2.40605 -6.10092,-2.40605 -0.63566,0 -1.37892,0.16287 -1.65157,0.36225 -0.40556,0.29661 -0.48682,0.67188 -0.44752,2.09806 0.0263,0.9546 0.22444,2.49893 0.4408,3.43183 0.21635,0.93291 0.7016,2.51843 1.07797,3.52382 0.37637,1.00538 1.22869,2.84036 1.89394,4.07727 0.66523,1.23691 2.0735,3.5609 3.12952,5.16454 1.05604,1.60366 2.71369,3.77289 3.6835,4.82038 0.96981,1.04749 2.86175,2.78809 4.20439,3.86798 1.34265,1.07989 3.03166,2.34682 3.75326,2.81533 0.90648,0.58853 1.1076,0.80694 0.65061,0.70642 -0.3638,-0.08 -1.55445,-0.38035 -2.64583,-0.66714 -1.09139,-0.2868 -2.46065,-0.65953 -3.04271,-0.82838 -0.58207,-0.16885 -1.95132,-0.60584 -3.04271,-0.971 -1.09139,-0.36517 -2.46063,-0.97999 -3.04271,-1.36684 -0.58206,-0.38685 -1.75495,-1.35978 -2.60604,-2.16162 -0.85109,-0.80185 -2.116,-2.17219 -2.8112,-3.0453 -0.6952,-0.8731 -2.26134,-3.10086 -3.47989,-4.95008 -1.21855,-1.84922 -2.53189,-3.87334 -2.91868,-4.49792 -0.3868,-0.6246 -1.32248,-2.20691 -2.07895,-3.51658 -0.75646,-1.30966 -1.59653,-2.94067 -1.86707,-3.62458 -0.27054,-0.68392 -0.61773,-2.23177 -0.77153,-3.43959 -0.1538,-1.20782 -0.38153,-2.61297 -0.50591,-3.12229 -0.12438,-0.50931 -0.58206,-1.87856 -1.01699,-3.04271 -0.36855,-0.98646 -0.78987,-2.05112 -1.09244,-2.79466 1.5544,-1.66423 2.64012,-3.73709 2.86856,-6.04046 0.11642,-1.47427 -0.14546,-3.3805 -1.68052,-4.03334 -1.46325,-0.70167 -3.45656,0.0935 -3.84938,1.71669 -0.29771,0.88584 -0.17999,1.79186 -0.0413,2.69596 -0.7533,-1.44488 -1.64754,-3.11188 -2.29753,-4.09846 -0.81983,-1.24433 -1.88335,-2.75104 -2.36316,-3.34812 -0.47984,-0.59705 -3.20979,-4.14341 -4.35736,-5.19038 -0.14088,-0.14616 -3.13056,-2.64635 -3.13056,-2.64635 -0.80075,-0.65267 -1.96445,-1.44615 -2.58589,-1.7632 -0.99419,-0.50718 -1.26398,-0.54057 -2.24792,-0.2775 -0.61505,0.16444 -1.26711,0.4214 -1.44901,0.57051 -0.1819,0.14911 -0.33073,0.6926 -0.33073,1.20768 0,0.5151 0.28243,1.42309 0.62787,2.01796 0.34545,0.59485 0.81425,1.73645 1.04128,2.5368 0.22705,0.80034 0.60054,2.45729 0.82992,3.68194 0.22939,1.22464 0.58794,2.80226 0.79685,3.50573 0.20888,0.70346 0.30637,1.27899 0.21653,1.27899 -0.0898,0 -0.35162,-0.16804 -0.58136,-0.37362 -0.22974,-0.20557 -1.4296,-0.89086 -2.66651,-1.52238 -0.94638,-0.48318 -1.80838,-0.8865 -2.53059,-1.22112 -0.8498,-2.13201 -1.44296,-4.38525 -1.88309,-6.63267 -0.74505,-3.87684 -0.99291,-7.93145 -0.99426,-11.93415 z m 15.3293,8.91935 c -0.0911,-0.142 0.13009,0.22044 0.25373,0.43822 0.0744,0.10804 0.13064,0.18691 0.15658,0.22738 -0.10972,-0.18305 -0.0808,-0.15187 -0.41031,-0.6656 z m 20.36258,-87.22516 c 4.19956,0.44733 8.36147,0.98956 12.53153,1.64537 3.89158,0.5116 7.77666,1.14402 11.69851,1.36374 3.70931,0.17401 7.43833,0.28691 11.14403,0.11318 1.97065,-0.48322 4.14835,-0.94061 5.80378,-2.15698 -3.38545,6.64453 -4.87338,10.30366 -5.65702,14.37122 -0.4634,-0.29948 -0.9812,-0.51534 -1.54461,-0.60927 -3.71786,-1.06259 -7.47297,-1.99463 -11.16779,-3.14089 -6.36383,-1.91316 -12.65646,-4.18647 -18.36167,-7.58714 -1.69971,-1.05714 -3.27877,-2.36049 -4.44676,-3.99923 z m 5.68854,-84.492523 c 0.26629,-1.73283 2.66173,-2.4379 3.90932,-1.26039 1.52791,1.05598 2.68073,2.82562 2.81378,4.65915 -1.81324,-0.25843 -3.49487,-1.11364 -5.06067,-2.02779 -0.59514,-0.40195 -1.17445,-0.8429 -1.66243,-1.37097 z m 0.0517,124.269423 c 0.0124,-0.0794 0.0248,-0.1588 0.0372,-0.23823 0.40153,-1.59035 2.63331,-2.10482 3.7884,-0.99219 1.52193,1.06161 2.76208,2.82176 2.79363,4.68757 -1.86198,-0.4014 -3.67001,-1.16616 -5.2617,-2.21795 -0.47518,-0.37175 -1.05391,-0.71871 -1.35754,-1.2392 z m 30.54801,-48.63838 c 0.002,0.0496 0.001,0.0995 0.006,0.14935 0.007,0.015 0.0116,0.0589 0.0191,0.045 0.0136,-0.0235 0.004,-0.0526 -0.001,-0.0791 -0.008,-0.0385 -0.0176,-0.0766 -0.0238,-0.11524 z m 19.15335,-62.289223 c -2.4e-4,-1.13177 0.0222,-2.1714 0.0718,-3.19464 h 5.2e-4 c 0.0988,-2.04662 0.3072,-4.02748 0.65112,-6.5474 1.14494,-8.38994 2.59659,-11.98226 6.49314,-16.06465 1.8191,-1.90589 3.56577,-2.83666 5.07256,-2.7032 0.6586,0.0589 2.93145,1.05499 3.62097,1.5875 3.3272,2.56959 5.17472,6.62559 5.52473,12.13259 0.0634,0.99655 0.17219,2.58431 0.24236,3.52795 0.1187,1.5958 -0.145,6.36061 -0.42995,7.78299 -0.069,0.34317 -0.32541,1.79672 -0.57051,3.2303 -0.62972,3.67957 -1.76963,7.63517 -3.18378,11.04273 -0.46603,1.12294 -0.99692,2.50471 -1.17977,3.07062 -0.44631,1.3813 -4.73954,10.5814 -5.8813,12.60336 -0.50088,0.88701 -1.44162,2.70878 -2.09031,4.04833 -2.05912,4.252273 -2.20806,4.492783 -2.4753,3.987873 -0.26086,-0.49289 -1.18743,-4.023253 -1.40974,-5.370733 -0.0797,-0.48337 -0.63499,-2.99714 -1.23299,-5.58622 -1.77817,-7.69873 -3.02623,-15.52678 -3.15743,-19.80034 -0.0427,-1.3915 -0.0659,-2.61529 -0.0661,-3.74706 z m 10.41536,168.368543 c 2.23571,-0.85058 4.33651,-2.64832 4.94285,-3.03961 0.64258,-0.4147 0.88677,-0.86713 0.88677,-0.86713 2.64907,-2.59023 4.3112,-4.89229 5.38262,-7.45433 2.32132,-5.55092 3.09728,-9.09852 3.88658,-17.77204 0,0 0.47137,-3.30687 0.56534,-6.21306 0.0468,-1.44867 -0.0259,-4.24086 -0.11007,-6.67763 0.11424,0.13906 0.22039,0.28806 0.33796,0.42272 1.22534,1.53686 2.6809,2.73272 4.0995,3.96255 1.50092,1.4594 3.30324,2.27304 4.96868,3.37343 1.3568,0.90352 2.84385,1.4406 4.24678,2.1854 1.30411,0.60927 2.64703,1.08964 3.93412,1.74925 1.89257,0.61756 3.77499,1.28768 5.68596,1.81849 1.19993,0.28709 2.33472,0.94781 3.56722,1.02319 1.80605,0.48141 3.6119,1.02061 5.4529,1.32912 3.01157,0.64141 6.03452,1.1992 9.07283,1.59732 1.43282,0.32343 2.89327,0.65117 4.36408,0.74983 0.71097,0.0815 1.42294,0.1501 2.1332,0.24081 -3.71852,-0.0693 -7.44416,-0.0682 -11.14919,-0.5116 -3.65362,-0.37992 -7.31632,-0.61872 -10.96212,-1.11311 -3.29414,-0.38744 -6.57439,-0.92645 -9.87485,-1.22525 -1.11984,-0.0443 -2.28947,-0.12693 -3.3631,0.34055 -1.09962,0.57986 -1.70596,2.0184 -1.89601,3.42873 -0.25049,1.54009 -0.24487,3.20078 0.21032,4.6762 0.51216,1.0799 1.29631,1.9544 2.16266,2.5678 0.99271,0.49582 2.08757,0.4402 3.12022,0.73381 6.27345,1.22824 12.62595,1.65452 18.96422,2.00246 10.0603,0.4447 20.14068,0.19878 30.1842,-0.62683 2.64595,-0.24824 5.29075,-0.54606 7.9251,-0.94051 1.09863,-0.18211 2.11295,-0.57124 3.19981,-0.65371 0.57854,-0.0833 1.18053,-0.15361 1.76733,-0.28319 -0.23835,1.55869 -0.33881,1.80919 -0.89762,1.80919 -0.35401,0 -1.37071,0.25788 -2.25878,0.5731 -0.88787,0.31519 -1.79296,0.70216 -2.01124,0.85989 -0.21828,0.15772 -0.69454,0.45318 -1.05834,0.65681 -0.3638,0.20363 -1.52434,1.01771 -2.57865,1.80867 -1.05431,0.79097 -3.09428,2.58865 -4.53357,3.99511 -1.43929,1.40645 -2.66053,2.69148 -2.71353,2.85512 -0.053,0.16364 -0.90086,1.15987 -1.88464,2.21382 -0.98377,1.05395 -1.86017,2.19987 -1.94717,2.54662 -0.087,0.34673 -0.087,0.91391 0,1.26038 0.0958,0.38157 0.53954,0.81077 1.12551,1.08883 0.66423,0.3152 1.30747,0.41188 2.05311,0.3085 0.59728,-0.0828 2.01334,-0.45381 3.14658,-0.82475 1.13305,-0.37095 2.68105,-0.98852 3.43958,-1.37253 0.75852,-0.38402 2.21761,-1.26397 3.24218,-1.95492 1.02457,-0.69095 2.15566,-1.49905 2.51354,-1.79627 0.35788,-0.29724 1.62676,-1.3837 2.81998,-2.41381 1.19322,-1.0301 2.6815,-2.5375 3.30729,-3.35018 l 1.13792,-1.47795 2.11667,0.14211 c 1.16398,0.078 2.41431,0.21528 2.77812,0.30541 0.3638,0.0901 2.17273,0.2332 4.01939,0.31781 l 3.35794,0.154 -1.02578,1.48363 c -0.56407,0.81617 -1.7436,2.4962 -2.62103,3.7331 -0.87743,1.23691 -2.1603,3.08242 -2.85099,4.10105 -0.69069,1.01862 -2.4485,3.01297 -3.90622,4.43177 -1.68624,1.64122 -2.85705,2.57968 -3.21892,2.57968 -0.31283,0 -1.03022,0.20101 -1.5937,0.44649 -0.7623,0.3321 -1.72519,0.43873 -3.76308,0.41754 -1.50636,-0.0157 -3.05435,-0.14707 -3.43958,-0.29248 -0.38541,-0.14542 -1.41512,-0.46497 -2.28824,-0.70952 -0.87313,-0.24455 -2.18281,-0.6139 -2.91041,-0.82114 -0.7276,-0.20725 -2.63261,-0.55353 -4.23334,-0.76946 -1.60073,-0.21592 -3.98216,-0.52356 -5.29166,-0.68368 -1.30969,-0.16012 -3.453,-0.21879 -4.7625,-0.13023 -1.30969,0.0886 -3.41948,0.39324 -4.68809,0.67697 -1.26861,0.28372 -2.81956,0.68982 -3.44682,0.90278 -0.62727,0.21296 -2.06373,0.82575 -3.19153,1.36116 -1.128,0.5354 -2.84223,1.62168 -3.80907,2.41432 -0.96704,0.79265 -3.08152,2.68077 -4.69894,4.19561 -1.61742,1.51485 -3.49459,3.17713 -4.17132,3.69383 -0.67672,0.51671 -1.33562,0.93948 -1.46451,0.93948 -0.12888,0 -0.49336,0.27557 -0.80977,0.61237 -0.31641,0.33679 -0.57516,0.92794 -0.57516,1.31361 0,0.40485 0.20162,0.80917 0.47697,0.95653 0.26232,0.14039 2.13755,0.35293 4.16719,0.47233 2.02964,0.11939 5.17868,0.2124 6.9975,0.2067 1.81901,-0.006 5.24399,-0.207 7.61143,-0.447 2.36726,-0.23999 5.1656,-0.6334 6.2177,-0.87437 1.05229,-0.24096 2.92561,-0.73605 4.16254,-1.10019 1.23692,-0.36414 3.79677,-1.19929 5.68854,-1.85621 1.89177,-0.65693 3.67771,-1.29424 3.96875,-1.41594 0.29104,-0.12169 1.30307,-0.51621 2.24896,-0.87643 0.94588,-0.36022 2.6723,-0.97364 3.83646,-1.36322 1.16417,-0.38959 2.35479,-0.80589 2.64583,-0.92553 0.29104,-0.11964 0.88636,-0.29335 1.32292,-0.38551 l 0.79375,-0.16743 -0.66146,0.61133 c -0.36381,0.33611 -1.38902,1.20573 -2.2779,1.9327 -0.88888,0.72698 -2.5439,1.97674 -3.67781,2.77709 -1.13392,0.80035 -4.45467,3.24489 -7.37939,5.43223 -2.92491,2.18734 -5.73475,4.23204 -6.24407,4.54339 -0.50932,0.31136 -1.58089,0.83134 -2.38125,1.15549 -1.24886,0.50586 -1.89191,0.58247 -4.53822,0.54157 -3.0496,-0.0471 -3.08912,-0.04 -3.63802,0.65784 -0.30521,0.388 -0.55501,0.85156 -0.55501,1.02991 0,0.17834 0.30339,0.77158 0.67438,1.31826 0.371,0.54669 0.63891,1.02854 0.59531,1.07126 -0.0436,0.0427 -2.22218,1.11375 -4.84156,2.3797 -2.61937,1.26594 -6.01266,2.81286 -7.54063,3.43751 -1.52778,0.62465 -3.24617,1.3361 -3.81785,1.5813 -0.62102,0.26636 -1.4198,0.39519 -1.98438,0.31988 -0.51954,-0.0693 -1.71854,-0.32219 -2.66443,-0.56172 -0.94588,-0.23954 -2.61277,-0.77429 -3.70417,-1.18856 -1.09141,-0.41426 -3.38158,-1.29307 -5.08909,-1.95285 -1.70774,-0.6598 -3.84742,-1.71735 -4.75475,-2.35025 -0.90732,-0.63292 -1.92418,-1.55818 -2.25981,-2.0562 -0.33562,-0.49803 -0.78729,-1.56815 -1.00356,-2.37764 -0.21627,-0.80949 -0.55758,-2.06706 -0.75809,-2.79466 -0.2005,-0.72758 -0.9227,-3.04936 -1.60507,-5.15937 -0.68236,-2.11001 -1.8274,-5.00977 -2.54455,-6.44405 -0.71714,-1.43428 -1.86844,-3.45839 -2.5585,-4.49792 -0.69007,-1.03953 -2.62396,-3.26572 -4.29741,-4.94647 -1.67347,-1.68074 -3.45944,-3.4106 -3.96875,-3.84421 -0.50932,-0.43362 -1.92397,-1.6123 -3.14348,-2.61896 l -1.77095,-1.46141 c -0.14726,-0.12151 -0.32645,-0.19807 -0.48783,-0.30024 -0.39528,-0.25024 -0.783,-0.51179 -1.16789,-0.77773 -0.0649,-0.0448 -0.1425,-0.0678 -0.21187,-0.10645 z m 14.71952,-53.47736 c 0.0315,-0.21028 0.0529,-0.42259 0.11989,-0.6258 0.69003,-1.44357 1.97582,-2.25347 3.21014,-2.77037 0.9832,-0.37432 1.97641,-0.74405 2.99361,-0.80926 3.45499,-0.44032 6.94881,-0.20689 10.2924,0.95912 1.37416,0.44564 2.72619,0.98865 4.03799,1.66553 0.96025,0.39375 1.86802,0.97281 2.81224,1.42368 0.8502,0.40506 1.61697,1.03494 2.45876,1.4547 1.25914,0.98438 2.61164,1.77494 3.82457,2.8546 2.47477,2.02092 4.86833,4.30985 6.97167,6.94273 0.80238,0.99698 1.63002,1.9758 2.24999,3.16725 0.6108,0.99831 1.27773,1.93847 1.9203,2.90421 0.79515,-0.55322 1.88266,-0.94817 2.14405,-2.18643 0.19259,-2.00073 0.0499,-4.09636 0.19792,-6.06009 0.15617,-2.01098 0.6356,-3.96665 1.21595,-5.84512 1.35729,-4.13621 3.91435,-7.72857 7.22695,-9.50898 1.17007,-0.62105 2.41473,-1.12601 3.68505,-1.23404 0.45749,0.45219 0.6473,1.20321 1.09347,1.67587 3.14077,5.05112 6.47857,9.9434 10.30376,14.21102 2.92869,3.43045 6.15658,6.49532 9.72758,8.80876 1.11644,0.84159 2.39836,1.33593 3.54552,1.96268 2.07443,0.96682 4.33467,0.9637 6.51743,0.86609 3.12911,-0.39772 6.00644,-3.21789 6.93962,-6.99905 0.29582,-1.34917 0.16396,-2.76884 0.17726,-4.15014 0.0168,-1.14176 -0.15611,-2.27342 -0.52452,-3.31711 -0.3004,-0.89583 -0.47026,-1.85477 -0.90796,-2.67012 -1.62332,-3.5826 -3.81677,-6.74548 -6.39857,-9.29814 -1.35266,-1.37692 -2.75187,-2.69105 -4.28553,-3.73982 -1.68294,-1.33581 -3.51032,-2.3378 -5.2834,-3.46336 -0.89887,-0.4613 -1.83073,-0.81836 -2.71869,-1.31258 -0.94864,-0.33126 -1.8304,-0.90193 -2.80448,-1.12551 -1.38152,-0.42717 -2.72343,-1.04371 -4.13257,-1.33532 -1.4193,-0.31519 -2.84277,-0.61068 -4.25917,-0.94516 -2.86949,-0.39814 -5.77259,-0.38963 -8.65167,-0.20464 -0.75818,-1.1877 -1.36326,-2.53965 -2.04845,-3.80235 -0.83092,-1.55102 -1.56639,-3.18004 -2.35438,-4.76199 -0.39556,-0.48536 -0.53912,-1.23036 -0.90434,-1.69964 -0.0933,-0.19967 -0.51268,-0.81384 -0.14004,-0.71727 1.61436,0.17848 3.23882,0.25924 4.85397,0.0367 1.33441,-0.16335 2.68519,-0.31207 3.98373,-0.74 0.77282,-0.35792 1.55662,-0.45461 2.27377,-0.99632 0.87505,-0.40782 1.72815,-0.90306 2.49442,-1.58234 1.26919,-1.11717 2.41903,-2.49689 3.26233,-4.13153 0.40445,-0.87001 0.76871,-1.76972 0.92966,-2.76365 0.40014,-1.94992 0.74185,-4.02394 0.39222,-6.02392 -0.30789,-1.50766 -0.82461,-2.95761 -1.50223,-4.25607 -1.72945,-2.3406 -3.58386,-4.57996 -5.76812,-6.25027 -1.46201,-1.22646 -3.02268,-2.2205 -4.56768,-3.24528 -1.04991,-0.6264 -2.08678,-1.2837 -3.13418,-1.91513 -0.97348,-0.51006 -1.94935,-1.02961 -2.92902,-1.51205 -0.62444,-0.17605 -1.17946,-0.5842 -1.76837,-0.87488 0.29958,-0.88806 0.85789,-1.66475 0.88625,-2.67271 0.18174,-0.93337 0.5872,-1.84356 0.66921,-2.77347 0.19381,-1.03156 0.46695,-2.14748 0.96894,-3.09129 0.32888,-0.21132 0.73874,-4.1e-4 1.10071,-0.0346 1.50586,0.10654 2.9884,0.51152 4.48706,0.85731 2.64648,0.43801 5.27494,1.06426 7.94422,1.26298 2.45646,0.26902 4.94847,0.33808 7.38353,-0.22841 1.31368,-0.2323 2.58239,-0.87247 3.66437,-1.82883 0.92865,-0.82739 1.51439,-2.12486 1.75907,-3.50005 0.32231,-1.35341 0.2521,-2.80843 -0.12661,-4.12429 -0.33004,-1.471103 -0.97617,-2.843153 -1.95027,-3.786343 -1.66879,-1.83326 -3.54408,-3.34304 -5.49062,-4.67103 -1.1889,-0.9098 -2.46931,-1.63879 -3.75274,-2.29443 -0.64147,-0.63915 -1.48393,-0.81496 -2.16111,-1.37925 -1.76635,-1.02 -3.64433,-1.70588 -5.38572,-2.80086 -1.02138,-0.59602 -2.11212,-0.98538 -3.11402,-1.62626 -0.75448,-0.33097 -1.49479,-0.69964 -2.22932,-1.0914 -1.07436,-0.46106 -2.07991,-1.13308 -3.16363,-1.56632 -0.41155,-0.19403 -0.82665,-0.37774 -1.22473,-0.61288 0.22269,-0.56852 0.60052,-1.05976 0.6289,-1.72961 0.11914,-1.05152 0.56929,-1.9879 0.71623,-3.03702 0.21485,-1.15246 0.45833,-2.35604 1.0263,-3.31711 0.27371,-0.20373 0.64098,0.013 0.95239,-0.0382 1.55122,0.10228 3.07172,0.51137 4.61264,0.87023 2.64648,0.43805 5.27493,1.06375 7.94422,1.26245 2.45647,0.26902 4.94796,0.33861 7.38301,-0.22789 1.31368,-0.23229 2.58292,-0.87299 3.6649,-1.82935 0.92832,-0.82728 1.51419,-2.12462 1.75854,-3.49849 0.32234,-1.35388 0.25286,-2.80902 -0.12609,-4.12533 -0.33004,-1.47113 -0.97617,-2.84366 -1.95026,-3.78685 -1.66878,-1.83326 -3.54459,-3.34303 -5.49114,-4.67103 -1.1889,-0.90979 -2.46879,-1.6388 -3.75223,-2.29443 -0.64144,-0.63924 -1.48408,-0.81462 -2.16111,-1.37925 -1.74765,-1.01307 -3.60896,-1.68578 -5.33249,-2.77037 -0.58796,-0.33144 -1.18752,-0.62904 -1.7911,-0.91261 1.01451,-0.22971 2.02469,-0.52525 3.03082,-0.78703 0.50144,-0.26995 0.92633,-0.72142 1.43609,-0.9679 1.27925,-0.96376 2.43526,-2.55804 2.45515,-4.52324 0.0849,-1.3229 0.1418,-2.66814 0.1142,-3.9858 -0.23355,-0.79868 -0.80774,-1.32202 -1.20354,-1.98696 -0.95297,-1.34355 -2.07331,-2.51695 -3.37086,-3.30109 -0.65973,-0.53715 -1.21907,-1.31155 -2.01486,-1.53014 -1.79042,-0.824 -3.40281,-2.202878 -5.2679,-2.773988 -1.32019,-0.80413 -2.7007,-1.46014 -4.0814,-2.0898 4.69045,-0.20872 9.38447,-0.11569 14.07614,-0.0594 3.46362,4.350598 7.03608,8.643368 11.17193,11.988928 1.08861,0.72297 2.08785,1.63892 3.21892,2.26601 1.75568,1.13605 3.63902,1.95259 5.55987,2.52749 1.84335,0.43883 3.72712,0.76062 5.60793,0.62426 1.65455,-0.19287 3.33403,-0.63345 4.78885,-1.67174 0.0325,-0.0311 0.0583,-0.0723 0.0904,-0.10387 0.20227,0.29536 0.4407,0.56844 0.65577,0.8568 0.40965,0.54925 0.81123,1.10483 1.20871,1.66295 0.15911,0.22342 0.3099,0.45274 0.47078,0.67489 0.47088,0.65025 0.90575,1.12841 1.44694,1.92546 0.541,0.79715 1.23091,1.71417 1.53272,2.03812 0.30181,0.32396 1.56876,2.10675 2.81533,3.96152 1.24657,1.85476 2.54874,3.92964 2.89388,4.61057 0.34514,0.68092 0.75121,1.31427 0.90227,1.40767 0.15105,0.0934 0.57325,0.72674 0.93845,1.40766 0.36501,0.68083 0.99509,1.83349 1.39939,2.56109 0.4043,0.72761 1.31174,2.39448 2.01642,3.70416 0.70469,1.3096 1.87287,3.57188 2.5957,5.02709 0.72301,1.45512 1.7805,3.70169 2.35025,4.99246 0.56975,1.29069 1.72918,4.14828 2.57659,6.35 0.84723,2.20163 1.89886,5.07493 2.33629,6.38462 0.43744,1.30968 1.04481,3.21469 1.34979,4.23333 0.30498,1.01856 0.90343,3.16178 1.32963,4.762503 0.42619,1.60064 1.13858,4.51785 1.58337,6.48229 0.44478,1.96452 0.9332,4.16721 1.0852,4.8948 0.15201,0.72761 0.40298,2.09691 0.55759,3.0427 0.15462,0.94589 0.32779,2.01746 0.38499,2.38125 0.0572,0.36381 0.23593,1.97115 0.39739,3.57188 0.16147,1.60073 0.42112,3.56535 0.57671,4.36562 0.16467,0.8471 0.31268,6.04387 0.35398,12.43542 0.039,6.03902 0.0193,11.45646 -0.0434,12.03854 -0.0627,0.58208 -0.34795,3.20147 -0.63407,5.82084 -0.28611,2.61932 -0.6863,5.77456 -0.88936,7.01146 -0.20306,1.23691 -0.49196,2.78474 -0.64182,3.43958 -0.14986,0.65483 -0.41328,1.96455 -0.58549,2.91042 -0.1722,0.94586 -0.84574,3.86296 -1.49655,6.48229 -0.65081,2.61932 -1.64914,6.23131 -2.21847,8.02638 -0.56934,1.79508 -1.03546,3.40246 -1.03611,3.57188 -6.6e-4,0.16942 -0.63753,1.02238 -1.41542,1.89549 -0.7779,0.8731 -1.60717,1.96104 -1.84226,2.41742 -0.23528,0.45638 -1.23552,1.62918 -2.22261,2.60656 -0.98709,0.97738 -2.52409,2.30095 -3.41581,2.94091 -0.89172,0.63995 -1.9823,1.23579 -2.42311,1.32395 -0.44081,0.0882 -1.16598,0.53637 -1.61179,0.99632 -0.44582,0.45996 -0.83301,1.07263 -0.86041,1.36116 -0.0276,0.28852 -0.0254,0.91674 -0.008,1.39629 0.0251,0.52241 0.29382,1.12376 0.67024,1.50017 0.38607,0.38606 1.0997,0.69902 1.85209,0.81184 0.89092,0.1336 1.38668,0.0765 1.81952,-0.20981 0.32716,-0.2164 1.20294,-1.00373 1.94614,-1.74976 0.74319,-0.74603 1.47339,-1.35651 1.62315,-1.35651 0.14976,0 -0.17883,0.88199 -0.73018,1.96009 -0.55136,1.07809 -1.51834,2.8343 -2.14923,3.9026 -0.63089,1.0683 -1.26762,2.14443 -1.4149,2.39107 -0.14728,0.24663 -1.08016,1.79448 -2.07326,3.43958 -0.99292,1.64509 -2.32391,3.82449 -2.95692,4.84312 -0.633,1.01862 -1.60048,2.24282 -2.15026,2.72025 -0.54986,0.4775 -1.60078,1.02907 -2.33525,1.22576 -0.73454,0.19667 -2.40707,0.48623 -3.71657,0.64389 -1.30969,0.15765 -3.78024,0.36474 -5.49011,0.45992 -1.70987,0.0952 -3.10885,0.0876 -3.10885,-0.0165 0,-0.10414 0.1738,-0.50516 0.38654,-0.89142 0.21273,-0.38624 0.58378,-1.47621 0.82424,-2.42207 0.24047,-0.94588 0.49849,-3.2865 0.57309,-5.20124 0.0747,-1.91473 0.0522,-4.03676 -0.0496,-4.71547 -0.10178,-0.67869 -0.41449,-1.46354 -0.69505,-1.74408 -0.34473,-0.34474 -0.87689,-0.51005 -1.64176,-0.51005 -0.62247,0 -1.37821,0.17243 -1.67948,0.38344 -0.30128,0.21101 -0.78958,1.07425 -1.08469,1.91823 -0.16711,0.47789 -0.36284,1.21891 -0.56534,1.91771 -0.58115,-0.84646 -1.455,-1.33968 -2.34973,-1.31309 -4.51413,-0.56187 -9.04825,-0.75613 -13.57902,-0.99012 -3.81746,-0.22819 -7.6445,-0.56102 -11.45873,-0.97927 -4.27631,-0.50812 -8.55203,-1.11086 -12.81989,-1.65727 -3.15827,-0.48792 -6.27221,-1.33125 -9.42164,-1.89187 -1.25846,-0.33406 -2.51428,-0.6888 -3.78117,-0.97772 -0.99784,-0.25616 -1.96647,-0.67078 -2.98638,-0.78651 -0.76657,-0.22142 -1.47675,-0.68468 -2.25878,-0.85008 -2.52161,-0.64361 -4.92918,-1.81187 -7.35355,-2.85616 -0.73939,-0.47231 -1.54582,-0.7237 -2.2779,-1.21388 -0.53616,-0.29445 -1.10398,-0.45795 -1.59784,-0.86248 -0.81584,-0.5151 -1.65128,-0.9817 -2.43447,-1.56941 -1.19458,-0.99434 -2.50529,-1.76827 -3.6096,-2.9316 -1.9855,-1.97581 -3.6884,-4.48249 -4.70411,-7.40782 -0.057,-0.19827 -0.0819,-0.42076 -0.13384,-0.62787 -0.0764,-0.90583 -0.15573,-1.88167 -0.23254,-2.59777 z m 29.62403,-67.81602 c 0.2099,-0.59393 0.8532,-0.48462 1.28261,-0.62012 2.15878,-0.25726 4.27639,0.65735 6.22132,1.73375 0.82203,0.49408 1.62981,1.09569 2.2965,1.86397 -1.00097,0.96043 -2.3477,0.76999 -3.5326,0.77359 -1.39748,-0.0841 -2.79381,-0.39443 -4.06021,-1.01647 -0.49149,-0.29702 -0.96707,-0.66315 -1.44023,-0.99787 -0.35369,-0.47925 -0.81419,-1.02611 -0.76739,-1.73685 z m 0.0889,-35.499643 c 0.2099,-0.59394 0.8532,-0.48463 1.28261,-0.62012 2.15879,-0.25729 4.27637,0.65734 6.22133,1.73375 0.82201,0.49405 1.6298,1.09567 2.2965,1.86397 -1.00097,0.96041 -2.34769,0.76996 -3.5326,0.77359 -1.39751,-0.0841 -2.79382,-0.39441 -4.06022,-1.01647 -0.49149,-0.29704 -0.96758,-0.66316 -1.44074,-0.99788 -0.35368,-0.47922 -0.81368,-1.02608 -0.76688,-1.73684 z m 6.55516,57.004793 c 0.20149,-1.43128 1.49366,-2.13157 2.55075,-2.08359 1.67897,0.13321 3.1542,1.51685 4.11137,3.1781 0.43236,0.8012 0.79296,1.89569 0.44235,2.83341 -0.19058,0.0813 -0.46145,-0.21501 -0.69194,-0.2284 -0.75882,-0.23887 -1.54877,-0.32351 -2.26085,-0.75603 -0.93669,-0.38868 -1.87151,-0.81043 -2.69027,-1.38906 -0.48734,-0.36478 -1.03708,-0.68565 -1.41129,-1.2237 -0.0386,-0.10307 -0.0587,-0.21658 -0.0501,-0.33073 z m 23.39547,38.39921 c 0.11901,0.006 0.238,0.008 0.35708,0.0114 2.72261,0.11866 5.46947,0.67907 8.09512,1.56683 0.97123,0.38699 2.01019,0.50226 2.93212,1.07022 0.71725,0.26277 1.44933,0.46968 2.12493,0.8816 0.71533,0.27036 1.44901,0.48243 2.10065,0.95756 0.97728,0.47586 1.97101,0.91168 2.87166,1.59784 0.36525,0.32113 0.83048,0.35493 1.21388,0.57826 2.39799,1.84338 4.99118,3.3477 7.11533,5.70146 1.33228,1.48941 2.67996,3.0664 3.51451,5.07255 0.59922,1.30372 0.0909,2.88422 -0.63614,3.92845 -1.1515,1.67696 -3.01446,2.34548 -4.73356,2.27479 -1.2361,-0.10708 -2.44062,-0.537 -3.62613,-0.96686 -0.85873,-0.32089 -1.65336,-0.84291 -2.43293,-1.37925 -0.41888,-0.16136 -0.79241,-0.43975 -1.13946,-0.75292 -1.35001,-0.82425 -2.53576,-1.99637 -3.79202,-3.01429 -3.54688,-3.13691 -6.69884,-6.92347 -9.6206,-10.9306 -1.52834,-2.12287 -2.97153,-4.30515 -4.34444,-6.59701 z m 5.5547,-145.518251 h 0.0202 c 2.27101,0.0657 4.55342,0.22266 6.80217,0.41289 1.97373,0.19693 3.90077,0.59474 5.86321,0.82372 2.88469,0.41731 5.68332,1.15053 8.44858,2.241208 0.99679,0.43859 1.97358,0.8712 2.83497,1.55339 0.81411,0.67674 1.6784,1.70475 1.54667,3.04478 -0.27548,2.91723 -2.6176,5.11454 -4.91287,4.99194 -1.83085,-0.0987 -3.74104,0.27231 -5.48494,-0.6165 -1.32986,-0.51393 -2.70869,-0.94127 -3.90881,-1.85518 -0.40213,-0.15856 -0.78151,-0.38969 -1.10432,-0.71779 -1.52799,-0.83572 -2.82123,-2.18829 -4.17752,-3.37602 -2.10638,-1.9698 -4.12939,-4.095888 -5.92729,-6.502438 z" /></svg>
