<?xml version="1.0" encoding="UTF-8" standalone="no"?>
<!-- Created with Inkscape (http://www.inkscape.org/) -->

<svg
   width="331.53088mm"
   height="470.004mm"
   viewBox="0 0 331.53088 470.004"
   version="1.1"
   id="svg1"
   xml:space="preserve"
   inkscape:version="1.3 (0e150ed6c4, 2023-07-21)"
   sodipodi:docname="cake_topper_single_path.svg"
   xmlns:inkscape="http://www.inkscape.org/namespaces/inkscape"
   xmlns:sodipodi="http://sodipodi.sourceforge.net/DTD/sodipodi-0.dtd"
   xmlns="http://www.w3.org/2000/svg"
   xmlns:svg="http://www.w3.org/2000/svg"><sodipodi:namedview
     id="namedview1"
     pagecolor="#ffffff"
     bordercolor="#000000"
     borderopacity="0.25"
     inkscape:showpageshadow="2"
     inkscape:pageopacity="0.0"
     inkscape:pagecheckerboard="0"
     inkscape:deskcolor="#d1d1d1"
     inkscape:document-units="mm"
     inkscape:zoom="0.58110877"
     inkscape:cx="293.40462"
     inkscape:cy="730.50007"
     inkscape:window-width="3840"
     inkscape:window-height="2080"
     inkscape:window-x="-11"
     inkscape:window-y="-11"
     inkscape:window-maximized="1"
     inkscape:current-layer="svg1" /><path
     id="path4"
     style="display:inline;fill:#000000"
     d="m 151.51622,0.0957183 c -0.38168,-0.14491 -0.94546,-0.12393 -1.48466,0.0537 -0.47839,0.15827 -1.75806,0.69608 -2.84375,1.19528 -1.0857,0.49921 -3.16935,1.75909 -4.63021,2.79983 -1.46088,1.04074 -3.72732,2.84429 -5.03639,4.00802 -1.30905,1.16373 -3.15458,2.9566397 -4.10104,3.9837397 -0.94646,1.0271 -2.20465,2.46079 -2.79621,3.18637 -0.59156,0.72558 -1.73633,2.2718 -2.54352,3.43596 -0.80718,1.16417 -2.09091,3.12777 -2.85305,4.36304 -0.76214,1.23547 -2.16218,3.71355 -3.11092,5.50664 -0.94874,1.79327 -2.23836,4.569894 -2.86546,6.17017 -0.62711,1.600295 -1.54057,3.408659 -2.03037,4.01836 -0.48981,0.609683 -1.34434,1.802227 -1.89859,2.649967 -0.55427,0.847741 -1.78232,3.169517 -2.72903,5.159375 -0.94672,1.989859 -2.5418,5.319216 -3.54449,7.398515 -1.00269,2.0793 -1.82314,3.821765 -1.82314,3.872115 0,0.05035 -0.51653,0.997805 -1.14774,2.105298 -0.63123,1.107492 -1.19677,1.96485 -1.25677,1.90531 -0.06,-0.05954 -0.0245,-2.0535 0.0785,-4.430737 0.10302,-2.377256 0.29006,-4.949503 0.416,-5.716447 0.20483,-1.247367 0.38912,-1.537107 1.74614,-2.746603 0.83437,-0.74366 1.9914,-2.08096 2.57142,-2.971394 0.58005,-0.890434 1.60068,-2.750136 2.26808,-4.132565 0.66738,-1.38241 1.77939,-3.704186 2.47065,-5.159375 0.69127,-1.45517 1.38945,-3.272622 1.55133,-4.038513 0.16186,-0.76589 0.30628,-3.223716 0.32091,-5.461686 0.0168,-2.56506 -0.0837,-4.27501 -0.27182,-4.62659 -0.20982,-0.39205 -0.55492,-0.55759 -1.16117,-0.55759 -0.71646,0 -1.02623,0.21264 -1.83089,1.25678 -0.53271,0.69103 -1.58155,1.85208 -2.33113,2.57968 -0.74957,0.72761 -2.06887,2.25836 -2.9316,3.40186 -0.86274,1.1435 -2.14866,3.286665 -2.85719,4.762502 -0.75821,1.579325 -1.56717,3.82663 -1.96629,5.461682 -0.37299,1.52795 -0.85047,4.028319 -1.06092,5.55625 -0.21046,1.52795 -0.5106,3.96877 -0.66714,5.423959 -0.15654,1.455171 -0.4076,4.372277 -0.55759,6.482291 -0.14999,2.110014 -0.49119,4.669915 -0.758608,5.688542 -0.267419,1.018627 -0.686704,2.447415 -0.931726,3.175 -0.245023,0.727585 -0.707984,1.977779 -1.028878,2.778125 -0.320875,0.800345 -0.847647,1.931459 -1.170471,2.513542 -0.322824,0.582065 -1.23502,1.594133 -2.02675,2.248958 -0.791711,0.654825 -2.611659,2.219877 -4.044197,3.477824 -1.432557,1.257946 -4.581269,4.294097 -6.997506,6.746875 -2.416241,2.452758 -5.154741,5.298488 -6.085417,6.323645 -0.930677,1.025157 -1.953398,2.21582 -2.272729,2.645833 l -0.580843,0.781865 -0.01447,-0.68833 c -0.0081,-0.378662 -0.282883,-1.08559 -0.610299,-1.570964 -0.358025,-0.530732 -0.929116,-0.969301 -1.432988,-1.099674 -0.489228,-0.126601 -1.126686,-0.106603 -1.532206,0.04754 -0.381949,0.14522 -0.898056,0.621394 -1.1467,1.058333 -0.248642,0.436958 -0.523774,0.795414 -0.611332,0.796334 -0.08756,9.2e-4 -0.927069,0.507567 -1.865519,1.12603 -0.93845,0.618445 -2.117027,1.511072 -2.618962,1.983341 -0.501916,0.472269 -1.017504,0.859222 -1.145666,0.859896 -0.12818,6.73e-4 -0.153442,-0.44547 -0.05633,-0.991154 0.09715,-0.545703 0.294887,-1.684352 0.439767,-2.530595 0.144862,-0.846243 0.3663,-1.739231 0.491443,-1.984375 0.125123,-0.245144 0.611578,-1.219892 1.08107,-2.165759 0.469512,-0.945866 1.444359,-2.46306 2.166277,-3.371371 0.721898,-0.908312 2.166429,-2.3371 3.21014,-3.175 1.043711,-0.837901 2.314069,-1.833276 2.823083,-2.212268 0.509015,-0.378973 2.116178,-1.496977 3.571358,-2.484086 1.455181,-0.987109 3.296615,-2.344147 4.09174,-3.01532 0.795125,-0.671153 2.211015,-1.991876 3.146578,-2.935221 0.935562,-0.943346 2.150827,-2.312601 2.700611,-3.042708 0.549785,-0.730125 1.410198,-2.055551 1.912027,-2.945557 0.501849,-0.890006 1.170399,-2.415635 1.485181,-3.389974 0.314783,-0.974338 0.706187,-2.746725 0.870231,-3.938261 0.262775,-1.908664 0.394737,-2.248462 1.107426,-2.857707 0.683847,-0.584576 0.802171,-0.863107 0.764811,-1.79989 -0.02431,-0.609464 -0.11831,-1.341172 -0.208772,-1.626257 -0.09048,-0.285084 -0.542994,-0.720966 -1.005624,-0.968416 -0.602133,-0.322101 -1.442718,-0.444392 -2.957959,-0.430982 -1.164138,0.0103 -3.307318,0.285592 -4.7625,0.611849 -1.45518,0.326257 -3.241159,0.773948 -3.96875,0.994771 -0.727589,0.220842 -1.85871,0.64551 -2.513541,0.944129 -0.654831,0.298599 -1.72642,0.904657 -2.38125,1.346688 -0.654833,0.442012 -1.784621,1.344695 -2.510441,2.005562 -0.725821,0.660866 -1.187457,1.022883 -1.026294,0.804602 0.161164,-0.218281 0.437398,-0.845221 0.613916,-1.393197 0.176519,-0.547957 0.793007,-1.962347 1.369942,-3.14296 0.576934,-1.180613 1.589323,-3.083809 2.249992,-4.229199 0.660671,-1.14541 1.373738,-2.082561 1.584399,-2.082561 0.210661,0 0.676139,0.191996 1.034562,0.426848 0.358424,0.234834 1.507398,0.65159 2.552816,0.926041 1.045416,0.274471 2.482674,0.499195 3.19412,0.499195 0.85924,0 1.442874,-0.149497 1.737879,-0.444934 0.33914,-0.339658 0.442049,-0.918176 0.436149,-2.447396 -0.0047,-1.212568 -0.194032,-2.545526 -0.480074,-3.379122 -0.290098,-0.845415 -0.82175,-1.683266 -1.377177,-2.170927 -0.49746,-0.436784 -1.412085,-0.932004 -2.032951,-1.100708 -0.620863,-0.168705 -1.261596,-0.343087 -1.423686,-0.387057 -0.202877,-0.05504 -0.229422,-0.49406 -0.08475,-1.409216 0.115588,-0.73115 0.159726,-2.556944 0.09767,-4.057117 -0.06205,-1.500191 -0.179481,-3.263261 -0.260449,-3.918111 -0.08097,-0.65484 -0.339503,-2.14312 -0.574642,-3.30729 -0.235139,-1.16416 -0.609772,-2.33088 -0.832507,-2.5926 -0.278888,-0.32767 -0.693589,-0.45128 -1.331702,-0.39688 -0.710468,0.0606 -1.035669,0.26702 -1.395263,0.88522 -0.257944,0.44345 -0.786019,1.8722 -1.173055,3.175 -0.387036,1.3028 -0.924786,3.26182 -1.195276,4.35322 -0.274162,1.106218 -0.484507,2.862543 -0.474907,3.968751 0.0095,1.091387 0.111342,2.639238 0.225826,3.439583 0.144666,1.011337 0.101125,1.759654 -0.14211,2.453081 -0.192493,0.548743 -0.523831,1.382199 -0.736389,1.852083 -0.212559,0.469865 -0.769077,1.747199 -1.236617,2.838586 -0.467542,1.091387 -1.269655,2.877363 -1.78232,3.96875 -0.512665,1.091387 -1.561928,3.411323 -2.332158,5.155241 -0.770218,1.743917 -1.514499,3.208719 -1.653646,3.255099 -0.13913,0.04638 -0.338175,-0.308984 -0.44235,-0.789616 -0.104174,-0.480651 -0.598764,-1.689682 -1.099157,-2.686658 -0.500411,-0.996977 -1.742904,-3.16513 -2.761072,-4.81831 -1.018167,-1.6532 -2.221613,-3.317609 -2.674256,-3.698483 -0.680625,-0.572703 -0.98675,-0.662556 -1.769917,-0.519865 -0.520836,0.0949 -1.099983,0.320951 -1.286744,0.502295 -0.186743,0.181343 -0.63965,1.154606 -1.006657,2.163176 -0.36699,1.008569 -0.971111,2.726984 -1.342036,3.818371 -0.370943,1.091387 -0.84722,3.353614 -1.058334,5.027084 -0.211113,1.673452 -0.490084,4.352415 -0.620117,5.953125 -0.146237,1.800204 -0.136727,4.212994 0.02481,6.325195 0.14355,1.878111 0.322219,3.514291 0.397391,3.635954 0.07519,0.121664 0.254449,0.966303 0.398426,1.876888 0.143978,0.910586 0.505811,2.429638 0.803568,3.375504 0.297777,0.945867 0.774699,2.374655 1.059884,3.175 0.285184,0.800365 0.721016,1.917742 0.968416,2.483053 0.247418,0.565292 1.20689,2.521706 2.13217,4.347538 l 1.682068,3.319694 -0.166915,3.060795 c -0.0919,1.683383 -0.281739,4.251439 -0.42168,5.706629 -0.139941,1.455171 -0.390238,4.050011 -0.556038,5.766061 -0.1658,1.71604 -0.365578,3.0554 -0.444418,2.97656 -0.07884,-0.0788 -0.527888,-1.02755 -0.997871,-2.1084 -0.718062,-1.65129 -0.801667,-2.04202 -0.523483,-2.4474 0.182097,-0.26533 0.518511,-1.07799 0.747758,-1.80557 0.229246,-0.72761 0.498897,-1.85872 0.599447,-2.513543 0.10055,-0.654825 0.406793,-1.760622 0.680062,-2.457214 0.273251,-0.696611 0.49661,-1.5718 0.49661,-1.944584 0,-0.372802 -0.187004,-1.071386 -0.415478,-1.552877 -0.228491,-0.481509 -0.745821,-1.012439 -1.149801,-1.179773 -0.417235,-0.172838 -1.066311,-0.222313 -1.502751,-0.114722 -0.422536,0.104167 -1.03782,0.363651 -1.366841,0.576709 -0.329039,0.213058 -0.803114,0.819298 -1.053683,1.347205 -0.26804,0.564736 -0.455733,1.590301 -0.455786,2.491837 -7.5e-5,1.273917 -0.05454,1.457322 -0.324011,1.088823 -0.178257,-0.243781 -0.462527,-1.11185 -0.632003,-1.929082 -0.169477,-0.817213 -0.42102,-1.94547 -0.558622,-2.50734 -0.137602,-0.56187 -0.557159,-1.30603 -0.932243,-1.653646 -0.375065,-0.347617 -0.906359,-0.632003 -1.180806,-0.632003 -0.274467,0 -0.896216,0.166061 -1.381828,0.36897 -0.48563,0.20291 -1.077349,0.646161 -1.314649,0.984953 -0.310803,0.443742 -0.431498,1.20263 -0.431498,2.714046 v 2.098063 l 1.484147,1.481047 c 0.816316,0.814581 1.649754,1.715961 1.852084,2.002981 0.202312,0.28704 0.367936,0.60484 0.367936,0.70641 0,0.10158 -0.366034,0.26505 -0.813387,0.36329 -0.447371,0.0983 -1.215009,0.53125 -1.705839,0.96222 -0.66626,0.58496 -0.937272,1.0813 -1.068669,1.9575 -0.09679,0.64551 -0.09803,1.58792 -0.0031,2.09393 0.09493,0.50599 0.484661,1.29077 0.866097,1.74408 0.63281,0.75206 0.800005,0.81286 1.907893,0.69453 0.667799,-0.0713 1.514559,-0.20958 1.882056,-0.30696 0.540594,-0.14324 0.906195,0.0326 1.913578,0.91932 0.806759,0.71014 1.542808,1.71816 2.090312,2.8634 0.654351,1.3687 0.846661,2.12616 0.852661,3.35535 0.0057,1.16052 -0.299657,2.5482 -1.135848,5.15937 -0.629095,1.9645 -1.338092,4.07741 -1.575614,4.69532 -0.237522,0.61791 -0.521312,1.12393 -0.630453,1.12448 -0.109118,5.5e-4 -0.198437,-0.12441 -0.198437,-0.2775 0,-0.15309 -0.482473,-1.24523 -1.072286,-2.42724 -0.589813,-1.18201 -1.524371,-2.69372 -2.076876,-3.35949 -0.552485,-0.66576 -1.087016,-1.5484 -1.187524,-1.96112 -0.100509,-0.4127 -0.465452,-1.03288 -0.810804,-1.37821 -0.345333,-0.34535 -0.935747,-0.70552 -1.312064,-0.79995 -0.376335,-0.0944 -0.996814,-0.0929 -1.379244,0.003 -0.382449,0.096 -1.029008,0.50811 -1.436605,0.91571 -0.426562,0.42654 -0.930121,1.39138 -1.186491,2.27324 -0.269626,0.92746 -0.387923,1.96038 -0.299723,2.61793 0.09853,0.73457 0.377443,1.28598 0.861963,1.70274 0.572153,0.49215 0.962005,0.59892 1.934765,0.52968 l 1.218014,-0.0868 0.814937,1.65416 c 0.448044,0.9097 1.140567,2.87428 1.539441,4.36562 0.398892,1.49135 0.839526,3.0858 0.978752,3.54346 0.199316,0.65519 0.13361,1.13338 -0.309025,2.24895 -0.3092,0.77925 -0.912634,2.42903 -1.340487,3.66593 -0.427852,1.2369 -1.000117,2.90382 -1.271757,3.70417 -0.271639,0.80034 -0.613283,1.87194 -0.759127,2.38125 -0.145844,0.5093 -0.625236,2.11668 -1.065568,3.57187 -0.440313,1.45519 -1.157737,4.13415 -1.594218,5.95313 -0.436461,1.81897 -0.97978,4.14075 -1.207161,5.15937 -0.227382,1.01863 -0.490241,2.42318 -0.584461,3.12126 l -0.171565,1.26917 -0.644922,-1.66605 c -0.354658,-0.91636 -0.883913,-2.26137 -1.176673,-2.98896 -0.29274,-0.7276 -1.25039,-2.69217 -2.127518,-4.36563 -0.877128,-1.67347 -2.219391,-4.00415 -2.982764,-5.17952 -0.763373,-1.17538 -2.464235,-3.37808 -3.779614,-4.8948 -1.315399,-1.5167 -3.980595,-4.3976 -5.922636,-6.40167 -3.112376,-3.21179 -3.632189,-3.64312 -4.384745,-3.63802 -0.632186,0.004 -0.975562,0.19162 -1.322917,0.7214 -0.364702,0.55625 -0.46622,1.24825 -0.45682,3.10885 0.0067,1.31632 0.268906,4.23866 0.58291,6.49418 0.314022,2.25554 0.748744,5.05356 0.965833,6.21771 0.217089,1.16415 0.569976,2.83106 0.784448,3.70417 0.214473,0.8731 0.627804,2.48048 0.91829,3.57187 0.290506,1.09139 0.71632,2.6528 0.946196,3.46956 0.229877,0.81676 0.842617,2.54322 1.362191,3.83645 0.519556,1.29326 1.256109,2.88708 1.636592,3.54191 0.380501,0.65482 1.228335,1.96455 1.884123,2.91041 0.655788,0.94587 1.995052,2.7914 2.975529,4.10105 0.980476,1.30966 2.714316,3.30206 3.852995,4.42712 1.13868,1.12506 2.546408,2.46414 3.128491,2.97604 0.582064,0.51192 1.153066,0.9311 1.268656,0.93121 0.115588,1.1e-4 0.189158,1.67159 0.163298,3.7145 -0.02586,2.04292 -0.139699,3.68002 -0.252698,3.63802 -0.113,-0.042 -0.910082,-0.73133 -1.770951,-1.53169 -0.860869,-0.80036 -1.874141,-1.69335 -2.252059,-1.98437 -0.377936,-0.29104 -1.559465,-1.20296 -2.62568,-2.02623 -1.066215,-0.82328 -2.397784,-1.95439 -2.958475,-2.51355 -0.56071,-0.55913 -1.557859,-2.08807 -2.215886,-3.39772 -0.658026,-1.30967 -1.72867,-3.21471 -2.379183,-4.23333 -0.650494,-1.01863 -1.796527,-2.48763 -2.546614,-3.2644 -0.750106,-0.77678 -2.113515,-1.95208 -3.02979,-2.61173 -0.916275,-0.65963 -2.649529,-1.71435 -3.851961,-2.34353 -1.202432,-0.62918 -3.905551,-1.69544 -6.0068679,-2.36936 -2.101322,-0.67394 -4.439401,-1.51394 -5.195032,-1.86707 -0.755621,-0.35314 -1.447157,-0.76077 -1.536857,-0.90589 -0.08969,-0.14512 -0.508895,-0.26407 -0.931726,-0.26407 -0.49907003,0 -0.86859603,0.18638 -1.05316603,0.53124 -0.15639,0.29221 -0.304679,1.0959 -0.329179,1.78594 -0.03759,1.05715 0.209993,1.76023 1.57096403,4.46587 0.888341,1.76606 2.035535,3.8688 2.549715,4.67259 0.514171,0.80378 1.627873,2.14661 2.474784,2.98431 0.846911,0.8377 2.45101,2.2018 3.5646409,3.03082 1.113612,0.82902 2.578542,1.77519 3.255098,2.10272 0.676556,0.32752 1.189859,0.63587 1.140499,0.68523 -0.04936,0.0494 -1.216613,0.22208 -2.59364,0.38395 -1.377046,0.16188 -3.2181219,0.53895 -4.0912229,0.83768 -0.87313,0.29874 -1.855383,0.78765 -2.182813,1.08675 -0.432929,0.39547 -0.594178,0.83792 -0.591178,1.62213 0.0022,0.59307 0.09779,1.22621 0.21239,1.40663 0.11459,0.18043 0.916382,0.61875 1.781803,0.9741 0.865431,0.35535 2.435877,1.06915 3.4897099,1.58595 1.053834,0.51677 2.351922,1.12154 2.884578,1.3441 0.532675,0.22257 1.918988,0.6415 3.080949,0.93069 1.161961,0.2892 2.864671,0.52555 3.783232,0.52555 1.008682,0 3.168301,-0.36576 5.453414,-0.92345 2.080929,-0.50787 4.033375,-0.92505 4.338236,-0.92605 0.304861,-0.001 1.260337,0.45401 2.123385,1.01183 0.86303,0.5578 1.762123,1.30196 1.99781,1.65365 0.235703,0.35167 0.653541,0.87736 0.928626,1.1684 0.275085,0.29102 1.188381,1.56689 2.02985,2.83497 l 1.530139,2.30528 0.500228,3.64784 c 0.275191,2.00609 0.619542,4.42125 0.764811,5.36712 0.145287,0.94586 0.339302,2.2258 0.430982,2.84427 0.09169,0.61844 0.09437,1.12448 0.0062,1.12448 -0.08817,0 -1.080914,-0.92914 -2.206067,-2.06448 -1.125152,-1.13535 -2.700732,-2.54322 -3.501078,-3.129 -0.800346,-0.58579 -2.288665,-1.5281 -3.307292,-2.09393 -1.303526,-0.72411 -2.71408,-1.89885 -4.7625,-3.96617 -2.307176,-2.32846 -3.448261,-3.24919 -5.50509,-4.44107 -1.721389,-0.99749 -2.88711,-1.50327 -3.464388,-1.50327 -0.494446,0 -1.049211,0.19991 -1.284676,0.46302 -0.227903,0.25466 -0.492251,0.99882 -0.587561,1.65365 -0.152452,1.04745 -0.07394,1.34037 0.65474,2.43551 0.455541,0.68466 1.893727,2.37034 3.195671,3.74602 2.325516,2.45724 2.449797,2.54368 7.060551,4.91701 2.581298,1.32872 5.05046,2.72095 5.487003,3.09336 l 0.79375,0.67696 -0.79375,-0.17829 c -0.436543,-0.0981 -1.525044,-0.52683 -2.418974,-0.95239 -0.89391,-0.42557 -1.990609,-0.7736 -2.43706,-0.7736 -0.478702,0 -1.020126,0.22353 -1.319299,0.54467 -0.279047,0.29952 -0.579892,0.98414 -0.668693,1.52135 -0.08882,0.53722 -0.162198,1.39343 -0.163298,1.90273 -0.0011,0.50932 0.230118,1.30714 0.514181,1.77302 0.284043,0.46586 0.870879,1.03032 1.303796,1.25419 0.443717,0.22946 2.132904,0.52505 3.871598,0.67747 1.696317,0.14871 3.281919,0.37067 3.523816,0.49351 0.241896,0.12285 1.020035,0.3649 1.729094,0.53796 0.709039,0.17308 1.891435,0.61983 2.627229,0.9927 0.735812,0.37284 1.481571,0.82218 1.65778,0.99839 0.176209,0.17621 0.6912,0.63229 1.144117,1.01337 0.638576,0.53734 0.905373,1.06797 1.188041,2.36317 0.200479,0.9186 0.66866,3.03944 1.040246,4.71289 0.371605,1.67349 0.926192,4.47146 1.232483,6.21771 0.306293,1.74625 0.686196,3.77032 0.844393,4.49792 0.158197,0.7276 0.500628,2.097 0.761194,3.0427 0.260565,0.94588 0.545793,2.04722 0.633553,2.4474 0.111102,0.50666 0.05336,0.7276 -0.189653,0.7276 -0.191932,0 -0.461719,-0.11253 -0.599963,-0.25011 -0.138245,-0.13758 -1.442327,-0.84019 -2.897497,-1.56114 -1.999623,-0.99095 -3.010469,-1.68933 -4.138766,-2.85874 -0.821087,-0.85115 -2.162372,-2.50021 -2.980697,-3.66438 -0.818309,-1.16416 -1.607216,-2.29526 -1.752864,-2.51354 -0.145647,-0.21828 -0.758638,-1.15648 -1.362191,-2.08515 -0.603535,-0.92868 -2.238481,-2.84205 -3.63337,-4.25193 -1.394869,-1.40994 -4.003826,-3.65822 -5.797579,-4.99608 -1.793753,-1.33784 -3.619464,-2.61795 -4.057116,-2.84428 -0.437671,-0.2263 -1.150304,-0.42126 -1.583366,-0.43356 -0.433081,-0.0123 -0.972182,0.16191 -1.19786,0.38757 -0.225678,0.22567 -0.470236,0.94356 -0.543636,1.59474 -0.117014,1.03813 0.03473,1.5169 1.232483,3.8871 0.751303,1.48681 1.599988,3.32818 1.885673,4.09174 0.285685,0.76356 0.964786,2.11401 1.508952,3.00137 0.544147,0.88736 1.572649,2.28306 2.285648,3.1011 0.713018,0.81805 1.524452,1.77741 1.803508,2.13217 0.279038,0.35476 1.184329,1.16162 2.011246,1.79266 0.826937,0.63104 2.455951,1.67343 3.620451,2.31665 1.164501,0.64323 2.474207,1.34775 2.910417,1.5658 0.436209,0.21805 0.852765,0.47287 0.925525,0.56637 0.07276,0.0935 1.918267,1.05013 4.101042,2.12545 2.182755,1.07533 5.020839,2.70867 6.306591,3.62976 1.285772,0.9209 3.337152,2.6784 4.558378,3.90518 1.221245,1.22678 2.747235,2.97002 3.391008,3.87367 0.643772,0.90366 2.422648,3.48845 3.953247,5.74383 1.530599,2.25557 3.949335,5.82764 5.374866,7.9375 1.425512,2.11005 3.753216,5.47376 5.172294,7.47448 1.419068,2.00091 2.517408,3.63802 2.440678,3.63802 -0.07673,0 -1.591098,-0.99192 -3.36517,-2.204 -1.774053,-1.21189 -3.999568,-2.62935 -4.945434,-3.14967 -0.945867,-0.52032 -2.493716,-1.24679 -3.439583,-1.61438 -0.945866,-0.36759 -2.553248,-0.90021 -3.571875,-1.1839 -1.018627,-0.28369 -2.745072,-0.73871 -3.836459,-1.01079 -1.601737,-0.39932 -2.953704,-0.49193 -7.011458,-0.48163 -3.787375,0.01 -5.451187,0.12121 -6.746875,0.45269 -0.945866,0.24198 -2.434186,0.57616 -3.307292,0.74259 -0.873106,0.16644 -2.123281,0.4019 -2.778125,0.52348 -0.654825,0.12159 -2.504608,0.22819 -4.110343,0.23719 -2.267973,0.0122 -3.254104,-0.10202 -4.419369,-0.51159 -1.107318,-0.38919 -1.67213,-0.46204 -2.157491,-0.2775 -0.361605,0.13748 -0.784075,0.48619 -0.938444,0.77463 -0.154368,0.28844 -0.280603,0.87433 -0.280603,1.30172 0,0.53765 0.415213,1.29672 1.346171,2.46135 0.740391,0.92622 1.946622,2.19669 2.680457,2.82309 0.733834,0.62641 1.869065,1.50715 2.522843,1.95698 0.653797,0.44982 2.513463,1.49211 4.132565,2.31614 1.619082,0.82403 3.598869,1.75583 4.399214,2.07068 0.800346,0.31485 2.407728,0.88334 3.571875,1.26348 1.164148,0.38013 3.485923,0.95062 5.159375,1.26763 2.839269,0.53789 3.686838,0.57081 12.677779,0.49351 6.289216,-0.0541 10.469768,0.0245 12.038542,0.22634 1.321842,0.17008 2.573936,0.4024 2.782259,0.51676 0.243905,0.13389 -0.368464,0.37283 -1.719792,0.67076 -1.154176,0.25447 -2.932036,0.73272 -3.950663,1.06299 -1.018627,0.33027 -2.754726,0.95931 -3.858162,1.39785 -1.103435,0.43855 -4.020524,1.83798 -6.482292,3.10937 -2.46175,1.27139 -4.621419,2.50076 -4.798673,2.73213 -0.177273,0.23137 -0.32613,0.90603 -0.33073,1.49913 -0.0061,0.78801 0.15202,1.22449 0.587045,1.62161 0.507499,0.46329 1.219691,0.59406 4.828646,0.88625 2.328277,0.18851 5.840715,0.38958 7.805208,0.44648 2.633101,0.0763 4.197724,-0.0158 5.953125,-0.34984 1.612134,-0.30676 3.022179,-0.78869 4.365625,-1.4919 1.091385,-0.57127 2.817831,-1.66612 3.836458,-2.43345 1.018626,-0.76732 2.568773,-1.83075 3.444751,-2.36264 0.875978,-0.53189 1.768967,-0.96305 1.984375,-0.95705 0.215407,0.006 1.249858,0.74965 2.298568,1.65365 1.048712,0.9038 3.373359,2.95351 5.166093,4.55424 1.792729,1.60073 3.996608,3.50399 4.897375,4.2292 1.021352,0.82228 1.544555,1.41184 1.38958,1.56683 -0.154994,0.15498 -0.504936,0.13202 -0.929659,-0.0615 -0.374597,-0.17068 -0.949006,-0.31057 -1.276408,-0.31057 -0.343277,0 -0.995796,0.42006 -1.541508,0.99219 -0.701656,0.7354 -0.986093,1.30064 -1.098641,2.18487 -0.108017,0.84881 -0.01351,1.49755 0.326595,2.24896 0.262892,0.58083 0.745353,1.2944 1.072286,1.58544 0.416519,0.37081 0.942574,0.52164 1.757515,0.50384 0.656046,-0.0143 1.3647,-0.20755 1.625741,-0.44338 0.254517,-0.22995 1.23643,-0.78424 2.182296,-1.23145 1.135019,-0.53665 2.124625,-0.81125 2.910415,-0.80925 0.65485,0.002 1.44562,0.15096 1.757,0.33072 0.31139,0.17975 2.55805,1.65664 4.99298,3.28197 l 4.42763,2.95538 -1.15703,0.16588 c -0.63628,0.091 -2.70489,0.18941 -4.59662,0.21911 -1.89175,0.0297 -4.21351,0.007 -5.15937,-0.0501 -0.94587,-0.0573 -3.47294,-0.0102 -5.615683,0.10439 -3.063583,0.16388 -3.974534,0.2988 -4.263823,0.63304 -0.202334,0.23378 -0.442074,0.99756 -0.532784,1.69705 -0.14219,1.09649 -0.08209,1.35502 0.437183,1.8743 0.358991,0.35901 1.45317,0.83081 2.708878,1.16841 1.15866,0.31149 2.795898,0.58803 3.638021,0.61443 0.842122,0.0264 1.593192,0.1482 1.668632,0.27027 0.07544,0.12206 -0.154567,0.80173 -0.510563,1.5105 -0.355996,0.70878 -0.725555,1.64656 -0.821655,2.08411 -0.0961,0.43755 -0.09866,1.09509 -0.0078,1.46089 0.09346,0.37237 0.53883,0.86535 1.012342,1.12035 0.759818,0.40919 0.939551,0.41587 1.765272,0.0703 0.50548,-0.21179 1.32029,-0.72336 1.81074,-1.13688 0.49043,-0.41352 1.23458,-1.49241 1.65364,-2.39779 0.41904,-0.90538 0.76171,-1.75219 0.76171,-1.88154 0,-0.12935 0.14885,-0.55443 0.33073,-0.94464 0.1819,-0.39021 0.50933,-0.7854 0.72761,-0.8785 0.21826,-0.0931 1.89078,-0.22963 3.71657,-0.30283 1.82577,-0.0732 4.3118,6.5e-4 5.52421,0.16382 1.2124,0.16317 3.0523,0.53728 4.08864,0.83095 1.03631,0.29387 2.58328,0.7408 3.43803,0.99323 0.85473,0.25244 3.3551,1.0542 5.55625,1.7818 l 4.00234,1.32292 0.13229,64.16145 0.13229,64.16146 2.23294,3.51245 c 1.75117,2.75506 2.29914,3.43976 2.54093,3.175 0.16956,-0.18565 1.18868,-1.7662 2.26498,-3.51245 l 1.95699,-3.175 0.0677,-62.24323 c 0.0461,-42.29886 0.15465,-62.24323 0.33899,-62.24323 0.14921,0 0.95224,0.22171 1.78439,0.493 0.83214,0.27129 2.52514,0.79771 3.76204,1.16944 1.23691,0.37154 2.90381,0.85857 3.70417,1.0821 0.80035,0.22352 2.52679,0.70616 3.83646,1.07229 1.30967,0.36612 3.51236,0.91471 4.89479,1.21904 1.38241,0.30433 3.46606,0.72856 4.63021,0.9431 1.16415,0.21455 4.06036,0.6813 6.43578,1.03714 2.3754,0.35584 6.84034,0.84199 9.92188,1.08004 3.08157,0.23806 8.51979,0.43897 12.08505,0.44597 3.98112,0.008 8.53376,-0.16066 11.79928,-0.43822 2.92441,-0.24856 7.27019,-0.73847 9.65729,-1.08882 2.3871,-0.35035 5.41204,-0.82648 6.72155,-1.05782 1.30968,-0.23133 3.69094,-0.72917 5.29167,-1.10639 1.60073,-0.37722 3.98199,-0.98142 5.29167,-1.34255 1.30969,-0.36112 3.15515,-0.86606 4.10104,-1.1219 0.94588,-0.25584 2.37463,-0.67513 3.175,-0.93224 0.80036,-0.2571 2.13615,-0.68985 2.96829,-0.96118 0.83216,-0.27134 1.63583,-0.493 1.78594,-0.493 0.18673,0 0.27285,19.60311 0.27285,62.07373 v 62.07374 l 1.89394,3.07991 c 1.04154,1.69398 2.07185,3.28828 2.28979,3.54294 0.21794,0.25466 0.46685,0.46239 0.55345,0.46147 0.0866,-9.2e-4 0.3536,-0.32835 0.59325,-0.72761 0.23964,-0.39927 1.21053,-1.95578 2.15749,-3.45818 l 1.72186,-2.73214 0.0145,-63.90307 c 0.0111,-48.15488 0.0906,-63.99427 0.32246,-64.2736 0.16919,-0.20387 0.41983,-0.37052 0.55655,-0.37052 0.13671,0 0.92565,-0.3091 1.75338,-0.68678 0.82773,-0.37767 3.52889,-1.70078 6.00274,-2.94039 2.47386,-1.2396 5.39088,-2.75458 6.48229,-3.36672 1.0914,-0.61215 2.46063,-1.38695 3.04271,-1.72134 0.58209,-0.33438 1.65365,-0.99321 2.38125,-1.46399 0.72761,-0.47077 2.07185,-1.31965 2.9869,-1.88671 0.91487,-0.56705 3.23677,-2.15781 5.15937,-3.53467 1.92261,-1.37686 3.61446,-2.59655 3.75998,-2.71043 0.14553,-0.11387 1.27661,-0.99939 2.51354,-1.96783 1.13486,-0.8887 2.91498,-2.37436 3.82819,-4.04885 2.00767,0.77422 4.32782,0.90729 6.52467,0.7984 1.63709,-0.0649 3.29074,-0.32174 4.71082,-1.00408 1.88705,-0.81023 3.49509,-1.99538 4.6917,-3.41322 1.16811,-1.28688 1.94933,-2.76425 2.75952,-4.20698 0.36662,-0.81605 0.40205,-1.70942 0.88522,-2.49546 0.56538,-1.36918 0.77662,-2.8108 1.19734,-4.21008 0.58964,-2.10958 0.92686,-4.25467 1.20407,-6.40322 0.78677,-5.17873 1.1929,-10.39057 1.4428,-15.60267 0.21864,-0.61381 1.00817,-0.93819 1.53582,-1.37459 1.70058,-1.13137 3.42293,-2.24119 5.08238,-3.41168 2.78866,-1.89049 5.56266,-3.80101 8.31267,-5.72316 1.08061,-0.50865 1.48457,-1.72742 0.86042,-2.59623 -0.54478,-0.81582 -1.95873,-0.8133 -2.82516,-0.34778 -2.35826,1.31149 -4.46705,2.88913 -6.65282,4.37699 -1.98781,1.40259 -4.04788,2.73714 -6.11849,4.06022 -0.21167,-4.04647 -0.10556,-8.1097 -0.7245,-12.13673 -0.22105,-1.76838 -0.2759,-3.58315 -0.97979,-5.28339 -0.7455,-1.52312 -2.71743,-2.63502 -4.78782,-2.53887 -1.98201,-0.0396 -3.97155,0.67116 -5.2834,1.85209 -1.26199,1.14393 -1.07963,2.79544 -1.52962,4.14703 -0.87235,2.72066 -2.11094,5.35318 -3.23391,8.01088 -1.56669,3.39211 -3.14226,6.76757 -5.50354,9.86813 -0.43512,0.58463 -0.88613,1.16254 -1.39475,1.70842 -0.0849,-1.44243 0.2447,-2.87477 0.29766,-4.30826 0.14107,-1.85692 0.49642,-3.69635 0.9679,-5.51594 0.54376,-2.56332 1.05231,-5.13269 1.69447,-7.68119 0.25071,-1.25915 0.40338,-2.73156 -0.67955,-3.78478 -0.89632,-0.78257 -2.16655,-1.23223 -3.41633,-1.5291 -1.37874,-0.19398 -2.80781,-0.07 -4.1615,0.16639 -1.28153,0.31046 -2.5322,1.00741 -2.89698,2.08877 -0.81991,1.72306 -0.89054,3.59051 -1.51722,5.35419 -0.28381,1.09399 -0.27066,2.25465 -0.89659,3.27577 -0.64323,1.89895 -1.68186,3.6628 -2.58175,5.48442 -0.39364,0.8582 -0.74798,1.73026 -1.27744,2.54558 -0.60631,1.12533 -1.28876,2.23141 -1.74305,3.40444 -0.17907,0.58476 -0.69954,1.063 -0.89658,1.6521 -1.21713,2.6589 -2.83234,5.18937 -4.454,7.70237 -1.16058,1.64333 -2.22322,3.45821 -3.83284,4.80074 -0.54943,0.36593 -0.97697,0.99088 -1.75131,1.0449 -0.40163,-0.12173 -0.29675,-0.60653 -0.39998,-0.89245 -0.1821,-1.75197 0.0821,-3.50216 0.21033,-5.24981 0.14472,-1.66825 0.72476,-3.28314 1.00304,-4.93148 0.20664,-1.05302 0.62791,-2.04425 0.80098,-3.11816 0.24052,-1.32005 0.79377,-2.58316 1.03663,-3.9026 0.32399,-1.37498 0.80031,-2.72165 1.08831,-4.12327 0.13768,-0.7222 0.39606,-1.44896 0.46147,-2.16834 -0.5614,-1.61646 -1.36242,-3.36558 -3.2427,-4.29018 -2.43987,-1.32189 -5.46206,-1.55526 -8.30699,-1.83968 -1.12084,-0.0821 -2.26717,-0.10767 -3.34656,-0.38757 1.90013,-2.43803 3.21112,-5.17262 3.85403,-7.99848 0.39529,-1.95061 0.30641,-4.15595 -1.30018,-5.77019 -0.81214,-0.85059 -2.06838,-1.46915 -3.43649,-1.43609 -1.19845,-0.022 -2.4622,-0.0147 -3.51606,0.50747 -1.48907,0.64076 -2.77533,1.5661 -3.69125,2.70526 -0.7809,0.88463 -1.40489,1.85944 -1.69705,2.92282 -0.74807,2.15087 -1.12755,4.39701 -1.08676,6.63112 0.16857,1.67596 0.76634,3.33805 1.78181,4.81159 0.37867,0.47398 0.87515,0.8847 1.20457,1.38389 -0.28776,0.51635 -0.63715,1.01315 -0.78083,1.57252 -0.52691,1.10755 -1.1267,2.2623 -1.69395,3.38429 -0.61586,1.01627 -0.9188,2.12699 -1.56011,3.13314 -0.74349,1.38141 -1.59779,2.73845 -2.11202,4.18631 -0.7492,0.9632 -1.03342,2.0969 -1.66708,3.10627 -1.60738,2.97241 -3.46246,5.85847 -5.50096,8.65528 -0.71785,0.95808 -1.58597,1.81723 -2.5771,2.55437 -0.3023,0.22094 -0.72758,0.57554 -1.16582,0.42426 -0.41118,-0.79809 -0.30817,-1.70263 -0.31574,-2.55178 0.13707,-2.32351 0.25209,-4.66984 0.95653,-6.94066 0.2335,-1.22719 0.48686,-2.42861 0.8847,-3.61322 0.25526,-1.25535 0.55551,-2.50537 0.9772,-3.73104 0.28038,-1.24938 0.59639,-2.44585 0.96428,-3.66747 0.33117,-1.25124 0.60287,-2.51265 0.90124,-3.76928 -0.56408,-1.61995 -1.33534,-3.38317 -3.20756,-4.3279 -2.4475,-1.35127 -5.50036,-1.58715 -8.36848,-1.87379 -1.12084,-0.0821 -2.26664,-0.10769 -3.34605,-0.38757 1.90015,-2.43803 3.21059,-5.17263 3.85351,-7.99848 0.39529,-1.9506 0.3064,-4.15596 -1.30017,-5.77019 -0.81215,-0.85058 -2.06838,-1.46915 -3.43649,-1.43609 -1.19845,-0.022 -2.46219,-0.0142 -3.51606,0.50798 -1.48904,0.64078 -2.77532,1.56559 -3.69125,2.70474 -0.78089,0.88463 -1.40488,1.85944 -1.69705,2.92282 -0.74779,2.15086 -1.12791,4.39709 -1.08624,6.63112 0.16178,1.64679 0.75279,3.27508 1.71152,4.73615 0.40012,0.48313 1.0582,1.07147 0.59841,1.67431 -0.39574,0.70667 -0.73968,1.4298 -1.05058,2.16059 -1.87509,3.4765 -3.76635,6.99415 -6.3376,10.19266 -1.68191,1.82439 -3.29791,3.76445 -5.80274,4.94906 -0.99036,0.47248 -2.16614,0.57491 -3.29179,0.64182 -1.17952,0.0504 -1.90116,-0.87998 -2.23604,-1.66398 -0.48476,-1.26015 -0.6109,-2.60552 -0.72657,-3.91708 -0.20596,-2.96664 0.0203,-5.89675 0.51625,-8.8377 0.12864,-0.61349 0.17209,-1.29124 0.50539,-1.84278 1.44413,-0.006 3.04909,0.30711 4.4018,-0.31781 2.3066,-0.87807 4.30749,-2.35486 5.41259,-4.20698 0.2637,-0.69243 0.79248,-1.30435 0.99167,-2.0097 0.24966,-1.0797 0.18303,-2.19622 0.0295,-3.28093 -0.43438,-1.84932 -2.15689,-3.57035 -4.51239,-3.99666 -2.38001,-0.58499 -4.96455,-0.58899 -7.3396,0.008 -2.31889,0.52612 -4.26916,1.79456 -5.77278,3.26595 -0.91198,0.96717 -1.63905,1.96437 -2.25722,3.07475 -0.29414,0.49715 -0.73672,0.94312 -0.88057,1.49862 -0.21855,0.72224 -0.69328,1.36409 -0.91984,2.08411 -0.22815,0.76618 -1.18515,1.1016 -1.89756,1.54047 -1.82614,0.99287 -3.83632,1.87728 -5.69164,2.88716 -1.72237,0.77319 -3.34118,1.67991 -5.03432,2.48977 -0.38294,0.25233 -0.69394,0.264 -0.8139,-0.18965 -0.47296,-0.95174 -1.02521,-1.88157 -1.81746,-2.69286 -1.35494,-1.50533 -2.89438,-2.95315 -4.81315,-4.01422 -1.98315,-0.95631 -4.05512,-1.83825 -6.30452,-2.31872 -3.66699,-0.80526 -7.45014,-1.24717 -11.24789,-1.36013 4.59784,-2.60693 8.85354,-5.62295 12.50931,-9.05629 2.64991,-2.55336 4.88759,-5.38747 6.56911,-8.42223 0.40063,-0.81094 0.72528,-1.64124 1.17305,-2.43706 0.41902,-1.05542 1.00171,-2.07586 1.16479,-3.1874 0.51699,-1.43486 0.90049,-2.90305 0.96997,-4.39973 0.23204,-2.80729 -0.0381,-5.70655 -1.35548,-8.33955 -0.62947,-1.05697 -1.26939,-2.12095 -2.23552,-3.01377 -0.65135,-0.65936 -1.36765,-1.28858 -2.16369,-1.83968 2.2501,-0.3259 4.45908,-0.64066 5.04362,-0.73845 1.38895,-0.23241 7.61245,-1.74512 7.61245,-1.74512 0.5761,0.038 11.70939,-2.68498 18.8526,-4.61109 6.4643,-1.74307 6.3756,-1.71911 9.3245,-2.50889 3.29502,-0.88247 4.62245,-1.25465 12.50208,-3.50314 3.95867,-1.12963 6.78167,-1.81095 7.34993,-1.77354 0.79258,0.0523 1.92589,0.53086 3.55534,1.5012 2.20348,1.31227 15.23624,7.78982 21.34909,10.61124 1.82268,0.84124 2.90023,1.46125 4.37751,2.12029 2.16717,0.96685 5.06949,2.20001 6.57582,2.68872 1.50636,0.48869 4.07789,1.13609 4.75424,1.30948 7.96914,2.04239 17.78646,2.48519 24.00938,1.08366 2.68351,-0.60466 5.89041,-2.26657 7.69876,-3.98994 2.85874,-2.72457 3.8819,-4.73706 4.17132,-8.20467 0.30083,-3.60334 -0.54436,-7.38655 -2.43654,-10.90889 -1.02065,-1.89986 -3.06976,-4.49824 -4.11396,-5.21674 -0.46279,-0.31843 -0.97137,-0.72541 -1.13017,-0.90434 -0.49035,-0.5526 -4.84058,-2.86065 -6.57117,-3.4866 -1.41322,-0.51116 -3.62767,-1.08693 -7.31894,-1.9017 l -0.90847,-0.2005 c 0,0 -2.57084,-0.49831 -4.0442,-0.61443 -1.47325,-0.11641 -4.78627,-0.17105 -4.78627,-0.17105 -1.85769,-0.11945 -6.15454,2e-5 -7.89512,0.2191 -1.13834,0.14333 -2.87822,0.38016 -9.21288,1.25316 -0.94288,0.12994 -2.63861,0.45469 -3.76824,0.7214 -1.12967,0.26671 -4.04484,0.91583 -6.47816,1.44281 -2.43334,0.52694 -4.91221,1.09131 -5.50871,1.25367 -0.59649,0.16238 -1.37754,0.37297 -1.73529,0.4687 -2.33574,0.62494 -4.08049,1.09953 -6.97012,1.89498 -1.80604,0.49723 -3.44444,0.89346 -3.6406,0.88056 -0.19607,-0.0137 -0.91775,-0.32552 -1.60352,-0.69401 -0.68571,-0.3685 -2.24719,-1.19864 -3.47059,-1.84537 -1.22337,-0.64659 -2.3897,-1.30003 -2.59158,-1.4521 -0.20193,-0.15201 -1.15392,-0.6953 -2.11563,-1.20717 -0.96174,-0.51188 -2.78851,-1.56065 -4.05918,-2.3306 -2.40854,-1.45938 -4.40095,-2.54279 -8.91987,-4.91443 1.5754,0.21475 3.21209,0.1602 4.77387,0.1173 2.10323,-0.23005 4.01848,-1.46231 5.20123,-3.20032 2.90633,-3.45721 4.79551,-7.61226 6.65851,-11.68404 0.2998,-0.7005 1.2025,-0.13632 1.05058,0.48369 0.0829,2.04869 -0.0852,4.27 0.93741,6.13089 1.96448,2.52806 6.16728,2.96759 8.53591,0.78135 1.44395,-1.55477 1.53024,-3.80807 2.16628,-5.73453 2.04218,-7.57572 4.22877,-15.17264 7.65948,-22.25549 1.46464,-2.99141 3.21411,-6.05461 5.87923,-8.1902 0.60221,-0.68806 0.0783,0.77851 0.14056,1.12345 -0.89424,7.51992 -2.21732,15.00894 -2.89285,22.56503 -0.23958,3.78537 -0.22506,7.59191 0.007,11.37656 0.26987,2.79184 1.2276,5.82562 3.65404,7.47138 2.16986,1.33183 4.83137,1.12949 7.2719,1.17409 2.06802,-0.0505 4.12499,-0.92451 5.44618,-2.54351 2.47907,-2.71741 4.19588,-6.02468 5.79913,-9.30796 0.78802,-1.65535 1.52996,-3.33218 2.28358,-5.00331 1.22682,2.86413 3.09179,5.58101 5.85494,7.1453 3.37761,1.98803 7.59397,2.64381 11.38484,1.58233 3.69982,-1.17415 6.61031,-3.97904 9.01185,-6.92516 2.7118,-3.40491 4.88641,-7.20486 6.88124,-11.06186 0.65763,-1.39789 1.5304,-2.76759 1.82934,-4.28552 -0.22351,-1.87388 -2.88281,-2.54221 -4.12016,-1.22163 -1.29018,1.19807 -1.70096,2.99248 -2.59364,4.45967 -2.36818,4.74041 -5.09981,9.43442 -9.14466,12.97699 -1.73249,1.57021 -4.16376,2.74653 -6.53914,2.16627 -1.42573,-0.73461 -1.57051,-2.55136 -1.72082,-3.96926 -0.3093,-3.73263 -0.15198,-7.55086 0.62321,-11.20294 1.0399,-0.63062 2.32505,-0.009 3.44424,-0.39532 3.60301,-0.70035 6.6542,-3.63455 7.61142,-7.15822 0.61115,-2.54089 -0.49404,-5.53667 -2.94762,-6.66626 -2.49803,-1.29068 -5.44302,-1.2718 -8.16436,-0.91416 -3.35999,0.54954 -6.47336,2.47507 -8.37934,5.30976 -2.0545,2.7247 -3.12186,6.01668 -3.98322,9.27643 -1.49556,4.69031 -3.66468,9.12534 -5.53454,13.66945 -1.51713,3.2638 -3.14238,6.56121 -5.55057,9.26869 -0.37357,0.44172 -1.26603,0.75346 -1.53117,0.0372 -0.42467,-1.53976 -0.29009,-3.17483 -0.30696,-4.76095 -0.021,-9.01851 2.13853,-17.87881 2.12287,-26.9136 0.0417,-2.7024 0.0764,-5.50016 -0.83406,-8.07703 -1.2109,-2.68415 -4.21471,-4.32406 -7.11636,-4.1646 -3.09362,0.0127 -5.63757,2.13788 -7.65173,4.2726 -3.25601,3.60103 -5.04454,8.18838 -7.17837,12.47728 -0.0702,0.58443 -0.53361,0.3272 -0.48008,-0.0956 -0.0162,-1.56794 -0.20298,-3.41433 -1.6309,-4.36925 -2.64336,-2.07519 -6.99617,-1.75481 -9.08214,0.95912 -1.3123,1.90377 -0.80088,4.36969 -1.64744,6.44147 -1.16299,3.37323 -2.6783,6.6119 -4.02198,9.91464 -1.95613,4.66247 -3.85595,9.32529 -6.90294,13.39401 -0.48469,0.58886 -1.05315,1.12634 -1.73219,1.48415 -1.08075,-0.79268 -0.84224,-2.33347 -0.95395,-3.50676 -0.24371,-8.27975 1.63584,-16.44147 2.0376,-24.70599 0.14793,-3.53173 0.38199,-7.11349 -0.25786,-10.61072 -0.5721,-2.99228 -3.26898,-5.36268 -6.29574,-5.61051 -0.39356,-0.0445 -0.78565,-0.0578 -1.17461,-0.0439 l -0.001,-5.1e-4 c -2.72377,0.0972 -5.29256,1.5649 -7.11429,3.56205 -3.50314,3.69302 -5.51983,8.43958 -7.64191,12.99042 -0.26223,0.47672 -0.62074,1.34613 -0.62012,0.36277 -0.24283,-1.41965 -0.0358,-3.07342 -1.16014,-4.17545 -1.89232,-1.94564 -5.06435,-2.23883 -7.48275,-1.18339 -1.53407,0.64271 -2.66684,2.08013 -2.9099,3.72949 -0.32386,1.4877 -0.61926,3.02157 -1.48156,4.30826 -2.52213,5.08263 -5.19384,10.244 -9.3307,14.22394 -1.78006,1.84616 -4.32304,3.29648 -6.95926,2.91765 -1.40741,-0.32094 -1.74633,-1.93192 -2.01435,-3.13779 -0.57068,-3.11374 -0.36901,-6.23989 0.0816,-9.32243 0.17994,-0.98866 0.25985,-2.03861 0.58343,-2.97501 0.7627,-0.16732 1.57854,0.0857 2.36316,-0.0558 2.47144,-0.14083 4.6784,-1.56136 6.37119,-3.28507 1.99078,-2.08364 3.03001,-5.332 1.82676,-8.06463 -1.00188,-2.17428 -3.35555,-3.39163 -5.66614,-3.58041 -3.62635,-0.54582 -7.53157,0.1016 -10.50634,2.34095 -3.33838,2.43563 -5.26986,6.34636 -6.26938,10.26862 -0.86162,3.68179 -0.97388,7.5836 -0.0951,11.27218 0.87544,3.58583 3.01854,6.96308 6.28489,8.80205 4.2314,2.4729 9.85625,2.87152 14.14435,0.31626 4.36055,-2.77063 7.47818,-7.02096 10.18543,-11.33213 0.0658,3.8666 -0.0218,7.77264 0.6444,11.59206 0.0537,0.14363 0.13406,0.26565 0.20206,0.39791 -6.65939,0.95049 -10.97989,2.91313 -15.12725,6.85488 -2.47797,2.35515 -4.11116,5.09079 -5.15007,8.62841 -1.04088,3.54437 -0.54295,6.32173 1.37976,7.69411 0.5143,0.36713 0.55927,0.35351 0.89555,-0.27182 0.19471,-0.36205 0.51337,-1.09217 0.70849,-1.62264 1.7528,-4.7652 5.95793,-9.73692 10.04796,-11.88041 4.76732,-2.49842 11.49925,-3.53721 16.65273,-2.56987 4.05503,0.76119 7.37061,2.05083 13.69064,5.32525 4.91078,2.54437 9.32841,5.04398 13.71286,7.7587 2.36974,1.46732 4.64929,2.86312 5.0648,3.10111 0.41553,0.23801 0.74775,0.51778 0.73846,0.6227 -0.0102,0.10485 -1.16556,0.52179 -2.56935,0.92604 -1.40373,0.40421 -3.48095,1.00571 -4.61626,1.33635 -1.13529,0.33062 -2.89448,0.83401 -3.90932,1.1188 -1.01484,0.28479 -2.53032,0.72085 -3.36724,0.96893 -0.83693,0.24809 -2.25347,0.64928 -3.14812,0.89193 -1.6055,0.4354 -3.25491,0.91219 -8.36383,2.41691 -3.65542,1.07654 -6.65648,1.90602 -8.67958,2.3983 -0.95192,0.23164 -2.75431,0.6859 -4.00544,1.00976 -6.55937,1.69779 -16.61711,3.56912 -21.82089,4.06022 -1.1874,0.11205 -3.45706,0.34097 -5.04362,0.50849 -1.58655,0.16753 -3.60043,0.32359 -4.47569,0.34727 -0.87528,0.0237 -2.54867,0.0911 -3.71812,0.14986 -4.30982,0.21631 -18.02894,-0.83366 -21.86637,-1.67328 -4.04005,-0.88407 -8.4244,-2.43947 -10.97969,-3.89537 -3.78147,-2.15457 -6.218488,-5.62356 -6.795449,-9.38134 0.09315,-0.37507 0.201836,-0.74638 0.278019,-1.12551 0.200951,-1.00004 0.372412,-2.00574 0.547254,-3.01067 0.108922,-0.62604 0.195349,-1.25428 0.2651,-1.88516 -0.160845,0.0242 -0.321955,0.0467 -0.482658,0.0718 0.750616,-2.34578 1.999964,-4.86152 3.434414,-6.83111 2.94775,-4.04731 8.03443,-6.78974 12.64212,-6.81612 0.3407,-0.002 0.60246,0.0276 0.89762,0.0429 0.11066,2.03271 0.25132,4.06386 0.4377,6.09162 0.47998,2.18097 2.86144,3.3774 4.95991,3.22564 2.1743,0.0707 4.61703,-0.4226 6.06578,-2.17454 0.82775,-1.50356 0.30805,-3.2639 0.43511,-4.88652 -0.14014,-7.23958 -0.80772,-14.52746 -0.27595,-21.73408 0.24589,-7.40589 0.39057,-14.81659 1.16479,-22.16092 2.90658,-0.12038 5.88151,0.13061 8.7328,-0.48731 1.34471,-0.70125 1.31022,-3.2043 -0.32763,-3.49178 -1.76279,-0.13711 -3.53915,-0.0344 -5.30614,-0.14676 -0.96288,-0.0217 -1.92562,-0.058 -2.88819,-0.0909 0.28518,-3.53011 0.74146,-7.07626 1.02164,-10.62932 0.59833,-6.25442 1.27797,-12.53428 2.50372,-18.71824 6.72008,0.37985 13.46839,1.26433 20.22667,1.44126 3.4423,0.0688 6.91696,0.15438 10.32806,-0.37879 1.86759,-0.33681 3.7908,-0.72989 5.44721,-1.68569 0.87491,-0.58232 1.16397,-1.942484 0.33796,-2.693373 -0.86763,-0.981084 -2.31646,-0.827359 -3.43028,-0.428914 -2.49724,0.625089 -5.05708,1.206937 -7.66413,1.118278 -6.8247,0.129749 -13.59178,-0.694892 -20.40289,-1.255221 -6.77071,-0.608894 -13.55204,-1.239149 -20.35225,-1.349788 -5.94794,0.13451 -12.01383,0.321214 -17.788056,1.831412 0.404244,-0.963271 0.814396,-1.983053 1.179776,-2.70216 0.84028,-1.653828 1.00125,-2.226782 0.9648,-3.439584 -0.0363,-1.209284 -0.16016,-1.555816 -0.73329,-2.05052 -0.37933,-0.327422 -0.83335,-0.595313 -1.008727,-0.595313 -0.175376,0 -0.794119,0.421205 -1.374593,0.936377 -0.580474,0.515154 -1.474936,1.158899 -1.987992,1.430404 -0.513076,0.271485 -1.70372,1.061252 -2.645834,1.754931 -0.942114,0.693698 -2.367936,1.745898 -3.168282,2.337842 -0.800346,0.591944 -2.645861,2.074727 -4.101042,3.295406 -1.455181,1.220683 -3.451324,3.051073 -4.435905,4.066933 -0.984581,1.01586 -2.670028,3.05392 -3.744991,4.52944 -1.074962,1.47551 -2.549733,3.71401 -3.277319,4.97438 -0.727585,1.26036 -1.478152,2.74866 -1.668115,3.30729 -0.189962,0.55861 -0.425684,1.13502 -0.523483,1.28054 -0.09779,0.14552 -0.55385,1.51478 -1.013374,3.04271 -0.459526,1.52794 -1.061051,3.27112 -1.33687,3.87366 -0.320052,0.69918 -1.058109,1.52209 -2.040185,2.27428 -0.846346,0.64824 -2.134255,1.50762 -2.861841,1.90996 -0.727585,0.40235 -2.275436,1.35991 -3.439583,2.12804 -1.164148,0.76813 -2.743232,1.84501 -3.509347,2.39262 -0.766096,0.5476 -1.453219,0.9358 -1.526521,0.86248 -0.07332,-0.0733 0.210481,-0.95473 0.630452,-1.95854 0.419972,-1.00381 1.032967,-2.65867 1.362191,-3.67729 0.329205,-1.01863 0.949368,-2.62601 1.37821,-3.57188 0.42886,-0.94587 1.229882,-2.49371 1.780253,-3.43958 0.550389,-0.94587 1.871832,-3.20248 2.936255,-5.01417 1.064424,-1.81168 2.661298,-4.37158 3.548621,-5.68854 0.887321,-1.31695 2.500311,-3.64436 3.584277,-5.17229 1.083967,-1.52793 2.03706,-2.83766 2.1177,-2.91042 0.08064,-0.0728 1.08852,-1.32293 2.239657,-2.778125 1.151138,-1.45517 2.990639,-3.657901 4.088122,-4.894791 1.097483,-1.236908 3.843622,-4.138149 6.10247,-6.447152 2.258851,-2.309004 5.281012,-5.226092 6.715353,-6.482292 1.434323,-1.256181 3.250356,-2.782669 4.035929,-3.392041 l 1.428337,-1.107942 1.255737,0.427364 c 0.69044,0.235162 1.91671,0.815231 2.7249,1.28881 0.80819,0.47356 2.40478,1.672954 3.5481,2.664954 1.14332,0.991999 2.29683,2.101182 2.56315,2.464965 0.40232,0.549575 0.44691,0.891447 0.26562,2.022099 -0.15914,0.992487 -0.12066,1.546875 0.14159,2.04742 0.19779,0.377487 0.70816,0.866129 1.13378,1.086239 0.42565,0.220111 1.18174,0.400492 1.68052,0.400492 0.49876,0 1.31087,-0.168903 1.80454,-0.375171 0.49365,-0.206248 1.08635,-0.59324 1.31723,-0.859895 0.23089,-0.266675 0.54029,-0.978568 0.6873,-1.581816 0.16087,-0.660118 0.18019,-1.647984 0.0486,-2.480985 -0.12034,-0.761256 -0.42757,-1.614676 -0.68264,-1.896526 -0.25508,-0.28183 -1.02194,-0.752393 -1.70429,-1.045931 -0.68233,-0.29352 -1.51105,-0.821587 -1.84123,-1.173055 -0.33019,-0.351449 -0.54235,-0.696338 -0.47181,-0.766878 0.0705,-0.07054 1.18492,0.231352 2.47685,0.67076 1.29192,0.439426 2.89212,0.919047 3.55534,1.066085 0.66322,0.147037 1.89024,0.515703 2.72696,0.819072 0.83675,0.30335 1.52136,0.644972 1.52136,0.759126 0,0.114154 0.4008,0.455184 0.8909,0.758094 0.59826,0.369728 1.33548,0.55087 2.24276,0.55087 0.83915,0 1.65109,-0.182389 2.14147,-0.48059 0.43435,-0.264155 1.04914,-0.810152 1.36632,-1.213363 0.4511,-0.573499 0.57161,-1.069201 0.55449,-2.276864 -0.012,-0.84911 -0.17458,-1.789074 -0.36173,-2.088761 -0.18716,-0.299687 -0.52172,-0.620278 -0.74311,-0.712618 -0.22141,-0.09234 -0.78255,-0.259023 -1.24695,-0.37052 -0.46438,-0.111496 -1.93587,-0.08617 -3.27009,0.05633 -2.20456,0.235444 -2.58618,0.205519 -4.18269,-0.325561 -0.96622,-0.321429 -1.85909,-0.679423 -1.98386,-0.795301 -0.12476,-0.115877 0.0307,-0.347928 0.3452,-0.516247 0.37974,-0.203238 1.25585,-0.248001 2.60811,-0.132809 1.86298,0.158698 2.11486,0.119858 2.9621,-0.455269 0.50932,-0.345747 1.18447,-1.100852 1.50016,-1.677934 0.31569,-0.577063 0.58284,-1.465769 0.59376,-1.975073 0.0109,-0.509304 -0.10336,-1.369065 -0.25373,-1.910478 -0.15036,-0.541393 -0.53334,-1.16649 -0.85111,-1.389062 -0.31776,-0.222572 -0.88723,-0.404627 -1.26555,-0.404627 -0.38603,0 -1.43404,0.520913 -2.38849,1.187525 -0.93535,0.653256 -1.80193,1.189025 -1.92546,1.190625 -0.12353,0.0016 -0.59978,0.169738 -1.05834,0.37362 -0.45853,0.203902 -1.21913,0.49475 -1.69033,0.646473 -0.47118,0.151704 -1.72138,0.848308 -2.77813,1.547709 l -1.92133,1.271757 h -2.38125 c -1.30966,0 -2.8575,-0.100539 -3.43958,-0.223243 l -1.05833,-0.223242 0.79375,-0.646472 c 0.43654,-0.355687 2.46066,-1.754692 4.49791,-3.108854 2.03726,-1.354162 4.4781,-2.94703 5.42396,-3.539836 0.94587,-0.592787 3.14856,-1.875249 4.89479,-2.849438 1.74622,-0.974189 5.02051,-2.680477 7.27605,-3.792017 l 4.10104,-2.021065 2.64583,0.0052 c 1.48126,0.003 3.7522,0.222329 5.15938,0.49816 1.38242,0.270996 3.60573,0.768876 4.94078,1.106393 1.33505,0.337518 4.01401,1.147187 5.95312,1.799373 1.93912,0.652205 4.24028,1.43196 5.11339,1.732711 0.8731,0.300751 1.82562,0.661037 2.11666,0.800468 0.29103,0.139431 1.48169,0.686908 2.64584,1.216463 1.16414,0.529575 2.712,1.200949 3.43958,1.491899 0.72759,0.290931 2.03731,0.74143 2.91042,1.000972 0.8731,0.259562 2.18281,0.631644 2.91041,0.82734 0.81406,0.218952 2.79861,0.358252 5.15938,0.362252 2.10999,0.0035 5.14615,-0.152492 6.74688,-0.346749 1.60073,-0.194257 3.973,-0.525092 5.27151,-0.735356 1.29851,-0.210263 2.86402,-0.604973 3.47886,-0.876949 0.84746,-0.374852 1.15324,-0.676639 1.26452,-1.248502 0.0808,-0.41491 0.0631,-1.21799 -0.0393,-1.784388 -0.11694,-0.647344 -0.43221,-1.209717 -0.84801,-1.514119 -0.3638,-0.26633 -1.31578,-0.660502 -2.11615,-0.875916 -0.80036,-0.215395 -2.52677,-0.708952 -3.83646,-1.09709 -1.30969,-0.388157 -3.69201,-0.979967 -5.29271,-1.315165 -1.6007,-0.335216 -4.51779,-0.754415 -6.48229,-0.93121 -1.96449,-0.176796 -5.00066,-0.371542 -6.74687,-0.432532 -1.98556,-0.06934 -4.11614,0.03177 -5.68803,0.269235 -1.61697,0.244251 -3.03261,0.307617 -3.96875,0.177767 -0.80035,-0.111031 -2.94353,-0.766765 -4.7625,-1.456759 -1.81898,-0.689994 -3.94392,-1.49014 -4.72116,-1.778186 -0.77723,-0.288047 -1.71468,-0.680402 -2.08359,-0.871781 -0.67067,-0.347951 -0.67088,-0.348033 0.88367,-1.128097 0.8551,-0.429101 2.3884,-1.049609 3.40702,-1.378727 1.01863,-0.329137 2.35808,-0.759741 2.97657,-0.957048 0.61849,-0.197307 1.58174,-0.431558 2.14043,-0.520898 0.73157,-0.116985 1.30541,-0.01855 2.05053,0.352433 0.56902,0.283316 2.10615,0.839314 3.41581,1.235584 1.30966,0.396251 2.91704,0.882294 3.57187,1.080037 0.65484,0.197743 2.47664,0.606251 4.04833,0.907955 2.06231,0.395877 3.90852,0.548804 6.63319,0.548804 2.73125,0 4.43935,-0.141797 6.17224,-0.512114 1.31747,-0.281525 3.1546,-0.758183 4.08244,-1.059367 0.92765,-0.301166 2.04339,-0.70951 2.47995,-0.907438 0.43655,-0.197929 3.73173,-1.820743 7.32255,-3.605981 l 6.52932,-3.245797 c 0,0 4.55799,-2.053501 6.90707,-2.900598 1.7619,-0.635353 3.75588,-1.080843 5.37641,-1.631425 0.31527,-0.107115 0.45527,-0.970483 0.45527,-0.970483 0,-0.549284 -0.0747,-1.191956 -0.16536,-1.428337 -0.0907,-0.236382 -0.59628,-0.649299 -1.12396,-0.917773 -0.52775,-0.268492 -1.80294,-0.739171 -2.83342,-1.045415 -1.03047,-0.306225 -3.29326,-0.847325 -5.0276,-1.20251 -1.73441,-0.355204 -4.93873,-0.839397 -7.12153,-1.075904 -2.18271,-0.236489 -4.07962,-0.459533 -4.21473,-0.496093 -0.13511,-0.03656 0.26654,-0.476534 0.89142,-0.977202 0.62489,-0.500671 2.48696,-2.414651 4.13773,-4.253491 1.65076,-1.83865 3.88779,-4.05678 4.97179,-4.92889 1.08408,-0.87211 2.7101,-2.04639 3.61425,-2.60966 0.90415,-0.56327 2.0068,-1.33344 2.44998,-1.71101 0.64684,-0.55109 0.79928,-0.87729 0.76998,-1.65571 -0.02,-0.53332 -0.16216,-1.20551 -0.31626,-1.49345 -0.1541,-0.28794 -0.54925,-0.59053 -0.87695,-0.67283 -0.32769,-0.0822 -1.15433,-0.0247 -1.83658,0.12816 -0.68224,0.1529 -3.81726,0.57624 -6.9665,0.94051 -3.94987,0.45688 -6.63925,0.91907 -8.67234,1.48983 -1.621,0.45507 -4.07872,1.18475 -5.46117,1.62161 -1.38244,0.43685 -3.68803,1.25895 -5.12268,1.82728 -1.43462,0.56834 -3.74476,1.63702 -5.13354,2.37453 -1.38878,0.73751 -3.31047,1.88417 -4.27054,2.54816 -0.96007,0.66399 -2.51904,1.80661 -3.46491,2.53938 -0.94586,0.73276 -2.91045,2.35013 -4.36562,3.594099 -1.45519,1.243924 -3.52672,3.095333 -4.60282,4.11396 -1.07609,1.018627 -2.29042,2.182366 -2.69855,2.586406 -0.40812,0.404021 -1.55186,1.400487 -2.54144,2.213818 -0.98959,0.813332 -2.79679,2.13004 -4.01578,2.926436 -1.21899,0.796415 -3.47898,2.048042 -5.02191,2.781226 -1.54293,0.733183 -3.46212,1.56262 -4.26538,1.842782 -0.80327,0.280143 -2.7538,0.930639 -4.3341,1.445389 l -2.87321,0.935861 -0.90279,-0.875399 c -0.79706,-0.772549 -1.06523,-0.872418 -2.28926,-0.854728 -0.85084,0.0123 -1.79366,0.231593 -2.4412,0.567407 -0.58033,0.300955 -1.94873,1.469053 -3.04012,2.596224 -1.09139,1.12717 -2.67303,2.55816 -3.51452,3.179651 -0.84148,0.621472 -2.28119,1.485251 -3.1998,1.919262 -0.91861,0.434029 -2.10575,0.870714 -2.63757,0.970484 -0.56851,0.106653 -0.96686,0.07628 -0.96686,-0.07338 0,-0.140001 0.12877,-0.659295 0.28629,-1.153934 0.15751,-0.494658 0.38869,-1.137296 0.51366,-1.428337 0.12497,-0.291042 0.60489,-1.422155 1.06608,-2.513542 0.4612,-1.091387 1.36551,-3.07684 2.0097,-4.412133 0.70693,-1.465345 1.66591,-2.948631 2.41846,-3.741374 1.02813,-1.083063 1.49281,-1.365086 2.64893,-1.607137 0.77113,-0.161447 2.32723,-0.293522 3.45767,-0.293522 1.16128,0 2.87711,-0.215865 3.94446,-0.496094 1.03901,-0.272787 3.35203,-1.069866 5.14078,-1.771468 1.78875,-0.701601 4.80036,-2.062511 6.69209,-3.024105 1.89174,-0.961593 4.45215,-2.41437 5.68906,-3.228227 1.2369,-0.813858 2.58531,-1.836281 2.99724,-2.271696 0.68616,-0.725278 0.73031,-0.887788 0.52193,-1.941488 -0.18114,-0.91583 -0.37462,-1.20209 -0.95033,-1.40456 -0.48939,-0.17206 -1.00009,-0.15497 -1.58027,0.0506 -0.47133,0.16763 -2.82137,0.61169 -5.22242,0.98651 -2.40104,0.37464 -5.28235,0.89806 -6.40271,1.16272 l -2.03708,0.4811 0.84646,-0.97306 c 0.46552,-0.53507 1.97758,-2.29247 3.36,-3.90571 1.38243,-1.61325 2.9898,-3.60263 3.57187,-4.42092 0.58208,-0.81829 1.17792,-1.63262 1.32344,-1.80919 0.14551,-0.17658 0.56912,-0.73763 0.94206,-1.24695 0.37293,-0.50932 1.47472,-2.32109 2.44791,-4.02611 0.97319,-1.70503 2.29555,-4.14581 2.93884,-5.4239597 0.6433,-1.27815 1.47684,-3.06467 1.85208,-3.96979 0.37525,-0.90493 0.68213,-2.1157 0.68213,-2.69027 0,-0.57457 -0.0759,-1.24178 -0.16846,-1.48311 -0.0926,-0.24124 -0.44453,-0.54405 -0.7829,-0.67283 z M 71.197095,97.469102 c 0.05065,0.151958 -0.245761,0.680241 -0.658874,1.173572 -0.413113,0.493312 -1.302505,1.651996 -1.976107,2.575036 -0.673594,0.92304 -2.025749,2.8691 -3.004984,4.32428 -0.979234,1.45519 -1.876546,2.74863 -1.993677,2.87425 -0.11713,0.12561 -0.153018,-0.76738 -0.07958,-1.98438 0.0734,-1.217 0.31217,-2.70567 0.530717,-3.30781 0.218546,-0.60215 0.833148,-1.51463 1.365291,-2.02778 0.532162,-0.51316 2.037734,-1.601122 3.346049,-2.41794 1.308336,-0.816819 2.420517,-1.361185 2.471167,-1.209228 z m 44.483075,3.061828 c 1.7892,-0.0148 3.57939,0.0109 5.3666,0.0997 -1.11972,5.67487 -1.6704,11.44093 -2.3673,17.17828 -0.42302,3.64454 -0.69014,7.37907 -1.01958,10.98744 -0.0898,0.70852 -0.19042,1.41583 -0.31419,2.11925 -2.75367,0.17766 -5.60473,-0.18498 -8.27185,0.66198 -1.31985,0.66964 -1.21378,3.01228 0.31781,3.33209 2.05374,0.57011 4.2539,0.15428 6.36809,0.308 0.53997,0.067 1.52081,-0.29428 1.20613,0.60254 -0.19119,6.6215 -0.85254,13.21315 -0.97152,19.8453 -0.17602,5.15006 -0.21873,10.30886 -0.0894,15.46211 -2.02827,-0.14535 -4.40891,-0.14143 -5.88491,0.24391 -2.39525,0.6254 -3.47658,1.09611 -5.43119,2.36368 -5.717549,3.70777 -8.916211,9.41799 -9.60717,17.14728 -0.0074,0.0825 -0.0047,0.16407 -0.01085,0.24649 -0.0361,0.008 -0.07242,0.0148 -0.10852,0.0227 -0.0357,0.0155 -0.03484,0.0297 -0.07286,0.046 -0.654843,0.28017 -1.547831,0.66903 -1.984375,0.86403 -0.436562,0.19498 -1.389082,0.58716 -2.116667,0.87178 -0.727586,0.28461 -2.454037,0.90242 -3.836458,1.37253 -1.382423,0.47011 -3.704196,1.43634 -5.159375,2.14716 -1.455181,0.7108 -3.15196,1.58107 -3.770313,1.93373 -0.618353,0.35265 -2.106669,1.41143 -3.307292,2.35283 -1.200623,0.9414 -3.161703,2.70714 -4.357873,3.9243 -1.19617,1.21715 -2.549647,2.72502 -3.008085,3.35019 -0.458448,0.62518 -0.874415,1.09604 -0.923975,1.04644 -0.04956,-0.0496 0.03548,-0.978 0.188619,-2.06292 0.153142,-1.08493 0.375544,-6.3779 0.494027,-11.76207 0.118483,-5.38418 0.341095,-10.50398 0.49506,-11.37708 0.153969,-0.87311 0.20873,-2.24235 0.12144,-3.04271 -0.08729,-0.80035 -0.276107,-1.60404 -0.419613,-1.78594 -0.143505,-0.1819 -0.663688,-0.33073 -1.155485,-0.33073 -0.792233,0 -1.03087,0.18854 -2.095996,1.65365 -0.66119,0.90948 -1.821863,2.52461 -2.579171,3.58892 -0.7573,1.06432 -1.855227,2.55264 -2.439644,3.3073 -0.584426,0.75467 -1.485032,2.02687 -2.001428,2.82721 -0.516415,0.80035 -1.192296,1.99102 -1.501717,2.64584 -0.30942,0.65484 -0.823731,1.84547 -1.142566,2.64583 -0.318855,0.80035 -0.752739,2.16961 -0.964282,3.04271 -0.211542,0.87311 -0.493925,2.54001 -0.627869,3.70417 -0.133943,1.16415 -0.361876,2.92231 -0.506429,3.90725 -0.144563,0.98495 -0.263033,2.25891 -0.263033,2.83084 0,0.57191 0.178261,2.39788 0.395841,4.05763 0.217579,1.65975 0.636991,3.77422 0.932243,4.69842 0.295252,0.9242 1.009969,2.55817 1.588534,3.63079 0.578566,1.0726 1.052132,2.06514 1.052132,2.20555 0,0.1404 -0.341024,0.99413 -0.758093,1.89755 -0.417069,0.90343 -1.080838,2.45916 -1.474846,3.45664 -0.393998,0.99749 -1.054324,2.36673 -1.467611,3.04271 -0.413267,0.67599 -0.948946,1.91348 -1.190108,2.75022 -0.241162,0.83675 -0.482551,1.52135 -0.536401,1.52135 -0.05385,0 -0.170459,-0.11735 -0.258899,-0.26045 -0.08844,-0.14311 -0.325874,-1.00631 -0.527616,-1.91823 -0.201742,-0.91192 -0.683381,-3.08656 -1.070219,-4.83277 -0.386837,-1.74624 -0.878061,-4.30613 -1.091923,-5.68855 -0.213862,-1.38243 -0.436827,-2.8112 -0.495577,-3.175 -0.05875,-0.36381 -0.230408,-1.97118 -0.381372,-3.57187 -0.150963,-1.60069 -0.392644,-3.8034 -0.536919,-4.89479 -0.144265,-1.09139 -0.386226,-4.24662 -0.537434,-7.01146 -0.151215,-2.76483 -0.334566,-7.96091 -0.407727,-11.54658 -0.117413,-5.754 -0.0833,-6.56953 0.292488,-6.94532 0.234174,-0.23415 0.631158,-0.42581 0.882117,-0.42581 0.250949,0 1.334671,-0.54172 2.408122,-1.20354 1.073443,-0.66184 2.377974,-1.56718 2.898531,-2.01177 0.520558,-0.44456 2.238643,-2.07579 3.818371,-3.6251 1.579738,-1.54929 3.851426,-4.00754 5.047754,-5.46271 1.196329,-1.45519 2.701925,-3.35833 3.345532,-4.2292 0.643617,-0.87086 1.229753,-1.70431 1.302763,-1.85209 0.07301,-0.14777 1.034122,-1.63795 2.135787,-3.31142 1.101666,-1.67345 2.531727,-3.99523 3.178101,-5.15938 0.646373,-1.16413 1.668603,-3.12872 2.271179,-4.36562 0.602575,-1.23689 2.178641,-4.47456 3.502112,-7.1944 1.910077,-3.92534 2.406054,-5.18351 2.406054,-6.10092 0,-0.63566 -0.162879,-1.37892 -0.362252,-1.65157 -0.296609,-0.40556 -0.671885,-0.48682 -2.098063,-0.44752 -0.954597,0.0263 -2.498927,0.22444 -3.431832,0.4408 -0.932906,0.21635 -2.518432,0.7016 -3.523816,1.07797 -1.005382,0.37637 -2.840362,1.22869 -4.07727,1.89394 -1.236908,0.66523 -3.560904,2.0735 -5.164542,3.12952 -1.603657,1.05604 -3.772889,2.71369 -4.820378,3.6835 -1.047488,0.96981 -2.788092,2.86175 -3.867981,4.20439 -1.079889,1.34265 -2.34682,3.03166 -2.815332,3.75326 -0.588525,0.90648 -0.806939,1.1076 -0.706417,0.65061 0.08002,-0.3638 0.380351,-1.55445 0.667143,-2.64583 0.286792,-1.09139 0.659524,-2.46065 0.828373,-3.04271 0.168848,-0.58207 0.605845,-1.95132 0.971,-3.04271 0.365174,-1.09139 0.979988,-2.46063 1.366842,-3.04271 0.386853,-0.58206 1.359781,-1.75495 2.161625,-2.60604 0.801844,-0.85109 2.172186,-2.116 3.045292,-2.8112 0.873106,-0.6952 3.100868,-2.26134 4.950086,-3.47989 1.849218,-1.21855 3.873337,-2.53189 4.497916,-2.91868 0.624598,-0.3868 2.206913,-1.32248 3.516581,-2.07895 1.309663,-0.75646 2.940672,-1.59653 3.624585,-1.86707 0.683915,-0.27054 2.231763,-0.61773 3.439584,-0.77153 1.207819,-0.1538 2.612976,-0.38153 3.12229,-0.50591 0.509313,-0.12438 1.878564,-0.58206 3.042708,-1.01699 0.986463,-0.36855 2.051122,-0.78987 2.794661,-1.09244 1.664236,1.5544 3.737091,2.64012 6.040459,2.86856 1.474278,0.11642 3.380506,-0.14546 4.033345,-1.68052 0.70167,-1.46325 -0.0935,-3.45656 -1.716691,-3.84938 -0.885844,-0.29771 -1.791857,-0.17999 -2.695959,-0.0413 1.444879,-0.7533 3.111882,-1.64754 4.098458,-2.29753 1.244328,-0.81983 2.751045,-1.88335 3.348116,-2.36316 0.597052,-0.47984 4.143413,-3.20979 5.190383,-4.35736 0.14616,-0.14088 2.64635,-3.13056 2.64635,-3.13056 0.65267,-0.80075 1.44615,-1.96445 1.7632,-2.58589 0.50718,-0.99419 0.54057,-1.26398 0.2775,-2.24792 -0.16444,-0.61505 -0.4214,-1.26711 -0.57051,-1.44901 -0.14911,-0.1819 -0.6926,-0.33073 -1.20768,-0.33073 -0.5151,0 -1.42309,0.28243 -2.01796,0.62787 -0.59485,0.34545 -1.73645,0.81425 -2.5368,1.04128 -0.80034,0.22705 -2.45729,0.60054 -3.681943,0.82992 -1.224636,0.22939 -2.802252,0.58794 -3.505729,0.79685 -0.703458,0.20888 -1.278991,0.30637 -1.278991,0.21653 0,-0.0898 0.168049,-0.35162 0.37362,-0.58136 0.205572,-0.22974 0.890864,-1.4296 1.522388,-2.66651 0.48318,-0.94638 0.886501,-1.80838 1.221114,-2.53059 2.132013,-0.8498 4.385251,-1.44296 6.632671,-1.88309 3.87684,-0.74505 7.93145,-0.99291 11.93415,-0.99426 z m -8.91935,15.3293 c 0.142,-0.0911 -0.22044,0.13009 -0.43822,0.25373 -0.10804,0.0744 -0.18691,0.13064 -0.22738,0.15658 0.18305,-0.10972 0.15187,-0.0808 0.6656,-0.41031 z m 87.22516,20.36258 c -0.44733,4.19956 -0.98956,8.36147 -1.64537,12.53153 -0.5116,3.89158 -1.14402,7.77666 -1.36374,11.69851 -0.17401,3.70931 -0.28691,7.43833 -0.11318,11.14403 0.48322,1.97065 0.94061,4.14835 2.15698,5.80378 -6.64453,-3.38545 -10.30366,-4.87338 -14.37122,-5.65702 0.29948,-0.4634 0.51534,-0.9812 0.60927,-1.54461 1.06259,-3.71786 1.99463,-7.47297 3.14089,-11.16779 1.91316,-6.36383 4.18647,-12.65646 7.58714,-18.36167 1.05714,-1.69971 2.36049,-3.27877 3.99923,-4.44676 z m 84.49252,5.68854 c 1.73283,0.26629 2.4379,2.66173 1.26039,3.90932 -1.05598,1.52791 -2.82562,2.68073 -4.65915,2.81378 0.25843,-1.81324 1.11364,-3.49487 2.02779,-5.06067 0.40195,-0.59514 0.8429,-1.17445 1.37097,-1.66243 z m -124.26942,0.0517 c 0.0794,0.0124 0.1588,0.0248 0.23823,0.0372 1.59035,0.40153 2.10482,2.63331 0.99219,3.7884 -1.06161,1.52193 -2.82176,2.76208 -4.68757,2.79363 0.4014,-1.86198 1.16616,-3.67001 2.21795,-5.2617 0.37175,-0.47518 0.71871,-1.05391 1.2392,-1.35754 z m 48.63838,30.54801 c -0.0496,0.002 -0.0995,0.001 -0.14935,0.006 -0.015,0.007 -0.0589,0.0116 -0.045,0.0191 0.0235,0.0136 0.0526,0.004 0.0791,-0.001 0.0385,-0.008 0.0766,-0.0176 0.11524,-0.0238 z m 62.28922,19.15335 c 1.13177,-2.4e-4 2.1714,0.0222 3.19464,0.0718 v 5.2e-4 c 2.04662,0.0988 4.02748,0.3072 6.5474,0.65112 8.38994,1.14494 11.98226,2.59659 16.06465,6.49314 1.90589,1.8191 2.83666,3.56577 2.7032,5.07256 -0.0589,0.6586 -1.05499,2.93145 -1.5875,3.62097 -2.56959,3.3272 -6.62559,5.17472 -12.13259,5.52473 -0.99655,0.0634 -2.58431,0.17219 -3.52795,0.24236 -1.5958,0.1187 -6.36061,-0.145 -7.78299,-0.42995 -0.34317,-0.069 -1.79672,-0.32541 -3.2303,-0.57051 -3.67957,-0.62972 -7.63517,-1.76963 -11.04273,-3.18378 -1.12294,-0.46603 -2.50471,-0.99692 -3.07062,-1.17977 -1.3813,-0.44631 -10.5814,-4.73954 -12.60336,-5.8813 -0.88701,-0.50088 -2.70878,-1.44162 -4.04833,-2.09031 -4.25227,-2.05912 -4.49278,-2.20806 -3.98787,-2.4753 0.49289,-0.26086 4.02325,-1.18743 5.37073,-1.40974 0.48337,-0.0797 2.99714,-0.63499 5.58622,-1.23299 7.69873,-1.77817 15.52678,-3.02623 19.80034,-3.15743 1.3915,-0.0427 2.61529,-0.0659 3.74706,-0.0661 z M 96.768144,202.07977 c 0.850577,2.23571 2.648319,4.33651 3.039608,4.94285 0.414698,0.64258 0.867128,0.88677 0.867128,0.88677 2.59023,2.64907 4.89229,4.3112 7.45433,5.38262 5.55092,2.32132 9.09852,3.09728 17.77204,3.88658 0,0 3.30687,0.47137 6.21306,0.56534 1.44867,0.0468 4.24086,-0.0259 6.67763,-0.11007 -0.13906,0.11424 -0.28806,0.22039 -0.42272,0.33796 -1.53686,1.22534 -2.73272,2.6809 -3.96255,4.0995 -1.4594,1.50092 -2.27304,3.30324 -3.37343,4.96868 -0.90352,1.3568 -1.4406,2.84385 -2.1854,4.24678 -0.60927,1.30411 -1.08964,2.64703 -1.74925,3.93412 -0.61756,1.89257 -1.28768,3.77499 -1.81849,5.68596 -0.28709,1.19993 -0.94781,2.33472 -1.02319,3.56722 -0.48141,1.80605 -1.02061,3.6119 -1.32912,5.4529 -0.64141,3.01157 -1.1992,6.03452 -1.59732,9.07283 -0.32343,1.43282 -0.65117,2.89327 -0.74983,4.36408 -0.0815,0.71097 -0.1501,1.42294 -0.24081,2.1332 0.0693,-3.71852 0.0682,-7.44416 0.5116,-11.14919 0.37992,-3.65362 0.61872,-7.31632 1.11311,-10.96212 0.38744,-3.29414 0.92645,-6.57439 1.22525,-9.87485 0.0443,-1.11984 0.12693,-2.28947 -0.34055,-3.3631 -0.57986,-1.09962 -2.0184,-1.70596 -3.42873,-1.89601 -1.54009,-0.25049 -3.20078,-0.24487 -4.6762,0.21032 -1.0799,0.51216 -1.9544,1.29631 -2.5678,2.16266 -0.49582,0.99271 -0.4402,2.08757 -0.73381,3.12022 -1.22824,6.27345 -1.65452,12.62595 -2.00246,18.96422 -0.4447,10.0603 -0.19878,20.14068 0.62683,30.1842 0.24824,2.64595 0.54606,5.29075 0.94051,7.9251 0.18211,1.09863 0.57124,2.11295 0.65371,3.19981 0.0833,0.57854 0.15361,1.18053 0.28319,1.76733 -1.55869,-0.23835 -1.80919,-0.33881 -1.80919,-0.89762 0,-0.35401 -0.25788,-1.37071 -0.5731,-2.25878 -0.31519,-0.88787 -0.70216,-1.79296 -0.85989,-2.01124 -0.15772,-0.21828 -0.45318,-0.69454 -0.65681,-1.05834 -0.20363,-0.3638 -1.01771,-1.52434 -1.80867,-2.57865 -0.79097,-1.05431 -2.58865,-3.09428 -3.99511,-4.53357 -1.40645,-1.43929 -2.691483,-2.66053 -2.855121,-2.71353 -0.163638,-0.053 -1.159867,-0.90086 -2.213818,-1.88464 -1.053952,-0.98377 -2.199874,-1.86017 -2.546615,-1.94717 -0.346732,-0.087 -0.913916,-0.087 -1.260388,0 -0.381565,0.0958 -0.810771,0.53954 -1.088822,1.12551 -0.315202,0.66423 -0.411882,1.30747 -0.308509,2.05311 0.08281,0.59728 0.453818,2.01334 0.824756,3.14658 0.370947,1.13305 0.988517,2.68105 1.372526,3.43958 0.384018,0.75852 1.263973,2.21761 1.95492,3.24218 0.690949,1.02457 1.499049,2.15566 1.796272,2.51354 0.297242,0.35788 1.383703,1.62676 2.413809,2.81998 1.0301,1.19322 2.5375,2.6815 3.35018,3.30729 l 1.47795,1.13792 -0.14211,2.11667 c -0.078,1.16398 -0.21528,2.41431 -0.30541,2.77812 -0.0901,0.3638 -0.2332,2.17273 -0.31781,4.01939 l -0.154,3.35794 -1.48363,-1.02578 c -0.81617,-0.56407 -2.4962,-1.7436 -3.733103,-2.62103 -1.236908,-0.87743 -3.082415,-2.1603 -4.101042,-2.85099 -1.018627,-0.69069 -3.01297,-2.4485 -4.43177,-3.90622 -1.641221,-1.68624 -2.579688,-2.85705 -2.579688,-3.21892 0,-0.31283 -0.201007,-1.03022 -0.446484,-1.5937 -0.332097,-0.7623 -0.438735,-1.72519 -0.417546,-3.76308 0.01566,-1.50636 0.147073,-3.05435 0.292489,-3.43958 0.145413,-0.38541 0.464966,-1.41512 0.709517,-2.28824 0.244549,-0.87313 0.613895,-2.18281 0.821139,-2.91041 0.20725,-0.7276 0.553531,-2.63261 0.769462,-4.23334 0.215922,-1.60073 0.523556,-3.98216 0.683679,-5.29166 0.160118,-1.30969 0.218785,-3.453 0.130225,-4.7625 -0.08856,-1.30969 -0.393232,-3.41948 -0.676962,-4.68809 -0.283721,-1.26861 -0.689825,-2.81956 -0.902787,-3.44682 -0.21296,-0.62727 -0.825751,-2.06373 -1.361157,-3.19153 -0.535405,-1.128 -1.62168,-2.84223 -2.414323,-3.80907 -0.792645,-0.96704 -2.680765,-3.08152 -4.19561,-4.69894 -1.514844,-1.61742 -3.177125,-3.49459 -3.693831,-4.17132 -0.516707,-0.67672 -0.939478,-1.33562 -0.939478,-1.46451 0,-0.12888 -0.27557,-0.49336 -0.612366,-0.80977 -0.336794,-0.31641 -0.927939,-0.57516 -1.313614,-0.57516 -0.404846,0 -0.809171,0.20162 -0.956531,0.47697 -0.140383,0.26232 -0.352929,2.13755 -0.472323,4.16719 -0.119396,2.02964 -0.212405,5.17868 -0.206706,6.9975 0.0057,1.81901 0.207005,5.24399 0.447002,7.61143 0.239994,2.36726 0.633397,5.1656 0.874365,6.2177 0.240968,1.05229 0.73605,2.92561 1.100191,4.16254 0.36414,1.23692 1.199296,3.79677 1.856218,5.68854 0.656921,1.89177 1.294239,3.67771 1.415934,3.96875 0.121695,0.29104 0.516211,1.30307 0.876432,2.24896 0.36022,0.94588 0.973638,2.6723 1.363224,3.83646 0.389586,1.16417 0.805888,2.35479 0.925525,2.64583 0.119639,0.29104 0.293348,0.88636 0.385506,1.32292 l 0.167432,0.79375 -0.611332,-0.66146 c -0.336108,-0.36381 -1.205725,-1.38902 -1.932699,-2.2779 -0.726973,-0.88888 -1.976741,-2.5439 -2.777091,-3.67781 -0.800349,-1.13392 -3.244885,-4.45467 -5.432227,-7.37939 -2.187341,-2.92491 -4.232036,-5.73475 -4.543391,-6.24407 -0.311354,-0.50932 -0.83134,-1.58089 -1.155485,-2.38125 -0.505861,-1.24886 -0.582469,-1.89191 -0.541569,-4.53822 0.04713,-3.0496 0.03997,-3.08912 -0.657841,-3.63802 -0.387999,-0.30521 -0.851563,-0.55501 -1.029912,-0.55501 -0.178341,0 -0.771583,0.30339 -1.318265,0.67438 -0.546681,0.371 -1.028533,0.63891 -1.071253,0.59531 -0.04272,-0.0436 -1.113751,-2.22218 -2.3797,-4.84156 -1.265941,-2.61937 -2.812864,-6.01266 -3.437516,-7.54063 -0.624651,-1.52778 -1.336097,-3.24617 -1.581299,-3.81785 -0.266357,-0.62102 -0.395187,-1.4198 -0.319877,-1.98438 0.06933,-0.51954 0.322185,-1.71854 0.561723,-2.66443 0.239538,-0.94588 0.774287,-2.61277 1.188558,-3.70417 0.41426,-1.09141 1.293066,-3.38158 1.952852,-5.08909 0.659795,-1.70774 1.717345,-3.84742 2.350244,-4.75475 0.632919,-0.90732 1.55818,-1.92418 2.056206,-2.25981 0.498027,-0.33562 1.568144,-0.78729 2.377632,-1.00356 0.809497,-0.21627 2.067066,-0.55758 2.794662,-0.75809 0.727585,-0.2005 3.049362,-0.9227 5.159375,-1.60507 2.110011,-0.68236 5.009771,-1.8274 6.444051,-2.54455 1.434277,-0.71714 3.458388,-1.86844 4.497916,-2.5585 1.039529,-0.69007 3.265725,-2.62396 4.946468,-4.29741 1.68074,-1.67347 3.410603,-3.45944 3.84421,-3.96875 0.433625,-0.50932 1.6123,-1.92397 2.618962,-3.14348 l 1.46141,-1.77095 c 0.121511,-0.14726 0.198072,-0.32645 0.30024,-0.48783 0.250245,-0.39528 0.511793,-0.783 0.77773,-1.16789 0.04483,-0.0649 0.06777,-0.1425 0.106453,-0.21187 z m 53.477356,14.71952 c 0.21028,0.0315 0.42259,0.0529 0.6258,0.11989 1.44357,0.69003 2.25347,1.97582 2.77037,3.21014 0.37432,0.9832 0.74405,1.97641 0.80926,2.99361 0.44032,3.45499 0.20689,6.94881 -0.95912,10.2924 -0.44564,1.37416 -0.98865,2.72619 -1.66553,4.03799 -0.39375,0.96025 -0.97281,1.86802 -1.42368,2.81224 -0.40506,0.8502 -1.03494,1.61697 -1.4547,2.45876 -0.98438,1.25914 -1.77494,2.61164 -2.8546,3.82457 -2.02092,2.47477 -4.30985,4.86833 -6.94273,6.97167 -0.99698,0.80238 -1.9758,1.63002 -3.16725,2.24999 -0.99831,0.6108 -1.93847,1.27773 -2.90421,1.9203 0.55322,0.79515 0.94817,1.88266 2.18643,2.14405 2.00073,0.19259 4.09636,0.0499 6.06009,0.19792 2.01098,0.15617 3.96665,0.6356 5.84512,1.21595 4.13621,1.35729 7.72857,3.91435 9.50898,7.22695 0.62105,1.17007 1.12601,2.41473 1.23404,3.68505 -0.45219,0.45749 -1.20321,0.6473 -1.67587,1.09347 -5.05112,3.14077 -9.9434,6.47857 -14.21102,10.30376 -3.43045,2.92869 -6.49532,6.15658 -8.80876,9.72758 -0.84159,1.11644 -1.33593,2.39836 -1.96268,3.54552 -0.96682,2.07443 -0.9637,4.33467 -0.86609,6.51743 0.39772,3.12911 3.21789,6.00644 6.99905,6.93962 1.34917,0.29582 2.76884,0.16396 4.15014,0.17726 1.14176,0.0168 2.27342,-0.15611 3.31711,-0.52452 0.89583,-0.3004 1.85477,-0.47026 2.67012,-0.90796 3.5826,-1.62332 6.74548,-3.81677 9.29814,-6.39857 1.37692,-1.35266 2.69105,-2.75187 3.73982,-4.28553 1.33581,-1.68294 2.3378,-3.51032 3.46336,-5.2834 0.4613,-0.89887 0.81836,-1.83073 1.31258,-2.71869 0.33126,-0.94864 0.90193,-1.8304 1.12551,-2.80448 0.42717,-1.38152 1.04371,-2.72343 1.33532,-4.13257 0.31519,-1.4193 0.61068,-2.84277 0.94516,-4.25917 0.39814,-2.86949 0.38963,-5.77259 0.20464,-8.65167 1.1877,-0.75818 2.53965,-1.36326 3.80235,-2.04845 1.55102,-0.83092 3.18004,-1.56639 4.76199,-2.35438 0.48536,-0.39556 1.23036,-0.53912 1.69964,-0.90434 0.19967,-0.0933 0.81384,-0.51268 0.71727,-0.14004 -0.17848,1.61436 -0.25924,3.23882 -0.0367,4.85397 0.16335,1.33441 0.31207,2.68519 0.74,3.98373 0.35792,0.77282 0.45461,1.55662 0.99632,2.27377 0.40782,0.87505 0.90306,1.72815 1.58234,2.49442 1.11717,1.26919 2.49689,2.41903 4.13153,3.26233 0.87001,0.40445 1.76972,0.76871 2.76365,0.92966 1.94992,0.40014 4.02394,0.74185 6.02392,0.39222 1.50766,-0.30789 2.95761,-0.82461 4.25607,-1.50223 2.3406,-1.72945 4.57996,-3.58386 6.25027,-5.76812 1.22646,-1.46201 2.2205,-3.02268 3.24528,-4.56768 0.6264,-1.04991 1.2837,-2.08678 1.91513,-3.13418 0.51006,-0.97348 1.02961,-1.94935 1.51205,-2.92902 0.17605,-0.62444 0.5842,-1.17946 0.87488,-1.76837 0.88806,0.29958 1.66475,0.85789 2.67271,0.88625 0.93337,0.18174 1.84356,0.5872 2.77347,0.66921 1.03156,0.19381 2.14748,0.46695 3.09129,0.96894 0.21132,0.32888 4.1e-4,0.73874 0.0346,1.10071 -0.10654,1.50586 -0.51152,2.9884 -0.85731,4.48706 -0.43801,2.64648 -1.06426,5.27494 -1.26298,7.94422 -0.26902,2.45646 -0.33808,4.94847 0.22841,7.38353 0.2323,1.31368 0.87247,2.58239 1.82883,3.66437 0.82739,0.92865 2.12486,1.51439 3.50005,1.75907 1.35341,0.32231 2.80843,0.2521 4.12429,-0.12661 1.4711,-0.33004 2.84315,-0.97617 3.78634,-1.95027 1.83326,-1.66879 3.34304,-3.54408 4.67103,-5.49062 0.9098,-1.1889 1.63879,-2.46931 2.29443,-3.75274 0.63915,-0.64147 0.81496,-1.48393 1.37925,-2.16111 1.02,-1.76635 1.70588,-3.64433 2.80086,-5.38572 0.59602,-1.02138 0.98538,-2.11212 1.62626,-3.11402 0.33097,-0.75448 0.69964,-1.49479 1.0914,-2.22932 0.46106,-1.07436 1.13308,-2.07991 1.56632,-3.16363 0.19403,-0.41155 0.37774,-0.82665 0.61288,-1.22473 0.56852,0.22269 1.05976,0.60052 1.72961,0.6289 1.05152,0.11914 1.9879,0.56929 3.03702,0.71623 1.15246,0.21485 2.35604,0.45833 3.31711,1.0263 0.20373,0.27371 -0.013,0.64098 0.0382,0.95239 -0.10228,1.55122 -0.51137,3.07172 -0.87023,4.61264 -0.43805,2.64648 -1.06375,5.27493 -1.26245,7.94422 -0.26902,2.45647 -0.33861,4.94796 0.22789,7.38301 0.23229,1.31368 0.87299,2.58292 1.82935,3.6649 0.82728,0.92832 2.12462,1.51419 3.49849,1.75854 1.35388,0.32234 2.80902,0.25286 4.12533,-0.12609 1.47113,-0.33004 2.84366,-0.97617 3.78685,-1.95026 1.83326,-1.66878 3.34303,-3.54459 4.67103,-5.49114 0.90979,-1.1889 1.6388,-2.46879 2.29443,-3.75223 0.63924,-0.64144 0.81462,-1.48408 1.37925,-2.16111 1.01307,-1.74765 1.68578,-3.60896 2.77037,-5.33249 0.33144,-0.58796 0.62904,-1.18752 0.91261,-1.7911 0.22971,1.01451 0.52525,2.02469 0.78703,3.03082 0.26995,0.50144 0.72142,0.92633 0.9679,1.43609 0.96376,1.27925 2.55804,2.43526 4.52324,2.45515 1.3229,0.0849 2.66814,0.1418 3.9858,0.1142 0.79868,-0.23355 1.32202,-0.80774 1.98696,-1.20354 1.34355,-0.95297 2.51695,-2.07331 3.30109,-3.37086 0.53715,-0.65973 1.31155,-1.21907 1.53014,-2.01486 0.824,-1.79042 2.20288,-3.40281 2.77399,-5.2679 0.80413,-1.32019 1.46014,-2.7007 2.0898,-4.0814 0.20872,4.69045 0.11569,9.38447 0.0594,14.07614 -4.3506,3.46362 -8.64337,7.03608 -11.98893,11.17193 -0.72297,1.08861 -1.63892,2.08785 -2.26601,3.21892 -1.13605,1.75568 -1.95259,3.63902 -2.52749,5.55987 -0.43883,1.84335 -0.76062,3.72712 -0.62426,5.60793 0.19287,1.65455 0.63345,3.33403 1.67174,4.78885 0.0311,0.0325 0.0723,0.0583 0.10387,0.0904 -0.29536,0.20227 -0.56844,0.4407 -0.8568,0.65577 -0.54925,0.40965 -1.10483,0.81123 -1.66295,1.20871 -0.22342,0.15911 -0.45274,0.3099 -0.67489,0.47078 -0.65025,0.47088 -1.12841,0.90575 -1.92546,1.44694 -0.79715,0.541 -1.71417,1.23091 -2.03812,1.53272 -0.32396,0.30181 -2.10675,1.56876 -3.96152,2.81533 -1.85476,1.24657 -3.92964,2.54874 -4.61057,2.89388 -0.68092,0.34514 -1.31427,0.75121 -1.40767,0.90227 -0.0934,0.15105 -0.72674,0.57325 -1.40766,0.93845 -0.68083,0.36501 -1.83349,0.99509 -2.56109,1.39939 -0.72761,0.4043 -2.39448,1.31174 -3.70416,2.01642 -1.3096,0.70469 -3.57188,1.87287 -5.02709,2.5957 -1.45512,0.72301 -3.70169,1.7805 -4.99246,2.35025 -1.29069,0.56975 -4.14828,1.72918 -6.35,2.57659 -2.20163,0.84723 -5.07493,1.89886 -6.38462,2.33629 -1.30968,0.43744 -3.21469,1.04481 -4.23333,1.34979 -1.01856,0.30498 -3.16178,0.90343 -4.7625,1.32963 -1.60064,0.42619 -4.51785,1.13858 -6.48229,1.58337 -1.96452,0.44478 -4.16721,0.9332 -4.8948,1.0852 -0.72761,0.15201 -2.09691,0.40298 -3.0427,0.55759 -0.94589,0.15462 -2.01746,0.32779 -2.38125,0.38499 -0.36381,0.0572 -1.97115,0.23593 -3.57188,0.39739 -1.60073,0.16147 -3.56535,0.42112 -4.36562,0.57671 -0.8471,0.16467 -6.04387,0.31268 -12.43542,0.35398 -6.03902,0.039 -11.45646,0.0193 -12.03854,-0.0434 -0.58208,-0.0627 -3.20147,-0.34795 -5.82084,-0.63407 -2.61932,-0.28611 -5.77456,-0.6863 -7.01146,-0.88936 -1.23691,-0.20306 -2.78474,-0.49196 -3.43958,-0.64182 -0.65483,-0.14986 -1.96455,-0.41328 -2.91042,-0.58549 -0.94586,-0.1722 -3.86296,-0.84574 -6.48229,-1.49655 -2.61932,-0.65081 -6.23131,-1.64914 -8.02638,-2.21847 -1.79508,-0.56934 -3.40246,-1.03546 -3.57188,-1.03611 -0.16942,-6.6e-4 -1.02238,-0.63753 -1.89549,-1.41542 -0.8731,-0.7779 -1.96104,-1.60717 -2.41742,-1.84226 -0.45638,-0.23528 -1.62918,-1.23552 -2.60656,-2.22261 -0.97738,-0.98709 -2.30095,-2.52409 -2.94091,-3.41581 -0.63995,-0.89172 -1.23579,-1.9823 -1.32395,-2.42311 -0.0882,-0.44081 -0.53637,-1.16598 -0.99632,-1.61179 -0.45996,-0.44582 -1.07263,-0.83301 -1.36116,-0.86041 -0.28852,-0.0276 -0.91674,-0.0254 -1.39629,-0.008 -0.52241,0.0251 -1.12376,0.29382 -1.50017,0.67024 -0.38606,0.38607 -0.69902,1.0997 -0.81184,1.85209 -0.1336,0.89092 -0.0765,1.38668 0.20981,1.81952 0.2164,0.32716 1.00373,1.20294 1.74976,1.94614 0.74603,0.74319 1.35651,1.47339 1.35651,1.62315 0,0.14976 -0.88199,-0.17883 -1.96009,-0.73018 -1.07809,-0.55136 -2.8343,-1.51834 -3.9026,-2.14923 -1.0683,-0.63089 -2.14443,-1.26762 -2.39107,-1.4149 -0.24663,-0.14728 -1.79448,-1.08016 -3.43958,-2.07326 -1.64509,-0.99292 -3.82449,-2.32391 -4.84312,-2.95692 -1.01862,-0.633 -2.24282,-1.60048 -2.72025,-2.15026 -0.4775,-0.54986 -1.02907,-1.60078 -1.22576,-2.33525 -0.19667,-0.73454 -0.48623,-2.40707 -0.64389,-3.71657 -0.15765,-1.30969 -0.36474,-3.78024 -0.45992,-5.49011 -0.0952,-1.70987 -0.0876,-3.10885 0.0165,-3.10885 0.10414,0 0.50516,0.1738 0.89142,0.38654 0.38624,0.21273 1.47621,0.58378 2.42207,0.82424 0.94588,0.24047 3.2865,0.49849 5.20124,0.57309 1.91473,0.0747 4.03676,0.0522 4.71547,-0.0496 0.67869,-0.10178 1.46354,-0.41449 1.74408,-0.69505 0.34474,-0.34473 0.51005,-0.87689 0.51005,-1.64176 0,-0.62247 -0.17243,-1.37821 -0.38344,-1.67948 -0.21101,-0.30128 -1.07425,-0.78958 -1.91823,-1.08469 -0.47789,-0.16711 -1.21891,-0.36284 -1.91771,-0.56534 0.84646,-0.58115 1.33968,-1.455 1.31309,-2.34973 0.56187,-4.51413 0.75613,-9.04825 0.99012,-13.57902 0.22819,-3.81746 0.56102,-7.6445 0.97927,-11.45873 0.50812,-4.27631 1.11086,-8.55203 1.65727,-12.81989 0.48792,-3.15827 1.33125,-6.27221 1.89187,-9.42164 0.33406,-1.25846 0.6888,-2.51428 0.97772,-3.78117 0.25616,-0.99784 0.67078,-1.96647 0.78651,-2.98638 0.22142,-0.76657 0.68468,-1.47675 0.85008,-2.25878 0.64361,-2.52161 1.81187,-4.92918 2.85616,-7.35355 0.47231,-0.73939 0.7237,-1.54582 1.21388,-2.2779 0.29445,-0.53616 0.45795,-1.10398 0.86248,-1.59784 0.5151,-0.81584 0.9817,-1.65128 1.56941,-2.43447 0.99434,-1.19458 1.76827,-2.50529 2.9316,-3.6096 1.97581,-1.9855 4.48249,-3.6884 7.40782,-4.70411 0.19827,-0.057 0.42076,-0.0819 0.62787,-0.13384 0.90583,-0.0764 1.88167,-0.15573 2.59777,-0.23254 z m 67.81602,29.62403 c 0.59393,0.2099 0.48462,0.8532 0.62012,1.28261 0.25726,2.15878 -0.65735,4.27639 -1.73375,6.22132 -0.49408,0.82203 -1.09569,1.62981 -1.86397,2.2965 -0.96043,-1.00097 -0.76999,-2.3477 -0.77359,-3.5326 0.0841,-1.39748 0.39443,-2.79381 1.01647,-4.06021 0.29702,-0.49149 0.66315,-0.96707 0.99787,-1.44023 0.47925,-0.35369 1.02611,-0.81419 1.73685,-0.76739 z m 35.49964,0.0889 c 0.59394,0.2099 0.48463,0.8532 0.62012,1.28261 0.25729,2.15879 -0.65734,4.27637 -1.73375,6.22133 -0.49405,0.82201 -1.09567,1.6298 -1.86397,2.2965 -0.96041,-1.00097 -0.76996,-2.34769 -0.77359,-3.5326 0.0841,-1.39751 0.39441,-2.79382 1.01647,-4.06022 0.29704,-0.49149 0.66316,-0.96758 0.99788,-1.44074 0.47922,-0.35368 1.02608,-0.81368 1.73684,-0.76688 z m -57.00479,6.55516 c 1.43128,0.20149 2.13157,1.49366 2.08359,2.55075 -0.13321,1.67897 -1.51685,3.1542 -3.1781,4.11137 -0.8012,0.43236 -1.89569,0.79296 -2.83341,0.44235 -0.0813,-0.19058 0.21501,-0.46145 0.2284,-0.69194 0.23887,-0.75882 0.32351,-1.54877 0.75603,-2.26085 0.38868,-0.93669 0.81043,-1.87151 1.38906,-2.69027 0.36478,-0.48734 0.68565,-1.03708 1.2237,-1.41129 0.10307,-0.0386 0.21658,-0.0587 0.33073,-0.0501 z m -38.39921,23.39547 c -0.006,0.11901 -0.008,0.238 -0.0114,0.35708 -0.11866,2.72261 -0.67907,5.46947 -1.56683,8.09512 -0.38699,0.97123 -0.50226,2.01019 -1.07022,2.93212 -0.26277,0.71725 -0.46968,1.44933 -0.8816,2.12493 -0.27036,0.71533 -0.48243,1.44901 -0.95756,2.10065 -0.47586,0.97728 -0.91168,1.97101 -1.59784,2.87166 -0.32113,0.36525 -0.35493,0.83048 -0.57826,1.21388 -1.84338,2.39799 -3.3477,4.99118 -5.70146,7.11533 -1.48941,1.33228 -3.0664,2.67996 -5.07255,3.51451 -1.30372,0.59922 -2.88422,0.0909 -3.92845,-0.63614 -1.67696,-1.1515 -2.34548,-3.01446 -2.27479,-4.73356 0.10708,-1.2361 0.537,-2.44062 0.96686,-3.62613 0.32089,-0.85873 0.84291,-1.65336 1.37925,-2.43293 0.16136,-0.41888 0.43975,-0.79241 0.75292,-1.13946 0.82425,-1.35001 1.99637,-2.53576 3.01429,-3.79202 3.13691,-3.54688 6.92347,-6.69884 10.9306,-9.6206 2.12287,-1.52834 4.30515,-2.97153 6.59701,-4.34444 z m 145.51825,5.5547 v 0.0202 c -0.0657,2.27101 -0.22266,4.55342 -0.41289,6.80217 -0.19693,1.97373 -0.59474,3.90077 -0.82372,5.86321 -0.41731,2.88469 -1.15053,5.68332 -2.24121,8.44858 -0.43859,0.99679 -0.8712,1.97358 -1.55339,2.83497 -0.67674,0.81411 -1.70475,1.6784 -3.04478,1.54667 -2.91723,-0.27548 -5.11454,-2.6176 -4.99194,-4.91287 0.0987,-1.83085 -0.27231,-3.74104 0.6165,-5.48494 0.51393,-1.32986 0.94127,-2.70869 1.85518,-3.90881 0.15856,-0.40213 0.38969,-0.78151 0.71779,-1.10432 0.83572,-1.52799 2.18829,-2.82123 3.37602,-4.17752 1.9698,-2.10638 4.09589,-4.12939 6.50244,-5.92729 z" /></svg>
