<?xml version="1.0" encoding="UTF-8" standalone="no"?>
<!-- Created with Inkscape (http://www.inkscape.org/) -->

<svg
   width="343.95834mm"
   height="243.15208mm"
   viewBox="0 0 343.95834 243.15208"
   version="1.1"
   id="svg1"
   xml:space="preserve"
   inkscape:version="1.3 (0e150ed6c4, 2023-07-21)"
   sodipodi:docname="elephant_3.svg"
   xmlns:inkscape="http://www.inkscape.org/namespaces/inkscape"
   xmlns:sodipodi="http://sodipodi.sourceforge.net/DTD/sodipodi-0.dtd"
   xmlns="http://www.w3.org/2000/svg"
   xmlns:svg="http://www.w3.org/2000/svg"><sodipodi:namedview
     id="namedview1"
     pagecolor="#ffffff"
     bordercolor="#000000"
     borderopacity="0.25"
     inkscape:showpageshadow="2"
     inkscape:pageopacity="0.0"
     inkscape:pagecheckerboard="0"
     inkscape:deskcolor="#d1d1d1"
     inkscape:document-units="mm"
     inkscape:zoom="1.6596591"
     inkscape:cx="954.71414"
     inkscape:cy="526.61417"
     inkscape:window-width="3840"
     inkscape:window-height="2080"
     inkscape:window-x="-11"
     inkscape:window-y="-11"
     inkscape:window-maximized="1"
     inkscape:current-layer="layer1" /><defs
     id="defs1"><inkscape:path-effect
       effect="bspline"
       id="path-effect5"
       is_visible="true"
       lpeversion="1.3"
       weight="33.333333"
       steps="2"
       helper_size="0"
       apply_no_weight="true"
       apply_with_weight="true"
       only_selected="false"
       uniform="false" /><inkscape:path-effect
       effect="bspline"
       id="path-effect4"
       is_visible="true"
       lpeversion="1.3"
       weight="33.333333"
       steps="2"
       helper_size="0"
       apply_no_weight="true"
       apply_with_weight="true"
       only_selected="false"
       uniform="false" /><inkscape:path-effect
       effect="bspline"
       id="path-effect3"
       is_visible="true"
       lpeversion="1.3"
       weight="33.333333"
       steps="2"
       helper_size="0"
       apply_no_weight="true"
       apply_with_weight="true"
       only_selected="false"
       uniform="false" /><inkscape:path-effect
       effect="bspline"
       id="path-effect2"
       is_visible="true"
       lpeversion="1.3"
       weight="33.333333"
       steps="2"
       helper_size="0"
       apply_no_weight="true"
       apply_with_weight="true"
       only_selected="false"
       uniform="false" /></defs><g
     inkscape:label="Layer 1"
     inkscape:groupmode="layer"
     id="layer1"
     transform="translate(-106.84692,17.952854)"><path
       style="fill:none;stroke:#000000;stroke-width:0.264583"
       d="m 130.75996,158.64497 c 1.56764,0.30556 3.13527,0.61111 5.99824,-0.0199 2.86296,-0.63106 7.02109,-2.19866 10.49515,-2.80977 3.47406,-0.6111 6.26386,-0.2657 9.92393,-1.68059 3.66007,-1.41489 8.19017,-4.58994 10.64791,-6.16422 2.45773,-1.57427 2.84299,-1.54771 3.12862,-1.32186 0.28563,0.22585 0.47161,0.65096 0.37197,1.74699 -0.0996,1.09603 -0.4849,2.86291 -0.56461,3.8925 -0.0797,1.02959 0.14614,1.32186 0.84361,1.64735 0.69748,0.32548 1.86653,0.68417 3.04227,0.77052 1.17574,0.0864 2.35808,-0.0996 3.04226,-0.48491 0.68418,-0.38527 0.87017,-0.9698 0.63103,-1.75362 -0.23913,-0.78383 -0.90337,-1.76691 -1.12257,-3.36113 -0.2192,-1.59422 0.007,-3.79949 0.31884,-5.24093 0.3122,-1.44143 0.71074,-2.11895 1.7802,-2.94263 1.06947,-0.82369 2.80977,-1.79347 3.99878,-2.51087 1.18902,-0.71739 1.82669,-1.18236 2.36474,-1.44806 0.53805,-0.2657 0.97645,-0.33213 1.54771,-0.13949 0.57126,0.19264 1.27535,0.64432 1.6739,1.50121 0.39856,0.8569 0.49155,2.11896 0.33876,3.93239 -0.15278,1.81343 -0.55132,4.17811 -0.94987,5.79225 -0.39856,1.61414 -0.7971,2.47765 -1.14916,3.10869 -0.35205,0.63105 -0.6576,1.02959 -0.7971,1.48129 -0.13949,0.45169 -0.11293,0.95651 0.0864,1.34842 0.19928,0.39191 0.57126,0.67089 1.64072,0.94324 1.06946,0.27234 2.83633,0.53804 3.93235,0.3454 1.09602,-0.19264 1.52113,-0.84359 1.58091,-1.71377 0.0598,-0.87018 -0.24577,-1.95953 -0.23248,-3.08877 0.0133,-1.12924 0.34541,-2.2983 1.56765,-5.36055 1.22224,-3.06225 3.33452,-8.01746 4.38403,-10.74089 1.04951,-2.72344 1.03621,-3.21498 0.84357,-3.51389 -0.19265,-0.29891 -0.56462,-0.40519 -0.92996,-0.41847 -0.36534,-0.0133 -0.72403,0.0664 -0.97645,0.35205 -0.25241,0.28563 -0.39855,0.77717 -0.55797,1.40157 -0.15942,0.62441 -0.33212,1.38164 -0.44505,2.15882 -0.11292,0.77718 -0.16606,1.57427 -0.0996,2.19867 0.0664,0.6244 0.25241,1.07608 1.00967,1.74698 0.75726,0.67091 2.08574,1.56098 3.50061,2.09239 1.41487,0.5314 2.91605,0.7041 4.11171,0.98974 1.19566,0.28563 2.08574,0.68417 2.91606,1.50786 0.83032,0.82368 1.60083,2.07244 2.33152,3.49396 0.73068,1.42151 1.42149,3.01568 2.09903,3.91907 0.67755,0.90339 1.34178,1.11594 2.20532,0.93658 0.86354,-0.17935 1.92632,-0.75059 2.76328,-1.38828 0.83696,-0.63769 1.44806,-1.34178 1.6407,-2.03261 0.19263,-0.69083 -0.0332,-1.36835 -0.53141,-1.88647 -0.4982,-0.51812 -1.26871,-0.87681 -1.89975,-1.30194 -0.63105,-0.42512 -1.12259,-0.91666 -1.88649,-1.98612 -0.7639,-1.06946 -1.80011,-2.71677 -2.96256,-4.19142 -1.16245,-1.47465 -2.45107,-2.77656 -3.32789,-3.84601 -0.87682,-1.06945 -1.34178,-1.90639 -1.6872,-2.80314 -0.34541,-0.89675 -0.57125,-1.85325 -0.67753,-2.6105 -0.10627,-0.75726 -0.093,-1.31522 0.0266,-1.63406 0.11958,-0.31884 0.34542,-0.39855 0.88348,-0.35205 0.53805,0.0465 1.38827,0.2192 2.11895,0.43841 0.73068,0.21921 1.34178,0.4849 1.93297,0.57125 0.59119,0.0864 1.16244,-0.007 1.62078,-0.19263 0.45833,-0.186 0.80373,-0.46498 1.01629,-0.83696 0.21256,-0.37199 0.29227,-0.83695 0.25241,-1.282 -0.0399,-0.44506 -0.19927,-0.87017 -0.16606,-1.20894 0.0332,-0.33877 0.25906,-0.59118 0.48491,-0.76389 0.22585,-0.17271 0.45169,-0.2657 1.1226,-0.20591 0.6709,0.0598 1.78682,0.27234 2.90941,0.51147 1.1226,0.23914 2.25181,0.50483 3.02898,0.58454 0.77718,0.0797 1.20229,-0.0266 1.66063,-0.25242 0.45834,-0.22585 0.94988,-0.57125 1.41486,-0.90338 0.46498,-0.33213 0.90337,-0.65096 1.44806,-0.83696 0.5447,-0.18599 1.19565,-0.23913 1.77356,-0.1262 0.5779,0.11292 1.08272,0.3919 1.70048,0.68418 0.61776,0.29227 1.34843,0.59783 1.93298,0.73067 0.58454,0.13285 1.02293,0.093 1.25542,-0.15278 0.23249,-0.24578 0.25905,-0.69746 -0.0399,-1.26872 -0.29892,-0.57127 -0.9233,-1.26207 -1.90641,-1.78683 -0.9831,-0.52476 -2.32486,-0.88345 -3.53381,-1.05615 -1.20895,-0.1727 -2.28502,-0.1594 -3.69989,-0.0398 -1.41487,0.11957 -3.16846,0.34541 -4.57004,0.45834 -1.40158,0.11292 -2.45108,0.11292 -3.48732,-0.0996 -1.03624,-0.21257 -2.05917,-0.63768 -3.02234,-1.39494 -0.96317,-0.75725 -1.86654,-1.84661 -2.49758,-2.80978 -0.63104,-0.96317 -0.98973,-1.80011 -1.64735,-2.73672 -0.65762,-0.9366 -1.61412,-1.97281 -3.04228,-2.84963 -1.42816,-0.87682 -3.32788,-1.5942 -5.0948,-1.99939 -1.76693,-0.4052 -3.40095,-0.49819 -6.80197,-0.5779 -3.40102,-0.0797 -8.56879,-0.14613 -11.9897,-0.0332 -3.42091,0.11293 -5.09479,0.40519 -6.19745,0.65097 -1.10266,0.24577 -1.63405,0.44504 -2.39131,0.82367 -0.75726,0.37863 -1.74033,0.93659 -2.59722,1.58092 -0.8569,0.64433 -1.58755,1.37499 -2.22524,2.18539 -0.63769,0.8104 -1.18236,1.70047 -1.82005,3.05556 -0.63769,1.3551 -1.36835,3.17511 -1.76026,4.52355 -0.39191,1.34844 -0.44505,2.22523 -0.65097,3.39433 -0.20592,1.16909 -0.56461,2.63042 -1.09601,3.91908 -0.53141,1.28865 -1.2355,2.40457 -1.89976,3.28139 -0.66426,0.87682 -1.28864,1.51449 -2.29168,2.14553 -1.00303,0.63105 -2.38464,1.25543 -3.79951,1.61413 -1.41487,0.35869 -2.86291,0.45169 -4.03201,0.2989 -1.16909,-0.15278 -2.05916,-0.55132 -2.52414,-0.89674 -0.46498,-0.34542 -0.50483,-0.63767 -0.44505,-0.92995 0.0598,-0.29227 0.2192,-0.58453 0.58454,-0.7041 0.36535,-0.11956 0.9366,-0.0664 1.6075,1e-5 0.6709,0.0664 1.44142,0.14613 2.37138,0.0731 0.92996,-0.0731 2.01931,-0.29891 3.07548,-0.7174 1.05617,-0.41848 2.0791,-1.02958 2.90942,-1.6407 0.83032,-0.61111 1.46799,-1.22221 2.03261,-1.70712 0.56462,-0.4849 1.05615,-0.84359 1.60749,-0.90338 0.55133,-0.0598 1.16243,0.17935 1.6407,0.63105 0.47826,0.4517 0.82366,1.11593 0.99637,2.05254 0.1727,0.93661 0.1727,2.14552 -0.0399,3.46075 -0.21257,1.31523 -0.63768,2.7367 -0.86352,4.0785 -0.22585,1.3418 -0.25241,2.60385 -0.39191,3.52716 -0.13949,0.92332 -0.3919,1.50785 -0.96317,2.13225 -0.57126,0.62441 -1.46134,1.28865 -2.96257,2.10569 -1.50123,0.81703 -3.61351,1.78682 -4.76931,2.4245 -1.1558,0.63769 -1.35507,0.94324 -1.48128,1.38165 -0.1262,0.43841 -0.17934,1.00966 0.0133,1.5477 0.19263,0.53805 0.63103,1.04287 1.29529,1.30193 0.66426,0.25907 1.55434,0.27237 2.51087,-0.18597 0.95653,-0.45833 1.97946,-1.38826 3.22826,-2.43779 1.24881,-1.04953 2.72342,-2.21859 4.53685,-3.56039 1.81343,-1.3418 3.96556,-2.85627 5.46678,-4.36413 1.50121,-1.50787 2.35144,-3.00905 2.8297,-4.59662 0.47826,-1.58758 0.58454,-3.26146 0.59118,-4.93539 0.007,-1.67393 -0.0864,-3.34781 -0.007,-4.46375 0.0797,-1.11595 0.33212,-1.67391 0.72404,-1.95289 0.39191,-0.27899 0.9233,-0.27899 1.76691,0.26571 0.84361,0.54469 1.99938,1.63404 3.60689,2.5175 1.60751,0.88346 3.66665,1.56098 5.68599,1.66062 2.01935,0.0996 3.99877,-0.37862 5.9384,-1.35508 1.93964,-0.97647 3.83936,-2.45108 4.78924,-3.53382 0.94988,-1.08273 0.94988,-1.77354 0.49154,-2.86293 -0.45834,-1.08938 -1.375,-2.57728 -2.02597,-3.89251 -0.65096,-1.31522 -1.03622,-2.45771 -0.98308,-3.92572 0.0532,-1.46802 0.54468,-3.26146 1.73371,-4.67632 1.18903,-1.41487 3.07547,-2.45108 5.16124,-2.8762 2.08577,-0.42512 4.37075,-0.23913 7.02778,-0.093 2.65704,0.14613 5.68596,0.25241 8.07728,0.8436 2.39133,0.5912 4.14491,1.66726 5.71256,3.12199 1.56765,1.45473 2.94926,3.28802 4.68962,4.53682 1.74036,1.2488 3.83935,1.91304 6.11776,3.23492 2.27841,1.32188 4.73609,3.30131 6.84842,4.3309 2.11234,1.02959 3.87921,1.1093 5.42029,0.69081 1.54107,-0.41849 2.85626,-1.33513 4.13828,-2.82308 1.28202,-1.48794 2.53079,-3.54708 3.67331,-7.50608 1.14252,-3.95899 2.17873,-9.81757 2.86956,-14.640071 0.69082,-4.822502 1.03623,-8.608657 1.95955,-12.481281 0.92333,-3.872623 2.4245,-7.831481 4.64313,-11.352044 2.21863,-3.520563 5.15456,-6.602627 8.61535,-8.960736 3.46079,-2.358109 7.44622,-3.992134 11.68418,-4.902159 4.23797,-0.910025 8.72822,-1.096012 13.25182,-0.969801 4.52359,0.126212 9.08026,0.564609 12.24876,0.817025 3.16849,0.252417 4.94865,0.318841 7.42634,-0.205928 2.47769,-0.524768 5.65275,-1.640689 9.17332,-2.87621 3.52057,-1.235521 7.38643,-2.590566 10.628,-3.899155 3.24158,-1.308589 5.85867,-2.570638 8.32971,-3.620164 2.47104,-1.049526 4.79587,-1.886465 7.16063,-2.218589 2.36476,-0.332123 4.7693,-0.159422 6.92814,0.677549 2.15883,0.836971 4.07183,2.338146 5.37377,3.374385 1.30194,1.036238 1.99275,1.607485 3.56705,3.048934 1.5743,1.441449 4.03198,3.752999 5.6594,5.340572 1.62743,1.587573 2.42451,2.45108 3.46075,4.271154 1.03624,1.820074 2.31158,4.596592 3.50725,7.027773 1.19566,2.431182 2.31158,4.516879 3.70652,6.967997 1.39495,2.451119 3.06882,5.26748 4.34419,7.625591 1.27537,2.35811 2.15217,4.257837 2.94928,7.007872 0.7971,2.750034 1.51448,6.350196 1.83332,9.478846 0.31884,3.12865 0.23913,5.78561 0.0266,8.49578 -0.21256,2.71017 -0.55796,5.4734 -0.79709,7.95108 -0.23913,2.47768 -0.37198,4.66966 -0.29227,7.37984 0.0797,2.71018 0.37198,5.93837 0.85025,8.7216 0.47827,2.78324 1.1425,5.12136 1.93297,7.14735 0.79047,2.02599 1.70712,3.73971 2.36474,4.92873 0.65761,1.18901 1.05615,1.85324 1.27536,2.43115 0.21921,0.57791 0.25906,1.06945 0.19928,1.55436 -0.0598,0.48491 -0.2192,0.96315 -0.55134,1.20228 -0.33213,0.23913 -0.83696,0.23913 -1.61414,0.1727 -0.77719,-0.0664 -1.82669,-0.19927 -2.40458,-0.25241 -0.5779,-0.0532 -0.68416,-0.0266 -0.94988,0.0465 -0.26571,0.0731 -0.69081,0.19262 -1.09601,0.23912 -0.4052,0.0465 -0.79046,0.0199 -1.21559,-0.2657 -0.42513,-0.28563 -0.89008,-0.8303 -1.189,-1.67391 -0.29892,-0.84361 -0.43177,-1.9861 -0.61777,-3.36776 -0.18599,-1.38166 -0.42512,-3.0024 -0.79046,-4.78261 -0.36534,-1.78021 -0.85688,-3.71979 -1.54106,-6.44326 -0.68419,-2.72346 -1.56098,-6.23064 -2.04588,-9.55857 -0.48491,-3.32793 -0.5779,-6.47641 -0.61776,-9.12015 -0.0399,-2.64375 -0.0266,-4.78259 -0.2126,-7.2337 -0.186,-2.45112 -0.57126,-5.21435 -1.03624,-7.49939 -0.46498,-2.28505 -1.00965,-4.091774 -1.42814,-5.028369 -0.41848,-0.936595 -0.71074,-1.003016 -1.14915,-1.029587 -0.43841,-0.02657 -1.02293,-0.01329 -1.48127,0.01992 -0.45834,0.03321 -0.79047,0.08635 -1.1226,0.06642 -0.33213,-0.01993 -0.66424,-0.11292 -1.04951,-0.451693 -0.38527,-0.338773 -0.82367,-0.923299 -1.53443,-1.773556 -0.71076,-0.850256 -1.69382,-1.966169 -2.80314,-2.882845 -1.10931,-0.916677 -2.34479,-1.634053 -3.48732,-1.99275 -1.14252,-0.358696 -2.19201,-0.358696 -3.22161,-0.252414 -1.0296,0.106282 -2.03924,0.318837 -2.84299,0.763892 -0.80375,0.445055 -1.40157,1.122583 -1.93297,1.879837 -0.53141,0.757255 -0.99637,1.594193 -1.45471,2.18538 -0.45834,0.591187 -0.91002,0.93659 -1.39493,1.182365 -0.48491,0.245774 -1.00301,0.391906 -1.58756,0.27898 -0.58455,-0.112926 -1.2355,-0.484897 -1.75362,-0.863524 -0.51812,-0.378628 -0.90338,-0.763886 -1.2953,-1.275367 -0.39191,-0.511481 -0.79045,-1.149149 -1.24215,-1.800122 -0.45169,-0.650973 -0.95651,-1.31521 -1.62077,-2.006039 -0.66426,-0.690828 -1.48791,-1.408202 -3.04229,-2.125602 -1.55437,-0.717401 -3.83935,-1.434778 -6.04468,-2.583949 -2.20534,-1.14917 -4.3309,-2.730057 -5.93175,-4.217993 -1.60086,-1.487936 -2.67692,-2.882833 -3.47403,-4.596622 -0.79711,-1.71379 -1.31521,-3.746357 -1.55434,-5.320645 -0.23914,-1.574288 -0.19928,-2.690206 0.10628,-3.792874 0.30556,-1.102669 0.8768,-2.192019 1.8267,-2.969197 0.94989,-0.777178 2.27837,-1.242145 3.66002,-1.72041 1.38166,-0.478265 2.81642,-0.969803 4.27114,-1.833342 1.45473,-0.863539 2.92933,-2.099018 4.39734,-3.367752 1.46801,-1.268733 2.92934,-2.570642 4.28442,-3.487314 1.35509,-0.916671 2.60385,-1.448058 3.91909,-1.567622 1.31523,-0.119563 2.69684,0.1727 3.77294,0.770535 1.07609,0.597835 1.84661,1.501201 2.41787,2.643727 0.57126,1.142526 0.94323,2.524139 1.18236,4.682986 0.23913,2.158846 0.34541,5.094777 -0.0664,7.824875 -0.41185,2.730098 -1.34178,5.254201 -2.35145,7.140688 -1.00968,1.886487 -2.09903,3.135254 -3.49397,4.530197 -1.39495,1.394943 -3.09539,2.935971 -4.12499,4.443837 -1.02959,1.507865 -1.38828,2.982473 -1.55435,4.908827 -0.16606,1.926353 -0.1395,4.304325 0.0199,6.542872 0.15943,2.238548 0.45169,4.337543 0.37862,6.615953 -0.0731,2.2784 -0.51147,4.73608 -1.13587,7.10748 -0.6244,2.3714 -1.43477,4.65638 -2.11896,6.89493 -0.68418,2.23855 -1.24214,4.43053 -1.56762,6.62258 -0.32549,2.19205 -0.41848,4.38404 -0.55798,7.04772 -0.13949,2.66368 -0.32548,5.79888 -0.55133,8.56219 -0.22585,2.76331 -0.49154,5.15456 -0.66425,6.64913 -0.1727,1.49458 -0.25241,2.09239 -0.24577,2.66365 0.007,0.57126 0.0996,1.11594 0.27899,1.67392 0.17935,0.55797 0.44504,1.12922 0.80374,1.67391 0.3587,0.54469 0.81039,1.06279 1.00966,1.71377 0.19928,0.65097 0.14614,1.43477 0.0531,1.92632 -0.093,0.49155 -0.22584,0.69082 -0.59119,0.81703 -0.36534,0.1262 -0.96316,0.17935 -2.33818,0.25906 -1.37502,0.0797 -3.52715,0.18599 -5.18114,0.0266 -1.654,-0.15942 -2.80978,-0.58454 -3.73309,-1.17573 -0.92332,-0.59119 -1.61413,-1.34842 -1.82004,-2.29831 -0.20592,-0.94989 0.0731,-2.09238 0.3587,-3.16183 0.28563,-1.06946 0.57789,-2.06582 0.9233,-3.8726 0.34542,-1.80679 0.74396,-4.42389 0.83031,-9.61177 0.0864,-5.18788 -0.13949,-12.94618 -0.33876,-17.25718 -0.19928,-4.311 -0.37198,-5.17451 -0.67754,-5.73248 -0.30556,-0.55797 -0.74396,-0.81038 -1.18237,-0.93659 -0.43841,-0.12621 -0.87681,-0.12621 -1.57429,0.11292 -0.69747,0.23914 -1.65397,0.71739 -2.97584,1.42151 -1.32188,0.70411 -3.00905,1.63405 -5.6993,2.70351 -2.69026,1.06945 -6.38342,2.27836 -9.71134,2.99576 -3.32793,0.71739 -6.29044,0.94323 -9.60509,1.06281 -3.31465,0.11957 -6.98124,0.13287 -9.37255,0.16609 -2.39132,0.0332 -3.50724,0.0864 -4.72284,0.28564 -1.21559,0.19928 -2.53078,0.54468 -4.00543,1.22223 -1.47465,0.67754 -3.10868,1.68719 -4.95532,3.03563 -1.84664,1.34845 -3.90578,3.03562 -5.57306,4.35084 -1.66728,1.31523 -2.94262,2.25845 -4.13828,3.18841 -1.19566,0.92995 -2.31159,1.8466 -3.06884,2.84964 -0.75725,1.00303 -1.15579,2.09238 -1.44142,3.95231 -0.28563,1.85993 -0.45833,4.49031 -0.49819,6.77535 -0.0399,2.28505 0.0531,4.22462 0.11957,5.6262 0.0664,1.40158 0.10628,2.26509 0.0731,2.9692 -0.0332,0.70411 -0.13949,1.24879 -0.52477,1.74698 -0.38527,0.49819 -1.04951,0.94987 -1.98611,1.189 -0.93661,0.23913 -2.14552,0.26569 -3.41425,0.093 -1.26874,-0.17271 -2.59722,-0.54468 -3.34118,-0.91002 -0.74396,-0.36534 -0.90338,-0.72403 -1.05616,-1.08937 -0.15278,-0.36534 -0.29891,-0.73732 -0.35869,-1.32187 -0.0598,-0.58454 -0.0332,-1.38163 0.19927,-2.3913 0.23249,-1.00968 0.67088,-2.23187 1.02958,-4.51029 0.3587,-2.27842 0.63768,-5.61289 0.87682,-8.62861 0.23913,-3.01573 0.4384,-5.71254 0.88346,-7.9378 0.44505,-2.22526 1.13586,-3.97885 1.9064,-5.63285 0.77054,-1.654 1.62076,-3.20832 2.45108,-4.76933 0.83033,-1.561 1.6407,-3.1286 2.24517,-4.89553 0.60447,-1.76692 1.00302,-3.73307 1.34179,-7.39314 0.33877,-3.66008 0.61775,-9.013844 0.80374,-12.647318 0.18599,-3.633474 0.27898,-5.54648 0.49819,-7.213763 0.21921,-1.667283 0.56461,-3.088754 0.81038,-4.124993 0.24578,-1.036239 0.39191,-1.68719 0.4517,-2.22524 0.0598,-0.53805 0.0332,-0.963158 -0.15278,-1.308572 -0.18599,-0.345414 -0.5314,-0.61111 -0.96316,-0.624393 -0.43177,-0.01328 -0.94988,0.225846 -1.282,0.518119 -0.33213,0.292272 -0.47826,0.63768 -0.78382,1.461362 -0.30556,0.823681 -0.77053,2.125588 -1.12259,3.613528 -0.35205,1.48794 -0.59118,3.161819 -0.71074,4.895533 -0.11957,1.733714 -0.11957,3.527158 0.16606,5.559789 0.28564,2.032632 0.85688,4.304328 1.78021,6.390098 0.92332,2.08577 2.19865,3.98549 3.66002,5.73248 1.46137,1.747 3.10868,3.34117 4.63647,4.70954 1.5278,1.36837 2.93598,2.51086 4.31099,3.9523 1.37502,1.44144 2.71678,3.18175 4.11837,5.32066 1.40158,2.13891 2.8629,4.6763 3.85264,7.20713 0.98974,2.53082 1.50784,5.05492 2.01932,8.80134 0.51148,3.74643 1.0163,8.71493 1.34843,11.73065 0.33212,3.01571 0.49154,4.07849 0.78382,4.91545 0.29227,0.83696 0.71739,1.44806 1.19565,1.78019 0.47827,0.33212 1.00966,0.38526 2.16548,0.49154 1.15581,0.10628 2.93597,0.2657 4.21798,0.11292 1.28201,-0.15278 2.06581,-0.61775 2.66364,-1.20229 0.59783,-0.58455 1.00967,-1.28865 1.16908,-1.81341 0.15942,-0.52476 0.0664,-0.87016 -0.17271,-1.45471 -0.23913,-0.58455 -0.62439,-1.40821 -0.96316,-2.02596 -0.33877,-0.61776 -0.63104,-1.02959 -0.98309,-1.561 -0.35206,-0.5314 -0.76389,-1.18236 -1.00967,-1.82669 -0.24577,-0.64433 -0.32548,-1.282 -0.44505,-2.83637 -0.11956,-1.55437 -0.27898,-4.02534 -0.51147,-6.46981 -0.23249,-2.44446 -0.53804,-4.86229 -0.92995,-6.8617 -0.39191,-1.99942 -0.87017,-3.5803 -1.14915,-4.6896 -0.27899,-1.10931 -0.3587,-1.74698 -0.42513,-2.48431 -0.0664,-0.73733 -0.11956,-1.57426 -0.14613,-2.05917 -0.0266,-0.4849 -0.0266,-0.61775 0.1395,-1.10931 0.16606,-0.49155 0.49818,-1.34178 0.96317,-2.15217 0.46498,-0.81039 1.06279,-1.58091 1.91969,-2.21195 0.85689,-0.63105 1.97281,-1.12258 4.60993,-2.21862 2.63712,-1.09603 6.79525,-2.79648 10.33573,-4.94867 3.54049,-2.1522 6.46314,-4.75602 8.42934,-7.17391 1.96619,-2.4179 2.97583,-4.649744 3.80615,-6.390094 0.83032,-1.74035 1.48127,-2.989116 2.09239,-3.70651 0.61112,-0.717395 1.18236,-0.903379 1.6872,-0.777169 0.50483,0.12621 0.94323,0.564608 1.28864,1.335151 0.34542,0.770543 0.59783,1.873179 1.05617,3.347835 0.45834,1.474657 1.12258,3.321237 1.83997,4.736097 0.7174,1.41487 1.48792,2.39794 2.67694,3.5139 1.18903,1.11595 2.79649,2.36472 4.55013,3.57367 1.75364,1.20895 3.65336,2.37801 5.38707,3.63345 1.73371,1.25545 3.30132,2.59721 4.61654,4.05858 1.31523,1.46137 2.37801,3.04226 3.25483,4.65641 0.87682,1.61414 1.56763,3.26145 2.35145,5.71257 0.78383,2.45112 1.66062,5.70589 2.06581,8.10385 0.4052,2.39796 0.33877,3.93899 0,5.52657 -0.33878,1.58758 -0.94987,3.2216 -1.375,4.41726 -0.42512,1.19566 -0.66425,1.95289 -0.81039,2.92271 -0.14613,0.96982 -0.19927,2.15216 -0.42512,3.04891 -0.22585,0.89674 -0.62439,1.50784 -1.05616,1.82668 -0.43176,0.31884 -0.89673,0.3454 -1.52777,0.15941 -0.63105,-0.18599 -1.42814,-0.58454 -2.06583,-1.2488 -0.63768,-0.66426 -1.11593,-1.59419 -1.60084,-2.65036 -0.48491,-1.05617 -0.97645,-2.23852 -1.20229,-3.27476 -0.22585,-1.03624 -0.18599,-1.92632 0.0996,-2.60386 0.28564,-0.67754 0.81703,-1.14251 1.23551,-1.62741 0.41848,-0.48491 0.72403,-0.98974 0.9698,-1.55436 0.24577,-0.56461 0.43176,-1.189 0.49819,-1.85325 0.0664,-0.66426 0.0133,-1.36835 -0.0996,-2.11896 -0.11293,-0.75062 -0.28563,-1.54771 -0.53804,-2.31825 -0.25242,-0.77053 -0.58454,-1.51448 -0.76389,-2.1721 -0.17935,-0.65761 -0.20591,-1.22885 -0.0731,-1.70047 0.13286,-0.47163 0.42512,-0.8436 0.83032,-1.08273 0.4052,-0.23913 0.9233,-0.34541 1.53442,-0.31219 0.61112,0.0332 1.31521,0.20591 2.03261,0.59118 0.7174,0.38527 1.44806,0.98309 2.42452,1.93298 0.97646,0.94989 2.19867,2.2518 3.12862,3.6866 0.92996,1.4348 1.56763,3.0024 1.83997,4.31098 0.27234,1.30859 0.17935,2.35808 -0.0531,3.42754 -0.2325,1.06945 -0.60447,2.1588 -0.80374,3.22826 -0.19928,1.06945 -0.22584,2.11895 -0.13284,3.1087 0.093,0.98974 0.30555,1.91967 0.56461,2.61049 0.25906,0.69083 0.56461,1.14251 1.26873,1.50121 0.70412,0.3587 1.80675,0.62439 3.32791,0.6111 1.52115,-0.0133 3.46073,-0.30555 5.80556,-0.32547 2.34484,-0.0199 5.09478,0.23248 7.51267,0.87018 2.4179,0.63769 4.50361,1.66062 6.69565,2.63043 2.19205,0.96981 4.49033,1.88647 6.70895,2.51751 2.21862,0.63104 4.35746,0.97644 6.84179,1.00301 2.48434,0.0266 5.31398,-0.2657 8.05072,-0.84361 2.73674,-0.5779 5.38041,-1.44141 8.05073,-2.18538 2.67032,-0.74397 5.36711,-1.36835 7.95107,-1.71376 2.58396,-0.34541 5.05493,-0.41184 7.52595,-0.47826"
       id="path4"
       inkscape:path-effect="#path-effect5"
       inkscape:original-d="m 130.75996,158.64497 c 1.56764,0.30556 3.13527,0.61111 4.7029,0.91667 4.1583,-1.56767 8.31643,-3.13527 12.47464,-4.7029 2.78991,0.34542 5.57971,0.69082 8.36956,1.03623 4.53029,-3.17519 9.06039,-6.35024 13.59058,-9.52536 0.38528,0.0266 0.77054,0.0531 1.1558,0.0797 0.186,0.42513 0.37198,0.85024 0.55797,1.27536 -0.38527,1.76694 -0.77053,3.53382 -1.15579,5.30072 0.22584,0.29228 0.45169,0.58455 0.67753,0.87682 1.16911,0.3587 2.33816,0.71739 3.50725,1.07608 1.18239,-0.18599 2.36473,-0.37198 3.5471,-0.55797 0.18599,-0.58455 0.37198,-1.16908 0.55797,-1.75362 -0.66426,-0.98311 -1.3285,-1.96619 -1.99275,-2.94928 0.22585,-2.20535 0.45169,-4.41062 0.67753,-6.61594 0.39856,-0.67755 0.7971,-1.35507 1.19565,-2.03261 1.74038,-0.96982 3.48068,-1.93961 5.22102,-2.90942 0.63769,-0.46498 1.27536,-0.92995 1.91304,-1.39493 0.43842,-0.0664 0.87682,-0.13285 1.31522,-0.19927 0.70412,0.4517 1.40821,0.90338 2.11232,1.35507 0.093,1.2621 0.18599,2.52416 0.27898,3.78623 -0.39855,2.36479 -0.7971,4.72947 -1.19565,7.09421 -0.39856,0.86354 -0.7971,1.72705 -1.19565,2.59058 -0.30556,0.39856 -0.61111,0.7971 -0.91667,1.19565 0.0266,0.50484 0.0531,1.00966 0.0797,1.51449 0.37199,0.27899 0.74397,0.55797 1.11595,0.83696 1.76694,0.2657 3.53381,0.5314 5.30072,0.7971 0.42513,-0.65098 0.85024,-1.30193 1.27536,-1.9529 -0.30556,-1.08939 -0.61111,-2.17874 -0.91666,-3.26811 0.33213,-1.16911 0.66425,-2.33817 0.99637,-3.50725 2.11236,-4.95542 4.22464,-9.91063 6.33696,-14.86594 -0.0133,-0.49156 -0.0266,-0.9831 -0.0399,-1.47464 -0.37199,-0.10628 -0.74396,-0.21256 -1.11594,-0.31884 -0.3587,0.0797 -0.71739,0.15942 -1.07609,0.23913 -0.14613,0.49155 -0.29226,0.98309 -0.4384,1.47464 -0.17271,0.75726 -0.34541,1.51449 -0.51812,2.27174 -0.0531,0.79711 -0.10628,1.5942 -0.15942,2.3913 0.186,0.4517 0.37198,0.90338 0.55797,1.35507 1.32853,0.89012 2.65701,1.78019 3.98551,2.67029 1.50124,0.17271 3.00242,0.34541 4.50363,0.51812 0.89011,0.39856 1.78019,0.7971 2.67028,1.19565 0.77055,1.24882 1.54107,2.49758 2.3116,3.74638 0.69083,1.59423 1.38164,3.1884 2.07246,4.78261 0.66427,0.21256 1.3285,0.42512 1.99275,0.63768 1.06283,-0.57127 2.12561,-1.14251 3.18841,-1.71377 0.61112,-0.70412 1.22222,-1.40821 1.83334,-2.11232 -0.22586,-0.67755 -0.4517,-1.35507 -0.67754,-2.03261 -0.77055,-0.3587 -1.54106,-0.71739 -2.31159,-1.07609 -0.49156,-0.49155 -0.9831,-0.98309 -1.47464,-1.47463 -1.03626,-1.64738 -2.07247,-3.29469 -3.1087,-4.94203 -1.28867,-1.30196 -2.57729,-2.60387 -3.86594,-3.9058 -0.46499,-0.83697 -0.92995,-1.67391 -1.39493,-2.51087 -0.22585,-0.95654 -0.45169,-1.91304 -0.67754,-2.86956 0.0133,-0.55799 0.0266,-1.11595 0.0399,-1.67392 0.22585,-0.0797 0.45169,-0.15942 0.67754,-0.23913 0.85026,0.17271 1.70048,0.34541 2.55072,0.51812 0.61112,0.26571 1.22222,0.5314 1.83333,0.7971 0.57127,-0.093 1.14252,-0.18599 1.71377,-0.27898 0.34542,-0.279 0.69082,-0.55798 1.03623,-0.83696 0.0797,-0.46499 0.15942,-0.92995 0.23913,-1.39493 -0.15942,-0.42513 -0.31884,-0.85024 -0.47826,-1.27536 0.22585,-0.25242 0.4517,-0.50483 0.67754,-0.75725 0.22585,-0.093 0.45169,-0.18599 0.67754,-0.27898 1.11596,0.21256 2.23188,0.42512 3.34782,0.63768 1.12925,0.2657 2.25846,0.5314 3.38768,0.7971 0.42513,-0.10628 0.85024,-0.21256 1.27537,-0.31884 0.49155,-0.34542 0.98309,-0.69082 1.47463,-1.03623 0.43842,-0.31885 0.87681,-0.63768 1.31522,-0.95653 0.65098,-0.0531 1.30193,-0.10627 1.9529,-0.15942 0.50484,0.279 1.00966,0.55798 1.51449,0.83696 0.73069,0.30556 1.46136,0.61111 2.19203,0.91667 0.43842,-0.0399 0.87681,-0.0797 1.31522,-0.11957 0.0266,-0.4517 0.0531,-0.90338 0.0797,-1.35507 -0.62441,-0.69084 -1.24879,-1.38164 -1.87319,-2.07246 -1.34181,-0.35871 -2.68357,-0.71739 -4.02536,-1.07609 -1.07611,0.0133 -2.15218,0.0266 -3.22826,0.0399 -1.75366,0.22585 -3.50725,0.4517 -5.26087,0.67754 -1.04954,0 -2.09904,0 -3.14855,0 -1.02297,-0.42513 -2.0459,-0.85024 -3.06884,-1.27536 -0.9034,-1.08939 -1.80677,-2.17875 -2.71015,-3.26812 -0.3587,-0.83697 -0.71739,-1.67391 -1.07608,-2.51087 -0.95655,-1.03625 -1.91305,-2.07246 -2.86957,-3.10869 -1.8998,-0.71741 -3.79952,-1.43478 -5.69928,-2.15218 -1.63409,-0.093 -3.26811,-0.18599 -4.90217,-0.27898 -5.16798,-0.0664 -10.33575,-0.13285 -15.50362,-0.19928 -1.67395,0.29228 -3.34783,0.58455 -5.02174,0.87681 -0.53141,0.19928 -1.0628,0.39855 -1.5942,0.59783 -0.98312,0.55798 -1.96619,1.11594 -2.94928,1.67391 -0.73069,0.7307 -1.46135,1.46136 -2.19203,2.19203 -0.5447,0.89012 -1.08937,1.78019 -1.63406,2.67029 -0.73069,1.82009 -1.46135,3.6401 -2.19203,5.46015 -0.0531,0.87683 -0.10628,1.75362 -0.15942,2.63043 -0.3587,1.46138 -0.71739,2.92271 -1.07608,4.38406 -0.70412,1.11596 -1.40822,2.23188 -2.11232,3.34783 -0.62441,0.63769 -1.24879,1.27536 -1.87319,1.91304 -1.38167,0.62441 -2.76328,1.24879 -4.14493,1.87319 -1.44809,0.093 -2.89613,0.18599 -4.3442,0.27898 -0.89012,-0.39856 -1.78019,-0.7971 -2.67029,-1.19565 -0.0399,-0.29228 -0.0797,-0.58454 -0.11957,-0.87681 0.15943,-0.29228 0.31885,-0.58454 0.47826,-0.87681 0.57127,0.0531 1.14252,0.10628 1.71377,0.15942 0.77055,0.0797 1.54107,0.15942 2.3116,0.23913 1.08939,-0.22585 2.17874,-0.45169 3.26811,-0.67754 1.02297,-0.61112 2.0459,-1.22222 3.06884,-1.83333 0.6377,-0.61112 1.27537,-1.22222 1.91305,-1.83333 0.49155,-0.35871 0.98309,-0.7174 1.47464,-1.07609 0.61112,0.23913 1.22222,0.47826 1.83333,0.71739 0.34542,0.66427 0.69082,1.3285 1.03623,1.99275 0,1.20897 0,2.41788 0,3.62682 -0.42513,1.42152 -0.85024,2.84299 -1.27536,4.26449 -0.0266,1.2621 -0.0531,2.52415 -0.0797,3.78623 -0.25242,0.58455 -0.50483,1.16908 -0.75725,1.75362 -0.89011,0.66427 -1.78019,1.32851 -2.67029,1.99276 -2.11236,0.96982 -4.22464,1.93961 -6.33696,2.90942 -0.19927,0.30556 -0.39855,0.61111 -0.59782,0.91666 -0.0531,0.57127 -0.10628,1.14252 -0.15942,1.71377 0.43841,0.50484 0.87681,1.00966 1.31522,1.51449 0.89011,0.0133 1.78019,0.0266 2.67028,0.0399 1.02297,-0.92997 2.0459,-1.8599 3.06885,-2.78986 1.47466,-1.1691 2.94927,-2.33816 4.42391,-3.50724 2.15222,-1.51452 4.30435,-3.02899 6.45652,-4.54348 0.85026,-1.50124 1.70048,-3.00242 2.55073,-4.50362 0.10628,-1.67395 0.21256,-3.34783 0.31884,-5.02174 -0.093,-1.67395 -0.18599,-3.34783 -0.27899,-5.02174 0.25242,-0.55798 0.50483,-1.11594 0.75725,-1.67391 0.53141,0 1.0628,0 1.5942,0 1.15582,1.08939 2.31159,2.17874 3.46739,3.26811 2.05922,0.67755 4.11836,1.35507 6.17754,2.03261 1.97951,-0.47827 3.95893,-0.95652 5.9384,-1.43478 1.8998,-1.47467 3.79952,-2.94928 5.69928,-4.42392 0,-0.69083 0,-1.38164 0,-2.07246 -0.91669,-1.48795 -1.83334,-2.97585 -2.75,-4.46377 -0.38528,-1.14253 -0.77053,-2.28502 -1.1558,-3.42753 0.49156,-1.79352 0.98309,-3.58696 1.47464,-5.38044 1.88651,-1.03625 3.77295,-2.07246 5.65942,-3.10869 2.28507,0.18599 4.57005,0.37198 6.85507,0.55797 3.02905,0.10628 6.05797,0.21256 9.08696,0.31884 1.75366,1.0761 3.50724,2.15217 5.26087,3.22826 1.38167,1.83337 2.76328,3.66666 4.14492,5.5 2.09908,0.66426 4.19807,1.3285 6.29711,1.99275 2.45778,1.97951 4.91546,3.95894 7.37318,5.93841 1.76695,0.0797 3.53382,0.15942 5.30073,0.23913 1.31524,-0.91669 2.63043,-1.83333 3.94565,-2.75 1.24882,-2.05922 2.49759,-4.11836 3.74638,-6.17754 1.03625,-5.85881 2.07246,-11.71739 3.10869,-17.576084 0.34542,-3.786309 0.69082,-7.572465 1.03624,-11.358697 1.50123,-3.959016 3.00241,-7.917873 4.50362,-11.87681 2.93605,-3.082187 5.87198,-6.164252 8.80797,-9.246378 3.98559,-1.63409 7.97102,-3.268114 11.95652,-4.902173 4.49043,-0.185994 8.98068,-0.37198 13.47102,-0.557972 4.55685,0.438415 9.11352,0.876813 13.67029,1.315217 1.78022,0.06643 3.56038,0.13285 5.34058,0.199277 3.17518,-1.115965 6.35024,-2.231885 9.52536,-3.347826 3.86602,-1.355101 7.73188,-2.710146 11.59782,-4.065217 2.61721,-1.262102 5.2343,-2.524154 7.85145,-3.786233 2.32493,-0.836972 4.64976,-1.673913 6.97464,-2.510869 2.40464,0.172709 4.80918,0.345411 7.21377,0.518115 1.91308,1.501238 3.82608,3.002415 5.73913,4.503624 0.69083,0.571267 1.38164,1.142513 2.07246,1.713767 2.45778,2.311641 4.91546,4.623189 7.37318,6.934784 0.79714,0.863542 1.59422,1.727052 2.3913,2.590578 1.2754,2.776628 2.55075,5.553141 3.82609,8.32971 1.11599,2.085793 2.23189,4.171498 3.34783,6.257248 1.67396,2.816482 3.34782,5.63285 5.02173,8.449276 0.87683,1.899795 1.75364,3.799517 2.63044,5.699275 0.71742,3.600313 1.43478,7.200478 2.15217,10.800728 -0.0797,2.65705 -0.15941,5.31401 -0.23913,7.97101 -0.34541,2.76334 -0.6908,5.52657 -1.03621,8.28986 -0.13285,2.19207 -0.2657,4.38405 -0.39857,6.57608 0.29228,3.22833 0.58454,6.45652 0.87683,9.68478 0.66426,2.33821 1.3285,4.67633 1.99273,7.0145 0.91671,1.7138 1.83336,3.42753 2.75003,5.1413 0.39854,0.66427 0.79708,1.3285 1.19565,1.99276 0.0399,0.49155 0.0797,0.98309 0.11957,1.47463 -0.15944,0.47827 -0.31885,0.95652 -0.47826,1.43478 -0.50485,0 -1.00968,0 -1.5145,0 -1.04955,-0.13285 -2.09905,-0.2657 -3.14857,-0.39855 -0.10626,0.0266 -0.21254,0.0531 -0.31883,0.0797 -0.42513,0.11956 -0.85023,0.23913 -1.27537,0.35869 -0.38526,-0.0266 -0.77052,-0.0531 -1.1558,-0.0797 -0.46498,-0.5447 -0.92993,-1.08937 -1.39491,-1.63406 -0.13285,-1.14253 -0.2657,-2.28502 -0.39857,-3.42754 -0.23913,-1.6208 -0.47826,-3.24154 -0.71739,-4.86231 -0.49154,-1.93965 -0.98309,-3.87923 -1.47463,-5.81884 -0.87683,-3.50732 -1.75363,-7.0145 -2.63043,-10.52174 -0.093,-3.14862 -0.18598,-6.2971 -0.27898,-9.44566 0.0132,-2.13893 0.0266,-4.27777 0.0398,-6.41666 -0.38525,-2.76334 -0.77051,-5.52657 -1.1558,-8.28986 -0.5447,-1.8068 -1.08937,-3.613521 -1.63404,-5.420287 -0.29229,-0.06643 -0.58455,-0.13285 -0.87683,-0.199273 -0.58454,0.01328 -1.16906,0.02657 -1.75361,0.03985 -0.33213,0.05314 -0.66426,0.10628 -0.99639,0.159419 -0.33213,-0.093 -0.66424,-0.185989 -0.99637,-0.278984 -0.43841,-0.584552 -0.8768,-1.169083 -1.31522,-1.753624 -0.98311,-1.115965 -1.96617,-2.231882 -2.94927,-3.347826 -1.23553,-0.717404 -2.47101,-1.434782 -3.70652,-2.152174 -1.04954,0 -2.09903,0 -3.14855,0 -1.00968,0.212567 -2.01932,0.425122 -3.02899,0.637681 -0.59783,0.67755 -1.19565,1.355074 -1.79347,2.032611 -0.46499,0.836972 -0.92995,1.673913 -1.39493,2.510869 -0.4517,0.345416 -0.90338,0.690819 -1.35507,1.03623 -0.51813,0.14614 -1.03623,0.292272 -1.55435,0.438407 -0.65098,-0.371989 -1.30193,-0.743961 -1.9529,-1.115941 -0.38527,-0.385276 -0.77053,-0.770533 -1.1558,-1.155798 -0.39856,-0.637694 -0.7971,-1.275363 -1.19565,-1.913044 -0.50484,-0.664265 -1.00966,-1.328502 -1.51449,-1.992754 -0.82369,-0.717404 -1.64734,-1.434782 -2.47102,-2.152174 -2.28507,-0.717404 -4.57005,-1.434782 -6.85507,-2.152173 -2.12565,-1.580949 -4.25121,-3.161837 -6.37681,-4.742754 -1.07611,-1.394955 -2.15217,-2.789854 -3.22826,-4.184783 -0.51813,-2.032648 -1.03623,-4.065217 -1.55435,-6.097825 0.0399,-1.115965 0.0797,-2.231885 0.11956,-3.347826 0.57127,-1.089395 1.14252,-2.178743 1.71377,-3.268117 1.32853,-0.464984 2.65701,-0.92995 3.98551,-1.394926 1.43481,-0.491556 2.86957,-0.983094 4.30435,-1.474639 1.47467,-1.23553 2.94927,-2.471013 4.42391,-3.706522 1.46138,-1.301959 2.92271,-2.603865 4.38406,-3.905797 1.24882,-0.531411 2.49758,-1.062803 3.74638,-1.594202 1.38167,0.292277 2.76328,0.584541 4.14493,0.87681 0.77054,0.903402 1.54106,1.806766 2.31159,2.710146 0.37199,1.38167 0.74396,2.763284 1.11594,4.144928 0.10628,2.936049 0.21256,5.87198 0.31884,8.807971 -0.92997,2.524204 -1.8599,5.048308 -2.78985,7.572462 -1.0894,1.248818 -2.17875,2.497585 -3.26812,3.746379 -1.70052,1.541092 -3.40096,3.082125 -5.10145,4.623188 -0.3587,1.474666 -0.71739,2.949274 -1.07609,4.423913 0.0266,2.378067 0.0531,4.756039 0.0797,7.134058 0.29228,2.099075 0.58455,4.198071 0.87681,6.297101 -0.43841,2.45778 -0.87681,4.91546 -1.31521,7.37319 -0.81041,2.28507 -1.62077,4.57005 -2.43116,6.85507 -0.55798,2.19208 -1.11594,4.38406 -1.67391,6.57609 -0.093,2.19207 -0.186,4.38406 -0.27899,6.57609 -0.18599,3.13533 -0.37198,6.27053 -0.55797,9.40579 -0.26571,2.39136 -0.5314,4.78261 -0.7971,7.17392 -0.0797,0.59784 -0.15942,1.19565 -0.23913,1.79348 0.093,0.54469 0.18599,1.08937 0.27898,1.63405 0.26571,0.57127 0.5314,1.14252 0.7971,1.71377 0.4517,0.51813 0.90339,1.03623 1.35508,1.55435 -0.0531,0.78383 -0.10628,1.56763 -0.15942,2.35145 -0.13286,0.19928 -0.2657,0.39855 -0.39855,0.59782 -0.59784,0.0532 -1.19566,0.10629 -1.79348,0.15943 -2.15222,0.10628 -4.30435,0.21256 -6.45652,0.31884 -1.15582,-0.42513 -2.3116,-0.85025 -3.46739,-1.27537 -0.69084,-0.75726 -1.38165,-1.51449 -2.07247,-2.27173 0.27899,-1.14254 0.55797,-2.28503 0.83696,-3.42754 0.29227,-0.9964 0.58454,-1.99276 0.87681,-2.98913 0.39856,-2.6172 0.7971,-5.2343 1.19565,-7.85145 -0.22585,-7.75861 -0.45169,-15.51691 -0.67753,-23.27536 -0.17271,-0.86355 -0.34542,-1.72706 -0.51812,-2.59058 -0.43841,-0.25242 -0.87681,-0.50483 -1.31522,-0.75725 -0.43841,0 -0.87681,0 -1.31522,0 -0.95654,0.47827 -1.91304,0.95652 -2.86956,1.43478 -1.68723,0.92997 -3.3744,1.85991 -5.06159,2.78986 -3.69332,1.20896 -7.38648,2.41787 -11.07971,3.62681 -2.96262,0.22585 -5.92513,0.45169 -8.88769,0.67754 -3.66674,0.0133 -7.33333,0.0266 -11,0.0399 -1.11596,0.0531 -2.23188,0.10628 -3.34782,0.15942 -1.31525,0.34542 -2.63044,0.69082 -3.94565,1.03623 -1.63409,1.00969 -3.26812,2.01933 -4.90218,3.02899 -2.05922,1.68723 -4.11836,3.3744 -6.17753,5.06159 -1.27539,0.94326 -2.55073,1.88648 -3.82609,2.82971 -1.11596,0.91669 -2.23188,1.83334 -3.34783,2.75 -0.39856,1.0894 -0.7971,2.17875 -1.19565,3.26812 -0.17271,2.63049 -0.34541,5.26087 -0.51812,7.8913 0.093,1.93966 0.186,3.87923 0.27899,5.81885 0.0399,0.86354 0.0797,1.72705 0.11957,2.59057 -0.10629,0.5447 -0.21256,1.08938 -0.31884,1.63406 -0.66427,0.4517 -1.32851,0.90338 -1.99276,1.35507 -1.20896,0.0266 -2.41787,0.0531 -3.62681,0.0797 -1.32853,-0.37198 -2.65701,-0.74396 -3.98551,-1.11594 -0.15942,-0.3587 -0.31884,-0.71739 -0.47826,-1.07608 -0.14614,-0.37199 -0.29227,-0.74397 -0.4384,-1.11595 0.0266,-0.79711 0.0531,-1.5942 0.0797,-2.3913 0.43841,-1.22225 0.87681,-2.44444 1.31521,-3.66667 0.279,-3.33461 0.55797,-6.66908 0.83696,-10.00362 0.19928,-2.69691 0.39855,-5.39372 0.59783,-8.09058 0.69083,-1.75366 1.38164,-3.50725 2.07246,-5.26087 0.85026,-1.55438 1.70048,-3.1087 2.55072,-4.66304 0.81041,-1.56767 1.62078,-3.13527 2.43116,-4.7029 0.39856,-1.96622 0.7971,-3.93237 1.19566,-5.89855 0.27899,-5.35397 0.55797,-10.707734 0.83695,-16.061599 0.093,-1.913083 0.18599,-3.826089 0.27899,-5.739133 0.34541,-1.421524 0.69082,-2.842993 1.03623,-4.26449 0.14614,-0.650981 0.29227,-1.301933 0.43841,-1.952901 -0.0266,-0.425129 -0.0531,-0.850241 -0.0797,-1.27536 -0.34542,-0.265708 -0.69083,-0.531402 -1.03624,-0.797102 -0.51812,0.239135 -1.03623,0.478261 -1.55434,0.717391 -0.14614,0.345416 -0.29228,0.690822 -0.43841,1.036233 -0.46498,1.301956 -0.92995,2.603862 -1.39493,3.905795 -0.23913,1.673947 -0.47826,3.347825 -0.71739,5.021738 0,1.793515 0,3.586959 0,5.380437 0.57127,2.271784 1.14251,4.543481 1.71377,6.815221 1.27539,1.8998 2.55072,3.79952 3.82609,5.69928 1.64737,1.59423 3.29468,3.1884 4.94202,4.7826 1.40825,1.14254 2.81643,2.28503 4.22464,3.42754 1.34182,1.74037 2.68358,3.48068 4.02537,5.22101 1.46138,2.53749 2.9227,5.07488 4.38405,7.61232 0.51813,2.52421 1.03623,5.04831 1.55435,7.57247 0.50484,4.96869 1.00966,9.93719 1.51449,14.90579 0.15943,1.06283 0.31884,2.12561 0.47826,3.18841 0.42513,0.61112 0.85025,1.22222 1.27537,1.83333 0.53141,0.0531 1.0628,0.10628 1.5942,0.15942 1.78023,0.15943 3.56039,0.31884 5.34058,0.47826 0.78383,-0.46498 1.56763,-0.92995 2.35145,-1.39492 0.41184,-0.70412 0.82367,-1.40822 1.23551,-2.11232 -0.093,-0.34542 -0.18599,-0.69082 -0.27899,-1.03624 -0.38527,-0.82368 -0.77053,-1.64734 -1.1558,-2.47101 -0.29227,-0.41184 -0.58454,-0.82367 -0.87681,-1.23551 -0.41184,-0.65097 -0.82367,-1.30193 -1.23551,-1.95289 -0.0797,-0.6377 -0.15942,-1.27537 -0.23913,-1.91305 -0.15942,-2.47106 -0.31884,-4.94203 -0.47826,-7.41304 -0.30556,-2.41792 -0.61111,-4.83575 -0.91666,-7.25362 -0.47827,-1.58096 -0.95652,-3.16184 -1.43479,-4.74276 -0.0797,-0.63769 -0.15942,-1.27536 -0.23913,-1.91304 -0.0531,-0.83698 -0.10628,-1.67391 -0.15942,-2.51087 0,-0.13285 0,-0.2657 0,-0.39855 0.33214,-0.85026 0.66425,-1.70049 0.99638,-2.55073 0.59784,-0.77054 1.19565,-1.54106 1.79348,-2.31159 1.11596,-0.49156 2.23188,-0.98309 3.34782,-1.47464 4.1583,-1.70052 8.31643,-3.40096 12.47464,-5.10145 2.92276,-2.60391 5.84541,-5.20773 8.76812,-7.81159 1.00968,-2.23193 2.01932,-4.463775 3.02898,-6.695657 0.65098,-1.248817 1.30193,-2.497584 1.9529,-3.746378 0.57127,-0.185994 1.14251,-0.37198 1.71377,-0.557969 0.43841,0.438414 0.87681,0.87681 1.31522,1.315217 0.25242,1.102678 0.50483,2.205313 0.75724,3.307969 0.66427,1.846657 1.32851,3.693237 1.99276,5.539858 0.77054,0.98311 1.54106,1.96618 2.31159,2.94928 1.60752,1.24881 3.21498,2.49758 4.82246,3.74637 1.8998,1.16911 3.79952,2.33817 5.69928,3.50725 1.56766,1.34181 3.13526,2.68358 4.7029,4.02536 1.06282,1.58095 2.1256,3.16184 3.1884,4.74276 0.69084,1.64737 1.38165,3.29468 2.07247,4.94202 0.87683,3.2549 1.75362,6.50967 2.63043,9.7645 -0.0664,1.54109 -0.13285,3.08212 -0.19927,4.62319 -0.61113,1.63409 -1.22222,3.26811 -1.83334,4.90217 -0.23913,0.75726 -0.47826,1.51449 -0.71739,2.27174 -0.0531,1.18239 -0.10628,2.36473 -0.15942,3.5471 -0.39856,0.61112 -0.7971,1.22222 -1.19565,1.83333 -0.46498,0.0266 -0.92995,0.0531 -1.39493,0.0797 -0.79711,-0.39855 -1.5942,-0.7971 -2.3913,-1.19565 -0.47827,-0.92997 -0.95652,-1.8599 -1.43478,-2.78985 -0.49156,-1.18239 -0.9831,-2.36474 -1.47464,-3.5471 0.0399,-0.89012 0.0797,-1.7802 0.11956,-2.67029 0.53142,-0.46499 1.06281,-0.92996 1.59421,-1.39493 0.30556,-0.50484 0.61111,-1.00967 0.91666,-1.5145 0.186,-0.6244 0.37198,-1.24879 0.55797,-1.87318 -0.0531,-0.70412 -0.10628,-1.40821 -0.15942,-2.11232 -0.1727,-0.79712 -0.34541,-1.59421 -0.51811,-2.39131 -0.33213,-0.74397 -0.66425,-1.48792 -0.99638,-2.23188 -0.0266,-0.57127 -0.0531,-1.14251 -0.0797,-1.71377 0.29228,-0.37199 0.58454,-0.74396 0.87681,-1.11594 0.51813,-0.10628 1.03623,-0.21256 1.55435,-0.31884 0.70412,0.17271 1.40821,0.34541 2.11232,0.51812 0.73069,0.59783 1.46135,1.19565 2.19203,1.79347 1.22224,1.30196 2.44444,2.60387 3.66667,3.9058 0.63769,1.56767 1.27536,3.13527 1.91304,4.7029 -0.093,1.04954 -0.18599,2.09903 -0.27899,3.14855 -0.37199,1.08939 -0.74396,2.17874 -1.11594,3.26812 -0.0266,1.04953 -0.0531,2.09903 -0.0797,3.14854 0.21257,0.92998 0.42512,1.85991 0.63768,2.78986 0.30556,0.4517 0.61111,0.90338 0.91667,1.35507 1.10268,0.26571 2.20531,0.53141 3.30797,0.7971 1.93965,-0.29227 3.87923,-0.58454 5.81884,-0.87681 2.75006,0.25242 5.5,0.50483 8.25,0.75725 2.08579,1.02297 4.1715,2.04589 6.25723,3.06884 2.29836,0.91668 4.59664,1.83333 6.89494,2.75 2.13894,0.34542 4.27778,0.69082 6.41667,1.03623 2.82978,-0.29227 5.65942,-0.58454 8.48913,-0.87681 2.64377,-0.86354 5.28744,-1.72705 7.93115,-2.59058 2.69693,-0.62441 5.39372,-1.24879 8.09059,-1.87319 2.47105,-0.0664 4.94202,-0.13285 7.41304,-0.19927" /></g></svg>
