<?xml version="1.0" ?>
<svg xmlns="http://www.w3.org/2000/svg" xmlns:ev="http://www.w3.org/2001/xml-events" xmlns:xlink="http://www.w3.org/1999/xlink" baseProfile="full" height="600px" version="1.1" viewBox="-0.625 -0.625 901.25 1251.25" width="433px">
	<defs/>
	<path d="M 0.0,0.0 L 900.0,0.0 L 900.0,1250.0 L 0.0,1250.0 L 0.0,0.0" fill="none" stroke="#000000" stroke-width="1.25"/>
	<path d="M 43.0,31.0 L 47.0,31.0 L 47.0,35.0 L 43.0,35.0 L 43.0,31.0" fill="none" stroke="#000000" stroke-width="1.25"/>
	<path d="M 863.0,31.0 L 867.0,31.0 L 867.0,35.0 L 863.0,35.0 L 863.0,31.0" fill="none" stroke="#000000" stroke-width="1.25"/>
	<path d="M 135.0,337.0 L 765.0,337.0 L 765.0,931.0 L 135.0,931.0 L 135.0,337.0" fill="none" stroke="#000000" stroke-width="1.25"/>
	<path d="M 462.7879683853342,911.0000130413266 L 527.7828130638827,911.000012968591" fill="none" stroke="#000000" stroke-width="1.25"/>
	<path d="M 536.2080707073978,880.9098075274333 L 628.8859047860691,880.9098071874067" fill="none" stroke="#000000" stroke-width="1.25"/>
	<path d="M 609.628173029462,890.5386730159895 L 673.4194094732222,890.5386726775682" fill="none" stroke="#000000" stroke-width="1.25"/>
	<path d="M 658.9761106557671,830.3582618946084 L 684.2518835863135,830.3582617271322" fill="none" stroke="#000000" stroke-width="1.25"/>
	<path d="M 669.8085847688584,809.8969221324854 L 684.2518835863136,809.8969220318082" fill="none" stroke="#000000" stroke-width="1.25"/>
	<path d="M 658.9761106557671,819.5257879402657 L 673.4194094732223,819.5257878456724" fill="none" stroke="#000000" stroke-width="1.25"/>
	<path d="M 634.9039459600085,839.9871277720496 L 684.2518835863134,839.9871274669249" fill="none" stroke="#000000" stroke-width="1.25"/>
	<path d="M 633.7003377252205,799.0644484047623 L 654.1616777166153,799.0644482816821" fill="none" stroke="#000000" stroke-width="1.25"/>
	<path d="M 646.9400283078878,779.8067168587702 L 667.4013682992827,779.8067167236686" fill="none" stroke="#000000" stroke-width="1.25"/>
	<path d="M 638.5147706643723,779.8067169104257 L 639.71837889916,779.8067169031884" fill="none" stroke="#000000" stroke-width="1.25"/>
	<path d="M 628.8859047860689,768.9742430187695 L 686.6591000558894,768.9742426305397" fill="none" stroke="#000000" stroke-width="1.25"/>
	<path d="M 638.5147706643721,759.3453772303951 L 686.6591000558892,759.345376894798" fill="none" stroke="#000000" stroke-width="1.25"/>
	<path d="M 637.3111744656668,713.6082650257782 L 637.8106562241935,720.5864719463154 L 638.7029329374802,730.7268793940787 L 639.0787517620853,741.8345028909602 L 638.0288598545685,751.7143579576406 L 634.4479647407602,758.0740106154245 L 625.5705200749996,760.0925868550959 L 614.4913047686634,759.8270512080502 L 606.0173603611806,759.3453774129232" fill="none" stroke="#000000" stroke-width="1.25"/>
	<path d="M 589.1668330380668,768.9742432215133 L 612.0353894990375,768.9742431111672" fill="none" stroke="#000000" stroke-width="1.25"/>
	<path d="M 624.071471846917,789.4355827254631 L 684.2518835863136,789.4355823390025" fill="none" stroke="#000000" stroke-width="1.25"/>
	<path d="M 614.4426059686135,809.8969224577444 L 650.5508530122518,809.8969222565344" fill="none" stroke="#000000" stroke-width="1.25"/>
	<path d="M 584.3524000989152,819.5257883259414 L 595.1848742120065,819.5257882806703" fill="none" stroke="#000000" stroke-width="1.25"/>
	<path d="M 569.90910128146,830.3582623290026 L 642.1255953687361,830.3582619954027" fill="none" stroke="#000000" stroke-width="1.25"/>
	<path d="M 572.316317751036,799.0644486940247 L 621.6642553773412,799.0644484709356" fill="none" stroke="#000000" stroke-width="1.25"/>
	<path d="M 566.2982765770962,789.435582986602 L 581.9451836293395,789.4355829265035" fill="none" stroke="#000000" stroke-width="1.25"/>
	<path d="M 565.0946683423083,779.8067172624422 L 591.5740495076428,779.8067171557827" fill="none" stroke="#000000" stroke-width="1.25"/>
	<path d="M 610.8317933003319,731.6623884212694 L 615.6462262394839,736.4768212581153" fill="none" stroke="#000000" stroke-width="1.25"/>
	<path d="M 619.2570509438475,731.6623883741964 L 618.0534427090597,734.069604812811" fill="none" stroke="#000000" stroke-width="1.25"/>
	<path d="M 615.6462262394839,729.2551719630417 L 615.7890811635282,737.196030660015 L 615.6462262394839,758.1417691463934" fill="none" stroke="#000000" stroke-width="1.25"/>
	<path d="M 610.831793300332,717.2190898329427 L 607.2209685959683,720.8299144995372" fill="none" stroke="#000000" stroke-width="1.25"/>
	<path d="M 604.8137039820631,712.4046570036846 L 604.971842514299,722.5715333314853 L 604.8621724245389,731.2978684106747 L 605.2256778480155,742.2093817714236 L 604.4740162288238,753.6869351816978 L 599.9292339225602,759.11843306878 L 589.6679799380215,760.311169922128 L 578.7032844256985,760.2868295435031 L 569.403177003149,761.9052503049116 L 559.7821986425487,764.0026249969807 L 549.5734791771335,766.5546097429743 L 541.6151397551243,771.9416904857277 L 540.2630114135343,780.2421805850004 L 545.3604894543676,788.7536568620357 L 553.3619139717085,797.2613208475334 L 560.6911249016192,805.6026111917103 L 563.7719621801605,813.6149665472666 L 559.0282657433937,821.1358255665939 L 550.1626797557083,825.4468131659328 L 540.2157127453402,827.6253432406183 L 529.8624060943337,828.6355870127893 L 510.2172120346382,829.7964522232872 L 500.2562739888919,830.1658849754091 L 490.2861474005038,830.3610449894403 L 480.30916128396376,830.429899981656 L 450.39680002228556,830.3577352022954 L 440.62696744123355,830.1722905654455 L 430.2305151077514,830.3517730183921 L 420.315023432231,831.920019801759 L 411.69340921519193,837.0139446138592 L 412.8143764422516,845.6073040550103 L 419.16128162956426,852.3671560700819 L 427.56016482601456,859.2670262468628 L 435.4593915635271,867.380109655609 L 438.64269795052775,875.8457817130003 L 434.17056962940177,883.0102650649629 L 425.2020086736201,887.2530231640167 L 414.4010181769236,889.4506501460938 L 404.2655085614278,890.3488865302394 L 385.3282189952752,891.2506366753043 L 375.35822840180447,891.6833334552496 L 365.2500277680999,892.0252660705135 L 355.06151826552684,892.2175113135866 L 344.8506010654516,892.2011459770144 L 334.6751773392388,891.9172468533991 L 324.5931482582546,891.3068907353962 L 314.66241499386416,890.3111544157148 L 304.94087871743335,888.8711146871165 L 295.4864406003267,886.9278483424134" fill="none" stroke="#000000" stroke-width="1.25"/>
	<path d="M 295.4864285642444,900.1675387325162 L 380.9426084197547,900.1675390132182" fill="none" stroke="#000000" stroke-width="1.25"/>
	<path d="M 402.6075566459373,900.1675390517446 L 437.51219545478773,900.1675390860468" fill="none" stroke="#000000" stroke-width="1.25"/>
	<path d="M 444.7338448635153,900.1675390888653 L 445.9374530983031,900.1675390891922" fill="none" stroke="#000000" stroke-width="1.25"/>
	<path d="M 441.12302015915145,890.5386733532752 L 535.0044624726102,890.5386732649886" fill="none" stroke="#000000" stroke-width="1.25"/>
	<path d="M 554.2621942292171,870.0773335290368 L 579.5379671597638,870.0773334466257" fill="none" stroke="#000000" stroke-width="1.25"/>
	<path d="M 554.2621942292169,839.9871281122557 L 578.3343589249755,839.9871280312802" fill="none" stroke="#000000" stroke-width="1.25"/>
	<path d="M 538.6152871769739,849.6159938876685 L 610.8317812642499,849.6159936294342" fill="none" stroke="#000000" stroke-width="1.25"/>
	<path d="M 506.11786483769976,817.118572112515 L 541.0225036465497,817.118572038067" fill="none" stroke="#000000" stroke-width="1.25"/>
	<path d="M 502.507040133336,806.2860981731972 L 498.93730210057674,808.6415654751831 L 491.67456602024447,809.8969228356851" fill="none" stroke="#000000" stroke-width="1.25"/>
	<path d="M 494.08178248982034,797.8608406728707 L 498.808005990465,802.1989831917685 L 502.5070401333358,803.8788817411446" fill="none" stroke="#000000" stroke-width="1.25"/>
	<path d="M 503.7106483681239,794.2500160115967 L 503.7106483681239,799.0644488753505" fill="none" stroke="#000000" stroke-width="1.25"/>
	<path d="M 498.8962154289721,794.2500160187392 L 501.4709434540245,800.9361550986038 L 505.2257596850159,807.7631099190997 L 512.1359060116393,809.8969228055546" fill="none" stroke="#000000" stroke-width="1.25"/>
	<path d="M 507.3214730724876,793.0464077898378 L 505.1832716256484,801.5992134468441 L 510.93229777685116,797.8608406473435" fill="none" stroke="#000000" stroke-width="1.25"/>
	<path d="M 512.1359060116395,779.8067174070633 L 516.9503389507911,779.8067173977008" fill="none" stroke="#000000" stroke-width="1.25"/>
	<path d="M 492.8781742550324,759.3453777717443 L 569.9091012814599,759.3453775741403" fill="none" stroke="#000000" stroke-width="1.25"/>
	<path d="M 596.3884944828768,716.0154816939979 L 602.4065356568166,719.6263063095523" fill="none" stroke="#000000" stroke-width="1.25"/>
	<path d="M 601.2029274220287,713.6082652383224 L 608.4245768307565,716.015481630642" fill="none" stroke="#000000" stroke-width="1.25"/>
	<path d="M 608.424528686427,711.201048768526 L 612.0353533907905,716.0154816106271" fill="none" stroke="#000000" stroke-width="1.25"/>
	<path d="M 580.7415392863045,681.1108435318829 L 587.5948346477344,684.0619624565637 L 596.0608099120518,687.4082419965773 L 608.4245286864272,691.9433173227384" fill="none" stroke="#000000" stroke-width="1.25"/>
	<path d="M 577.1307145819405,672.6855860459193 L 577.3078246152579,680.9257561928937 L 571.1126734080009,687.128884649485" fill="none" stroke="#000000" stroke-width="1.25"/>
	<path d="M 568.7054569384252,682.3144518008095 L 573.5198898775767,681.1108435650744" fill="none" stroke="#000000" stroke-width="1.25"/>
	<path d="M 572.3162816427888,678.7036271410225 L 577.1307145819407,678.70362711925" fill="none" stroke="#000000" stroke-width="1.25"/>
	<path d="M 569.909065173213,678.7036271515805 L 578.3343228167286,679.9072353284074" fill="none" stroke="#000000" stroke-width="1.25"/>
	<path d="M 587.9631886950322,654.631462774878 L 589.4890834394142,658.4185517522699 L 584.3523639906682,659.445895651077" fill="none" stroke="#000000" stroke-width="1.25"/>
	<path d="M 587.963188695032,651.0206381317897 L 592.7776216341838,655.8350709637632" fill="none" stroke="#000000" stroke-width="1.25"/>
	<path d="M 592.7776216341838,649.817029891701 L 592.7776216341838,655.8350709637632" fill="none" stroke="#000000" stroke-width="1.25"/>
	<path d="M 597.5920545733354,649.8170298650135 L 596.2161727422321,658.7144850811911 L 601.573909563885,667.6495488112032 L 605.7569997701817,676.9064633654929 L 607.8910129998309,686.4973454307741 L 612.2821327884902,694.7327339758901 L 619.6342302792417,701.4670555949255 L 627.908720284343,707.271499686665 L 635.9015433197746,712.2760611229321 L 637.422925346848,702.7596602783965 L 637.3111263213374,693.1469253588107" fill="none" stroke="#000000" stroke-width="1.25"/>
	<path d="M 666.1977239562477,638.9845554477891 L 672.2157651301872,642.5953800418195" fill="none" stroke="#000000" stroke-width="1.25"/>
	<path d="M 675.8265898345511,637.7809471487429 L 672.0964337270398,646.4399246951697 L 669.3729512540835,654.0002943487187 L 663.2735076001193,661.0809620675918 L 655.3652498431564,665.4639362721166" fill="none" stroke="#000000" stroke-width="1.25"/>
	<path d="M 669.8085486606115,635.3737307712156 L 673.1762053842804,640.1675307489603 L 679.4374145389153,640.188163547131" fill="none" stroke="#000000" stroke-width="1.25"/>
	<path d="M 664.9941157214596,611.3015665149236 L 663.8574864289794,621.1437434801503 L 659.7760898746184,630.1129793044463 L 655.3652498431563,638.9845555375089" fill="none" stroke="#000000" stroke-width="1.25"/>
	<path d="M 640.921951025701,620.9304324306627 L 645.7363839648528,622.1340406075764" fill="none" stroke="#000000" stroke-width="1.25"/>
	<path d="M 650.5508169040045,616.115999496273 L 649.3472086692166,618.5232159351011" fill="none" stroke="#000000" stroke-width="1.25"/>
	<path d="M 658.9760745475198,608.89435013839 L 662.5868992518838,611.3015665361214" fill="none" stroke="#000000" stroke-width="1.25"/>
	<path d="M 662.5868992518839,606.4871336778126 L 665.931585112392,609.9345775038505 L 671.0121568953995,610.0979582460916" fill="none" stroke="#000000" stroke-width="1.25"/>
	<path d="M 666.1977239562477,606.4871336456569 L 666.1977239562477,610.0979582895549" fill="none" stroke="#000000" stroke-width="1.25"/>
	<path d="M 640.9219510257011,595.6546599327833 L 637.3111263213373,601.6727010312172" fill="none" stroke="#000000" stroke-width="1.25"/>
	<path d="M 636.1075180865494,604.0799174685868 L 634.8929113679881,622.5033143830781 L 634.7151551562793,632.9548509178605 L 634.7201901453973,642.3174556150907 L 634.6099876945127,661.1819432631097 L 634.877682760363,671.4626769077155 L 635.7916232382514,681.2249789833027 L 637.6760001035477,689.6888686559811 L 642.3315806623516,687.252297741856 L 647.7606585706067,679.4064699223666 L 652.3991482312221,670.7621233524287 L 655.4951781388538,661.7341311456639 L 656.4177777833123,652.3317745722352 L 655.3959391450177,642.8700534931662 L 652.783060354678,633.7667033640739 L 649.1556694876705,624.7250898490505 L 645.1717503775359,617.4903750058986 L 654.1616416083688,617.3196076810428" fill="none" stroke="#000000" stroke-width="1.25"/>
	<path d="M 636.1075180865494,593.2474435434632 L 637.9308664154285,600.4291736081954 L 644.5327757300648,598.0618763314147" fill="none" stroke="#000000" stroke-width="1.25"/>
	<path d="M 632.4966933821853,594.4510517853848 L 634.9039098517615,601.6727010499159" fill="none" stroke="#000000" stroke-width="1.25"/>
	<path d="M 627.6822604430338,598.0618764631402 L 634.9039098517615,602.8763092638778" fill="none" stroke="#000000" stroke-width="1.25"/>
	<path d="M 619.2570027995183,612.5051750898164 L 615.6461780951544,618.5232161842766" fill="none" stroke="#000000" stroke-width="1.25"/>
	<path d="M 607.2209204516388,619.7268244530959 L 609.6281369212148,618.5232162237938" fill="none" stroke="#000000" stroke-width="1.25"/>
	<path d="M 607.2209204516389,616.1159998114199 L 602.406487512487,617.3196080553928" fill="none" stroke="#000000" stroke-width="1.25"/>
	<path d="M 606.0173122168508,612.5051751776571 L 613.2389616255786,620.9304326282845" fill="none" stroke="#000000" stroke-width="1.25"/>
	<path d="M 610.8317451560026,611.3015669327579 L 613.2389616255787,616.1159997723456" fill="none" stroke="#000000" stroke-width="1.25"/>
	<path d="M 614.4425698603665,610.0979586949168 L 613.5808878401091,618.5119824045976 L 615.4322796362559,626.879730098204 L 620.0110496073726,633.1103757255873 L 627.2010057869971,639.6520466330907 L 633.7003016169733,643.7989885616197" fill="none" stroke="#000000" stroke-width="1.25"/>
	<path d="M 650.5508169040045,572.7860917542465 L 651.7544251387925,572.7860917435788" fill="none" stroke="#000000" stroke-width="1.25"/>
	<path d="M 608.4245286864267,541.4922785645224 L 614.594370685469,535.124460350161 L 622.126504839517,529.3064544945156 L 630.6546389844623,524.1909946699186 L 639.8124809561958,519.9308145493219 L 649.2337385906084,516.6786478065178 L 658.5521197235912,514.5872281162776 L 667.4013321910353,513.8092891543835" fill="none" stroke="#000000" stroke-width="1.25"/>
	<path d="M 671.0121568953995,488.53351666374726 L 673.8715131221543,496.7570183503016 L 676.9959546764189,505.6424138623746 L 680.1835379483874,514.9509846486478 L 683.2323193282548,524.4440121574303 L 685.9403552062153,533.8827778366721 L 688.1057019724628,543.0285631339955 L 689.6985947584815,552.4620649327856 L 690.6966018102142,561.9900340909397 L 691.1570672112515,571.4480695851693 L 691.1734050192641,580.8616072315576 L 690.8390292919228,590.2560828462729 L 690.2473540868983,599.6569322455708 L 689.491793461861,609.0895912458005 L 688.6657614744814,618.5794956634021 L 687.8626721824306,628.1520813149037" fill="none" stroke="#000000" stroke-width="1.25"/>
	<path d="M 581.9451475210925,563.157226555593 L 575.3511628210966,569.7907899078313 L 568.5414213756932,576.5733831345984 L 561.5176489931189,583.284453912602 L 554.2815714816098,589.7034499184726 L 546.8349146494022,595.609818828774 L 539.1603783691819,600.7606886209645 L 530.7291604251996,604.6590316979473 L 521.547106240052,607.4774990204332 L 511.94289571651916,609.6144485427651 L 502.24520875738096,611.4682382198339 L 492.78272526541735,613.4372260070752 L 483.88412514340854,615.9197698604685 L 475.59078579281544,619.4485264741053 L 467.55412358156053,624.3531898417339 L 459.8229882389554,630.2470366070175 L 452.42268218082893,636.7254020673361 L 445.37850782301024,643.3836215199105 L 438.71576758132835,649.8170302617657" fill="none" stroke="#000000" stroke-width="1.25"/>
	<path d="M 425.47607699866114,642.5953809682842 L 436.30855111175265,642.5953809787328" fill="none" stroke="#000000" stroke-width="1.25"/>
	<path d="M 426.6796852334491,628.1520824095816 L 447.14102522484404,628.1520824247505" fill="none" stroke="#000000" stroke-width="1.25"/>
	<path d="M 441.1229840509043,619.726824930707 L 459.17710757272323,619.726824934347" fill="none" stroke="#000000" stroke-width="1.25"/>
	<path d="M 449.5482416944198,612.5051756569663 L 470.0095816858147,612.5051756528509" fill="none" stroke="#000000" stroke-width="1.25"/>
	<path d="M 453.15906639878364,596.8582688942562 L 461.5843240422991,596.8582688933917" fill="none" stroke="#000000" stroke-width="1.25"/>
	<path d="M 445.9374169900561,589.6366196190394 L 455.5662828683594,589.6366196208318" fill="none" stroke="#000000" stroke-width="1.25"/>
	<path d="M 435.10494287696474,605.2835263731382 L 466.3987569814508,605.2835263788041" fill="none" stroke="#000000" stroke-width="1.25"/>
	<path d="M 484.4528805032698,587.2294031775274 L 484.4528805032699,588.4330113896633" fill="none" stroke="#000000" stroke-width="1.25"/>
	<path d="M 491.6745299119976,589.6366195913712 L 514.5430863729682,589.6366195431646" fill="none" stroke="#000000" stroke-width="1.25"/>
	<path d="M 524.1719522512717,589.6366195160115 L 528.9863851904233,589.6366195009114" fill="none" stroke="#000000" stroke-width="1.25"/>
	<path d="M 513.3394781381802,573.9897007531247 L 524.1719522512715,573.9897007219879" fill="none" stroke="#000000" stroke-width="1.25"/>
	<path d="M 543.4296840078784,567.9716595936666 L 544.6332922426665,567.9716595887811" fill="none" stroke="#000000" stroke-width="1.25"/>
	<path d="M 504.9142204946647,581.2113620812478 L 520.5611275469078,581.2113620410543" fill="none" stroke="#000000" stroke-width="1.25"/>
	<path d="M 507.32143696424055,596.858268835122 L 535.0044263643631,596.8582687558949" fill="none" stroke="#000000" stroke-width="1.25"/>
	<path d="M 556.6693745905458,622.1340411466832 L 561.4838075296974,626.9484739800747" fill="none" stroke="#000000" stroke-width="1.25"/>
	<path d="M 562.6874157644855,619.7268246936746 L 563.7899511748908,625.23950164328 L 567.5018487036372,622.1340410986589" fill="none" stroke="#000000" stroke-width="1.25"/>
	<path d="M 506.11782872945264,658.2422877120255 L 521.7647357816957,658.2422876760494" fill="none" stroke="#000000" stroke-width="1.25"/>
	<path d="M 520.5611275469078,693.1469258934127 L 518.5572635635102,701.3479637586281 L 523.1216009448491,708.523473000754 L 527.2286218068602,705.6193860271163 L 521.7647357816959,697.9613587490221" fill="none" stroke="#000000" stroke-width="1.25"/>
	<path d="M 490.4709216772097,712.4046573839667 L 495.0044094080667,721.654839515633 L 495.61439644591275,731.0948557647877 L 495.0238415449784,740.357882074247 L 497.95567649297857,744.0745534243899 L 505.68083950767294,738.4324887714539 L 521.7647357816957,728.0515641218416" fill="none" stroke="#000000" stroke-width="1.25"/>
	<path d="M 496.4889989593962,746.1056873975889 L 492.8781742550324,747.309295617797" fill="none" stroke="#000000" stroke-width="1.25"/>
	<path d="M 494.0817824898202,744.902079185612 L 488.5225366435824,752.8716347178565 L 486.1958492560806,762.5740608712332 L 488.4071779949582,772.5499989234027 L 494.94979578132353,778.092689446336 L 504.9142566029116,779.8067174196874" fill="none" stroke="#000000" stroke-width="1.25"/>
	<path d="M 476.02765896800133,787.028366747589 L 496.48899895939616,787.0283667269005" fill="none" stroke="#000000" stroke-width="1.25"/>
	<path d="M 466.39879308969785,809.8969228547585 L 472.4168342636375,809.8969228520364" fill="none" stroke="#000000" stroke-width="1.25"/>
	<path d="M 454.3627107418185,802.6752735608912 L 488.06374131588075,801.4716653276109" fill="none" stroke="#000000" stroke-width="1.25"/>
	<path d="M 449.54827780266663,849.6159939916342 L 503.71064836812394,849.6159939566445" fill="none" stroke="#000000" stroke-width="1.25"/>
	<path d="M 467.60240132448604,860.4484679378614 L 521.7647718899432,860.4484678745058" fill="none" stroke="#000000" stroke-width="1.25"/>
	<path d="M 459.17714368097046,880.9098076220317 L 495.2853907246083,880.909807598941" fill="none" stroke="#000000" stroke-width="1.25"/>
	<path d="M 424.27250487212035,813.5077474901676 L 418.2544636981804,815.9149639160324" fill="none" stroke="#000000" stroke-width="1.25"/>
	<path d="M 415.8472472286048,820.7293967777679 L 410.1637564860757,823.5996638511929 L 398.9967319415738,824.340221401621" fill="none" stroke="#000000" stroke-width="1.25"/>
	<path d="M 394.182299002422,831.5618706907009 L 406.21838135030157,831.5618707108459" fill="none" stroke="#000000" stroke-width="1.25"/>
	<path d="M 397.79312370678576,847.2087775102635 L 401.40394841114977,850.8196021656588" fill="none" stroke="#000000" stroke-width="1.25"/>
	<path d="M 398.9967319415738,853.2268185947249 L 395.3859072372102,856.8376432381244" fill="none" stroke="#000000" stroke-width="1.25"/>
	<path d="M 392.9786907676341,858.0412514503529 L 397.79312370678605,861.6520761085505" fill="none" stroke="#000000" stroke-width="1.25"/>
	<path d="M 396.58951547199797,852.0232103741185 L 392.9786907676341,855.6340350172378" fill="none" stroke="#000000" stroke-width="1.25"/>
	<path d="M 389.3678660632701,848.4123857112506 L 391.7750825328462,853.2268185819231" fill="none" stroke="#000000" stroke-width="1.25"/>
	<path d="M 392.9786907676341,846.0051692851982 L 392.41078622523236,854.8515795894801 L 386.9606495936946,861.6520760885838" fill="none" stroke="#000000" stroke-width="1.25"/>
	<path d="M 384.55343312411856,850.8196021344907 L 390.5714742980583,855.6340350127252" fill="none" stroke="#000000" stroke-width="1.25"/>
	<path d="M 366.4993096022997,876.0953746423567 L 366.4993096022995,877.2989828591616" fill="none" stroke="#000000" stroke-width="1.25"/>
	<path d="M 352.0560107848445,877.2989828192224 L 360.48126842835995,877.2989828432527" fill="none" stroke="#000000" stroke-width="1.25"/>
	<path d="M 337.6127119673893,865.2629006043948 L 330.3910625586616,868.8737252294588" fill="none" stroke="#000000" stroke-width="1.25"/>
	<path d="M 329.1874543238737,873.688158092778 L 323.98579774703427,876.4626390051699 L 313.54055208606326,877.2989826832559" fill="none" stroke="#000000" stroke-width="1.25"/>
	<path d="M 320.7622014947912,865.262900542266 L 329.18745432387385,871.2809416589014" fill="none" stroke="#000000" stroke-width="1.25"/>
	<path d="M 330.3910625586615,861.6520759281995 L 331.52068380326796,867.3001820712474 L 334.0018872630254,862.8556841580851" fill="none" stroke="#000000" stroke-width="1.25"/>
	<path d="M 324.37302619915516,861.6520759055941 L 328.79409616739616,870.1389248809026 L 335.28674168483275,876.6544478395227 L 344.83436137611676,877.298982796993" fill="none" stroke="#000000" stroke-width="1.25"/>
	<path d="M 341.22353667175287,854.4304266656186 L 379.739000184967,854.4304267737119" fill="none" stroke="#000000" stroke-width="1.25"/>
	<path d="M 361.68487666314803,831.5618706142077 L 372.51735077623925,831.5618706432896" fill="none" stroke="#000000" stroke-width="1.25"/>
	<path d="M 358.0740519587839,817.1185720070432 L 379.739000184967,817.1185720650611" fill="none" stroke="#000000" stroke-width="1.25"/>
	<path d="M 372.51735077623914,806.2860981014971 L 363.93635997470045,809.7418403561622 L 354.5799580325263,809.8639758788563 L 345.22297399419944,809.896922667631 L 317.1513767904274,809.8969225585157" fill="none" stroke="#000000" stroke-width="1.25"/>
	<path d="M 312.3369438512756,815.9149636200382 L 313.47153456647555,822.7225078133594 L 315.9477685556396,817.1185718524359" fill="none" stroke="#000000" stroke-width="1.25"/>
	<path d="M 319.55859326000297,820.7293965175041 L 314.07026916037006,825.8961150682793 L 307.44841742147446,829.1683108729629 L 300.3008615033961,831.5618703817149" fill="none" stroke="#000000" stroke-width="1.25"/>
	<path d="M 312.3369438512756,827.9510457862915 L 315.32169969623214,830.1110456183824 L 321.965809729579,831.5618704769124" fill="none" stroke="#000000" stroke-width="1.25"/>
	<path d="M 327.9838509035187,824.340221201332 L 370.1101343066635,824.3402213389005" fill="none" stroke="#000000" stroke-width="1.25"/>
	<path d="M 378.53539195017856,800.2680570361035 L 374.92456724581507,803.8788816754113" fill="none" stroke="#000000" stroke-width="1.25"/>
	<path d="M 376.12817548060326,799.0644488140929 L 372.51735077623925,802.6752734531015" fill="none" stroke="#000000" stroke-width="1.25"/>
	<path d="M 372.51735077623925,794.2500159406183 L 371.3137425414513,802.6752734499324" fill="none" stroke="#000000" stroke-width="1.25"/>
	<path d="M 367.7029178370874,794.2500159275236 L 371.9311500546169,802.8570906498935 L 378.59650691707805,809.2505269487941 L 388.1642578284824,809.8969227866783" fill="none" stroke="#000000" stroke-width="1.25"/>
	<path d="M 376.12817548060303,794.2500159499517 L 380.9426084197547,797.8608406097777" fill="none" stroke="#000000" stroke-width="1.25"/>
	<path d="M 386.9606495936943,787.0283666798682 L 449.54827780266675,787.0283667542594" fill="none" stroke="#000000" stroke-width="1.25"/>
	<path d="M 423.0688966373324,759.3453777787146 L 463.991576620122,759.3453777944758" fill="none" stroke="#000000" stroke-width="1.25"/>
	<path d="M 423.0689086734146,735.2732134726751 L 419.089510412356,744.1853571689824 L 415.9396018058956,753.186358927676 L 417.82026871588033,762.7292648391057 L 424.2130025128481,771.5452721037587 L 431.40937456259235,777.1295208344619 L 439.3905612671121,779.3754343201887 L 449.56297161916586,779.8048801037559 L 459.40952258125157,780.3336028045328 L 470.58206068422396,780.5983216375697 L 477.99016945540706,776.9364518344253 L 476.04984386854267,767.5661463009593 L 472.3257615192343,759.0083817568272 L 469.4104705119982,749.1892293254562 L 472.4168462997198,740.0876463457123" fill="none" stroke="#000000" stroke-width="1.25"/>
	<path d="M 482.0456640336939,688.3324931015785 L 484.4528805032699,688.3324930990476" fill="none" stroke="#000000" stroke-width="1.25"/>
	<path d="M 463.991540511875,685.9252766849941 L 472.7787864082898,687.5911356916722 L 481.1966708330828,690.0836509044539 L 502.50700402508886,706.3866162920947" fill="none" stroke="#000000" stroke-width="1.25"/>
	<path d="M 471.21318992060264,665.4639370411445 L 509.7286534338164,665.4639369884593" fill="none" stroke="#000000" stroke-width="1.25"/>
	<path d="M 467.60236521623887,658.2422877598941 L 483.2492722684819,658.2422877474266" fill="none" stroke="#000000" stroke-width="1.25"/>
	<path d="M 448.34463345963184,665.463937045359 L 459.17710757272323,665.4639370458767" fill="none" stroke="#000000" stroke-width="1.25"/>
	<path d="M 425.4760769986612,658.2422877459904 L 455.5662828683596,658.2422877629856" fill="none" stroke="#000000" stroke-width="1.25"/>
	<path d="M 423.0688605290853,665.4639370265534 L 441.12298405090417,665.4639370425" fill="none" stroke="#000000" stroke-width="1.25"/>
	<path d="M 418.2544275899335,673.8891945186779 L 456.76989110314736,673.8891945443114" fill="none" stroke="#000000" stroke-width="1.25"/>
	<path d="M 426.6796852334491,691.9433177435349 L 429.4442989589894,701.4099090508325 L 427.51858731142636,709.8479183013026 L 422.4964231733054,717.8173530889047 L 420.312825048421,726.7759228785445 L 425.0092326542251,734.9287747732131 L 432.4018831844423,740.702794096949 L 441.1191787234215,744.3116606637593 L 450.30256345918366,744.627047015006 L 459.28075553071767,741.1727863981627 L 468.33529828630753,739.1434552849222 L 474.1225790276456,731.5281437215456 L 472.5762415960683,722.606900013509 L 466.70496219098476,722.0046993808038 L 456.7908004049371,725.1499937081354 L 448.90864264602163,726.7723661236413 L 442.39530654643346,724.6574719634303 L 432.6977264073885,726.847955976316" fill="none" stroke="#000000" stroke-width="1.25"/>
	<path d="M 419.458083969051,729.255172392937 L 414.0202660589073,736.9461215166082 L 408.57119692859123,745.4560156531826 L 406.2114211554224,754.0628906148937 L 407.8374624646661,763.4378689683696 L 412.0925020887717,771.8582509151422 L 413.63147003094195,778.494654412564 L 405.12971349126434,778.5620681924728 L 400.0106418501871,769.5916513217303 L 400.25082085425674,760.0323448859917 L 403.81117691680754,752.1237284590817" fill="none" stroke="#000000" stroke-width="1.25"/>
	<path d="M 409.8292180907474,731.6623888095228 L 405.8089183423574,735.6098777112499 L 400.20035221244416,738.884038083897" fill="none" stroke="#000000" stroke-width="1.25"/>
	<path d="M 389.3678780993526,724.4407394791509 L 386.61746973189895,731.7751616661625 L 388.1642698645648,729.2551723368217" fill="none" stroke="#000000" stroke-width="1.25"/>
	<path d="M 391.7750464245991,701.5721834015362 L 394.18226289417504,719.6263066297801" fill="none" stroke="#000000" stroke-width="1.25"/>
	<path d="M 388.1642217202353,700.3685751782432 L 387.18518033598355,713.8039099274267 L 388.22779667468416,721.1552679141151 L 392.31505012384696,721.4935193653338 L 396.1474958487378,726.0499135621027 L 393.8038748660613,734.6796182639911 L 390.322641703062,743.9783498154331 L 390.3278160789816,752.7746445345803 L 392.07759152078756,763.5030899479264 L 392.1087005971924,773.5600421981453 L 386.9226148958432,779.4984386494882 L 377.33174760714405,779.8067173618655" fill="none" stroke="#000000" stroke-width="1.25"/>
	<path d="M 354.46322725442,779.806717295317 L 362.88848489793577,779.806717321822" fill="none" stroke="#000000" stroke-width="1.25"/>
	<path d="M 362.88848489793577,797.8608405619443 L 370.1101343066635,803.878881662847" fill="none" stroke="#000000" stroke-width="1.25"/>
	<path d="M 336.40910373260124,802.6752733380638 L 354.4632272544203,802.6752734007471" fill="none" stroke="#000000" stroke-width="1.25"/>
	<path d="M 334.0018872630252,785.824758301813 L 334.0018872630255,787.0283665179544" fill="none" stroke="#000000" stroke-width="1.25"/>
	<path d="M 324.37302619915494,768.9742432370451 L 318.43561135571554,771.6389714326723 L 310.82266326794485,772.6467993846516 L 301.2587369435663,772.7210553823825 L 289.4683873903049,772.5850677147018" fill="none" stroke="#000000" stroke-width="1.25"/>
	<path d="M 279.8395215120014,771.381459444194 L 281.0431297467894,771.3814594511339" fill="none" stroke="#000000" stroke-width="1.25"/>
	<path d="M 285.857562685941,785.8247580755329 L 290.41627530284626,794.0304406859083 L 287.47725799165966,799.253158306055 L 280.2347554195301,800.2543165227846 L 267.8034391641221,802.6752730056654" fill="none" stroke="#000000" stroke-width="1.25"/>
	<path d="M 277.4323050424256,809.8969223618603 L 291.8756038598808,809.8969224391017" fill="none" stroke="#000000" stroke-width="1.25"/>
	<path d="M 290.6719956250929,797.8608402666705 L 293.77151701974674,799.914633712689 L 300.30086150339633,802.6752731817104" fill="none" stroke="#000000" stroke-width="1.25"/>
	<path d="M 307.5225109121238,801.4716649998079 L 318.35498502521534,801.4716650486497" fill="none" stroke="#000000" stroke-width="1.25"/>
	<path d="M 307.52251091212395,815.9149635982799 L 309.660712358963,824.4677692663465 L 303.9116862077602,820.7293964480964" fill="none" stroke="#000000" stroke-width="1.25"/>
	<path d="M 313.5405520860635,823.136612924941 L 311.13333561648767,825.5438293476495" fill="none" stroke="#000000" stroke-width="1.25"/>
	<path d="M 283.4503462163651,843.5979524674148 L 313.54055208606354,843.5979526091124" fill="none" stroke="#000000" stroke-width="1.25"/>
	<path d="M 276.2286968076378,831.5618702591264 L 282.24673798157704,831.5618702914328" fill="none" stroke="#000000" stroke-width="1.25"/>
	<path d="M 262.98900622497035,824.3402208817887 L 295.4864285642444,824.3402210578354" fill="none" stroke="#000000" stroke-width="1.25"/>
	<path d="M 296.69003679903255,793.0464074316357 L 293.07921209466843,796.6572320626481" fill="none" stroke="#000000" stroke-width="1.25"/>
	<path d="M 294.2828203294566,787.0283663369838 L 294.2828203294564,791.8427992028245" fill="none" stroke="#000000" stroke-width="1.25"/>
	<path d="M 290.6719956250928,785.82475810154 L 290.7045260642139,795.4350350116514 L 299.09725326860826,790.6391910108832" fill="none" stroke="#000000" stroke-width="1.25"/>
	<path d="M 305.1152944425481,787.0283663914003 L 326.78024266873064,787.0283664888461" fill="none" stroke="#000000" stroke-width="1.25"/>
	<path d="M 332.7982790282373,760.5489857609639 L 326.78024266873047,765.3634185994307" fill="none" stroke="#000000" stroke-width="1.25"/>
	<path d="M 329.1874543238738,756.9381610983542 L 324.77731659936677,764.6559096939931 L 320.7622014947911,758.1417692773592" fill="none" stroke="#000000" stroke-width="1.25"/>
	<path d="M 324.37302619915494,755.7345528616838 L 324.50017340076664,762.5968968202002 L 327.6364133334981,768.0614549186038 L 332.7982790282375,772.5850679202798" fill="none" stroke="#000000" stroke-width="1.25"/>
	<path d="M 315.94776855563947,760.5489856871735 L 321.965809729579,765.3634185784863" fill="none" stroke="#000000" stroke-width="1.25"/>
	<path d="M 318.35499706129747,737.6804295974956 L 314.7441723569337,743.6984706589903" fill="none" stroke="#000000" stroke-width="1.25"/>
	<path d="M 311.13334765256985,734.0696049152469 L 321.9658217656613,738.884037830019" fill="none" stroke="#000000" stroke-width="1.25"/>
	<path d="M 334.0018992991077,736.4768214516952 L 336.4091157686837,738.8840378928065" fill="none" stroke="#000000" stroke-width="1.25"/>
	<path d="M 338.8163322382594,736.4768214714903 L 344.6678662489985,738.8265340384628 L 348.4451981165626,736.4768215086698" fill="none" stroke="#000000" stroke-width="1.25"/>
	<path d="M 342.4271569426233,732.8659968393814 L 342.42715694262324,736.4768214858094" fill="none" stroke="#000000" stroke-width="1.25"/>
	<path d="M 337.61272400347156,732.86599682009 L 340.4270846649308,740.0246923403064 L 346.037981646987,732.8659968533198" fill="none" stroke="#000000" stroke-width="1.25"/>
	<path d="M 342.4271569426232,742.4948625635042 L 342.38550761472686,750.9099286548397 L 342.9260399290435,759.8982498828476 L 343.03328922102537,770.2242611156623 L 340.53917069782364,777.8344346201353 L 332.3158310306469,780.1927391345554 L 323.1694179643667,779.8067171765733" fill="none" stroke="#000000" stroke-width="1.25"/>
	<path d="M 348.4451860804805,752.1237283109741 L 351.53978960711254,758.3968233844923 L 353.5196074254085,767.5641681799758 L 351.7586063364522,775.9320402782769 L 343.63075314132885,779.8067172578329" fill="none" stroke="#000000" stroke-width="1.25"/>
	<path d="M 358.074051958784,759.3453776381001 L 383.3498248893307,759.345377709639" fill="none" stroke="#000000" stroke-width="1.25"/>
	<path d="M 353.25961901963234,749.7165118967456 L 356.870443723996,752.1237283402191" fill="none" stroke="#000000" stroke-width="1.25"/>
	<path d="M 358.0740639948663,731.6623886811549 L 354.4632392905026,735.2732133148594" fill="none" stroke="#000000" stroke-width="1.25"/>
	<path d="M 341.2235487078352,719.6263064655574 L 341.22354870783533,724.4407393268089" fill="none" stroke="#000000" stroke-width="1.25"/>
	<path d="M 338.81628409393016,699.1649667981987 L 340.0198923287181,699.1649668032923" fill="none" stroke="#000000" stroke-width="1.25"/>
	<path d="M 311.1332995082408,708.7938323888418 L 320.9060906837844,711.1389483377342 L 330.74033677515973,711.993621173957 L 339.17023813583376,717.0019033016844 L 349.19867940800214,721.0065420358688 L 356.355736709782,725.3113199655664 L 361.9069112839705,731.4444069144615 L 371.03692233531984,732.442490228839 L 378.41564168566913,739.9434450798021 L 379.7389640767198,749.7165119764944" fill="none" stroke="#000000" stroke-width="1.25"/>
	<path d="M 402.6075566459375,794.2500160056335 L 415.84724722860483,794.25001602505" fill="none" stroke="#000000" stroke-width="1.25"/>
	<path d="M 417.0508554633929,808.6933146181415 L 418.18047670799916,814.3414207546716 L 420.6616801677565,809.8969228382892" fill="none" stroke="#000000" stroke-width="1.25"/>
	<path d="M 412.2364225242411,809.8969228280922 L 415.75143810338403,818.5150614145803 L 423.06889663733256,824.340221434242" fill="none" stroke="#000000" stroke-width="1.25"/>
	<path d="M 408.6255978198771,813.5077474713182 L 414.64363899381675,818.3221803439668" fill="none" stroke="#000000" stroke-width="1.25"/>
	<path d="M 344.8343613761168,911.0000128735976 L 417.0508554633928,911.0000130221661" fill="none" stroke="#000000" stroke-width="1.25"/>
	<path d="M 335.2054954978134,911.0000128428425 L 336.40910373260107,911.0000128468276" fill="none" stroke="#000000" stroke-width="1.25"/>
	<path d="M 282.2467379815772,790.6391909217417 L 288.2647791555168,795.4536238208069" fill="none" stroke="#000000" stroke-width="1.25"/>
	<path d="M 250.9529238770909,787.0283660813617 L 273.821480338062,787.0283662238411" fill="none" stroke="#000000" stroke-width="1.25"/>
	<path d="M 269.0070473989098,750.9201197005583 L 277.4323050424255,749.7165115363762" fill="none" stroke="#000000" stroke-width="1.25"/>
	<path d="M 283.45035825244753,735.2732129793351 L 275.95282489663504,728.0164093620525 L 275.88912370791854,720.0609219199512 L 284.65396648723555,714.8118733170952" fill="none" stroke="#000000" stroke-width="1.25"/>
	<path d="M 297.8936570699027,723.2371309040957 L 297.17757028097884,731.3401334249327 L 296.1884395786502,741.6053816391614 L 296.6649594595789,751.5439067268226 L 300.66612124887286,758.6324980936063 L 309.92973941778223,759.3453774424876" fill="none" stroke="#000000" stroke-width="1.25"/>
	<path d="M 256.97097708711306,750.9201196220436 L 258.76829227634045,740.7165140401672 L 264.19490621899354,733.8014496470416 L 272.6178841393562,730.4587800484811" fill="none" stroke="#000000" stroke-width="1.25"/>
	<path d="M 242.52766623357536,759.3453770378707 L 296.6900367990324,759.345377375049" fill="none" stroke="#000000" stroke-width="1.25"/>
	<path d="M 228.08436741612007,759.3453769313198 L 236.29584379817044,758.3194384527825 L 243.29038087326117,754.5726895056297 L 255.76735681624262,743.6984703154266" fill="none" stroke="#000000" stroke-width="1.25"/>
	<path d="M 264.1925783515111,678.7036267133482 L 284.653918342906,695.5541418676448" fill="none" stroke="#000000" stroke-width="1.25"/>
	<path d="M 291.87556775163364,661.8531118884649 L 290.110052818915,670.0727906212687 L 288.4690413985967,680.1240159537375 L 287.5192894743461,690.688562596487 L 288.09735386292317,700.843811421285 L 291.32326335631467,710.5549842922823 L 295.70930185725524,719.2286946839407 L 300.26169123650686,719.4994010809942 L 304.7726385434516,710.5132698693149 L 309.0115174945024,701.2727038925107 L 313.5405159778164,693.1469256031496" fill="none" stroke="#000000" stroke-width="1.25"/>
	<path d="M 330.39102645041453,646.2062053174486 L 324.1250896350849,651.9188978451531 L 317.3888850584196,659.1219965121752 L 311.2441449949287,666.4855243961287 L 308.6790788506207,675.7431826505106 L 309.9758343801523,685.3958234768248 L 312.54851275993866,692.9973624638652 L 318.7769896993895,687.9694049141303 L 326.1721494495011,681.2215864990774 L 333.85214163311525,673.8303244090621 L 340.9351158730744,666.8720358346137 L 347.00461848493217,660.9868372895786 L 353.94070807263046,655.055344919998 L 353.2595829113853,646.2062054203917" fill="none" stroke="#000000" stroke-width="1.25"/>
	<path d="M 358.0740158505371,646.2062054394135 L 357.5472324147187,653.755521624026 L 364.0920570244766,658.2422876018006" fill="none" stroke="#000000" stroke-width="1.25"/>
	<path d="M 355.6667993809611,654.6314629281356 L 364.0920570244767,653.4278547455532" fill="none" stroke="#000000" stroke-width="1.25"/>
	<path d="M 361.6848405549008,648.6134218808991 L 355.6667993809611,654.6314629281356" fill="none" stroke="#000000" stroke-width="1.25"/>
	<path d="M 372.5173146679921,651.0206383463973 L 407.4219534768421,651.0206384359774" fill="none" stroke="#000000" stroke-width="1.25"/>
	<path d="M 414.6436028855698,651.0206384485083 L 430.2905099378129,651.0206384685978" fill="none" stroke="#000000" stroke-width="1.25"/>
	<path d="M 415.8472111203577,635.3737316743453 L 438.7157675813284,635.3737317000114" fill="none" stroke="#000000" stroke-width="1.25"/>
	<path d="M 413.43999465078184,619.7268248988091 L 436.30855111175265,619.726824927448" fill="none" stroke="#000000" stroke-width="1.25"/>
	<path d="M 411.03277818120586,612.5051756169113 L 441.12298405090434,612.5051756535394" fill="none" stroke="#000000" stroke-width="1.25"/>
	<path d="M 411.032778181206,605.283526340379 L 424.2724687638733,605.2835263614528" fill="none" stroke="#000000" stroke-width="1.25"/>
	<path d="M 409.82916994641795,596.8582688501995 L 421.86525229429736,596.8582688705836" fill="none" stroke="#000000" stroke-width="1.25"/>
	<path d="M 411.03277818120586,589.636619578487 L 436.3085511117525,589.6366196131846" fill="none" stroke="#000000" stroke-width="1.25"/>
	<path d="M 429.086901703025,582.4149703336834 L 450.75184992920776,582.4149703481876" fill="none" stroke="#000000" stroke-width="1.25"/>
	<path d="M 429.086901703025,567.9716597566186 L 425.47607699866114,572.786092598494" fill="none" stroke="#000000" stroke-width="1.25"/>
	<path d="M 426.6796852334491,571.5824843884037 L 434.6293145932482,572.7864948511734 L 444.56336983724793,572.7581167943721 L 454.16744366701244,575.9388095067682 L 460.3358501128009,582.1465997820926 L 465.8587959234467,590.2952175050697 L 471.00111040406085,598.902712498751 L 476.02762285975456,606.4871345847622" fill="none" stroke="#000000" stroke-width="1.25"/>
	<path d="M 491.6745299119974,596.8582688652393 L 501.303395790301,596.8582688479588" fill="none" stroke="#000000" stroke-width="1.25"/>
	<path d="M 495.2853546163613,604.0799181343564 L 510.93226166860444,604.0799181022071" fill="none" stroke="#000000" stroke-width="1.25"/>
	<path d="M 490.4709216772096,581.2113621086816 L 497.6925710859372,581.2113620961248" fill="none" stroke="#000000" stroke-width="1.25"/>
	<path d="M 488.0637052076337,573.9897008052037 L 497.6925710859372,573.9897007887603" fill="none" stroke="#000000" stroke-width="1.25"/>
	<path d="M 486.86009697284567,566.7680515372653 L 518.1539110773319,566.7680514693325" fill="none" stroke="#000000" stroke-width="1.25"/>
	<path d="M 501.30339579030095,558.3427940315125 L 514.5430863729682,558.3427939989815" fill="none" stroke="#000000" stroke-width="1.25"/>
	<path d="M 496.48896285114915,551.1211447744982 L 512.1358699033923,551.1211447381762" fill="none" stroke="#000000" stroke-width="1.25"/>
	<path d="M 500.09978755551293,543.8994955017308 L 508.5250451990285,543.8994954818966" fill="none" stroke="#000000" stroke-width="1.25"/>
	<path d="M 497.69257108593723,535.4742380325579 L 502.5070040250888,535.4742380220184" fill="none" stroke="#000000" stroke-width="1.25"/>
	<path d="M 478.43483932933015,543.8994955371729 L 484.4528805032698,543.8994955295757" fill="none" stroke="#000000" stroke-width="1.25"/>
	<path d="M 480.8420557989061,551.1211447992952 L 491.6745299119976,551.1211447833555" fill="none" stroke="#000000" stroke-width="1.25"/>
	<path d="M 483.24927226848195,558.3427940627577 L 490.4709216772096,558.3427940520755" fill="none" stroke="#000000" stroke-width="1.25"/>
	<path d="M 476.02762285975433,535.4742380660628 L 491.6745299119974,535.4742380441502" fill="none" stroke="#000000" stroke-width="1.25"/>
	<path d="M 473.62040639017846,528.2525888070885 L 478.43483932933015,528.2525888021028" fill="none" stroke="#000000" stroke-width="1.25"/>
	<path d="M 470.0095816858147,521.0309395505892 L 479.63844756411817,521.0309395410495" fill="none" stroke="#000000" stroke-width="1.25"/>
	<path d="M 467.6023652162387,512.6056820852034 L 479.63844756411817,512.6056820738058" fill="none" stroke="#000000" stroke-width="1.25"/>
	<path d="M 473.62040639017846,505.3840328249767 L 479.63844756411817,505.38403281825595" fill="none" stroke="#000000" stroke-width="1.25"/>
	<path d="M 478.4348393293302,498.16238356624467 L 479.63844756411817,498.1623835647277" fill="none" stroke="#000000" stroke-width="1.25"/>
	<path d="M 473.62040639017846,489.7371261119122 L 478.4348393293302,489.73712610650597" fill="none" stroke="#000000" stroke-width="1.25"/>
	<path d="M 462.7879322770872,498.1623835790527 L 473.62040639017846,498.1623835715528" fill="none" stroke="#000000" stroke-width="1.25"/>
	<path d="M 465.19514874666294,505.3840328312443 L 468.80597345102683,505.384032829007" fill="none" stroke="#000000" stroke-width="1.25"/>
	<path d="M 460.3807158075113,489.7371261203966 L 463.991540511875,489.73712611901095" fill="none" stroke="#000000" stroke-width="1.25"/>
	<path d="M 457.9734993379354,482.5154768723784 L 477.2312310945423,482.5154768592101" fill="none" stroke="#000000" stroke-width="1.25"/>
	<path d="M 484.4528805032698,466.86857376210014 L 484.4528805032698,506.27255430450606 L 484.0757901602409,515.8545416395756 L 485.19384980326583,525.4924598423949 L 493.01666071167756,528.7408812258027 L 503.8307858789932,528.2896850160126 L 511.3728222995693,533.0107708218789 L 515.9863424439329,542.1834372099144 L 520.1323491412729,550.7997892928374 L 524.6140120634918,559.4642754827518 L 529.0897979177305,568.1812598198205 L 533.4066828069069,577.01401027885 L 537.4116428339387,586.0257948347877" fill="none" stroke="#000000" stroke-width="1.25"/>
	<path d="M 425.4760769986612,565.5644433290668 L 424.2724687638733,570.3788761735527" fill="none" stroke="#000000" stroke-width="1.25"/>
	<path d="M 411.0327781812061,582.4149703056797 L 419.45803582472155,582.4149703205488" fill="none" stroke="#000000" stroke-width="1.25"/>
	<path d="M 406.2183452420542,573.9897007762044 L 406.72953984751524,582.0506303175291 L 407.4824808667957,592.131928579462 L 407.30620410424183,602.0551699088952 L 405.02974536419975,609.6419286508745 L 397.602350655065,612.8605413983659 L 387.8671277549911,612.4711192308645 L 380.2767011719105,615.3748327048429 L 375.3043082647592,622.6791820982335 L 371.64566059912346,631.830649728898 L 368.9064899636285,640.188164409966" fill="none" stroke="#000000" stroke-width="1.25"/>
	<path d="M 376.12813937235603,642.5953808612738 L 396.5894793637508,642.5953809174683" fill="none" stroke="#000000" stroke-width="1.25"/>
	<path d="M 403.81112877247847,642.5953809333021 L 415.84721112035777,642.5953809550551" fill="none" stroke="#000000" stroke-width="1.25"/>
	<path d="M 405.0147370072664,658.242287714259 L 417.0508193551457,658.2422877349024" fill="none" stroke="#000000" stroke-width="1.25"/>
	<path d="M 376.12813937235603,658.242287641658 L 397.7930875985388,658.2422876991603" fill="none" stroke="#000000" stroke-width="1.25"/>
	<path d="M 379.73896407671975,635.373731590707 L 402.60752053769056,635.3737316498076" fill="none" stroke="#000000" stroke-width="1.25"/>
	<path d="M 382.1461805462956,628.1520823172575 L 394.182262894175,628.1520823502249" fill="none" stroke="#000000" stroke-width="1.25"/>
	<path d="M 384.55339701587155,619.7268248315595 L 407.42195347684225,619.7268248876592" fill="none" stroke="#000000" stroke-width="1.25"/>
	<path d="M 338.81628409393005,642.5953807156777 L 332.15962984268884,647.0331501084329 L 338.81628409393005,648.613421785992" fill="none" stroke="#000000" stroke-width="1.25"/>
	<path d="M 331.59463468520244,636.5773396110077 L 330.39102645041453,642.5953806750923" fill="none" stroke="#000000" stroke-width="1.25"/>
	<path d="M 326.78020656048363,636.5773395865309 L 329.1237859885661,645.9516758981966 L 335.2054593895663,638.9845560566299" fill="none" stroke="#000000" stroke-width="1.25"/>
	<path d="M 321.96577362133206,624.5412574218507 L 323.16938185611986,624.541257428423" fill="none" stroke="#000000" stroke-width="1.25"/>
	<path d="M 321.9657736213319,622.1340409943007 L 319.5585571517562,624.5412574085273" fill="none" stroke="#000000" stroke-width="1.25"/>
	<path d="M 320.7621653865439,616.1159999191552 L 322.05970989314073,620.7425602407536 L 324.37299009090776,616.1159999391566" fill="none" stroke="#000000" stroke-width="1.25"/>
	<path d="M 329.1874182156265,618.523216392104 L 323.625164125196,624.08547480515 L 330.39102645041453,624.5412574666018" fill="none" stroke="#000000" stroke-width="1.25"/>
	<path d="M 296.6900006907854,611.3015669163404 L 295.4480799556085,620.2965750593145 L 294.7000359036935,628.9368295767817 L 293.55316850723307,639.975967454257 L 292.68570754325106,650.8806434837146 L 292.7758827887713,659.1175124552148 L 296.5187971187732,656.5926574924396 L 302.9527953430521,648.7554494730695 L 309.6311979415171,640.4118494843235 L 314.9665499222661,633.4935004499846 L 318.4324879861222,625.1735558421573 L 315.94773244739235,616.1159998916382" fill="none" stroke="#000000" stroke-width="1.25"/>
	<path d="M 296.6900006907854,600.4690929929318 L 298.1202339751202,606.1094256615154 L 301.5044336299372,600.4690930251926" fill="none" stroke="#000000" stroke-width="1.25"/>
	<path d="M 293.07917598642166,601.6727011817391 L 296.5071620683491,607.4723129596124 L 303.91165009951317,605.2835258951244" fill="none" stroke="#000000" stroke-width="1.25"/>
	<path d="M 288.26474304726986,604.0799175753442 L 292.2756095161198,607.8326145540734 L 297.8936089255732,606.4871340692964" fill="none" stroke="#000000" stroke-width="1.25"/>
	<path d="M 291.87556775163364,583.6185779711919 L 296.6900006907854,583.6185780054664" fill="none" stroke="#000000" stroke-width="1.25"/>
	<path d="M 294.2827842212096,567.9716591831088 L 301.02279508401955,570.5904213906311 L 306.1784081627741,575.9247376880821 L 308.7260830386648,583.6185780866609" fill="none" stroke="#000000" stroke-width="1.25"/>
	<path d="M 321.9657736213319,561.9536183069412 L 321.9657736213319,563.1572265191786" fill="none" stroke="#000000" stroke-width="1.25"/>
	<path d="M 336.4090676243542,569.175267663557 L 355.6667993809611,569.1752677590099" fill="none" stroke="#000000" stroke-width="1.25"/>
	<path d="M 344.8343252678697,573.9897005562636 L 348.44514997223354,573.9897005739039" fill="none" stroke="#000000" stroke-width="1.25"/>
	<path d="M 344.8343252678697,560.7500102232563 L 353.7791389900835,563.1773722942087 L 362.32171961674544,566.549070377993 L 370.11009819841644,583.6185784009365" fill="none" stroke="#000000" stroke-width="1.25"/>
	<path d="M 346.0379335026577,553.5283609587772 L 347.14046891306305,559.0410379107614 L 350.8523664418094,555.9355774060748" fill="none" stroke="#000000" stroke-width="1.25"/>
	<path d="M 340.0198923287179,555.9355773507191 L 344.27715318484127,561.0427579788834 L 339.06077344290685,562.7615825848122 L 329.1874182156265,563.157226562178" fill="none" stroke="#000000" stroke-width="1.25"/>
	<path d="M 303.91165009951294,546.3067114293451 L 308.7260830386646,546.3067114633578" fill="none" stroke="#000000" stroke-width="1.25"/>
	<path d="M 277.4322689341784,554.7319687109612 L 285.47534797536764,557.4530541271188 L 291.10076590218785,563.5784811587652 L 293.0791759864217,572.7860920258483" fill="none" stroke="#000000" stroke-width="1.25"/>
	<path d="M 272.61783599502667,571.5824836533845 L 278.6358771689664,571.5824837022697" fill="none" stroke="#000000" stroke-width="1.25"/>
	<path d="M 261.7853618819353,583.6185777337136 L 269.0070112906629,583.6185777943659" fill="none" stroke="#000000" stroke-width="1.25"/>
	<path d="M 252.15649600363182,554.7319684862127 L 255.76732070799565,554.7319685201483" fill="none" stroke="#000000" stroke-width="1.25"/>
	<path d="M 258.17453717757155,540.2886699872051 L 255.76732070799565,543.8994946027983" fill="none" stroke="#000000" stroke-width="1.25"/>
	<path d="M 246.13845482969228,523.4381548910978 L 248.65808611934503,513.9300838491131 L 251.75277806176027,504.5648503420622 L 255.36988286457833,495.36326864929396 L 259.4567527354399,486.34615305006974 L 263.96073988198594,477.53431782356705 L 268.82919651185676,468.9485772488833 L 274.0094748326933,460.6097456050427 L 279.4723025870103,452.5386115511415 L 285.3027521116543,444.7188979896984 L 291.49963385279204,437.1537485186538 L 298.0453847376574,429.8546721307655 L 304.92244169348487,422.83317781870784 L 312.1132416475089,416.10077457507475 L 319.60022152696354,409.6689713923801 L 327.3658182590832,403.54927726306346 L 335.39246877110224,397.753201179494 L 343.66260999025496,392.2922521339795 L 352.1586788437758,387.17793911877595 L 360.8631122588988,382.4217711260988 L 369.7583471628587,378.03525714813844 L 378.8268204828894,374.02990617707667 L 388.05096914622527,370.41722720510535 L 397.4132300801008,367.208729224448 L 406.8960402117502,364.4159212273814 L 416.481836468408,362.0503122062598 L 426.15305577730817,360.1234111535385 L 435.8921350656852,358.64672706179743 L 445.6815112607737,357.63176892376356 L 455.5036212898075,357.0900457323325 L 465.34090208002107,357.03306648058384 L 475.1798538380371,357.47252501966244 L 485.07974563747104,358.34601823653367 L 494.894808616175,359.58364293034526 L 504.61903922069564,361.1922443403046 L 514.2464338975791,363.17866770572374 L 523.7709890933721,365.54975826601117 L 533.1867012546203,368.3123612606667 L 542.4875668278708,371.4733219292707 L 551.6675822596692,375.0394855114742 L 560.7207439965622,379.0176972469879 L 569.6087755494109,383.41830923023923 L 578.1651487566216,388.2426538814516 L 586.5982282094975,393.277318823242 L 595.1848381037598,398.26290547156907" fill="none" stroke="#000000" stroke-width="1.25"/>
	<path d="M 604.8137039820631,422.33506947985865 L 615.6461780951544,429.55671861401044" fill="none" stroke="#000000" stroke-width="1.25"/>
	<path d="M 626.4786522082458,422.33506926182645 L 631.2930851473975,422.33506920938163" fill="none" stroke="#000000" stroke-width="1.25"/>
	<path d="M 628.8858686778219,411.50259537838406 L 629.2342125014484,402.711532215015 L 636.9543532236382,398.62101403499156 L 647.1301178462481,399.3250978640729 L 655.0394185955134,403.7871353135525 L 660.3364905778891,410.9406090524794 L 663.7905074866721,419.92785240144235" fill="none" stroke="#000000" stroke-width="1.25"/>
	<path d="M 654.1616416083682,457.23970699263185 L 662.5868992518838,457.23970689412084" fill="none" stroke="#000000" stroke-width="1.25"/>
	<path d="M 650.5508169040045,472.8866137622472 L 658.8511950519162,472.60901228861275 L 665.3597059719928,473.1908851588317 L 673.4193733649756,471.68300528884095" fill="none" stroke="#000000" stroke-width="1.25"/>
	<path d="M 615.6461780951546,457.23970739099616 L 643.329167495277,457.23970711329196" fill="none" stroke="#000000" stroke-width="1.25"/>
	<path d="M 615.6461780951546,442.79640889384245 L 674.6229815997632,442.7964082264361" fill="none" stroke="#000000" stroke-width="1.25"/>
	<path d="M 608.4245286864269,457.2397074561948 L 609.6281369212148,457.23970744553674" fill="none" stroke="#000000" stroke-width="1.25"/>
	<path d="M 598.7956628081233,442.7964090465062 L 606.017312216851,442.79640898314835" fill="none" stroke="#000000" stroke-width="1.25"/>
	<path d="M 581.9451475210924,444.00001738913494 L 583.3323053922771,434.2013174831986 L 587.9482593853081,427.057233647461 L 595.2989924943613,422.6583839166736 L 603.390414077725,419.9241222918726 L 603.140096805453,411.10484864972193 L 609.2869059042341,403.4596694818092 L 617.4987228705018,402.16708684354967 L 626.4786522082455,404.28094617143006" fill="none" stroke="#000000" stroke-width="1.25"/>
	<path d="M 560.2801992949095,411.5025959954619 L 568.7054569384252,411.50259593601675" fill="none" stroke="#000000" stroke-width="1.25"/>
	<path d="M 562.6874157644855,454.83249138494546 L 565.7699447183813,446.0079194193363 L 572.4848991324279,440.37278346780266 L 580.7415392863046,437.9819763647581" fill="none" stroke="#000000" stroke-width="1.25"/>
	<path d="M 575.9271063471525,457.2397077124848 L 583.1487557558803,457.2397076607785" fill="none" stroke="#000000" stroke-width="1.25"/>
	<path d="M 467.60236521623887,430.76032760724434 L 472.81198636966985,428.23818391184113 L 478.43483932933015,428.35311118633444" fill="none" stroke="#000000" stroke-width="1.25"/>
	<path d="M 455.5662828683594,428.35311120326503 L 462.35046882807103,428.723715557867 L 467.60236521623887,433.16754401649024" fill="none" stroke="#000000" stroke-width="1.25"/>
	<path d="M 449.5482416944198,464.4613573717848 L 451.22983995505825,472.9721704039548 L 453.8253349940794,482.38412767489194 L 456.81730706097454,491.93796593001764 L 459.68833640523525,500.8744219137664 L 462.42374508530526,509.82246372132647 L 465.068689485994,518.8839901941378 L 467.63369871326876,527.9713722092265 L 470.15277556772304,537.0734729745333 L 472.65992284995133,546.1791556979774 L 475.1891433605472,555.2772835874586 L 477.7744399001051,564.3567198508598 L 480.44981526921873,573.4063276960479 L 483.2492722684822,582.4149703308749" fill="none" stroke="#000000" stroke-width="1.25"/>
	<path d="M 403.81112877247836,517.4201148612347 L 405.0147370072664,517.4201148643003" fill="none" stroke="#000000" stroke-width="1.25"/>
	<path d="M 374.92453113756795,465.664965398786 L 383.34978878108353,465.664965434817" fill="none" stroke="#000000" stroke-width="1.25"/>
	<path d="M 380.94257231150783,458.44331618207417 L 394.18226289417487,458.4433162332605" fill="none" stroke="#000000" stroke-width="1.25"/>
	<path d="M 386.96061348544737,442.7964095240733 L 394.182262894175,442.7964095517658" fill="none" stroke="#000000" stroke-width="1.25"/>
	<path d="M 389.3678299550231,428.3531110704025 L 394.182262894175,428.3531110891813" fill="none" stroke="#000000" stroke-width="1.25"/>
	<path d="M 402.6075205376904,412.7062044673598 L 402.6075205376904,450.5268352169197 L 402.7388836067718,459.1823957190632 L 402.4359380073876,468.8573060471947 L 397.0044189166599,474.2505016609339 L 387.37719570862845,474.711092647477 L 376.793256010948,473.8374706768191 L 368.6325027753144,475.13767874537524 L 363.55875955467457,481.21016932383696 L 359.2055915072122,490.89790522479007 L 355.72264912781856,501.1698225000179 L 353.25958291138505,508.9948571961386" fill="none" stroke="#000000" stroke-width="1.25"/>
	<path d="M 347.24154173744563,496.9587750667483 L 352.0559746765974,496.958775093412" fill="none" stroke="#000000" stroke-width="1.25"/>
	<path d="M 348.44514997223354,481.3118683558989 L 356.87040761574906,481.3118684028098" fill="none" stroke="#000000" stroke-width="1.25"/>
	<path d="M 344.8343252678697,474.0902226942383 L 360.4812323201129,474.09022278278513" fill="none" stroke="#000000" stroke-width="1.25"/>
	<path d="M 356.8704076157491,465.66496530810196 L 367.70288172884057,465.6649653647174" fill="none" stroke="#000000" stroke-width="1.25"/>
	<path d="M 377.3317476071439,451.22166692592924 L 394.182262894175,451.2216669939747" fill="none" stroke="#000000" stroke-width="1.25"/>
	<path d="M 374.924531137568,435.5747602366775 L 394.182262894175,435.57476031887046" fill="none" stroke="#000000" stroke-width="1.25"/>
	<path d="M 361.6848405549008,442.79640940270554 L 376.12813937235603,442.7964094767146" fill="none" stroke="#000000" stroke-width="1.25"/>
	<path d="M 343.6307170330818,451.2216667401612 L 356.87040761574906,451.2216668210409" fill="none" stroke="#000000" stroke-width="1.25"/>
	<path d="M 337.6126758591421,458.44331594429406 L 373.72092290278016,458.44331614991864" fill="none" stroke="#000000" stroke-width="1.25"/>
	<path d="M 334.00185115477836,465.6649651668579 L 340.019892328718,465.6649652068854" fill="none" stroke="#000000" stroke-width="1.25"/>
	<path d="M 326.78020656048363,474.0902225752472 L 335.20545938956616,474.0902226330194" fill="none" stroke="#000000" stroke-width="1.25"/>
	<path d="M 336.40906762435424,488.5335175364158 L 354.4631911461732,488.5335176423264" fill="none" stroke="#000000" stroke-width="1.25"/>
	<path d="M 337.61267585914214,504.1804242682543 L 349.64875820702144,504.1804243376415" fill="none" stroke="#000000" stroke-width="1.25"/>
	<path d="M 321.965773621332,488.53351743912174 L 329.1874182156266,488.5335174891648" fill="none" stroke="#000000" stroke-width="1.25"/>
	<path d="M 320.76216538654415,481.3118681745721 L 342.42710879829383,481.3118683200266" fill="none" stroke="#000000" stroke-width="1.25"/>
	<path d="M 313.54051597781637,496.9587748459838 L 327.9838147952716,496.9587749479081" fill="none" stroke="#000000" stroke-width="1.25"/>
	<path d="M 308.7260830386646,504.1804240711294 L 330.39102645041453,504.1804242230224" fill="none" stroke="#000000" stroke-width="1.25"/>
	<path d="M 299.0972171603612,504.18042399582237 L 304.8603728163619,496.16371536633704 L 310.2294684384578,487.8381132486056 L 315.3523664775075,479.3326025376807 L 320.37692938437016,470.7761681283515 L 325.29539343002926,462.3190420267712 L 330.1971998144991,453.4299747041479 L 336.3407731400806,446.0116726298514 L 344.5054689932947,441.232158066587 L 353.97508597200857,437.63480108441416 L 363.4647422536758,433.87301259665435 L 371.5554359217135,428.8975636742449 L 379.70570304493685,422.8111394341162 L 388.57458591483606,416.84530886201657 L 397.3756528453882,412.8505161965819 L 405.2246030956046,412.7142848958762 L 414.0786907527625,416.5510731906181 L 423.4093227420784,423.01888743180024 L 432.04524246331243,430.78558292494506 L 438.81519331622457,438.51901497618536 L 442.7187592892139,445.33599440897063 L 445.4743087571269,455.4150126866497 L 450.31391321833127,463.38807049678326 L 459.3433876558232,465.60563992871056 L 469.54399837156205,464.72083633479906 L 479.6032526072096,464.8448859560021 L 488.0565184758623,469.18430012341895 L 495.29354967164403,475.4138188033736 L 501.99714178199804,482.7111036967426 L 508.30885539469233,490.71981080553894 L 514.3702510974949,499.08359613101976 L 520.3228894781737,507.4461156737018 L 526.3083311244965,515.4510254334258 L 532.4681366242316,522.7419814094471 L 540.3965268780041,528.5247898061789 L 549.5645138878793,531.0272423630399 L 558.2605828999926,535.8122637401856 L 565.3489347570753,542.6054364366375 L 571.7712200144659,550.3522300381941 L 577.9168616758819,558.2784881549715 L 584.4411408770029,560.702293754989 L 591.828542551185,553.6189395691065 L 599.5740814564098,547.21757401273 L 607.1539535314745,543.13536223636 L 605.0976325740878,551.9442495142921 L 602.0034086580633,561.8834436768202 L 598.9851685682492,571.7427792333528 L 596.1520171711836,581.2369038124615 L 593.3640041812977,590.7466082101766 L 590.6080817318398,600.2631924675426 L 588.0217090028741,609.6092670494368 L 585.5217760217168,619.6623760874487 L 580.7032800320567,627.8632191261111 L 571.0915211480394,629.2892980418998 L 561.1218566846999,628.1274539152643 L 551.514334425085,629.665212792792 L 543.8648657325319,634.6473038726156 L 538.0185330828301,642.225749197463 L 532.80066993283,651.1029983813987 L 527.9348776421605,660.4762964271213 L 523.1447575704515,669.5428883366377 L 518.1539110773322,677.5000191113112" fill="none" stroke="#000000" stroke-width="1.25"/>
	<path d="M 391.7750464245991,695.5541423281759 L 391.2672245565356,698.1457754934363 L 396.96748274677907,691.1305386838429 L 406.7184327312927,687.5796911576147 L 416.41871390433425,685.8375389233927 L 426.3089253538962,684.7934663609086 L 435.9867487324672,683.7371975281209 L 445.60944161346174,681.8350004558193 L 455.10846916028635,679.2481449119715 L 464.5696605511688,676.5223278546289 L 474.07884496433667,674.2032462416316 L 483.7218515780173,672.8365970306478 L 493.94842597641633,673.1067091655207 L 503.0293143891761,676.5073247501414 L 510.71906290235506,681.7389677233075 L 519.2393233272742,686.8179290021743 L 529.0693524481006,688.6370589819271 L 538.4446135459705,688.5918831266247 L 547.0804162432519,691.9619984673449 L 552.7489143170749,700.7685880488878 L 553.2658866781092,710.3187250305261 L 552.039529744015,719.7628074389278 L 549.5260866740266,729.7116959462594 L 542.9993412124549,736.3860502676721 L 538.6249995222224,745.0878352889896 L 533.9130756761929,745.5466055289222 L 529.1063068447734,737.0473480120431 L 517.3002894108333,721.3037543431725 L 513.5390859276515,713.3862026141915 L 512.1358699033925,702.7757916296108" fill="none" stroke="#000000" stroke-width="1.25"/>
	<path d="M 456.7698911031474,475.2938312371598 L 467.60236521623887,475.2938312328671" fill="none" stroke="#000000" stroke-width="1.25"/>
	<path d="M 437.51215934654056,405.4845553295222 L 442.32659228569236,405.4845553342762" fill="none" stroke="#000000" stroke-width="1.25"/>
	<path d="M 424.27246876387323,394.65208149155603 L 455.5662828683595,394.6520815233835" fill="none" stroke="#000000" stroke-width="1.25"/>
	<path d="M 461.58432404229916,393.44847332074573 L 461.5843240422992,394.6520815219323" fill="none" stroke="#000000" stroke-width="1.25"/>
	<path d="M 439.91937581611637,383.8196077095283 L 467.6023652162388,383.8196077119131" fill="none" stroke="#000000" stroke-width="1.25"/>
	<path d="M 406.2183452420542,383.81960763471295 L 421.8652522942974,383.81960767926853" fill="none" stroke="#000000" stroke-width="1.25"/>
	<path d="M 294.2827842212095,470.4793976877796 L 294.28278422120957,471.68300589700823" fill="none" stroke="#000000" stroke-width="1.25"/>
	<path d="M 283.450310108118,507.7912484962465 L 287.62222545302853,515.6295992621713 L 296.7827474551333,517.4099145945497 L 307.4660275526548,517.4201143792409 L 336.8497888901356,517.4201145757747 L 346.54423534570174,517.3941310695338 L 356.5972753808296,517.0877848787778 L 365.97220653391236,518.816623692281 L 372.9171025155904,525.4582516366128 L 378.17773478253446,533.739173793038 L 383.18489892011297,541.7863995621333 L 388.4512122869217,550.5072935099907 L 394.0378726594164,559.1345833035047 L 400.0060778140524,566.9009966088549 L 406.9890617248727,572.974091935921 L 416.9432355910639,573.9079816026782 L 420.6616440595094,567.9716597450464" fill="none" stroke="#000000" stroke-width="1.25"/>
	<path d="M 288.2647430472698,511.4020731712092 L 284.6539183429061,515.012897773953" fill="none" stroke="#000000" stroke-width="1.25"/>
	<path d="M 282.2467018733302,516.216505964454 L 276.0704967701613,517.432697622175 L 268.7093447092134,517.5601400497666 L 259.3781454123596,517.4201139638176" fill="none" stroke="#000000" stroke-width="1.25"/>
	<path d="M 278.6358771689665,511.40207308699445 L 282.2467018733302,515.0128977530571" fill="none" stroke="#000000" stroke-width="1.25"/>
	<path d="M 226.88072307308528,552.3247518039539 L 229.64211298544583,543.6865441827766 L 235.58812238278375,537.8031996951946 L 244.21128378094474,535.6232353707035 L 252.86707233943247,537.7549450123347 L 261.5311491398335,538.7596339931603 L 270.0617540627126,539.8832975981463 L 275.60603081747945,546.7374798480166 L 272.90968736577474,554.3195885497494 L 265.3961865862991,559.5464134959409" fill="none" stroke="#000000" stroke-width="1.25"/>
	<path d="M 223.2698983687216,583.6185773712177 L 249.74927953405611,583.6185776274923" fill="none" stroke="#000000" stroke-width="1.25"/>
	<path d="M 238.91680542096458,607.6907418159698 L 256.9709289427834,608.894350189016" fill="none" stroke="#000000" stroke-width="1.25"/>
	<path d="M 269.0070112906629,634.1701227903344 L 272.7781238871801,641.7095794149376 L 281.04309363854225,640.1881639510551" fill="none" stroke="#000000" stroke-width="1.25"/>
	<path d="M 277.4322689341785,636.5773392816417 L 270.21061952545097,645.002596732279" fill="none" stroke="#000000" stroke-width="1.25"/>
	<path d="M 273.8214442298147,634.1701228261937 L 271.4142277602387,640.1881638819093" fill="none" stroke="#000000" stroke-width="1.25"/>
	<path d="M 235.30598071660089,630.5592978673476 L 231.83058437769003,639.160602383867 L 237.2909046860664,646.5799554805659 L 242.16941306191762,653.1200348761535 L 248.4523526888106,661.1516519127873 L 255.38458705819673,669.5027541142157 L 261.8780882650545,676.5451841828658 L 265.5923462829471,674.2677605648705 L 267.77956428187224,663.8162267970349 L 269.34894591356937,654.4443907313713 L 269.4757364212394,645.7133220240514 L 264.19257835151114,637.7809473979141" fill="none" stroke="#000000" stroke-width="1.25"/>
	<path d="M 229.28793954266118,640.1881635356068 L 225.67711483829746,641.391771718127" fill="none" stroke="#000000" stroke-width="1.25"/>
	<path d="M 228.08433130787319,638.984555309207 L 229.28793954266118,640.1881635356068" fill="none" stroke="#000000" stroke-width="1.25"/>
	<path d="M 223.26989836872144,635.3737306182411 L 226.3753589511814,639.0856281162996 L 220.8626818991458,640.1881634577923" fill="none" stroke="#000000" stroke-width="1.25"/>
	<path d="M 225.6771148382974,631.7629059944832 L 230.4915477774491,637.7809471156799" fill="none" stroke="#000000" stroke-width="1.25"/>
	<path d="M 229.28793954266118,629.3556895973596 L 230.4915477774491,637.7809471156799" fill="none" stroke="#000000" stroke-width="1.25"/>
	<path d="M 208.82659473683344,571.5824830343681 L 265.3961865862992,571.5824835925574" fill="none" stroke="#000000" stroke-width="1.25"/>
</svg>
