<?xml version="1.0" ?>
<svg xmlns="http://www.w3.org/2000/svg" xmlns:ev="http://www.w3.org/2001/xml-events" xmlns:xlink="http://www.w3.org/1999/xlink" baseProfile="full" height="600px" version="1.1" viewBox="73.54961726916598 19.756072734573944 482.900765461668 554.5209107373228" width="523px">
	<defs/>
	<path d="M 327.7879681953837,574.0 L 392.78281128869196,574.0" fill="none" stroke="#000000" stroke-width="0.5539669437935293"/>
	<path d="M 401.2080687267134,543.9097948642092 L 493.8859005449492,543.9097948642092" fill="none" stroke="#000000" stroke-width="0.5539669437935293"/>
	<path d="M 474.62816925804304,553.5386605076621 L 538.4194041459197,553.5386605076621" fill="none" stroke="#000000" stroke-width="0.5539669437935293"/>
	<path d="M 523.97610568074,493.3582502360805 L 549.2518779948043,493.3582502360805" fill="none" stroke="#000000" stroke-width="0.5539669437935293"/>
	<path d="M 534.8085795296247,472.89691074374275 L 549.2518779948043,472.89691074374275" fill="none" stroke="#000000" stroke-width="0.5539669437935293"/>
	<path d="M 523.97610568074,482.5257763871958 L 538.4194041459197,482.5257763871958" fill="none" stroke="#000000" stroke-width="0.5539669437935293"/>
	<path d="M 499.9039415721074,502.9871158795336 L 549.2518779948043,502.9871158795336" fill="none" stroke="#000000" stroke-width="0.5539669437935293"/>
	<path d="M 498.70033336667575,462.06443689485803 L 519.1616728590135,462.06443689485803" fill="none" stroke="#000000" stroke-width="0.5539669437935293"/>
	<path d="M 511.9400236264236,442.80670560795187 L 532.4013631187614,442.80670560795187" fill="none" stroke="#000000" stroke-width="0.5539669437935293"/>
	<path d="M 503.5147661884022,442.80670560795187 L 504.7183743938338,442.80670560795187" fill="none" stroke="#000000" stroke-width="0.5539669437935293"/>
	<path d="M 493.88590054494915,431.97423175906715 L 551.6590944056676,431.97423175906715" fill="none" stroke="#000000" stroke-width="0.5539669437935293"/>
	<path d="M 503.5147661884022,422.3453661156141 L 551.6590944056672,422.3453661156141" fill="none" stroke="#000000" stroke-width="0.5539669437935293"/>
	<path d="M 502.31117001905267,376.608254309212 L 502.810651765397,383.58646117240795 L 503.70292845692074,393.72686853694 L 504.07874727235975,404.83449193753887 L 503.0288553904501,414.7143469089355 L 499.4479603639807,421.0739994873637 L 490.57051591474294,423.09257565664745 L 479.4913008786316,422.8270399506319 L 471.01735667783043,422.3453661156141" fill="none" stroke="#000000" stroke-width="0.5539669437935293"/>
	<path d="M 454.1668297657052,431.97423175906715 L 477.03538566890626,431.97423175906715" fill="none" stroke="#000000" stroke-width="0.5539669437935293"/>
	<path d="M 489.0714677232226,452.43557125140495 L 549.2518779948043,452.43557125140495" fill="none" stroke="#000000" stroke-width="0.5539669437935293"/>
	<path d="M 479.4426020797696,472.89691074374275 L 515.5508482427185,472.89691074374275" fill="none" stroke="#000000" stroke-width="0.5539669437935293"/>
	<path d="M 449.35239694397876,482.5257763871958 L 460.1848707928635,482.5257763871958" fill="none" stroke="#000000" stroke-width="0.5539669437935293"/>
	<path d="M 434.90909847879914,493.3582502360805 L 507.1255908046972,493.3582502360805" fill="none" stroke="#000000" stroke-width="0.5539669437935293"/>
	<path d="M 437.3163148896624,462.06443689485803 L 486.6642513123594,462.06443689485803" fill="none" stroke="#000000" stroke-width="0.5539669437935293"/>
	<path d="M 431.2982738625042,452.43557125140495 L 446.94518053311543,452.43557125140495" fill="none" stroke="#000000" stroke-width="0.5539669437935293"/>
	<path d="M 430.09466565707254,442.80670560795187 L 456.57404617656846,442.80670560795187" fill="none" stroke="#000000" stroke-width="0.5539669437935293"/>
	<path d="M 475.8317894995567,394.6623773906865 L 480.64622232128323,399.47681021241306" fill="none" stroke="#000000" stroke-width="0.5539669437935293"/>
	<path d="M 484.25704693757814,394.6623773906865 L 483.0534387321465,397.0695938015498" fill="none" stroke="#000000" stroke-width="0.5539669437935293"/>
	<path d="M 480.64622232128323,392.25516097982324 L 480.7890772418435,400.1960196088565 L 480.6462223212834,421.14175791018226" fill="none" stroke="#000000" stroke-width="0.5539669437935293"/>
	<path d="M 475.8317894995567,380.2190789255069 L 472.2209648832618,383.8299035418018" fill="none" stroke="#000000" stroke-width="0.5539669437935293"/>
	<path d="M 469.8137003280703,375.40464610378046 L 469.9718388564493,385.57152234698066 L 469.862168769364,394.2978573513568 L 470.2256741839746,405.2093706200471 L 469.4740125831163,416.6869239263931 L 464.9292303877009,422.11842174321544 L 454.66797665343665,423.31115853796337 L 443.7032814085452,423.28681811204797 L 434.40317421282765,424.9052388223597 L 424.78219608688534,427.002613461112 L 414.5734768704632,429.55459815126875 L 406.6151376425601,434.94167882381805 L 405.2630093339489,443.2421688475137 L 410.36048725045305,451.7536450647571 L 418.3619115726375,460.2613089993273 L 425.6911223237869,468.6025992926802 L 428.77195952718586,476.6149545862718 L 424.02826320611905,484.13581352155796 L 415.16267743466705,488.44680105438636 L 405.21571066690836,490.625331081679 L 394.86240426842113,491.63557481926085 L 375.21721068787684,492.7964399801193 L 365.2562728850803,493.1658727135961 L 355.28614653986585,493.3610327135872 L 345.3091606666673,493.4298876959383 L 315.3968001345587,493.35772290775327 L 305.62696779179544,493.1722782754028 L 295.230515711885,493.351760732963 L 285.3150242782059,494.920007511232 L 276.6934102714504,500.01393228755074 L 277.8143774711693,508.6072916491289 L 284.1612825036793,515.3671435949852 L 292.56016549527857,522.2670137005105 L 300.45939204012757,530.3800970289087 L 303.6426983494861,538.8457690060285 L 299.17057013743675,546.0102522934732 L 290.20200940040047,550.2530103592151 L 279.40101916714264,552.4506373314441 L 269.2655097988545,553.3488737202863 L 250.32822069458712,554.2506238892275 L 240.35823034428645,554.6833206862069 L 230.25002995712322,555.0252533225232 L 220.0615207030507,555.2174985911906 L 209.850603752022,555.2011332852235 L 199.67518027399058,554.9172341976359 L 189.59315143890956,554.3068781214423 L 179.66241841673218,553.3111418496568 L 169.9408823774118,551.8711021752937 L 160.48644449090145,549.9278358913672" fill="none" stroke="#000000" stroke-width="0.5539669437935293"/>
	<path d="M 160.4864324548194,563.1675261511152 L 245.9426102260326,563.1675261511152" fill="none" stroke="#000000" stroke-width="0.5539669437935293"/>
	<path d="M 267.607557923802,563.1675261511152 L 302.51219588131937,563.1675261511152" fill="none" stroke="#000000" stroke-width="0.5539669437935293"/>
	<path d="M 309.7338451139092,563.1675261511152 L 310.9374533193409,563.1675261511152" fill="none" stroke="#000000" stroke-width="0.5539669437935293"/>
	<path d="M 306.12302049761433,553.5386605076621 L 400.00446052128177,553.5386605076621" fill="none" stroke="#000000" stroke-width="0.5539669437935293"/>
	<path d="M 419.2621918081879,533.0773210153244 L 444.5379641222522,533.0773210153244" fill="none" stroke="#000000" stroke-width="0.5539669437935293"/>
	<path d="M 419.2621918081879,502.9871158795336 L 443.3343559168206,502.9871158795336" fill="none" stroke="#000000" stroke-width="0.5539669437935293"/>
	<path d="M 403.6152851375767,512.6159815229867 L 475.8317774634747,512.6159815229867" fill="none" stroke="#000000" stroke-width="0.5539669437935293"/>
	<path d="M 371.1178635909225,480.1185599763325 L 406.02250154843995,480.1185599763325" fill="none" stroke="#000000" stroke-width="0.5539669437935293"/>
	<path d="M 367.5070389746276,469.28608612744785 L 363.9373010289354,471.6415534035186 L 356.6745651257429,472.89691074374286" fill="none" stroke="#000000" stroke-width="0.5539669437935293"/>
	<path d="M 359.0817815366062,460.8608286894264 L 363.8080049219771,465.1989711766097 L 367.50703897462756,466.87886971658423" fill="none" stroke="#000000" stroke-width="0.5539669437935293"/>
	<path d="M 368.71064718005925,457.2500040731315 L 368.71064718005925,462.06443689485803" fill="none" stroke="#000000" stroke-width="0.5539669437935293"/>
	<path d="M 363.8962143583327,457.2500040731315 L 366.4709423205868,463.93614309833043 L 370.2257584599974,470.76309786450634 L 377.13590461808064,472.8969107437428" fill="none" stroke="#000000" stroke-width="0.5539669437935293"/>
	<path d="M 372.3214717963541,456.04639586769986 L 370.1832704016663,464.5992014464512 L 375.932296412649,460.8608286894264" fill="none" stroke="#000000" stroke-width="0.5539669437935293"/>
	<path d="M 377.13590461808064,442.80670560795187 L 381.9503374398072,442.80670560795187" fill="none" stroke="#000000" stroke-width="0.5539669437935293"/>
	<path d="M 357.8781733311745,422.3453661156141 L 434.9090984787991,422.3453661156141" fill="none" stroke="#000000" stroke-width="0.5539669437935293"/>
	<path d="M 461.3884910343771,379.01547072007526 L 467.4065320615353,382.62629533637016" fill="none" stroke="#000000" stroke-width="0.5539669437935293"/>
	<path d="M 466.20292385610367,376.608254309212 L 473.4245730886934,379.01547072007526" fill="none" stroke="#000000" stroke-width="0.5539669437935293"/>
	<path d="M 473.4245249443654,374.20103789834894 L 477.03534956066,379.01547072007577" fill="none" stroke="#000000" stroke-width="0.5539669437935293"/>
	<path d="M 445.74153621943765,344.11083276255795 L 452.59483141371396,347.06195169740107 L 461.06080647154437,350.40823125419683 L 473.42452494436554,354.94330661144267" fill="none" stroke="#000000" stroke-width="0.5539669437935293"/>
	<path d="M 442.13071160314274,335.6855753245365 L 442.30782163214025,343.92574540897635 L 436.11267057598457,350.1288737897161" fill="none" stroke="#000000" stroke-width="0.5539669437935293"/>
	<path d="M 433.7054541651213,345.3144409679896 L 438.51988698684784,344.11083276255795" fill="none" stroke="#000000" stroke-width="0.5539669437935293"/>
	<path d="M 437.3162787814162,341.7036163516947 L 442.13071160314274,341.7036163516947" fill="none" stroke="#000000" stroke-width="0.5539669437935293"/>
	<path d="M 434.90906237055293,341.7036163516947 L 443.3343198085744,342.9072245571263" fill="none" stroke="#000000" stroke-width="0.5539669437935293"/>
	<path d="M 452.96318545202746,317.63145224306203 L 454.48908015919284,321.4185412000965 L 449.35236083573255,322.44588506478857" fill="none" stroke="#000000" stroke-width="0.5539669437935293"/>
	<path d="M 452.96318545202746,314.0206276267671 L 457.777618273754,318.83506044849366" fill="none" stroke="#000000" stroke-width="0.5539669437935293"/>
	<path d="M 457.777618273754,312.8170194213355 L 457.777618273754,318.83506044849366" fill="none" stroke="#000000" stroke-width="0.5539669437935293"/>
	<path d="M 462.5920510954805,312.8170194213355 L 461.2161692979353,321.71447456294004 L 466.57390598891146,330.6495382542701 L 470.7569960931817,339.9064527597285 L 472.89100927078147,349.49733476054746 L 477.2821289523409,357.73272326394357 L 484.6342262637726,364.46704487064756 L 492.90871606705724,370.2714889642593 L 500.9015389075419,375.2760504086812 L 502.42292089750845,365.7596496557312 L 502.31112187472456,356.1469148168741" fill="none" stroke="#000000" stroke-width="0.5539669437935293"/>
	<path d="M 531.1977188050837,301.98454557245077 L 537.2157598322418,305.5953701887457" fill="none" stroke="#000000" stroke-width="0.5539669437935293"/>
	<path d="M 540.8265844485368,300.78093736701913 L 537.0964284320048,309.4399148093409 L 534.372946025475,317.0002843768918 L 528.2735025202776,324.08095198640274 L 520.3652449561991,328.4639260919468" fill="none" stroke="#000000" stroke-width="0.5539669437935293"/>
	<path d="M 534.8085434213785,298.37372095615586 L 538.1762000629096,303.1675209242208 L 544.4374090648319,303.1881537778825" fill="none" stroke="#000000" stroke-width="0.5539669437935293"/>
	<path d="M 529.994110599652,274.3015568475232 L 528.8574813348944,284.14373372661106 L 524.7760848800796,293.11296944581716 L 520.3652449561989,301.98454557245077" fill="none" stroke="#000000" stroke-width="0.5539669437935293"/>
	<path d="M 505.92194649101936,283.93042249097624 L 510.73637931274584,285.1340306964079" fill="none" stroke="#000000" stroke-width="0.5539669437935293"/>
	<path d="M 515.5508121344724,279.11598966924976 L 514.3472039290407,281.52320608011297" fill="none" stroke="#000000" stroke-width="0.5539669437935293"/>
	<path d="M 523.9760695724938,271.89434043665995 L 527.5868941887887,274.3015568475232" fill="none" stroke="#000000" stroke-width="0.5539669437935293"/>
	<path d="M 527.5868941887887,269.4871240257967 L 530.9315799677191,272.93456785526575 L 536.0121516268102,273.0979486420915" fill="none" stroke="#000000" stroke-width="0.5539669437935293"/>
	<path d="M 531.1977188050837,269.4871240257967 L 531.1977188050837,273.0979486420915" fill="none" stroke="#000000" stroke-width="0.5539669437935293"/>
	<path d="M 505.92194649101936,258.65465017691196 L 502.31112187472445,264.67269120407013" fill="none" stroke="#000000" stroke-width="0.5539669437935293"/>
	<path d="M 501.1075136692928,267.0799076149334 L 499.892906980356,285.50330438597456 L 499.71515077298284,295.9548408409175 L 499.72018576197803,305.3174454664218 L 499.60998331378147,324.1819329652386 L 499.8776783731025,334.46266652877136 L 500.7916188286997,344.22496853055526 L 502.6759956480355,352.6888581455697 L 507.3315760932887,350.2522872839497 L 512.7606538691273,342.4064595689804 L 517.3991434166087,333.7621131055832 L 520.4951732487276,324.73412099735384 L 521.4177728706838,315.33176450822685 L 520.3959342573119,305.87004349737526 L 517.7830555307008,296.7666934194139 L 514.1556647521664,287.7250799453464 L 510.17174573920056,280.4903651252106 L 519.1616367507679,280.31959787468134" fill="none" stroke="#000000" stroke-width="0.5539669437935293"/>
	<path d="M 501.1075136692928,256.2474337660487 L 502.9308619537001,263.4291637947398 L 509.53277110731426,261.0618665877752" fill="none" stroke="#000000" stroke-width="0.5539669437935293"/>
	<path d="M 497.4966890529979,257.4510419714803 L 499.9039054638612,264.67269120407013" fill="none" stroke="#000000" stroke-width="0.5539669437935293"/>
	<path d="M 492.68225623127137,261.0618665877752 L 499.9039054638612,265.87629940950177" fill="none" stroke="#000000" stroke-width="0.5539669437935293"/>
	<path d="M 484.25699879324986,275.5051650529548 L 480.64617417695496,281.52320608011297" fill="none" stroke="#000000" stroke-width="0.5539669437935293"/>
	<path d="M 472.22091673893357,282.7268142855446 L 474.62813314979684,281.52320608011297" fill="none" stroke="#000000" stroke-width="0.5539669437935293"/>
	<path d="M 472.2209167389335,279.11598966924976 L 467.40648391720697,280.31959787468134" fill="none" stroke="#000000" stroke-width="0.5539669437935293"/>
	<path d="M 471.0173085335019,275.5051650529548 L 478.2389577660917,283.93042249097624" fill="none" stroke="#000000" stroke-width="0.5539669437935293"/>
	<path d="M 475.8317413552284,274.3015568475232 L 478.2389577660917,279.11598966924976" fill="none" stroke="#000000" stroke-width="0.5539669437935293"/>
	<path d="M 479.4425659715234,273.0979486420915 L 478.5808839722824,281.511972286782 L 480.4322757232735,289.87971993242274 L 485.0110455827128,296.11036554445593 L 492.2010015869726,302.65203645179105 L 498.7002972584293,306.7989783941773" fill="none" stroke="#000000" stroke-width="0.5539669437935293"/>
	<path d="M 515.5508121344724,235.78608223762888 L 516.7544203399041,235.78608223762888" fill="none" stroke="#000000" stroke-width="0.5539669437935293"/>
	<path d="M 473.4245249443652,204.4922688964064 L 479.5943667929233,198.1244507626389 L 487.1265007632609,192.30644499780564 L 495.6546347002028,187.1909852723015 L 504.8124764485742,182.93080525652167 L 514.2337338532,179.67863862086122 L 523.5521147589053,177.58721903571526 L 532.4013270105149,176.8092801714789" fill="none" stroke="#000000" stroke-width="0.5539669437935293"/>
	<path d="M 536.0121516268102,151.5335078574145 L 538.8715077838247,159.75700953403032 L 541.9959492618834,168.6424050327053 L 545.1835324561061,177.95097580074042 L 548.2323137616129,187.44400328543665 L 550.9403495735236,196.88276893409486 L 553.105696286958,206.02855419401624 L 554.6985890341257,215.46205594465505 L 555.6965960615166,224.99002504522613 L 556.157061451323,234.4480604746101 L 556.1733992589373,243.86159805008506 L 555.8390235397515,253.25607358892938 L 555.247348349158,262.6569229084214 L 554.4917877425489,272.08958182583933 L 553.6657557753166,281.5794861584615 L 552.8626665028531,291.1520717235662" fill="none" stroke="#000000" stroke-width="0.5539669437935293"/>
	<path d="M 446.9451444248693,226.15721659417582 L 440.3511598857025,232.79077987167466 L 433.54141860639044,239.5733730235403 L 426.5176463951275,246.28444372791435 L 419.281569060108,252.7034396629381 L 411.8349124095263,258.6098085067533 L 404.1603763164899,263.7606782385151 L 395.7291585781469,267.6590212627839 L 386.5471046169518,270.47748854015947 L 376.942894327668,272.61443802422355 L 367.24520760505874,274.46822766855803 L 357.78272434388754,276.43721542674484 L 348.8841244389177,278.91975925236574 L 340.59078529060105,282.44851583549257 L 332.55412327536243,287.3531791667345 L 324.8229881213215,293.2470258915765 L 317.42268224369036,299.72539130938185 L 310.37850805768073,306.3836107195138 L 303.7157679785047,312.81701942133566" fill="none" stroke="#000000" stroke-width="0.5539669437935293"/>
	<path d="M 290.47607771875687,305.5953701887457 L 301.30855156764153,305.5953701887457" fill="none" stroke="#000000" stroke-width="0.5539669437935293"/>
	<path d="M 291.6796859241885,291.15207172356605 L 312.1410254165263,291.15207172356605" fill="none" stroke="#000000" stroke-width="0.5539669437935293"/>
	<path d="M 306.12298438936807,282.7268142855446 L 324.1771074708426,282.7268142855446" fill="none" stroke="#000000" stroke-width="0.5539669437935293"/>
	<path d="M 314.54824182738946,275.5051650529548 L 335.00958131972726,275.5051650529548" fill="none" stroke="#000000" stroke-width="0.5539669437935293"/>
	<path d="M 318.1590664436844,259.8582583823436 L 326.58432388170587,259.8582583823436" fill="none" stroke="#000000" stroke-width="0.5539669437935293"/>
	<path d="M 310.9374172110946,252.63660914975378 L 320.5662828545477,252.63660914975378" fill="none" stroke="#000000" stroke-width="0.5539669437935293"/>
	<path d="M 300.10494336220995,268.283515820365 L 331.3987567034324,268.283515820365" fill="none" stroke="#000000" stroke-width="0.5539669437935293"/>
	<path d="M 349.45287978490694,250.2293927388905 L 349.45287978490694,251.43300094432215" fill="none" stroke="#000000" stroke-width="0.5539669437935293"/>
	<path d="M 356.6745290174967,252.63660914975378 L 379.54308492069777,252.63660914975378" fill="none" stroke="#000000" stroke-width="0.5539669437935293"/>
	<path d="M 389.17195056415085,252.63660914975378 L 393.9863833858774,252.63660914975378" fill="none" stroke="#000000" stroke-width="0.5539669437935293"/>
	<path d="M 378.3394767152661,236.98969044306045 L 389.17195056415085,236.98969044306045" fill="none" stroke="#000000" stroke-width="0.5539669437935293"/>
	<path d="M 408.42968185105696,230.97164941590233 L 409.6332900564886,230.97164941590233" fill="none" stroke="#000000" stroke-width="0.5539669437935293"/>
	<path d="M 369.9142192772447,244.21135171173233 L 385.56112594785594,244.21135171173233" fill="none" stroke="#000000" stroke-width="0.5539669437935293"/>
	<path d="M 372.32143568810795,259.8582583823436 L 400.00442441303557,259.8582583823436" fill="none" stroke="#000000" stroke-width="0.5539669437935293"/>
	<path d="M 421.66937211080494,285.1340306964079 L 426.4838049325315,289.9484635181344" fill="none" stroke="#000000" stroke-width="0.5539669437935293"/>
	<path d="M 427.6874131379631,282.7268142855446 L 428.78994852147736,288.2394912031158 L 432.50184595968966,285.1340306964079" fill="none" stroke="#000000" stroke-width="0.5539669437935293"/>
	<path d="M 371.1178274826763,321.24227685935693 L 386.7647341532876,321.24227685935693" fill="none" stroke="#000000" stroke-width="0.5539669437935293"/>
	<path d="M 385.56112594785594,356.14691481687436 L 383.55726201333306,364.34795261448664 L 388.1215992833465,371.52346181175443 L 392.22862004518646,368.61937487124266 L 386.7647341532878,360.9613476386008" fill="none" stroke="#000000" stroke-width="0.5539669437935293"/>
	<path d="M 355.47092081206523,375.4046461037806 L 360.0044084323494,384.6548281689254 L 360.61439545531766,394.09484434368795 L 360.0238405687872,403.3578705774402 L 362.9556754452791,407.0745419014339 L 370.6808382715549,401.4324773070036 L 386.7647341532876,391.05155277439167" fill="none" stroke="#000000" stroke-width="0.5539669437935293"/>
	<path d="M 361.4889979474694,409.10567585586614 L 357.8781733311745,410.3092840612978" fill="none" stroke="#000000" stroke-width="0.5539669437935293"/>
	<path d="M 359.0817815366061,407.9020676504345 L 353.52253582595944,415.8716231102414 L 351.19584849520635,425.5740491803971 L 353.40717718014906,435.54998715094763 L 359.9497948069383,441.09267763462606 L 369.9142553854908,442.80670560795187" fill="none" stroke="#000000" stroke-width="0.5539669437935293"/>
	<path d="M 341.02765845513164,450.0283548405417 L 361.4889979474694,450.0283548405417" fill="none" stroke="#000000" stroke-width="0.5539669437935293"/>
	<path d="M 331.39879281167856,472.89691074374275 L 337.41683383883674,472.89691074374275" fill="none" stroke="#000000" stroke-width="0.5539669437935293"/>
	<path d="M 319.36271075736227,465.67526151115294 L 353.06374050944805,464.4716533057213" fill="none" stroke="#000000" stroke-width="0.5539669437935293"/>
	<path d="M 314.5482779356357,512.6159815229867 L 368.71064718005925,512.6159815229867" fill="none" stroke="#000000" stroke-width="0.5539669437935293"/>
	<path d="M 332.60240101711025,523.4484553718714 L 386.7647702615338,523.4484553718714" fill="none" stroke="#000000" stroke-width="0.5539669437935293"/>
	<path d="M 324.1771435790888,543.9097948642092 L 360.2853897420378,543.9097948642092" fill="none" stroke="#000000" stroke-width="0.5539669437935293"/>
	<path d="M 289.27250562157144,476.5077353600376 L 283.25446459441315,478.914951770901" fill="none" stroke="#000000" stroke-width="0.5539669437935293"/>
	<path d="M 280.84724818355,483.7293845926274 L 275.16375757964283,486.59965164777407 L 263.99673330750704,487.3402092089223" fill="none" stroke="#000000" stroke-width="0.5539669437935293"/>
	<path d="M 259.1823004857806,494.56185844151213 L 271.2183825400969,494.56185844151213" fill="none" stroke="#000000" stroke-width="0.5539669437935293"/>
	<path d="M 262.79312510207546,510.2087651121234 L 266.4039497183704,513.8195897284184" fill="none" stroke="#000000" stroke-width="0.5539669437935293"/>
	<path d="M 263.99673330750716,516.2268061392815 L 260.3859086912122,519.8376307555765" fill="none" stroke="#000000" stroke-width="0.5539669437935293"/>
	<path d="M 257.9786922803489,521.041238961008 L 262.79312510207546,524.652063577303" fill="none" stroke="#000000" stroke-width="0.5539669437935293"/>
	<path d="M 261.5895168966439,515.0231979338499 L 257.9786922803489,518.6340225501449" fill="none" stroke="#000000" stroke-width="0.5539669437935293"/>
	<path d="M 254.36786766405405,511.412373317555 L 256.77508407491734,516.2268061392815" fill="none" stroke="#000000" stroke-width="0.5539669437935293"/>
	<path d="M 257.9786922803489,509.00515690669175 L 257.4107877517987,517.8515671306611 L 251.96065125319078,524.652063577303" fill="none" stroke="#000000" stroke-width="0.5539669437935293"/>
	<path d="M 249.5534348423275,513.8195897284184 L 255.57147586948568,518.6340225501449" fill="none" stroke="#000000" stroke-width="0.5539669437935293"/>
	<path d="M 231.499311760853,539.0953620424826 L 231.499311760853,540.2989702479142" fill="none" stroke="#000000" stroke-width="0.5539669437935293"/>
	<path d="M 217.0560132956734,540.2989702479142 L 225.48127073369483,540.2989702479142" fill="none" stroke="#000000" stroke-width="0.5539669437935293"/>
	<path d="M 202.61271483049376,528.2628881935979 L 195.39106559790395,531.8737128098928" fill="none" stroke="#000000" stroke-width="0.5539669437935293"/>
	<path d="M 194.18745739247237,536.6881456316194 L 188.98580094250255,539.4626265367572 L 178.5405555362939,540.2989702479142" fill="none" stroke="#000000" stroke-width="0.5539669437935293"/>
	<path d="M 185.76220476888372,528.2628881935979 L 194.18745739247234,534.2809292207561" fill="none" stroke="#000000" stroke-width="0.5539669437935293"/>
	<path d="M 195.39106559790395,524.652063577303 L 196.52068681495857,530.300169662576 L 199.00189021419885,525.8556717827346" fill="none" stroke="#000000" stroke-width="0.5539669437935293"/>
	<path d="M 189.37302938517863,524.652063577303 L 193.79409924558874,533.1389124551065 L 200.28674460466823,539.6544353283091 L 209.83436406308357,540.2989702479142" fill="none" stroke="#000000" stroke-width="0.5539669437935293"/>
	<path d="M 206.2235394467887,517.4304143447132 L 244.73900202060096,517.4304143447132" fill="none" stroke="#000000" stroke-width="0.5539669437935293"/>
	<path d="M 226.68487893912646,494.56185844151213 L 237.51735278801118,494.56185844151213" fill="none" stroke="#000000" stroke-width="0.5539669437935293"/>
	<path d="M 223.07405432283156,480.1185599763325 L 244.73900202060096,480.1185599763325" fill="none" stroke="#000000" stroke-width="0.5539669437935293"/>
	<path d="M 237.51735278801118,469.28608612744785 L 228.93636219576493,472.74182837466793 L 219.57996048179547,472.86396392439127 L 210.22297667168783,472.89691074374275 L 182.15138015258879,472.89691074374275" fill="none" stroke="#000000" stroke-width="0.5539669437935293"/>
	<path d="M 177.3369473308623,478.91495177090087 L 178.4715380183892,485.7224958960623 L 180.9477719471572,480.1185599763325" fill="none" stroke="#000000" stroke-width="0.5539669437935293"/>
	<path d="M 184.55859656345208,483.7293845926274 L 179.07027259768037,488.8961031188305 L 172.44842102029347,492.1682989222403 L 165.30086527654595,494.56185844151213" fill="none" stroke="#000000" stroke-width="0.5539669437935293"/>
	<path d="M 177.3369473308623,490.9510338252172 L 180.32170310301984,493.1110336242156 L 186.96581297431533,494.56185844151213" fill="none" stroke="#000000" stroke-width="0.5539669437935293"/>
	<path d="M 192.98385400147356,487.3402092089223 L 235.1101363771479,487.3402092089223" fill="none" stroke="#000000" stroke-width="0.5539669437935293"/>
	<path d="M 243.53539381516933,463.26804510028967 L 239.92456919887445,466.8788697165846" fill="none" stroke="#000000" stroke-width="0.5539669437935293"/>
	<path d="M 241.12817740430603,462.06443689485803 L 237.51735278801115,465.67526151115294" fill="none" stroke="#000000" stroke-width="0.5539669437935293"/>
	<path d="M 237.51735278801115,457.2500040731315 L 236.31374458257952,465.67526151115294" fill="none" stroke="#000000" stroke-width="0.5539669437935293"/>
	<path d="M 232.70291996628455,457.2500040731315 L 236.93115208068622,465.85707870786865 L 243.59650878057798,472.25051493313293 L 253.16425945862238,472.89691074374275" fill="none" stroke="#000000" stroke-width="0.5539669437935293"/>
	<path d="M 241.12817740430603,457.2500040731315 L 245.94261022603257,460.8608286894264" fill="none" stroke="#000000" stroke-width="0.5539669437935293"/>
	<path d="M 251.96065125319072,450.0283548405417 L 314.54827793563567,450.0283548405417" fill="none" stroke="#000000" stroke-width="0.5539669437935293"/>
	<path d="M 288.06889741613975,422.3453661156141 L 328.9915764008153,422.3453661156141" fill="none" stroke="#000000" stroke-width="0.5539669437935293"/>
	<path d="M 288.0689094522218,398.2732020069814 L 284.0895112882216,407.1853456355916 L 280.9396027585883,416.18634732426545 L 282.82026962270305,425.7292531538085 L 289.21300326375047,434.5452603370332 L 296.4093751379734,440.1295090139354 L 304.39056164783005,442.3754224754235 L 314.56297175177644,442.8048682518345 L 324.4095224737024,443.33359094794014 L 335.5820603041737,443.5983097823635 L 342.9901688946712,439.93644001508204 L 341.04984335513177,430.5661345594289 L 337.32576109665484,422.0083700844499 L 334.4104701605233,412.1892177326051 L 337.41684587491875,403.08763482870773" fill="none" stroke="#000000" stroke-width="0.5539669437935293"/>
	<path d="M 347.04566337404367,351.33248199514776 L 349.45287978490694,351.33248199514776" fill="none" stroke="#000000" stroke-width="0.5539669437935293"/>
	<path d="M 328.99154029256914,348.9252655842845 L 337.7787859746608,350.5911245830164 L 346.1966701941396,353.083639784129 L 367.5070028663814,369.3866050766223" fill="none" stroke="#000000" stroke-width="0.5539669437935293"/>
	<path d="M 336.21318952515895,328.46392609194675 L 374.7286520989712,328.46392609194675" fill="none" stroke="#000000" stroke-width="0.5539669437935293"/>
	<path d="M 332.60236490886405,321.24227685935693 L 348.2492715794753,321.24227685935693" fill="none" stroke="#000000" stroke-width="0.5539669437935293"/>
	<path d="M 313.3446336219579,328.46392609194675 L 324.1771074708426,328.46392609194675" fill="none" stroke="#000000" stroke-width="0.5539669437935293"/>
	<path d="M 290.47607771875687,321.24227685935693 L 320.5662828545477,321.24227685935693" fill="none" stroke="#000000" stroke-width="0.5539669437935293"/>
	<path d="M 288.0688613078936,328.46392609194675 L 306.12298438936807,328.46392609194675" fill="none" stroke="#000000" stroke-width="0.5539669437935293"/>
	<path d="M 283.25442848616706,336.88918352996814 L 321.76989105997933,336.88918352996814" fill="none" stroke="#000000" stroke-width="0.5539669437935293"/>
	<path d="M 291.6796859241885,354.94330661144267 L 294.4442995822993,364.4098978444275 L 292.5185879817046,372.84790703192164 L 287.49642396607555,380.8173417627883 L 285.31282589444976,389.77591148416775 L 290.00923338570726,397.9287633082087 L 297.40188373561574,403.7027825785309 L 306.1191790619781,407.31164911053054 L 315.3025635737554,407.6270354562831 L 324.28075542630893,404.17277486745104 L 333.33529796105626,402.14344377339484 L 339.1225785612412,394.5281322745516 L 337.5762411673795,385.6068886364238 L 331.70496190549784,385.00468800542615 L 321.7908003612591,388.14998230555267 L 313.9086427945913,389.7723547087952 L 307.395306853865,387.6574605674897 L 297.69772695134634,389.84794456896" fill="none" stroke="#000000" stroke-width="0.5539669437935293"/>
	<path d="M 284.4580848359269,392.25516097982324 L 279.0202670584129,399.9461100488375 L 273.57119806100116,408.45600412422186 L 271.2114223453877,417.0628790186762 L 272.837463614972,426.4378572911911 L 277.09250313529594,434.8582391605118 L 278.6314710399306,441.494642599309 L 270.1297147076128,441.5620563913296 L 265.01064319139095,432.59163960587955 L 265.25082218960245,423.03233325034086 L 268.8111781653155,415.1237168830242" fill="none" stroke="#000000" stroke-width="0.5539669437935293"/>
	<path d="M 274.82921919247383,394.6623773906865 L 270.80891954213985,398.6098662671432 L 265.20035354902086,401.8840266232763" fill="none" stroke="#000000" stroke-width="0.5539669437935293"/>
	<path d="M 254.36787970013606,387.4407281580967 L 251.61747139976544,394.7751502924184 L 253.16427149470445,392.25516097982324" fill="none" stroke="#000000" stroke-width="0.5539669437935293"/>
	<path d="M 256.7750479666712,364.5721722548958 L 259.18226437753447,382.62629533637033" fill="none" stroke="#000000" stroke-width="0.5539669437935293"/>
	<path d="M 253.16422335037626,363.36856404946417 L 252.18518199000354,376.8038986961724 L 253.22779830327454,384.1552566220104 L 257.3150516527481,384.49350806115666 L 261.1474972841646,389.0499022132815 L 258.8038763586496,397.67960685044847 L 255.32264328055845,406.9783383333667 L 255.32781765635195,415.77463297959105 L 257.0775930554805,426.5030782991627 L 257.1087021311266,436.56003046388395 L 251.92261655626712,442.49842687540576 L 242.3317495014916,442.8067056079521" fill="none" stroke="#000000" stroke-width="0.5539669437935293"/>
	<path d="M 219.4632297065366,442.80670560795187 L 227.88848714455804,442.80670560795187" fill="none" stroke="#000000" stroke-width="0.5539669437935293"/>
	<path d="M 227.88848714455807,460.8608286894264 L 235.11013637714788,466.8788697165846" fill="none" stroke="#000000" stroke-width="0.5539669437935293"/>
	<path d="M 201.40910662506212,465.67526151115294 L 219.46322970653665,465.67526151115294" fill="none" stroke="#000000" stroke-width="0.5539669437935293"/>
	<path d="M 199.0018902141988,448.82474663511005 L 199.0018902141988,450.0283548405417" fill="none" stroke="#000000" stroke-width="0.5539669437935293"/>
	<path d="M 189.37302938517854,431.97423175906715 L 183.43561468655417,434.6389599574187 L 175.82266678446507,435.6467879357083 L 166.25874069335333,435.7210439797509 L 154.46839142766106,435.58505637536166" fill="none" stroke="#000000" stroke-width="0.5539669437935293"/>
	<path d="M 144.8395257842081,434.3814481699304 L 146.04313398963973,434.3814481699304" fill="none" stroke="#000000" stroke-width="0.5539669437935293"/>
	<path d="M 150.85756681136627,448.82474663511005 L 155.41627931708354,457.0304291454012 L 152.47726207758006,462.25314673279223 L 145.23475968209715,463.25430497962367 L 132.80344372989182,465.6752615111524" fill="none" stroke="#000000" stroke-width="0.5539669437935293"/>
	<path d="M 142.43230937334488,472.89691074374275 L 156.8756078385245,472.89691074374275" fill="none" stroke="#000000" stroke-width="0.5539669437935293"/>
	<path d="M 155.67199963309284,460.8608286894264 L 158.7715209521486,462.9146221003776 L 165.3008652765459,465.67526151115334" fill="none" stroke="#000000" stroke-width="0.5539669437935293"/>
	<path d="M 172.52251450913576,464.4716533057213 L 183.35498835802045,464.4716533057213" fill="none" stroke="#000000" stroke-width="0.5539669437935293"/>
	<path d="M 172.52251450913576,478.91495177090087 L 174.6607159038236,487.46775734965223 L 168.91168989284085,483.7293845926274" fill="none" stroke="#000000" stroke-width="0.5539669437935293"/>
	<path d="M 178.54055553629394,486.1366010034907 L 176.13333912543067,488.54381741435395" fill="none" stroke="#000000" stroke-width="0.5539669437935293"/>
	<path d="M 148.45035040050305,506.5979404958285 L 178.54055553629394,506.5979404958285" fill="none" stroke="#000000" stroke-width="0.5539669437935293"/>
	<path d="M 141.22870116791327,494.56185844151213 L 147.24674219507142,494.56185844151213" fill="none" stroke="#000000" stroke-width="0.5539669437935293"/>
	<path d="M 127.98901090816531,487.3402092089223 L 160.4864324548194,487.3402092089223" fill="none" stroke="#000000" stroke-width="0.5539669437935293"/>
	<path d="M 161.690040660251,456.04639586769986 L 158.07921604395608,459.65722048399476" fill="none" stroke="#000000" stroke-width="0.5539669437935293"/>
	<path d="M 159.28282424938772,450.0283548405417 L 159.28282424938772,454.8427876622682" fill="none" stroke="#000000" stroke-width="0.5539669437935293"/>
	<path d="M 155.6719996330928,448.82474663511005 L 155.70453007142055,458.43502345666155 L 164.09725707111426,453.6391794568366" fill="none" stroke="#000000" stroke-width="0.5539669437935293"/>
	<path d="M 170.11529809827243,450.0283548405417 L 191.7802457960418,450.0283548405417" fill="none" stroke="#000000" stroke-width="0.5539669437935293"/>
	<path d="M 197.79828200876716,423.5489743210457 L 191.7802457960418,428.36340714277236" fill="none" stroke="#000000" stroke-width="0.5539669437935293"/>
	<path d="M 194.18745739247228,419.93814970475086 L 189.77731977552972,427.65589825214886 L 185.7622047688837,421.1417579101825" fill="none" stroke="#000000" stroke-width="0.5539669437935293"/>
	<path d="M 189.37302938517857,418.7345414993192 L 189.50017658368944,425.59688539756417 L 192.63641643992713,431.06144343468156 L 197.7982820087672,435.58505637536206" fill="none" stroke="#000000" stroke-width="0.5539669437935293"/>
	<path d="M 180.94777194715712,423.5489743210457 L 186.96581297431527,428.36340714277225" fill="none" stroke="#000000" stroke-width="0.5539669437935293"/>
	<path d="M 183.35500039410246,400.6804184178447 L 179.74417577780756,406.69845944500287" fill="none" stroke="#000000" stroke-width="0.5539669437935293"/>
	<path d="M 176.13335116151268,397.0695938015498 L 186.9658250103974,401.8840266232763" fill="none" stroke="#000000" stroke-width="0.5539669437935293"/>
	<path d="M 199.00190225028086,399.47681021241306 L 201.40911866114413,401.8840266232763" fill="none" stroke="#000000" stroke-width="0.5539669437935293"/>
	<path d="M 203.8163350720074,399.47681021241306 L 209.66786894002615,401.82652273675154 L 213.44520071546037,399.47681021241283" fill="none" stroke="#000000" stroke-width="0.5539669437935293"/>
	<path d="M 207.42715968830234,395.86598559611815 L 207.42715968830234,399.47681021241306" fill="none" stroke="#000000" stroke-width="0.5539669437935293"/>
	<path d="M 202.6127268665758,395.86598559611815 L 205.42708745939214,403.0246810450002 L 211.03798430459724,395.8659855961178" fill="none" stroke="#000000" stroke-width="0.5539669437935293"/>
	<path d="M 207.4271596883023,405.49485123957123 L 207.38551036142178,413.9099172597586 L 207.92604266255464,422.8982384087605 L 208.0332919519207,433.22424955180077 L 205.53917348955122,440.83442299900526 L 197.3158340229437,443.1927275245038 L 188.16942117974685,442.8067056079521" fill="none" stroke="#000000" stroke-width="0.5539669437935293"/>
	<path d="M 213.44518867937842,415.1237168830243 L 216.53979213053228,421.3968118921025 L 218.51960990053973,430.5641566020758 L 216.7586088545349,438.93202863375524 L 208.63075585765193,442.80670560795204" fill="none" stroke="#000000" stroke-width="0.5539669437935293"/>
	<path d="M 223.0740543228315,422.3453661156141 L 248.3498266368958,422.3453661156141" fill="none" stroke="#000000" stroke-width="0.5539669437935293"/>
	<path d="M 218.25962150110496,412.71650047216104 L 221.87044611739987,415.1237168830243" fill="none" stroke="#000000" stroke-width="0.5539669437935293"/>
	<path d="M 223.07406635891357,394.6623773906865 L 219.46324174261866,398.2732020069814" fill="none" stroke="#000000" stroke-width="0.5539669437935293"/>
	<path d="M 206.2235514828707,382.62629533637016 L 206.2235514828707,387.4407281580967" fill="none" stroke="#000000" stroke-width="0.5539669437935293"/>
	<path d="M 203.81628692767927,362.16495584403253 L 205.0198951331109,362.16495584403253" fill="none" stroke="#000000" stroke-width="0.5539669437935293"/>
	<path d="M 176.13330301718457,371.7938214874856 L 185.9060939543674,374.138937368127 L 195.74033980588314,374.9936101516927 L 204.17024096094983,380.0018922023345 L 214.1986819885222,384.00653086433795 L 221.35573911573962,388.3113087330568 L 226.90691355453367,394.44439561307007 L 236.03692438319982,395.44247889106356 L 243.41564355358022,402.94343365990994 L 244.73896591235487,412.7165004721612" fill="none" stroke="#000000" stroke-width="0.5539669437935293"/>
	<path d="M 267.607557923802,457.2500040731315 L 280.84724818354994,457.2500040731315" fill="none" stroke="#000000" stroke-width="0.5539669437935293"/>
	<path d="M 282.05085638898163,471.6933025383111 L 283.1804776060362,477.3414086235841 L 285.6616810052765,472.89691074374275" fill="none" stroke="#000000" stroke-width="0.5539669437935293"/>
	<path d="M 277.2364235672551,472.89691074374275 L 280.7514390606658,481.5150492492911 L 288.06889741613975,487.3402092089223" fill="none" stroke="#000000" stroke-width="0.5539669437935293"/>
	<path d="M 273.6255989509602,476.5077353600376 L 279.64363997811836,481.32216818176414" fill="none" stroke="#000000" stroke-width="0.5539669437935293"/>
	<path d="M 209.8343640630836,574.0 L 282.05085638898163,574.0" fill="none" stroke="#000000" stroke-width="0.5539669437935293"/>
	<path d="M 200.20549841963052,574.0 L 201.40910662506215,574.0" fill="none" stroke="#000000" stroke-width="0.5539669437935293"/>
	<path d="M 147.24674219507136,453.6391794568366 L 153.26478322222954,458.4536122785631" fill="none" stroke="#000000" stroke-width="0.5539669437935293"/>
	<path d="M 115.95292885384889,450.0283548405417 L 138.82148475704992,450.0283548405417" fill="none" stroke="#000000" stroke-width="0.5539669437935293"/>
	<path d="M 134.0070519353234,413.9201086775927 L 142.43230937334482,412.71650047216104" fill="none" stroke="#000000" stroke-width="0.5539669437935293"/>
	<path d="M 148.4503624365851,398.2732020069814 L 140.95282926363933,391.01639849917666 L 140.88912807647642,383.06091112685846 L 149.6539706420167,377.8118625146436" fill="none" stroke="#000000" stroke-width="0.5539669437935293"/>
	<path d="M 162.8936609017647,386.23711995266507 L 162.17757413030654,394.3401224080245 L 161.18844345210272,404.6053705386821 L 161.6649633214093,414.54389553658757 L 165.66612501311363,421.6324868196138 L 174.92974295608107,422.3453661156141" fill="none" stroke="#000000" stroke-width="0.5539669437935293"/>
	<path d="M 121.97098191708915,413.9201086775927 L 123.76829706247977,403.71650317637494 L 129.1949108727762,396.80143880899595 L 137.6178885877004,393.4587691852549" fill="none" stroke="#000000" stroke-width="0.5539669437935293"/>
	<path d="M 107.52767141582746,422.3453661156141 L 161.690040660251,422.3453661156141" fill="none" stroke="#000000" stroke-width="0.5539669437935293"/>
	<path d="M 93.08437295064783,422.3453661156141 L 101.29584913241803,421.3194275852953 L 108.29038603691063,417.57267862245436 L 120.76736167557542,406.69845944500287" fill="none" stroke="#000000" stroke-width="0.5539669437935293"/>
	<path d="M 129.1925830053507,341.7036163516947 L 149.65392249768848,358.55413122773757" fill="none" stroke="#000000" stroke-width="0.5539669437935293"/>
	<path d="M 156.8755717302783,324.85310147565184 L 155.11005684062098,333.0727801547033 L 153.46904546032732,343.1240054167417 L 152.5192935592416,353.6885519790284 L 153.0973579337193,363.84380071593995 L 156.3232673484302,373.5549734860189 L 160.70930574239415,382.2286837788742 L 165.26169501061204,382.49939014823144 L 169.77264220753355,373.5132589874118 L 174.0115210551971,364.2726930641619 L 178.54051942804762,356.14691481687424" fill="none" stroke="#000000" stroke-width="0.5539669437935293"/>
	<path d="M 195.3910294896578,309.2061948050406 L 189.12509282715587,314.91888732262777 L 182.3888884147882,322.12198597125547 L 176.24414850116904,329.4855138324637 L 173.67908241942354,338.743172028945 L 174.97583791732706,348.3958127716616 L 177.54851623436514,355.99735168399775 L 183.7769930219019,350.96939414229564 L 191.17215259164362,344.22157574367276 L 198.85214458794104,336.8303136743858 L 205.93511865514486,329.8720251206916 L 212.00462111896582,323.9868265932913 L 218.9407105374913,318.0553342386514 L 218.2595853928588,309.2061948050406" fill="none" stroke="#000000" stroke-width="0.5539669437935293"/>
	<path d="M 223.07401821458535,309.2061948050406 L 222.54723479161535,316.75551093798464 L 229.09205924174353,321.24227685935693" fill="none" stroke="#000000" stroke-width="0.5539669437935293"/>
	<path d="M 220.66680180372208,317.63145224306203 L 229.09205924174353,316.4278440376304" fill="none" stroke="#000000" stroke-width="0.5539669437935293"/>
	<path d="M 226.68484283088026,311.61341121590385 L 220.66680180372208,317.63145224306203" fill="none" stroke="#000000" stroke-width="0.5539669437935293"/>
	<path d="M 237.51731667976497,314.0206276267671 L 272.42195463728234,314.0206276267671" fill="none" stroke="#000000" stroke-width="0.5539669437935293"/>
	<path d="M 279.64360386987215,314.0206276267671 L 295.2905105404834,314.0206276267671" fill="none" stroke="#000000" stroke-width="0.5539669437935293"/>
	<path d="M 280.8472120753038,298.37372095615586 L 303.7157679785048,298.37372095615586" fill="none" stroke="#000000" stroke-width="0.5539669437935293"/>
	<path d="M 278.4399956644405,282.7268142855446 L 301.30855156764153,282.7268142855446" fill="none" stroke="#000000" stroke-width="0.5539669437935293"/>
	<path d="M 276.0327792535772,275.5051650529548 L 306.12298438936807,275.5051650529548" fill="none" stroke="#000000" stroke-width="0.5539669437935293"/>
	<path d="M 276.03277925357725,268.283515820365 L 289.27246951332523,268.283515820365" fill="none" stroke="#000000" stroke-width="0.5539669437935293"/>
	<path d="M 274.8291710481456,259.8582583823436 L 286.86525310246196,259.8582583823436" fill="none" stroke="#000000" stroke-width="0.5539669437935293"/>
	<path d="M 276.03277925357725,252.63660914975378 L 301.30855156764153,252.63660914975378" fill="none" stroke="#000000" stroke-width="0.5539669437935293"/>
	<path d="M 294.0869023350517,245.41495991716397 L 315.75185003282115,245.41495991716397" fill="none" stroke="#000000" stroke-width="0.5539669437935293"/>
	<path d="M 294.0869023350517,230.97164941590233 L 290.47607771875687,235.78608223762888" fill="none" stroke="#000000" stroke-width="0.5539669437935293"/>
	<path d="M 291.6796859241885,234.58247403219724 L 299.6293150900941,235.7864844799884 L 309.5633700917998,235.75810641641948 L 319.1674436873187,238.9387991098309 L 325.33584998265826,245.14658935274997 L 330.85879565859796,253.29520703288543 L 336.00111001378974,261.90270198048506 L 341.0276223468857,269.48712402579673" fill="none" stroke="#000000" stroke-width="0.5539669437935293"/>
	<path d="M 356.6745290174967,259.8582583823436 L 366.3033946609498,259.8582583823436" fill="none" stroke="#000000" stroke-width="0.5539669437935293"/>
	<path d="M 360.2853536337916,267.0799076149334 L 375.93226030440286,267.0799076149334" fill="none" stroke="#000000" stroke-width="0.5539669437935293"/>
	<path d="M 355.4709208120651,244.21135171173233 L 362.6925700446549,244.21135171173233" fill="none" stroke="#000000" stroke-width="0.5539669437935293"/>
	<path d="M 353.0637044012018,236.98969044306045 L 362.6925700446549,236.98969044306045" fill="none" stroke="#000000" stroke-width="0.5539669437935293"/>
	<path d="M 351.8600961957702,229.76804121047073 L 383.15390953699267,229.76804121047073" fill="none" stroke="#000000" stroke-width="0.5539669437935293"/>
	<path d="M 366.3033946609498,221.34278377244928 L 379.54308492069777,221.34278377244928" fill="none" stroke="#000000" stroke-width="0.5539669437935293"/>
	<path d="M 361.48896183922324,214.12113453985947 L 377.1358685098345,214.12113453985947" fill="none" stroke="#000000" stroke-width="0.5539669437935293"/>
	<path d="M 365.09978645551814,206.89948530726966 L 373.5250438935396,206.89948530726966" fill="none" stroke="#000000" stroke-width="0.5539669437935293"/>
	<path d="M 362.6925700446549,198.47422786924824 L 367.5070028663814,198.47422786924824" fill="none" stroke="#000000" stroke-width="0.5539669437935293"/>
	<path d="M 343.43483875774876,206.89948530726966 L 349.45287978490694,206.89948530726966" fill="none" stroke="#000000" stroke-width="0.5539669437935293"/>
	<path d="M 345.84205516861203,214.12113453985947 L 356.6745290174967,214.12113453985947" fill="none" stroke="#000000" stroke-width="0.5539669437935293"/>
	<path d="M 348.2492715794753,221.34278377244928 L 355.4709208120651,221.34278377244928" fill="none" stroke="#000000" stroke-width="0.5539669437935293"/>
	<path d="M 341.0276223468855,198.47422786924824 L 356.6745290174967,198.47422786924824" fill="none" stroke="#000000" stroke-width="0.5539669437935293"/>
	<path d="M 338.6204059360222,191.25257863665843 L 343.43483875774876,191.25257863665843" fill="none" stroke="#000000" stroke-width="0.5539669437935293"/>
	<path d="M 335.0095813197273,184.03092940406862 L 344.6384469631804,184.03092940406862" fill="none" stroke="#000000" stroke-width="0.5539669437935293"/>
	<path d="M 332.60236490886405,175.6056719660472 L 344.6384469631804,175.6056719660472" fill="none" stroke="#000000" stroke-width="0.5539669437935293"/>
	<path d="M 338.6204059360222,168.38402273345736 L 344.6384469631804,168.38402273345736" fill="none" stroke="#000000" stroke-width="0.5539669437935293"/>
	<path d="M 343.43483875774876,161.16237350086757 L 344.6384469631804,161.16237350086757" fill="none" stroke="#000000" stroke-width="0.5539669437935293"/>
	<path d="M 338.6204059360222,152.73711606284613 L 343.43483875774876,152.73711606284613" fill="none" stroke="#000000" stroke-width="0.5539669437935293"/>
	<path d="M 327.7879320871375,161.16237350086757 L 338.6204059360222,161.16237350086757" fill="none" stroke="#000000" stroke-width="0.5539669437935293"/>
	<path d="M 330.1951484980008,168.38402273345736 L 333.8059731142957,168.38402273345736" fill="none" stroke="#000000" stroke-width="0.5539669437935293"/>
	<path d="M 325.38071567627424,152.73711606284613 L 328.99154029256914,152.73711606284613" fill="none" stroke="#000000" stroke-width="0.5539669437935293"/>
	<path d="M 322.97349926541096,145.51546683025632 L 342.23123055231713,145.51546683025632" fill="none" stroke="#000000" stroke-width="0.5539669437935293"/>
	<path d="M 349.45287978490694,129.8685637704697 L 349.45287978490694,169.2725442237001 L 349.07578945107537,178.8545315268723 L 350.1938490668305,188.49244969646384 L 358.01665978444197,191.74087108051057 L 368.8307846879984,191.28967489561302 L 376.37282092462243,196.0107607017827 L 380.9863409564611,205.18342706338555 L 385.13234755267894,213.7997791190587 L 389.614010365589,222.46426528081054 L 394.08979611066235,231.18124958782602 L 398.4066808945488,240.0140000140579 L 402.41164082389855,249.02578453345888" fill="none" stroke="#000000" stroke-width="0.5539669437935293"/>
	<path d="M 290.47607771875687,228.5644330050391 L 289.27246951332523,233.3788658267656" fill="none" stroke="#000000" stroke-width="0.5539669437935293"/>
	<path d="M 276.03277925357725,245.41495991716397 L 284.4580366915987,245.41495991716397" fill="none" stroke="#000000" stroke-width="0.5539669437935293"/>
	<path d="M 271.2183464318507,236.9896904430605 L 271.72954102484357,245.05061993982534 L 272.4824820257596,255.13191814362918 L 272.3062052675051,265.0551594154832 L 270.0297465829864,272.6419181163985 L 262.6023520550075,275.86053086084985 L 252.86712939237802,275.4711087212821 L 245.27670299442997,278.374822199563 L 240.3043102085565,285.67917156191027 L 236.64566263215607,294.8306391442408 L 233.9064920634701,303.18815377788246" fill="none" stroke="#000000" stroke-width="0.5539669437935293"/>
	<path d="M 241.12814129605985,305.5953701887457 L 261.5894807883976,305.5953701887457" fill="none" stroke="#000000" stroke-width="0.5539669437935293"/>
	<path d="M 268.81113002098743,305.5953701887457 L 280.8472120753038,305.5953701887457" fill="none" stroke="#000000" stroke-width="0.5539669437935293"/>
	<path d="M 270.01473822641907,321.24227685935693 L 282.0508202807354,321.24227685935693" fill="none" stroke="#000000" stroke-width="0.5539669437935293"/>
	<path d="M 241.12814129605985,321.24227685935693 L 262.7930889938293,321.24227685935693" fill="none" stroke="#000000" stroke-width="0.5539669437935293"/>
	<path d="M 244.73896591235476,298.37372095615586 L 267.6075218155558,298.37372095615586" fill="none" stroke="#000000" stroke-width="0.5539669437935293"/>
	<path d="M 247.14618232321803,291.15207172356605 L 259.18226437753435,291.15207172356605" fill="none" stroke="#000000" stroke-width="0.5539669437935293"/>
	<path d="M 249.5533987340813,282.7268142855446 L 272.42195463728234,282.7268142855446" fill="none" stroke="#000000" stroke-width="0.5539669437935293"/>
	<path d="M 203.8162869276792,305.5953701887457 L 197.15963283879546,310.03313958133486 L 203.8162869276792,311.61341121590385" fill="none" stroke="#000000" stroke-width="0.5539669437935293"/>
	<path d="M 196.59463769508938,299.5773291615875 L 195.39102948965774,305.5953701887457" fill="none" stroke="#000000" stroke-width="0.5539669437935293"/>
	<path d="M 191.7802096877957,299.5773291615875 L 194.12378905871768,308.951665393948 L 200.20546231138428,301.98454557245077" fill="none" stroke="#000000" stroke-width="0.5539669437935293"/>
	<path d="M 186.96577686606915,287.54124710727115 L 188.16938507150078,287.54124710727115" fill="none" stroke="#000000" stroke-width="0.5539669437935293"/>
	<path d="M 186.96577686606915,285.1340306964079 L 184.55856045520588,287.54124710727115" fill="none" stroke="#000000" stroke-width="0.5539669437935293"/>
	<path d="M 185.76216866063743,279.11598966924976 L 187.05971313558678,283.7425499519409 L 189.37299327693233,279.11598966924976" fill="none" stroke="#000000" stroke-width="0.5539669437935293"/>
	<path d="M 194.18742128422608,281.52320608011297 L 188.62516732946034,287.0854644846855 L 195.3910294896578,287.54124710727115" fill="none" stroke="#000000" stroke-width="0.5539669437935293"/>
	<path d="M 161.69000455200478,274.3015568475232 L 160.44808384711865,283.2965649351976 L 159.7000398134487,291.93681939513647 L 158.55317244496064,302.9759571984013 L 157.6857115021362,313.88063315078205 L 157.77588674545714,322.11750205806896 L 161.51880098416842,319.5926470914288 L 167.9527990515204,311.75543909247506 L 174.63120148709754,303.4118391261595 L 179.96655333771605,296.49349011127117 L 183.4324913170371,288.17354554279467 L 180.94773583891092,279.11598966924987" fill="none" stroke="#000000" stroke-width="0.5539669437935293"/>
	<path d="M 161.69000455200484,263.4690829986385 L 163.12023780145597,269.1094156190975 L 166.50443737373138,263.4690829986385" fill="none" stroke="#000000" stroke-width="0.5539669437935293"/>
	<path d="M 158.07917993570993,264.67269120407013 L 161.50716593402797,270.47230291861683 L 168.91165378459468,268.283515820365" fill="none" stroke="#000000" stroke-width="0.5539669437935293"/>
	<path d="M 153.2647471139834,267.0799076149334 L 157.27561348500734,270.832604539423 L 162.89361275743641,269.48712402579656" fill="none" stroke="#000000" stroke-width="0.5539669437935293"/>
	<path d="M 156.8755717302783,246.6185681225956 L 161.69000455200484,246.6185681225956" fill="none" stroke="#000000" stroke-width="0.5539669437935293"/>
	<path d="M 159.28278814114157,230.97164941590233 L 166.02279883956095,233.59041155917146 L 171.17841179256897,238.92472778868643 L 173.72608660632125,246.6185681225956" fill="none" stroke="#000000" stroke-width="0.5539669437935293"/>
	<path d="M 186.96577686606918,224.9536083887442 L 186.96577686606918,226.15721659417582" fill="none" stroke="#000000" stroke-width="0.5539669437935293"/>
	<path d="M 201.40907051681594,232.17525762133397 L 220.66680180372208,232.17525762133397" fill="none" stroke="#000000" stroke-width="0.5539669437935293"/>
	<path d="M 209.8343279548374,236.9896904430605 L 213.4451525711323,236.9896904430605" fill="none" stroke="#000000" stroke-width="0.5539669437935293"/>
	<path d="M 209.8343279548374,223.75000018331255 L 218.77914145888496,226.1773621976707 L 227.3217218771913,229.54906022542252 L 235.1101002689017,246.6185681225956" fill="none" stroke="#000000" stroke-width="0.5539669437935293"/>
	<path d="M 211.03793616026903,216.52835095072274 L 212.14047154378326,222.0410278682939 L 215.85236898199554,218.935567361586" fill="none" stroke="#000000" stroke-width="0.5539669437935293"/>
	<path d="M 205.01989513311085,218.935567361586 L 209.2771558853984,224.04274794020986 L 204.06077627069286,225.7615725640727 L 194.1874212842261,226.15721659417602" fill="none" stroke="#000000" stroke-width="0.5539669437935293"/>
	<path d="M 168.91165378459465,209.30670171813293 L 173.7260866063212,209.30670171813293" fill="none" stroke="#000000" stroke-width="0.5539669437935293"/>
	<path d="M 142.43227326509873,217.73195915615437 L 150.47535211011518,220.45304449077537 L 156.1007698997301,226.57847144202216 L 158.07917993571,235.78608223762882" fill="none" stroke="#000000" stroke-width="0.5539669437935293"/>
	<path d="M 137.61784044337216,234.58247403219724 L 143.63588147053034,234.58247403219724" fill="none" stroke="#000000" stroke-width="0.5539669437935293"/>
	<path d="M 126.78536659448744,246.6185681225956 L 134.00701582707725,246.6185681225956" fill="none" stroke="#000000" stroke-width="0.5539669437935293"/>
	<path d="M 117.15650095103439,217.73195915615437 L 120.7673255673293,217.73195915615437" fill="none" stroke="#000000" stroke-width="0.5539669437935293"/>
	<path d="M 123.17454197819255,203.28866069097478 L 120.76732556732928,206.89948530726966" fill="none" stroke="#000000" stroke-width="0.5539669437935293"/>
	<path d="M 111.13845992387621,186.4381458149319 L 113.65809115207466,176.93007480117868 L 116.75278301900951,167.56484131234492 L 120.36988773360551,158.36325962810076 L 124.45675750478742,149.3461440281162 L 128.96074454148,140.53430879206138 L 133.82920105260806,131.94856819960629 L 139.0094792470963,123.60973653042099 L 144.47230686817352,115.53860244407909 L 150.3027562506116,107.71888884258313 L 156.49963784060577,100.15373932425743 L 163.0453885658187,92.8546628824675 L 169.9224453539131,85.83316851057891 L 177.1132451325517,79.10076520195727 L 184.60022482939706,72.66896194996814 L 192.36582137211195,66.5492677479771 L 200.39247168835908,60.75319158934968 L 208.66261270580108,55.292242467451516 L 217.15868135210067,50.17792937564813 L 225.86311455492043,45.42176130730515 L 234.75834924192324,41.03524725578811 L 243.82682234077168,37.02989621446254 L 253.05097077912842,33.41721717669411 L 262.41323148465614,30.208719135848334 L 271.8960413850175,27.415911085290812 L 281.4818374078754,25.050302018387065 L 291.15305648089225,23.123400928502726 L 300.8921355317308,21.64671680900336 L 310.68151148805384,20.631758653254504 L 320.50362127752396,20.09003545462177 L 330.3409018278039,20.033056206470707 L 340.1798533458455,20.472514760039527 L 350.0797449038186,21.3460080018302 L 359.8948076431309,22.583632729944803 L 369.6190380104752,24.19223418310727 L 379.24643245254424,26.17865760004154 L 388.7709874160309,28.54974821947155 L 398.1866993476277,31.312351280121213 L 407.48756469402764,34.473312020714474 L 416.66757990192326,38.03947567997527 L 425.7207414180075,42.017687496627524 L 434.6087727540749,46.41829956381937 L 443.16514575259373,51.24264429927949 L 451.5982249997845,56.277309325759624 L 460.18483468461744,61.262896060866595" fill="none" stroke="#000000" stroke-width="0.5539669437935293"/>
	<path d="M 469.8137003280703,85.33506016949924 L 480.646174176955,92.55670940208906" fill="none" stroke="#000000" stroke-width="0.5539669437935293"/>
	<path d="M 491.47864802583973,85.33506016949924 L 496.2930808475663,85.33506016949924" fill="none" stroke="#000000" stroke-width="0.5539669437935293"/>
	<path d="M 493.885864436703,74.50258632061454 L 494.2342082518335,65.71152316283361 L 501.95434878572723,61.62100507358167 L 512.1301131601477,62.32508902945391 L 520.0394137165033,66.7871265790908 L 525.336485569682,73.9406003798031 L 528.7905023942208,82.92784375863599" fill="none" stroke="#000000" stroke-width="0.5539669437935293"/>
	<path d="M 519.1616367507672,120.23969812701664 L 527.5868941887887,120.23969812701664" fill="none" stroke="#000000" stroke-width="0.5539669437935293"/>
	<path d="M 515.5508121344724,135.88660479762785 L 523.8511900799359,135.60900341707153 L 530.3597008412682,136.19087635952235 L 538.4193680376738,134.68299659219622" fill="none" stroke="#000000" stroke-width="0.5539669437935293"/>
	<path d="M 480.646174176955,120.23969812701664 L 508.3291629018826,120.23969812701664" fill="none" stroke="#000000" stroke-width="0.5539669437935293"/>
	<path d="M 480.646174176955,105.79639966183703 L 539.6229762431051,105.79639966183703" fill="none" stroke="#000000" stroke-width="0.5539669437935293"/>
	<path d="M 473.4245249443652,120.23969812701664 L 474.62813314979684,120.23969812701664" fill="none" stroke="#000000" stroke-width="0.5539669437935293"/>
	<path d="M 463.7956593009121,105.79639966183703 L 471.01730853350193,105.79639966183703" fill="none" stroke="#000000" stroke-width="0.5539669437935293"/>
	<path d="M 446.9451444248693,107.00000786726866 L 448.3323022622209,97.2013079814511 L 452.9482561426677,90.05722418660088 L 460.29898907243467,85.6583745197668 L 468.39041045844675,82.92411296910947 L 468.1400931922798,74.10483932472467 L 474.2869021411389,66.45966021395861 L 482.4987189071183,65.16707766076524 L 491.4786480258394,67.28093708802476" fill="none" stroke="#000000" stroke-width="0.5539669437935293"/>
	<path d="M 425.28019672709985,74.50258632061454 L 433.7054541651213,74.50258632061454" fill="none" stroke="#000000" stroke-width="0.5539669437935293"/>
	<path d="M 427.6874131379631,117.83248171615337 L 430.7699420166753,109.00790978137198 L 437.4848962669425,103.37277388079406 L 445.74153621943776,100.98196684011049" fill="none" stroke="#000000" stroke-width="0.5539669437935293"/>
	<path d="M 440.9271033977111,120.23969812701664 L 448.1487526303009,120.23969812701664" fill="none" stroke="#000000" stroke-width="0.5539669437935293"/>
	<path d="M 332.60236490886405,93.76031760752069 L 337.81198593523123,91.23817391490664 L 343.4348387577488,91.35310119665736" fill="none" stroke="#000000" stroke-width="0.5539669437935293"/>
	<path d="M 320.5662828545477,91.35310119665742 L 327.3504686487913,91.72370555325111 L 332.6023649088641,96.16753401838399" fill="none" stroke="#000000" stroke-width="0.5539669437935293"/>
	<path d="M 314.5482418273896,127.46134735960644 L 316.2298400470134,135.97216037944887 L 318.82533502272975,145.3841176328363 L 321.81730701665003,154.93795586646624 L 324.68833629088556,163.8744118270361 L 327.4237449042382,172.8224536085338 L 330.06868924041623,181.88398005215373 L 332.6336984051297,190.97136203526904 L 335.1527751981432,200.0734627659833 L 337.65992241922146,209.17914545239998 L 340.1891428681291,218.27727330262283 L 342.7744393446309,227.3567095247554 L 345.44981464849144,236.40631732690122 L 348.2492715794755,245.4149599171639" fill="none" stroke="#000000" stroke-width="0.5539669437935293"/>
	<path d="M 268.81113002098743,180.4201047877737 L 270.01473822641907,180.4201047877737" fill="none" stroke="#000000" stroke-width="0.5539669437935293"/>
	<path d="M 239.92453309062824,128.66495556503807 L 248.34979052864966,128.66495556503807" fill="none" stroke="#000000" stroke-width="0.5539669437935293"/>
	<path d="M 245.9425741177864,121.44330633244827 L 259.18226437753435,121.44330633244827" fill="none" stroke="#000000" stroke-width="0.5539669437935293"/>
	<path d="M 251.96061514494457,105.79639966183703 L 259.18226437753435,105.79639966183703" fill="none" stroke="#000000" stroke-width="0.5539669437935293"/>
	<path d="M 254.36783155580784,91.35310119665742 L 259.18226437753435,91.35310119665742" fill="none" stroke="#000000" stroke-width="0.5539669437935293"/>
	<path d="M 267.6075218155558,75.70619452604618 L 267.6075218155558,113.52682529544006 L 267.73888488143314,122.18238578972333 L 267.4359392894379,131.8572961057946 L 262.0044203311862,137.25049172690194 L 252.37719735796512,137.71108274596452 L 241.79325791842948,136.83746081971077 L 233.6325048818386,138.13766892263254 L 228.5587617849487,144.21015951161593 L 224.20559384366112,153.89789540808687 L 220.7226515492173,164.1698126686106 L 218.2595853928587,171.99484734975232" fill="none" stroke="#000000" stroke-width="0.5539669437935293"/>
	<path d="M 212.24154436570063,159.95876529543594 L 217.05597718742717,159.95876529543594" fill="none" stroke="#000000" stroke-width="0.5539669437935293"/>
	<path d="M 213.4451525711323,144.31185862482468 L 221.87041000915372,144.31185862482468" fill="none" stroke="#000000" stroke-width="0.5539669437935293"/>
	<path d="M 209.8343279548374,137.0902130030595 L 225.48123462544862,137.0902130030595" fill="none" stroke="#000000" stroke-width="0.5539669437935293"/>
	<path d="M 221.87041000915372,128.66495556503807 L 232.70288385803843,128.66495556503807" fill="none" stroke="#000000" stroke-width="0.5539669437935293"/>
	<path d="M 242.3317495014915,114.22165709985846 L 259.18226437753435,114.22165709985846" fill="none" stroke="#000000" stroke-width="0.5539669437935293"/>
	<path d="M 239.92453309062824,98.57475042924722 L 259.18226437753435,98.57475042924722" fill="none" stroke="#000000" stroke-width="0.5539669437935293"/>
	<path d="M 226.68484283088026,105.79639966183703 L 241.12814129605985,105.79639966183703" fill="none" stroke="#000000" stroke-width="0.5539669437935293"/>
	<path d="M 208.63071974940576,114.22165709985846 L 221.87041000915372,114.22165709985846" fill="none" stroke="#000000" stroke-width="0.5539669437935293"/>
	<path d="M 202.61267872224758,121.44330633244827 L 238.7209248851966,121.44330633244827" fill="none" stroke="#000000" stroke-width="0.5539669437935293"/>
	<path d="M 199.00185410595267,128.66495556503807 L 205.01989513311085,128.66495556503807" fill="none" stroke="#000000" stroke-width="0.5539669437935293"/>
	<path d="M 191.7802096877957,137.0902130030595 L 200.2054623113843,137.0902130030595" fill="none" stroke="#000000" stroke-width="0.5539669437935293"/>
	<path d="M 201.40907051681594,151.5335078574145 L 219.46319359829045,151.5335078574145" fill="none" stroke="#000000" stroke-width="0.5539669437935293"/>
	<path d="M 202.61267872224758,167.18041452802572 L 214.64876077656393,167.18041452802572" fill="none" stroke="#000000" stroke-width="0.5539669437935293"/>
	<path d="M 186.96577686606915,151.5335078574145 L 194.18742128422616,151.5335078574145" fill="none" stroke="#000000" stroke-width="0.5539669437935293"/>
	<path d="M 185.76216866063754,144.31185862482468 L 207.42711154397412,144.31185862482468" fill="none" stroke="#000000" stroke-width="0.5539669437935293"/>
	<path d="M 178.54051942804773,159.95876529543594 L 192.9838178932273,159.95876529543594" fill="none" stroke="#000000" stroke-width="0.5539669437935293"/>
	<path d="M 173.7260866063212,167.18041452802572 L 195.3910294896578,167.18041452802572" fill="none" stroke="#000000" stroke-width="0.5539669437935293"/>
	<path d="M 164.0972209628681,167.18041452802572 L 169.86037647830403,159.16370588544777 L 175.22947196944622,150.83810375664075 L 180.35236988354728,142.33259303445024 L 185.37693266785973,133.7761586117218 L 190.29539659355626,125.31903249404716 L 195.19720285846984,116.4299651527872 L 201.3407760342082,109.01166304532826 L 209.50547168828328,104.23214843121447 L 218.97508843603083,100.63479139114212 L 228.4647444862431,96.87300284901207 L 236.55543795694672,91.89755388260491 L 244.70570488138316,85.81112959872507 L 253.57458753496812,79.84529898046705 L 262.37565425086007,75.85050627400558 L 270.2246043096386,75.71427494598974 L 279.0786917508432,79.55106322161885 L 288.4093235125828,86.01887745052127 L 297.0452430231846,93.78557293652528 L 303.8151937109759,101.51900498345908 L 307.71875958875637,108.33598441327007 L 310.4743089894607,118.41500268481958 L 315.3139133326261,126.38806048562735 L 324.3433875498869,128.60562991483687 L 334.54399801683047,127.72082632744713 L 344.6032520071302,127.84487595962027 L 353.05651766960574,132.18429013480136 L 360.2935486888745,138.41380881916592 L 366.9971406357263,145.7110937138744 L 373.3088540944764,153.71980082058306 L 379.37024964944,162.08358614094828 L 385.3228878849324,170.4461056766263 L 391.3083293852689,178.45101542927335 L 397.4681347347648,185.74197140054576 L 405.3965247951621,191.52477980563933 L 414.56451158142784,194.02723239226873 L 423.2605803814417,198.81225378987278 L 430.3489320656378,205.6054264906162 L 436.7712171663873,213.35222008795543 L 442.91685867790966,221.278478197212 L 449.441137719902,223.70228382203476 L 456.8285392139034,216.61892972102459 L 464.57407793021264,210.21756425084615 L 472.15394982040254,206.13535255009148 L 470.09762891316984,214.94423976481127 L 467.0034050726145,224.8834338492204 L 463.9851650564158,234.74276932745244 L 461.1520137284515,244.23689383057825 L 458.3640008065658,253.7465981514808 L 455.60807842432564,263.26318233119764 L 453.02170575844224,272.60925683658854 L 450.52177283825904,282.66236579281656 L 445.70327696612304,290.8632087494494 L 436.09151831653895,292.2892876077829 L 426.1218540963618,291.1274434437455 L 416.51433207107686,292.66520227101205 L 408.86486356509613,297.6472932882094 L 403.01853105798784,305.2257385409154 L 397.80066803525267,314.10298764638196 L 392.93487586326114,323.4762856113009 L 388.1447559083843,332.542877442364 L 383.1539095369928,340.50000814626287" fill="none" stroke="#000000" stroke-width="0.5539669437935293"/>
	<path d="M 256.7750479666711,358.55413122773757 L 256.26722611099353,361.14576437434357 L 261.9674841622063,354.13052760538176 L 271.71843390889205,350.5796800865845 L 281.41871484534136,348.83752784962684 L 291.30892605367853,347.7934552824414 L 300.9867491962049,346.737186448803 L 310.60944184249956,344.83498938534575 L 320.1084691576407,342.24813385874074 L 329.56966031776244,339.52231682293836 L 339.078844498999,337.20323523188887 L 348.7218508774844,335.8365860395426 L 358.9484250264548,336.1066981856514 L 368.0293132177293,339.50731376054074 L 375.7190615433535,344.7389567102411 L 384.23932176046156,349.81791797032724 L 394.0693506415309,351.63704796167036 L 403.444611510736,351.59187213418005 L 412.0804139973881,354.9619874771831 L 417.7489119329549,363.768577009938 L 418.2658842813802,373.3187139177612 L 417.03952737719726,382.76279624596816 L 414.52608436851233,392.71168466378157 L 407.99933906612944,399.3860389095815 L 403.62499748258824,408.0878238458969 L 398.9130737514838,408.5465940689034 L 394.1063050373026,400.0473366094889 L 382.30028789131416,384.30374303965607 L 378.53908449986903,376.38619136522595 L 377.1358685098345,365.77578046032716" fill="none" stroke="#000000" stroke-width="0.5539669437935293"/>
	<path d="M 321.76989105997933,138.29382120849112 L 332.60236490886405,138.29382120849112" fill="none" stroke="#000000" stroke-width="0.5539669437935293"/>
	<path d="M 302.5121597730732,68.48454529345636 L 307.32659259479976,68.48454529345636" fill="none" stroke="#000000" stroke-width="0.5539669437935293"/>
	<path d="M 289.27246951332523,57.65207144457167 L 320.5662828545477,57.65207144457167" fill="none" stroke="#000000" stroke-width="0.5539669437935293"/>
	<path d="M 326.58432388170587,56.44846323914003 L 326.58432388170587,57.65207144457167" fill="none" stroke="#000000" stroke-width="0.5539669437935293"/>
	<path d="M 304.9193761839365,46.81959759568696 L 332.60236490886405,46.81959759568696" fill="none" stroke="#000000" stroke-width="0.5539669437935293"/>
	<path d="M 271.2183464318507,46.81959759568696 L 286.86525310246196,46.81959759568696" fill="none" stroke="#000000" stroke-width="0.5539669437935293"/>
	<path d="M 159.28278814114157,133.4793883867646 L 159.28278814114157,134.68299659219622" fill="none" stroke="#000000" stroke-width="0.5539669437935293"/>
	<path d="M 148.45031429225685,170.79123914432063 L 152.6222295354132,178.62958983677385 L 161.78275131409072,180.40990508536223 L 172.46603115104426,180.4201047877737 L 201.84979177184795,180.4201047877737 L 211.54423799096423,180.39412122633445 L 221.59727778089606,180.08777498443527 L 230.9722087053218,181.81661374694855 L 237.91710451761222,188.45824163508343 L 243.1777366562483,196.7391637362455 L 248.18490067170075,204.78638945184338 L 253.45121391006285,213.5072833419931 L 259.0378741462975,222.13457307702868 L 265.0060791553675,229.90098632728441 L 271.9890628958712,235.97408160645142 L 281.94323651927766,236.90797124896895 L 285.6616448970303,230.97164941590228" fill="none" stroke="#000000" stroke-width="0.5539669437935293"/>
	<path d="M 153.26474711398342,174.40206376061556 L 149.6539224976885,178.01288837691047" fill="none" stroke="#000000" stroke-width="0.5539669437935293"/>
	<path d="M 147.2467060868252,179.21649658234207 L 141.0705011342954,180.4326882886711 L 133.7093492528879,180.5601307832704 L 124.37815018362426,180.4201047877738" fill="none" stroke="#000000" stroke-width="0.5539669437935293"/>
	<path d="M 143.63588147053036,174.40206376061556 L 147.24670608682524,178.01288837691047" fill="none" stroke="#000000" stroke-width="0.5539669437935293"/>
	<path d="M 91.88072863697006,215.3247427452911 L 94.64211848197958,206.6865351534546 L 100.5881277342929,200.8031906410817 L 109.21128892213284,198.62322624059854 L 117.86707726950384,200.75493578255185 L 126.53115385858584,201.75962467458604 L 135.0617585734015,202.8832881951902 L 140.6060351929421,209.73747035650285 L 137.90969180700188,217.31957903549676 L 130.39619121078238,222.54640401396293" fill="none" stroke="#000000" stroke-width="0.5539669437935293"/>
	<path d="M 88.26990402067517,246.6185681225956 L 114.74928454017112,246.6185681225956" fill="none" stroke="#000000" stroke-width="0.5539669437935293"/>
	<path d="M 103.9168106912864,270.69073223122825 L 121.97093377276092,271.89434043665995" fill="none" stroke="#000000" stroke-width="0.5539669437935293"/>
	<path d="M 134.00701582707725,297.17011275072423 L 137.77812833161605,304.70956928910795 L 146.04309788139358,303.1881537778824" fill="none" stroke="#000000" stroke-width="0.5539669437935293"/>
	<path d="M 142.43227326509867,299.5773291615875 L 135.2106240325089,308.00258659960895" fill="none" stroke="#000000" stroke-width="0.5539669437935293"/>
	<path d="M 138.8214486488038,297.17011275072423 L 136.41423223794052,303.1881537778824" fill="none" stroke="#000000" stroke-width="0.5539669437935293"/>
	<path d="M 100.30598607499151,293.5592881344293 L 96.83058982084653,302.1605926117226 L 102.29090999604429,309.579945598873 L 107.16941825290752,316.12002489869894 L 113.45235772655803,324.15164181710946 L 120.38459192686528,332.5027438947008 L 126.87809297534503,339.54517385603134 L 130.59235090264593,337.2677502299866 L 132.7795688482243,326.8162165320218 L 134.3489504416438,317.4443805303758 L 134.47574094622144,308.71331189122674 L 129.19258300535068,300.78093736701913" fill="none" stroke="#000000" stroke-width="0.5539669437935293"/>
	<path d="M 94.28794504783333,303.1881537778824 L 90.67712043153844,304.39176198331404" fill="none" stroke="#000000" stroke-width="0.5539669437935293"/>
	<path d="M 93.0843368424017,301.98454557245077 L 94.28794504783333,303.1881537778824" fill="none" stroke="#000000" stroke-width="0.5539669437935293"/>
	<path d="M 88.26990402067517,298.37372095615586 L 91.37536452739211,302.0856183943664 L 85.8626876098119,303.1881537778824" fill="none" stroke="#000000" stroke-width="0.5539669437935293"/>
	<path d="M 90.67712043153844,294.76289633986096 L 95.49155325326497,300.78093736701913" fill="none" stroke="#000000" stroke-width="0.5539669437935293"/>
	<path d="M 94.28794504783333,292.3556799289977 L 95.49155325326498,300.7809373670191" fill="none" stroke="#000000" stroke-width="0.5539669437935293"/>
	<path d="M 73.82660074106275,234.58247403219724 L 130.39619121078238,234.58247403219724" fill="none" stroke="#000000" stroke-width="0.5539669437935293"/>
</svg>
