<?xml version="1.0" ?>
<svg xmlns="http://www.w3.org/2000/svg" xmlns:ev="http://www.w3.org/2001/xml-events" xmlns:xlink="http://www.w3.org/1999/xlink" baseProfile="full" height="600px" version="1.1" viewBox="-0.625 -0.625 901.25 1251.25" width="433px">
	<defs/>
	<path d="M 0.0,0.0 L 900.0,0.0 L 900.0,1250.0 L 0.0,1250.0 L 0.0,0.0" fill="none" stroke="#000000" stroke-width="1.25"/>
	<path d="M 43.0,31.0 L 47.0,31.0 L 47.0,35.0 L 43.0,35.0 L 43.0,31.0" fill="none" stroke="#000000" stroke-width="1.25"/>
	<path d="M 863.0,31.0 L 867.0,31.0 L 867.0,35.0 L 863.0,35.0 L 863.0,31.0" fill="none" stroke="#000000" stroke-width="1.25"/>
	<path d="M 100.0,330.0 L 800.0,330.0 L 800.0,830.0 L 100.0,830.0 L 100.0,330.0" fill="none" stroke="#000000" stroke-width="1.25"/>
	<path d="M 149.9999925609754,691.2040417607111 L 154.0581511535176,691.8324816258161 L 159.1788386107101,691.6926686171455 L 164.417057394722,690.6120805375609 L 169.04375422231107,689.2887355310407 L 174.0472278641335,687.7938636928227 L 179.14719522732062,686.395539783641 L 184.11075444441127,685.3539706461471 L 189.0188856794247,684.7685475029023 L 193.74207154551843,684.3330960835824 L 198.5547767031889,683.5679454718934 L 203.70089982243297,682.005407141635 L 208.32316339639831,679.8905080418283 L 213.07356034624618,677.2567702354115 L 217.66624510533237,674.430699358302 L 221.8153721070135,671.7388010464495 L 225.44028935946827,669.3767325614783 L 230.8706046347554,666.6535976542002 L 232.30365879427174,669.2132027863377 L 231.62021932168383,674.6672113204763 L 231.13531006136188,679.8320649115105 L 234.4924754628882,682.3080298627881 L 239.78515693430322,683.2558860589888 L 244.71676247792215,682.4517884700948 L 246.38431927180218,678.5321446015271 L 244.69399767730462,674.2808066358049 L 243.97807695454324,668.912682645516 L 244.36783254383357,663.7004397947644 L 245.50363166101977,658.8428440965772 L 248.49845788082504,655.2043611420402 L 252.67791446402677,652.4613556200245 L 257.1815814382952,649.776401027342 L 261.26066081350496,647.2706690912379 L 265.74072170504644,647.5854145016543 L 268.32631861432435,651.4216314321135 L 268.6321661469955,656.5076049050006 L 268.0894940713839,661.8255647174697 L 267.2179233719579,666.9568241005489 L 265.9078172166152,672.2042356578343 L 264.1505445375863,676.2479419834999 L 262.5316663961693,680.8155176150801 L 266.16978836570433,683.6774950380419 L 271.1789416131195,684.4696659159803 L 276.099399850214,683.565433403947 L 277.2978664504385,679.3171581284929 L 276.87572477368684,674.3523054733765 L 277.4837014008082,670.8663438654067 L 279.4814734434553,665.2014015582004 L 281.4773264527696,660.2405040246231 L 285.58189960201094,650.3033059716672 L 287.51949316944126,645.5662570418422 L 289.35898053038557,640.8789276449231 L 290.8460706589542,635.4918271316797 L 287.86170124996374,634.0987359146247 L 285.5111148726403,638.1292696098149 L 284.5962495649511,643.1770856464417 L 284.88095799859167,647.8083741701117 L 288.23941236869587,651.2489064261364 L 292.8170321674695,653.8418792568672 L 297.87908406017914,655.3536830705913 L 302.6134144240198,656.3486951463076 L 307.0276421518148,658.445553616121 L 310.1134455745595,661.9466963244623 L 312.7852520593486,666.5733694380062 L 315.17434904082756,671.3701667812174 L 317.8807454170044,675.3451596738172 L 322.25821778917106,675.9556323317421 L 326.7398891518559,673.5646554849768 L 330.1280677653529,669.800730139566 L 329.16308509394173,665.34193065648 L 325.0969634519005,662.580010926306 L 321.6949487785788,658.9346397060968 L 319.07905982156404,655.1259272022827 L 315.9486362680268,650.7569917358397 L 312.475141369992,646.6173989299439 L 309.29650344944935,643.0389058018927 L 306.3445010487555,638.8593503639638 L 304.6055983749255,634.3355943386922 L 303.88527402003086,629.2323318798319 L 307.1552249382923,627.6370133752139 L 312.26613034069993,629.041594363027 L 317.06182749417786,629.2305270135325 L 319.9486865075485,625.6028857447304 L 320.4792427576525,620.9050716926341 L 324.94172565635427,620.6924876276563 L 330.36055863379084,621.7852599281165 L 335.18146852921546,622.6501478582898 L 339.73445666501823,621.2548413214812 L 344.005003940312,618.6086440532926 L 348.8395707078381,618.670720473145 L 353.53354396755645,620.7399323055198 L 357.8501085240201,620.4499912486538 L 355.9149536482734,616.301731775767 L 351.3979389301748,613.7279470577862 L 346.44368535175744,612.5468472197614 L 341.63477436940695,612.3057996768007 L 336.5397181273034,612.703210387326 L 331.4407739743379,613.2423443206081 L 326.2572045598432,613.5511708199666 L 321.6436935502626,612.9610548401007 L 317.15024319338573,610.8490828596599 L 313.4379152070527,607.3475768038996 L 310.5812546106045,603.2726403887423 L 308.05052530013324,599.0514594138177 L 304.97479224645235,595.6038129505571 L 300.64230687486884,592.6072760765925 L 296.054551108925,590.5978924283521 L 291.26794932524507,589.216608129726 L 287.288535433109,588.5815792471093 L 282.34489692155876,588.2546805583431 L 276.44939671941074,588.0894966730114 L 271.6011938956392,588.0019104445234 L 266.33161187880137,587.9441006827476 L 261.0112902433233,587.9335876975513 L 256.0108685636303,587.9878917991471 L 250.17442669097673,588.2037853429389 L 244.65583550076033,588.7133721725468 L 241.17930434481087,589.3190564913814 L 236.60841570788705,590.7882904754802 L 232.36917812477145,593.167495157305 L 228.36623990448967,596.3697398750303 L 225.33746193807443,600.0006576646064 L 222.81273554923763,604.4681082316991 L 220.7614228540613,609.1787409850704 L 219.10561479673936,613.8590424385516 L 218.06870980029308,618.7864044098001 L 217.20902978075316,623.4589932505118 L 215.7071001621154,628.378971320089 L 213.36166363386857,633.0455012227602 L 210.5454390091896,636.8949326288813 L 206.7500985337113,640.038700513903 L 202.3747983940106,642.1688891475306 L 197.27787087837,643.5749555953225 L 192.30037033445666,643.8661447261904 L 187.20765568086873,642.6401630989498 L 185.46452360893355,639.2170400641569 L 190.1864554402946,638.6868789812759 L 195.17853781442352,638.6921172050912 L 200.07214714592297,637.5194934139711 L 204.6474727896722,635.2476245931214 L 208.74679725374486,632.1780364254693 L 212.58376561386362,629.1105245259788 L 217.05184376102815,629.8391651161212 L 219.24022043392054,634.2203518129484 L 219.40585742024837,638.9941015445926 L 218.5519372179746,644.0983755566034 L 217.4653423848244,649.0189409562724 L 216.84809147996216,654.2824932138356 L 215.96730439598159,658.9308590215951 L 213.20210480353626,662.242249400053 L 208.52726994929137,665.2318166713533 L 203.82880277208577,667.6235803140062 L 199.46526670149333,669.8182592035854 L 195.95692600658705,672.9210990512668 L 196.8974546757379,677.5045294999738 L 201.31729438467835,678.9925033749387 L 205.71029341934235,677.0645137437173 L 209.81541144393796,673.7174211148766 L 213.40487944203082,670.7679585983192 L 217.46231811463298,667.6173875494146 L 221.7012047969021,664.4746220013742 L 225.80625679567547,661.3844054682681 L 229.60230488413237,658.1825443154194 L 233.10832355176098,654.2946508479108 L 235.50745515975376,650.0909539341864 L 236.87003087831562,645.5178823319878 L 237.41530115038913,640.560650097828 L 237.4535345168674,635.2730125656201 L 237.4040780506292,630.2508004241078 L 238.41915251394116,625.4378010889043 L 242.5782825017647,625.524227843266 L 246.12444120279187,628.1777175290699 L 250.80115043759648,631.0953950457123 L 255.39157320030787,632.8991406615355 L 260.3982500881107,633.8840113915219 L 265.3145595223759,633.7837444850767 L 270.1244622671978,632.6074027398713 L 274.89658326290476,630.3977972097705 L 279.40199555566414,627.3985030059503 L 282.81151550124787,624.3628324485676 L 284.66301714760255,620.0749049351602 L 282.87144794636265,615.7158928900581 L 280.38143681694044,611.1095004051361 L 278.46059983850466,606.4783998331447 L 278.0442380605881,601.6374371997 L 279.136975022715,596.9406576566399 L 281.8435163140303,592.5243665162917 L 285.5756892513898,589.5143739713395 L 290.26923598480096,587.4917354538286 L 295.00227000331313,586.6525750574237 L 299.846417981867,586.5637406383753 L 305.1361610718454,586.819788065465 L 310.27293749856295,587.0988263111384 L 315.4051558352925,587.468429386811 L 320.33651159995026,588.113733327911 L 325.21295422880866,589.3718134050332 L 329.72182516895015,591.508421603117 L 333.5775344491616,594.3688207552757 L 337.09588922459096,597.857125744244 L 340.59234068660203,601.4826232042326 L 344.37529705604135,604.5874566057665 L 348.487138819566,606.8634124421756 L 353.03518777965627,609.0406133443058 L 357.65325532151576,611.617980244793 L 361.9637948381655,614.4719311984715 L 366.231154503597,617.315189016936 L 370.40634977077406,619.6600190604995 L 375.62517057390033,621.2275619805105 L 380.1617417501033,621.0564136863958 L 384.44554520305803,619.3987853561144 L 388.3811192126647,616.2214100834742 L 391.0433029240644,612.9882019078588 L 393.2628959442741,609.2768046194178 L 395.4092468832474,604.2676916842144 L 397.1801713307583,598.6126799242904 L 398.2931156134417,594.1832549290384 L 399.3535851521371,589.3364838798383 L 400.34851144525544,584.2328419274809 L 401.26482599120817,579.03280422269 L 402.0894602884067,573.8968459161114 L 402.8408131333331,568.7608582749734 L 403.56590807173455,563.3744848533323 L 404.2362124526018,558.3395458854432 L 404.9348870680183,553.5549125470338 L 405.74509271006787,548.9194560138852 L 406.7537754369763,544.316605569311 L 408.05711968176126,539.5920684941443 L 409.6568958288204,534.8832256651588 L 411.56668511066306,530.2410995987655 L 413.80006875979797,525.7167128113226 L 416.36501386133,521.3697693647571 L 419.22910561963295,517.2917367705113 L 422.4110135330855,513.4501854422774 L 425.892894096633,509.87158355412913 L 429.6569038052212,506.58239928012046 L 433.6816007272112,503.6115313298294 L 437.8747846801016,501.0202190248591 L 442.2812207428483,498.75774075621126 L 446.87703190000065,496.8240891528193 L 451.6383411361075,495.21925684364555 L 456.5412714357175,493.94323645768526 L 461.3734998222866,493.0219156209104 L 466.2688564443176,492.3803432226244 L 471.23765882761916,491.9807518544741 L 476.2630549978277,491.7914404385771 L 481.3281929805786,491.7807078970784 L 486.6152669754533,491.9246548274554 L 492.08089731101325,492.2014372121879 L 497.3580749963572,492.5593829873859 L 502.3071341535815,492.9495375078585 L 506.78840890478233,493.32294612853946 L 511.74927261681563,493.7059936595237 L 516.7839231393291,493.87798415244987 L 521.330466021032,493.54035730855145 L 525.7434167691722,492.6591083402031 L 530.0974769277948,491.4399877462071 L 534.9034567964402,489.88922106088745 L 540.0894674004837,488.1031518893867 L 545.1188771276414,486.3386163416417 L 549.9150609371115,484.64351834951606 L 554.7220108168734,482.91178040772934 L 559.4182145087397,481.1642038991728 L 563.8821597545237,479.42159020686984 L 568.9432098463569,477.3077751155517 L 573.6067002113775,475.25357681176916 L 577.9380425982596,473.3196774509319 L 582.2761491027421,471.45413170327714 L 587.0815896284292,469.6166724619369 L 591.7968555374046,468.21510958940945 L 596.5702193697977,467.3668974873155 L 601.604102289301,467.22122038040226 L 606.516489766092,467.9292278010258 L 611.3239861482062,469.6479041286648 L 615.9136628479798,472.32728985859194 L 619.7074932458908,475.137139233668 L 623.2340345010241,477.9826610847571 L 627.0201172195647,481.304774142896 L 630.6259605939294,484.6313899716965 L 634.4839434036367,488.25639594199157 L 638.1850240900764,491.79440140175143 L 641.8321944827211,495.4404006766367 L 644.7119800677599,499.03111492830453 L 647.1109349295907,503.1186382257197 L 649.3030553001902,507.44734524439923 L 651.6059427819521,512.2044908019104 L 653.8978597011583,516.8982518383823 L 656.1396987815301,521.2855540473333 L 658.4564398908201,525.5991563039529 L 660.961234902166,530.0677293757531 L 663.4585014446938,534.4075395752536 L 666.0276365666152,538.8598069439402 L 668.4863887836744,543.2029811359407 L 670.8117057376226,547.5251789007797 L 672.8801802525443,551.8704477357126 L 674.6397986064144,556.4451383040733 L 676.0843358850248,561.2649216475008 L 677.2325963174978,566.0208474831062 L 678.226912549267,571.0714539389426 L 679.0030834935296,576.1506011157269 L 679.5217912774102,581.3127458219434 L 679.7216951304555,586.4280901996134 L 679.6322740170378,591.293769711889 L 679.3310326914193,596.0768804948401 L 678.8655899786638,601.1692990285916 L 677.8248575323902,611.041267530624 L 677.3944869878525,615.9022632876955 L 677.1378854637926,620.7442264735232 L 677.1108700931688,625.8501926711951 L 677.3101970034334,630.7792827813391 L 677.7043533398107,635.8255438198906 L 678.2897101638044,640.9029362201535 L 679.0960821232966,645.9518042231197 L 680.237549191752,651.1542054755184 L 681.5957129455544,655.832431209521 L 683.2743080232381,660.3632390643467 L 685.53473439049,665.2824720824332 L 687.589128397064,669.1545424796769 L 690.0172589885566,673.7021007810365 L 690.2703932158694,678.4752307852067 L 686.0666905694575,679.9896745314276 L 680.9607860968396,679.4585947779997 L 676.2290432936633,680.089285903792 L 672.6747113377851,677.0837244953284 L 671.4558519646951,672.4468220326797 L 670.7533111343164,667.3593325641142 L 669.9654706177017,662.4453658903967 L 669.007323456829,657.6753159555127 L 667.9536325401332,653.1884524199378 L 665.4405159564351,643.1130168408217 L 664.2996956759566,638.3262174170709 L 663.2126903171426,633.2680327570325 L 662.2931609463527,628.1257238827019 L 661.610047482947,622.7975077085283 L 661.1967193403924,617.6236266986606 L 660.9833223627264,612.7480883521522 L 660.887790894903,608.1369049417134 L 660.8233230954839,603.0031078740298 L 660.7008008783398,598.1503043074856 L 660.4023020375786,593.2237359778784 L 659.8780955424086,588.1958903480531 L 659.1555568304761,583.1501431296617 L 658.2492677355951,578.247381288443 L 656.8483691992369,572.5670418373148 L 655.5159918496231,568.713978524214 L 651.7159231547474,566.4912491030312 L 646.865244320873,566.488825630758 L 643.4437780126967,563.1781656701728 L 640.1284368413693,559.3592178678127 L 636.2323074731154,555.7738256203023 L 631.8967858505732,553.0939480543765 L 627.1640925518695,551.7385787616638 L 622.2580931094994,551.9155315646615 L 617.5482310884141,553.3437063829244 L 613.9447421379797,556.7323656191717 L 611.134632773471,560.9825230990502 L 607.4897151329723,564.1532484323255 L 602.7387345079152,563.8195581205556 L 598.8623585643464,560.6916673289852 L 595.9817383841922,556.5930645682407 L 592.8851032670195,552.7136571717945 L 589.502090390368,549.8222818603614 L 584.8820058712722,547.4737463946595 L 580.4292393057549,545.7093158405409 L 575.468254342038,543.5511660817808 L 570.8636867516761,540.9966159261978 L 566.6481792858232,538.0896982172314 L 562.9087382457539,535.015558261059 L 559.2768056742068,531.3645442697616 L 556.4296723296911,527.4476001303983 L 554.2925727233265,522.9733831576419 L 552.7700447762727,518.0367422803208 L 551.8727490470528,513.189532688081 L 551.8842386129727,508.202592848246 L 553.3779650475014,503.71494530790903 L 556.6401292786463,500.04012031458694 L 561.0638909064071,497.89255939338534 L 565.7921532985596,496.21930505231404 L 570.3912681959418,494.2561013491188 L 574.5878356761054,491.66741458074074 L 578.5533903649564,488.56085244704104 L 582.5244826830823,485.15408400880364 L 586.4417154997199,481.8437266717503 L 590.3601453063143,478.97691273881463 L 594.9393457494995,476.79882340404805 L 599.7211474461673,476.26208024966525 L 604.5317986104908,477.49226660570815 L 608.3732140772591,480.4805386564985 L 610.7173261774029,484.5318224010618 L 611.9865861969887,489.05460619402766 L 612.6828254548606,494.37354996368845 L 612.9342833792646,499.16393346948786 L 612.8247972702699,504.37187879059644 L 612.2024746267945,509.6685485420302 L 610.9664514601221,514.8440721372401 L 609.282890122077,519.5334866466421 L 607.2483058500252,523.7128929537345 L 604.4474969594366,527.9069247618647 L 601.2216111097256,531.530804095803 L 597.6242787001752,535.0881936724247 L 594.0930342453732,538.7822369114457 L 591.2585675240231,542.7191338748711 L 589.5905300328709,547.2237728012288 L 588.9392621343341,552.2051578116941 L 588.7881483502551,557.0601636262987 L 588.9211456648575,562.223445955547 L 589.2878522900642,567.2951119139307 L 589.6962321672996,572.2253397857717 L 589.840584049999,577.233105556394 L 589.5026845191505,582.099153772813 L 588.7235101287639,587.0555410925908 L 587.588905438613,592.0249154606504 L 586.1952298114468,596.8985358965032 L 583.1960419852876,606.3576981918119 L 581.8061535076749,611.2481573447859 L 580.679416552025,616.091881621721 L 579.8822519287895,620.8710872792883 L 579.404714195872,625.594306353181 L 579.0904129729702,630.6216266455608 L 578.8188118679034,635.7945099997198 L 578.534841689835,640.7591823953707 L 578.2068849193491,645.8607845143581 L 577.836853356599,650.8564803116219 L 577.3249330527143,656.6297825203181 L 576.8090104836751,661.637849591742 L 576.2862749640296,666.2375241605059 L 575.9700388727596,670.7267848206214 L 577.2658883816379,675.4653705590966 L 579.9073523136556,679.7440459644836 L 580.2288180441078,684.7310953148408 L 576.7823557809403,686.4109887819347 L 571.3514892032638,686.721288066315 L 566.0917660331814,686.7636039884322 L 560.7139570802071,686.1038527092533 L 556.4600124250762,684.3491545573022 L 553.015096358022,680.803490368409 L 552.651917665941,676.0753499159326 L 553.7886792966242,671.4546000913864 L 554.9550128563873,666.5488129949166 L 555.6392927256643,662.8089013318963 L 556.1638762371001,658.8474216077427 L 556.5971190951117,653.602137870284 L 556.8653152868299,646.7178525558089 L 556.919314494991,641.6046220680524 L 556.898955681683,636.4312650319853 L 556.8238530311951,631.0228169505504 L 556.705988463329,625.5920299914753 L 556.5573438978859,620.3516563224061 L 556.3899012546666,615.5144481109019 L 556.2156424534733,611.2931575244415 L 555.7473044437097,603.6333430168075 L 555.1652670525311,600.0284332668031 L 552.8627995668259,597.4681635039786 L 548.4056686801425,597.860898150099 L 543.762181886862,600.130711008635 L 540.0275587495685,602.1046888358342 L 535.4651966114054,604.2996273801788 L 530.2478127141285,606.45514649987 L 525.7766436450106,608.0709308970917 L 520.9071897687859,609.6399491835747 L 515.8757702800451,611.0532137406049 L 510.8654051013097,612.2126918829648 L 505.8750468658335,613.0703675676888 L 500.9982100460301,613.6342632901765 L 496.0908957567089,613.9816984797435 L 490.96319851284574,614.1912765483759 L 485.5584097745446,614.3221434068771 L 480.31917156098905,614.3994977437245 L 475.6047379613583,614.4511995117002 L 470.29138929581353,614.5390175741134 L 465.6080594091683,614.820777377951 L 461.4189314289543,615.5592402682801 L 456.5548275023989,617.1891474624289 L 452.4166896112475,619.2811028350563 L 448.10438527003987,622.0088187572096 L 443.7889062278158,625.1365595099008 L 439.730171121621,628.294705446438 L 435.82031579452445,631.4089709888214 L 431.6627200478097,634.6675319008839 L 427.8001521782932,637.6200975260327 L 423.97431041152146,640.6233319362145 L 420.4100327976914,644.0177616342118 L 418.1155894642891,647.7970322934038 L 416.854397561148,653.0371940950612 L 416.3291084252472,657.702543583675 L 415.99650715994164,662.9105976251353 L 415.8662329886444,668.3256816295439 L 415.94999305874614,673.6883536560542 L 416.13440345964057,678.0587052620886 L 416.29650659757544,683.2489247492847 L 415.0541153695109,687.6674369672902 L 410.74723055176383,689.9868404040791 L 405.8456689732695,690.2390051068181 L 400.45065021516683,689.2902954522226 L 396.0188125091675,687.1833436590898 L 394.58573099186714,682.9325366346081 L 395.12614859955806,678.0615394096785 L 396.1996445745438,673.9616488975394 L 397.26323449592644,668.3298019209707 L 397.82774630771905,663.7406860490166 L 398.32793913638557,658.5943831542965 L 398.7749234382012,653.2739086587745 L 399.20954130229546,647.8311810124995 L 399.6824072506436,642.6727998390248 L 400.285185462572,637.9771483007071 L 401.2793685662095,633.1539043034578 L 402.8256334518137,628.3577313332681 L 404.68485443450453,624.0371064271867 L 406.9296609274696,619.5350513427717 L 409.2539782173574,615.1553196394506 L 411.51806494958817,610.7819977074485 L 413.5385346182856,606.1960137813795 L 414.84552455172644,602.1832903221571 L 415.7740658007246,597.873565152477 L 416.54031612400354,592.2237637282118 L 417.0385772524775,586.8272835775615 L 417.40569178032587,581.8226445775861 L 417.7404553982877,576.5401955222942 L 418.0399018735907,571.2849557300773 L 418.3010649734632,566.3619445191653 L 418.59446197159866,560.6518391124222 L 418.9057021251935,555.1628043020216 L 419.2434274262255,551.040754655467 L 419.93182115766047,546.320199945487 L 420.9378763643532,541.6745259154674 L 421.95610030733053,536.8527839109677 L 420.23793956114076,532.7638743639754 L 416.3368908028114,534.7610408813377 L 414.6226590525843,539.2774540838764 L 413.1441898235955,544.5224237614453 L 412.28841211938135,549.3228544605021 L 411.78726178808824,554.4154027324802 L 411.67469209200294,559.2039000957132 L 412.03819050273125,564.3416882843168 L 412.86372736200184,569.1703338628201 L 414.18210698439447,574.0352282580004 L 416.0447549041971,578.8011655333971 L 418.40414276565764,583.1984982340708 L 421.21374802534393,587.3224988386995 L 424.4161689190066,591.2350633602334 L 427.9184982391666,594.950249606748 L 431.4723432420688,598.3448993313037 L 435.19471742428306,601.6517102830887 L 438.86103486291336,604.9332729247288 L 442.26011333096926,608.3706829027126 L 445.2948736539477,611.9900508282512 L 448.34784355700424,616.1729460078369 L 451.1469498697217,620.4576740528668 L 453.67452586705406,624.7603429493703 L 455.99117799555376,629.2910249111345 L 457.8814184284608,633.8066297982365 L 459.2384971254062,638.0880997636458 L 460.31296456481743,642.7395543155244 L 461.2188215463023,648.0622956351244 L 461.9530499379857,653.4329189581499 L 462.58699640866,658.6649431454853 L 463.18856271145,663.9922784008377 L 464.2211953174333,673.5300911038281 L 464.9740714607717,679.9018183241241 L 465.70168878656335,683.7231000704951 L 467.9150272563895,687.6440394831134 L 472.419656417898,688.9412445249419 L 477.4448224961919,689.3021521889887 L 482.729403687778,688.9358814464333 L 486.8140381504356,686.6195739436656 L 489.19252433804286,682.3485839500404 L 487.5978296642479,677.6985838325686 L 485.0794289342343,673.3596453382474 L 482.6599426311702,669.0506214780911 L 481.88049856073354,664.444894377127 L 481.138554014705,654.6122799697706 L 480.6430449543761,649.0853710291942 L 480.0560801849979,643.8931168433166 L 479.34777126286747,639.005055616412 L 478.3511443478462,633.911521362578 L 477.0974647311572,628.9608028738678 L 475.9969819404806,624.3327333406748 L 475.5003223871709,619.4876984654665 L 475.83161673336105,614.9449171119115 L 478.0572921703281,610.3231063926496 L 481.42209550100824,606.6270300686123 L 484.5801972433679,604.7839508850325 L 490.09384709274485,602.3793328559757 L 494.26616228752295,600.6403648054236 L 498.64128581511557,598.7534207260012 L 503.38082496227173,596.5622595849543 L 508.2270799913003,594.0852786946372 L 512.9573716907482,591.3191778787667 L 517.4406365047398,588.2459396639994 L 521.4994526212845,585.0077261058709 L 525.0890355647279,581.688859410026 L 528.1646008594173,578.3736617821002 L 531.4670393604152,574.0227308297717 L 534.1300627061098,569.5746402061061 L 536.1120545033997,565.6046394405082 L 538.5061338174032,560.7425915535015 L 540.7986610619414,557.0921262182547 L 544.9434051204768,555.6939701466046 L 547.4491424434405,559.5822641714761 L 548.9774809640529,564.715026442552 L 550.5900746600207,569.4528143618079 L 552.5660461606,574.1133532250138 L 555.127714749038,578.3185503868658 L 558.5067011793082,581.9392135234119 L 562.0779165354985,584.9660445021451 L 566.2904594447488,588.1078050925153 L 570.5050615940202,590.9704073739558 L 574.6978080150352,593.7397119751711 L 578.8085118327781,596.6030223078512 L 582.8147624949362,599.766044042419 L 586.4231355765249,603.1258473240072 L 589.7148181067962,606.8879823889848 L 592.581180436718,610.9795427498161 L 594.9269367230385,615.1081553391521 L 596.8413186507303,619.2812037311937 L 598.6750181123607,624.2861029077579 L 600.1966161122224,629.1912812589055 L 601.5738988028779,634.221898468354 L 602.7362894381527,639.1794049176074 L 603.6072111771895,644.3187949990228 L 603.7905026476474,649.377291739252 L 603.1149268699328,653.8294526438103 L 601.6290606415928,658.8547432255053 L 599.996674559958,663.4952006765537 L 598.8222540728067,668.1238619091479 L 598.1955125000744,673.153137791945 L 596.1448205640459,677.6653704122683 L 591.7320170363492,677.8876206093805 L 587.7997347100213,674.8382643234096 L 585.3182100306484,670.3835500352943 L 583.4060977061649,665.6641638299617 L 582.5827620708662,660.6122887140157 L 584.483610976025,656.318383883856 L 587.3678578952495,652.3419180431832 L 588.5913291745395,647.5694118182462 L 588.1192082905901,642.6092709255637 L 586.7142277142195,637.7052297059897 L 585.3882560449886,632.8428304503751 L 587.6538750084138,628.9574436358228 L 592.4551111993294,628.9054644020946 L 596.5869770618908,631.1515214733515 L 600.4214161563301,634.6844130431725 L 603.7506536989001,638.4059866498908 L 606.7401646877527,642.8128742540326 L 608.8055211978923,647.4743012600456 L 609.7790342170914,652.2844571844967 L 609.3022348466194,657.0513226310554 L 608.0412532511491,661.9022128403313 L 607.356902380481,666.8946314931305 L 607.7826662681498,671.9707284583912 L 609.3589245806673,676.4855013223558 L 613.1323919112474,678.7277934794735 L 618.4627370778571,679.2348892958242 L 622.9601928455938,678.937561989061 L 628.3570503953425,678.6106351121474 L 633.4161996586605,678.6634221959208 L 638.4496001067198,679.110249861048 L 643.4572363374597,679.9902642333346 L 648.3260975720501,681.3953814722979 L 652.9521468839918,683.2165099489075 L 657.4676841280976,685.2237748738232 L 662.0784125848737,687.21804076585 L 666.7746567866375,689.0495783792919 L 671.4608502662769,690.6015439188978 L 676.2121887305937,691.7975983553431 L 681.0627602035329,692.5462515081016 L 686.1862791483868,692.8227115634452 L 690.9595491085734,692.6784624998871 L 695.9640638854971,692.1881553078839 L 701.050429494287,691.3631394310461 L 705.9773773895655,690.2506268241291 L 710.7993721131503,688.9380196155579 L 715.5884226437508,687.5450497991201 L 720.4254889868979,686.1861079657328 L 725.3470201890384,684.9545678516117 L 730.2338319651002,683.9297416327947 L 735.0624564413794,683.1623174435949 L 740.1213512074438,682.6563051844556 L 745.0845795868617,682.3865597964689 L 750.0000071951223,682.2349543280616" fill="none" stroke="#000000" stroke-width="1.25"/>
</svg>
