<?xml version="1.0" ?>
<svg xmlns="http://www.w3.org/2000/svg" xmlns:ev="http://www.w3.org/2001/xml-events" xmlns:xlink="http://www.w3.org/1999/xlink" baseProfile="full" height="226px" version="1.1" viewBox="49.699999999999946 136.92121096755073 600.6 226.2014904302125" width="600px">
	<defs/>
	<path d="M 49.99999999999994,361.2040323428524 L 54.05815849356276,361.83247215610356 L 59.17884582586045,361.69265909225726 L 64.4170644821108,360.61207096643534 L 69.04376119685344,359.28872592335836 L 74.04723471663989,357.7938540468797 L 79.1472019554379,356.39553009819633 L 84.11076105146591,355.3539609199312 L 89.01889216676906,354.7685377329316 L 93.74207791766304,354.3330862710786 L 98.55478295795034,353.5679356198169 L 103.70090595167937,352.0053972548974 L 108.32316941290628,349.890498131042 L 113.07356624689086,347.2567603045434 L 117.66625089396067,344.430689410912 L 121.81537779444332,341.73879108565853 L 125.4402949584856,339.3767225892889 L 130.87061010132606,336.6535876583007 L 132.3036642258897,339.2131927560756 L 131.6202247699713,344.66720124880385 L 131.13531552147623,349.8320547988786 L 134.49248084112028,352.30801970042455 L 139.7851621834456,353.25587584508673 L 144.7167676067815,352.45177822376854 L 146.38432435998962,348.53213437568036 L 144.69400280671925,344.2807964596673 L 143.97808210141932,338.9126725207428 L 144.3678376812035,333.7004297107933 L 145.50363677068736,328.84283404397684 L 148.498462917448,325.20435109523964 L 152.6779193987118,322.46134556214906 L 157.18158626313468,319.77639095568 L 161.26066553885457,317.27065900802256 L 165.74072632112635,317.58540438188055 L 168.326323167341,321.42162126267124 L 168.63217069255236,326.50759469273726 L 168.08949863017676,331.8255544663416 L 167.21792795200835,336.95681381402954 L 165.9078218286195,342.20422533771966 L 164.15054919245114,346.24793164260245 L 162.5316710905189,350.8155072477639 L 166.16979297131917,353.67748462067556 L 171.17894609655997,354.4696554570289 L 176.0994042136433,353.5654229190724 L 177.29787078463687,349.3171476705936 L 176.87572911818137,344.3522950589391 L 177.48370573047401,340.866333475176 L 179.48147772439498,335.20139120004984 L 181.47733068502984,330.24049369248075 L 185.58190373415974,320.30329568971365 L 187.5194972543315,315.56624678336607 L 189.3589845704104,310.87891740981684 L 190.84607466270865,305.4918169271107 L 187.8617053265075,304.0987257404819 L 185.5111190065155,308.12925942140623 L 184.59625372114013,313.1770754259253 L 184.88096214783656,317.80836391212955 L 188.23941643602708,321.2488961192406 L 192.81703612315164,323.8418689003297 L 197.87908789239663,325.35367267071064 L 202.6134181407658,326.34868471011134 L 207.0276457608966,328.4455431380039 L 210.11344910837775,331.9466858019948 L 212.78525552800087,336.5733588651806 L 215.17435245120922,341.3701561584095 L 217.88074876137654,345.3451490058649 L 222.2582210267756,345.9556216366301 L 226.73989228015122,343.5646447861001 L 230.12807081100985,339.8007194531014 L 229.16308816313477,335.3419200084629 L 225.096966620267,332.5800003192312 L 221.69495202992158,328.93462914386384 L 219.07906313670878,325.1259166823719 L 215.94863965952345,320.7569812654581 L 212.47514484620797,316.6173885096712 L 209.29650700319297,313.0388954263458 L 206.3445046744993,308.8593400366234 L 204.60560204308172,304.33558405495717 L 203.8852777057558,299.2323216375213 L 207.15522854426231,297.6370031243383 L 212.26613382201396,299.04158407170416 L 217.06183085852354,299.23051669333245 L 219.9486898014828,295.6028754338867 L 220.47924603864647,290.9050614114708 L 224.94172882850722,290.6924773234599 L 230.36056167377723,291.78524958782975 L 235.18147145161868,292.6501374877166 L 239.7344594763729,291.25483093819287 L 244.0050066475069,288.6086336676504 L 248.83957329711694,288.6707100652291 L 253.53354644234793,290.7399218636445 L 257.8501108935296,290.44998079090016 L 255.91495606498182,286.3017213531175 L 251.39794145705432,283.7279366710838 L 246.44368799947236,282.54683686284534 L 241.63477713441247,282.3057893439217 L 236.53972101657854,282.70320007668886 L 231.44077698797756,283.24233403234393 L 226.2572076999113,283.5511605571174 L 221.64369680285537,282.96104460663565 L 217.15024655557488,280.849072666117 L 213.4379186597864,277.3475666558992 L 210.581258133013,273.2726302854423 L 208.0505288842666,269.0514493544008 L 204.97479590560377,265.60380293364176 L 200.6423106396907,262.6072661080598 L 196.0545549856434,260.5978825044301 L 191.26795331870974,259.21659824875496 L 187.2885395236325,258.581569399293 L 182.34490113265886,258.2546707496607 L 176.44940107430352,258.0894869109285 L 171.60119836878073,258.00190072159484 L 166.33161648046928,257.94409100330216 L 161.01129497475515,257.9335780629185 L 156.0108734170238,257.98788220731205 L 150.1744316867224,258.2037758013373 L 144.65584063110578,258.71336267755083 L 141.17930955994973,259.31904702428375 L 136.60842103451103,260.7882810407244 L 132.36918355479145,263.1674857454176 L 128.3662454321422,266.3697304776883 L 125.33746753959969,270.0006482688916 L 122.81274121234154,274.4680988257824 L 120.76142856719724,279.1787315618802 L 119.10562055026094,283.85903299393885 L 118.06871557910496,288.7863949351637 L 117.20903558053284,293.4589837457671 L 115.70710599852755,298.3789617890613 L 113.3616695274865,303.04549167540443 L 110.54544497149595,306.8949230764393 L 106.75010458858699,310.03869097201994 L 102.37480455560066,312.16887963102124 L 97.2778771642756,313.57494611842776 L 92.30037674176481,313.86613529842646 L 87.20766221238912,312.6401537362018 L 85.4645301829695,309.21703075110884 L 90.18646189916137,308.68686962221045 L 95.17854415153217,308.69210779324703 L 100.0721533636754,307.51948396168234 L 104.64747889583133,305.24761511387874 L 108.74680325992051,302.17802693129045 L 112.58377152645464,299.11051501959537 L 117.05184956464159,299.83915555972743 L 119.24022618415894,304.22034219869727 L 119.40586316644679,308.9940918885328 L 118.5519429850004,314.0983658652665 L 117.46534817835268,319.01893123300835 L 116.84809728854529,324.2824834508755 L 115.96731022604735,328.93084922637297 L 113.20211070104602,332.2422396015934 L 108.5272759608214,335.23180689051173 L 103.8288088982126,337.62357055673147 L 99.46527293404776,339.8182494688423 L 95.95693232471072,342.9210893226342 L 96.89746097092195,347.5045197199301 L 101.31730057206133,348.9924935384695 L 105.71029949957901,347.0645038830603 L 109.8154174240498,343.7174112459217 L 113.40488533459461,340.76794872241726 L 117.46232390823495,337.6173776641597 L 121.70121048711657,334.4746121052217 L 125.80626238576691,331.3843955621601 L 129.6023103816372,328.1825344032102 L 133.10832896375314,324.2946409380154 L 135.50746051323028,320.0909440387351 L 136.8700361985587,315.5178724627393 L 137.4153064573329,310.5606402646865 L 137.45353982287867,305.27300277534493 L 137.4040833578468,300.2507906749547 L 138.41915779640078,295.4377913693436 L 142.5782876827822,295.52421808629185 L 146.1244462973176,298.1777077204088 L 150.80115541805623,301.0953851745213 L 155.39157806880604,302.8991307384151 L 160.3982548344947,303.8840014206077 L 165.31456414884994,303.7837344765944 L 170.12446677635728,302.60739270383135 L 174.8965876556711,300.3977871550476 L 179.4019998385423,297.3984929409502 L 182.811519700967,294.3628223816778 L 184.66302130216303,290.0748948865348 L 182.87145214462012,285.71588288581916 L 180.38144107592973,281.10949045219536 L 178.46060414434365,276.47838992758284 L 178.04424237658208,271.6374273315407 L 179.136979312057,266.940647812989 L 181.8435205373591,262.5243566824963 L 185.5756933836901,259.5143641299516 L 190.26924000262457,257.49172559147087 L 195.00227390569685,256.65256516674685 L 199.84642176610072,256.5637307146457 L 205.13616472706104,256.81977810455123 L 210.27294102849135,257.09881631513184 L 215.40515924004467,257.46841935636184 L 220.33651488442558,258.1137232636802 L 225.21295739434638,259.37180330464355 L 229.72182822451526,261.50841146424244 L 233.57753741068518,264.3688105778108 L 237.0958921003009,267.8571155266334 L 240.5923434770327,271.48261294621506 L 244.3752997542048,274.5874463097856 L 248.48714141744063,276.863402112654 L 253.03519026660283,279.04060298075046 L 257.6532576958266,281.6179698452785 L 261.9637971073412,284.4719207633502 L 266.23115666869074,287.3151785472204 L 270.4063518340339,289.66000856050744 L 275.62517250987173,291.2275514525769 L 280.1617435754267,291.0564031450648 L 284.44554692389835,289.3987748125195 L 288.3811208375155,286.2213995488578 L 291.0433044839838,282.9881913862852 L 293.26289745005704,279.2767941149916 L 295.4092483366803,274.267681204831 L 297.18017274099805,268.61266947426736 L 298.2931169965366,264.1832445022245 L 299.35358650936666,259.3364734783037 L 300.34851277821843,254.23283155227017 L 301.26482730182204,249.03279387388898 L 302.08946157890773,243.89683559292504 L 302.84081440550835,238.7608479768969 L 303.5659093262245,233.37447458098552 L 304.23621369074294,228.33953563644621 L 304.9348882891186,223.5549023194186 L 305.745093911407,218.91944580604206 L 306.75377661371346,214.31659538000167 L 308.05712082670965,209.59205832259158 L 309.6568969347498,204.88321550997426 L 311.5666861700121,200.24108945836744 L 313.80006976467433,195.7167026839893 L 316.36501480364655,191.36975924866255 L 319.22910649209376,187.29172666374987 L 322.41101432793874,183.45017534325476 L 325.89289480656237,179.87157346143704 L 329.65690442334557,176.58238919255618 L 333.6816012471721,173.61152124640694 L 337.87478509778964,171.02020894478454 L 342.28122105306244,168.75773067904456 L 346.87703209812184,166.8240790783837 L 351.63834121809913,165.21924677199883 L 356.5412713981255,163.94322638908667 L 361.3734996668354,163.02190555565448 L 366.2688561694674,162.3803331612631 L 371.2376584315787,161.98074179773505 L 376.2630544792166,161.791430387316 L 381.3281923384276,161.78069785225165 L 386.6152662043492,161.92464479040973 L 392.0808964066011,162.2014271844147 L 397.35807396323344,162.55937296982066 L 402.30713299974883,162.94952750104466 L 406.78840764165045,163.3229361325038 L 411.7492712326871,163.70598367671323 L 416.7839216324041,163.87797418496166 L 421.3304644032158,163.54034735741777 L 425.7434150437229,162.65909840755418 L 430.0974750961488,161.4399778338107 L 434.9034548475753,159.88921117261756 L 440.08946532513096,158.10314202888665 L 445.11887492962006,156.33860650958735 L 449.91505862211017,154.6435085459446 L 454.72200838462925,152.91177063410242 L 459.4182119619539,151.16419415622846 L 463.8821570988613,149.42158049449012 L 468.94320706725415,147.30776543959732 L 473.6066973185312,145.25356717099518 L 477.93803959977083,143.31966784406313 L 482.27614599844577,141.45412213132138 L 487.081586406927,139.61666292942002 L 491.79685220089596,138.21510009595957 L 496.57021591686555,137.36688803334098 L 501.6040987135912,137.22121096755075 L 506.51648607056796,137.92921842730584 L 511.3239823354261,139.64789479133745 L 515.9136589232563,142.3272805534768 L 519.7074892286347,145.1371299534469 L 523.2340303977551,147.9826518268771 L 527.020113023952,151.30476490793708 L 530.6259563103695,154.63138075777087 L 534.4839390259796,158.2563867500685 L 538.185019622149,161.7943922304307 L 541.8321899258383,165.44039152463722 L 544.7119754406383,169.03110578795471 L 547.1109302439581,173.11862908934083 L 549.3030505610914,177.447336108054 L 551.6059379866851,182.20448166372068 L 553.8978548499911,186.89824269774962 L 556.1396938756839,191.28554490470222 L 558.456434928468,195.59914715983865 L 560.9612298787214,200.06772023050337 L 563.4584963603402,204.4075304289383 L 566.0276314195996,208.85979779599256 L 568.4863835766894,213.20297198533478 L 570.8117004739224,217.52516974572586 L 572.8801749383936,221.8704385728734 L 574.6397932493462,226.4451291281596 L 576.0843304927239,231.26491245298388 L 577.2325908971907,236.02083826679404 L 578.2269071047083,241.0714446965705 L 579.0030780300399,246.15059184427432 L 579.5217858012691,251.31273651763908 L 579.7216896494385,256.42808085909985 L 579.6322685382017,261.29376033374507 L 579.3310272199305,266.0768710772648 L 578.8655845185276,271.16928956729805 L 577.8248520976376,281.0412579823819 L 577.3944815635969,285.9022536970038 L 577.1378800457953,290.7442168418648 L 577.1108646758305,295.85018299824367 L 577.3101915812335,300.7792730702288 L 577.7043479079973,305.82553407105615 L 578.2897047177141,310.90292643465995 L 579.0960766575386,315.9517944027706 L 580.2375436981533,321.1541956215823 L 581.5957074188298,325.83242132794084 L 583.2743024555721,330.363229158865 L 585.5347287676918,335.282462154506 L 587.5891227241582,339.1545325362636 L 590.0172532564284,343.7020908192881 L 590.270387477567,348.4752207833849 L 586.0666849336844,349.9896644791728 L 580.960780585601,349.4585846864241 L 576.229037897833,350.0892757667988 L 572.6747060286455,347.0837143549718 L 571.4558466852841,342.4468119222049 L 570.7533058720405,337.35932249129985 L 569.9654653746416,332.44535585269193 L 569.0073182371382,327.6753059499223 L 567.9536273461422,323.18844244294553 L 565.4405108237397,313.1130069255721 L 564.2996905710861,308.326207530979 L 563.2126852387844,303.2680229023048 L 562.293155890422,298.12571406095725 L 561.6100424436777,292.79749792275163 L 561.1967143112042,287.62361694947174 L 560.9833173387431,282.7480786385406 L 560.8877858732496,278.13689526230695 L 560.8233180754028,273.0030982326552 L 560.7007958612471,268.15029470110426 L 560.4022970277663,263.2237264050365 L 559.878090545382,258.1958808069811 L 559.1555518510725,253.15013361816307 L 558.249262778296,248.24737180327764 L 556.8483642761059,242.56703237874137 L 555.5159869589893,238.7139690797219 L 551.7159183567983,236.49123963900968 L 546.8652396412328,236.4888161236656 L 543.443773416507,233.17815615478372 L 540.1284323260417,229.35920834817347 L 536.2323030528152,225.77381608982438 L 531.8967815360176,223.0939385039152 L 527.1640883527452,221.73856918051277 L 522.2580890300337,221.91552194332814 L 517.5482271238232,223.3436967168077 L 513.9447382612786,226.7323559062383 L 511.1346289653093,230.9825133406082 L 507.48971141371084,234.15323862920513 L 502.73873090453145,233.8195482866442 L 498.8623550555084,230.69165748717649 L 495.9817349456135,226.59305473063787 L 492.88509990396835,222.7136473354684 L 489.50208710982923,219.82227201798065 L 484.8820027034184,217.47373653580706 L 480.4292362465053,215.7093059638289 L 475.46825140378803,213.55115618692935 L 470.8636839257324,210.99660601792732 L 466.648176562697,208.08968829988424 L 462.9087356138334,205.0155483382461 L 459.27680313087006,201.3645343447718 L 456.42966985579676,197.44759020825268 L 454.29257030155645,192.97337324384054 L 452.7700423916375,188.036732379093 L 451.87274668430285,183.18952280129244 L 451.88423624994255,178.20258298002997 L 453.377962648039,173.71493546314565 L 456.6401267996189,170.0401104993818 L 461.06388831948294,167.8925496094424 L 465.79215059631196,166.21929530090844 L 470.3912653815208,164.25609163169702 L 474.58783275932893,161.66740489801015 L 478.5533873514591,158.56084280012092 L 482.5244795727291,155.15407439949513 L 486.4417122938243,151.84371710017047 L 490.3601420048473,148.97690320444164 L 494.9393423363446,146.798813910778 L 499.72114391638314,146.26207079544832 L 504.5317949633738,147.49225718653082 L 508.373210336449,150.4805292592921 L 510.71732237941944,154.53181300937018 L 511.9865823680476,159.05459679632398 L 512.682821608938,164.3735405511345 L 512.9342795272089,169.16392403949692 L 512.8247934208846,174.37186933757687 L 512.202470792588,179.66853906056605 L 510.9664476560624,184.84406262226588 L 509.2828863590797,189.5334770964604 L 507.2483021366519,193.71288336788996 L 504.4474933143757,197.90691513457278 L 501.22160754334493,201.53079442709475 L 497.6242752215341,205.08818396052516 L 494.09303085286024,208.78222715672223 L 491.2585642006434,212.7191240811657 L 489.5905267501752,217.22376297321472 L 488.9392588675227,222.20514795295045 L 488.7881450871295,227.06015374008075 L 488.9211423984882,232.22343604128326 L 489.2878490147507,237.29510197290864 L 489.69622888202576,242.22532981842676 L 489.8405807612043,247.23309556005677 L 489.5026812385973,252.09914374488267 L 488.7235068672149,257.05553102941985 L 487.58890220473734,262.02490535967746 L 486.19522661156327,266.89852575652446 L 483.19603885855497,276.35768797376556 L 481.806150414842,281.2481470869078 L 480.67941348667347,286.0918713254558 L 479.88224888288096,290.87107694649296 L 479.4047111616108,295.59429598555096 L 479.09040994637485,300.62161624144994 L 478.81880884793236,305.794499557903 L 478.53483867679,310.75917191684687 L 478.20688191430327,315.86077399753833 L 477.8368503605781,320.85646975668544 L 477.3249300691792,326.62977192048027 L 476.8090075127238,331.6378389522432 L 476.2862720058279,336.2375134840628 L 475.9700359222706,340.726774108761 L 477.2658853995429,345.4653598170769 L 479.9073492671348,349.7440352018285 L 480.22881498974624,354.7310845148762 L 476.7823528106392,356.41097795292745 L 471.35148636542255,356.7212772107554 L 466.091763323626,356.76359311022804 L 460.71395450181814,356.1038418143886 L 456.4600099504418,354.349143659442 L 453.01509396741,350.80347948468074 L 452.6519152841871,346.0753390665797 L 453.78867688714416,341.45458928088703 L 454.95501041846006,336.5488022252863 L 455.63929027104746,332.8088905924601 L 456.16387376968856,328.84741089931833 L 456.5971166171332,323.60212720155323 L 456.8653128023102,316.7178419373388 L 456.9193120091541,311.6046114858279 L 456.8989531963426,306.4312544856733 L 456.82385054768656,301.0228064410567 L 456.70598598269515,295.59201951823934 L 456.5573414208774,290.35164588348437 L 456.38989878174226,285.5144377030542 L 456.21563998479894,281.2931471432107 L 455.7473019864586,273.63333268228297 L 455.1652646094759,270.0284229522655 L 452.8627971799283,267.4681531953936 L 448.4056664019555,267.8608878207005 L 443.76217972193075,270.1307006471376 L 440.0275566757254,272.1046784483059 L 435.46519464883954,274.29961696301 L 430.2478108788159,276.45513605210596 L 425.7766419187511,278.07092042548334 L 420.90718816129345,279.63993868816647 L 415.8757687952703,281.0532032229711 L 410.86540373873885,282.21268134581874 L 405.8750456249787,283.0703570140204 L 400.99820892412254,283.634252723088 L 396.09089475449196,283.9816879015321 L 390.96319763569454,284.19126596057765 L 385.55840902921767,284.3221328107285 L 380.3191709434483,284.3994871409584 L 375.60473745880375,284.451188904075 L 370.29138892285283,284.53900696194864 L 365.6080591504351,284.8207667615125 L 361.418931272395,285.5592296458063 L 356.5548274644763,287.1891368290841 L 352.41668967425505,289.28109218880945 L 348.1043854382256,292.0088080947364 L 343.7889065012571,295.13654882927256 L 339.7301714940559,298.29469474785054 L 335.82031626232157,301.40896027289693 L 331.66272061701164,304.66752116731675 L 327.8001528417041,307.62008677698043 L 323.9743111682456,310.62332117169274 L 320.4100336413491,314.0177508515976 L 318.1155903639088,317.79702148843154 L 316.8543984915285,323.03718325599783 L 316.3291093684397,327.70253271298265 L 315.99650811124627,332.9105867183206 L 315.8662339431265,338.3256706843745 L 315.9499940111853,343.6883426721238 L 316.13440440758194,348.0586942460712 L 316.29650754156313,353.24891369487455 L 315.0541163438007,357.66742588190425 L 310.74723163109974,359.98682930808906 L 305.8456701721555,360.2389940174312 L 300.4506515456387,359.2902843803578 L 296.018813947733,357.18333261241656 L 294.58573246538583,352.9325256229134 L 295.12615005989613,348.06152843285645 L 296.1996460086988,343.96163794839754 L 297.2632359041403,338.32979101036267 L 297.82774770216423,333.7406751701084 L 298.32794051863095,328.59437231082114 L 298.7749248095445,323.27389785162006 L 299.2095426630384,317.83117024204734 L 299.68240859985315,312.6727891027403 L 300.28518679707963,307.9771375947264 L 301.2793698764687,303.1538936273586 L 302.82563472435925,298.35772068526 L 304.6848556617032,294.03709580317366 L 306.9296620999169,289.5350407428476 L 309.25397933311405,285.1553090624367 L 311.5180660101232,280.78198715318166 L 313.5385356295408,276.1960032513202 L 314.845525531104,272.18327981379207 L 315.7740667574547,267.873554667863 L 316.5403170620446,262.2237532748702 L 317.03857817836587,256.82727315378725 L 317.4056926972602,251.82263418076343 L 317.740456307057,246.54018515333314 L 318.0399027750565,241.28494538818325 L 318.3010658685592,236.3619342020017 L 318.5944628595386,230.65182882313792 L 318.9057030055423,225.16279403863092 L 319.24342829833705,221.04074441077694 L 319.93182201298185,216.32018972109233 L 320.93787719513665,211.67451570985332 L 321.95610111327926,206.85277372420092 L 320.23794040899594,202.76386419684394 L 316.336891745814,204.76103071302202 L 314.6226600373975,209.27744389986913 L 313.144190844469,214.52241355748953 L 312.2884131611274,219.3228442365859 L 311.78726284205743,224.415392485824 L 311.6746931487177,229.20388982626682 L 312.0381915505802,234.3416779887445 L 312.8637283897158,239.17032354112825 L 314.1821079799529,244.03521790853193 L 316.04475585432505,248.80115515524545 L 318.40414365823955,253.19848782808958 L 321.2137488493989,257.32248840557406 L 324.41616966495366,261.23505290063474 L 327.918498899691,264.9502391216024 L 331.4723438159141,268.34488882268954 L 335.1947179073387,271.65169975170505 L 338.8610352565467,274.9332623711523 L 342.2601136416981,278.37067232651646 L 345.29487389065815,281.9900402287327 L 348.34784371925196,286.17293538164483 L 351.1469499636985,290.45766339944385 L 353.67452589938273,294.7603322685766 L 355.9911779713786,299.2910142013942 L 357.8814183581822,303.80661905941537 L 359.2384970220282,308.0880889969483 L 360.3129644352329,312.7395435181495 L 361.2188213946237,318.06228480213576 L 361.953049768399,323.43290808870063 L 362.58699622361127,328.66493224003284 L 363.1885625117291,333.9922674582547 L 364.22119509252593,343.5300800936305 L 364.97407121750166,349.90180726800213 L 365.7016885255465,353.72308898665233 L 367.9150269413888,357.64402837128387 L 372.41965599302836,358.9412334060201 L 377.44482194875724,359.3021410711034 L 382.7294030114511,358.9358703362053 L 386.81403737448335,356.6195628551983 L 389.1925235040789,352.34857289610204 L 387.59782886917895,347.69857281071086 L 385.0794282005896,343.35963434488804 L 382.65994195653747,339.0506105130312 L 381.88049790511167,334.4448834440119 L 381.1385533771793,324.6122691046612 L 380.6430443289359,319.08536020151325 L 380.0560795738739,313.8931060501909 L 379.34777066901944,309.00504485522606 L 378.35114377830604,303.9115106339708 L 377.0974641921947,298.9607921762217 L 375.99698142835916,294.33272267164693 L 375.5003218871631,289.48768782653167 L 375.83161622527285,284.9449065014461 L 378.05729160795505,280.3230958124828 L 381.4220948565669,276.62701951425186 L 384.58019652189967,274.7839403454491 L 390.09384623679733,272.37932233829184 L 394.2661613298118,270.640354304663 L 398.64128475069407,268.7534102441364 L 403.38082378225164,266.5622491253201 L 408.22707869307897,264.0852682600778 L 412.95737027715387,261.3191674716317 L 417.4406349817975,258.24592928628164 L 421.49945099934655,255.00771575804922 L 425.0890338552392,251.68884909170308 L 428.16459907491475,248.373651492011 L 431.4670374953655,244.02272057461485 L 434.13006077610834,239.57462998429324 L 436.11205252505687,235.60462924696483 L 438.5061317806683,230.74258139428585 L 440.7986589692912,227.09211608665436 L 444.94340292673525,225.69396003904455 L 447.4491401885833,229.58225405464847 L 448.9774786719192,234.7150163053343 L 450.59007232855544,239.45280420602288 L 452.56604378094016,244.11334305211892 L 455.1277123068986,248.31854020157363 L 458.5066986547547,251.93920333256779 L 462.0779139238419,254.9660343101778 L 466.29045673034744,258.1077949020292 L 470.5050587768236,260.97039718700165 L 474.69780509557654,263.7397017925965 L 478.80850881305827,266.60301212900754 L 482.8147593775029,269.7660338651407 L 486.42313237108266,273.1258371450085 L 489.71481482106907,276.88797220387215 L 492.58117708107955,280.9795325538315 L 494.9269333101864,285.1081451287798 L 496.841315191186,289.281193503298 L 498.67501460809206,294.28609265567945 L 500.19661257084147,299.1912709810209 L 501.5738952279048,304.2218881624341 L 502.73628583482855,309.1793945824345 L 503.60720755262327,314.3187846310627 L 503.79049901861066,319.37728133458666 L 503.1149232573737,323.8294422016199 L 501.6290570652743,328.85473273655094 L 499.9966710234538,333.4951901428252 L 498.8222505649468,338.1238513331912 L 498.19550900750096,343.1531271734666 L 496.1448171214892,347.66535974741265 L 491.7320137014222,347.88760991959225 L 487.79973147100327,344.8382536372476 L 485.3182068521556,340.38353937098475 L 483.4060945743089,335.6641531921016 L 482.5827589590915,330.61227811014453 L 484.48360781788824,326.3183733215875 L 487.3678546667652,322.3419075252696 L 488.5913259162145,317.5694013419658 L 488.1192050437803,312.60926048299433 L 486.7142245016775,307.7052192913251 L 485.3882528647874,302.8428200632982 L 487.65387177295366,298.95743328829593 L 492.45510784676577,298.90545408147307 L 496.58697360855,301.1515111603113 L 500.4214126094663,304.6844027270776 L 503.7506500708354,308.40597632644835 L 506.7401609867729,312.81286391606204 L 508.8055174465383,317.47429089976134 L 509.7790304419931,322.2844467937342 L 509.3022310831503,327.0513122009628 L 508.0412495184357,331.9022023653156 L 507.3568986644592,336.894620975306 L 507.78266254174326,341.97071790328647 L 509.35892081581574,346.48549074075186 L 513.1323880543598,348.7277829022887 L 518.4627330909611,349.2348787469252 L 522.9601887490038,348.93755147070124 L 528.3570461671218,348.6106246312319 L 533.4161953070459,348.6634117481888 L 538.4495956323394,349.1102394440255 L 543.4572317409418,349.99025384413574 L 548.3260928567794,351.39537110634046 L 552.9521420558905,353.2164996015763 L 557.4676791898615,355.22376454326206 L 562.0784075341808,357.21803045341267 L 566.774651621402,359.0495680875997 L 571.4608449867442,360.60153365090196 L 576.2121833351744,361.79758811533793 L 581.0627546898072,362.54624130158555 L 586.186273509697,362.82270139776324 L 590.9595433534625,362.6784523767223 L 595.9640580083249,362.18814523330843 L 601.0504234930572,361.36312940986556 L 605.977371268166,360.250616858581 L 610.7993658741414,358.93800970754705 L 615.5884162879356,357.54503995011004 L 620.4254825131054,356.1860981769154 L 625.3470135952086,354.9545581236921 L 630.2338252520797,353.929731964525 L 635.0624496105879,353.1623078329356 L 640.1213442532646,352.6562956323292 L 645.084572511628,352.3865503005683 L 650.0,352.2349448876627" fill="none" stroke="#000000" stroke-width="0.6"/>
</svg>
